<svg width="72" height="72" viewBox="0 0 72 72" fill="none" xmlns="http://www.w3.org/2000/svg">
<path d="M72 36.2001C72 62.2333 56.1104 73.3216 37.2414 71.8753C27.8069 71.1522 3.6996e-07 58.3766 0 36.2001C-3.6996e-07 14.0236 32.4058 1.62031 37.2414 0.524835C52.1379 -2.84986 72 10.1668 72 36.2001Z" fill="#0095FF" fill-opacity="0.2"/>
<path d="M25.463 41.0557L30.0244 45.6171C33.2279 48.8206 34.3221 48.7679 37.4861 45.6171L44.8291 38.274C47.3867 35.7165 48.0327 34.0158 44.8291 30.8123L40.2677 26.2509C36.8533 22.8365 35.3636 23.6934 32.806 26.2509L25.463 33.594C22.3122 36.758 22.0485 37.6412 25.463 41.0557Z" stroke="#0095FF" stroke-width="2" stroke-linecap="round" stroke-linejoin="round"/>
<path d="M45.8046 42.6772L44.9346 44.1142C43.7085 46.1576 44.6577 47.8319 47.0439 47.8319C49.43 47.8319 50.3792 46.1576 49.1532 44.1142L48.2831 42.6772C47.5976 41.5435 46.477 41.5435 45.8046 42.6772Z" stroke="#0095FF" stroke-width="2" stroke-linecap="round" stroke-linejoin="round"/>
<path d="M23.1294 36.6789C30.4593 34.6883 38.1847 34.6223 45.5409 36.5076L46.2001 36.6789" stroke="#0095FF" stroke-width="2" stroke-linecap="round" stroke-linejoin="round"/>
</svg>
