<svg width="72" height="72" viewBox="0 0 72 72" fill="none" xmlns="http://www.w3.org/2000/svg">
<path d="M63.6072 54.0613C48.0478 76.0023 28.5543 76.0299 14.1398 63.7464C6.93259 57.6046 -7.94804 30.5316 5.30621 11.8411C18.5605 -6.84934 52.2136 1.69958 56.7839 3.61187C70.8631 9.50287 79.1665 32.1203 63.6072 54.0613Z" fill="#FEC458" fill-opacity="0.2"/>
<path d="M33.1373 42.2724H28.3347C24.0644 42.2724 23 41.208 23 36.9377V29.3347C23 25.0644 24.0644 24 28.3347 24H41.6779C45.9483 24 47.0127 25.0644 47.0127 29.3347" stroke="#FEC458" stroke-width="2" stroke-linecap="round" stroke-linejoin="round"/>
<path d="M33.1372 48V42.2725" stroke="#FEC458" stroke-width="2" stroke-linecap="round" stroke-linejoin="round"/>
<path d="M23 37.2036H33.1373" stroke="#FEC458" stroke-width="2" stroke-linecap="round" stroke-linejoin="round"/>
<path d="M29.0063 48H33.1373" stroke="#FEC458" stroke-width="2" stroke-linecap="round" stroke-linejoin="round"/>
<path d="M48.3433 37.0137V44.2492C48.3433 47.2524 47.5956 48 44.5925 48H40.0941C37.0909 48 36.3433 47.2524 36.3433 44.2492V37.0137C36.3433 34.0106 37.0909 33.2629 40.0941 33.2629H44.5925C47.5956 33.2629 48.3433 34.0106 48.3433 37.0137Z" stroke="#FEC458" stroke-width="2" stroke-linecap="round" stroke-linejoin="round"/>
<path d="M42.3173 43.9197H42.3287" stroke="#FEC458" stroke-width="2" stroke-linecap="round" stroke-linejoin="round"/>
</svg>
