<svg width="73" height="72" viewBox="0 0 73 72" fill="none" xmlns="http://www.w3.org/2000/svg">
<path d="M69.4381 47.0957C59.49 71.8846 40.5587 76.5494 23.6621 68.1738C15.2139 63.9859 -5.61885 41.5075 2.85551 20.3911C11.3299 -0.725397 46.0371 -0.516549 50.9275 0.233866C65.9928 2.54558 79.3863 22.3068 69.4381 47.0957Z" fill="#00CEC9" fill-opacity="0.2"/>
<path d="M33.4 42V34.8L31 37.2" stroke="#00CEC9" stroke-width="2" stroke-linecap="round" stroke-linejoin="round"/>
<path d="M33.3999 34.8L35.7999 37.2" stroke="#00CEC9" stroke-width="2" stroke-linecap="round" stroke-linejoin="round"/>
<path d="M49 33.6V39.6C49 45.6 46.6 48 40.6 48H33.4C27.4 48 25 45.6 25 39.6V32.4C25 26.4 27.4 24 33.4 24H39.4" stroke="#00CEC9" stroke-width="2" stroke-linecap="round" stroke-linejoin="round"/>
<path d="M48.9999 33.6H44.1999C40.5999 33.6 39.3999 32.4 39.3999 28.8V24L48.9999 33.6Z" stroke="#00CEC9" stroke-width="2" stroke-linecap="round" stroke-linejoin="round"/>
</svg>
