<svg width="72" height="72" viewBox="0 0 72 72" fill="none" xmlns="http://www.w3.org/2000/svg">
<path d="M59.3307 58.7485C40.4359 77.7548 21.1912 74.5871 8.94457 60.1563C2.82125 52.941 -7.50091 23.9034 8.59468 7.71282C24.6903 -8.4778 56.5278 5.43695 60.7304 8.06479C73.6768 16.1601 78.2256 39.7421 59.3307 58.7485Z" fill="#F7578C" fill-opacity="0.2"/>
<path d="M48 28.6C48 29.7495 47.4569 30.7726 46.6232 31.4295C46.0169 31.9095 45.2464 32.2 44.4 32.2C42.4043 32.2 40.8 30.5958 40.8 28.6C40.8 27.7537 41.0906 26.9958 41.5706 26.3768H41.5832C42.2274 25.5432 43.2506 25 44.4 25C46.3958 25 48 26.6042 48 28.6Z" stroke="#F7578C" stroke-width="2" stroke-linecap="round" stroke-linejoin="round"/>
<path d="M31.2 28.6C31.2 30.5958 29.5958 32.2 27.6 32.2C26.7537 32.2 25.9958 31.9095 25.3768 31.4295C24.5432 30.7726 24 29.7495 24 28.6C24 26.6042 25.6042 25 27.6 25C28.7495 25 29.7726 25.5432 30.4295 26.3768C30.9095 26.9958 31.2 27.7537 31.2 28.6Z" stroke="#F7578C" stroke-width="2" stroke-linecap="round" stroke-linejoin="round"/>
<path d="M48 45.4C48 47.3958 46.3958 49 44.4 49C43.2506 49 42.2274 48.4569 41.5832 47.6232H41.5706C41.0906 47.0169 40.8 46.2464 40.8 45.4C40.8 43.4043 42.4043 41.8 44.4 41.8C45.2464 41.8 46.0043 42.0906 46.6232 42.5706V42.5832C47.4569 43.2274 48 44.2506 48 45.4Z" stroke="#F7578C" stroke-width="2" stroke-linecap="round" stroke-linejoin="round"/>
<path d="M31.2 45.4C31.2 46.2464 30.9095 47.0043 30.4295 47.6232C29.7726 48.4695 28.7495 49 27.6 49C25.6042 49 24 47.3958 24 45.4C24 44.2506 24.5432 43.2274 25.3768 42.5832V42.5706C25.9832 42.0906 26.7537 41.8 27.6 41.8C29.5958 41.8 31.2 43.4043 31.2 45.4Z" stroke="#F7578C" stroke-width="2" stroke-linecap="round" stroke-linejoin="round"/>
<path d="M48 37C48 39.0211 47.5074 40.9032 46.6232 42.5705C46.0168 42.0905 45.2463 41.8 44.4 41.8C42.4042 41.8 40.8 43.4042 40.8 45.4C40.8 46.2463 41.0905 47.0042 41.5705 47.6232C39.9032 48.5074 38.0211 49 36 49C33.9916 49 32.0968 48.5074 30.4295 47.6232C30.9095 47.0168 31.2 46.2463 31.2 45.4C31.2 43.4042 29.5958 41.8 27.6 41.8C26.7537 41.8 25.9958 42.0905 25.3768 42.5705C24.4926 40.9032 24 39.0211 24 37C24 34.9916 24.4926 33.0968 25.3768 31.4295C25.9958 31.9095 26.7537 32.2 27.6 32.2C29.5958 32.2 31.2 30.5958 31.2 28.6C31.2 27.7537 30.9095 26.9958 30.4295 26.3768C32.0968 25.4926 33.9916 25 36 25C38.0211 25 39.9032 25.4926 41.5705 26.3768C41.0905 26.9832 40.8 27.7537 40.8 28.6C40.8 30.5958 42.4042 32.2 44.4 32.2C45.2463 32.2 46.0042 31.9095 46.6232 31.4295C47.5074 33.0968 48 34.9916 48 37Z" stroke="#F7578C" stroke-width="2" stroke-linecap="round" stroke-linejoin="round"/>
</svg>
