<svg width="461" height="440" viewBox="0 0 461 440" fill="none" xmlns="http://www.w3.org/2000/svg">
<path d="M406.25 360.371L375.785 349.769C372.101 348.497 370.117 344.398 371.392 340.582L397.181 266.515C398.456 262.84 402.565 260.861 406.391 262.133L436.856 272.734C440.54 274.006 442.524 278.105 441.248 281.922L415.46 355.989C414.185 359.805 410.075 361.643 406.25 360.371Z" fill="#999BAD"/>
<path d="M406.675 359.381L376.21 348.78C372.526 347.508 370.542 343.409 371.818 339.592L397.606 265.526C398.881 261.85 402.991 259.872 406.816 261.144L437.281 271.745C440.965 273.017 442.949 277.116 441.673 280.933L415.885 354.999C414.468 358.675 410.359 360.653 406.675 359.381Z" fill="#E9EBEE"/>
<path d="M397.181 348.639C396.473 350.617 394.347 351.607 392.364 350.9C390.38 350.193 389.388 348.073 390.096 346.094C390.805 344.115 392.93 343.126 394.914 343.833C396.898 344.539 397.89 346.66 397.181 348.639Z" fill="white"/>
<path d="M427.079 275.985L416.31 272.31C415.885 272.169 415.743 271.745 415.885 271.321C416.027 270.896 416.452 270.755 416.877 270.897L427.646 274.572C428.071 274.713 428.212 275.137 428.071 275.561C427.929 275.844 427.504 276.126 427.079 275.985Z" fill="white"/>
<path d="M413.193 271.038C413.584 271.038 413.901 270.721 413.901 270.331C413.901 269.941 413.584 269.624 413.193 269.624C412.801 269.624 412.484 269.941 412.484 270.331C412.484 270.721 412.801 271.038 413.193 271.038Z" fill="white"/>
<path d="M414.751 346.801L377.91 333.938C377.06 333.655 376.635 332.807 376.918 331.959L397.889 271.603C398.173 270.755 399.023 270.331 399.873 270.614L436.714 283.476C437.564 283.759 437.989 284.607 437.706 285.455L416.735 345.811C416.452 346.659 415.601 347.083 414.751 346.801Z" fill="white"/>
<path d="M436.289 289.696L437.706 285.455C437.989 284.607 437.564 283.759 436.714 283.476L399.873 270.614C399.023 270.331 398.173 270.755 397.889 271.603L396.472 275.844L436.289 289.696Z" fill="#999BAD"/>
<path d="M414.751 346.801L377.91 333.938C377.06 333.655 376.635 332.807 376.918 331.959L397.889 271.603C398.173 270.755 399.023 270.331 399.873 270.614L436.714 283.476C437.564 283.759 437.989 284.607 437.706 285.455L416.735 345.811C416.452 346.659 415.601 347.083 414.751 346.801Z" stroke="#97A3CC" stroke-width="0.75" stroke-miterlimit="10"/>
<path d="M403.415 275.279C403.699 275.42 403.84 275.279 403.982 274.996C404.124 274.713 403.982 274.572 403.699 274.43C403.415 274.289 403.273 274.43 403.132 274.713C402.99 274.855 403.132 275.137 403.415 275.279Z" fill="white"/>
<path d="M401.612 274.161C401.535 274.383 401.652 274.624 401.874 274.702C402.095 274.779 402.338 274.663 402.416 274.442C402.493 274.221 402.376 273.979 402.155 273.901C401.933 273.824 401.69 273.94 401.612 274.161Z" fill="white"/>
<path d="M400.226 273.726C400.149 273.947 400.266 274.189 400.488 274.266C400.709 274.344 400.952 274.227 401.03 274.006C401.107 273.785 400.99 273.543 400.768 273.466C400.547 273.388 400.304 273.505 400.226 273.726Z" fill="white"/>
<path d="M405.978 275.641C405.9 275.862 406.017 276.104 406.239 276.181C406.461 276.259 406.703 276.142 406.781 275.921C406.859 275.7 406.742 275.458 406.52 275.381C406.298 275.303 406.055 275.42 405.978 275.641Z" fill="white"/>
<path d="M404.601 275.26C404.524 275.481 404.641 275.723 404.863 275.801C405.084 275.878 405.327 275.762 405.405 275.54C405.482 275.319 405.365 275.077 405.143 275C404.922 274.922 404.679 275.039 404.601 275.26Z" fill="white"/>
<path d="M432.888 285.738L433.455 284.042L430.337 283.053L429.771 284.749L432.888 285.738Z" fill="#8FCDFF"/>
<path d="M434.163 285.738L434.021 286.162C434.021 286.304 433.738 286.445 433.596 286.304L429.629 285.032C429.487 285.032 429.345 284.749 429.487 284.608L430.054 282.911C430.054 282.77 430.337 282.629 430.479 282.77L434.447 284.042C434.588 284.042 434.73 284.325 434.588 284.466L434.447 284.89H434.588C434.73 284.89 434.872 285.173 434.73 285.314L434.588 285.597C434.588 285.738 434.446 285.88 434.163 285.738ZM433.455 284.042L430.337 283.053L429.771 284.749L432.888 285.738L433.455 284.042Z" fill="white"/>
<path d="M409.791 276.692C409.508 276.551 409.083 276.551 408.799 276.692C408.658 276.692 408.658 276.833 408.799 276.833C408.799 276.833 408.799 276.833 408.941 276.975H409.083C409.366 276.833 409.65 276.833 409.791 276.975C410.075 277.116 410.216 277.257 410.358 277.399C410.358 277.399 410.358 277.399 410.5 277.54C410.641 277.681 410.641 277.54 410.641 277.54C410.783 277.54 410.783 277.399 410.641 277.399C410.358 276.975 410.075 276.692 409.791 276.692Z" fill="white"/>
<path d="M409.508 277.257C409.366 277.257 409.366 277.257 409.225 277.257C409.083 277.257 408.941 277.54 409.083 277.681C409.083 277.823 409.225 277.823 409.366 277.823C409.508 277.823 409.508 277.823 409.65 277.823C409.792 277.823 409.933 277.54 409.792 277.399C409.65 277.399 409.65 277.399 409.508 277.257Z" fill="white"/>
<path d="M409.934 275.844C409.367 275.702 408.8 275.702 408.233 275.844C408.092 275.844 408.092 275.985 408.233 275.985C408.233 275.985 408.233 275.985 408.375 276.127H408.517C408.942 275.985 409.508 275.985 409.934 276.127C410.359 276.268 410.784 276.551 411.067 276.975C411.067 276.975 411.067 276.975 411.209 277.116C411.351 277.257 411.351 277.116 411.351 277.116C411.492 277.116 411.492 276.975 411.351 276.975C410.925 276.409 410.5 276.127 409.934 275.844Z" fill="white"/>
<path d="M426.087 281.78L424.528 283.194L424.245 283.052L425.52 281.922L424.812 281.639L424.953 281.356L426.087 281.78Z" fill="white"/>
<path d="M426.086 283.194C426.086 283.335 426.228 283.476 426.37 283.476C426.511 283.476 426.653 283.476 426.653 283.476C426.795 283.335 426.795 283.194 426.937 283.052C426.795 283.194 426.653 283.194 426.511 283.052C426.37 283.052 426.228 282.911 426.228 282.77C426.228 282.628 426.228 282.487 426.228 282.346C426.228 282.204 426.37 282.063 426.511 282.063C426.653 282.063 426.795 282.063 426.937 282.063C427.22 282.204 427.362 282.487 427.22 282.77C427.22 283.052 427.078 283.194 426.937 283.335C426.795 283.476 426.795 283.618 426.653 283.618C426.511 283.618 426.37 283.618 426.228 283.618C426.086 283.476 425.945 283.335 425.803 283.194H426.086ZM426.937 282.487C426.937 282.346 426.795 282.346 426.795 282.346C426.653 282.346 426.653 282.346 426.511 282.346C426.37 282.346 426.37 282.487 426.37 282.487C426.228 282.628 426.37 282.911 426.511 282.911C426.653 282.911 426.653 282.911 426.795 282.911C426.937 282.911 426.937 282.77 426.937 282.77C427.078 282.628 427.078 282.487 426.937 282.487Z" fill="white"/>
<path d="M428.212 282.629C428.212 282.77 428.212 282.77 428.212 282.911C428.212 283.053 428.07 283.053 428.07 283.053C427.928 283.053 427.928 283.053 427.787 283.053C427.645 283.053 427.645 282.911 427.645 282.911C427.645 282.77 427.645 282.77 427.645 282.629C427.645 282.487 427.787 282.487 427.787 282.487C427.928 282.487 427.928 282.487 428.07 282.487C428.212 282.487 428.212 282.487 428.212 282.629ZM427.928 282.629C427.787 282.629 427.645 282.77 427.787 282.911C427.787 283.053 428.07 283.053 428.07 282.911C428.07 282.629 428.07 282.629 427.928 282.629ZM428.92 282.77L427.503 284.183H427.362L428.779 282.77H428.92ZM428.779 283.901C428.779 284.042 428.779 284.042 428.779 284.183C428.779 284.325 428.637 284.325 428.637 284.325C428.495 284.325 428.495 284.325 428.353 284.325C428.212 284.325 428.212 284.183 428.212 284.183C428.212 284.042 428.212 284.042 428.212 283.901C428.212 283.759 428.353 283.759 428.353 283.759C428.495 283.759 428.495 283.759 428.637 283.759L428.779 283.901ZM428.495 283.901C428.353 283.901 428.212 284.042 428.353 284.183C428.353 284.325 428.637 284.325 428.637 284.183C428.637 284.042 428.637 283.901 428.495 283.901Z" fill="white"/>
<path d="M414.468 277.964H415.035L414.468 279.66L414.184 279.519L414.609 278.247H414.326L414.468 277.964Z" fill="white"/>
<path d="M415.317 279.095C415.317 278.954 415.317 278.812 415.317 278.671C415.317 278.53 415.459 278.388 415.601 278.388C415.743 278.388 415.884 278.388 416.026 278.388C416.168 278.388 416.309 278.53 416.309 278.671C416.309 278.812 416.451 278.954 416.309 279.095C416.168 279.66 415.884 280.226 415.317 280.084C415.034 279.943 415.034 279.802 414.892 279.66H415.176C415.176 279.802 415.317 279.943 415.317 279.943C415.459 279.943 415.601 279.943 415.601 279.943C415.743 279.802 415.743 279.802 415.884 279.519C415.743 279.66 415.601 279.66 415.459 279.519C415.459 279.236 415.317 279.236 415.317 279.095ZM415.743 279.095C415.884 279.095 415.884 279.095 416.026 279.095C416.168 279.095 416.168 278.954 416.168 278.954C416.168 278.812 416.168 278.671 416.026 278.53C415.884 278.53 415.884 278.53 415.743 278.53C415.601 278.53 415.601 278.671 415.601 278.671C415.459 278.812 415.601 279.095 415.743 279.095Z" fill="white"/>
<path d="M417.018 279.095C417.159 279.095 417.16 279.236 417.16 279.378C417.16 279.519 417.018 279.519 416.876 279.519C416.734 279.519 416.734 279.378 416.734 279.236C416.734 279.095 416.876 279.095 417.018 279.095ZM416.734 280.226C416.734 280.367 416.593 280.367 416.451 280.367C416.309 280.367 416.309 280.226 416.309 280.084C416.309 279.943 416.451 279.943 416.593 279.943C416.734 280.084 416.734 280.084 416.734 280.226Z" fill="white"/>
<path d="M418.01 280.791L417.018 280.367V280.226L418.01 279.66C418.152 279.66 418.152 279.519 418.152 279.377C418.152 279.236 418.152 279.095 418.01 279.095C417.868 279.095 417.727 279.095 417.585 279.236L417.301 279.095C417.443 278.953 417.443 278.812 417.585 278.812C417.727 278.812 417.868 278.812 418.01 278.812C418.152 278.812 418.293 278.953 418.293 279.095C418.293 279.236 418.435 279.377 418.293 279.519C418.293 279.66 418.152 279.801 418.01 279.943L417.443 280.367L418.01 280.508V280.791Z" fill="white"/>
<path d="M419.143 279.519C419.285 279.519 419.427 279.377 419.569 279.519C419.71 279.519 419.852 279.66 419.994 279.801C419.994 279.943 419.994 280.084 419.994 280.225C419.994 280.367 419.852 280.649 419.852 280.791C419.71 281.073 419.427 281.356 419.002 281.215C418.718 281.073 418.577 280.932 418.577 280.791C418.577 280.649 418.577 280.367 418.718 280.084C418.718 279.801 418.86 279.66 419.143 279.519ZM419.71 280.508C419.852 280.084 419.852 279.801 419.569 279.801C419.285 279.66 419.143 279.943 419.002 280.225C418.86 280.649 418.86 280.932 419.143 280.932C419.285 281.073 419.569 280.932 419.71 280.508Z" fill="white"/>
<path d="M427.504 143.541H396.331V179.444H427.504V143.541Z" fill="white" stroke="#E5E5E5" stroke-width="0.5" stroke-miterlimit="10"/>
<path d="M407.666 149.619H422.403" stroke="#1D455D" stroke-miterlimit="10"/>
<path d="M401.291 155.132H422.403" stroke="#1D455D" stroke-miterlimit="10"/>
<path d="M401.291 160.503H422.403" stroke="#1D455D" stroke-miterlimit="10"/>
<path d="M401.291 166.016H422.403" stroke="#1D455D" stroke-miterlimit="10"/>
<path d="M404.266 171.387H416.877" stroke="#1D455D" stroke-miterlimit="10"/>
<path d="M414.043 201.07H382.87V236.973H414.043V201.07Z" fill="white" stroke="#E5E5E5" stroke-width="0.5" stroke-miterlimit="10"/>
<path d="M394.205 207.148H408.942" stroke="#1D455D" stroke-miterlimit="10"/>
<path d="M387.971 212.519H408.942" stroke="#1D455D" stroke-miterlimit="10"/>
<path d="M387.971 218.032H408.942" stroke="#1D455D" stroke-miterlimit="10"/>
<path d="M387.971 223.403H408.942" stroke="#1D455D" stroke-miterlimit="10"/>
<path d="M395.906 228.209H408.375" stroke="#1D455D" stroke-miterlimit="10"/>
<path d="M389.671 131.668H358.498V167.57H389.671V131.668Z" fill="#F7578C" fill-opacity="0.7"/>
<path d="M369.834 137.746H379.752" stroke="white" stroke-miterlimit="10"/>
<path d="M363.458 143.258H384.57" stroke="white" stroke-miterlimit="10"/>
<path d="M363.458 148.629H384.57" stroke="white" stroke-miterlimit="10"/>
<path d="M363.458 154.142H384.57" stroke="white" stroke-miterlimit="10"/>
<path d="M367.708 159.513H384.57" stroke="white" stroke-miterlimit="10"/>
<path d="M461 167.03L431.289 157.62L420.398 191.838L450.109 201.248L461 167.03Z" fill="#F7578C" fill-opacity="0.7"/>
<path d="M440.256 166.864L449.75 169.973" stroke="white" stroke-miterlimit="10"/>
<path d="M432.605 170.115L452.584 176.476" stroke="white" stroke-miterlimit="10"/>
<path d="M430.905 175.345L451.025 181.705" stroke="white" stroke-miterlimit="10"/>
<path d="M429.204 180.574L449.325 186.935" stroke="white" stroke-miterlimit="10"/>
<path d="M427.646 185.804L443.799 190.893" stroke="white" stroke-miterlimit="10"/>
<path d="M367.708 161.492H336.535V197.395H367.708V161.492Z" fill="white" stroke="#E5E5E5" stroke-width="0.5" stroke-miterlimit="10"/>
<path d="M347.871 168.56H357.79" stroke="#1D455D" stroke-miterlimit="10"/>
<path d="M341.636 174.072H362.607" stroke="#1D455D" stroke-miterlimit="10"/>
<path d="M341.636 179.444H362.607" stroke="#1D455D" stroke-miterlimit="10"/>
<path d="M341.636 184.956H362.607" stroke="#1D455D" stroke-miterlimit="10"/>
<path d="M341.636 190.328H358.498" stroke="#1D455D" stroke-miterlimit="10"/>
<path d="M426.796 418.889C423.537 433.589 408.658 442.777 393.78 439.243C379.611 435.992 370.401 422.564 372.384 408.712C372.526 408.005 372.668 407.298 372.809 406.592C376.068 391.891 390.947 382.704 405.825 386.237C411.067 387.368 415.602 390.054 419.144 393.588C425.804 399.948 428.921 409.419 426.796 418.889Z" fill="white"/>
<path d="M414.893 397.687C412.059 395.001 408.516 392.881 404.407 392.033C392.788 389.347 381.169 396.556 378.619 408.005C378.477 408.571 378.335 409.136 378.335 409.702C376.777 420.585 384.003 431.045 395.055 433.59C406.674 436.275 418.293 429.066 420.844 417.617C422.544 410.126 420.135 402.775 414.893 397.687Z" fill="#E9EBEE"/>
<path d="M404.974 395.142C395.339 392.033 384.995 397.263 381.878 406.874C378.761 416.486 384.003 426.804 393.639 429.914C403.274 433.024 413.618 427.794 416.735 418.182C419.852 408.57 414.61 398.252 404.974 395.142Z" fill="white"/>
<path d="M419.711 422.847L414.893 421.292C414.043 421.009 413.618 420.161 413.901 419.454L414.468 417.758C414.751 416.91 415.601 416.486 416.31 416.769L421.128 418.324C421.978 418.606 422.403 419.454 422.119 420.161L421.553 421.857C421.269 422.705 420.419 423.13 419.711 422.847Z" fill="white"/>
<path d="M399.306 430.763C409.401 430.763 417.585 422.599 417.585 412.528C417.585 402.458 409.401 394.294 399.306 394.294C389.211 394.294 381.028 402.458 381.028 412.528C381.028 422.599 389.211 430.763 399.306 430.763Z" fill="#F8FFFF"/>
<path d="M399.306 427.229C407.445 427.229 414.043 420.647 414.043 412.528C414.043 404.41 407.445 397.828 399.306 397.828C391.168 397.828 384.57 404.41 384.57 412.528C384.57 420.647 391.168 427.229 399.306 427.229Z" fill="#FFF167"/>
<path d="M399.306 427.229C407.445 427.229 414.043 420.647 414.043 412.528C414.043 404.41 407.445 397.828 399.306 397.828C391.168 397.828 384.57 404.41 384.57 412.528C384.57 420.647 391.168 427.229 399.306 427.229Z" fill="#8FCDFF"/>
<path d="M419.711 422.847L414.893 421.292C414.043 421.009 413.618 420.161 413.901 419.454L414.468 417.758C414.751 416.91 415.601 416.486 416.31 416.769L421.128 418.324C421.978 418.606 422.403 419.454 422.119 420.161L421.553 421.857C421.269 422.705 420.419 423.13 419.711 422.847Z" stroke="#97A3CC" stroke-miterlimit="10"/>
<path d="M404.974 395.142C395.339 392.033 384.995 397.263 381.878 406.874C378.761 416.486 384.003 426.804 393.639 429.914C403.274 433.024 413.618 427.794 416.735 418.182C419.852 408.57 414.61 398.252 404.974 395.142Z" fill="white"/>
<path d="M399.306 430.763C409.401 430.763 417.585 422.599 417.585 412.528C417.585 402.458 409.401 394.294 399.306 394.294C389.211 394.294 381.028 402.458 381.028 412.528C381.028 422.599 389.211 430.763 399.306 430.763Z" stroke="#97A3CC" stroke-miterlimit="10"/>
<path d="M399.306 427.229C407.445 427.229 414.043 420.647 414.043 412.528C414.043 404.41 407.445 397.828 399.306 397.828C391.168 397.828 384.57 404.41 384.57 412.528C384.57 420.647 391.168 427.229 399.306 427.229Z" fill="#FFF167"/>
<path d="M399.306 427.229C407.445 427.229 414.043 420.647 414.043 412.528C414.043 404.41 407.445 397.828 399.306 397.828C391.168 397.828 384.57 404.41 384.57 412.528C384.57 420.647 391.168 427.229 399.306 427.229Z" fill="#8FCDFF"/>
<path d="M396.473 101.278C412.515 101.278 425.52 88.3046 425.52 72.3013C425.52 56.298 412.515 43.3247 396.473 43.3247C380.43 43.3247 367.425 56.298 367.425 72.3013C367.425 88.3046 380.43 101.278 396.473 101.278Z" fill="white"/>
<path d="M406.25 63.9616C411.067 60.2865 413.476 50.2507 406.25 40.0736C399.023 29.8965 395.764 25.3733 395.764 25.3733C395.764 25.3733 383.011 38.236 382.303 50.2507C381.595 62.2654 390.238 62.4067 394.772 63.9616C399.306 65.6578 406.25 63.9616 406.25 63.9616Z" fill="#22A565"/>
<path d="M391.796 78.8033C391.23 88.4151 399.306 95.0585 410.075 94.3517C420.844 93.645 428.496 96.7547 428.496 96.7547C428.496 96.7547 430.904 79.2274 419.852 71.0291C408.8 62.8309 392.647 64.6684 391.796 78.8033Z" fill="#1FAE69"/>
<path d="M392.505 74.8456C393.214 73.0081 409.509 75.9764 420.703 87.2843" stroke="#111111" stroke-miterlimit="10" stroke-linecap="round" stroke-linejoin="round"/>
<path d="M396.472 43.0417C396.472 43.0417 397.748 55.6218 397.323 63.9614" stroke="#111111" stroke-miterlimit="10" stroke-linecap="round" stroke-linejoin="round"/>
<path d="M399.023 80.0754C406.108 86.5775 416.452 84.5986 422.686 75.835C428.921 67.0713 436.147 63.1136 436.147 63.1136C436.147 63.1136 424.103 50.1094 410.642 53.5018C397.464 56.8942 388.538 70.4637 399.023 80.0754Z" fill="#0EC36B"/>
<path d="M396.473 76.9657C395.481 75.2695 408.092 64.6684 423.962 63.1135" stroke="#111111" stroke-miterlimit="10" stroke-linecap="round" stroke-linejoin="round"/>
<path d="M389.955 70.3222C380.461 71.8771 375.785 81.2061 378.619 91.5246C382.161 104.246 386.554 113.151 386.554 113.151C386.554 113.151 397.89 108.486 403.557 96.0477C409.225 83.3263 403.982 68.0606 389.955 70.3222Z" fill="#13D576"/>
<path d="M393.922 70.1809C395.764 70.4636 387.829 87.4255 387.829 100.288" stroke="#111111" stroke-miterlimit="10" stroke-linecap="round" stroke-linejoin="round"/>
<path d="M394.488 77.6724C387.404 84.1744 377.06 82.1955 370.825 73.4319C364.591 64.6683 357.364 60.7105 357.364 60.7105C357.364 60.7105 369.408 47.7064 382.869 51.0987C396.331 54.4911 404.974 68.0606 394.488 77.6724Z" fill="#0EC36B"/>
<path d="M397.181 74.704C398.173 73.0078 385.562 62.4066 369.692 60.8518" stroke="#111111" stroke-miterlimit="10" stroke-linecap="round" stroke-linejoin="round"/>
<path d="M95.9361 304.114H1V415.355H95.9361V304.114Z" fill="white" stroke="#E5E5E5" stroke-width="0.5" stroke-miterlimit="10"/>
<path d="M95.9361 304.114H1V319.097H95.9361V304.114Z" fill="#999BAD"/>
<path d="M68.7304 362.773V359.805C68.7304 359.098 68.1637 358.674 67.5969 358.674H66.3216C66.1799 358.392 66.0382 357.968 65.8965 357.685L66.7467 356.837C67.1718 356.413 67.1718 355.565 66.7467 355.141L64.6213 353.02C64.1962 352.596 63.346 352.596 62.9209 353.02L62.0707 353.868C61.7874 353.727 61.3623 353.586 61.0789 353.444V352.172C61.0789 351.466 60.5121 351.042 59.9453 351.042H56.9697C56.2612 351.042 55.8361 351.607 55.8361 352.172V353.444C55.5527 353.586 55.1277 353.727 54.8443 353.868L53.9941 353.02C53.569 352.596 52.7188 352.596 52.2937 353.02L50.1683 355.141C49.7432 355.565 49.7432 356.413 50.1683 356.837L51.0185 357.685C50.8768 357.968 50.7351 358.392 50.5934 358.674H49.3181C48.6097 358.674 48.1846 359.24 48.1846 359.805V362.773C48.1846 363.48 48.7514 363.904 49.3181 363.904H50.5934C50.7351 364.187 50.8768 364.611 51.0185 364.894L50.1683 365.742C49.7432 366.166 49.7432 367.014 50.1683 367.438L52.2937 369.558C52.7188 369.982 53.569 369.982 53.9941 369.558L54.8443 368.71C55.1277 368.851 55.5527 368.993 55.8361 369.134V370.406C55.8361 371.113 56.4029 371.537 56.9697 371.537H59.9453C60.6538 371.537 61.0789 370.972 61.0789 370.406V369.134C61.3623 368.993 61.7874 368.851 62.0707 368.71L62.9209 369.558C63.346 369.982 64.1962 369.982 64.6213 369.558L66.7467 367.438C67.1718 367.014 67.1718 366.166 66.7467 365.742L65.8965 364.894C66.0382 364.611 66.1799 364.187 66.3216 363.904H67.5969C68.1637 364.046 68.7304 363.48 68.7304 362.773ZM60.7955 364.47C56.9697 366.873 52.8605 362.773 55.2694 358.957C55.411 358.674 55.6944 358.392 55.9778 358.25C59.8036 355.847 63.9128 359.946 61.504 363.763C61.3623 364.046 61.0789 364.187 60.7955 364.47Z" fill="#999BAD"/>
<path d="M84.1751 368.71V366.59C84.1751 366.166 83.75 365.742 83.3249 365.742H82.3331C82.1914 365.459 82.1914 365.318 82.0497 365.035L82.7581 364.328C83.0415 364.045 83.0415 363.48 82.7581 363.056L81.1995 361.501C80.9161 361.218 80.3493 361.218 79.9242 361.501L79.2158 362.208C78.9324 362.067 78.7907 361.925 78.5073 361.925V360.936C78.5073 360.512 78.0822 360.088 77.6571 360.088H75.5317C75.1066 360.088 74.6815 360.512 74.6815 360.936V361.925C74.3981 362.067 74.2564 362.067 73.973 362.208L73.2645 361.501C72.9811 361.218 72.4144 361.218 71.9893 361.501L70.4306 363.056C70.1472 363.339 70.1472 363.904 70.4306 364.328L71.1391 365.035C70.9974 365.318 70.8557 365.459 70.8557 365.742H69.8639C69.4388 365.742 69.0137 366.166 69.0137 366.59V368.71C69.0137 369.134 69.4388 369.558 69.8639 369.558H70.8557C70.9974 369.841 70.9974 369.982 71.1391 370.265L70.4306 370.971C70.1472 371.254 70.1472 371.82 70.4306 372.244L71.9893 373.798C72.2727 374.081 72.8395 374.081 73.2645 373.798L73.973 373.092C74.2564 373.233 74.3981 373.374 74.6815 373.374V374.364C74.6815 374.788 75.1066 375.212 75.5317 375.212H77.6571C78.0822 375.212 78.5073 374.788 78.5073 374.364V373.374C78.7907 373.233 78.9324 373.233 79.2158 373.092L79.9242 373.798C80.2076 374.081 80.7744 374.081 81.1995 373.798L82.7581 372.244C83.0415 371.961 83.0415 371.396 82.7581 370.971L82.0497 370.265C82.1914 369.982 82.3331 369.841 82.3331 369.558H83.3249C83.75 369.558 84.1751 369.134 84.1751 368.71ZM78.5073 369.841C75.6734 371.537 72.6978 368.71 74.5398 365.883C74.6815 365.742 74.8232 365.459 75.1066 365.318C77.9405 363.621 80.9161 366.448 79.0741 369.275C78.7907 369.558 78.649 369.699 78.5073 369.841Z" fill="#999BAD"/>
<path d="M22.5377 361.501H8.79321V403.058H22.5377V361.501Z" fill="#999BAD"/>
<path d="M42.0916 376.343H28.3472V403.058H42.0916V376.343Z" fill="#999BAD"/>
<path d="M61.7877 389.63H48.0432V402.916H61.7877V389.63Z" fill="#999BAD"/>
<path d="M10.4939 314.856H6.95149C6.5264 314.856 6.10132 314.432 6.10132 314.008V310.474C6.10132 310.05 6.5264 309.626 6.95149 309.626H10.4939C10.919 309.626 11.3441 310.05 11.3441 310.474V314.008C11.3441 314.432 10.919 314.856 10.4939 314.856Z" fill="white"/>
<path d="M19.562 314.856H16.0196C15.5945 314.856 15.1694 314.432 15.1694 314.008V310.474C15.1694 310.05 15.5945 309.626 16.0196 309.626H19.562C19.9871 309.626 20.4122 310.05 20.4122 310.474V314.008C20.4122 314.432 19.9871 314.856 19.562 314.856Z" fill="white"/>
<path d="M28.4895 314.856H24.9471C24.522 314.856 24.0969 314.432 24.0969 314.008V310.474C24.0969 310.05 24.522 309.626 24.9471 309.626H28.4895C28.9146 309.626 29.3397 310.05 29.3397 310.474V314.008C29.3397 314.432 28.9146 314.856 28.4895 314.856Z" fill="white"/>
<path d="M88.7093 314.856H85.0252C84.6001 314.856 84.175 314.432 84.175 314.008V310.474C84.175 310.05 84.6001 309.626 85.0252 309.626H88.5676C88.9927 309.626 89.4178 310.05 89.4178 310.474V314.008C89.5595 314.432 89.1344 314.856 88.7093 314.856Z" fill="white"/>
<path d="M19.0681 334.594V331.067H20.5637C20.726 331.067 20.8751 331.1 21.0109 331.166C21.1467 331.232 21.2643 331.322 21.3637 331.434C21.4663 331.547 21.5458 331.673 21.6022 331.812C21.6585 331.951 21.6866 332.094 21.6866 332.239C21.6866 332.438 21.6403 332.627 21.5475 332.806C21.4548 332.985 21.3272 333.13 21.1649 333.243C21.0026 333.356 20.8105 333.412 20.5885 333.412H19.7538V334.594H19.0681ZM19.7538 332.811H20.5488C20.6316 332.811 20.7061 332.788 20.7724 332.741C20.8386 332.695 20.8916 332.629 20.9314 332.542C20.9711 332.453 20.991 332.352 20.991 332.239C20.991 332.117 20.9678 332.012 20.9214 331.926C20.8784 331.84 20.8204 331.776 20.7475 331.733C20.678 331.689 20.6018 331.668 20.519 331.668H19.7538V332.811ZM22.1639 334.594V331.067H23.724C23.8863 331.067 24.0354 331.1 24.1712 331.166C24.3103 331.232 24.4296 331.322 24.529 331.434C24.6316 331.547 24.7095 331.673 24.7625 331.812C24.8188 331.951 24.847 332.094 24.847 332.239C24.847 332.388 24.8205 332.532 24.7675 332.672C24.7178 332.807 24.6449 332.927 24.5488 333.029C24.4528 333.132 24.3401 333.212 24.211 333.268L25.0159 334.594H24.2606L23.5352 333.412H22.8495V334.594H22.1639ZM22.8495 332.811H23.7091C23.7952 332.811 23.8714 332.786 23.9377 332.736C24.0039 332.683 24.0569 332.614 24.0967 332.528C24.1364 332.441 24.1563 332.345 24.1563 332.239C24.1563 332.127 24.1331 332.029 24.0867 331.946C24.0404 331.86 23.9807 331.792 23.9079 331.742C23.8383 331.693 23.7621 331.668 23.6793 331.668H22.8495V332.811ZM26.9543 334.619C26.696 334.619 26.4608 334.57 26.2488 334.47C26.0401 334.371 25.8596 334.237 25.7072 334.068C25.5581 333.896 25.4422 333.703 25.3594 333.491C25.2766 333.276 25.2352 333.056 25.2352 332.831C25.2352 332.595 25.2782 332.372 25.3644 332.16C25.4538 331.945 25.5747 331.754 25.7271 331.588C25.8828 331.419 26.0649 331.287 26.2736 331.191C26.4856 331.092 26.7175 331.042 26.9692 331.042C27.2243 331.042 27.4562 331.093 27.6649 331.196C27.8769 331.299 28.0574 331.436 28.2065 331.608C28.3555 331.781 28.4715 331.973 28.5543 332.185C28.6371 332.397 28.6785 332.615 28.6785 332.841C28.6785 333.072 28.6354 333.296 28.5493 333.511C28.4632 333.723 28.3423 333.914 28.1866 334.083C28.0342 334.248 27.852 334.379 27.64 334.475C27.4313 334.571 27.2028 334.619 26.9543 334.619ZM25.9308 332.831C25.9308 332.983 25.954 333.13 26.0004 333.273C26.0467 333.415 26.113 333.543 26.1991 333.655C26.2885 333.765 26.3962 333.852 26.5221 333.919C26.6513 333.982 26.797 334.013 26.9593 334.013C27.1249 334.013 27.2723 333.98 27.4015 333.914C27.5307 333.844 27.6384 333.753 27.7245 333.64C27.8106 333.525 27.8752 333.397 27.9183 333.258C27.9646 333.115 27.9878 332.973 27.9878 332.831C27.9878 332.678 27.963 332.532 27.9133 332.393C27.8669 332.251 27.799 332.125 27.7096 332.016C27.6235 331.903 27.5158 331.815 27.3866 331.752C27.2607 331.686 27.1183 331.653 26.9593 331.653C26.7904 331.653 26.6413 331.688 26.5121 331.757C26.3863 331.824 26.2803 331.913 26.1941 332.026C26.108 332.138 26.0418 332.264 25.9954 332.403C25.9523 332.542 25.9308 332.685 25.9308 332.831ZM31.7555 331.668H30.6276V334.594H29.9469V331.668H28.819V331.067H31.7555V331.668ZM33.6165 334.619C33.3581 334.619 33.1229 334.57 32.9109 334.47C32.7022 334.371 32.5217 334.237 32.3693 334.068C32.2203 333.896 32.1043 333.703 32.0215 333.491C31.9387 333.276 31.8973 333.056 31.8973 332.831C31.8973 332.595 31.9404 332.372 32.0265 332.16C32.1159 331.945 32.2368 331.754 32.3892 331.588C32.5449 331.419 32.7271 331.287 32.9358 331.191C33.1478 331.092 33.3796 331.042 33.6314 331.042C33.8864 331.042 34.1183 331.093 34.327 331.196C34.539 331.299 34.7195 331.436 34.8686 331.608C35.0176 331.781 35.1336 331.973 35.2164 332.185C35.2992 332.397 35.3406 332.615 35.3406 332.841C35.3406 333.072 35.2976 333.296 35.2114 333.511C35.1253 333.723 35.0044 333.914 34.8487 334.083C34.6963 334.248 34.5142 334.379 34.3022 334.475C34.0935 334.571 33.8649 334.619 33.6165 334.619ZM32.5929 332.831C32.5929 332.983 32.6161 333.13 32.6625 333.273C32.7089 333.415 32.7751 333.543 32.8612 333.655C32.9507 333.765 33.0583 333.852 33.1842 333.919C33.3134 333.982 33.4591 334.013 33.6214 334.013C33.7871 334.013 33.9345 333.98 34.0637 333.914C34.1928 333.844 34.3005 333.753 34.3866 333.64C34.4727 333.525 34.5373 333.397 34.5804 333.258C34.6268 333.115 34.65 332.973 34.65 332.831C34.65 332.678 34.6251 332.532 34.5754 332.393C34.5291 332.251 34.4612 332.125 34.3717 332.016C34.2856 331.903 34.1779 331.815 34.0488 331.752C33.9229 331.686 33.7804 331.653 33.6214 331.653C33.4525 331.653 33.3034 331.688 33.1743 331.757C33.0484 331.824 32.9424 331.913 32.8563 332.026C32.7701 332.138 32.7039 332.264 32.6575 332.403C32.6145 332.542 32.5929 332.685 32.5929 332.831ZM38.4176 331.668H37.2897V334.594H36.609V331.668H35.4811V331.067H38.4176V331.668ZM39.2531 331.067L40.1226 332.726L41.007 331.067H41.7474L40.4654 333.362V334.594H39.7847V333.352L38.5078 331.067H39.2531ZM42.1357 334.594V331.067H43.6313C43.7936 331.067 43.9427 331.1 44.0785 331.166C44.2143 331.232 44.3319 331.322 44.4312 331.434C44.5339 331.547 44.6134 331.673 44.6697 331.812C44.726 331.951 44.7542 332.094 44.7542 332.239C44.7542 332.438 44.7078 332.627 44.6151 332.806C44.5223 332.985 44.3948 333.13 44.2325 333.243C44.0702 333.356 43.8781 333.412 43.6561 333.412H42.8214V334.594H42.1357ZM42.8214 332.811H43.6164C43.6992 332.811 43.7737 332.788 43.84 332.741C43.9062 332.695 43.9592 332.629 43.999 332.542C44.0387 332.453 44.0586 332.352 44.0586 332.239C44.0586 332.117 44.0354 332.012 43.989 331.926C43.946 331.84 43.888 331.776 43.8151 331.733C43.7456 331.689 43.6694 331.668 43.5866 331.668H42.8214V332.811ZM47.681 333.993V334.594H45.2314V331.067H47.6363V331.668H45.9171V332.518H47.4028V333.074H45.9171V333.993H47.681Z" fill="#999BAD"/>
<path d="M356.247 114.05L286.848 54.2944L209.17 144.068L278.57 203.824L356.247 114.05Z" fill="white"/>
<path d="M353.598 101.586L284.198 41.8306L206.52 131.605L275.92 191.36L353.598 101.586Z" fill="#E3E8E9"/>
<path d="M353.631 99.3556L284.231 39.6003L206.553 129.374L275.953 189.13L353.631 99.3556Z" fill="white"/>
<path d="M332.38 103.735L297.09 73.3491L261.538 114.438L296.828 144.823L332.38 103.735Z" fill="#E9EBEE"/>
<path d="M295.443 87.9907L294.31 83.4675L298.844 84.1743" stroke="white" stroke-miterlimit="10"/>
<path d="M301.536 93.3623L306.07 94.0691L304.795 89.5459" stroke="white" stroke-miterlimit="10"/>
<path d="M303.52 87.708L297.285 89.9696" stroke="white" stroke-miterlimit="10"/>
<path d="M309.896 100.854L308.621 96.3306L313.297 97.0373" stroke="white" stroke-miterlimit="10"/>
<path d="M315.848 106.225L320.382 106.932L319.248 102.408" stroke="white" stroke-miterlimit="10"/>
<path d="M317.831 100.571L311.738 102.833" stroke="white" stroke-miterlimit="10"/>
<path d="M287.792 96.8957L286.658 92.3726L291.192 93.0793" stroke="white" stroke-miterlimit="10"/>
<path d="M293.743 102.267L298.419 102.974L297.144 98.4507" stroke="white" stroke-miterlimit="10"/>
<path d="M295.726 96.613L289.634 98.8746" stroke="white" stroke-miterlimit="10"/>
<path d="M302.245 109.759L300.97 105.236L305.504 105.942" stroke="white" stroke-miterlimit="10"/>
<path d="M308.196 115.13L312.73 115.837L311.597 111.314" stroke="white" stroke-miterlimit="10"/>
<path d="M310.18 109.476L304.087 111.738" stroke="white" stroke-miterlimit="10"/>
<path d="M329.07 39.1858L245.405 1.79077L196.794 110.018L280.458 147.413L329.07 39.1858Z" fill="#E3E8E9"/>
<path d="M328.196 37.395L244.531 0L195.92 108.227L279.585 145.622L328.196 37.395Z" fill="white"/>
<path d="M302.935 43.0392L255.137 21.5547L252.46 27.4826L300.258 48.9671L302.935 43.0392Z" fill="#E9EBEE"/>
<path d="M284.392 57.4598L241.599 38.2363L240.324 41.0633L283.116 60.2868L284.392 57.4598Z" fill="#E9EBEE"/>
<path d="M278.298 70.8875L235.506 51.6641L234.231 54.491L277.023 73.7145L278.298 70.8875Z" fill="#E9EBEE"/>
<path d="M272.205 84.3158L229.413 65.0923L228.138 67.9193L270.93 87.1427L272.205 84.3158Z" fill="#E9EBEE"/>
<path d="M292.185 62.124L294.877 67.9193L306.071 61.9827L295.869 64.951L292.185 62.124Z" fill="#FBBC05"/>
<path d="M285.808 76.2588L288.501 82.0541L299.695 76.1174L289.492 79.0858L285.808 76.2588Z" fill="#FBBC05"/>
<path d="M279.432 90.3938L282.124 96.1891L293.318 90.2524L283.116 93.2208L279.432 90.3938Z" fill="#FBBC05"/>
<path d="M266.254 97.6028L223.462 78.3794L222.187 81.2064L264.979 100.43L266.254 97.6028Z" fill="#E9EBEE"/>
<path d="M260.161 111.031L217.369 91.8076L216.094 94.6346L258.886 113.858L260.161 111.031Z" fill="#E9EBEE"/>
<path d="M273.764 102.974L276.314 108.769L287.65 102.833L277.448 105.801L273.764 102.974Z" fill="#FBBC05"/>
<path d="M267.388 117.109L269.938 122.904L281.274 116.967L271.072 119.936L267.388 117.109Z" fill="#FBBC05"/>
<path d="M265.403 60.8267L173.881 66.1648L180.82 184.555L272.342 179.217L265.403 60.8267Z" fill="#E3E8E9"/>
<path d="M263.557 59.5614L172.036 64.8994L178.975 183.29L270.496 177.952L263.557 59.5614Z" fill="white" stroke="#E5E5E5" stroke-width="0.5" stroke-miterlimit="10"/>
<path d="M168.343 228.492L90.5516 256.479C85.8757 258.175 80.9163 255.772 79.216 251.108L30.8978 118.381C29.1975 113.716 31.6063 108.769 36.2822 107.073L114.073 79.0859C118.749 77.3897 123.708 79.7927 125.409 84.4572L173.727 217.184C175.286 221.848 172.877 226.937 168.343 228.492Z" fill="#999BAD"/>
<path d="M167.634 226.513L89.8429 254.5C85.1669 256.196 80.2076 253.793 78.5073 249.129L30.1891 116.402C28.4887 111.738 30.8975 106.79 35.5735 105.094L113.364 77.1072C118.04 75.411 123 77.8139 124.7 82.4784L173.018 215.205C174.577 219.728 172.168 224.817 167.634 226.513Z" fill="#E9EBEE"/>
<path d="M130.226 230.754C131.077 233.156 129.801 235.842 127.393 236.69C124.984 237.538 122.292 236.266 121.441 233.863C120.591 231.46 121.866 228.775 124.275 227.927C126.542 227.078 129.235 228.351 130.226 230.754Z" fill="white"/>
<path d="M66.4632 103.681L53.2855 108.487C52.7187 108.628 52.2936 108.345 52.0102 107.921C51.8686 107.356 52.1519 106.932 52.577 106.649L65.7547 101.843C66.3215 101.702 66.7466 101.985 67.03 102.409C67.3134 102.833 67.03 103.398 66.4632 103.681Z" fill="white"/>
<path d="M48.7516 110.041C49.2994 110.041 49.7435 109.598 49.7435 109.052C49.7435 108.505 49.2994 108.062 48.7516 108.062C48.2038 108.062 47.7598 108.505 47.7598 109.052C47.7598 109.598 48.2038 110.041 48.7516 110.041Z" fill="white"/>
<path d="M165.509 208.138L79.783 239.093C78.7911 239.517 77.6576 238.952 77.2325 237.962L35.1489 122.056C34.7238 121.067 35.2906 119.936 36.2825 119.512L122.008 88.5563C123 88.1322 124.134 88.6976 124.559 89.6871L166.642 205.593C167.068 206.724 166.501 207.855 165.509 208.138Z" fill="white"/>
<path d="M126.542 94.917L124.7 89.6871C124.275 88.6976 123.142 88.1322 122.15 88.5563L36.4238 119.512C35.4319 119.936 34.8652 121.067 35.2903 122.056L37.1323 127.286L126.542 94.917Z" fill="#999BAD"/>
<path d="M165.509 208.138L79.783 239.093C78.7911 239.517 77.6576 238.952 77.2325 237.962L35.1489 122.056C34.7238 121.067 35.2906 119.936 36.2825 119.512L122.008 88.5563C123 88.1322 124.134 88.6976 124.559 89.6871L166.642 205.593C167.068 206.724 166.501 207.855 165.509 208.138Z" stroke="#97A3CC" stroke-miterlimit="10"/>
<path d="M123.567 437.688C118.324 437.688 119.316 433.448 119.316 428.077L119.458 314.008C119.458 308.778 123.709 304.538 129.093 304.538L325.058 304.679C330.301 304.679 334.552 308.919 334.552 314.291L334.41 428.359C334.41 433.589 335.402 437.83 330.159 437.83" fill="#999BAD"/>
<path d="M329.734 433.024L123.991 432.882C121.299 432.882 119.174 430.762 119.174 428.077L119.316 304.679C119.316 301.993 121.441 299.873 124.133 299.873L330.017 300.014C332.709 300.014 334.835 302.135 334.835 304.82L334.693 428.218C334.551 430.904 332.426 433.024 329.734 433.024Z" fill="white"/>
<path d="M329.734 433.024L123.991 432.882C121.299 432.882 119.174 430.762 119.174 428.077L119.316 304.679C119.316 301.993 121.441 299.873 124.133 299.873L330.017 300.014C332.709 300.014 334.835 302.135 334.835 304.82L334.693 428.218C334.551 430.904 332.426 433.024 329.734 433.024Z" stroke="#97A3CC" stroke-miterlimit="10"/>
<path d="M206.883 389.064H252.226C255.202 389.064 257.61 391.467 257.61 394.436V422.423C257.61 425.391 255.202 427.794 252.226 427.794H206.883C203.908 427.794 201.499 425.391 201.499 422.423V394.436C201.499 391.467 203.908 389.064 206.883 389.064Z" fill="#E3E8E9"/>
<path d="M348.438 222.979L105.571 222.838C103.021 222.838 100.612 223.828 100.329 225.1L99.1951 227.644L354.814 227.785L353.822 225.241C353.397 224.11 350.988 222.979 348.438 222.979Z" fill="white"/>
<path d="M331.434 300.58L122.433 300.439C120.591 300.439 119.032 299.449 118.749 298.177L99.1948 229.199C98.7697 227.22 100.895 225.1 103.446 225.1L350.563 225.241C353.255 225.241 355.38 227.361 354.814 229.34L335.118 298.318C334.835 299.591 333.276 300.58 331.434 300.58Z" fill="white"/>
<path d="M331.434 300.58L122.433 300.439C120.591 300.439 119.032 299.449 118.749 298.177L99.1948 229.199C98.7697 227.22 100.895 225.1 103.446 225.1L350.563 225.241C353.255 225.241 355.38 227.361 354.814 229.34L335.118 298.318C334.835 299.591 333.276 300.58 331.434 300.58Z" stroke="#97A3CC" stroke-miterlimit="10"/>
<path d="M328.6 295.915L125.409 295.774C124.984 295.774 124.7 295.491 124.559 295.209L107.272 232.308C107.13 231.884 107.697 231.319 108.264 231.319L345.745 231.46C346.312 231.46 346.879 231.884 346.737 232.45L329.309 295.35C329.451 295.774 329.025 295.915 328.6 295.915Z" fill="white"/>
<path d="M328.6 295.915L125.409 295.774C124.984 295.774 124.7 295.491 124.559 295.209L107.272 232.308C107.13 231.884 107.697 231.319 108.264 231.319L345.745 231.46C346.312 231.46 346.879 231.884 346.737 232.45L329.309 295.35C329.451 295.774 329.025 295.915 328.6 295.915Z" fill="#E3E8E9"/>
<path d="M317.973 381.149L135.894 381.007C134.335 381.007 133.06 379.735 133.06 378.18V313.725C133.06 312.17 134.335 310.898 135.894 310.898L318.115 311.04C319.673 311.04 320.948 312.312 320.948 313.867V378.322C320.807 379.877 319.531 381.149 317.973 381.149Z" fill="#E3E8E9"/>
<path d="M149.355 325.175H142.412C141.704 325.175 141.137 324.609 141.137 323.903V319.945C141.137 319.238 141.704 318.673 142.412 318.673H149.355C150.064 318.673 150.631 319.238 150.631 319.945V323.903C150.489 324.609 149.922 325.175 149.355 325.175Z" fill="white"/>
<path d="M161.399 325.175H154.456C153.748 325.175 153.181 324.609 153.181 323.903V319.945C153.181 319.238 153.748 318.673 154.456 318.673H161.399C162.108 318.673 162.675 319.238 162.675 319.945V323.903C162.675 324.609 162.108 325.175 161.399 325.175Z" fill="white"/>
<path d="M173.585 325.175H166.642C165.933 325.175 165.366 324.609 165.366 323.903V319.945C165.366 319.238 165.933 318.673 166.642 318.673H173.585C174.293 318.673 174.86 319.238 174.86 319.945V323.903C174.86 324.609 174.293 325.175 173.585 325.175Z" fill="white"/>
<path d="M185.771 325.175H178.828C178.12 325.175 177.553 324.609 177.553 323.903V319.945C177.553 319.238 178.12 318.673 178.828 318.673H185.771C186.48 318.673 187.046 319.238 187.046 319.945V323.903C186.905 324.609 186.48 325.175 185.771 325.175Z" fill="white"/>
<path d="M197.957 325.175H191.014C190.305 325.175 189.739 324.609 189.739 323.903V319.945C189.739 319.238 190.305 318.673 191.014 318.673H197.957C198.665 318.673 199.232 319.238 199.232 319.945V323.903C199.09 324.609 198.524 325.175 197.957 325.175Z" fill="white"/>
<path d="M210.001 325.175H203.058C202.349 325.175 201.782 324.609 201.782 323.903V319.945C201.782 319.238 202.349 318.673 203.058 318.673H210.001C210.709 318.673 211.276 319.238 211.276 319.945V323.903C211.276 324.609 210.709 325.175 210.001 325.175Z" fill="white"/>
<path d="M222.187 325.175H215.244C214.535 325.175 213.968 324.609 213.968 323.903V319.945C213.968 319.238 214.535 318.673 215.244 318.673H222.187C222.895 318.673 223.462 319.238 223.462 319.945V323.903C223.32 324.609 222.895 325.175 222.187 325.175Z" fill="white"/>
<path d="M234.372 325.175H227.429C226.721 325.175 226.154 324.609 226.154 323.903V319.945C226.154 319.238 226.721 318.673 227.429 318.673H234.372C235.081 318.673 235.648 319.238 235.648 319.945V323.903C235.506 324.609 234.939 325.175 234.372 325.175Z" fill="white"/>
<path d="M246.417 325.175H239.473C238.765 325.175 238.198 324.609 238.198 323.903V319.945C238.198 319.238 238.765 318.673 239.473 318.673H246.417C247.125 318.673 247.692 319.238 247.692 319.945V323.903C247.692 324.609 247.125 325.175 246.417 325.175Z" fill="white"/>
<path d="M258.602 325.175H251.659C250.951 325.175 250.384 324.609 250.384 323.903V319.945C250.384 319.238 250.951 318.673 251.659 318.673H258.602C259.311 318.673 259.878 319.238 259.878 319.945V323.903C259.878 324.609 259.311 325.175 258.602 325.175Z" fill="white"/>
<path d="M270.788 325.175H263.845C263.137 325.175 262.57 324.609 262.57 323.903V319.945C262.57 319.238 263.137 318.673 263.845 318.673H270.788C271.497 318.673 272.063 319.238 272.063 319.945V323.903C271.922 324.609 271.355 325.175 270.788 325.175Z" fill="white"/>
<path d="M282.833 325.175H275.89C275.181 325.175 274.614 324.609 274.614 323.903V319.945C274.614 319.238 275.181 318.673 275.89 318.673H282.833C283.541 318.673 284.108 319.238 284.108 319.945V323.903C284.108 324.609 283.541 325.175 282.833 325.175Z" fill="white"/>
<path d="M297.852 325.175H288.217C287.509 325.175 286.942 324.609 286.942 323.903V319.945C286.942 319.238 287.509 318.673 288.217 318.673H297.852C298.561 318.673 299.128 319.238 299.128 319.945V323.903C298.986 324.609 298.561 325.175 297.852 325.175Z" fill="white"/>
<path d="M312.872 325.175H303.095C302.387 325.175 301.82 324.609 301.82 323.903V319.945C301.82 319.238 302.387 318.673 303.095 318.673H312.872C313.581 318.673 314.147 319.238 314.147 319.945V323.903C314.006 324.751 313.439 325.175 312.872 325.175Z" fill="white"/>
<path d="M149.213 375.495H142.27C141.562 375.495 140.995 374.93 140.995 374.223V364.47C140.995 363.763 141.562 363.198 142.27 363.198H149.213C149.922 363.198 150.489 363.763 150.489 364.47V374.223C150.489 374.93 149.922 375.495 149.213 375.495Z" fill="white"/>
<path d="M161.399 375.495H154.456C153.748 375.495 153.181 374.93 153.181 374.223V364.47C153.181 363.763 153.748 363.198 154.456 363.198H161.399C162.108 363.198 162.675 363.763 162.675 364.47V374.223C162.675 374.93 162.108 375.495 161.399 375.495Z" fill="white"/>
<path d="M173.585 375.495H166.642C165.933 375.495 165.366 374.93 165.366 374.223V364.47C165.366 363.763 165.933 363.198 166.642 363.198H173.585C174.293 363.198 174.86 363.763 174.86 364.47V374.223C174.718 374.93 174.293 375.495 173.585 375.495Z" fill="white"/>
<path d="M185.771 375.495H178.828C178.12 375.495 177.553 374.93 177.553 374.223V364.47C177.553 363.763 178.12 363.198 178.828 363.198H185.771C186.48 363.198 187.046 363.763 187.046 364.47V374.223C186.905 374.93 186.338 375.495 185.771 375.495Z" fill="white"/>
<path d="M234.231 375.636H190.872C190.163 375.636 189.597 375.071 189.597 374.364V364.611C189.597 363.904 190.163 363.339 190.872 363.339H234.231C234.939 363.339 235.506 363.904 235.506 364.611V374.364C235.506 375.071 234.939 375.636 234.231 375.636Z" fill="white"/>
<path d="M246.417 375.636H239.473C238.765 375.636 238.198 375.071 238.198 374.364V364.611C238.198 363.904 238.765 363.339 239.473 363.339H246.417C247.125 363.339 247.692 363.904 247.692 364.611V374.364C247.692 375.071 247.125 375.636 246.417 375.636Z" fill="white"/>
<path d="M258.602 375.636H251.659C250.951 375.636 250.384 375.071 250.384 374.364V364.611C250.384 363.904 250.951 363.339 251.659 363.339H258.602C259.311 363.339 259.878 363.904 259.878 364.611V374.364C259.736 375.071 259.311 375.636 258.602 375.636Z" fill="white"/>
<path d="M270.788 375.636H263.845C263.137 375.636 262.57 375.071 262.57 374.364V364.611C262.57 363.904 263.137 363.339 263.845 363.339H270.788C271.497 363.339 272.063 363.904 272.063 364.611V374.364C271.922 375.071 271.355 375.636 270.788 375.636Z" fill="white"/>
<path d="M298.419 375.636H290.626C289.917 375.636 289.35 375.071 289.35 374.364V372.103C289.35 371.396 289.917 370.831 290.626 370.831H298.419C299.127 370.831 299.694 371.396 299.694 372.103V374.364C299.694 375.071 299.127 375.636 298.419 375.636Z" fill="white"/>
<path d="M311.88 375.636H304.087C303.378 375.636 302.811 375.071 302.811 374.364V372.103C302.811 371.396 303.378 370.831 304.087 370.831H311.88C312.588 370.831 313.155 371.396 313.155 372.103V374.364C313.013 375.071 312.447 375.636 311.88 375.636Z" fill="white"/>
<path d="M285.099 375.636H277.306C276.598 375.636 276.031 375.071 276.031 374.364V372.103C276.031 371.396 276.598 370.831 277.306 370.831H285.099C285.808 370.831 286.375 371.396 286.375 372.103V374.364C286.375 375.071 285.808 375.636 285.099 375.636Z" fill="white"/>
<path d="M298.419 368.145H290.626C289.917 368.145 289.35 367.579 289.35 366.873V364.611C289.35 363.904 289.917 363.339 290.626 363.339H298.419C299.127 363.339 299.694 363.904 299.694 364.611V366.873C299.694 367.579 299.127 368.145 298.419 368.145Z" fill="white"/>
<path d="M149.355 337.048H142.412C141.704 337.048 141.137 336.483 141.137 335.776V328.85C141.137 328.143 141.704 327.578 142.412 327.578H149.355C150.064 327.578 150.631 328.143 150.631 328.85V335.776C150.489 336.483 149.922 337.048 149.355 337.048Z" fill="white"/>
<path d="M161.399 337.048H154.456C153.748 337.048 153.181 336.483 153.181 335.776V328.85C153.181 328.143 153.748 327.578 154.456 327.578H161.399C162.108 327.578 162.675 328.143 162.675 328.85V335.776C162.675 336.483 162.108 337.048 161.399 337.048Z" fill="white"/>
<path d="M173.585 337.048H166.642C165.933 337.048 165.366 336.483 165.366 335.776V328.85C165.366 328.143 165.933 327.578 166.642 327.578H173.585C174.293 327.578 174.86 328.143 174.86 328.85V335.776C174.86 336.483 174.293 337.048 173.585 337.048Z" fill="white"/>
<path d="M185.771 337.048H178.828C178.12 337.048 177.553 336.483 177.553 335.776V328.85C177.553 328.143 178.12 327.578 178.828 327.578H185.771C186.48 327.578 187.046 328.143 187.046 328.85V335.776C186.905 336.483 186.338 337.048 185.771 337.048Z" fill="white"/>
<path d="M197.815 337.048H190.872C190.163 337.048 189.597 336.483 189.597 335.776V328.85C189.597 328.143 190.163 327.578 190.872 327.578H197.815C198.524 327.578 199.09 328.143 199.09 328.85V335.776C199.09 336.483 198.524 337.048 197.815 337.048Z" fill="white"/>
<path d="M210.001 337.048H203.058C202.349 337.048 201.782 336.483 201.782 335.776V328.85C201.782 328.143 202.349 327.578 203.058 327.578H210.001C210.709 327.578 211.276 328.143 211.276 328.85V335.776C211.276 336.483 210.709 337.048 210.001 337.048Z" fill="white"/>
<path d="M222.187 337.048H215.244C214.535 337.048 213.968 336.483 213.968 335.776V328.85C213.968 328.143 214.535 327.578 215.244 327.578H222.187C222.895 327.578 223.462 328.143 223.462 328.85V335.776C223.32 336.483 222.895 337.048 222.187 337.048Z" fill="white"/>
<path d="M234.372 337.048H227.429C226.721 337.048 226.154 336.483 226.154 335.776V328.85C226.154 328.143 226.721 327.578 227.429 327.578H234.372C235.081 327.578 235.648 328.143 235.648 328.85V335.776C235.506 336.483 234.939 337.048 234.372 337.048Z" fill="white"/>
<path d="M246.417 337.048H239.473C238.765 337.048 238.198 336.483 238.198 335.776V328.85C238.198 328.143 238.765 327.578 239.473 327.578H246.417C247.125 327.578 247.692 328.143 247.692 328.85V335.776C247.692 336.483 247.125 337.048 246.417 337.048Z" fill="white"/>
<path d="M258.602 337.048H251.659C250.951 337.048 250.384 336.483 250.384 335.776V328.85C250.384 328.143 250.951 327.578 251.659 327.578H258.602C259.311 327.578 259.878 328.143 259.878 328.85V335.776C259.878 336.483 259.311 337.048 258.602 337.048Z" fill="white"/>
<path d="M270.788 337.048H263.845C263.137 337.048 262.57 336.483 262.57 335.776V328.85C262.57 328.143 263.137 327.578 263.845 327.578H270.788C271.497 327.578 272.063 328.143 272.063 328.85V335.776C271.922 336.483 271.355 337.048 270.788 337.048Z" fill="white"/>
<path d="M282.833 337.048H275.89C275.181 337.048 274.614 336.483 274.614 335.776V328.85C274.614 328.143 275.181 327.578 275.89 327.578H282.833C283.541 327.578 284.108 328.143 284.108 328.85V335.776C284.108 336.483 283.541 337.048 282.833 337.048Z" fill="white"/>
<path d="M297.852 337.048H288.217C287.509 337.048 286.942 336.483 286.942 335.776V328.85C286.942 328.143 287.509 327.578 288.217 327.578H297.852C298.561 327.578 299.128 328.143 299.128 328.85V335.776C298.986 336.483 298.419 337.048 297.852 337.048Z" fill="white"/>
<path d="M312.872 337.048H303.095C302.387 337.048 301.82 336.483 301.82 335.776V328.85C301.82 328.143 302.387 327.578 303.095 327.578H312.872C313.581 327.578 314.147 328.143 314.147 328.85V335.776C314.006 336.624 313.439 337.048 312.872 337.048Z" fill="white"/>
<path d="M155.165 348.921H142.412C141.704 348.921 141.137 348.356 141.137 347.649V340.723C141.137 340.016 141.704 339.451 142.412 339.451H155.165C155.873 339.451 156.44 340.016 156.44 340.723V347.649C156.44 348.356 155.873 348.921 155.165 348.921Z" fill="white"/>
<path d="M173.585 348.921H160.832C160.124 348.921 159.557 348.356 159.557 347.649V340.723C159.557 340.016 160.124 339.451 160.832 339.451H173.585C174.293 339.451 174.86 340.016 174.86 340.723V347.649C174.86 348.356 174.293 348.921 173.585 348.921Z" fill="white"/>
<path d="M185.771 348.921H178.828C178.12 348.921 177.553 348.356 177.553 347.649V340.723C177.553 340.016 178.12 339.451 178.828 339.451H185.771C186.48 339.451 187.046 340.016 187.046 340.723V347.649C186.905 348.356 186.338 348.921 185.771 348.921Z" fill="white"/>
<path d="M197.815 348.921H190.872C190.163 348.921 189.597 348.356 189.597 347.649V340.723C189.597 340.016 190.163 339.451 190.872 339.451H197.815C198.524 339.451 199.09 340.016 199.09 340.723V347.649C199.09 348.356 198.524 348.921 197.815 348.921Z" fill="white"/>
<path d="M210.001 348.921H203.058C202.349 348.921 201.782 348.356 201.782 347.649V340.723C201.782 340.016 202.349 339.451 203.058 339.451H210.001C210.709 339.451 211.276 340.016 211.276 340.723V347.649C211.276 348.356 210.709 348.921 210.001 348.921Z" fill="white"/>
<path d="M222.187 348.921H215.244C214.535 348.921 213.968 348.356 213.968 347.649V340.723C213.968 340.016 214.535 339.451 215.244 339.451H222.187C222.895 339.451 223.462 340.016 223.462 340.723V347.649C223.32 348.356 222.895 348.921 222.187 348.921Z" fill="white"/>
<path d="M234.372 348.921H227.429C226.721 348.921 226.154 348.356 226.154 347.649V340.723C226.154 340.016 226.721 339.451 227.429 339.451H234.372C235.081 339.451 235.648 340.016 235.648 340.723V347.649C235.506 348.356 234.939 348.921 234.372 348.921Z" fill="white"/>
<path d="M246.417 348.921H239.473C238.765 348.921 238.198 348.356 238.198 347.649V340.723C238.198 340.016 238.765 339.451 239.473 339.451H246.417C247.125 339.451 247.692 340.016 247.692 340.723V347.649C247.692 348.356 247.125 348.921 246.417 348.921Z" fill="white"/>
<path d="M258.602 348.921H251.659C250.951 348.921 250.384 348.356 250.384 347.649V340.723C250.384 340.016 250.951 339.451 251.659 339.451H258.602C259.311 339.451 259.878 340.016 259.878 340.723V347.649C259.878 348.356 259.311 348.921 258.602 348.921Z" fill="white"/>
<path d="M270.788 348.921H263.845C263.137 348.921 262.57 348.356 262.57 347.649V340.723C262.57 340.016 263.137 339.451 263.845 339.451H270.788C271.497 339.451 272.063 340.016 272.063 340.723V347.649C271.922 348.356 271.355 348.921 270.788 348.921Z" fill="white"/>
<path d="M282.833 348.921H275.89C275.181 348.921 274.614 348.356 274.614 347.649V340.723C274.614 340.016 275.181 339.451 275.89 339.451H282.833C283.541 339.451 284.108 340.016 284.108 340.723V347.649C284.108 348.356 283.541 348.921 282.833 348.921Z" fill="white"/>
<path d="M294.735 348.921H287.792C287.083 348.921 286.517 348.356 286.517 347.649V340.723C286.517 340.016 287.083 339.451 287.792 339.451H294.735C295.443 339.451 296.01 340.016 296.01 340.723V347.649C296.01 348.356 295.443 348.921 294.735 348.921Z" fill="white"/>
<path d="M312.73 348.921H300.119C299.411 348.921 298.844 348.356 298.844 347.649V340.723C298.844 340.016 299.411 339.451 300.119 339.451H312.73C313.438 339.451 314.005 340.016 314.005 340.723V347.649C314.005 348.497 313.438 348.921 312.73 348.921Z" fill="white"/>
<path d="M161.399 360.794H142.412C141.704 360.794 141.137 360.229 141.137 359.522V352.596C141.137 351.889 141.704 351.324 142.412 351.324H161.399C162.108 351.324 162.675 351.889 162.675 352.596V359.522C162.675 360.229 162.108 360.794 161.399 360.794Z" fill="white"/>
<path d="M173.585 360.794H166.642C165.933 360.794 165.366 360.229 165.366 359.522V352.596C165.366 351.889 165.933 351.324 166.642 351.324H173.585C174.293 351.324 174.86 351.889 174.86 352.596V359.522C174.86 360.229 174.293 360.794 173.585 360.794Z" fill="white"/>
<path d="M185.771 360.794H178.828C178.12 360.794 177.553 360.229 177.553 359.522V352.596C177.553 351.889 178.12 351.324 178.828 351.324H185.771C186.48 351.324 187.046 351.889 187.046 352.596V359.522C186.905 360.229 186.338 360.794 185.771 360.794Z" fill="white"/>
<path d="M197.815 360.794H190.872C190.163 360.794 189.597 360.229 189.597 359.522V352.596C189.597 351.889 190.163 351.324 190.872 351.324H197.815C198.524 351.324 199.09 351.889 199.09 352.596V359.522C199.09 360.229 198.524 360.794 197.815 360.794Z" fill="white"/>
<path d="M210.001 360.794H203.058C202.349 360.794 201.782 360.229 201.782 359.522V352.596C201.782 351.889 202.349 351.324 203.058 351.324H210.001C210.709 351.324 211.276 351.889 211.276 352.596V359.522C211.276 360.229 210.709 360.794 210.001 360.794Z" fill="white"/>
<path d="M222.187 360.794H215.244C214.535 360.794 213.968 360.229 213.968 359.522V352.596C213.968 351.889 214.535 351.324 215.244 351.324H222.187C222.895 351.324 223.462 351.889 223.462 352.596V359.522C223.32 360.229 222.753 360.794 222.187 360.794Z" fill="white"/>
<path d="M234.231 360.794H227.287C226.579 360.794 226.012 360.229 226.012 359.522V352.596C226.012 351.889 226.579 351.324 227.287 351.324H234.231C234.939 351.324 235.506 351.889 235.506 352.596V359.522C235.506 360.229 234.939 360.794 234.231 360.794Z" fill="white"/>
<path d="M246.417 360.794H239.473C238.765 360.794 238.198 360.229 238.198 359.522V352.596C238.198 351.889 238.765 351.324 239.473 351.324H246.417C247.125 351.324 247.692 351.889 247.692 352.596V359.522C247.692 360.229 247.125 360.794 246.417 360.794Z" fill="white"/>
<path d="M258.602 360.794H251.659C250.951 360.794 250.384 360.229 250.384 359.522V352.596C250.384 351.889 250.951 351.324 251.659 351.324H258.602C259.311 351.324 259.878 351.889 259.878 352.596V359.522C259.736 360.229 259.311 360.794 258.602 360.794Z" fill="white"/>
<path d="M270.788 360.794H263.845C263.137 360.794 262.57 360.229 262.57 359.522V352.596C262.57 351.889 263.137 351.324 263.845 351.324H270.788C271.497 351.324 272.063 351.889 272.063 352.596V359.522C271.922 360.229 271.355 360.794 270.788 360.794Z" fill="white"/>
<path d="M282.833 360.794H275.89C275.181 360.794 274.614 360.229 274.614 359.522V352.596C274.614 351.889 275.181 351.324 275.89 351.324H282.833C283.541 351.324 284.108 351.889 284.108 352.596V359.522C284.108 360.229 283.541 360.794 282.833 360.794Z" fill="white"/>
<path d="M312.73 360.794H288.075C287.367 360.794 286.8 360.229 286.8 359.522V352.596C286.8 351.889 287.367 351.324 288.075 351.324H312.73C313.439 351.324 314.005 351.889 314.005 352.596V359.522C314.005 360.37 313.439 360.794 312.73 360.794Z" fill="white"/>
<path d="M249.534 237.397V291.392H323.641L334.835 237.397H249.534Z" fill="white"/>
<g opacity="0.5">
<path d="M422.261 294.361L403.841 288C403.274 287.859 402.99 287.293 403.274 286.728C403.415 286.162 403.982 285.88 404.549 286.162L422.969 292.523C423.536 292.664 423.82 293.23 423.536 293.795C423.395 294.219 422.828 294.502 422.261 294.361Z" fill="#0083FF"/>
<path d="M420.844 316.835L390.804 306.375C390.238 306.234 389.954 305.527 390.096 304.962L393.213 295.774C393.355 295.209 394.063 294.926 394.63 295.067L424.67 305.527C425.236 305.668 425.52 306.375 425.378 306.941L422.261 316.128C422.119 316.694 421.411 316.976 420.844 316.835Z" fill="#0083FF"/>
<path d="M414.751 334.504L384.711 324.044C384.145 323.902 383.861 323.196 384.003 322.63L386.128 316.411C386.27 315.846 386.979 315.563 387.545 315.704L417.585 326.164C418.152 326.305 418.435 327.012 418.293 327.578L416.168 333.797C415.884 334.504 415.318 334.786 414.751 334.504Z" fill="#0083FF"/>
<path d="M418.86 322.913L394.064 314.291C393.497 314.149 393.214 313.584 393.497 313.019L394.347 310.474C394.489 309.909 395.056 309.626 395.622 309.909L420.419 318.531C420.986 318.673 421.269 319.238 420.986 319.803L420.136 322.348C419.852 322.772 419.286 323.054 418.86 322.913Z" fill="#0083FF"/>
<path d="M389.954 312.877C388.679 312.453 388.112 311.04 388.537 309.909C388.962 308.637 390.379 308.072 391.513 308.496C392.788 308.92 393.355 310.333 392.93 311.464C392.505 312.595 391.229 313.302 389.954 312.877Z" fill="#0083FF"/>
<path d="M76.2403 125.024L53.569 133.223C52.8606 133.505 52.1521 133.081 52.0104 132.516C51.727 131.809 52.1521 131.102 52.7188 130.961L75.3901 122.763C76.0986 122.48 76.8071 122.904 76.9488 123.47C77.2322 124.035 76.9488 124.742 76.2403 125.024Z" fill="#0083FF"/>
<path d="M131.927 133.222L56.4028 160.503C55.6943 160.786 54.8441 160.362 54.5607 159.655L50.4516 148.488C50.1682 147.781 50.5933 146.933 51.3017 146.651L126.825 119.37C127.534 119.088 128.384 119.512 128.668 120.218L132.777 131.385C133.06 132.233 132.635 133.081 131.927 133.222Z" fill="#0083FF"/>
<path d="M139.861 154.991L64.3377 182.271C63.6292 182.554 62.7791 182.13 62.4957 181.423L59.6618 173.79C59.3784 173.083 59.8034 172.235 60.5119 171.952L136.036 144.672C136.744 144.389 137.594 144.813 137.878 145.52L140.712 153.153C140.995 154.001 140.57 154.708 139.861 154.991Z" fill="#0083FF"/>
<path d="M134.761 140.714L65.6132 165.592C64.9048 165.874 64.1963 165.45 64.0546 164.885L62.921 161.634C62.6376 160.927 63.0627 160.22 63.6295 160.079L132.777 135.202C133.485 134.919 134.194 135.343 134.336 135.908L135.469 139.159C135.753 139.725 135.327 140.431 134.761 140.714Z" fill="#0083FF"/>
<path d="M60.6537 167.429C59.0951 167.995 57.3947 167.147 56.8279 165.733C56.2611 164.178 57.1113 162.482 58.5283 161.917C60.0869 161.351 61.7873 162.199 62.3541 163.613C62.9208 165.168 62.2124 166.864 60.6537 167.429Z" fill="#0083FF"/>
<path d="M192.573 241.072L162.533 241.496C161.683 241.496 160.833 240.789 160.691 239.941C160.549 239.093 161.116 238.386 161.966 238.386L192.289 237.962C193.139 237.962 193.99 238.669 193.99 239.517C194.131 240.365 193.565 241.072 192.573 241.072Z" fill="#0083FF"/>
<path d="M230.122 263.971L131.36 264.536L127.676 247.716L230.122 246.726V263.971Z" fill="#0083FF"/>
<path d="M230.122 288.565L136.745 288.424L134.336 277.54L230.122 277.257V288.565Z" fill="#0083FF"/>
<path d="M229.98 272.593L141.137 272.875L139.862 266.656L229.98 266.091V272.593Z" fill="#0083FF"/>
<path d="M136.603 272.875C134.76 272.875 132.918 271.462 132.635 269.766C132.21 268.07 133.485 266.656 135.327 266.656C137.169 266.656 139.011 268.07 139.436 269.766C139.72 271.462 138.445 272.875 136.603 272.875Z" fill="#0083FF"/>
</g>
<path d="M257.044 257.893H318.256" stroke="#999BAD" stroke-miterlimit="10"/>
<path d="M257.044 264.96H316.84" stroke="#999BAD" stroke-miterlimit="10"/>
<path d="M257.044 271.745H315.564" stroke="#999BAD" stroke-miterlimit="10"/>
<path d="M257.044 278.247H314.289" stroke="#999BAD" stroke-miterlimit="10"/>
<path d="M257.044 284.466H313.014" stroke="#999BAD" stroke-miterlimit="10"/>
<path d="M264.27 252.097L260.445 249.553L264.27 247.009" stroke="#999BAD" stroke-miterlimit="10"/>
<path d="M272.347 252.097L276.173 249.553L272.347 247.009" stroke="#999BAD" stroke-miterlimit="10"/>
<path d="M270.08 246.584L266.963 252.38" stroke="#999BAD" stroke-miterlimit="10"/>
<path d="M283.541 252.097L279.715 249.553L283.541 247.009" stroke="#999BAD" stroke-miterlimit="10"/>
<path d="M291.617 252.097L295.585 249.553L291.617 247.009" stroke="#999BAD" stroke-miterlimit="10"/>
<path d="M289.35 246.584L286.375 252.38" stroke="#999BAD" stroke-miterlimit="10"/>
</svg>
