<svg width="396" height="200" viewBox="0 0 396 200" fill="none" xmlns="http://www.w3.org/2000/svg">
<path d="M118.442 5.28345C53.0257 5.28345 0 59.012 0 125.296V134.003H118.442V5.28345Z" fill="white" fill-opacity="0.1"/>
<path d="M169.204 37.0019L154.578 44.0864L144.747 23.4675L179.826 6.4646C185.25 17.8589 180.499 31.5261 169.204 37.0019Z" fill="#FEC458" fill-opacity="0.5"/>
<path d="M71.2057 162.292C71.2057 164.889 69.1193 167 66.5352 167C63.9584 167 61.8648 164.897 61.8648 162.292C61.8648 159.694 63.9511 157.583 66.5352 157.583C69.1193 157.583 71.2057 159.694 71.2057 162.292Z" fill="#0095FF" fill-opacity="0.5"/>
<path d="M142.419 13.6525C146.158 13.6525 149.19 10.5963 149.19 6.82624C149.19 3.05621 146.158 0 142.419 0C138.679 0 135.647 3.05621 135.647 6.82624C135.647 10.5963 138.679 13.6525 142.419 13.6525Z" fill="#F9518C" fill-opacity="0.5"/>
<path d="M0 44.9498V21.106H23.6449L0 44.9498Z" fill="white" fill-opacity="0.2"/>
<path d="M22.3535 111.887L24.3271 97.8757H40.8318V111.887H22.3535Z" fill="#E78882"/>
<path d="M24.3271 97.8757H40.8317V102.78L24.1047 99.445L24.3271 97.8757Z" fill="#422C4F"/>
<path d="M51.4503 55.1418L40.6858 56.4659C32.7427 57.4467 26.3772 63.5766 25.0568 71.542L20.6857 97.8761H40.8387V134.13H85.0989V55.1418H51.4503Z" fill="white"/>
<path d="M54.5011 44.7031V55.1485H51.4503C55.891 65.6569 71.0057 65.713 75.2309 55.1485H70.8876L70.0745 46.8048L54.5011 44.7031Z" fill="#EBA58E"/>
<path d="M54.5011 44.7031C58.5526 54.7982 66.7597 53.6003 70.4428 50.5808L70.0745 46.8048L54.5011 44.7031Z" fill="#422C4F"/>
<path d="M64.2857 49.9786C55.9396 49.9786 49.1709 43.1551 49.1709 34.7413V24.4921C49.1709 16.0784 55.9396 9.25488 64.2857 9.25488C72.6318 9.25488 79.4005 16.0784 79.4005 24.4921V34.7413C79.4005 43.1551 72.6318 49.9786 64.2857 49.9786Z" fill="#EBA58E"/>
<path d="M49.2126 37.4873C50.1786 37.5153 51.1029 36.9618 51.6797 36.1842C52.2564 35.4066 52.5205 34.4258 52.5831 33.459C52.6456 32.4922 52.5275 31.5185 52.4093 30.5517C53.7506 30.3205 54.8207 29.0455 55.0779 27.7004C55.3419 26.3553 55.057 24.9682 54.7721 23.6231C55.9674 25.1363 57.9201 26.2572 59.8382 26.2923C60.8945 26.3063 62.0619 25.991 62.6318 25.0943C63.014 24.4918 63.0626 23.7142 62.9167 23.0136C62.7708 22.3131 62.4442 21.6616 62.1245 21.024C66.2037 24.2116 71.7771 25.5847 76.7528 24.2116C78.233 23.8053 79.7063 23.1538 80.7209 21.9908C81.8119 20.7368 82.2428 18.9994 82.1455 17.3321C82.0482 15.6717 81.4575 14.0675 80.6931 12.5893C78.511 8.33686 74.8556 4.86908 70.5054 2.92852C66.162 0.994973 61.1516 0.602658 56.565 1.84265C54.4246 2.41711 52.3051 3.3979 50.8944 5.11428C49.4837 6.83066 48.9486 9.41573 50.0605 11.3423C48.6706 10.9079 46.8221 11.9938 45.9117 13.1287C44.9944 14.2636 44.6052 15.7348 44.3551 17.178C43.1737 24.0435 45.1056 31.8757 49.2126 37.4873Z" fill="#8E5A61"/>
<path d="M48.9903 31.9317C48.0869 31.021 46.7665 30.4675 45.5156 30.7197C43.813 31.07 42.6664 32.8985 42.722 34.6429C42.7776 36.3943 43.8269 37.9916 45.1821 39.0845C45.9951 39.743 46.9819 40.2614 48.0243 40.2474C49.1015 40.2334 50.1578 39.6099 50.6859 38.6641C51.777 36.7166 50.4218 33.3749 48.9903 31.9317Z" fill="#EBA58E"/>
<path d="M44.5357 35.3995C44.5427 34.762 44.7859 34.0755 45.3419 33.7602C46.0368 33.3609 46.968 33.7322 47.4614 34.3627C47.9548 34.9932 48.1355 35.8129 48.2953 36.6045C48.3857 37.0528 48.4413 37.6203 48.066 37.8865C47.7602 38.1037 47.3224 37.9776 47.0305 37.7464C46.6066 37.4171 46.3495 36.8917 46.3356 36.3593C46.3217 35.8269 46.5649 35.2874 46.9749 34.9442C46.7248 34.5518 46.2244 34.2856 45.7658 34.3207C45.3002 34.3487 44.7303 34.9722 44.5357 35.3995Z" fill="#E78882"/>
<path d="M59.6992 27.6235C58.4066 27.8406 57.3503 28.5972 56.6832 29.6201L63.1947 28.5202C62.2357 27.7706 60.9917 27.4063 59.6992 27.6235Z" fill="#8E5A61"/>
<path d="M62.5206 32.9338C62.5206 33.6064 61.9786 34.1528 61.3114 34.1528C60.6443 34.1528 60.1023 33.6064 60.1023 32.9338C60.1023 32.2613 60.6443 31.7148 61.3114 31.7148C61.9786 31.7148 62.5206 32.2613 62.5206 32.9338Z" fill="#422C4F"/>
<path d="M74.661 27.6235C75.9536 27.8406 77.0099 28.5972 77.677 29.6201L71.1655 28.5202C72.1245 27.7706 73.3685 27.4063 74.661 27.6235Z" fill="#8E5A61"/>
<path d="M72.3886 32.9338C72.3886 33.6064 72.9307 34.1528 73.5978 34.1528C74.265 34.1528 74.807 33.6064 74.807 32.9338C74.807 32.2613 74.265 31.7148 73.5978 31.7148C72.9307 31.7148 72.3886 32.2613 72.3886 32.9338Z" fill="#422C4F"/>
<path d="M69.4977 37.3684C68.3302 37.4665 67.1627 37.5646 66.0022 37.6626C66.3288 38.3352 67.0585 38.8326 67.7951 38.8046C68.5387 38.7765 69.2197 38.062 69.4977 37.3684Z" fill="#E78882"/>
<path d="M71.6937 39.7085C67.7951 40.9415 63.7367 41.6561 59.6575 41.8312C61.1446 43.8768 63.7715 45.0398 66.2524 44.6194C68.7263 44.1921 70.9571 42.1324 71.6937 39.7085Z" fill="white"/>
<path opacity="0.3" d="M40.8318 97.8761V73.3564L38.2953 82.2956C36.829 87.4588 37.2181 92.9722 39.3863 97.8761H40.8318Z" fill="#422C4F"/>
<path d="M79.7132 39.3369L59.9355 115.558L90.304 123.565C87.9968 125.135 86.2178 127.517 85.4534 130.452C83.7925 136.855 87.5938 143.398 93.9385 145.073C100.29 146.747 106.781 142.915 108.442 136.519C109.199 133.591 108.81 130.634 107.559 128.126L137.928 136.134L145.551 106.745C143.07 107.992 140.145 108.384 137.254 107.621C130.902 105.946 127.108 99.4031 128.768 93C130.429 86.5968 136.92 82.7718 143.272 84.4461C146.17 85.2097 148.525 86.9892 150.082 89.308L157.705 59.9194L79.7132 39.3369Z" fill="#00CEC9"/>
<path d="M55.0779 92.3974L65.6756 78.4352C69.1433 75.2967 74.7445 74.6592 77.83 74.7643C78.7542 74.7993 79.4839 75.5489 79.4839 76.4806V76.5227C79.4839 77.4754 78.7473 78.2741 77.8091 78.3021C74.1121 78.4002 70.3316 79.7873 68.6499 81.966C72.5415 81.1954 76.8293 81.6578 79.2824 82.0641C80.3943 82.2463 81.1309 83.3181 80.9085 84.432C80.7 85.4408 79.7688 86.1274 78.7542 86.0083C74.397 85.5109 68.7541 86.4076 67.2392 87.4234C71.1586 87.3113 73.9453 87.4304 75.9328 87.9418C76.9057 88.194 77.4686 89.2169 77.1767 90.1836L77.142 90.2887C76.871 91.1714 75.9814 91.6758 75.078 91.5007C71.5895 90.8071 66.0856 91.865 66.0856 91.865C68.7611 91.9 71.8466 92.8388 73.6187 93.4623C74.4387 93.7565 74.8973 94.6322 74.675 95.4869C74.4526 96.3346 73.6187 96.874 72.7639 96.7199L65.1891 95.3538L65.1683 95.3818C63.7089 97.3784 61.5755 98.7585 59.171 99.2699L38.1146 121.24C33.7504 125.793 26.266 124.833 23.1735 119.327C20.505 114.577 22.3605 108.545 27.218 106.142L55.0779 92.3974Z" fill="#EBA58E"/>
<path d="M328.251 66.2027C331.751 66.2027 334.589 63.339 334.589 59.8064C334.589 56.2739 331.751 53.4102 328.251 53.4102C324.751 53.4102 321.913 56.2739 321.913 59.8064C321.913 63.339 324.751 66.2027 328.251 66.2027Z" fill="#00CEC9" fill-opacity="0.5"/>
<path d="M374.668 77.4539H362.341V58.2075H393.738C393.738 68.8381 385.201 77.4539 374.668 77.4539Z" fill="#0095FF" fill-opacity="0.5"/>
<path d="M249.158 193.156L239.772 197.71L232.788 183.05L256.706 171.447C260.559 179.545 257.181 189.261 249.158 193.156Z" fill="#F9518C" fill-opacity="0.5"/>
<path d="M230.348 168.92V134.061H264.888L230.348 168.92Z" fill="white" fill-opacity="0.2"/>
<path d="M339.088 200H282.665V141.425C282.665 109.971 307.93 84.479 339.088 84.479C370.253 84.479 395.512 109.978 395.512 141.425V143.054C395.518 174.508 370.253 200 339.088 200Z" fill="white" fill-opacity="0.1"/>
<path d="M223.32 85.0956C221.473 86.2462 219.298 86.9254 216.961 86.9254C210.358 86.9254 205 81.6233 205 75.0736C205 68.5308 210.351 63.2218 216.961 63.2218C219.305 63.2218 221.48 63.901 223.32 65.0515L223.32 34.8745L253.832 34.8745C251.888 36.9815 250.698 39.7746 250.698 42.852C250.698 49.3947 256.05 54.7038 262.66 54.7038C269.27 54.7038 274.621 49.4016 274.621 42.852C274.621 39.7746 273.425 36.9815 271.488 34.8745L302 34.8745L302 115.273L223.32 115.273L223.32 85.0956Z" fill="#FEC458"/>
<path d="M304.665 89.9789L304.313 85.2044C304.232 84.1337 303.837 83.1177 303.171 82.2819L301.985 80.7905V89.9843H304.665V89.9789Z" fill="#A64F5A"/>
<path d="M301.98 102.74L314.072 99.0632L320.518 120.778L332.762 132.015V138.373L329.227 137.712L310.121 129.977L301.98 102.74Z" fill="#C7D2D7"/>
<path d="M310.121 100.265L305.953 93.2836L305.276 90.0332C305.044 88.9134 304.502 87.8809 303.717 87.056L299.312 82.4291C298.732 81.8227 297.769 81.8391 297.211 82.4619C296.773 82.9535 296.719 83.6801 297.076 84.2318L299.869 88.5037L300.048 92.7919C300.14 94.9934 300.795 97.1403 301.953 99.0086L301.991 99.0686L303.447 102.303L310.121 100.265Z" fill="#EBA58E"/>
<path d="M276.535 104.084L276.432 103.882C275.415 101.872 274.029 100.069 272.346 98.5775C271.177 97.5396 270.143 96.3487 269.282 95.0376L265.125 88.7227C264.833 88.2802 264.936 87.6793 265.363 87.3625C265.802 87.0347 266.424 87.1276 266.749 87.5755L270.154 92.2298L266.137 85.7564C265.845 85.2866 265.959 84.6693 266.397 84.3361C266.863 83.981 267.528 84.0793 267.88 84.5491L271.712 89.7005L267.55 82.7792C267.204 82.2056 267.426 81.4572 268.021 81.1677C268.514 80.9273 269.104 81.0803 269.423 81.5228L274.354 88.4004L271.15 82.6099C270.83 82.0308 271.02 81.2988 271.583 80.9546C272.145 80.6105 272.876 80.7798 273.233 81.337L279.561 91.1318L279.837 85.6035C279.869 84.9261 280.448 84.4016 281.12 84.4399C281.764 84.4781 282.267 85.0135 282.267 85.6635V92.563V97.8182L283.545 100.265L276.535 104.084Z" fill="#EBA58E"/>
<path d="M283.55 100.276L276.535 104.084L275.696 102.565L283.279 99.7627L283.55 100.276Z" fill="#A64F5A"/>
<path opacity="0.3" d="M316.416 151.003L329.363 156.619L326.64 157.056C322.581 157.706 318.586 155.587 316.811 151.845L316.416 151.003Z" fill="#422C4F"/>
<path d="M319.75 114.649L319.03 123.608C318.716 127.481 321.244 131.004 324.984 131.922L327.42 132.517L327.014 136.811L329.222 137.707L339.214 139.57L337.974 131.244L341.249 118.265C342.867 111.852 338.57 105.455 332.064 104.597C325.872 103.783 320.259 108.366 319.75 114.649Z" fill="#EBA58E"/>
<path d="M324.064 97.8945C323.306 99.8338 322.029 101.527 320.416 102.833C319.961 103.199 319.506 103.57 319.181 104.056C318.857 104.543 318.683 105.165 318.857 105.723C319.089 106.455 319.847 106.897 320.167 107.596C320.637 108.623 320.047 109.809 320.015 110.94C319.977 112.475 320.973 113.818 321.926 115.02L321.314 119.221C321.125 120.527 321.466 121.849 322.256 122.898C322.321 121.876 322.537 120.876 322.83 119.898C323.225 118.582 324.064 117.342 325.466 116.949C325.861 116.839 326.288 116.823 326.689 116.921C328.399 117.331 328.843 119.188 328.767 120.767C328.697 122.204 328.291 123.679 327.311 124.728C326.337 125.776 324.702 126.274 323.425 125.64C323.311 126.656 324.345 127.787 325.33 128.027C326.315 128.267 327.382 128.213 328.286 128.677C329.33 129.212 329.947 130.321 330.857 131.07C331.858 131.895 333.179 132.233 334.472 132.261C335.76 132.288 337.043 132.031 338.31 131.775C339.815 131.469 341.379 131.141 342.591 130.196C343.793 129.267 344.54 127.765 344.556 126.235C344.578 124.607 343.831 123.018 344.042 121.406C344.296 119.478 345.844 118.025 347.219 116.665C348.594 115.299 349.99 113.6 349.801 111.661C349.487 108.356 344.886 106.744 344.637 103.434C344.502 101.609 345.79 99.7191 344.166 98.0802C343.842 97.7579 343.446 97.5121 343.013 97.3591C341.39 96.7746 339.76 97.2171 338.158 97.5503C336.924 97.8071 335.62 97.9983 334.418 97.605C332.085 96.8402 330.543 94.0269 328.085 94.0706C326.754 94.0924 325.568 95.0265 324.87 96.1737C324.594 96.6381 324.313 97.2499 324.064 97.8945Z" fill="#8E5A61"/>
<path d="M325.438 119.238C324.632 119.942 324.069 120.926 323.869 121.985C323.82 122.231 323.793 122.482 323.842 122.728C323.885 122.974 324.015 123.214 324.221 123.351C324.524 123.548 324.941 123.488 325.244 123.291C325.687 123.001 325.926 122.428 325.828 121.903C325.731 121.379 325.298 120.936 324.784 120.833C324.876 120.336 325.152 119.647 325.438 119.238Z" fill="#A64F5A"/>
<path d="M285.83 98.29L273.25 105.12L284.19 125.17C285.79 119.18 288.32 113.58 291.62 108.53L285.83 98.29Z" fill="white"/>
<path d="M355.39 164.36L354.11 153.33C353.28 146.18 347.93 140.42 340.93 139.11L329.26 136.94L301.26 125.6L291.62 108.53C288.32 113.58 285.79 119.18 284.19 125.17L288.97 133.93C291.01 137.66 294.21 140.59 298.08 142.27L316.46 150.24L316.3 153.52C315.69 166.54 317.12 179.58 320.54 192.16L322.41 199.04H343.59C351.33 198.43 358.63 196.27 365.19 192.85L359.57 179.9C357.42 174.96 356.02 169.72 355.39 164.36Z" fill="white"/>
<path d="M276.58 103.31L276.48 103.11C275.46 101.1 274.08 99.3 272.39 97.81C271.22 96.77 270.19 95.58 269.33 94.27L265.17 87.95C264.87 87.5 264.98 86.9 265.4 86.59C265.84 86.26 266.46 86.35 266.79 86.8L270.19 91.45L266.18 84.98C265.89 84.51 266 83.89 266.44 83.56C266.9 83.2 267.57 83.3 267.92 83.77L271.75 88.92L267.59 82C267.24 81.43 267.47 80.68 268.06 80.39C268.55 80.15 269.14 80.3 269.46 80.75L274.39 87.63L271.19 81.84C270.87 81.25 271.06 80.52 271.62 80.18C272.19 79.83 272.92 80 273.27 80.56L279.6 90.35L279.88 84.82C279.91 84.14 280.49 83.62 281.16 83.66C281.8 83.7 282.31 84.23 282.31 84.88V91.78V97.04L283.59 99.49L276.58 103.31Z" fill="#EBA58E"/>
<path d="M283.59 99.5L276.58 103.31L275.74 101.79L283.32 98.99L283.59 99.5Z" fill="#A64F5A"/>
<path opacity="0.3" d="M316.46 150.23L329.41 155.85L326.69 156.29C322.63 156.94 318.64 154.82 316.86 151.08L316.46 150.23Z" fill="#422C4F"/>
</svg>
