<svg width="45" height="29" viewBox="0 0 45 29" fill="none" xmlns="http://www.w3.org/2000/svg">
<path d="M37 11.9206C30.9254 14.8761 29.4068 20.5409 29.4068 23.0039C27.2373 18.3595 22.8983 14.9113 21 13.7678C27.5085 11.4456 29.8588 6.29094 30.2203 4.00391C30.4373 9.49279 34.8305 11.5687 37 11.9206Z" fill="#00CEC9" fill-opacity="0.5"/>
<path d="M41 11.4206C33.4068 15.3095 31.5085 22.7632 31.5085 26.0039C28.7966 19.8928 23.3729 15.3558 21 13.8511C29.1356 10.7956 32.0734 4.01317 32.5254 1.00391C32.7966 8.22613 38.2881 10.9576 41 11.4206Z" stroke="#111111" stroke-width="2" stroke-linecap="round"/>
<path d="M15 19.2539C10.4441 21.5872 9.30508 26.0595 9.30508 28.0039C7.67797 24.3372 4.42373 21.615 3 20.7122C7.88136 18.8789 9.64407 14.8095 9.91525 13.0039C10.078 17.3372 13.3729 18.9761 15 19.2539Z" stroke="#111111" stroke-width="2" stroke-linecap="round"/>
</svg>
