<svg width="45" height="33" viewBox="0 0 45 33" fill="none" xmlns="http://www.w3.org/2000/svg">
<path d="M37 15.9206C30.9254 18.8761 29.4068 24.5409 29.4068 27.0039C27.2373 22.3595 22.8983 18.9113 21 17.7678C27.5085 15.4456 29.8588 10.2909 30.2203 8.00391C30.4373 13.4928 34.8305 15.5687 37 15.9206Z" fill="#00CEC9" fill-opacity="0.5"/>
<path d="M41 15.4206C33.4068 19.3095 31.5085 26.7632 31.5085 30.0039C28.7966 23.8928 23.3729 19.3558 21 17.8511C29.1356 14.7956 32.0734 8.01317 32.5254 5.00391C32.7966 12.2261 38.2881 14.9576 41 15.4206Z" stroke="#111111" stroke-width="2" stroke-linecap="round"/>
<path d="M15 23.2539C10.4441 25.5872 9.30508 30.0595 9.30508 32.0039C7.67797 28.3372 4.42373 25.615 3 24.7122C7.88136 22.8789 9.64407 18.8095 9.91525 17.0039C10.078 21.3372 13.3729 22.9761 15 23.2539Z" stroke="#111111" stroke-width="2" stroke-linecap="round"/>
<path d="M16.6 5.00391C12.9553 6.87057 12.0441 10.4484 12.0441 12.0039C10.7424 9.07057 8.13898 6.8928 7 6.17057C10.9051 4.70391 12.3153 1.44835 12.5322 0.00390625C12.6624 3.47057 15.2983 4.78168 16.6 5.00391Z" fill="#00CEC9"/>
</svg>
