<svg width="59" height="33" viewBox="0 0 59 33" fill="none" xmlns="http://www.w3.org/2000/svg">
<path d="M51 15.9167C44.9254 18.8722 43.4068 24.537 43.4068 27C41.2373 22.3556 36.8983 18.9074 35 17.7639C41.5085 15.4417 43.8588 10.287 44.2203 8C44.4373 13.4889 48.8305 15.5648 51 15.9167Z" fill="#00CEC9" fill-opacity="0.5"/>
<path d="M55 15.4167C47.4068 19.3056 45.5085 26.7593 45.5085 30C42.7966 23.8889 37.3729 19.3519 35 17.8472C43.1356 14.7917 46.0734 8.00926 46.5254 5C46.7966 12.2222 52.2881 14.9537 55 15.4167Z" stroke="#111111" stroke-width="2" stroke-linecap="round"/>
<path d="M28 23.4167C24.2034 25.4389 23.2542 29.3148 23.2542 31C21.8983 27.8222 19.1864 25.463 18 24.6806C22.0678 23.0917 23.5367 19.5648 23.7627 18C23.8983 21.7556 26.6441 23.1759 28 23.4167Z" fill="#00CEC9"/>
<path d="M29 23.25C24.4441 25.5833 23.3051 30.0556 23.3051 32C21.678 28.3333 18.4237 25.6111 17 24.7083C21.8814 22.875 23.6441 18.8056 23.9153 17C24.078 21.3333 27.3729 22.9722 29 23.25Z" stroke="#111111" stroke-width="2" stroke-linecap="round"/>
<path d="M11.6 13C7.95525 14.8667 7.04407 18.4444 7.04407 20C5.74237 17.0667 3.13898 14.8889 2 14.1667C5.90509 12.7 7.31525 9.44444 7.5322 8C7.66237 11.4667 10.2983 12.7778 11.6 13Z" stroke="#111111" stroke-width="1.5" stroke-linecap="round"/>
<path d="M30.6 5C26.9553 6.86667 26.0441 10.4444 26.0441 12C24.7424 9.06667 22.139 6.88889 21 6.16667C24.9051 4.7 26.3153 1.44444 26.5322 0C26.6624 3.46667 29.2983 4.77778 30.6 5Z" fill="#00CEC9"/>
</svg>
