<svg width="85" height="85" viewBox="0 0 85 85" fill="none" xmlns="http://www.w3.org/2000/svg">
<path d="M21.2132 63.6396C9.49748 51.9239 9.49748 32.9289 21.2132 21.2132C32.9289 9.49746 51.9239 9.49746 63.6396 21.2132C75.3553 32.9289 75.3553 51.9239 63.6396 63.6396L42.4264 84.8528L21.2132 63.6396Z" fill="#0099FF" fill-opacity="0.3"/>
<circle cx="42.4268" cy="42.4264" r="25" fill="white"/>
<path d="M46.7813 49.995H37.3813C36.9613 49.995 36.4913 49.665 36.3513 49.265L32.2113 37.685C31.6213 36.025 32.3113 35.515 33.7313 36.535L37.6313 39.325C38.2813 39.775 39.0213 39.545 39.3013 38.815L41.0613 34.125C41.6213 32.625 42.5513 32.625 43.1113 34.125L44.8713 38.815C45.1513 39.545 45.8913 39.775 46.5313 39.325L50.1913 36.715C51.7513 35.595 52.5013 36.165 51.8613 37.975L47.8213 49.285C47.6713 49.665 47.2013 49.995 46.7813 49.995Z" stroke="#0099FF" stroke-width="1.5" stroke-linecap="round" stroke-linejoin="round"/>
<path d="M36.5811 53.015H47.5811" stroke="#0099FF" stroke-width="1.5" stroke-linecap="round" stroke-linejoin="round"/>
<path d="M39.5811 45.015H44.5811" stroke="#0099FF" stroke-width="1.5" stroke-linecap="round" stroke-linejoin="round"/>
</svg>
