<svg width="86" height="86" viewBox="0 0 86 86" fill="none" xmlns="http://www.w3.org/2000/svg">
<path d="M21.7855 64.2131C10.0697 52.4974 10.0697 33.5025 21.7855 21.7867C33.5012 10.071 52.4961 10.071 64.2119 21.7867C75.9276 33.5025 75.9276 52.4974 64.2119 64.2131L42.9987 85.4263L21.7855 64.2131Z" fill="#0099FF" fill-opacity="0.3"/>
<circle cx="43" cy="43" r="25" fill="white"/>
<path d="M33 46.5824V37.0024C33 35.6724 33.77 35.3524 34.71 36.2924L37.3 38.8824C37.69 39.2724 38.33 39.2724 38.71 38.8824L42.29 35.2924C42.68 34.9024 43.32 34.9024 43.7 35.2924L47.29 38.8824C47.68 39.2724 48.32 39.2724 48.7 38.8824L51.29 36.2924C52.23 35.3524 53 35.6724 53 37.0024V46.5924C53 49.5924 51 51.5924 48 51.5924H38C35.24 51.5824 33 49.3424 33 46.5824Z" stroke="#0099FF" stroke-width="1.5" stroke-linecap="round" stroke-linejoin="round"/>
</svg>
