<svg width="19" height="20" viewBox="0 0 19 20" fill="none" xmlns="http://www.w3.org/2000/svg">
<g clip-path="url(#clip0_2909_2816)">
<path d="M14.5878 1.68459H13.405V1.11111C13.405 0.501792 12.9032 0 12.2939 0C11.6846 0 11.1828 0.501792 11.1828 1.11111V1.68459H10.2509V1.11111C10.2509 0.501792 9.7491 0 9.13979 0C8.53047 0 8.02867 0.501792 8.02867 1.11111V1.68459H7.09677V1.11111C7.09677 0.501792 6.59498 0 5.98566 0C5.37634 0 4.87455 0.501792 4.87455 1.11111V1.68459H3.69176C1.68459 1.68459 0 3.36918 0 5.41219V16.2724C0 18.3154 1.68459 20 3.7276 20H14.5878C16.6308 20 18.3154 18.3154 18.3154 16.2724V5.41219C18.3154 3.36918 16.6667 1.68459 14.5878 1.68459ZM16.129 16.2724C16.129 17.0968 15.448 17.7778 14.6237 17.7778H3.7276C2.90323 17.7778 2.22222 17.0968 2.22222 16.2724V5.41219C2.22222 4.58781 2.90323 3.90681 3.7276 3.90681H4.91039V4.94624C4.91039 5.55556 5.41219 6.05735 6.02151 6.05735C6.63082 6.05735 7.13262 5.55556 7.13262 4.94624V3.90681H8.06452V4.94624C8.06452 5.55556 8.56631 6.05735 9.17563 6.05735C9.78495 6.05735 10.2867 5.55556 10.2867 4.94624V3.90681H11.2186V4.94624C11.2186 5.55556 11.7204 6.05735 12.3298 6.05735C12.9391 6.05735 13.4409 5.55556 13.4409 4.94624V3.90681H14.6237C15.448 3.90681 16.129 4.58781 16.129 5.41219V16.2724Z" fill="#5ECC62"/>
<path d="M14.7671 7.16846H3.26172V8.99641H14.7671V7.16846Z" fill="#5ECC62"/>
<path d="M7.74091 16.5592C7.41833 16.5592 7.16744 16.4875 6.98823 16.3799C6.77317 16.2366 6.6298 16.0932 6.52228 15.8423C6.41475 15.6273 6.37891 15.3405 6.37891 15.0538V12.6882C6.37891 12.3656 6.41475 12.1147 6.52228 11.8638C6.6298 11.6488 6.77317 11.4696 6.98823 11.3262C7.20328 11.1828 7.45418 11.147 7.77676 11.147C8.09934 11.147 8.35023 11.2187 8.56529 11.3262C8.78034 11.4696 8.92371 11.6488 9.03124 11.8638C9.13876 12.0789 9.17461 12.3656 9.17461 12.6882V15.0538C9.17461 15.3405 9.13876 15.5914 9.03124 15.8423C8.92371 16.0574 8.78034 16.2366 8.56529 16.3799C8.31439 16.4875 8.02765 16.5592 7.74091 16.5592ZM7.74091 15.5914C7.84844 15.5914 7.92013 15.5556 7.95597 15.4839C7.99181 15.4122 8.02765 15.3405 8.02765 15.233C8.02765 15.1613 8.02765 15.0538 8.02765 15.0179V12.6882C8.02765 12.6165 8.02765 12.5448 8.02765 12.4373C8.02765 12.3298 7.99181 12.2581 7.95597 12.1864C7.92013 12.1147 7.84844 12.0789 7.74091 12.0789C7.63339 12.0789 7.5617 12.1147 7.52586 12.1864C7.49002 12.2581 7.45417 12.3298 7.45417 12.4373C7.45417 12.5448 7.45417 12.6165 7.45417 12.6882V15.0179C7.45417 15.0896 7.45418 15.1613 7.49002 15.233C7.52586 15.3047 7.52586 15.4122 7.5617 15.4839C7.5617 15.5556 7.63339 15.5914 7.74091 15.5914Z" fill="#111111"/>
<path d="M10.2865 16.4517V12.2581C10.2506 12.294 10.1789 12.294 10.1431 12.3298C10.0714 12.3657 10.0356 12.3657 9.96389 12.4015C9.89221 12.4373 9.82052 12.4732 9.78468 12.4732C9.713 12.509 9.67715 12.509 9.60547 12.5449V11.7563C9.64131 11.7205 9.713 11.6847 9.78468 11.6488C9.85636 11.613 9.96389 11.5413 10.0714 11.5054C10.1789 11.4338 10.2506 11.3979 10.3582 11.3262C10.4298 11.2545 10.5015 11.2187 10.5374 11.1829H11.3617V16.4517H10.2865Z" fill="#111111"/>
</g>
<defs>
<clipPath id="clip0_2909_2816">
<rect width="18.3154" height="20" fill="white"/>
</clipPath>
</defs>
</svg>
