<svg width="15" height="20" viewBox="0 0 15 20" fill="none" xmlns="http://www.w3.org/2000/svg">
<g clip-path="url(#clip0_2909_2822)">
<path d="M7.27569 0C3.26264 0 0 3.26264 0 7.27569C0 11.2887 7.27569 20 7.27569 20C7.27569 20 14.5514 11.2887 14.5514 7.27569C14.5514 3.26264 11.2887 0 7.27569 0ZM11.615 8.05873C11.1909 10.4731 8.87439 12.0392 6.46003 11.615C4.0783 11.1909 2.47961 8.87439 2.93638 6.49266C3.36052 4.0783 5.677 2.47961 8.05873 2.93638C10.4731 3.36052 12.0718 5.677 11.615 8.05873Z" fill="#5ECC62"/>
<path d="M9.10303 7.60197C8.90727 8.61339 7.92848 9.29854 6.91706 9.10278C5.90564 8.90703 5.22048 7.92823 5.41624 6.91681C5.612 5.9054 6.59079 5.22024 7.60221 5.416C8.61363 5.61176 9.29879 6.59055 9.10303 7.60197Z" fill="#111111"/>
</g>
<defs>
<clipPath id="clip0_2909_2822">
<rect width="14.5514" height="20" fill="white"/>
</clipPath>
</defs>
</svg>
