<svg width="20" height="20" viewBox="0 0 20 20" fill="none" xmlns="http://www.w3.org/2000/svg">
<path d="M15 2.96V10.08C15 12.07 13.59 12.84 11.86 11.8L10.54 11C10.24 10.82 9.76 10.82 9.46 11L8.14 11.8C6.41 12.84 5 12.07 5 10.08V2.99C5.01 1 6.01 0 8 0H12C13.98 0 14.98 0.99 15 2.96Z" fill="#5ECC62"/>
<path opacity="0.4" d="M20 9.90002V12.93C20 17.98 18 20 13 20H7C2 20 0 17.98 0 12.93V9.90002C0 5.66002 1.41 3.56002 4.82 2.99002H5V10.08C5 12.07 6.41 12.84 8.14 11.8L9.46 11C9.76 10.82 10.24 10.82 10.54 11L11.86 11.8C13.59 12.84 15 12.07 15 10.08V2.96002C18.54 3.48002 20 5.59002 20 9.90002Z" fill="#5ECC62"/>
</svg>
