<svg width="126" height="126" viewBox="0 0 126 126" fill="none" xmlns="http://www.w3.org/2000/svg">
<path d="M122.82 100.98C122.82 103.14 122.34 105.36 121.32 107.52C120.3 109.68 118.98 111.72 117.24 113.64C114.3 116.88 111.06 119.22 107.4 120.72C103.8 122.22 99.9 123 95.7 123C89.58 123 83.04 121.56 76.14 118.62C69.24 115.68 62.34 111.72 55.5 106.74C48.6 101.7 42.06 96.12 35.82 89.94C29.64 83.7 24.06 77.16 19.08 70.32C14.16 63.48 10.2 56.64 7.32 49.86C4.44 43.02 3 36.48 3 30.24C3 26.16 3.72 22.26 5.16 18.66C6.6 15 8.88 11.64 12.06 8.64C15.9 4.86 20.1 3 24.54 3C26.22 3 27.9 3.36 29.4 4.08C30.96 4.8 32.34 5.88 33.42 7.44L47.34 27.06C48.42 28.56 49.2 29.94 49.74 31.26C50.28 32.52 50.58 33.78 50.58 34.92C50.58 36.36 50.16 37.8 49.32 39.18C48.54 40.56 47.4 42 45.96 43.44L41.4 48.18C40.74 48.84 40.44 49.62 40.44 50.58C40.44 51.06 40.5 51.48 40.62 51.96C40.8 52.44 40.98 52.8 41.1 53.16C42.18 55.14 44.04 57.72 46.68 60.84C49.38 63.96 52.26 67.14 55.38 70.32C58.62 73.5 61.74 76.44 64.92 79.14C68.04 81.78 70.62 83.58 72.66 84.66C72.96 84.78 73.32 84.96 73.74 85.14C74.22 85.32 74.7 85.38 75.24 85.38C76.26 85.38 77.04 85.02 77.7 84.36L82.26 79.86C83.76 78.36 85.2 77.22 86.58 76.5C87.96 75.66 89.34 75.24 90.84 75.24C91.98 75.24 93.18 75.48 94.5 76.02C95.82 76.56 97.2 77.34 98.7 78.36L118.56 92.46C120.12 93.54 121.2 94.8 121.86 96.3C122.46 97.8 122.82 99.3 122.82 100.98Z" stroke="white" stroke-opacity="0.2" stroke-width="5" stroke-miterlimit="10"/>
<path d="M110.995 15H82.1953M110.995 15V43.8V15Z" stroke="white" stroke-opacity="0.2" stroke-width="5" stroke-linecap="round" stroke-linejoin="round"/>
</svg>
