<svg width="20" height="20" viewBox="0 0 20 20" fill="none" xmlns="http://www.w3.org/2000/svg">
<path opacity="0.4" d="M20 6V14.19C20 17.83 17.83 20 14.19 20H5.81C2.17 20 0 17.83 0 14.19V6.01L20 6Z" fill="#5ECC62"/>
<path d="M7.00094 15.7499C6.89094 15.7499 6.77094 15.7199 6.67094 15.6699C5.90094 15.2799 5.24094 14.6999 4.76094 13.9799C4.36094 13.3799 4.36094 12.6099 4.76094 12.0099C5.24094 11.2899 5.90094 10.7099 6.67094 10.3299C7.04094 10.1399 7.49094 10.2999 7.68094 10.6699C7.87094 11.0399 7.72094 11.4899 7.34094 11.6799C6.80094 11.9499 6.34094 12.3599 6.01094 12.8599C5.95094 12.9499 5.95094 13.0699 6.01094 13.1699C6.34094 13.6699 6.80094 14.0799 7.34094 14.3499C7.71094 14.5399 7.86094 14.9899 7.68094 15.3599C7.54094 15.5999 7.27094 15.7499 7.00094 15.7499Z" fill="#5ECC62"/>
<path d="M13.2092 15.7499C12.9292 15.7499 12.6692 15.5999 12.5392 15.3399C12.3492 14.9699 12.4992 14.5199 12.8792 14.3299C13.4192 14.0599 13.8792 13.6499 14.2092 13.1499C14.2692 13.0599 14.2692 12.9399 14.2092 12.8399C13.8792 12.3399 13.4192 11.9299 12.8792 11.6599C12.5092 11.4699 12.3592 11.0199 12.5392 10.6499C12.7292 10.2799 13.1792 10.1299 13.5492 10.3099C14.3192 10.6999 14.9792 11.2799 15.4592 11.9999C15.8592 12.5999 15.8592 13.3699 15.4592 13.9699C14.9792 14.6899 14.3192 15.2699 13.5492 15.6499C13.4292 15.7199 13.3192 15.7499 13.2092 15.7499Z" fill="#5ECC62"/>
<path d="M20 5.81V6L0 6.01V5.81C0 2.17 2.17 0 5.81 0H14.19C17.83 0 20 2.17 20 5.81Z" fill="#5ECC62"/>
</svg>
