<svg width="20" height="20" viewBox="0 0 20 20" fill="none" xmlns="http://www.w3.org/2000/svg">
<path opacity="0.4" d="M20 14.5V17.5C20 19 19 20 17.5 20H4C4.41 20 4.83 19.94 5.22 19.81C5.33 19.77 5.43999 19.73 5.54999 19.68C5.89999 19.54 6.24001 19.34 6.54001 19.08C6.63001 19.01 6.73001 18.92 6.82001 18.83L6.85999 18.79L13.66 12H17.5C19 12 20 13 20 14.5Z" fill="#5ECC62"/>
<path opacity="0.6" d="M16.3694 9.28996L13.6594 12L6.85938 18.79C7.55937 18.07 7.99939 17.08 7.99939 16V6.33996L10.7094 3.62996C11.7694 2.56996 13.1894 2.56996 14.2494 3.62996L16.3694 5.74996C17.4294 6.80996 17.4294 8.22996 16.3694 9.28996Z" fill="#5ECC62"/>
<path d="M5.5 0H2.5C1 0 0 1 0 2.5V16C0 16.27 0.0299866 16.54 0.0799866 16.8C0.109987 16.93 0.139993 17.06 0.179993 17.19C0.229993 17.34 0.279996 17.49 0.339996 17.63C0.349996 17.64 0.350006 17.65 0.350006 17.65C0.360006 17.65 0.360006 17.65 0.350006 17.66C0.490006 17.94 0.649996 18.21 0.839996 18.46C0.949996 18.59 1.06001 18.71 1.17001 18.83C1.28001 18.95 1.4 19.05 1.53 19.15L1.54001 19.16C1.79001 19.35 2.06 19.51 2.34 19.65C2.35 19.64 2.35001 19.64 2.35001 19.65C2.50001 19.72 2.65 19.77 2.81 19.82C2.94 19.86 3.07001 19.89 3.20001 19.92C3.46001 19.97 3.73 20 4 20C4.41 20 4.83 19.94 5.22 19.81C5.33 19.77 5.43999 19.73 5.54999 19.68C5.89999 19.54 6.24001 19.34 6.54001 19.08C6.63001 19.01 6.73001 18.92 6.82001 18.83L6.85999 18.79C7.55999 18.07 8 17.08 8 16V2.5C8 1 7 0 5.5 0ZM4 17.5C3.17 17.5 2.5 16.83 2.5 16C2.5 15.17 3.17 14.5 4 14.5C4.83 14.5 5.5 15.17 5.5 16C5.5 16.83 4.83 17.5 4 17.5Z" fill="#5ECC62"/>
</svg>
