<svg width="19" height="20" viewBox="0 0 19 20" fill="none" xmlns="http://www.w3.org/2000/svg">
<path opacity="0.4" d="M18 8.19H15.11C12.74 8.19 10.81 6.26 10.81 3.89V1C10.81 0.45 10.36 0 9.81 0H5.57C2.49 0 0 2 0 5.57V14.43C0 18 2.49 20 5.57 20H13.43C16.51 20 19 18 19 14.43V9.19C19 8.64 18.55 8.19 18 8.19Z" fill="#5ECC62"/>
<path d="M13.2997 0.209993C12.8897 -0.200007 12.1797 0.0799931 12.1797 0.649993V4.13999C12.1797 5.59999 13.4197 6.80999 14.9297 6.80999C15.8797 6.81999 17.1997 6.81999 18.3297 6.81999C18.8997 6.81999 19.1997 6.14999 18.7997 5.74999C17.3597 4.29999 14.7797 1.68999 13.2997 0.209993Z" fill="#5ECC62"/>
<path d="M10.0516 11.9999L9.20158 10.7199C8.99158 10.3899 8.55158 10.1599 8.16158 10.1599H6.14158C5.75158 10.1599 5.32158 10.3899 5.10158 10.7199L4.25158 11.9999C3.92158 12.4799 3.99158 13.1699 4.40158 13.5799L6.26158 15.4399C6.50158 15.6699 6.82158 15.7999 7.15158 15.7999C7.48158 15.7999 7.80158 15.6699 8.04158 15.4399L9.90158 13.5799C10.3016 13.1699 10.3616 12.4799 10.0516 11.9999Z" fill="#5ECC62"/>
</svg>
