<svg width="37" height="20" viewBox="0 0 37 20" fill="none" xmlns="http://www.w3.org/2000/svg">
<g clip-path="url(#clip0_2909_2806)">
<path d="M9.3923 13.2857L5.53516 9.42861L6.67801 8.28575L9.3923 11L13.0352 7.35718L14.178 8.50003L9.3923 13.2857Z" fill="#111111"/>
<path d="M19.3929 13.5C19.6786 12.7143 19.8929 11.8571 19.9643 10.9643L36.6071 9H19.9643C19.8571 7.89286 19.5714 6.85714 19.1429 5.89286L30.8214 4.5L18.1071 4.10714C17.4643 3.25 16.7143 2.5 15.8571 1.89286L31.6071 0H10C4.5 0 0 4.5 0 10C0 15.5 4.5 20 10 20C13.5 20 16.5714 18.2143 18.3571 15.5L35.1429 13.5H19.3929ZM10 17.6071C5.82143 17.6071 2.39286 14.1786 2.39286 10C2.39286 5.82143 5.82143 2.39286 10 2.39286C14.1786 2.39286 17.6071 5.78571 17.6071 10C17.6071 14.1786 14.1786 17.6071 10 17.6071Z" fill="#5ECC62"/>
</g>
<defs>
<clipPath id="clip0_2909_2806">
<rect width="36.6071" height="20" fill="white"/>
</clipPath>
</defs>
</svg>
