<svg width="18" height="20" viewBox="0 0 18 20" fill="none" xmlns="http://www.w3.org/2000/svg">
<g clip-path="url(#clip0_2909_2810)">
<path d="M8.92359 20L8.55436 19.8769C-0.984099 16.4923 0.0312855 4.55385 0.0312855 4.43077L0.154362 3.04615L1.47744 3.50769C1.60052 3.53846 4.80052 4.58462 8.12359 0.861538L8.92359 0L9.72359 0.892308C13.0467 4.58462 16.2467 3.56923 16.3697 3.53846L17.6621 3.10769L17.7851 4.46154C17.7851 4.58462 18.8005 16.5231 9.26205 19.8769L8.92359 20ZM2.15436 5.81538C2.15436 6.86154 2.27744 8.52308 2.73898 10.3077C3.72359 14 5.8159 16.4923 8.92359 17.6923C14.9544 15.3231 15.6621 8.55385 15.6928 5.81538C14.1544 5.93846 11.5697 5.63077 8.92359 3.13846C6.27744 5.63077 3.69282 5.93846 2.15436 5.81538Z" fill="#5ECC62"/>
<path d="M8.18624 13.6308L5.35547 10.8924L6.67855 9.56928L8.18624 11.0154L12.3709 6.80005L13.6939 8.12313L8.18624 13.6308Z" fill="#111111"/>
</g>
<defs>
<clipPath id="clip0_2909_2810">
<rect width="17.8462" height="20" fill="white"/>
</clipPath>
</defs>
</svg>
