<svg width="1450" height="574" viewBox="0 0 1450 574" fill="none" xmlns="http://www.w3.org/2000/svg">
<g opacity="0.3" clip-path="url(#clip0_866_19)">
<path d="M724.856 411.262C437.165 411.262 184.091 277.322 37.832 74.6912C131.778 364.278 403.86 573.657 724.856 573.657C1045.85 573.657 1317.93 364.278 1411.88 74.6912C1265.61 277.322 1012.55 411.262 724.856 411.262Z" fill="url(#paint0_linear_866_19)"/>
<path d="M5.18408 168.878C4.51591 168.878 3.84775 168.751 3.20262 168.475C0.564522 167.381 -0.691169 164.34 0.40324 161.703L66.2636 3.20044C67.358 0.563335 70.3878 -0.691882 73.0375 0.402115C75.6756 1.49611 76.9312 4.53627 75.8368 7.17338L9.97644 165.676C9.14699 167.68 7.21162 168.878 5.18408 168.878Z" fill="#F7578C"/>
<path d="M1444.82 168.878C1442.79 168.878 1440.85 167.681 1440.02 165.689L1374.16 7.17422C1373.07 4.53711 1374.31 1.49695 1376.96 0.402955C1379.61 -0.691042 1382.64 0.55266 1383.74 3.20128L1449.61 161.716C1450.7 164.353 1449.46 167.393 1446.81 168.487C1446.15 168.752 1445.48 168.878 1444.82 168.878Z" fill="#39D393"/>
</g>
<defs>
<linearGradient id="paint0_linear_866_19" x1="37.8232" y1="324.166" x2="1411.88" y2="324.166" gradientUnits="userSpaceOnUse">
<stop stop-color="#F7578C"/>
<stop offset="0.33" stop-color="#00AAFF"/>
<stop offset="0.66" stop-color="#2BD9D9"/>
<stop offset="1" stop-color="#39D393"/>
</linearGradient>
<clipPath id="clip0_866_19">
<rect width="1450" height="573.646" fill="white"/>
</clipPath>
</defs>
</svg>
