<svg width="370" height="159" viewBox="0 0 370 159" fill="none" xmlns="http://www.w3.org/2000/svg">
<path d="M0 20C0 8.95431 8.9543 0 20 0H350C361.046 0 370 8.95431 370 20V159H0V20Z" fill="#71C0CB"/>
<path d="M58.2463 52.8363C59.6767 52.8363 60.8363 51.6767 60.8363 50.2463C60.8363 48.8158 59.6767 47.6562 58.2463 47.6562C56.8158 47.6562 55.6562 48.8158 55.6562 50.2463C55.6562 51.6767 56.8158 52.8363 58.2463 52.8363Z" stroke="#A6D9E0" stroke-width="1.5" stroke-miterlimit="10" stroke-linecap="round" stroke-linejoin="round"/>
<path d="M33.7969 108.359V114.459" stroke="#5B9CA7" stroke-width="1.5" stroke-miterlimit="10" stroke-linecap="round" stroke-linejoin="round"/>
<path d="M36.85 111.406H30.75" stroke="#5B9CA7" stroke-width="1.5" stroke-miterlimit="10" stroke-linecap="round" stroke-linejoin="round"/>
<path d="M72.7016 68.9766H36.8516V90.1266H72.7016V68.9766Z" fill="#B2DCE3"/>
<path d="M72.6916 90.1263L54.7716 76.4062L36.8516 90.1263H72.6916Z" fill="#9ECCD1"/>
<path d="M36.8516 68.9766L53.0516 81.3766C54.0716 82.1566 55.4816 82.1566 56.4916 81.3766L72.6916 68.9766H36.8516Z" fill="#C7EFFA"/>
<path d="M141.099 71.91C141.099 71.04 141.799 70.34 142.669 70.34H144.099C145.299 70.34 146.269 69.37 146.269 68.17C146.269 66.97 145.299 66 144.099 66H133.589C132.739 66 132.059 65.31 132.059 64.47C132.059 63.62 132.749 62.94 133.589 62.94H138.359C139.559 62.94 140.529 61.97 140.529 60.77C140.529 59.57 139.559 58.6 138.359 58.6H137.619C136.439 58.6 135.489 57.65 135.489 56.47C135.489 55.29 136.439 54.34 137.619 54.34H146.729C147.929 54.34 148.899 53.37 148.899 52.17C148.899 50.97 147.929 50 146.729 50H124.249C123.049 50 122.079 50.97 122.079 52.17C122.079 53.37 123.049 54.34 124.249 54.34H124.599C125.779 54.34 126.729 55.29 126.729 56.47C126.729 57.65 125.779 58.6 124.599 58.6H114.639C113.439 58.6 112.469 59.57 112.469 60.77C112.469 61.97 113.439 62.94 114.639 62.94H122.099C122.949 62.94 123.629 63.63 123.629 64.47C123.629 65.32 122.939 66 122.099 66H119.139C117.939 66 116.969 66.97 116.969 68.17C116.969 69.37 117.939 70.34 119.139 70.34H127.749C128.619 70.34 129.319 71.04 129.319 71.91C129.319 72.78 128.619 73.48 127.749 73.48H121.619C120.419 73.48 119.449 74.45 119.449 75.65C119.449 76.85 120.419 77.82 121.619 77.82H152.929C154.129 77.82 155.099 76.85 155.099 75.65C155.099 74.45 154.129 73.48 152.929 73.48H142.669C141.799 73.48 141.099 72.78 141.099 71.91Z" fill="#62A8BC"/>
<path d="M79.1484 73.1328H95.4684" stroke="#A6D9E0" stroke-width="1.5" stroke-miterlimit="10" stroke-linecap="round" stroke-linejoin="round"/>
<path d="M103.532 73.1328H100.852" stroke="#A6D9E0" stroke-width="1.5" stroke-miterlimit="10" stroke-linecap="round" stroke-linejoin="round"/>
<path d="M79.1484 79.5625H98.8284" stroke="#A6D9E0" stroke-width="1.5" stroke-miterlimit="10" stroke-linecap="round" stroke-linejoin="round"/>
<path d="M108.555 79.5625H105.305" stroke="#A6D9E0" stroke-width="1.5" stroke-miterlimit="10" stroke-linecap="round" stroke-linejoin="round"/>
<path d="M79.1484 85.9844H95.4684" stroke="#A6D9E0" stroke-width="1.5" stroke-miterlimit="10" stroke-linecap="round" stroke-linejoin="round"/>
<path d="M103.532 85.9844H100.852" stroke="#A6D9E0" stroke-width="1.5" stroke-miterlimit="10" stroke-linecap="round" stroke-linejoin="round"/>
<path d="M147.569 116.373C147.569 115.903 147.189 115.523 146.719 115.523H138.289V117.043V117.213V118.513V118.733V120.033V120.213V121.513V121.723V123.203H142.849C143.319 123.203 143.699 122.823 143.699 122.353C143.699 121.883 143.319 121.503 142.849 121.503H141.629C141.269 121.503 140.979 121.213 140.979 120.853C140.979 120.493 141.269 120.203 141.629 120.203H144.859C145.329 120.203 145.709 119.823 145.709 119.353C145.709 118.883 145.329 118.503 144.859 118.503H143.869C143.509 118.503 143.219 118.213 143.219 117.853C143.219 117.493 143.509 117.203 143.869 117.203H146.719C147.189 117.223 147.569 116.843 147.569 116.373Z" fill="#FDFFFF"/>
<path d="M102.961 116.373C102.961 115.903 103.341 115.523 103.811 115.523H112.241V117.043V117.213V118.513V118.733V120.033V120.213V121.513V121.723V123.203H107.681C107.211 123.203 106.831 122.823 106.831 122.353C106.831 121.883 107.211 121.503 107.681 121.503H108.901C109.261 121.503 109.551 121.213 109.551 120.853C109.551 120.493 109.261 120.203 108.901 120.203H105.671C105.201 120.203 104.821 119.823 104.821 119.353C104.821 118.883 105.201 118.503 105.671 118.503H106.661C107.021 118.503 107.311 118.213 107.311 117.853C107.311 117.493 107.021 117.203 106.661 117.203H103.811C103.341 117.223 102.961 116.843 102.961 116.373Z" fill="#FDFFFF"/>
<path d="M139.124 113.492H111.414V129.842H139.124V113.492Z" fill="#B2DCE3"/>
<path d="M139.124 129.834L125.274 119.234L111.414 129.834H139.124Z" fill="#9ECCD1"/>
<path d="M111.414 113.492L123.934 123.072C124.724 123.672 125.814 123.672 126.594 123.072L139.114 113.492H111.414Z" fill="#C7EFFA"/>
<path d="M111.842 31.2794C111.842 30.9094 111.542 30.6094 111.172 30.6094H104.492V31.8194V31.9594V32.9894V33.1594V34.1894V34.3294V35.3594V35.5294V36.6994H108.102C108.472 36.6994 108.772 36.3994 108.772 36.0294C108.772 35.6594 108.472 35.3594 108.102 35.3594H107.132C106.842 35.3594 106.612 35.1294 106.612 34.8394C106.612 34.5494 106.842 34.3194 107.132 34.3194H109.692C110.062 34.3194 110.362 34.0194 110.362 33.6494C110.362 33.2794 110.062 32.9794 109.692 32.9794H108.912C108.622 32.9794 108.392 32.7494 108.392 32.4594C108.392 32.1694 108.622 31.9394 108.912 31.9394H111.172C111.542 31.9494 111.842 31.6494 111.842 31.2794Z" fill="#FDFFFF"/>
<path d="M76.5156 31.2794C76.5156 30.9094 76.8156 30.6094 77.1856 30.6094H83.8656V31.8194V31.9594V32.9894V33.1594V34.1894V34.3294V35.3594V35.5294V36.6994H80.2556C79.8856 36.6994 79.5856 36.3994 79.5856 36.0294C79.5856 35.6594 79.8856 35.3594 80.2556 35.3594H81.2256C81.5156 35.3594 81.7456 35.1294 81.7456 34.8394C81.7456 34.5494 81.5156 34.3194 81.2256 34.3194H78.6656C78.2956 34.3294 77.9956 34.0294 77.9956 33.6594C77.9956 33.2894 78.2956 32.9894 78.6656 32.9894H79.4456C79.7356 32.9894 79.9656 32.7594 79.9656 32.4694C79.9656 32.1794 79.7356 31.9494 79.4456 31.9494H77.1856C76.8156 31.9494 76.5156 31.6494 76.5156 31.2794Z" fill="#FDFFFF"/>
<path d="M105.143 29H83.2031V41.95H105.143V29Z" fill="#B2DCE3"/>
<path d="M105.153 41.9469L94.1831 33.5469L83.2031 41.9469H105.153Z" fill="#9ECCD1"/>
<path d="M83.2031 29L93.1231 36.59C93.7431 37.07 94.6131 37.07 95.2331 36.59L105.153 29H83.2031Z" fill="#C7EFFA"/>
<path d="M220 101.562V101.469C220 100.104 218.876 99 217.486 99H186.928C185.538 99 184.414 100.104 184.414 101.469V101.562C184.414 102.927 185.538 104.031 186.928 104.031H191.319C192.709 104.031 193.833 105.135 193.833 106.5C193.833 107.865 192.709 108.969 191.319 108.969H179.514C178.124 108.969 177 110.073 177 111.438V111.531C177 112.896 178.124 114 179.514 114H208.29C209.68 114 210.804 112.896 210.804 111.531V111.438C210.804 110.073 209.68 108.969 208.29 108.969H206.678C205.288 108.969 204.164 107.865 204.164 106.5C204.164 105.135 205.288 104.031 206.678 104.031H217.476C218.876 104.031 220 102.927 220 101.562Z" fill="#62A8BC"/>
<g clip-path="url(#clip0_607_10981)">
<path d="M271.073 41.0004L213.66 61.5661L217.269 78.8014L271.073 41.0004Z" fill="url(#paint0_linear_607_10981)"/>
<path d="M271.073 41.0004L213.66 61.5661L217.269 78.8014L271.073 41.0004Z" fill="url(#paint1_linear_607_10981)"/>
<path d="M271.07 41.0029L213.657 61.5686L204.454 61.3331L199.516 55.8188L271.07 41.0029Z" fill="url(#paint2_linear_607_10981)"/>
<path d="M271.067 41.006L223.508 68.6022L217.263 78.8069L271.067 41.006Z" fill="url(#paint3_linear_607_10981)"/>
<path d="M271.067 41.006L223.508 68.6022L217.263 78.8069L271.067 41.006Z" fill="url(#paint4_linear_607_10981)"/>
<path d="M271.073 41.0031L223.514 68.5994L229.719 76.879L237.946 80.7801L271.073 41.0031Z" fill="url(#paint5_linear_607_10981)"/>
<path d="M237.944 80.7815L229.716 76.8803L223.511 68.6007L217.266 78.8054L213.657 61.5702L204.454 61.3346L199.516 55.8203L204.666 61.1987L213.822 61.5182L217.388 78.1094L223.511 68.6007L229.776 76.5554L237.944 80.7815Z" fill="white"/>
</g>
<defs>
<linearGradient id="paint0_linear_607_10981" x1="246.66" y1="74.5851" x2="241.273" y2="45.3261" gradientUnits="userSpaceOnUse">
<stop stop-color="#D4D1D8"/>
<stop offset="1" stop-color="white"/>
</linearGradient>
<linearGradient id="paint1_linear_607_10981" x1="243.245" y1="57.2185" x2="241.271" y2="51.4818" gradientUnits="userSpaceOnUse">
<stop stop-color="white"/>
<stop offset="1" stop-color="#E6E7E8"/>
</linearGradient>
<linearGradient id="paint2_linear_607_10981" x1="191.667" y1="17.5891" x2="234.817" y2="49.2244" gradientUnits="userSpaceOnUse">
<stop stop-color="#D4D1D8"/>
<stop offset="1" stop-color="white"/>
</linearGradient>
<linearGradient id="paint3_linear_607_10981" x1="220.451" y1="60.9165" x2="244.221" y2="59.9212" gradientUnits="userSpaceOnUse">
<stop stop-color="#D4D1D8"/>
<stop offset="1" stop-color="white"/>
</linearGradient>
<linearGradient id="paint4_linear_607_10981" x1="240.859" y1="82.8336" x2="242.685" y2="70.0165" gradientUnits="userSpaceOnUse">
<stop stop-color="white"/>
<stop offset="1" stop-color="#DEDFE0"/>
</linearGradient>
<linearGradient id="paint5_linear_607_10981" x1="278.154" y1="80.8825" x2="244.617" y2="54.2091" gradientUnits="userSpaceOnUse">
<stop stop-color="#D4D1D8"/>
<stop offset="1" stop-color="white"/>
</linearGradient>
<clipPath id="clip0_607_10981">
<rect width="73" height="34" fill="white" transform="translate(199 52.6172) rotate(-9.15466)"/>
</clipPath>
</defs>
</svg>
