<svg width="370" height="159" viewBox="0 0 370 159" fill="none" xmlns="http://www.w3.org/2000/svg">
<path d="M0 20C0 8.95431 8.9543 0 20 0H350C361.046 0 370 8.95431 370 20V159H0V20Z" fill="#598BCA"/>
<path d="M115.923 82.7643V80.271V75.9078V68.261V63.1076V55.4609H105.142H89.8307C87.8379 55.4609 86.0469 56.9183 85.8625 58.9112C85.6431 61.1938 87.434 63.1076 89.6639 63.1076H102.464C103.711 63.1076 104.852 63.9504 105.089 65.1708C105.405 66.8213 104.15 68.261 102.561 68.261H96.38C94.3872 68.261 92.5962 69.7184 92.4118 71.7113C92.1924 73.9939 93.9833 75.9078 96.2132 75.9078H102.833C103.974 75.9078 105.01 76.7242 105.124 77.8655C105.256 79.1736 104.237 80.271 102.956 80.271H96.38C94.3872 80.271 92.5962 81.7284 92.4118 83.7213C92.1924 86.0039 93.9833 87.9177 96.2132 87.9177H105.133H107.319C108.715 87.9177 109.847 89.0503 109.847 90.4462C109.847 91.842 108.715 92.9746 107.319 92.9746H84.2208C82.2279 92.9746 80.437 94.4319 80.2526 96.4248C80.0331 98.7074 81.8241 100.621 84.054 100.621H124.517C125.738 100.621 126.862 101.447 127.09 102.649C127.397 104.265 126.168 105.669 124.614 105.669H109.127C107.135 105.669 105.344 107.127 105.159 109.12C104.94 111.402 106.731 113.316 108.961 113.316H139.468V109.488V105.661V100.612V92.9658V82.7643H115.923Z" fill="#4976BA"/>
<path d="M145.788 88.3281H139.555V127.009H145.788V88.3281Z" fill="#375895"/>
<path d="M142.671 127.001V100.689C142.671 99.5919 143.558 98.7052 144.655 98.7052H145.788V88.3281H139.555V127.009H142.671V127.001Z" fill="#2C4773"/>
<path d="M171.522 86.3873V46.8281H126.598C116.309 46.8281 107.969 55.1684 107.969 65.4576V84.1223C107.969 84.9563 108.223 85.7289 108.636 86.3873H171.522Z" fill="#CDDFFA"/>
<path d="M108.434 61.3594C108.136 62.6763 107.969 64.0458 107.969 65.4593V84.1239C107.969 86.4416 109.848 88.3204 112.165 88.3204H171.522V61.3594H108.434Z" fill="#B9D1EF"/>
<path d="M171.522 86.2748V77.8906H107.969V84.1239C107.969 84.914 108.197 85.6427 108.575 86.266H171.522V86.2748Z" fill="#A7C2DF"/>
<path d="M190.15 86.2547H152.891V64.1486C152.891 54.588 160.643 46.8359 170.203 46.8359H172.828C182.389 46.8359 190.141 54.588 190.141 64.1486V86.2547H190.15Z" fill="#2C4773"/>
<path d="M190.151 84.9688H89.9453C90.3316 86.8826 92.026 88.3312 94.0628 88.3312H190.151V84.9688V84.9688Z" fill="#456FA6"/>
<path d="M82.5004 88.532C83.7562 88.532 84.7742 87.514 84.7742 86.2582C84.7742 85.0024 83.7562 83.9844 82.5004 83.9844C81.2446 83.9844 80.2266 85.0024 80.2266 86.2582C80.2266 87.514 81.2446 88.532 82.5004 88.532Z" stroke="#CDDFFA" stroke-width="1.5" stroke-miterlimit="10" stroke-linecap="round" stroke-linejoin="round"/>
<path d="M113.734 36.0156V41.371" stroke="#2C4773" stroke-width="1.5" stroke-miterlimit="10" stroke-linecap="round" stroke-linejoin="round"/>
<path d="M116.409 38.6953H111.062" stroke="#2C4773" stroke-width="1.5" stroke-miterlimit="10" stroke-linecap="round" stroke-linejoin="round"/>
<path d="M171.523 95.9922V101.348" stroke="#456FA6" stroke-width="1.5" stroke-miterlimit="10" stroke-linecap="round" stroke-linejoin="round"/>
<path d="M174.199 98.6719H168.844" stroke="#456FA6" stroke-width="1.5" stroke-miterlimit="10" stroke-linecap="round" stroke-linejoin="round"/>
<path d="M148.742 56.9721H122.721C121.693 56.9721 120.859 56.1381 120.859 55.1109V54.8299C120.859 53.8028 121.693 52.9688 122.721 52.9688H148.742C149.769 52.9688 150.603 53.8028 150.603 54.8299V55.1109C150.612 56.1381 149.778 56.9721 148.742 56.9721Z" fill="#EDF4FF"/>
<path d="M140.915 66.2656C138.518 66.2656 136.578 68.2058 136.578 70.6026C136.578 72.9993 138.518 74.9395 140.915 74.9395C143.312 74.9395 145.252 72.9993 145.252 70.6026C145.252 68.2146 143.312 66.2656 140.915 66.2656Z" fill="#456FA6"/>
<path d="M140.917 70.611C140.39 70.611 139.969 70.1896 139.969 69.6629V32.9482C139.969 32.4214 140.39 32 140.917 32C141.444 32 141.865 32.4214 141.865 32.9482V69.6541C141.865 70.1809 141.444 70.611 140.917 70.611Z" fill="#375895"/>
<path d="M130.239 41.3643H139.957V34.4375H130.239C129.554 34.4375 128.992 34.9906 128.992 35.6841V40.1264C129.001 40.8112 129.554 41.3643 130.239 41.3643Z" fill="#CDDFFA"/>
<path d="M70.4972 80.8003V80.7213C70.4972 79.5712 69.5666 78.6406 68.4166 78.6406H43.1236C41.9735 78.6406 41.0429 79.5712 41.0429 80.7213V80.8003C41.0429 81.9504 41.9735 82.881 43.1236 82.881H46.7582C47.9083 82.881 48.8389 83.8116 48.8389 84.9617C48.8389 86.1117 47.9083 87.0423 46.7582 87.0423H36.9869C35.8368 87.0423 34.9062 87.9729 34.9062 89.123V89.202C34.9062 90.3521 35.8368 91.2827 36.9869 91.2827H60.805C61.955 91.2827 62.8856 90.3521 62.8856 89.202V89.123C62.8856 87.9729 61.955 87.0423 60.805 87.0423H59.4705C58.3204 87.0423 57.3898 86.1117 57.3898 84.9617C57.3898 83.8116 58.3204 82.881 59.4705 82.881H68.4078C69.5666 82.881 70.4972 81.9504 70.4972 80.8003Z" fill="#4976BA"/>
<path d="M75.7589 41.4004C75.7589 40.9175 75.3726 40.5312 74.8897 40.5312H66.2422V42.094V42.2695V43.604V43.8322V45.1667V45.351V46.6855V46.905V48.4238H70.9127C71.3956 48.4238 71.7819 48.0375 71.7819 47.5546C71.7819 47.0718 71.3956 46.6855 70.9127 46.6855H69.6573C69.2886 46.6855 68.9901 46.387 68.9901 46.0183C68.9901 45.6495 69.2886 45.351 69.6573 45.351H72.9671C73.4499 45.351 73.8362 44.9648 73.8362 44.4819C73.8362 43.999 73.4499 43.6128 72.9671 43.6128H71.9575C71.5887 43.6128 71.2902 43.3143 71.2902 42.9455C71.2902 42.5768 71.5887 42.2783 71.9575 42.2783H74.8809C75.3726 42.2695 75.7589 41.8833 75.7589 41.4004Z" fill="#FDFFFF"/>
<path d="M30 41.4004C30 40.9175 30.3863 40.5312 30.8691 40.5312H39.5167V42.094V42.2695V43.604V43.8322V45.1667V45.351V46.6855V46.905V48.4238H34.8461C34.3633 48.4238 33.977 48.0375 33.977 47.5546C33.977 47.0718 34.3633 46.6855 34.8461 46.6855H36.1016C36.4703 46.6855 36.7688 46.387 36.7688 46.0183C36.7688 45.6495 36.4703 45.351 36.1016 45.351H32.783C32.3002 45.351 31.9139 44.9648 31.9139 44.4819C31.9139 43.999 32.3002 43.6128 32.783 43.6128H33.7926C34.1614 43.6128 34.4598 43.3143 34.4598 42.9455C34.4598 42.5768 34.1614 42.2783 33.7926 42.2783H30.8691C30.3863 42.2695 30 41.8833 30 41.4004Z" fill="#FDFFFF"/>
<path d="M67.0824 38.4453H38.6641V55.2136H67.0824V38.4453Z" fill="#B6CBE2"/>
<path d="M67.0912 55.2124L52.8776 44.3438L38.6641 55.2124H67.0912Z" fill="#9FB8D0"/>
<path d="M38.6641 38.4453L51.5081 48.278C52.3158 48.8926 53.4307 48.8926 54.2384 48.278L67.0824 38.4453H38.6641Z" fill="#CDDFFA"/>
<path d="M246.748 56.1142C246.748 55.7686 246.472 55.4922 246.126 55.4922H239.938V56.6105V56.7362V57.6911V57.8545V58.8095V58.9414V59.8964V60.0534V61.1404H243.28C243.625 61.1404 243.902 60.8639 243.902 60.5184C243.902 60.1728 243.625 59.8964 243.28 59.8964H242.381C242.118 59.8964 241.904 59.6828 241.904 59.4189C241.904 59.155 242.118 58.9414 242.381 58.9414H244.75C245.096 58.9414 245.372 58.665 245.372 58.3194C245.372 57.9739 245.096 57.6974 244.75 57.6974H244.028C243.764 57.6974 243.55 57.4838 243.55 57.2199C243.55 56.9561 243.764 56.7424 244.028 56.7424H246.12C246.472 56.7362 246.748 56.4597 246.748 56.1142Z" fill="#FDFFFF"/>
<path d="M214 56.1142C214 55.7686 214.276 55.4922 214.622 55.4922H220.81V56.6105V56.7362V57.6911V57.8545V58.8095V58.9414V59.8964V60.0534V61.1404H217.468C217.123 61.1404 216.846 60.8639 216.846 60.5184C216.846 60.1728 217.123 59.8964 217.468 59.8964H218.366C218.63 59.8964 218.844 59.6828 218.844 59.4189C218.844 59.155 218.63 58.9414 218.366 58.9414H215.992C215.646 58.9414 215.37 58.665 215.37 58.3194C215.37 57.9739 215.646 57.6974 215.992 57.6974H216.714C216.978 57.6974 217.192 57.4838 217.192 57.2199C217.192 56.9561 216.978 56.7424 216.714 56.7424H214.622C214.276 56.7362 214 56.4597 214 56.1142Z" fill="#FDFFFF"/>
<path d="M240.54 54H220.203V66H240.54V54Z" fill="#B6CBE2"/>
<path d="M240.547 65.9968L230.375 58.2188L220.203 65.9968H240.547Z" fill="#9FB8D0"/>
<path d="M220.203 54L229.395 61.0366C229.973 61.4764 230.771 61.4764 231.349 61.0366L240.54 54H220.203Z" fill="#CDDFFA"/>
<path d="M177.943 64.5391H165.09C163.888 64.5391 162.922 65.5136 162.922 66.7075C162.922 67.9103 163.896 68.876 165.09 68.876H177.943C179.146 68.876 180.112 67.9015 180.112 66.7075C180.112 65.5136 179.137 64.5391 177.943 64.5391Z" fill="#476796"/>
<path d="M165.09 64.5391C163.888 64.5391 162.922 65.5136 162.922 66.7075C162.922 67.9103 163.896 68.876 165.09 68.876C166.293 68.876 167.259 67.9015 167.259 66.7075C167.259 65.5136 166.293 64.5391 165.09 64.5391Z" fill="#A7C2DF"/>
<path d="M181.589 81.3818H161.449C160.097 81.3818 159 80.2844 159 78.9324V78.59C159 77.238 160.097 76.1406 161.449 76.1406H181.589C182.941 76.1406 184.038 77.238 184.038 78.59V78.9324C184.038 80.2844 182.941 81.3818 181.589 81.3818Z" fill="#476796"/>
<path d="M184.039 78.1257H158.992C158.992 77.0283 159.879 76.1328 160.985 76.1328H182.055C183.153 76.1416 184.039 77.0283 184.039 78.1257Z" fill="#A7C2DF"/>
<path d="M232 106.246V106.127C232 104.399 230.64 103 228.96 103H192.006C190.326 103 188.966 104.399 188.966 106.127V106.246C188.966 107.974 190.326 109.373 192.006 109.373H197.316C198.997 109.373 200.356 110.772 200.356 112.5C200.356 114.228 198.997 115.627 197.316 115.627H183.04C181.36 115.627 180 117.026 180 118.754V118.873C180 120.601 181.36 122 183.04 122H217.839C219.519 122 220.879 120.601 220.879 118.873V118.754C220.879 117.026 219.519 115.627 217.839 115.627H215.889C214.209 115.627 212.85 114.228 212.85 112.5C212.85 110.772 214.209 109.373 215.889 109.373H228.947C230.64 109.373 232 107.974 232 106.246Z" fill="#4976BA"/>
</svg>
