<svg width="15" height="14" viewBox="0 0 15 14" fill="none" xmlns="http://www.w3.org/2000/svg">
<path d="M10.9547 3.12902L10.455 3.62307L9.74719 4.28181H11.8291V5.10524H8.53968V4.65235L9.66392 3.2937L10.1636 2.75847L10.5383 2.30559C10.6216 2.18208 11.038 1.77036 10.9963 1.23514C10.8714 0.823425 10.4134 0.535226 9.95538 0.65874C9.62228 0.65874 9.24753 1.11162 9.2059 1.44099C8.95607 1.39982 8.74788 1.35865 8.49805 1.31748C8.62296 0.823425 8.91443 0.411713 9.33081 0.164685C9.58064 0.0411713 9.83047 0 10.0803 0C10.2885 0 10.4967 0.0411713 10.7049 0.0823426C10.8714 0.123514 11.038 0.247028 11.2045 0.32937C11.3294 0.452884 11.5793 0.576398 11.6209 0.782254C11.7458 0.98811 11.7875 1.23514 11.8291 1.48217C11.8707 2.01739 11.4127 2.51145 11.3294 2.63496C11.2462 2.84082 11.1213 2.96433 10.9547 3.12902Z" fill="#FF492C"/>
<path d="M7.16544 13.9985C3.29309 14.0808 0.0869446 11.0342 0.00366816 7.20524C-0.121246 3.37631 2.95998 0.206122 6.83233 0.123779C6.95725 0.123779 7.04053 0.123779 7.16544 0.123779V2.59406C4.66715 2.59406 2.62688 4.61145 2.62688 7.08172C2.62688 9.552 4.66715 11.5694 7.16544 11.5694C9.12244 11.5694 10.8296 10.3343 11.4542 8.52272C10.2467 8.52272 8.49786 8.52272 8.49786 8.52272V5.92893H14.0774C14.702 9.71668 12.1204 13.2574 8.28967 13.875C7.91493 13.9573 7.54018 13.9985 7.16544 13.9985Z" fill="#FF492C"/>
</svg>
