<svg width="18" height="17" viewBox="0 0 18 17" fill="none" xmlns="http://www.w3.org/2000/svg">
<path d="M13.3034 3.79959L12.6967 4.39953L11.8372 5.19944H14.3652V6.19933H10.3709V5.64939L11.736 3.99957L12.3428 3.34964L12.7978 2.7997C12.899 2.64972 13.4046 2.14977 13.354 1.49984C13.2023 0.999893 12.6461 0.64993 12.09 0.799914C11.6855 0.799914 11.2304 1.34985 11.1799 1.74981C10.8765 1.69982 10.6237 1.64982 10.3203 1.59983C10.472 0.999892 10.8259 0.499946 11.3315 0.199979C11.6349 0.0499947 11.9383 0 12.2417 0C12.4945 0 12.7473 0.0499947 13.0001 0.0999893C13.2023 0.149984 13.4046 0.299968 13.6068 0.399957C13.7585 0.549941 14.0619 0.699925 14.1124 0.949898C14.2641 1.19987 14.3147 1.49984 14.3652 1.79981C14.4158 2.44974 13.8596 3.04967 13.7585 3.19966C13.6574 3.44963 13.5057 3.59961 13.3034 3.79959Z" fill="#FF492C"/>
<path d="M8.70106 16.9983C3.99882 17.0983 0.105578 13.3987 0.00445427 8.74922C-0.147231 4.09972 3.59433 0.250136 8.29656 0.150146C8.44825 0.150146 8.54937 0.150146 8.70106 0.150146V3.14982C5.66736 3.14982 3.18984 5.59956 3.18984 8.59924C3.18984 11.5989 5.66736 14.0487 8.70106 14.0487C11.0775 14.0487 13.1505 12.5488 13.9089 10.3491C12.4426 10.3491 10.319 10.3491 10.319 10.3491V7.19939H17.0943C17.8527 11.7989 14.7179 16.0984 10.0662 16.8484C9.61117 16.9483 9.15611 16.9983 8.70106 16.9983Z" fill="#FF492C"/>
</svg>
