<svg width="140" height="220" viewBox="0 0 140 220" fill="none" xmlns="http://www.w3.org/2000/svg">
<g clip-path="url(#clip0_2501_661)">
<path d="M106.4 46.3257H13.2227V220H106.4V46.3257Z" fill="#A13446"/>
<path d="M128.185 46.3257H106.398V220H128.185V46.3257Z" fill="#992D3F"/>
<path d="M128.185 46.3257H106.398V220H128.185V46.3257Z" fill="#66202D"/>
<path d="M140.001 14.9478H4.4082V46.326H140.001V14.9478Z" fill="#CF465B"/>
<path d="M35.7433 14.9478L4.4082 44.3878V14.9478H35.7433Z" fill="#D6485D"/>
<path d="M89.9427 14.9478L56.5447 46.326H31.4609L64.8434 14.9478H89.9427Z" fill="#D6485D"/>
<path d="M112.041 0V14.9623H0C0 6.69559 7.12659 0 15.9254 0H112.041Z" fill="#FFA3D2"/>
<path d="M124.074 0H106.617C97.818 0 90.6914 6.69559 90.6914 14.9623V46.3258H139.999V14.9623C139.999 6.69559 132.857 0 124.074 0Z" fill="#66202D"/>
<path d="M90.6931 14.9624H4.4082V17.1796H90.6931V14.9624Z" fill="#1E1A36"/>
<path d="M106.4 46.3257V85.3539L13.2227 161.458V74.3268L47.4959 46.3257H106.4Z" fill="#A83649"/>
<path d="M106.399 153.264V220H24.709L106.399 153.264Z" fill="#A83649"/>
<path d="M84.1275 98.9653H37.9453V203.393H84.1275V98.9653Z" fill="#1C1A36"/>
<path d="M82.9087 98.9653H36.7109V203.393H82.9087V98.9653Z" fill="#FFBA74"/>
<path d="M80.1898 148.713C80.1898 151.414 77.8612 153.617 74.9699 153.617C72.0943 153.617 69.75 151.429 69.75 148.713C69.75 146.011 72.0786 143.808 74.9699 143.808C77.8456 143.808 80.1898 146.011 80.1898 148.713Z" fill="white"/>
<path d="M88.974 53.9316H30.6484V85.6623H88.974V53.9316Z" fill="white"/>
<path d="M86.9105 55.6055H32.7109V83.9736H86.9105V55.6055Z" fill="#CF465B"/>
<path d="M76.1568 147.23C76.1568 147.846 75.6254 148.346 74.969 148.346C74.3126 148.346 73.7812 147.846 73.7812 147.23C73.7812 146.613 74.3126 146.114 74.969 146.114C75.6254 146.114 76.1568 146.613 76.1568 147.23Z" fill="#1C1A36"/>
<path d="M75.5473 147.758H74.3752L73.6562 151.312H76.2662L75.5473 147.758Z" fill="#1C1A36"/>
<path d="M82.9088 61.4495H36.711C36.4922 61.4495 36.3203 61.288 36.3203 61.0824C36.3203 60.8768 36.4922 60.7153 36.711 60.7153H82.8932C83.112 60.7153 83.2839 60.8768 83.2839 61.0824C83.2996 61.288 83.112 61.4495 82.9088 61.4495Z" fill="white"/>
<path d="M82.9088 67.1026H36.711C36.4922 67.1026 36.3203 66.9411 36.3203 66.7355C36.3203 66.5299 36.4922 66.3684 36.711 66.3684H82.8932C83.112 66.3684 83.2839 66.5299 83.2839 66.7355C83.2996 66.9411 83.112 67.1026 82.9088 67.1026Z" fill="white"/>
<path d="M82.9088 72.7556H36.711C36.4922 72.7556 36.3203 72.5941 36.3203 72.3886C36.3203 72.183 36.4922 72.0215 36.711 72.0215H82.8932C83.112 72.0215 83.2839 72.183 83.2839 72.3886C83.2996 72.5941 83.112 72.7556 82.9088 72.7556Z" fill="white"/>
<path d="M82.9088 78.4087H36.711C36.4922 78.4087 36.3203 78.2472 36.3203 78.0416C36.3203 77.8361 36.4922 77.6746 36.711 77.6746H82.8932C83.112 77.6746 83.2839 77.8361 83.2839 78.0416C83.2996 78.2472 83.112 78.4087 82.9088 78.4087Z" fill="white"/>
<path d="M106.4 46.3257H13.2227V50.0406H106.4V46.3257Z" fill="#1E1A36"/>
<path d="M15.9254 0H44.9163C35.0703 4.27284 23.6928 10.1755 13.628 14.9623H0C0 6.69559 7.12659 0 15.9254 0Z" fill="#FFB0D8"/>
<path d="M91.7865 0C86.4416 4.87486 81.5499 10.4251 77.1427 14.9623H59.2949C60.9828 9.98465 65.39 4.18474 67.3123 0H91.7865Z" fill="#FFB0D8"/>
<path d="M82.9087 98.9653V110.712L36.7109 148.889V107.144L46.6038 98.9653H82.9087Z" fill="#FFC58A"/>
<path d="M82.9087 172.573V203.393H45.6035L82.9087 172.573Z" fill="#FFC58A"/>
</g>
<defs>
<clipPath id="clip0_2501_661">
<rect width="140" height="220" fill="white"/>
</clipPath>
</defs>
</svg>
