<svg width="525" height="450" viewBox="0 0 525 450" fill="none" xmlns="http://www.w3.org/2000/svg">
<path d="M473.113 402.492H438.957V402.808H473.113V402.492Z" fill="#D1E3FF"/>
<path d="M524.997 408.816H495.559V409.132H524.997V408.816Z" fill="#D1E3FF"/>
<path d="M269.154 407.88H248.457V408.196H269.154V407.88Z" fill="#D1E3FF"/>
<path d="M241.052 407.88H163.805V408.196H241.052V407.88Z" fill="#D1E3FF"/>
<path d="M131.743 405.882H82.5977V406.198H131.743V405.882Z" fill="#D1E3FF"/>
<path d="M417.361 400.67H305.996V400.986H417.361V400.67Z" fill="#D1E3FF"/>
<path d="M68.0336 405.717H35.6641V406.033H68.0336V405.717Z" fill="#D1E3FF"/>
<path d="M355.719 392.877H380.529V233.745H355.719V392.877Z" fill="#E3EEFF"/>
<path d="M366.497 346.319L370.344 344.501L337.36 276.925L333.513 278.743L366.497 346.319Z" fill="#E3EEFF"/>
<path d="M506.196 237.946V392.879H46.2988V237.389L244.36 211.004L506.196 237.946Z" fill="#F3F8FF"/>
<path d="M244.36 211.004L46.2988 237.389V392.879H244.36V211.004Z" fill="#E3EEFF"/>
<path d="M265.159 392.872H359.619V273.684H265.159V392.872Z" fill="#D1E3FF"/>
<path d="M355.164 392.873V277.708H269.625V392.873H355.164Z" fill="#E3EEFF"/>
<path d="M312.754 392.873V277.708H312.034V392.873H312.754Z" fill="#D1E3FF"/>
<path d="M524.014 243.587L244.412 214.824L28.5979 243.574L27.5566 236.048L244.296 207.184L244.759 207.222L524.824 236.036L524.014 243.587Z" fill="#D1E3FF"/>
<path d="M504.074 62.8891C511.53 47.0403 505.616 35.7451 487.388 35.7451C475.959 35.7451 461.78 40.1848 447.986 47.4198C446.431 43.2963 442.034 40.8299 434.977 40.8299C422.546 40.8299 405.41 48.4696 391.963 59.2336C388.711 56.8304 384.006 55.3631 377.951 55.1228C366.047 54.6422 351.636 59.0186 339.115 66.1651C338.035 64.9761 336.171 64.2172 333.6 64.116C326.748 63.8377 317.467 68.2647 312.852 73.9945C312.569 74.3614 312.312 74.7029 312.055 75.0444H326.298H337.624H376.987H396.36H411.426H434.63H438.846H496.399H513.368C519.693 69.4284 512.674 63.1673 504.074 62.8891Z" fill="white"/>
<path d="M220.563 20.5287C220.061 20.4781 219.56 20.4528 219.046 20.4528C219.521 15.2669 216.783 11.9529 210.96 11.9529C206.756 11.9529 201.588 13.6858 196.33 16.6076C197.834 6.53934 193.014 0 182.1 0C173.294 0 162.135 4.24994 151.131 11.194C150.167 7.24766 146.928 4.88237 141.464 4.88237C131.887 4.88237 118.273 12.1933 107.359 22.5145C107.359 22.5145 107.359 22.5272 107.346 22.5145C104.994 20.2125 101.446 18.7959 96.792 18.5682C87.6777 18.1002 76.3522 22.2995 66.3122 29.1551C65.5537 28.004 64.1525 27.2831 62.1728 27.1819C57.185 26.9289 50.3074 30.6982 46.3223 35.7577H57.9563H65.8494H96.1878H110.393H123.042H141.014H174.965H188.193H192.898H211.731H228.584C232.865 28.0926 229.458 21.3888 220.563 20.5287Z" fill="white"/>
<path d="M35.7686 392.879H16.2029C16.2029 392.879 4.15755 382.343 0.23669 368.214C-1.56305 361.713 7.31994 357.21 12.6934 361.864C25.2916 372.755 35.7686 392.879 35.7686 392.879Z" fill="white"/>
<path d="M44.0089 392.879H24.4432C24.4432 392.879 13.2463 370.263 17.5785 353.795C19.0825 348.078 26.3586 346.319 30.3823 350.683C45.1916 366.709 44.0089 392.879 44.0089 392.879Z" fill="white"/>
<path d="M44.0352 392.879H56.659C56.659 392.879 64.5907 379.13 72.0339 362.244C78.9758 346.497 67.1489 339.907 59.7186 355.388C50.27 375.082 44.0352 392.879 44.0352 392.879Z" fill="white"/>
<path d="M47.4922 392.879H67.0579C67.0579 392.879 86.765 383.709 85.6595 366.342C85.3767 361.801 80.0931 358.841 75.4138 360.612C54.4212 368.53 47.4922 392.879 47.4922 392.879Z" fill="white"/>
<path d="M36.5018 392.879H56.0675C56.0675 392.879 61.981 360.764 54.9748 340.526C52.8794 334.48 45.4362 333.43 42.0039 338.68C29.2515 358.209 36.5018 392.879 36.5018 392.879Z" fill="white"/>
<path d="M196.793 254.149H93.8613V358.007H196.793V254.149Z" fill="#D1E3FF"/>
<path d="M191.959 352.66L191.959 259.49H98.694L98.694 352.66H191.959Z" fill="#F5FCFF"/>
<path d="M194.788 302.492H95.8535V309.663H194.788V302.492Z" fill="#D1E3FF"/>
<path d="M148.969 356.126L148.969 256.037H141.68L141.68 356.126H148.969Z" fill="#D1E3FF"/>
<path d="M506.195 358.007H389.482V256.033H506.195" fill="#D1E3FF"/>
<path d="M506.189 352.761V261.287H394.207V352.761H506.189Z" fill="#F5FCFF"/>
<path d="M326.322 249.809C328.145 242.25 323.395 234.669 315.714 232.875C308.032 231.082 300.327 235.755 298.504 243.313C296.681 250.872 301.43 258.453 309.112 260.246C316.794 262.04 324.499 257.367 326.322 249.809Z" fill="white"/>
<path d="M378.334 389.274H174.154V392.879H378.334V389.274Z" fill="#D1E3FF"/>
<path d="M273.581 450C411.238 450 522.832 443.59 522.832 435.682C522.832 427.774 411.238 421.364 273.581 421.364C135.923 421.364 24.3301 427.774 24.3301 435.682C24.3301 443.59 135.923 450 273.581 450Z" fill="white"/>
<path d="M156.089 128.042C155.883 131.66 155.446 134.961 154.97 138.389C154.495 141.791 153.839 145.168 153.106 148.533C151.667 155.262 149.661 161.94 146.91 168.467L145.805 170.896L145.522 171.503L145.38 171.806C145.329 171.908 145.303 171.983 145.187 172.198C144.84 172.894 144.378 173.628 143.735 174.336C143.092 175.044 142.282 175.727 141.331 176.208C140.405 176.689 139.377 177.005 138.464 177.094C136.6 177.309 135.148 176.98 133.926 176.626C131.535 175.854 129.825 174.791 128.206 173.716C126.624 172.616 125.21 171.452 123.861 170.276C118.551 165.444 114.155 160.283 110.105 154.667L114.373 151.126C116.764 153.327 119.246 155.553 121.727 157.665C124.195 159.803 126.753 161.827 129.324 163.623C130.597 164.521 131.895 165.368 133.155 166.051C134.389 166.734 135.675 167.303 136.536 167.455C136.934 167.531 137.204 167.481 137.012 167.455C136.844 167.405 136.227 167.696 136.073 167.873C135.983 167.961 135.97 167.974 135.983 167.911L136.369 166.911L137.217 164.736C139.313 158.842 140.907 152.644 142.128 146.345C142.771 143.195 143.221 140.008 143.696 136.833C144.159 133.683 144.532 130.382 144.815 127.359L156.089 128.042Z" fill="#FFC3BD"/>
<path d="M148.412 114.812C143.861 115.95 140.686 134.354 140.686 134.354L153.207 142.74C153.207 142.74 165.213 124.172 161.717 119.251C158.079 114.129 155.045 113.155 148.412 114.812Z" fill="#0095FF"/>
<path d="M148.81 118.922L145.326 137.478L152.358 142.171L148.81 118.922Z" fill="#004DAA"/>
<path d="M114.514 150.417L108.549 141.159L105.168 151.682C105.168 151.682 110.053 156.729 114.475 155.528L114.514 150.417Z" fill="#FFC3BD"/>
<path d="M99.8193 138.085L97.4668 147.053L105.167 151.67L108.548 141.146L99.8193 138.085Z" fill="#FFC3BD"/>
<path d="M173.002 424.602H161.972L161.227 399.469H172.256L173.002 424.602Z" fill="#FFC3BD"/>
<path d="M270.319 374.184L261.911 381.217L242.68 364.318L251.087 357.298L270.319 374.184Z" fill="#FFC3BD"/>
<path d="M259.609 380.369L267.76 371.186C268.055 370.858 268.531 370.782 268.904 371.022L277.221 376.322C278.082 376.866 278.237 378.143 277.53 378.902C274.637 382.052 273.069 383.43 269.482 387.465C267.271 389.944 264.314 393.802 261.268 397.23C258.285 400.582 254.609 397.875 255.573 396.18C259.854 388.578 258.825 385.897 258.902 382.165C258.928 381.508 259.172 380.863 259.609 380.369Z" fill="#14365B"/>
<path d="M161.591 423.337H173.984C174.434 423.337 174.806 423.64 174.858 424.083L176.272 433.734C176.413 434.733 175.539 435.682 174.498 435.669C170.178 435.593 168.096 435.34 162.645 435.34C159.29 435.34 152.361 435.682 147.733 435.682C143.208 435.682 142.861 431.179 144.789 430.774C153.428 428.94 156.835 426.423 159.74 424.02C160.28 423.577 160.936 423.337 161.591 423.337Z" fill="#14365B"/>
<path d="M161.24 399.469L161.613 412.421H172.643L172.27 399.469H161.24Z" fill="#F29994"/>
<path d="M251.087 357.298L242.68 364.331L252.604 373.033L261.011 366.001L251.087 357.298Z" fill="#F29994"/>
<path d="M156.318 65.8235C163.761 54.9331 181.604 51.3156 192.711 61.0803C206.852 73.5139 198.277 97.8878 220.016 91.3991C241.767 84.9103 262.116 86.4914 262.219 97.5589C262.322 108.626 275.615 94.5865 291.247 105.932C322.896 128.915 298.69 188.022 270.858 165.444C252.616 150.645 246.215 144.296 237.113 155.566C228.011 166.848 195.603 161.523 192.698 147.293C189.793 133.064 169.122 140.02 157.873 127.587C146.638 115.153 140.441 89.0338 156.318 65.8235Z" fill="#0F264C"/>
<path d="M148.412 114.812C148.412 114.812 143.155 116.633 153.683 180.306C171.462 180.306 189.832 180.306 198.471 180.306C197.725 162.371 197.7 151.303 206.415 114.495C206.415 114.495 197.031 112.484 187.39 112.029C179.856 111.675 173.673 111.435 167.053 112.029C158.311 112.813 148.412 114.812 148.412 114.812Z" fill="#0095FF"/>
<path d="M185.371 89.5017C184.085 95.9399 182.812 107.741 187.389 112.042C187.389 112.042 185.602 118.568 173.441 118.568C160.071 118.568 167.052 112.042 167.052 112.042C174.354 110.321 174.161 104.996 172.888 100L185.371 89.5017Z" fill="#FFC3BD"/>
<path d="M180.28 93.7769L172.889 99.9747C173.197 101.164 173.429 102.365 173.519 103.529C176.308 103.137 180.139 100.126 180.435 97.2552C180.576 95.8259 180.525 94.4472 180.28 93.7769Z" fill="#F29994"/>
<path d="M192.274 77.688C189.703 88.161 188.855 92.6386 182.44 97.1289C172.798 103.871 160.29 98.4823 159.622 87.478C159.017 77.5615 163.324 62.1049 174.611 59.7269C185.731 57.3869 194.845 67.2149 192.274 77.688Z" fill="#FFC3BD"/>
<path d="M153.682 180.306C153.682 180.306 144.979 263.901 145.712 296.99C146.457 331.407 159.287 409.917 159.287 409.917H174.199C174.199 409.917 171.834 333.418 173.158 299.621C174.598 262.763 186.489 180.306 186.489 180.306H153.682Z" fill="#19437F"/>
<path d="M175.473 410.448H157.977L156.691 404.946L176.296 404.275L175.473 410.448Z" fill="#4EA4F9"/>
<path d="M172.99 201.101C161.986 222.882 170.779 262.598 174.674 277.384C176.667 255.186 180.035 228.055 182.657 208.133C180.986 196.863 178.068 191.07 172.99 201.101Z" fill="#133A68"/>
<path d="M165.51 180.306C165.51 180.306 175.653 267.215 183.314 295.105C192.416 328.232 248.915 372.805 248.915 372.805L260.382 363.231C260.382 363.231 219.425 314.812 212.47 297.356C197.622 260.106 210.336 204.604 198.471 180.306H165.51Z" fill="#19437F"/>
<path d="M262.22 362.725L247.989 374.602L242.68 371.477L258.774 356.754L262.22 362.725Z" fill="#4EA4F9"/>
<path d="M175.43 77.7907C175.585 76.9309 175.246 76.1529 174.673 76.053C174.099 75.9531 173.509 76.5691 173.354 77.429C173.2 78.2888 173.539 79.0668 174.112 79.1667C174.685 79.2666 175.276 78.6506 175.43 77.7907Z" fill="#0F264C"/>
<path d="M165.52 76.0815C165.366 76.9416 164.775 77.5614 164.196 77.4602C163.618 77.359 163.284 76.5748 163.438 75.7147C163.592 74.8546 164.184 74.2348 164.762 74.336C165.341 74.4372 165.675 75.2088 165.52 76.0815Z" fill="#0F264C"/>
<path d="M165.01 74.4239L163.018 73.4634C163.018 73.4634 163.802 75.2707 165.01 74.4239Z" fill="#0F264C"/>
<path d="M167.877 78.0168C167.877 78.0168 165.718 81.4699 163.764 82.9751C164.728 84.24 166.785 84.1008 166.785 84.1008L167.877 78.0168Z" fill="#ED847E"/>
<path d="M170.742 88.1484C170.28 88.1484 169.778 88.1104 169.251 88.0219C169.11 87.9966 169.02 87.8701 169.045 87.7183C169.071 87.5792 169.2 87.4906 169.354 87.5159C173.185 88.1863 175.473 85.8589 175.486 85.8337C175.589 85.7325 175.743 85.7325 175.859 85.821C175.962 85.9222 175.974 86.0866 175.872 86.1878C175.782 86.2764 173.943 88.1484 170.742 88.1484Z" fill="#0F264C"/>
<path d="M175.05 58.8415C170.127 61.6242 182.262 87.9333 191.158 84.24C200.054 80.5466 197.161 65.8615 192.765 62.1681C188.381 58.4621 181.877 54.9837 175.05 58.8415Z" fill="#0F264C"/>
<path d="M172.286 57.6018C172.286 57.6018 166.359 58.4493 162.4 65.7222C158.44 72.9952 181.194 58.6137 177.98 57.6018C174.767 56.6026 172.286 57.6018 172.286 57.6018Z" fill="#0F264C"/>
<path d="M192.722 85.5807C191.861 87.6424 190.125 89.135 188.39 89.818C185.793 90.8425 184.173 88.629 184.649 86.0613C185.073 83.7466 186.924 80.4201 189.663 80.4833C192.362 80.5466 193.712 83.2154 192.722 85.5807Z" fill="#FFC3BD"/>
<path d="M178.135 72.1352C177.993 72.1352 177.865 72.0846 177.762 71.9707C176.155 70.3011 174.265 70.63 174.239 70.63C173.957 70.6806 173.687 70.4909 173.635 70.2126C173.584 69.9343 173.777 69.6687 174.059 69.6181C174.162 69.6054 176.541 69.2007 178.52 71.2624C178.713 71.4648 178.713 71.7937 178.495 71.9834C178.392 72.0846 178.263 72.1352 178.135 72.1352Z" fill="#0F264C"/>
<path d="M161.923 70.8071C161.795 70.8071 161.666 70.7565 161.563 70.6679C161.357 70.4656 161.345 70.1493 161.55 69.947C163.543 67.8852 165.921 68.3026 166.024 68.3153C166.307 68.3659 166.5 68.6315 166.435 68.9098C166.384 69.188 166.114 69.3651 165.831 69.3272C165.741 69.3145 163.89 69.0236 162.309 70.6553C162.206 70.7565 162.065 70.8071 161.923 70.8071Z" fill="#0F264C"/>
<path d="M211.248 126.094C213.716 131.988 215.735 137.794 217.509 143.84C219.27 149.861 220.761 155.996 221.584 162.446C221.751 164.078 221.944 165.684 221.995 167.379L222.059 168.632C222.072 168.834 222.149 169.96 221.854 171.123C221.699 171.73 221.442 172.426 221.018 173.097C220.594 173.78 219.99 174.437 219.334 174.893C217.997 175.841 216.75 176.082 215.85 176.183C214.912 176.271 214.192 176.208 213.562 176.12C212.919 176.031 212.379 175.905 211.865 175.778C210.85 175.5 209.963 175.184 209.127 174.842C207.456 174.172 205.965 173.387 204.525 172.591C198.83 169.34 193.816 165.684 188.957 161.599L192.119 157.071C197.532 159.765 203.046 162.573 208.433 164.736C209.77 165.267 211.107 165.748 212.341 166.114C212.958 166.292 213.549 166.431 214.038 166.507C214.269 166.532 214.488 166.557 214.616 166.545C214.758 166.545 214.822 166.507 214.642 166.507C214.5 166.519 214.012 166.545 213.305 167.025C212.572 167.506 212.071 168.467 211.981 168.897C211.852 169.315 211.917 169.669 211.852 169.125L211.737 168.1C211.621 166.747 211.364 165.343 211.145 163.952C210.631 161.156 210.014 158.336 209.23 155.502C208.497 152.682 207.649 149.848 206.762 147.028C204.936 141.424 202.918 135.707 200.797 130.306L211.248 126.094Z" fill="#FFC3BD"/>
<path d="M206.414 114.495C210.9 115.836 216.286 131.04 216.286 131.04L198.88 143.284C198.88 143.284 192.53 130.597 194.42 124.88C196.374 118.948 201.284 112.965 206.414 114.495Z" fill="#0095FF"/>
<path d="M256.602 385.606C256.165 385.606 255.78 385.404 255.432 385.024C255.137 384.695 255.162 384.379 255.227 384.164C255.638 382.836 259.469 381.761 259.906 381.634C260.009 381.596 260.112 381.634 260.176 381.723C260.24 381.799 260.253 381.913 260.202 382.001C259.52 383.279 258.158 385.442 256.769 385.606C256.705 385.606 256.654 385.606 256.602 385.606ZM259.43 382.305C257.914 382.785 255.934 383.607 255.728 384.303C255.702 384.392 255.69 384.518 255.831 384.683C256.101 384.986 256.384 385.125 256.705 385.087C257.451 385.011 258.453 383.974 259.43 382.305Z" fill="#9FC6FF"/>
<path d="M258.219 382.355C256.947 382.355 255.52 382.102 255.031 381.483C254.877 381.293 254.684 380.901 255.057 380.357C255.288 380.015 255.623 379.813 256.047 379.762C257.628 379.547 260.032 381.609 260.135 381.698C260.199 381.761 260.238 381.849 260.225 381.938C260.212 382.026 260.148 382.102 260.058 382.128C259.633 382.267 258.952 382.355 258.219 382.355ZM256.278 380.256C256.227 380.256 256.163 380.256 256.111 380.268C255.841 380.306 255.635 380.42 255.481 380.635C255.288 380.913 255.353 381.052 255.43 381.154C255.905 381.761 258.065 381.988 259.389 381.748C258.605 381.154 257.23 380.256 256.278 380.256Z" fill="#9FC6FF"/>
<path d="M157.45 425.234C156.358 425.234 155.342 425.07 154.776 424.564C154.416 424.248 154.262 423.818 154.301 423.312C154.326 423.008 154.481 422.768 154.738 422.629C156.088 421.895 160.484 424.108 160.985 424.361C161.088 424.412 161.14 424.513 161.127 424.627C161.114 424.741 161.024 424.817 160.921 424.842C159.983 425.032 158.671 425.234 157.45 425.234ZM155.483 422.995C155.278 422.995 155.111 423.021 154.995 423.084C154.892 423.147 154.841 423.223 154.828 423.362C154.802 423.704 154.892 423.982 155.123 424.184C155.792 424.779 157.604 424.88 160.047 424.475C158.543 423.767 156.525 422.995 155.483 422.995Z" fill="#9FC6FF"/>
<path d="M160.869 424.855C160.83 424.855 160.791 424.842 160.766 424.829C159.454 424.248 156.845 421.908 157.051 420.668C157.102 420.377 157.308 420.01 158.028 419.947C158.567 419.896 159.056 420.048 159.467 420.39C160.856 421.528 161.113 424.45 161.113 424.576C161.126 424.665 161.074 424.753 160.997 424.804C160.971 424.842 160.92 424.855 160.869 424.855ZM158.246 420.453C158.195 420.453 158.143 420.453 158.092 420.466C157.616 420.516 157.578 420.706 157.578 420.757C157.449 421.49 159.223 423.337 160.56 424.134C160.431 423.286 160.059 421.528 159.159 420.782C158.876 420.567 158.58 420.453 158.246 420.453Z" fill="#9FC6FF"/>
<path d="M199.137 177.726L200.281 181.672C200.435 181.976 200.075 182.292 199.548 182.292H153.449C153.051 182.292 152.717 182.102 152.691 181.849L152.292 177.903C152.267 177.625 152.614 177.397 153.051 177.397H198.404C198.738 177.397 199.034 177.523 199.137 177.726Z" fill="#9FC6FF"/>
<path d="M193.045 182.709H194.266C194.51 182.709 194.69 182.583 194.677 182.431L194.112 177.309C194.099 177.157 193.88 177.03 193.636 177.03H192.428C192.183 177.03 192.003 177.157 192.016 177.309L192.582 182.431C192.595 182.596 192.8 182.709 193.045 182.709Z" fill="#19437F"/>
<path d="M156.872 182.709H158.093C158.338 182.709 158.517 182.583 158.505 182.431L157.939 177.309C157.926 177.157 157.708 177.03 157.463 177.03H156.242C155.998 177.03 155.818 177.157 155.831 177.309L156.396 182.431C156.422 182.596 156.628 182.709 156.872 182.709Z" fill="#19437F"/>
<path d="M174.959 182.709H176.167C176.412 182.709 176.592 182.583 176.579 182.431L176.013 177.309C176 177.157 175.782 177.03 175.538 177.03H174.316C174.072 177.03 173.892 177.157 173.905 177.309L174.471 182.431C174.509 182.596 174.715 182.709 174.959 182.709Z" fill="#19437F"/>
<path d="M193.585 158.209L189.883 147.066L183.982 156.451C183.982 156.451 187.453 162.522 192.043 162.421L193.585 158.209Z" fill="#FFC3BD"/>
<path d="M185.949 134.29L183.044 171.275C182.89 173.273 181.09 174.791 179.059 174.64L107.506 169.201C105.475 169.049 103.933 167.278 104.087 165.28L106.992 128.295C107.069 127.245 107.609 126.334 108.38 125.715C109.087 125.158 110 124.855 110.977 124.93L182.53 130.369C183.507 130.445 184.355 130.888 184.972 131.533C185.641 132.254 186.026 133.241 185.949 134.29Z" fill="#DCE9FF"/>
<path d="M184.971 131.533L154.324 152.163C148.474 156.097 140.62 155.502 135.452 150.734L108.379 125.727C109.086 125.171 109.999 124.867 110.976 124.943L182.528 130.382C183.492 130.445 184.354 130.875 184.971 131.533Z" fill="#9FC6FF"/>
<path d="M182.184 141.981L177.672 150.101L184.974 157.918L189.884 147.066L182.184 141.981Z" fill="#FFC3BD"/>
<path d="M174.917 76.1567L172.924 75.1961C172.911 75.1835 173.708 76.9908 174.917 76.1567Z" fill="#0F264C"/>
<path d="M380.659 225.411H364.898V435.682H380.659V225.411Z" fill="#9FC6FF"/>
<path d="M364.898 225.411H380.659V240.919L364.898 235.214V225.411Z" fill="#77B3FC"/>
<path d="M347.891 174.956C347.891 154.465 331.012 137.858 310.187 137.858C289.361 137.858 272.482 154.465 272.482 174.956V225.399H347.904V174.956H347.891Z" fill="#0095FF"/>
<path d="M265.321 247.053C260.282 267.544 273.086 284.152 293.912 284.152C314.737 284.152 335.704 267.544 340.743 247.053L345.988 225.715C346.297 224.488 345.345 223.299 344.06 223.299H272.726C271.813 223.299 271.016 223.919 270.798 224.792L265.321 247.053Z" fill="#77B3FC"/>
<path d="M262.288 247.053C257.249 267.544 270.053 284.152 290.878 284.152C311.704 284.152 332.671 267.544 337.71 247.053L342.955 225.715C343.264 224.488 342.312 223.299 341.027 223.299H269.693C268.78 223.299 267.983 223.919 267.765 224.792L262.288 247.053Z" fill="#9FC6FF"/>
<path d="M436.644 174.956V225.411H347.878V174.956C347.878 166.368 344.922 158.475 339.934 152.189C333.043 143.461 322.271 137.858 310.174 137.858H398.939C411.036 137.858 421.809 143.461 428.699 152.189C433.687 158.475 436.644 166.368 436.644 174.956Z" fill="#9FC6FF"/>
<path d="M436.646 174.956V188.452H347.88V174.956C347.88 166.368 344.923 158.475 339.936 152.188H428.701C433.689 158.475 436.646 166.368 436.646 174.956Z" fill="#B6D7FF"/>
<path d="M360.246 194.941V120.339C360.246 117.506 362.83 115.356 365.658 115.811L383.836 118.771C385.185 118.986 386.175 120.137 386.175 121.478V126.107C386.175 127.625 384.928 128.852 383.386 128.852H366.031V194.941C366.031 196.509 364.733 197.787 363.139 197.787C361.532 197.787 360.246 196.522 360.246 194.941Z" fill="#0F264C"/>
<path d="M304.552 150.342V182.165C304.552 183.891 303.118 185.302 301.364 185.302H239.788C238.034 185.302 236.6 183.891 236.6 182.165V150.342C236.6 149.441 236.997 148.627 237.614 148.052C238.188 147.531 238.949 147.216 239.788 147.216H301.364C302.203 147.216 302.964 147.541 303.537 148.052C304.166 148.616 304.552 149.441 304.552 150.342Z" fill="#DCE9FF"/>
<path d="M303.537 148.041L278.705 167.676C273.962 171.431 267.2 171.431 262.456 167.676L237.625 148.041C238.199 147.52 238.96 147.205 239.798 147.205H301.375C302.202 147.205 302.963 147.531 303.537 148.041Z" fill="#9FC6FF"/>
<path d="M249.405 198.939V228.211C249.405 229.798 248.086 231.096 246.473 231.096H189.835C188.221 231.096 186.902 229.798 186.902 228.211V198.939C186.902 198.111 187.268 197.362 187.836 196.833C188.363 196.353 189.064 196.064 189.835 196.064H246.473C247.244 196.064 247.944 196.363 248.472 196.833C249.05 197.362 249.405 198.111 249.405 198.939Z" fill="#DCE9FF"/>
<path d="M248.473 196.833L225.633 214.893C221.27 218.347 215.051 218.347 210.688 214.893L187.848 196.833C188.375 196.353 189.075 196.064 189.847 196.064H246.485C247.256 196.054 247.956 196.353 248.473 196.833Z" fill="#9FC6FF"/>
<path d="M347.891 175.588V219.985H321.075C319.031 219.985 317.359 218.341 317.359 216.33V179.244C317.359 178.194 317.822 177.245 318.555 176.575C319.211 175.968 320.098 175.588 321.075 175.588H347.891Z" fill="#DCE9FF"/>
<path d="M347.89 175.588V199.747C347.749 199.659 347.62 199.558 347.492 199.456L318.555 176.575C319.21 175.968 320.097 175.588 321.074 175.588H347.89Z" fill="#9FC6FF"/>
<path d="M347.877 175.588H342.002V219.985H347.877V175.588Z" fill="#B6D7FF"/>
</svg>
