<svg width="18" height="14" viewBox="0 0 18 14" fill="none" xmlns="http://www.w3.org/2000/svg">
<path d="M5.4184 14C11.9202 14 15.4764 8.61333 15.4764 3.942C15.4764 3.78902 15.4764 3.63671 15.4661 3.48508C16.1579 2.98464 16.7551 2.36508 17.2297 1.6553C16.5846 1.94117 15.9001 2.12861 15.1993 2.21146C15.9371 1.76981 16.4897 1.07463 16.7535 0.256224C16.0596 0.667953 15.3004 0.958166 14.5088 1.11428C13.8404 0.403518 12.9069 0 11.9313 0C9.99019 0 8.39298 1.59725 8.39298 3.53828C8.39298 3.80756 8.42374 4.076 8.48458 4.33828C5.64377 4.1959 2.99329 2.85219 1.19918 0.644936C0.266219 2.251 0.748953 4.33236 2.2936 5.36379C1.73111 5.34713 1.18071 5.19536 0.689188 4.92133V4.96612C0.689659 6.64245 1.88204 8.09947 3.52519 8.43138C3.0048 8.57329 2.45866 8.59402 1.92905 8.49202C2.39099 9.92844 3.72306 10.9186 5.23163 10.9469C3.98013 11.9305 2.43326 12.4647 0.841496 12.4631C0.560234 12.4626 0.279242 12.4456 0 12.4121C1.61643 13.4494 3.49776 13.9998 5.4184 13.9972" fill="#1DA1F2"/>
</svg>
