<svg width="20" height="16" viewBox="0 0 20 16" fill="none" xmlns="http://www.w3.org/2000/svg">
<path d="M6.19246 16C13.6231 16 17.6873 9.84381 17.6873 4.50514C17.6873 4.33031 17.6873 4.15624 17.6755 3.98294C18.4662 3.41102 19.1487 2.70295 19.6911 1.89177C18.9538 2.21848 18.1716 2.43269 17.3707 2.52738C18.2139 2.02264 18.8453 1.22815 19.1468 0.292828C18.3538 0.763375 17.4861 1.09505 16.5815 1.27346C15.8176 0.461163 14.7507 0 13.6358 0C11.4174 0 9.59198 1.82542 9.59198 4.04375C9.59198 4.3515 9.62713 4.65829 9.69666 4.95804C6.45002 4.79532 3.4209 3.25964 1.37049 0.737069C0.30425 2.57257 0.855946 4.95127 2.62126 6.13004C1.97841 6.111 1.34938 5.93755 0.787643 5.62438V5.67557C0.788181 7.59137 2.1509 9.25654 4.02879 9.63586C3.43405 9.79804 2.8099 9.82173 2.20463 9.70516C2.73256 11.3468 4.25493 12.4784 5.97901 12.5108C4.54872 13.6348 2.78086 14.2454 0.961709 14.2436C0.640268 14.243 0.319134 14.2235 0 14.1853C1.84735 15.3708 3.99744 15.9998 6.19246 15.9968" fill="#1DA1F2"/>
</svg>
