<svg width="19" height="13" viewBox="0 0 19 13" fill="none" xmlns="http://www.w3.org/2000/svg">
<path d="M18.1025 2.03402C17.8898 1.23341 17.2633 0.602819 16.4678 0.38879C15.026 1.53325e-07 9.24442 0 9.24442 0C9.24442 0 3.46281 1.53325e-07 2.02092 0.38883C1.22545 0.602859 0.59896 1.23341 0.386338 2.03406C-3.83313e-08 3.48524 0 6.51312 0 6.51312C0 6.51312 -3.83313e-08 9.54105 0.386338 10.9922C0.59896 11.7928 1.22545 12.3971 2.02092 12.6112C3.46281 13 9.24442 13 9.24442 13C9.24442 13 15.026 13 16.4678 12.6112C17.2633 12.3971 17.8898 11.7928 18.1025 10.9921C18.4888 9.541 18.4888 6.51308 18.4888 6.51308C18.4888 6.51308 18.4888 3.48524 18.1025 2.03402Z" fill="#FF0000"/>
<path d="M7.35352 9.26232V3.76416L12.1858 6.5133L7.35352 9.26232Z" fill="white"/>
</svg>
