<svg width="23" height="16" viewBox="0 0 23 16" fill="none" xmlns="http://www.w3.org/2000/svg">
<path d="M22.28 2.5039C22.0183 1.51853 21.2472 0.74242 20.2681 0.478999C18.4936 0.00048847 11.3777 0.000488281 11.3777 0.000488281C11.3777 0.000488281 4.26192 0.00048847 2.48728 0.479048C1.50825 0.742469 0.737182 1.51853 0.475493 2.50395C-4.7177e-08 4.29002 0 8.01664 0 8.01664C0 8.01664 -4.7177e-08 11.7433 0.475493 13.5293C0.737182 14.5147 1.50825 15.2585 2.48728 15.522C4.26192 16.0005 11.3777 16.0005 11.3777 16.0005C11.3777 16.0005 18.4936 16.0005 20.2681 15.5219C21.2472 15.2585 22.0183 14.5147 22.28 13.5293C22.7555 11.7433 22.7555 8.01659 22.7555 8.01659C22.7555 8.01659 22.7555 4.29002 22.28 2.5039Z" fill="#FF0000"/>
<path d="M9.05078 11.4003V4.6333L14.9982 8.01686L9.05078 11.4003Z" fill="white"/>
</svg>
