<svg width="139" height="34" viewBox="0 0 139 34" fill="none" xmlns="http://www.w3.org/2000/svg">
<g clip-path="url(#clip0_113_20209)">
<path d="M18.937 18.6313C22.127 20.1273 25.4526 20.8753 28.2354 20.7393C28.2354 20.7393 28.2354 20.7393 28.3032 20.7393L28.5068 0.883326C28.5068 0.203326 27.7603 -0.272674 27.1494 0.135326L10.4531 11.4233C11.7427 14.0073 14.8647 16.7273 18.937 18.6313Z" fill="#717988"/>
<path d="M27.485 22.6434C24.5665 22.6434 21.3087 21.8274 18.1188 20.3314C13.7072 18.2914 10.4493 15.3674 8.88831 12.4434L0.40442 18.2234C-0.274291 18.6994 -0.00280688 19.7194 0.743775 19.7874L14.9967 21.6914C15.8112 21.8274 16.6256 22.2354 17.1686 22.8474L26.6027 33.6594C27.1456 34.2714 28.0958 33.8634 28.0958 33.1154L28.2316 22.5754C27.9601 22.6434 27.7565 22.6434 27.485 22.6434Z" fill="#717988"/>
<path d="M28.5713 20.5345C25.6529 20.5345 22.3951 19.7185 19.2051 18.2225C11.7393 14.7545 7.39555 8.70252 9.36381 4.48652C11.3321 0.270524 18.73 -0.273476 26.1958 3.19452C28.6392 4.35052 30.8789 5.84652 32.5757 7.47852C32.983 7.81852 32.983 8.43052 32.6436 8.83852C32.3042 9.24652 31.6934 9.24652 31.2862 8.90652C29.6573 7.41052 27.6211 6.05052 25.3814 4.96252C19.1373 2.03852 12.5538 2.24252 11.1285 5.37052C9.6353 8.49852 13.7754 13.6665 20.0196 16.5905C23.2095 18.0865 26.5352 18.8345 29.3179 18.6985C31.897 18.5625 33.6617 17.6785 34.3404 16.2505C35.0191 14.7545 34.3404 13.0545 33.6617 11.8305C33.3902 11.3545 33.5259 10.8105 34.001 10.5385C34.4761 10.2665 35.0191 10.4025 35.2906 10.8785C36.5801 13.1225 36.8516 15.2985 36.0372 16.9985C35.087 19.1065 32.7115 20.3305 29.3858 20.5345C29.1143 20.5345 28.8428 20.5345 28.5713 20.5345Z" fill="#717988"/>
<path d="M53.1445 18.9723V15.9803H58.5063V18.2243C58.5063 21.4883 58.0312 23.9363 57.0132 25.7723C55.9951 27.5403 54.6377 28.4243 52.873 28.4243C51.9907 28.4243 51.1763 28.1523 50.4297 27.6763C49.6831 27.2003 49.0723 26.4523 48.5293 25.4323C47.9863 24.4123 47.647 23.1883 47.4434 21.6923C47.2397 20.1963 47.1719 18.2243 47.1719 15.7083C47.1719 11.1523 47.5791 7.82034 48.3936 5.78034C49.208 3.67234 50.4976 2.65234 52.1943 2.65234C53.1445 2.65234 54.0947 3.12834 54.9092 4.01234V2.99234H57.8955V11.0843H54.9092C54.9092 7.61634 54.2305 5.84834 52.873 5.84834C52.3979 5.84834 51.9907 6.05234 51.7192 6.52834C51.4478 7.00434 51.312 7.88834 51.1763 9.18034C51.0405 10.4723 51.0405 12.5123 51.0405 15.1643C51.0405 18.0883 51.1084 20.2643 51.1763 21.5563C51.2441 22.9163 51.4478 23.8003 51.7192 24.2763C51.9907 24.7523 52.3979 25.0243 52.9409 25.0243C53.7554 25.0243 54.2305 24.4803 54.4341 23.4603C54.6377 22.4403 54.7734 20.8763 54.7734 18.8363H53.1445V18.9723Z" fill="#717988"/>
<path d="M71.873 25.1592V28.0152H67.3936V26.5192H67.3257C66.647 27.6752 65.6968 28.2192 64.4751 28.2192C63.3892 28.2192 62.5068 27.7432 61.7603 26.7232C61.0815 25.7032 60.7422 24.4112 60.7422 22.8472C60.7422 21.0792 61.1494 19.7192 61.896 18.7672C62.6426 17.8152 63.6606 17.3392 64.8823 17.3392C65.8325 17.3392 66.7148 17.7472 67.3936 18.5632V15.5712C67.3936 14.4152 67.2578 13.6672 66.9863 13.3952C66.7148 13.1232 66.3076 12.9192 65.8325 12.9192C64.8145 12.9192 64.2036 13.6672 64.1357 15.1632L61.2852 14.3472C61.4888 13.0552 62.0317 12.0352 62.8462 11.2872C63.6606 10.5392 64.7466 10.1992 65.9683 10.1992C67.3257 10.1992 68.4116 10.6072 69.2939 11.4912C70.1763 12.3752 70.5835 13.5312 70.5835 15.0272V25.1592H71.873ZM67.3936 24.6152V20.8072C66.9185 20.2632 66.4434 19.9912 65.8325 19.9912C64.6787 19.9912 64.0679 20.9432 64.0679 22.8472C64.0679 24.6832 64.6787 25.5672 65.8325 25.5672C66.4434 25.4992 66.9185 25.2272 67.3936 24.6152Z" fill="#717988"/>
<path d="M73.1616 28.0163V25.1603H74.4512V13.4643H73.0938V10.6083H77.5732V12.1723H77.6411C78.3877 11.0163 79.27 10.4043 80.356 10.4043C81.4419 10.4043 82.2563 11.0163 82.8672 12.1723C83.6816 11.0163 84.6318 10.4043 85.7856 10.4043C87.9575 10.4043 89.0435 11.9683 89.0435 15.1643V25.1603H90.333V28.0163H85.9214V15.2323C85.9214 14.4843 85.8535 14.0083 85.7178 13.6683C85.582 13.3963 85.3105 13.2603 84.9033 13.2603C84.4961 13.2603 84.0889 13.4643 83.7495 13.8043C83.4102 14.1443 83.2744 14.3483 83.2744 14.4843V25.1603H84.564V28.0163H80.1523V15.2323C80.1523 14.4843 80.0845 14.0083 79.9487 13.7363C79.813 13.4643 79.5415 13.2603 79.1343 13.2603C78.5913 13.2603 78.0483 13.6683 77.5732 14.4843V25.1603H78.8628V28.0163H73.1616Z" fill="#717988"/>
<path d="M104.93 2.99023V12.1702H102.283V5.64223H100.179V25.0222H102.147V28.0142H94.6812V25.0222H96.6494V5.64223H94.5454V12.1702H91.8984V2.99023H104.93Z" fill="#717988"/>
<path d="M109.41 28.4229C107.781 28.4229 106.627 27.6749 105.88 26.1789C105.134 24.6829 104.727 22.3709 104.727 19.2429C104.727 16.1149 105.134 13.8029 105.88 12.3069C106.627 10.8109 107.849 10.1309 109.41 10.1309C112.532 10.1309 114.161 13.1909 114.161 19.3109C114.161 25.4309 112.532 28.4229 109.41 28.4229ZM109.41 13.0549C108.867 13.0549 108.459 13.4629 108.324 14.2789C108.12 15.0949 108.052 16.7269 108.052 19.2429C108.052 21.0789 108.12 22.4389 108.188 23.3229C108.256 24.2069 108.392 24.8189 108.595 25.0909C108.799 25.3629 109.07 25.4989 109.478 25.4989C110.088 25.4989 110.496 25.0229 110.699 24.0709C110.835 23.1189 110.971 21.4869 110.971 19.2429C110.971 16.7269 110.903 15.0949 110.699 14.2789C110.36 13.4629 110.02 13.0549 109.41 13.0549Z" fill="#717988"/>
<path d="M126.167 10.6074V25.1594H127.593V28.0154H123.113V26.5874H123.045C122.299 27.6754 121.417 28.1514 120.398 28.1514C118.43 28.1514 117.48 26.7234 117.48 23.8674V13.4634H116.055V10.6074H120.602V23.4594C120.602 24.1394 120.67 24.6154 120.806 24.9554C120.941 25.2274 121.213 25.3634 121.62 25.3634C122.027 25.3634 122.367 25.1594 122.706 24.8194C123.045 24.4114 123.181 24.2074 123.181 24.1394V13.4634H121.688V10.6074H126.167V10.6074Z" fill="#717988"/>
<path d="M136.214 21.6907L138.997 22.9147C138.929 24.6827 138.521 26.0427 137.707 27.0627C136.893 28.0147 135.807 28.4907 134.517 28.4907C132.752 28.4907 131.463 27.8107 130.716 26.3827C129.97 25.0227 129.562 22.6427 129.562 19.3787C129.562 16.2507 129.902 13.9387 130.513 12.5787C131.124 11.2187 132.209 10.4707 133.567 10.4707C134.653 10.4707 135.467 11.0147 136.078 12.1027H136.146V10.6747H138.997V16.9987H136.146C136.146 15.5707 136.01 14.6187 135.739 14.0747C135.467 13.5307 135.06 13.2587 134.449 13.2587C133.771 13.2587 133.363 13.5987 133.16 14.3467C132.956 15.0947 132.82 16.3187 132.82 18.1547V20.8067C132.82 22.6427 132.956 23.9347 133.228 24.6147C133.499 25.2947 133.906 25.7027 134.517 25.7027C135.128 25.7027 135.603 25.4307 135.875 24.8867C136.078 24.2067 136.214 23.1867 136.214 21.6907Z" fill="#717988"/>
</g>
<defs>
<clipPath id="clip0_113_20209">
<rect width="139" height="34" fill="white"/>
</clipPath>
</defs>
</svg>
