<svg width="106" height="24" viewBox="0 0 106 24" fill="none" xmlns="http://www.w3.org/2000/svg">
<g clip-path="url(#clip0_3740_2813)">
<path d="M13.2708 17.9081C14.8708 17.7441 16.9108 16.8681 18.1628 15.6081L18.0788 15.8241C16.6588 18.5841 14.1468 20.2801 10.5628 20.3561C8.88677 20.3921 7.29077 19.9601 6.24677 19.4921C3.99477 18.4801 2.10277 16.6041 1.06677 14.6001C-0.417232 11.7281 -0.685232 7.73212 2.39877 4.74812C2.44677 4.74812 2.02277 5.39612 2.07077 5.39612L1.98677 5.67212C-0.233232 12.6281 6.61477 18.5881 13.2708 17.9081ZM10.8228 6.68812C11.7028 8.10011 13.3788 9.34412 15.9988 8.78812C16.6588 8.64812 18.1588 7.52011 18.4188 6.92412C16.1708 8.45212 14.7788 7.94012 14.1188 7.74812C13.9748 7.70812 13.6388 7.55612 13.3228 7.36812C12.6268 6.94812 12.2828 6.75612 11.7388 5.96812C11.4428 5.53612 11.1428 4.84812 11.0468 4.45212C10.8868 3.80012 10.9308 2.79612 11.2348 1.93612C10.2188 2.84412 10.0628 4.59612 10.4028 5.75612C10.4508 5.90012 10.6948 6.47612 10.8228 6.68812ZM11.5428 14.1681C15.0628 14.6401 17.6828 13.1601 18.5908 10.8601C17.5548 11.9601 15.8068 12.7401 14.1308 12.7281C10.3868 12.7041 6.17877 9.34811 6.65077 4.67212C6.69077 4.26812 6.85077 3.63612 7.28277 2.82012C6.04277 4.38412 5.28677 5.67612 5.49877 7.83612C5.79077 10.8081 8.59877 13.7721 11.5428 14.1681ZM101.175 1.77212L94.8228 10.5721L94.2468 8.27212H90.0748C90.0748 8.27212 90.4908 10.3681 90.7948 11.4361C91.0988 12.4921 91.6348 13.5441 91.6588 14.6001C91.6868 15.8081 91.0548 18.0721 91.0548 18.0721L95.1108 18.0521C95.1108 18.0521 95.5468 15.8801 95.9748 14.8881C96.1428 14.4921 96.4748 14.1761 96.6948 13.8801C97.3668 12.9681 105.611 1.80012 105.611 1.80012L101.175 1.77212ZM92.7788 4.12812C91.8868 3.59212 89.7668 3.82412 87.9548 3.82412H85.1468C83.3868 3.82412 82.3468 3.70812 82.1668 4.38812C81.6188 6.48412 79.2908 18.0521 79.2908 18.0521H83.0308L85.4748 7.40812H87.4868C89.8148 7.40812 94.0988 7.34412 94.0988 7.34412C94.0988 7.34412 93.5948 4.62411 92.7788 4.12812ZM78.8908 6.55612C79.3668 8.27211 78.4588 12.3081 78.4588 12.3081C78.4588 12.3081 73.7188 12.2281 71.1228 12.3081C70.3148 12.3321 69.3508 12.2201 69.1108 12.5961C68.7708 13.1241 69.2348 13.9321 69.6268 14.2761C70.0788 14.6721 70.9548 14.7161 71.2708 14.7561C73.3788 15.0241 77.7868 14.8241 77.7868 14.8241L77.0228 18.2081C77.0228 18.2081 70.7908 18.5201 67.6748 17.7761C67.0588 17.6281 66.4828 17.3321 66.0908 16.9121C65.9828 16.7961 65.8908 16.6401 65.7908 16.5041C65.7108 16.3961 65.4748 16.0401 65.3708 15.7601C64.6588 13.8641 65.4548 10.2281 66.2348 8.28012C66.3268 8.05612 66.4388 7.76812 66.5588 7.52412C66.7068 7.22012 66.8348 6.88012 66.9548 6.69612C67.0348 6.57212 67.1348 6.49212 67.2188 6.37212C67.3148 6.23212 67.4268 6.09612 67.5308 5.97612C67.8188 5.64411 68.1468 5.40812 68.5388 5.11212C69.8388 4.14012 72.1868 3.38412 75.0108 3.67212C76.0748 3.78012 77.6788 4.16012 78.4628 5.25612C78.6708 5.55212 78.7748 6.13211 78.8908 6.55612ZM74.9708 7.84012C74.5348 7.16412 74.1308 7.00812 72.9788 6.97212C69.7308 6.86812 69.7908 9.27612 69.7908 9.27612L75.3628 9.31212C75.3668 9.31212 75.4828 8.62812 74.9708 7.84012ZM61.7388 3.81212L59.1508 14.6001C59.1508 14.6001 57.7188 14.6121 57.2828 14.6001C55.9028 14.5681 55.4508 14.5241 55.1268 13.8801C54.7868 13.2041 55.1108 12.3481 55.2708 11.4361C55.7108 8.89212 56.7748 3.79211 56.7748 3.79211L53.0188 3.82812C53.0188 3.82812 52.3028 7.10412 51.9628 8.70412C51.4828 10.9681 50.4588 14.3001 51.5308 16.3281C52.6348 18.4161 55.2308 18.0521 58.1468 18.0521H62.3188C63.3468 13.3761 65.3708 3.79211 65.3708 3.79211L61.7388 3.81212ZM47.5308 14.6201C48.6468 14.7201 49.6228 14.6041 49.6948 14.6881C49.7668 14.7961 48.9468 18.1401 48.6588 18.1481C47.7748 18.1721 44.8388 18.1961 43.6148 18.1961C39.6188 18.1961 35.8828 18.4561 33.9788 16.4721C33.2028 15.6641 32.6708 14.2801 32.5388 13.3081C32.3228 11.6841 32.5948 9.89211 32.9708 8.42012C33.3108 7.08812 33.7508 5.83212 34.4108 4.68012C36.0908 1.75212 39.0108 -0.423885 43.9028 0.0761154C44.8508 0.172115 46.2148 0.588115 47.0668 1.08412C47.1268 1.12012 47.3308 1.28412 47.3788 1.31212C48.5308 2.04412 49.5788 3.79212 49.7988 5.40012C50.2148 8.40412 48.6268 11.7281 47.5308 14.6201ZM45.6308 6.68812C45.5548 5.38811 44.4628 4.20412 43.7628 3.95612C41.6428 3.20812 39.6588 4.25212 38.8708 5.10812C37.8508 6.21212 37.5068 7.50412 37.1428 9.28012C36.8748 10.6001 36.6548 11.9921 37.1428 13.0201C38.0068 14.8401 40.7068 14.4401 43.6148 14.4601C44.0468 13.3041 44.4028 12.0041 44.7668 10.7201C45.1468 9.36812 45.7028 7.90412 45.6308 6.68812ZM27.3628 7.26412H31.3908C31.6468 6.17612 31.8868 4.92812 32.1268 3.82812C30.7108 3.82812 29.5148 3.81212 28.2228 3.81212C27.9148 4.86012 27.6748 6.06012 27.3628 7.26412ZM25.6388 14.8881C25.0468 17.6801 24.9668 20.5801 21.8988 20.2081C21.6068 21.2881 21.2348 22.7321 20.9028 23.9361C22.1628 23.9641 23.3188 24.0601 24.3428 23.9481C24.9748 23.8801 26.1108 23.6081 26.3548 23.3721C26.4548 23.2761 26.5228 23.3201 26.6428 23.2281C27.9788 22.1841 28.3068 20.7441 28.7988 18.7681C29.5868 15.6121 30.5908 11.0801 31.0988 8.26812H27.2148C27.0228 8.91612 25.9828 13.2721 25.6388 14.8881Z" fill="white"/>
</g>
<defs>
<clipPath id="clip0_3740_2813">
<rect width="105.608" height="24" fill="white"/>
</clipPath>
</defs>
</svg>
