<svg width="82" height="22" viewBox="0 0 82 22" fill="none" xmlns="http://www.w3.org/2000/svg">
<g clip-path="url(#clip0_3740_2815)">
<path d="M15.6493 9.405H8.822C8.646 9.405 8.503 9.548 8.503 9.724V13.0607C8.503 13.2367 8.646 13.3797 8.822 13.3797H11.484V17.5267C11.484 17.5267 10.8863 17.732 9.23267 17.732C7.282 17.732 4.55767 17.0207 4.55767 11.0257C4.55767 5.03067 7.39567 4.24233 10.0577 4.24233C12.364 4.24233 13.3577 4.64933 13.9883 4.84367C14.1863 4.906 14.3697 4.708 14.3697 4.532L15.1323 1.30533C15.1323 1.22467 15.103 1.122 15.0113 1.056C14.7547 0.876333 13.189 0 9.23267 0C4.675 0 0 1.93967 0 11.2603C0 20.581 5.35333 21.9707 9.86333 21.9707C13.5997 21.9707 15.862 20.3757 15.862 20.3757C15.9537 20.3243 15.9647 20.1923 15.9647 20.1337V9.724C15.9683 9.548 15.8253 9.405 15.6493 9.405ZM50.8163 1.166C50.8163 0.99 50.677 0.843333 50.501 0.843333H46.6583C46.4823 0.843333 46.3393 0.986333 46.3393 1.166V8.59467H40.348V1.166C40.348 0.99 40.205 0.843333 40.029 0.843333H36.1827C36.0067 0.843333 35.8637 0.986333 35.8637 1.166V21.2813C35.8637 21.4573 36.0067 21.604 36.1827 21.604H40.0253C40.2013 21.604 40.3443 21.461 40.3443 21.2813V12.6793H46.3357C46.3357 12.6793 46.3247 21.2813 46.3247 21.285C46.3247 21.461 46.4677 21.6077 46.6437 21.6077H50.4973C50.6733 21.6077 50.8127 21.4647 50.8163 21.285V1.166ZM22.891 3.85733C22.891 2.47133 21.78 1.353 20.4123 1.353C19.0447 1.353 17.9337 2.47133 17.9337 3.85733C17.9337 5.23967 19.0447 6.36167 20.4123 6.36167C21.78 6.36167 22.891 5.23967 22.891 3.85733ZM22.5867 17.05V7.766C22.5867 7.59 22.4437 7.447 22.2677 7.447H18.436C18.26 7.447 18.1023 7.62667 18.1023 7.80633V21.109C18.1023 21.5013 18.3443 21.615 18.6597 21.615H22.1137C22.4913 21.615 22.5867 21.428 22.5867 21.1017V17.05ZM65.5087 7.44333H61.6953C61.5193 7.44333 61.3763 7.58633 61.3763 7.766V17.6293C61.3763 17.6293 60.4083 18.337 59.0333 18.337C57.6583 18.337 57.2917 17.7137 57.2917 16.3643V7.766C57.2917 7.59 57.1487 7.44333 56.9727 7.44333H53.1007C52.9247 7.44333 52.7817 7.58633 52.7817 7.766V17.017C52.7817 21.0173 55.011 21.9963 58.08 21.9963C60.5953 21.9963 62.6267 20.6067 62.6267 20.6067C62.6267 20.6067 62.722 21.34 62.766 21.4243C62.81 21.5123 62.9237 21.5967 63.0483 21.5967L65.5123 21.5857C65.6883 21.5857 65.8313 21.4427 65.8313 21.263V7.75867C65.824 7.58633 65.6847 7.44333 65.5087 7.44333ZM74.2977 18.3443C72.974 18.304 72.0757 17.7027 72.0757 17.7027V11.3337C72.0757 11.3337 72.9593 10.791 74.0483 10.6957C75.4233 10.571 76.747 10.989 76.747 14.2633C76.7433 17.721 76.1493 18.403 74.2977 18.3443ZM75.801 7.01067C73.634 7.01067 72.16 7.97867 72.16 7.97867V1.166C72.16 0.99 72.017 0.843333 71.841 0.843333H67.9873C67.8113 0.843333 67.6683 0.986333 67.6683 1.166V21.2813C67.6683 21.4573 67.8113 21.604 67.9873 21.604H70.6603C70.7813 21.604 70.873 21.5417 70.939 21.4317C71.005 21.3253 71.1003 20.504 71.1003 20.504C71.1003 20.504 72.677 21.9963 75.6617 21.9963C79.1633 21.9963 81.1727 20.218 81.1727 14.0177C81.1727 7.81733 77.968 7.01067 75.801 7.01067ZM33.649 7.41033H30.767L30.7633 3.60067C30.7633 3.45767 30.69 3.38433 30.5213 3.38433H26.5907C26.4367 3.38433 26.356 3.45033 26.356 3.597V7.535C26.356 7.535 24.387 8.01167 24.255 8.04833C24.123 8.085 24.024 8.20967 24.024 8.35633V10.8313C24.024 11.011 24.167 11.154 24.343 11.154H26.356V17.105C26.356 21.527 29.458 21.9597 31.548 21.9597C32.505 21.9597 33.649 21.6517 33.836 21.582C33.9497 21.5417 34.0157 21.4207 34.0157 21.2923L34.0193 18.5717C34.0193 18.3957 33.869 18.249 33.7003 18.249C33.5317 18.249 33.1027 18.3187 32.659 18.3187C31.2437 18.3187 30.7633 17.6587 30.7633 16.808C30.7633 15.9573 30.7633 11.154 30.7633 11.154H33.6453C33.8213 11.154 33.9643 11.011 33.9643 10.8313V7.733C33.968 7.55333 33.825 7.41033 33.649 7.41033Z" fill="white"/>
</g>
<defs>
<clipPath id="clip0_3740_2815">
<rect width="81.18" height="22" fill="white"/>
</clipPath>
</defs>
</svg>
