<svg width="117" height="22" viewBox="0 0 117 22" fill="none" xmlns="http://www.w3.org/2000/svg">
<g clip-path="url(#clip0_3740_2829)">
<path d="M14.887 2.21833C16.4674 3.102 18.968 12.716 16.273 17.545C13.9447 21.7287 8.66103 23.232 4.48103 20.9037C0.297358 18.5753 -1.26831 13.2623 1.12602 9.11167C1.61002 8.27567 2.33602 7.502 2.50836 7.326C2.59636 7.238 3.08036 7.54233 2.93002 7.788C2.13802 10.56 2.51202 12.4777 3.46536 14.3C3.53502 14.3403 3.87969 14.498 3.92002 14.3623C4.12902 8.668 7.09903 5.12233 10.619 2.717C12.6284 2.09367 14.304 1.892 14.887 2.21833ZM35.985 14.3147H24.7834C24.9264 17.028 27.218 19.14 30.0304 19.14C32.0544 19.14 33.2754 18.26 34.1994 17.3947C34.61 17.017 34.9657 16.852 35.3947 16.852C36.2417 16.852 36.8577 17.4533 36.8577 18.282C36.8577 18.4763 36.8064 18.986 36.315 19.5103C34.6834 21.1897 32.63 22 30.0304 22C24.8897 22 21.3 18.4213 21.3 13.3027C21.3 8.22433 24.9007 4.53567 29.858 4.53567C34.181 4.53567 37.1217 7.13533 37.723 11.4913C37.7927 11.9827 37.7927 12.232 37.7927 12.5767C37.7964 13.7463 37.2024 14.3147 35.985 14.3147ZM34.379 11.7333C34.2727 8.96867 32.5457 7.25267 29.858 7.25267C27.2034 7.25267 25.04 9.174 24.787 11.7333H34.379ZM48.492 4.53567C46.2407 4.53567 44.0077 5.83 43.1387 7.63033V6.51933C43.1387 4.796 41.804 4.708 41.5364 4.708C40.7444 4.708 39.901 5.18467 39.901 6.51933V19.9467C39.901 21.736 41.3237 21.824 41.606 21.824C41.8884 21.824 43.311 21.7323 43.311 19.9467V12.749C43.311 9.61767 45.0857 7.42867 47.6267 7.42867C50.087 7.42867 51.286 9.04567 51.286 12.3677V19.9467C51.286 21.736 52.7087 21.824 52.991 21.824C53.2734 21.824 54.696 21.7323 54.696 19.9467V11.2933C54.696 8.02633 53.068 4.53567 48.492 4.53567ZM70.1364 4.708C69.348 4.708 68.776 5.16633 68.435 6.072L63.7674 17.8127L59.1364 6.072C58.7734 5.15533 58.205 4.708 57.402 4.708C56.4597 4.708 55.697 5.44133 55.697 6.34333C55.697 6.567 55.7227 6.85667 55.9097 7.30767L61.274 19.976C61.912 21.505 62.9644 21.824 63.7344 21.824C64.5044 21.824 65.5567 21.505 66.1947 19.976L71.5957 7.238C71.779 6.79067 71.8084 6.46433 71.8084 6.30667C71.8084 5.39733 71.086 4.708 70.1364 4.708ZM80.0547 4.532C84.396 4.532 86.9884 6.96667 86.9884 11.0477V20.0823C86.9884 21.7727 85.6134 21.824 85.4557 21.824C84.715 21.824 83.8534 21.3693 83.8534 20.0823V19.2207C82.6287 21.0137 80.7184 21.9633 78.3277 21.9633C75.3247 21.9633 72.296 20.3757 72.296 16.83C72.296 11.902 78.0564 11.22 83.7177 11.2127V10.8423C83.7177 8.60567 82.2694 7.32233 79.7467 7.32233C78.4267 7.32233 77.2094 7.72567 75.915 8.591C75.585 8.822 75.2257 8.95033 74.903 8.95033C74.1587 8.95033 73.5757 8.35267 73.5757 7.59C73.5757 7.03633 73.825 6.59633 74.3347 6.24433C75.838 5.14067 77.873 4.53567 80.0547 4.532ZM75.772 16.7603C75.772 19.063 78.28 19.2427 79.05 19.2427C81.8807 19.2427 83.714 17.3837 83.714 14.509V13.7243H82.9954C79.8934 13.728 75.772 14.0397 75.772 16.7603ZM95.8727 7.80633C97.3651 7.80633 97.442 6.644 97.442 6.413C97.442 5.72367 97.0314 4.983 95.8727 4.983H92.8037V1.87733C92.8037 0.491333 91.9054 0 91.1317 0C90.8457 0 89.4267 0.0916667 89.4267 1.87733V16.621C89.4267 20.0237 91.106 21.824 94.2814 21.824C95.1027 21.824 95.9057 21.6773 96.4264 21.4353C97.0277 21.1347 97.3724 20.6433 97.3724 20.086C97.3724 19.2977 96.8004 18.7257 96.0121 18.7257C95.8581 18.7257 95.6417 18.7623 95.4034 18.832C95.1101 18.9053 94.9121 18.9347 94.6957 18.9347C93.4051 18.9347 92.8 18.0913 92.8 16.28V7.81L95.8727 7.80633ZM107.155 4.53567C112.332 4.53567 116.094 8.195 116.094 13.233C116.094 18.2307 112.252 22 107.155 22C104.695 22 102.436 21.1237 100.804 19.5287C99.1581 17.9227 98.2524 15.686 98.2524 13.233C98.2487 8.19133 101.996 4.53567 107.155 4.53567ZM112.545 13.233C112.545 9.22167 109.751 7.39567 107.155 7.39567C104.559 7.39567 101.765 9.22167 101.765 13.233C101.765 16.1517 103.617 19.107 107.155 19.107C109.751 19.107 112.545 17.2663 112.545 13.233Z" fill="white"/>
</g>
<defs>
<clipPath id="clip0_3740_2829">
<rect width="116.094" height="22" fill="white"/>
</clipPath>
</defs>
</svg>
