<svg width="121" height="24" viewBox="0 0 121 24" fill="none" xmlns="http://www.w3.org/2000/svg">
<g clip-path="url(#clip0_3740_2817)">
<path opacity="0.5" d="M28.0314 17.088C27.9354 16.896 20.9274 3.02396 20.8314 2.83196C20.4474 1.96796 19.8234 1.15196 18.9114 0.671963C16.7514 -0.624037 13.9194 0.143963 12.6714 2.30396C11.8074 3.79196 11.8554 5.56796 12.7194 6.95996C12.8154 7.15196 19.4874 20.448 19.6314 20.64C19.7274 20.832 19.8234 21.024 19.9194 21.216C20.3034 22.08 20.9274 22.896 21.8394 23.376C23.9994 24.672 26.8314 23.904 28.0794 21.744C28.9434 20.256 28.8954 18.48 28.0314 17.088Z" fill="white"/>
<path d="M19.968 7.68C20.736 6.864 21.216 5.76 21.216 4.56C21.216 2.016 19.152 0 16.656 0C15.12 0 13.728 0.768 12.912 1.968C12.72 2.112 1.344 16.128 1.248 16.32C0.48 17.136 0 18.24 0 19.44C0 21.936 2.064 24 4.56 24C6.096 24 7.488 23.232 8.304 22.032C8.448 21.888 19.824 7.872 19.968 7.68Z" fill="white"/>
<path d="M39.5032 7.68C40.2712 6.864 40.7512 5.76 40.7512 4.56C40.7512 2.016 38.6872 0 36.1912 0C34.6552 0 33.2632 0.768 32.4472 1.968C32.3032 2.112 20.9272 16.128 20.7832 16.32C20.0152 17.136 19.5352 18.24 19.5352 19.44C19.5352 21.984 21.5992 24 24.0952 24C25.6312 24 27.0232 23.232 27.8392 22.032C28.0312 21.888 39.4072 7.872 39.5032 7.68Z" fill="white"/>
<path d="M63.0243 12.2403C61.9683 13.2483 60.3843 13.7763 58.2243 13.7763H54.7203V21.4563H52.3203V3.07227H58.2723C60.3363 3.07227 61.9203 3.55227 63.0243 4.56027C64.1283 5.56827 64.6563 6.86427 64.6563 8.44827C64.6083 9.98427 64.0803 11.2323 63.0243 12.2403ZM61.2003 10.9443C61.8243 10.3683 62.1603 9.55227 62.1603 8.44827C62.1603 6.19227 60.8643 5.04027 58.2723 5.04027H54.7203V11.8083H58.2723C59.5683 11.8083 60.5763 11.5203 61.2003 10.9443Z" fill="white"/>
<path d="M70.2239 20.7841C69.1199 20.1601 68.2559 19.2961 67.6319 18.1441C67.0079 16.9921 66.6719 15.6961 66.6719 14.2081C66.6719 12.7201 67.0079 11.4241 67.6319 10.2721C68.2559 9.12007 69.1679 8.25607 70.2719 7.68007C71.3759 7.05607 72.6239 6.76807 74.0159 6.76807C75.4079 6.76807 76.6079 7.05607 77.7599 7.68007C78.8639 8.30407 79.7279 9.16807 80.3999 10.2721C81.0239 11.3761 81.3599 12.7201 81.3599 14.2081C81.3599 15.6961 81.0239 17.0401 80.3519 18.1441C79.6799 19.2961 78.8159 20.1601 77.6639 20.7841C76.5599 21.4081 75.3119 21.6961 73.9199 21.6961C72.5279 21.6961 71.3279 21.4081 70.2239 20.7841ZM76.3199 18.9601C77.0879 18.5761 77.7119 17.9521 78.1439 17.1361C78.6239 16.3201 78.8639 15.3601 78.8639 14.1601C78.8639 12.9601 78.6239 12.0001 78.1919 11.1841C77.7119 10.3681 77.1359 9.79207 76.4159 9.36007C75.6959 8.97607 74.8799 8.78407 74.0159 8.78407C73.1519 8.78407 72.3359 8.97607 71.6159 9.36007C70.8959 9.74407 70.3199 10.3681 69.8399 11.1841C69.4079 12.0001 69.1679 12.9601 69.1679 14.1601C69.1679 15.3601 69.3599 16.3201 69.7919 17.1361C70.2239 17.9521 70.7999 18.5281 71.5199 18.9601C72.2399 19.3441 73.0559 19.5361 73.8719 19.5361C74.7839 19.5841 75.5519 19.3921 76.3199 18.9601Z" fill="white"/>
<path d="M88.7033 7.39221C89.4713 6.91221 90.4314 6.72021 91.5834 6.72021V9.21621H90.9594C88.2713 9.21621 86.9273 10.6562 86.9273 13.5842V21.4562H84.5273V7.00822H86.9273V9.36021C87.3113 8.49621 87.9353 7.87221 88.7033 7.39221Z" fill="white"/>
<path d="M97.2486 8.97611V17.5201C97.2486 18.2401 97.3926 18.7201 97.6806 19.0081C97.9686 19.2961 98.4966 19.4401 99.2166 19.4401H100.993V21.4561H98.8806C97.5366 21.4561 96.5286 21.1681 95.8566 20.5441C95.1846 19.9201 94.8486 18.9121 94.8486 17.5201V8.97611H92.9766V7.00811H94.8486V3.36011H97.2486V7.00811H101.041V8.97611H97.2486Z" fill="white"/>
<path d="M104.015 4.17609C103.679 3.84009 103.535 3.45609 103.535 3.02409C103.535 2.54409 103.679 2.16009 104.015 1.87209C104.351 1.53609 104.735 1.39209 105.167 1.39209C105.599 1.39209 105.983 1.53609 106.271 1.87209C106.559 2.20809 106.751 2.59209 106.751 3.02409C106.751 3.50409 106.607 3.88809 106.271 4.17609C105.983 4.51209 105.599 4.65609 105.167 4.65609C104.735 4.65609 104.351 4.46409 104.015 4.17609ZM106.367 7.00809V21.4561H103.967V7.00809H106.367Z" fill="white"/>
<path d="M112.557 21.1202C111.693 20.7362 110.973 20.2082 110.493 19.5362C109.965 18.8642 109.677 18.0962 109.629 17.1842H112.125C112.173 17.9042 112.557 18.4802 113.133 18.9602C113.757 19.4402 114.525 19.6322 115.533 19.6322C116.445 19.6322 117.165 19.4402 117.693 19.0082C118.221 18.6242 118.461 18.0962 118.461 17.4722C118.461 16.8482 118.173 16.3682 117.597 16.0802C117.021 15.7922 116.157 15.4562 115.005 15.1682C113.949 14.8802 113.037 14.5922 112.365 14.3042C111.693 14.0162 111.117 13.5842 110.637 13.0082C110.157 12.4322 109.917 11.6642 109.917 10.7522C109.917 10.0322 110.157 9.31221 110.589 8.73621C111.021 8.11222 111.645 7.63221 112.461 7.24821C113.277 6.86422 114.189 6.72021 115.245 6.72021C116.829 6.72021 118.125 7.10421 119.133 7.92021C120.141 8.73621 120.669 9.84021 120.717 11.2322H118.317C118.269 10.4642 117.981 9.88821 117.405 9.40821C116.829 8.92821 116.109 8.73621 115.197 8.73621C114.333 8.73621 113.661 8.92821 113.133 9.31221C112.605 9.69621 112.365 10.1762 112.365 10.7522C112.365 11.2322 112.509 11.6162 112.845 11.9042C113.133 12.1922 113.517 12.4802 113.997 12.6242C114.477 12.8162 115.101 13.0082 115.917 13.2482C116.973 13.5362 117.789 13.8242 118.461 14.0642C119.133 14.3522 119.661 14.7362 120.141 15.3122C120.621 15.8402 120.861 16.5602 120.861 17.4722C120.861 18.2402 120.621 18.9602 120.189 19.6322C119.757 20.2562 119.133 20.7842 118.317 21.1202C117.501 21.5042 116.589 21.6482 115.581 21.6482C114.429 21.6962 113.469 21.5042 112.557 21.1202Z" fill="white"/>
</g>
<defs>
<clipPath id="clip0_3740_2817">
<rect width="120.816" height="24" fill="white"/>
</clipPath>
</defs>
</svg>
