<svg width="134" height="26" viewBox="0 0 134 26" fill="none" xmlns="http://www.w3.org/2000/svg">
<g clip-path="url(#clip0_3740_2831)">
<path d="M6.656 24.388C6.032 25.324 4.888 26 3.64 26C1.612 26 0 24.388 0 22.36C0 21.372 0.416 20.436 1.04 19.812C1.196 19.604 15.6 1.82 15.808 1.612C16.432 0.676 17.576 0 18.824 0C20.852 0 22.464 1.612 22.464 3.64C22.464 4.628 22.048 5.564 21.424 6.188C21.268 6.396 6.812 24.18 6.656 24.388ZM29.744 14.612C30.42 13.936 30.784 13.052 30.784 12.064C30.784 10.036 29.172 8.424 27.144 8.424C25.896 8.424 24.752 9.1 24.128 10.036C23.972 10.192 16.38 19.552 16.224 19.76C15.548 20.436 15.184 21.32 15.184 22.308C15.184 24.336 16.796 25.948 18.824 25.948C20.072 25.948 21.216 25.272 21.84 24.336C22.048 24.18 29.64 14.82 29.744 14.612ZM34.06 0C32.032 0 30.42 1.612 30.42 3.64C30.42 5.668 32.032 7.28 34.06 7.28C36.088 7.28 37.7 5.668 37.7 3.64C37.7 1.612 36.036 0 34.06 0ZM3.64 0C1.612 0 0 1.612 0 3.64C0 5.668 1.612 7.28 3.64 7.28C5.668 7.28 7.28 5.668 7.28 3.64C7.28 1.612 5.616 0 3.64 0ZM48.828 23.244H51.324V6.396H57.096V4.316H43.056V6.396H48.828V23.244ZM57.824 23.244H60.268V16.016C60.268 15.6 60.32 15.184 60.372 14.872C60.684 13 61.932 11.7 63.7 11.7C64.012 11.7 64.272 11.752 64.532 11.804V9.464C64.324 9.412 64.116 9.36 63.804 9.36C62.14 9.36 60.684 10.504 60.06 12.324H59.956L59.852 9.672H57.72C57.824 10.92 57.824 12.324 57.824 13.936V23.244ZM78.416 9.672H75.92V17.992C75.92 18.46 75.816 18.876 75.712 19.24C75.244 20.332 74.1 21.476 72.436 21.476C70.2 21.476 69.42 19.76 69.42 17.16V9.672H66.924V17.628C66.924 22.412 69.472 23.556 71.604 23.556C73.996 23.556 75.452 22.1 76.076 21.008H76.128L76.284 23.244H78.468C78.364 22.152 78.364 20.956 78.364 19.552V9.672H78.416ZM81.536 22.62C82.472 23.192 83.876 23.556 85.332 23.556C88.556 23.556 90.428 21.892 90.428 19.5C90.428 17.472 89.232 16.276 86.84 15.392C85.072 14.716 84.24 14.196 84.24 13.104C84.24 12.116 85.072 11.232 86.528 11.232C87.776 11.232 88.764 11.7 89.284 12.012L89.908 10.192C89.128 9.724 87.932 9.36 86.58 9.36C83.668 9.36 81.9 11.18 81.9 13.364C81.9 14.976 83.044 16.328 85.488 17.212C87.308 17.888 88.036 18.512 88.036 19.708C88.036 20.852 87.204 21.736 85.384 21.736C84.136 21.736 82.836 21.216 82.108 20.748L81.536 22.62ZM94.172 6.396V9.672H92.092V11.544H94.172V18.98C94.172 20.592 94.432 21.788 95.108 22.516C95.68 23.192 96.616 23.556 97.76 23.556C98.696 23.556 99.476 23.4 99.944 23.244L99.84 21.372C99.528 21.476 99.06 21.528 98.384 21.528C97.032 21.528 96.512 20.592 96.512 18.876V11.544H100.048V9.672H96.512V5.772L94.172 6.396ZM117.416 13.312H111.176V15.288H115.024V20.956C114.452 21.216 113.36 21.476 111.748 21.476C107.328 21.476 104.468 18.616 104.468 13.832C104.468 9.1 107.484 6.24 112.06 6.24C113.984 6.24 115.232 6.604 116.22 7.072L116.792 5.096C115.96 4.68 114.244 4.212 112.06 4.212C105.716 4.212 101.816 8.32 101.816 13.988C101.816 16.952 102.804 19.448 104.468 21.06C106.34 22.828 108.68 23.556 111.54 23.556C114.088 23.556 116.272 22.932 117.364 22.516V13.312H117.416ZM126.932 9.36C123.188 9.36 120.172 12.012 120.172 16.588C120.172 20.904 123.032 23.556 126.672 23.556C129.948 23.556 133.432 21.372 133.432 16.328C133.484 12.168 130.832 9.36 126.932 9.36ZM126.88 11.18C129.792 11.18 130.936 14.092 130.936 16.38C130.936 19.448 129.168 21.684 126.828 21.684C124.436 21.684 122.72 19.448 122.72 16.484C122.72 13.884 123.968 11.18 126.88 11.18Z" fill="white"/>
</g>
<defs>
<clipPath id="clip0_3740_2831">
<rect width="133.484" height="26" fill="white"/>
</clipPath>
</defs>
</svg>
