<svg width="171" height="38" viewBox="0 0 171 38" fill="none" xmlns="http://www.w3.org/2000/svg">
<g clip-path="url(#clip0_2990_203)">
<path d="M66.627 12.0967C67.6403 12.73 68.527 13.6167 69.097 14.82C69.7303 16.0233 70.047 17.48 70.047 19.0633C70.047 20.6467 69.7303 22.04 69.0337 23.2433C68.4003 24.4467 67.4503 25.3333 66.247 25.9033C65.0437 26.5367 63.587 26.8533 62.067 26.8533C61.1803 26.8533 60.357 26.6633 59.597 26.3467C58.7736 26.0933 58.077 25.65 57.507 25.08V33.44H52.8203V11.4633H56.8103L57.1903 13.2367C58.9637 11.78 60.8637 11.0833 62.8903 11.0833C64.2837 11.02 65.5503 11.3367 66.627 12.0967ZM64.0303 22.04C64.8537 21.3433 65.2337 20.33 65.2337 19.1267C65.2337 17.9233 64.8537 16.9733 64.0937 16.15C63.397 15.3267 62.3837 15.01 61.3703 15.01C60.4837 15.01 59.6603 15.2 59.027 15.58C58.3936 15.8967 57.887 16.4667 57.507 17.1633V20.7733C57.7603 21.47 58.2037 22.04 58.7737 22.4833C59.407 22.8633 60.167 23.1167 61.0537 23.1167C62.257 23.18 63.207 22.8 64.0303 22.04Z" fill="#717988"/>
<path d="M72.7711 14.8834C73.4678 13.7434 74.4811 12.7934 75.7478 12.1601C77.0145 11.5267 78.4711 11.1467 80.0545 11.1467C81.6378 11.1467 83.0945 11.4634 84.3611 12.1601C85.5645 12.7934 86.5145 13.7434 87.2745 14.9467C88.0345 16.1501 88.2878 17.4167 88.2878 18.9367C88.2878 20.4567 87.9711 21.7234 87.2745 22.9267C86.5778 24.1301 85.6911 25.0801 84.3611 25.7134C83.1578 26.3467 81.6378 26.7267 80.0545 26.7267C78.4711 26.7267 77.0145 26.4101 75.7478 25.7767C74.4811 25.1434 73.4678 24.2567 72.7711 23.0534C72.1378 21.8501 71.7578 20.4567 71.7578 18.8734C71.7578 17.4801 72.1378 16.0867 72.7711 14.8834ZM77.5211 21.9134C78.1545 22.7367 79.0411 23.0534 80.1178 23.0534C81.1945 23.0534 82.0178 22.6734 82.7145 21.9134C83.3478 21.2167 83.6645 20.1401 83.6645 19.0001C83.6645 17.7967 83.3478 16.8467 82.7145 16.0867C82.0178 15.2634 81.1945 14.8834 80.0545 14.8834C79.0411 14.8834 78.2178 15.2634 77.4578 16.0234C76.8245 16.8467 76.5078 17.7967 76.5078 19.0001C76.5078 20.1401 76.8245 21.0901 77.5211 21.9134Z" fill="#717988"/>
<path d="M95.9484 0.0632324V26.4732H91.2617V0.0632324H95.9484Z" fill="#717988"/>
<path d="M115.012 11.8433L105.512 33.5033H101.015L104.562 25.7133L97.7852 11.8433H103.105L106.968 20.5199L110.832 11.8433H115.012Z" fill="#717988"/>
<path d="M132.872 11.8432V26.4732C132.872 27.8665 132.492 29.1332 131.669 30.2732C130.846 31.4132 129.832 32.2999 128.439 32.9332C127.046 33.5665 125.652 33.8832 124.006 33.8832C122.802 33.8832 121.726 33.6932 120.902 33.5032C120.016 33.1865 119.319 32.8699 118.749 32.5532C118.116 32.1732 117.482 31.6665 116.722 31.0332L119.446 27.8032C120.079 28.4365 120.839 28.9432 121.472 29.2599C122.106 29.5765 122.992 29.8299 123.942 29.8299C125.146 29.8299 126.096 29.5132 126.919 28.9432C127.742 28.3732 128.122 27.4865 128.122 26.4732V24.3832C127.616 25.0799 126.982 25.7765 126.032 26.2199C125.082 26.7265 123.942 26.9165 122.676 26.9165C121.409 26.9165 120.079 26.5999 119.002 25.9032C117.862 25.2699 116.976 24.3199 116.279 23.1165C115.646 21.9132 115.266 20.6465 115.266 19.1899C115.266 17.7332 115.582 16.4032 116.279 15.1999C116.976 13.9965 117.862 13.0465 119.066 12.2865C120.206 11.5899 121.409 11.2732 122.676 11.2732C123.879 11.2732 124.956 11.4632 125.906 11.7799C126.856 12.0965 127.616 12.6032 128.059 13.1732L128.566 12.0332H132.872V11.8432ZM128.122 20.8365V17.2265C127.806 16.5299 127.299 15.9599 126.602 15.5165C125.906 15.1365 125.082 14.8832 124.132 14.8832C122.992 14.8832 122.042 15.2632 121.219 16.0232C120.396 16.7832 120.016 17.7332 120.016 18.9365C120.016 20.0765 120.396 21.0899 121.219 21.9132C122.042 22.7365 122.992 23.1165 124.132 23.1165C125.969 22.9899 127.362 22.2932 128.122 20.8365Z" fill="#717988"/>
<path d="M136.739 14.883C137.436 13.6797 138.449 12.793 139.716 12.0963C140.982 11.463 142.439 11.083 144.022 11.083C145.606 11.083 147.062 11.3997 148.329 12.0963C149.532 12.7297 150.482 13.6797 151.242 14.883C151.876 16.0863 152.256 17.353 152.256 18.873C152.256 20.393 151.939 21.6597 151.242 22.863C150.609 24.0663 149.659 25.0163 148.329 25.6497C147.126 26.283 145.606 26.663 144.022 26.663C142.439 26.663 140.982 26.3463 139.716 25.713C138.449 25.0797 137.436 24.193 136.739 22.9897C136.042 21.7863 135.726 20.393 135.726 18.7463C135.662 17.4797 136.042 16.0863 136.739 14.883ZM141.426 21.913C142.059 22.7363 142.946 23.053 144.022 23.053C145.036 23.053 145.922 22.673 146.619 21.913C147.252 21.2163 147.569 20.1397 147.569 18.9997C147.569 17.7963 147.252 16.8463 146.619 16.0863C145.986 15.3897 145.099 14.9463 144.022 14.9463C143.009 14.9463 142.186 15.3263 141.426 16.0863C140.729 16.783 140.412 17.8597 140.412 18.9997C140.412 20.1397 140.729 21.0897 141.426 21.913Z" fill="#717988"/>
<path d="M168.786 12.3497C169.736 13.173 170.179 14.1863 170.242 15.453V26.473H165.492V17.2263C165.429 15.7697 164.669 15.073 163.339 15.073C162.325 15.073 161.439 15.5797 160.742 16.593C160.045 17.6063 159.792 18.9363 159.792 20.4563V26.473H155.105V11.843H159.349L159.665 14.1863C160.235 13.2363 160.932 12.4763 161.945 11.9063C162.895 11.3363 164.036 11.083 165.302 11.083C166.696 11.1463 167.899 11.5263 168.786 12.3497Z" fill="#717988"/>
<path d="M32.87 11.59C32.0467 11.0833 31.0333 11.0833 30.1467 11.59L23.8767 15.2633L19.6333 17.7333L13.3633 21.4067C12.54 21.9133 11.5267 21.9133 10.64 21.4067L5.63667 18.4933C4.81333 17.9867 4.24333 17.1 4.24333 16.15V10.45C4.24333 9.5 4.75 8.61333 5.63667 8.10667L10.5133 5.32C11.3367 4.81333 12.35 4.81333 13.2367 5.32L18.1133 8.10667C18.9367 8.61333 19.5067 9.5 19.5067 10.45V14.1233L23.75 11.6533V7.98C23.75 7.03 23.2433 6.14333 22.3567 5.63667L13.3633 0.38C12.54 -0.126667 11.5267 -0.126667 10.64 0.38L1.39333 5.63667C0.506667 6.14333 0 7.03 0 7.98V18.6833C0 19.6333 0.506667 20.52 1.39333 21.0267L10.64 26.3467C11.4633 26.8533 12.4767 26.8533 13.3633 26.3467L19.6333 22.7367L23.8767 20.2667L30.1467 16.6567C30.97 16.15 31.9833 16.15 32.87 16.6567L37.7467 19.4433C38.57 19.95 39.14 20.8367 39.14 21.7867V27.4867C39.14 28.4367 38.6333 29.3233 37.7467 29.83L32.87 32.7433C32.0467 33.25 31.0333 33.25 30.1467 32.7433L25.27 29.9567C24.4467 29.45 23.8767 28.5633 23.8767 27.6133V23.94L19.6333 26.2833V29.9567C19.6333 30.9067 20.14 31.7933 21.0267 32.3L30.2733 37.62C31.0967 38.1267 32.11 38.1267 32.9967 37.62L42.2433 32.3C43.0667 31.7933 43.6367 30.9067 43.6367 29.9567V19.3167C43.6367 18.3667 43.13 17.48 42.2433 16.9733L32.87 11.59Z" fill="#717988"/>
</g>
<defs>
<clipPath id="clip0_2990_203">
<rect width="170.24" height="38" fill="white"/>
</clipPath>
</defs>
</svg>
