<svg width="144" height="38" viewBox="0 0 144 38" fill="none" xmlns="http://www.w3.org/2000/svg">
<g clip-path="url(#clip0_2990_156)">
<path d="M52.2269 22.5528C52.2269 22.9854 51.8485 23.3561 51.4069 23.3561H35.8274C36.2059 27.1252 39.1073 30.5854 43.2072 30.5854C45.9825 30.5854 48.064 29.535 49.6408 27.3724C49.8931 27.0634 50.2085 26.8781 50.65 27.0634C50.9023 27.187 51.0285 27.3724 51.0916 27.6195C51.1546 27.8667 51.0916 27.9902 50.9654 28.1756C49.3886 30.8325 46.2348 32.1919 43.2072 32.1919C37.972 32.1919 34.1875 27.5577 34.1875 22.6764C34.1875 17.7951 37.9089 13.161 43.2072 13.161C48.4424 13.0374 52.2269 17.6715 52.2269 22.5528ZM50.587 21.8114C50.2716 18.0423 47.3071 14.5821 43.2072 14.5821C39.1073 14.5821 36.2059 18.0423 35.8274 21.8114H50.587ZM71.2125 13.4081C71.654 13.4081 71.9694 13.7789 71.9694 14.1496C71.9694 14.5821 71.654 14.8911 71.2125 14.8911H67.0495V31.0179C67.0495 31.3886 66.7341 31.7594 66.2926 31.7594C65.8511 31.7594 65.5357 31.3886 65.5357 31.0179V14.9528H61.4989C61.0574 14.9528 60.742 14.6439 60.742 14.2114C60.742 13.8407 61.0574 13.4699 61.4989 13.4699H65.5357V7.6C65.5357 7.22927 65.788 6.85854 66.1665 6.79675C66.6711 6.73496 67.1126 7.0439 67.1126 7.53821V13.4699L71.2125 13.4081ZM96.7578 21.1935V30.9561C96.7578 31.3886 96.3793 31.6976 96.0009 31.6976C95.5594 31.6976 95.244 31.3886 95.244 30.9561V21.1935C95.244 17.9187 93.3518 14.6439 89.5673 14.6439C84.7736 14.6439 82.6921 18.7837 82.9444 22.9854C82.9444 23.1089 83.0075 23.6033 83.0075 23.665V31.0179C83.0075 31.3886 82.7552 31.7594 82.3767 31.8211C81.8721 31.8829 81.4306 31.574 81.4306 31.0797V0.741464C81.4306 0.370732 81.746 0 82.1875 0C82.629 0 82.9444 0.370732 82.9444 0.741464V17.0537C84.269 14.7057 86.6658 13.0992 89.5042 13.0992C94.1717 13.0992 96.7578 17.0537 96.7578 21.1935ZM124.826 22.5528C124.826 22.9854 124.448 23.3561 124.006 23.3561H108.364C108.742 27.1252 111.643 30.5854 115.743 30.5854C118.519 30.5854 120.6 29.535 122.177 27.3724C122.429 27.0634 122.745 26.8781 123.186 27.0634C123.438 27.187 123.565 27.3724 123.628 27.6195C123.691 27.8667 123.628 27.9902 123.502 28.1756C121.925 30.8325 118.771 32.1919 115.743 32.1919C110.508 32.1919 106.724 27.5577 106.724 22.6764C106.724 17.7951 110.445 13.161 115.743 13.161C120.979 13.0374 124.763 17.6715 124.826 22.5528ZM123.123 21.8114C122.808 18.0423 119.843 14.5821 115.743 14.5821C111.643 14.5821 108.742 18.0423 108.364 21.8114H123.123ZM144.001 14.1496C144.001 14.6439 143.749 14.8911 143.244 14.9528C138.64 15.6325 136.558 19.278 136.558 23.5415V30.8943C136.558 31.265 136.306 31.6358 135.927 31.6976C135.423 31.7594 134.981 31.4504 134.981 30.9561V14.2114C134.981 13.8407 135.233 13.4699 135.612 13.4081C136.117 13.3463 136.558 13.6553 136.558 14.1496V17.548C137.82 15.3854 140.406 13.4081 143.118 13.4081C143.559 13.4081 144.001 13.7171 144.001 14.1496Z" fill="#717988"/>
<path d="M3.15374 14.6438L0 19.834L11.6058 14.6438H3.15374Z" fill="#434A54"/>
<path d="M11.6044 14.6438V0.926758L3.15234 14.6438H11.6044Z" fill="#434A54"/>
<path d="M11.6058 21.9966V14.6438L0 19.834L3.72142 21.9966H11.6058Z" fill="#717988"/>
<path d="M3.72266 21.9968L11.607 26.5074V21.9968H3.72266Z" fill="#717988"/>
<path d="M20.0575 14.6438L11.6055 0.926758V14.6438H20.0575Z" fill="#5A5F66"/>
<path d="M20.0575 14.6438H11.6055L23.2113 19.834L20.0575 14.6438Z" fill="#5A5F66"/>
<path d="M23.2113 19.834L11.6055 14.6438V21.9966H19.4898L23.2113 19.834Z" fill="#717988"/>
<path d="M11.6055 21.9968V26.5074L19.4898 21.9968H11.6055Z" fill="#717988"/>
<path d="M7.88436 26.5074L0 21.9968L3.27989 26.5074H7.88436Z" fill="#434A54"/>
<path d="M7.88572 26.5073H3.28125L11.6071 38V28.6699L7.88572 26.5073Z" fill="#434A54"/>
<path d="M23.2125 21.9968L15.3281 26.5074H19.9326L23.2125 21.9968Z" fill="#5A5F66"/>
<path d="M15.3269 26.5073L11.6055 28.6699V38L19.9314 26.5073H15.3269Z" fill="#5A5F66"/>
</g>
<defs>
<clipPath id="clip0_2990_156">
<rect width="144" height="38" fill="white"/>
</clipPath>
</defs>
</svg>
