<svg width="139" height="33" viewBox="0 0 139 33" fill="none" xmlns="http://www.w3.org/2000/svg">
<path d="M33.234 14.3365C31.9472 14.3365 30.6044 14.6199 29.4295 15.2432C28.2545 15.8665 27.2474 16.7165 26.4641 17.7932C24.6738 20.0599 23.6667 22.8932 23.7226 25.7832C23.6107 27.6532 24.2262 29.4666 25.4571 30.8832C26.0165 31.5632 26.7439 32.0166 27.5272 32.3566C28.3105 32.6966 29.1497 32.8666 29.989 32.8099C31.2758 32.8099 32.5067 32.5266 33.6257 31.9599C34.7447 31.3932 35.7518 30.5999 36.4791 29.5799C38.4373 27.2566 39.4444 24.2532 39.4444 21.2499C39.5004 19.4932 38.9968 17.7365 37.9898 16.2065C36.9827 15.0166 35.3601 14.3365 33.234 14.3365ZM33.3459 28.0499C32.8983 28.5032 32.3948 28.8432 31.8353 29.0699C31.2758 29.2966 30.6604 29.4666 30.1009 29.4666C29.7092 29.4666 29.2616 29.4099 28.9259 29.2399C28.5343 29.0699 28.2545 28.7866 27.9748 28.5032C27.4153 27.7099 27.1355 26.7465 27.1915 25.8399C27.1355 23.7999 27.695 21.7599 28.87 20.0599C29.3176 19.3232 29.933 18.7566 30.6604 18.3599C31.3877 17.9632 32.2269 17.7365 33.0662 17.7365C34.9685 17.7365 35.9196 18.9265 35.9196 21.3065C35.9756 23.7432 35.0804 26.1799 33.3459 28.0499ZM136.797 22.8365C136.405 22.7232 135.957 22.7232 135.622 22.8932C135.23 23.0632 134.95 23.3465 134.782 23.7432C133.272 27.4832 131.481 29.4099 129.243 29.4099C128.069 29.4099 127.509 28.3899 127.509 26.4632C127.677 24.2532 127.957 22.0999 128.46 19.9466L128.908 17.6799H133.496C133.887 17.6799 134.223 17.5665 134.559 17.2832C134.838 17.0565 135.062 16.6599 135.118 16.3199C135.174 16.0932 135.174 15.8665 135.118 15.5832C135.062 15.3565 134.95 15.1299 134.782 14.9032C134.615 14.6765 134.447 14.5632 134.223 14.4499C133.999 14.3365 133.775 14.2799 133.552 14.2799H129.747L130.53 10.5399C130.586 10.3132 130.586 10.0299 130.53 9.80321C130.474 9.57655 130.362 9.34988 130.195 9.12321C130.027 8.89655 129.859 8.72655 129.579 8.66988C129.355 8.55655 129.132 8.49988 128.852 8.49988C128.46 8.49988 128.069 8.61321 127.789 8.89655C127.509 9.17988 127.285 9.51988 127.173 9.85988L126.166 14.3365H115.48C114.137 14.3365 112.85 14.6199 111.675 15.2432C110.5 15.8665 109.493 16.7165 108.71 17.8499C106.92 20.1166 105.913 22.9499 105.968 25.8399C105.968 26.6332 106.08 27.3699 106.248 28.1632C105.913 28.5599 105.465 28.8999 105.017 29.1266C104.57 29.3532 104.01 29.4666 103.507 29.5232C103.227 29.5232 102.947 29.5232 102.723 29.4099C102.5 29.2966 102.276 29.1266 102.052 28.9566C101.716 28.3899 101.604 27.7099 101.604 27.0299C101.66 25.1032 101.94 23.1765 102.388 21.2499L105.185 8.21655C105.241 7.98988 105.241 7.76321 105.185 7.53655C105.185 7.30988 105.073 7.08321 104.961 6.91321C104.849 6.68655 104.682 6.57321 104.514 6.45988C104.346 6.34655 104.122 6.23321 103.898 6.17655C103.675 6.11988 103.451 6.11988 103.227 6.17655C103.003 6.17655 102.779 6.28988 102.611 6.40321C102.388 6.51655 102.276 6.68655 102.164 6.85655C102.052 7.02655 101.94 7.25321 101.884 7.47988L100.262 15.4132C99.1426 14.7332 97.8558 14.3932 96.513 14.3932C95.2262 14.3932 93.8834 14.6199 92.6525 15.2432C91.4775 15.8099 90.4145 16.6032 89.5753 17.6799C87.673 20.0032 86.7218 22.8932 86.7778 25.8399C86.7778 26.8032 86.8897 27.7099 87.1694 28.6166C86.498 29.1832 85.6588 29.5232 84.8195 29.5232C84.5398 29.5232 84.26 29.5232 83.9803 29.4099C83.7005 29.2966 83.4767 29.1266 83.3089 28.9566C82.9173 28.3899 82.7494 27.7099 82.8613 27.0299C82.9173 25.7266 83.0851 24.4232 83.4208 23.1765C83.4768 22.9499 83.4768 22.7232 83.4208 22.4399C83.3649 22.2132 83.253 21.9866 83.1411 21.7599C82.9732 21.5332 82.8054 21.4199 82.5816 21.3065C82.3578 21.1932 82.134 21.0799 81.9102 21.0799C81.4626 21.0232 81.0709 21.1365 80.7352 21.3632C80.3995 21.5899 80.1198 21.9865 80.0638 22.3832C79.6162 24.2532 78.8329 25.9532 77.7139 27.4832C77.3223 28.1066 76.8187 28.5599 76.2033 28.9566C75.5879 29.2966 74.9165 29.5232 74.1891 29.5799C73.7975 29.5799 73.4618 29.4666 73.1261 29.2966C72.7904 29.0699 72.5666 28.8432 72.3428 28.5032C71.8392 27.6532 71.6154 26.6332 71.6714 25.6132C71.5595 23.6299 72.119 21.5899 73.3499 19.9466C73.8534 19.2666 74.4689 18.6432 75.2522 18.2465C76.0355 17.8499 76.8747 17.6232 77.7139 17.6799C78.6091 17.6799 79.4484 17.9065 80.2876 18.1899C80.5114 18.3032 80.7912 18.3599 81.0709 18.3599C81.3507 18.3599 81.5745 18.2465 81.7983 18.1332C82.078 17.9632 82.2459 17.7365 82.4137 17.4532C82.5816 17.1699 82.6375 16.8866 82.5816 16.5465C82.5256 16.2065 82.4697 15.9232 82.3018 15.6966C82.134 15.4699 81.8542 15.2432 81.6304 15.1299C81.1828 14.9599 80.7352 14.7899 80.2876 14.6765C79.4484 14.4499 78.6091 14.3365 77.7699 14.2799C76.4831 14.2799 75.1403 14.5632 73.9653 15.1299C72.7904 15.6966 71.7273 16.4899 70.8881 17.5099C69.881 18.6432 69.1537 20.0032 68.7061 21.4766C67.0276 26.8032 64.9015 29.4099 62.3838 29.4099C61.9921 29.4099 61.6564 29.4099 61.3207 29.2399C60.985 29.0699 60.7053 28.8432 60.4815 28.5599C60.0339 27.9366 59.866 27.1999 59.866 26.4632C59.866 26.2366 59.866 26.0099 59.922 25.7832C61.4326 25.1599 62.8314 24.1399 63.8385 22.8365C64.7896 21.5899 65.3491 20.0032 65.3491 18.4165C65.3491 15.7532 63.8944 14.3932 60.985 14.3932C59.9779 14.3932 58.9708 14.6199 58.0197 14.9599C57.0686 15.2999 56.2293 15.9232 55.502 16.6599L57.2924 8.15988C57.3483 7.93321 57.3483 7.64988 57.2924 7.42321C57.2364 7.19655 57.1245 6.96988 56.9567 6.74321C56.7888 6.51655 56.621 6.40321 56.3412 6.28988C56.1174 6.17655 55.8936 6.11988 55.6139 6.11988C55.2222 6.11988 54.8306 6.23321 54.5508 6.51655C54.2711 6.74321 54.0473 7.13988 53.9354 7.47988L48.9559 30.8832C48.8999 31.1099 48.8999 31.3932 48.9559 31.6199C49.0118 31.8466 49.1237 32.0732 49.2916 32.2999C49.4594 32.5266 49.6273 32.6399 49.907 32.7532C50.1308 32.8666 50.3546 32.9232 50.6344 32.9232C51.026 32.9232 51.3617 32.7532 51.6974 32.5266C51.9771 32.2999 52.145 31.9032 52.2569 31.5632L53.7675 24.3666C54.0473 23.4032 54.383 22.4965 54.8306 21.5899C55.3901 20.5699 56.1734 19.7199 57.0686 18.9832C58.0197 18.1332 59.1946 17.7365 60.4255 17.7365C60.5934 17.7365 60.7612 17.7365 60.9291 17.7932C61.0969 17.8499 61.2648 17.9632 61.3767 18.0765C61.4886 18.1899 61.6005 18.3599 61.6564 18.5299C61.7124 18.6999 61.7124 18.8699 61.7124 19.0399C61.6564 19.6065 61.4886 20.1166 61.2088 20.6266C60.9291 21.1366 60.5374 21.5332 60.0898 21.8732C59.1387 22.7799 57.9078 23.3465 56.621 23.5732C56.5091 24.5932 56.4531 25.3299 56.4531 25.7832C56.3972 27.6532 56.9007 29.4666 57.9637 30.9966C58.4673 31.6766 59.1387 32.1299 59.866 32.4699C60.5934 32.8099 61.4326 32.9232 62.2719 32.8666C63.3909 32.8666 64.5098 32.5832 65.5169 32.0732C66.524 31.5632 67.4192 30.8266 68.0906 29.9199L68.762 29.1266C68.9858 29.7499 69.3775 30.3166 69.7691 30.8832C70.2727 31.5066 70.944 32.0166 71.6714 32.3566C72.3987 32.6966 73.238 32.8666 74.0213 32.8099C76.3152 32.8099 78.2175 31.7332 79.84 29.4666C80.5114 31.7332 82.134 32.8099 84.8195 32.8099C86.3302 32.8099 87.7849 32.2432 88.9598 31.2799C90.0229 32.2432 91.3656 32.8099 92.7644 32.7532C95.0583 32.7532 96.9606 31.6766 98.5831 29.4099C99.2545 31.6766 100.877 32.7532 103.563 32.7532C105.241 32.7532 106.92 32.1299 108.151 30.9966C108.71 31.5632 109.381 32.0732 110.109 32.3566C110.836 32.6399 111.619 32.8099 112.459 32.8099C113.745 32.8099 114.976 32.5266 116.095 31.9599C117.214 31.3932 118.221 30.5999 118.949 29.5799C120.907 27.2566 121.914 24.3099 121.914 21.2499C121.914 20.0032 121.69 18.8132 121.243 17.6232H125.663L125.215 19.5499C124.656 21.8165 124.32 24.0832 124.152 26.4065C124.152 30.5999 125.887 32.7532 129.243 32.7532C133.048 32.7532 135.901 30.1466 137.972 25.0466C138.084 24.8199 138.084 24.6499 138.084 24.4232C138.084 24.1965 138.028 23.9699 137.972 23.7999C137.86 23.5732 137.748 23.4032 137.58 23.2899C137.188 23.0065 137.02 22.9499 136.797 22.8365ZM98.9188 20.7966C98.3034 23.7432 97.4082 25.8966 96.2892 27.3132C95.2262 28.7299 93.9393 29.4099 92.6525 29.4099C92.2608 29.4099 91.9251 29.2966 91.5894 29.1266C91.2537 28.8999 90.974 28.6732 90.8061 28.3332C90.3585 27.4832 90.0788 26.5199 90.1348 25.5565C90.0229 23.5166 90.6383 21.5332 91.8132 19.8899C92.2049 19.2665 92.7084 18.7566 93.3239 18.3599C93.9393 17.9632 94.6107 17.7365 95.3381 17.6232C96.0654 17.5099 96.7927 17.6232 97.4641 17.8499C98.1355 18.0765 98.751 18.4165 99.3105 18.9265L98.9188 20.7966ZM117.494 24.8766C116.991 25.9532 116.319 27.0299 115.536 27.9932C115.088 28.4466 114.641 28.7866 114.025 29.0699C113.466 29.2966 112.85 29.4666 112.235 29.4666C111.843 29.4666 111.396 29.4099 111.06 29.2399C110.668 29.0699 110.388 28.7866 110.109 28.5032C109.549 27.7099 109.269 26.7465 109.325 25.8399C109.269 23.7999 109.829 21.7599 111.004 20.0599C111.452 19.3799 112.067 18.7566 112.794 18.3599C113.522 17.9632 114.361 17.7365 115.2 17.7365C117.158 17.7365 118.11 18.9265 118.11 21.3065C118.165 22.4965 117.942 23.6866 117.494 24.8766ZM47.725 5.94988C47.3333 5.94988 46.9417 6.06321 46.6619 6.34655C46.3822 6.57321 46.1584 6.96988 46.0465 7.30988L41.067 30.7132C41.011 30.9399 41.011 31.2232 41.067 31.4499C41.1229 31.6766 41.2348 31.9032 41.4027 32.1299C41.5705 32.3566 41.7384 32.4699 42.0181 32.5832C42.2419 32.6966 42.4657 32.7532 42.7455 32.7532C43.1371 32.7532 43.5288 32.6399 43.8085 32.3566C44.0883 32.1299 44.3121 31.7332 44.424 31.3932L49.4035 7.98988C49.4594 7.76321 49.4594 7.47988 49.4035 7.25321C49.3475 7.02655 49.2356 6.79988 49.0678 6.57321C48.8999 6.34655 48.7321 6.23321 48.5083 6.11988C48.2285 6.00655 47.9488 5.94988 47.725 5.94988ZM12.197 0.793213C8.95193 0.793213 5.8747 2.09655 3.58077 4.41988C1.28684 6.74321 0 9.85988 0 13.0899C0 14.4499 0.223798 15.8099 0.671395 17.0565C0.839243 17.5099 1.11899 17.8499 1.56659 18.0199C2.01418 18.1899 2.46178 18.2465 2.85343 18.1332C3.30102 17.9632 3.58077 17.6799 3.80457 17.2265C4.02837 16.7732 4.02837 16.3765 3.91647 15.9232C3.52482 14.9032 3.41292 13.8832 3.46887 12.8065C3.52482 11.1065 4.08432 9.40655 5.03546 7.98988C5.9866 6.57321 7.38534 5.49655 8.95193 4.81655C10.5185 4.13655 12.253 3.96655 13.9314 4.36321C15.6099 4.70321 17.1765 5.49655 18.3515 6.68655C19.5264 7.87655 20.4216 9.40655 20.8132 11.1065C21.2049 12.8065 21.093 14.5632 20.4775 16.1499C19.8621 17.7365 18.855 19.1532 17.4563 20.1732C16.0575 21.1932 14.435 21.8165 12.7565 21.9299C12.7565 21.9299 11.0221 22.0432 10.1828 22.1565C9.84712 22.2132 9.56738 22.2699 9.23168 22.3266H9.17573H9.11978V22.2699V22.2132L9.39953 20.7399L11.0221 13.4299C11.134 12.9765 11.0221 12.5232 10.7983 12.1832C10.5745 11.7865 10.1828 11.5599 9.73522 11.4465C9.28763 11.3332 8.84003 11.4465 8.44838 11.6732C8.05674 11.8999 7.83294 12.2965 7.72104 12.7499C7.72104 12.7499 3.91647 30.6566 3.91647 30.8266C3.86052 31.0532 3.86052 31.2799 3.91647 31.5065C3.91647 31.7332 4.02837 31.9599 4.14027 32.1299C4.25217 32.2999 4.42002 32.4699 4.58786 32.5832C4.75571 32.6966 4.97951 32.8099 5.20331 32.8099C5.37116 32.8666 5.59496 32.8666 5.7628 32.8666C5.9866 32.8666 6.2104 32.7532 6.37825 32.6399C6.5461 32.5266 6.71395 32.3566 6.82585 32.1866C6.93775 32.0166 7.04964 31.7899 7.04964 31.5632C7.10559 31.3366 7.60914 28.9566 7.60914 28.9566C7.77699 28.0499 8.22459 27.2565 8.89598 26.6899C9.56738 26.0665 10.3507 25.6699 11.2459 25.5565C11.6375 25.4999 13.1481 25.3865 13.1481 25.3865C16.2254 25.1032 19.1348 23.6299 21.2049 21.2499C23.275 18.8699 24.3381 15.8099 24.2262 12.6932C24.1143 9.57655 22.8274 6.57321 20.5894 4.36321C18.2955 2.09655 15.2742 0.84988 12.197 0.793213Z" fill="#717988"/>
</svg>
