<svg width="190" height="36" viewBox="0 0 190 36" fill="none" xmlns="http://www.w3.org/2000/svg">
<g clip-path="url(#clip0_2990_191)">
<path d="M62.3713 19.7399H69.642C70.6635 19.7399 71.5048 20.5799 71.5048 21.5999C71.5048 22.6199 70.6635 23.4599 69.642 23.4599H60.8691C60.7489 23.4599 60.5687 23.5199 60.5086 23.5799L57.8647 25.8599C57.4441 26.2199 57.6844 26.8799 58.2252 26.8799H69.2214C69.3416 26.8799 69.5218 26.8799 69.642 26.8799C72.5263 26.8799 74.9298 24.5399 74.9298 21.5999C74.9298 18.8399 72.8267 16.5599 70.0626 16.3199H62.2511C61.2296 16.3199 60.3884 15.4799 60.3884 14.4599C60.3884 13.4399 61.2296 12.5999 62.2511 12.5999H71.0241C71.1442 12.5999 71.3245 12.5399 71.3846 12.4799L73.8482 10.1999C74.2088 9.83993 73.9684 9.17993 73.4877 9.17993H62.4314C62.3713 9.17993 62.3112 9.17993 62.3112 9.17993C59.427 9.17993 57.0234 11.5199 57.0234 14.4599C57.0234 17.3999 59.3669 19.7399 62.3112 19.7399C62.3112 19.7399 62.3112 19.7399 62.3713 19.7399Z" fill="#717988"/>
<path d="M104.734 9.12012C104.433 9.12012 104.133 9.36012 104.133 9.72012V26.2801C104.133 26.5801 104.373 26.8801 104.734 26.8801H118.073C118.254 26.8801 118.374 26.8201 118.494 26.7001L120.176 24.9001C120.537 24.5401 120.237 23.9401 119.756 23.9401H108.159C107.858 23.9401 107.558 23.7001 107.558 23.3401V9.72012C107.558 9.42012 107.318 9.12012 106.957 9.12012H104.734Z" fill="#717988"/>
<path fill-rule="evenodd" clip-rule="evenodd" d="M83.4019 9.12012C81.7195 9.18012 80.3374 10.5601 80.2773 12.2401V23.4001C80.2773 23.4601 80.2773 23.5201 80.2773 23.5201C80.2773 25.2601 81.6594 26.7601 83.4019 26.8201H95.4797C97.2223 26.7601 98.6044 25.3201 98.6044 23.5201C98.6044 23.4601 98.6044 23.4001 98.6044 23.4001V12.3001C98.5443 10.6201 97.1622 9.24012 95.4797 9.18012L83.4019 9.12012ZM85.6252 12.3001C84.5436 12.3601 83.7024 13.2001 83.6423 14.2801V21.3001V21.3601C83.6423 22.4401 84.5436 23.4001 85.6252 23.4001H93.1964C94.278 23.3401 95.1793 22.4401 95.1793 21.3601V21.3001V14.2801C95.1192 13.2001 94.278 12.3601 93.1964 12.3001H85.6252Z" fill="#717988"/>
<path fill-rule="evenodd" clip-rule="evenodd" d="M139.465 26.2799C139.465 26.5799 139.705 26.8799 140.066 26.8799H142.349C142.649 26.8799 142.95 26.6399 142.95 26.2799V12.5999C142.95 12.5399 142.95 12.4799 142.95 12.4799C142.95 10.7399 141.568 9.23993 139.825 9.17993H128.228C128.168 9.17993 128.108 9.17993 128.108 9.17993C126.305 9.17993 124.863 10.6799 124.863 12.4799C124.863 12.5399 124.863 12.5999 124.863 12.5999V26.3399C124.863 26.6399 125.104 26.9399 125.464 26.9399H127.748C128.048 26.9399 128.348 26.6999 128.348 26.3399V20.6399C128.348 20.3399 128.589 20.0399 128.949 20.0399H139.104C139.405 20.0399 139.705 20.2799 139.705 20.6399L139.465 26.2799ZM128.168 16.8599V13.9799C128.168 12.8999 129.069 11.9999 130.151 11.9999H137.482C138.563 11.9999 139.465 12.8999 139.465 13.9799V16.8599C139.465 17.1599 139.224 17.4599 138.864 17.4599H128.709C128.408 17.4599 128.168 17.1599 128.168 16.8599Z" fill="#717988"/>
<path fill-rule="evenodd" clip-rule="evenodd" d="M187.118 26.8799C186.817 26.8799 186.517 26.6399 186.517 26.2799V20.5799C186.517 20.2799 186.276 19.9799 185.916 19.9799H175.641C175.34 19.9799 175.04 20.2199 175.04 20.5799V26.2799C175.04 26.5799 174.799 26.8799 174.439 26.8799H172.156C171.855 26.8799 171.555 26.6399 171.555 26.2799V12.5999C171.555 12.5399 171.555 12.4799 171.555 12.4799C171.555 10.6799 173.057 9.17993 174.86 9.17993C174.92 9.17993 174.98 9.17993 174.98 9.17993H186.877C188.62 9.23993 190.002 10.6799 190.002 12.4799C190.002 12.5399 190.002 12.5999 190.002 12.5999V26.3399C190.002 26.6399 189.762 26.9399 189.401 26.9399L187.118 26.8799ZM175.1 13.9799V16.8599C175.1 17.1599 175.34 17.4599 175.701 17.4599H185.976C186.276 17.4599 186.577 17.2199 186.577 16.8599V13.9799C186.577 12.8999 185.676 11.9999 184.594 11.9999H177.143C176.001 11.9999 175.1 12.8999 175.1 13.9799Z" fill="#717988"/>
<path d="M151.362 9.12012C151.542 9.12012 151.662 9.18012 151.783 9.30012L161.877 21.3601C162.238 21.7801 162.899 21.5401 162.899 21.0001V9.72012C162.899 9.42012 163.139 9.12012 163.5 9.12012H165.783C166.084 9.12012 166.384 9.36012 166.384 9.72012V26.2801C166.384 26.5801 166.144 26.8801 165.783 26.8801H162.959L152.624 14.8801C152.263 14.4601 151.602 14.7601 151.602 15.2401V26.2801C151.602 26.5801 151.362 26.8801 151.001 26.8801H148.718C148.418 26.8801 148.117 26.6401 148.117 26.2801V9.72012C148.117 9.42012 148.358 9.12012 148.718 9.12012H151.362Z" fill="#717988"/>
<path d="M7.45093 27.4798C7.75138 27.1798 8.11191 27.0598 8.53253 27.0598H45.2466C45.9076 27.0598 46.2681 27.8398 45.7874 28.3198L38.5167 35.5798C38.2163 35.8198 37.8557 35.9998 37.4952 35.9998H0.781106C0.120132 35.9998 -0.240399 35.2198 0.240309 34.7398L7.45093 27.4798Z" fill="#717988"/>
<path d="M7.45093 0.42C7.75138 0.18 8.11191 0 8.53253 0H45.2466C45.9076 0 46.2681 0.78 45.7874 1.26L38.5167 8.52C38.2163 8.82 37.8557 8.94 37.4351 8.94H0.781106C0.120132 8.94 -0.240399 8.16 0.240309 7.68L7.45093 0.42Z" fill="#717988"/>
<path d="M38.5167 13.8602C38.2163 13.5602 37.8557 13.4402 37.4351 13.4402H0.781106C0.120132 13.4402 -0.240399 14.2202 0.240309 14.7002L7.51102 21.9602C7.81147 22.2602 8.172 22.3802 8.59262 22.3802H45.3067C45.9677 22.3802 46.3282 21.6002 45.8475 21.1202L38.5167 13.8602Z" fill="#717988"/>
</g>
<defs>
<clipPath id="clip0_2990_191">
<rect width="190" height="36" fill="white"/>
</clipPath>
</defs>
</svg>
