<svg width="156" height="36" viewBox="0 0 156 36" fill="none" xmlns="http://www.w3.org/2000/svg">
<path d="M22.4994 10.6198C20.8838 9.23981 18.4304 9.47981 17.1139 11.0998L9.39471 20.3998C8.19793 21.8398 8.19793 23.8798 9.39471 25.3198L17.1139 34.6198C18.4902 36.2398 20.8838 36.4798 22.4994 35.0998C24.1151 33.7198 24.3544 31.3198 22.9781 29.6998L17.2934 22.8598L22.9781 16.0198C24.3544 14.3998 24.1151 11.9998 22.4994 10.6198ZM3.82969 9.71982C1.73533 9.71982 0 11.4598 0 13.5598V32.1598C0.0598389 34.2598 1.79517 35.9398 3.88953 35.9398C5.92405 35.8798 7.59954 34.2598 7.65938 32.1598V13.5598C7.65938 11.4598 5.92405 9.71982 3.82969 9.71982ZM71.0288 17.3998C73.1231 17.3398 74.7986 15.5998 74.7986 13.4998C74.7388 11.4598 73.1231 9.77981 71.0288 9.71982H54.8124C52.7181 9.71982 50.9827 11.4598 50.9827 13.5598V20.5198C50.9827 22.2598 52.1197 23.7598 53.7353 24.2398L67.1991 28.0798V28.3198H54.8124C52.7181 28.2598 50.9229 29.9398 50.9229 32.0998C50.8631 34.1998 52.5385 35.9398 54.6927 35.9998C54.7526 35.9998 54.8124 35.9998 54.8723 35.9998H71.0886C73.183 35.9998 74.9183 34.2598 74.9183 32.1598V25.1998C74.9183 23.4598 73.7813 21.9598 72.1657 21.4798L58.6421 17.6398V17.3998H71.0288ZM45.5374 9.71982C43.443 9.71982 41.7077 11.4598 41.7077 13.5598V28.3198H33.1507V13.5598C33.2106 11.4598 31.5351 9.65981 29.3809 9.65981C27.2865 9.59981 25.4914 11.2798 25.4914 13.4398C25.4914 13.4998 25.4914 13.5598 25.4914 13.6198V32.2198C25.4914 34.3198 27.2267 36.0598 29.3211 36.0598H45.5374C47.6318 36.0598 49.3671 34.3198 49.3671 32.2198V13.6198C49.3671 11.4598 47.6916 9.71982 45.5374 9.71982ZM90.2371 11.0998C89.519 10.1998 88.4419 9.71982 87.3049 9.71982H80.3636C78.2693 9.71982 76.5339 11.4598 76.5339 13.5598V32.1598C76.5339 34.2598 78.2693 35.9998 80.3636 35.9998H89.9379C92.0322 35.9398 93.7077 34.1998 93.7077 32.0998C93.6479 30.0598 92.0322 28.3798 89.9379 28.3198H84.1933V17.3998H85.5098L95.084 28.9198V32.1598C95.1438 34.2598 96.8792 35.9398 98.9735 35.9398C101.008 35.8798 102.684 34.2598 102.743 32.1598V27.4798C102.743 26.5798 102.444 25.7398 101.846 25.0198L90.2371 11.0998ZM155.102 25.0198L143.494 11.0998C142.776 10.1998 141.698 9.71982 140.562 9.71982H133.62C131.526 9.71982 129.791 11.4598 129.791 13.5598V32.1598C129.791 34.2598 131.526 35.9998 133.62 35.9998H143.194C145.289 35.9398 146.964 34.1998 146.964 32.0998C146.904 30.0598 145.289 28.3798 143.194 28.3198H137.45V17.3998H138.766L148.341 28.9198V32.1598C148.4 34.2598 150.136 35.9398 152.23 35.9398C154.265 35.8798 155.94 34.2598 156 32.1598V27.5398C156 26.6398 155.701 25.7398 155.102 25.0198ZM125.961 10.0798C124.585 9.47981 123.029 9.65981 121.892 10.6798L116.267 15.5398L110.642 10.6798C109.026 9.29981 106.633 9.47981 105.257 11.0998C104.658 11.8198 104.359 12.6598 104.359 13.6198V32.2198C104.419 34.3198 106.154 35.9998 108.249 35.9998C110.283 35.9398 111.959 34.3198 112.018 32.2198V21.8998L113.814 23.4598C115.25 24.7198 117.344 24.7198 118.78 23.4598L120.575 21.8998V32.1598C120.575 34.2598 122.311 35.9998 124.405 35.9998C126.499 35.9998 128.235 34.2598 128.235 32.1598V13.5598C128.175 12.0598 127.337 10.6798 125.961 10.0798ZM99.0932 7.97981V8.09981C99.0932 8.09981 104.359 5.99981 105.376 6.53981L104.778 6.71981C104.838 6.71981 105.855 6.77981 105.855 6.77981C105.915 7.19981 106.154 7.55981 106.513 7.79981C107.112 8.21981 107.112 8.39981 107.112 8.39981C107.112 8.39981 106.812 8.51981 106.812 8.69981C107.112 8.63981 107.411 8.57981 107.71 8.57981C108.009 8.57981 108.249 8.63981 108.488 8.69981C108.488 8.69981 108.428 8.51981 108.009 8.39981C107.59 8.27981 107.171 7.79981 106.992 7.55981C106.753 7.25981 106.693 6.77981 106.812 6.41981C106.932 6.05981 107.471 5.81981 108.488 5.27981C109.745 4.61981 109.984 4.13981 110.163 3.77981C110.343 3.41982 110.582 2.69982 110.762 2.33982C110.881 2.03982 111.061 1.73982 111.36 1.49982C111.54 1.37982 112.377 1.01982 112.377 1.01982C112.377 1.01982 111.719 0.479816 111.54 0.299816C111.3 0.0598156 110.941 -0.120184 110.582 -0.180184C110.163 -0.240184 109.685 0.0598156 109.385 0.239816C109.086 0.419816 108.548 1.19982 108.308 1.37982C108.069 1.55982 107.471 1.67982 106.513 2.27982C105.556 2.87982 101.726 5.33981 101.726 5.33981H102.684L98.2555 7.61981H98.6743L98.0161 8.09981C98.435 8.21981 98.794 8.15981 99.0932 7.97981Z" fill="#717988"/>
</svg>
