<svg width="146" height="38" viewBox="0 0 146 38" fill="none" xmlns="http://www.w3.org/2000/svg">
<g clip-path="url(#clip0_2990_219)">
<path d="M13.3147 0.365127C14.2357 -0.118779 15.6365 -0.118779 16.5605 0.365127L25.9602 5.317C26.514 5.60794 26.819 6.04435 26.8753 6.4956H26.8841V31.3886C26.8723 31.8784 26.5643 32.3653 25.9602 32.6829L16.5605 37.6348C15.6395 38.1187 14.2387 38.1187 13.3147 37.6348L3.91505 32.6829C3.31387 32.3653 3.02661 31.8754 3.01181 31.3886C3.01181 31.3411 3.00884 31.2995 3.01181 31.2668V6.65294C3.01181 6.62622 3.01181 6.5995 3.01181 6.57278V6.49263H3.01477C3.05623 6.03841 3.34645 5.61388 3.91505 5.31403L13.3147 0.365127ZM25.4034 20.3834L16.5575 25.0414C15.6365 25.5253 14.2357 25.5253 13.3118 25.0414L4.48661 20.3923V31.3381L13.3118 35.9634C13.8093 36.2276 14.3275 36.4889 14.834 36.5215L14.9346 36.5245C15.4618 36.5275 15.9741 36.2603 16.4924 36.0079L25.4004 31.2995V20.3834H25.4034ZM1.48073 30.8453C1.48073 31.7983 1.59327 32.4247 1.81241 32.867C1.99602 33.2322 2.26848 33.5112 2.77193 33.8526L2.80154 33.8704C2.91112 33.9447 3.03254 34.0218 3.18061 34.1139L3.35533 34.2208L3.8884 34.5414L3.12138 35.8031L2.52316 35.4439L2.42247 35.3815C2.25071 35.2747 2.1056 35.1826 1.97233 35.0936C0.544909 34.1317 0.0118458 33.0867 0 30.9076V30.8423H1.48073V30.8453ZM14.1943 13.7097C14.1262 13.7334 14.061 13.7601 14.0018 13.7898L4.60211 18.7447C4.59323 18.7506 4.58138 18.7536 4.57249 18.7595L4.56361 18.7654L4.57842 18.7743L4.59915 18.7862L13.9988 23.7381C14.0581 23.7678 14.1202 23.7975 14.1913 23.8183V13.7097H14.1943ZM15.675 13.7097V23.8183C15.7431 23.7945 15.8083 23.7678 15.8675 23.7381L25.2701 18.7862C25.279 18.7803 25.2909 18.7773 25.2998 18.7714L25.3086 18.7654L25.2938 18.7565L25.2731 18.7447L15.8675 13.7898C15.8083 13.7601 15.7431 13.7334 15.675 13.7097ZM25.4034 8.25903L16.9692 12.7033L25.4034 17.1475V8.25903ZM4.48957 8.27091V17.1356L12.9031 12.7033L4.48957 8.27091ZM15.8675 1.66841C15.3789 1.41013 14.4934 1.41013 14.0047 1.66841L4.60211 6.62028C4.59323 6.62622 4.58138 6.62919 4.57249 6.63513L4.56361 6.64106L4.57842 6.64997L4.59915 6.66185L13.9988 11.6137C14.4875 11.872 15.3729 11.872 15.8616 11.6137L25.2642 6.66185C25.2731 6.65591 25.285 6.65294 25.2938 6.647L25.3027 6.64106L25.2879 6.63216L25.2672 6.62028L15.8675 1.66841ZM26.7923 2.21169L27.3905 2.57091L27.4912 2.63325C27.663 2.74013 27.8081 2.83216 27.9414 2.92122C29.3688 3.88013 29.9019 4.9281 29.9137 7.10716V7.17247H28.433C28.433 6.2195 28.3204 5.5931 28.1013 5.15075C27.9177 4.7856 27.6452 4.50356 27.1418 4.16513L27.1122 4.14435C27.0026 4.07013 26.8812 3.99294 26.7331 3.90091L26.5584 3.79403L26.0253 3.47341L26.7923 2.21169Z" fill="#717988"/>
<path d="M44.9441 30.3495V16.4677H48.7852V13.9264H44.9441V12.1006C44.9441 10.0373 45.8444 9.00422 47.645 9.00422C48.1662 9.00422 48.72 9.09031 49.3034 9.26547V6.56094C48.5867 6.34422 47.796 6.23438 46.9283 6.23438C45.2581 6.23438 43.9609 6.71234 43.0399 7.66828C42.1189 8.62422 41.6569 10.0136 41.6569 11.8394V13.9264H38.5V16.4677H41.6569V30.3495H44.9441ZM58.2885 30.5781C59.5471 30.5781 60.6488 30.3169 61.5905 29.7944C62.5352 29.2719 63.246 28.5238 63.7228 27.547V30.3495H66.9774V13.9264H63.7228V16.5983C63.2223 15.6216 62.5086 14.8645 61.5757 14.3331C60.6428 13.8017 59.5471 13.5345 58.2885 13.5345C56.8788 13.5345 55.6202 13.8937 54.5126 14.6092C53.405 15.3277 52.5432 16.337 51.9243 17.6403C51.3054 18.9436 50.9974 20.4428 50.9974 22.138C50.9974 23.8331 51.3024 25.3145 51.9095 26.5852C52.5166 27.8558 53.3695 28.8384 54.4652 29.5331C55.561 30.2308 56.8344 30.5781 58.2885 30.5781ZM59.0703 27.9716C57.5718 27.9716 56.4079 27.4609 55.5728 26.4397C54.7377 25.4184 54.3201 23.9845 54.3201 22.138C54.3201 20.2706 54.7377 18.807 55.5728 17.7561C56.4079 16.7022 57.5629 16.1767 59.0377 16.1767C60.5333 16.1767 61.6912 16.6873 62.5026 17.7086C63.317 18.7298 63.7228 20.1845 63.7228 22.0756C63.7228 23.943 63.317 25.3947 62.5026 26.4248C61.6882 27.455 60.5451 27.9716 59.0703 27.9716ZM75.0503 30.3495V20.998C75.0503 19.5433 75.4679 18.3795 76.303 17.5097C77.1382 16.6398 78.2517 16.2064 79.6406 16.2064C80.8548 16.2064 81.7403 16.533 82.2941 17.1831C82.8479 17.8363 83.1233 18.8783 83.1233 20.3122V30.3495H86.4105V20.1163C86.4105 15.7284 84.4471 13.5345 80.5202 13.5345C79.2615 13.5345 78.1391 13.8106 77.15 14.3658C76.1639 14.9209 75.4087 15.7195 74.8875 16.7616L74.5943 13.9264H71.5351C71.7098 15.295 71.7957 16.8387 71.7957 18.5547V30.3525H75.0503V30.3495ZM97.4094 30.5781C98.3215 30.5781 99.1329 30.4594 99.8496 30.2189V27.547C99.2632 27.7222 98.6887 27.8083 98.126 27.8083C97.2583 27.8083 96.5802 27.5737 96.0915 27.1077C95.6029 26.6416 95.36 25.843 95.36 24.7119V16.4677H99.8852V13.9264H95.36V8.67766L92.0728 9.81766V13.9234H88.8833V16.4647H92.0728V24.9702C92.0728 26.7959 92.5407 28.1853 93.4736 29.1413C94.4035 30.1002 95.7154 30.5781 97.4094 30.5781ZM109.972 30.5781C111.556 30.5781 112.954 30.2308 114.171 29.5361C115.385 28.8414 116.324 27.8528 116.988 26.5703C117.651 25.2878 117.98 23.7886 117.98 22.0727C117.98 20.3567 117.648 18.8516 116.988 17.5602C116.327 16.2688 115.388 15.2742 114.171 14.5795C112.957 13.8848 111.556 13.5375 109.972 13.5375C108.367 13.5375 106.957 13.8848 105.74 14.5795C104.526 15.2742 103.587 16.2688 102.924 17.5602C102.263 18.8516 101.932 20.3567 101.932 22.0727C101.932 23.7886 102.263 25.2878 102.924 26.5703C103.587 27.8528 104.523 28.8414 105.74 29.5361C106.957 30.2308 108.367 30.5781 109.972 30.5781ZM109.939 27.9716C108.441 27.9716 107.286 27.4728 106.474 26.4723C105.66 25.4719 105.254 24.0053 105.254 22.0727C105.254 20.1816 105.666 18.7269 106.492 17.7056C107.318 16.6844 108.476 16.1737 109.975 16.1737C111.45 16.1737 112.596 16.6844 113.407 17.7056C114.222 18.7269 114.627 20.1816 114.627 22.0727C114.627 24.0053 114.225 25.4719 113.422 26.4723C112.619 27.4728 111.459 27.9716 109.939 27.9716ZM125.072 30.3495V21.0633C125.072 19.5641 125.443 18.3795 126.18 17.5097C126.917 16.6398 127.915 16.2064 129.174 16.2064C130.258 16.2064 131.046 16.533 131.534 17.1831C132.023 17.8363 132.266 18.8664 132.266 20.2795V30.3495H135.553V21.0633C135.553 19.5641 135.917 18.3795 136.643 17.5097C137.368 16.6398 138.363 16.2064 139.622 16.2064C140.706 16.2064 141.494 16.533 141.982 17.1831C142.471 17.8363 142.714 18.8664 142.714 20.2795V30.3495H146.001V20.1163C146.001 15.7284 144.18 13.5345 140.534 13.5345C139.32 13.5345 138.23 13.8166 137.265 14.3806C136.299 14.9447 135.568 15.7166 135.067 16.6933C134.285 14.5855 132.627 13.5316 130.086 13.5316C128.893 13.5316 127.85 13.8017 126.962 14.345C126.073 14.8883 125.389 15.6602 124.912 16.6577L124.619 13.9205H121.56C121.735 15.2891 121.821 16.8328 121.821 18.5487V30.3466H125.072V30.3495Z" fill="#717988"/>
</g>
<defs>
<clipPath id="clip0_2990_219">
<rect width="146" height="38" fill="white"/>
</clipPath>
</defs>
</svg>
