<svg width="146" height="40" viewBox="0 0 146 40" fill="none" xmlns="http://www.w3.org/2000/svg">
<g clip-path="url(#clip0_2990_126)">
<path d="M40.7227 4.80029H47.455C49.1711 4.80029 50.4252 5.26696 51.2172 6.06696C52.0093 6.73363 52.3393 7.66696 52.3393 8.60029C52.3393 8.93363 52.3393 9.40029 52.2073 9.73363C52.0093 10.3336 51.6133 10.867 51.1512 11.3336C50.9532 11.5336 50.6892 11.667 50.4912 11.8003C51.2832 12.0003 52.0093 12.467 52.5373 13.067C52.9993 13.667 53.1973 14.3336 53.1973 15.3336C53.1973 15.9336 53.0653 16.6003 52.8673 17.067C52.6693 17.5336 52.2073 18.0003 51.7453 18.3336C51.1512 18.667 50.6232 18.9336 50.0292 19.1336C49.3691 19.3336 48.5111 19.3336 47.785 19.3336H40.8547V4.80029H40.7227ZM46.861 10.8003C47.455 10.8003 47.9831 10.667 48.5771 10.467C49.0391 10.267 49.2371 9.80029 49.2371 9.33363C49.2371 8.86696 49.0391 8.40029 48.6431 8.20029C48.1811 7.86696 47.587 7.73363 47.059 7.86696H43.8908V10.9336H46.861V10.8003ZM47.653 16.667C48.2471 16.667 48.7751 16.5336 49.3691 16.3336C49.8312 16.1336 50.0292 15.667 49.9632 15.067C49.9632 14.6003 49.7652 14.1336 49.3691 13.9336C49.0391 13.7336 48.3131 13.467 47.521 13.467H43.7588V16.667H47.653Z" fill="#717988"/>
<path d="M57.2266 4.80029H60.4607V19.5336H57.2266V4.80029Z" fill="#717988"/>
<path d="M65.3438 4.80029H68.3139L75.1123 13.9336V4.80029H78.2804V19.5336H75.5743L68.3799 10.2003V19.5336H65.3438V4.80029Z" fill="#717988"/>
<path d="M87.9813 4.7334H90.9514L97.2218 19.5334H93.9216L92.5355 16.2001H86.3972L85.0111 19.5334H81.7109L87.9813 4.7334ZM91.4135 13.4667L89.4994 8.66673L87.5853 13.4667H91.4135Z" fill="#717988"/>
<path d="M100.59 4.80029H103.56L110.358 13.9336V4.80029H113.593V19.5336H110.82L103.758 10.2003V19.5336H100.59V4.80029Z" fill="#717988"/>
<path d="M125.142 19.7334C124.086 19.7334 123.095 19.5335 122.171 19.1335C120.323 18.3335 119.003 16.9335 118.211 15.1334C117.881 14.2001 117.617 13.2001 117.617 12.1334C117.617 10.2001 118.409 8.20011 119.795 6.73345C120.455 6.06678 121.313 5.46678 122.171 5.13345C123.228 4.66678 124.218 4.53345 125.208 4.53345C125.802 4.53345 126.462 4.53345 127.056 4.66678C127.65 4.80011 128.112 4.86678 128.574 5.13345C129.036 5.33345 129.498 5.60011 129.828 5.80011C130.158 6.00011 130.62 6.40011 130.95 6.73345L129.036 9.13345C128.442 8.66678 127.914 8.20011 127.32 7.86678C126.726 7.53345 126.066 7.40011 125.406 7.40011C124.812 7.40011 124.284 7.53345 123.69 7.73345C123.095 7.93345 122.633 8.33345 122.303 8.80011C121.973 9.26678 121.643 9.73345 121.379 10.3334C121.181 10.9334 121.049 11.4668 121.049 12.0668C121.049 12.6668 121.181 13.3334 121.379 13.9334C121.643 14.5334 121.841 15.0001 122.303 15.4668C123.095 16.4001 124.218 16.8668 125.34 16.8668C126 16.8668 126.858 16.7334 127.518 16.4001C128.112 16.0668 128.772 15.6001 129.234 15.1334L131.28 17.2001C130.95 17.5335 130.488 18.0001 130.158 18.3335C129.696 18.6668 129.234 18.9335 128.772 19.1335C128.31 19.3335 127.716 19.6001 127.188 19.7334C126.396 19.7334 125.736 19.7334 125.142 19.7334Z" fill="#717988"/>
<path d="M134.977 4.80029H145.867V7.66696H138.013V10.667H144.943V13.5336H138.013V16.667H145.999V19.5336H134.977V4.80029Z" fill="#717988"/>
<path d="M44.8176 33.9999C44.0255 33.9999 43.2335 33.8666 42.5735 33.5332C41.9134 33.3332 41.1874 32.8666 40.5273 32.2666L41.6494 30.9999C42.1114 31.4666 42.5735 31.6666 43.1675 32.0666C43.7615 32.2666 44.2896 32.3999 44.8836 32.3999C45.3456 32.3999 45.8076 32.2666 46.2697 32.0666C46.5997 31.8666 46.7317 31.4666 46.7317 31.1332C46.7317 30.9999 46.7317 30.7999 46.5997 30.6666C46.4677 30.5332 46.4017 30.3332 46.2697 30.1999C46.0716 30.0666 45.8076 29.9999 45.6096 29.8666C45.2796 29.7332 44.8176 29.6666 44.4876 29.5332C44.0255 29.3999 43.4315 29.3332 42.9695 29.0666C42.6395 28.9332 42.1774 28.7332 41.9134 28.4666C41.7154 28.2666 41.4514 27.9999 41.2534 27.6666C41.0554 27.1999 41.0554 26.7332 41.0554 26.3999C41.0554 25.9332 41.1874 25.5999 41.2534 25.1332C41.3854 24.7999 41.7154 24.4666 41.9134 24.1999C42.2434 23.9999 42.5735 23.7332 43.0355 23.5999C43.4975 23.4666 43.9595 23.3999 44.4216 23.3999C45.0816 23.3999 45.8076 23.5332 46.4677 23.7332C47.0617 23.9332 47.5897 24.3332 48.1838 24.6666L47.2597 26.0666C46.7977 25.7332 46.3357 25.4666 45.8736 25.2666C45.4116 25.0666 44.9496 25.0666 44.4876 25.0666C44.0255 25.0666 43.5635 25.1999 43.2335 25.3999C43.0355 25.5999 42.7715 25.9999 42.7715 26.3332C42.7715 26.5332 42.7715 26.6666 42.9035 26.9332C43.0355 27.0666 43.1015 27.2666 43.2335 27.3999C43.4315 27.5332 43.6955 27.5999 44.0255 27.7332C44.3556 27.8666 44.6856 27.9332 45.2796 28.0666C45.7416 28.1999 46.2037 28.2666 46.7977 28.5332C47.1277 28.6666 47.4577 28.8666 47.8537 29.1332C48.0518 29.3332 48.3158 29.7332 48.4478 29.9332C48.5798 30.2666 48.6458 30.5999 48.6458 31.0666C48.6458 31.5332 48.5138 31.9999 48.4478 32.3332C48.2498 32.6666 47.9858 32.9999 47.6557 33.3999C47.3257 33.5999 46.9957 33.8666 46.5337 33.9999C45.8736 33.9332 45.2796 33.9999 44.8176 33.9999Z" fill="#717988"/>
<path d="M50.4922 23.5334H52.4723L55.5085 28.4001L58.7426 23.5334H60.6567V33.9334H58.8086V26.4001L55.6405 31.2668H55.5085L52.3403 26.4001V33.9334H50.4922V23.5334Z" fill="#717988"/>
<path d="M66.7968 23.4666H68.5129L72.9352 33.7999H71.0211L69.965 31.2666H65.2128L64.1567 33.7999H62.3086L66.7968 23.4666ZM69.437 29.7999L67.5889 25.6666L65.8728 29.7999H69.437Z" fill="#717988"/>
<path d="M74.784 23.5334H79.3382C79.9322 23.5334 80.4603 23.6668 81.0543 23.7334C81.5163 23.8668 81.9783 24.2001 82.3084 24.5334C82.5064 24.7334 82.7704 25.1334 82.9684 25.6001C83.1004 25.9334 83.1664 26.4001 83.1664 26.8668C83.1664 27.2001 83.0344 27.6668 82.9684 28.0001C82.8364 28.3334 82.6384 28.6001 82.5064 28.9334C82.3084 29.1334 82.0443 29.4001 81.7143 29.6001C81.3843 29.8001 81.0543 29.9334 80.6583 30.0668L83.3644 34.0001H81.1863L78.6782 30.4668H76.434V34.0001H74.5859L74.784 23.5334ZM79.2062 28.6001C79.8002 28.6001 80.3283 28.4668 80.7243 28.1334C81.0543 27.8001 81.3183 27.3334 81.3183 26.8668C81.3183 26.4001 81.1203 25.9334 80.7243 25.6001C80.2622 25.2668 79.6682 25.1334 79.1402 25.1334H76.5V28.6001H79.2062Z" fill="#717988"/>
<path d="M87.851 25.2001H84.5508V23.5334H92.8672V25.2001H89.5671V33.9334H87.7189L87.851 25.2001Z" fill="#717988"/>
<path d="M103.891 33.9999C103.231 33.9999 102.505 33.8666 101.845 33.5333C100.591 32.9333 99.601 31.9999 99.139 30.7999C98.941 30.1333 98.677 29.3999 98.809 28.7333C98.809 28.0666 98.941 27.3333 99.139 26.6666C99.601 25.3999 100.657 24.3999 101.845 23.7999C102.505 23.5999 103.231 23.3333 104.023 23.3333C104.485 23.3333 104.947 23.3333 105.277 23.4666C105.607 23.5999 105.937 23.6666 106.333 23.7999C106.663 23.9333 106.927 24.1333 107.257 24.2666C107.455 24.4666 107.851 24.7333 108.049 24.9333L106.927 26.3333C106.597 25.9999 106.135 25.6666 105.673 25.3999C105.211 25.1999 104.617 25.0666 104.089 25.0666C103.627 25.0666 103.165 25.1999 102.703 25.2666C102.241 25.4666 101.911 25.7333 101.581 26.0666C101.251 26.3999 100.987 26.7333 100.921 27.1999C100.789 27.6666 100.723 28.1333 100.723 28.5999C100.723 29.0666 100.855 29.5333 100.921 29.9999C101.053 30.4666 101.251 30.7999 101.581 31.1333C101.911 31.4666 102.241 31.7333 102.703 31.9333C103.165 32.1333 103.627 32.2666 104.089 32.1333C104.683 32.1333 105.211 31.9999 105.673 31.7999C106.135 31.5999 106.597 31.1999 107.059 30.7333L108.181 31.8666C107.983 32.0666 107.587 32.4666 107.389 32.6666C107.059 32.8666 106.795 33.1333 106.465 33.2666C106.135 33.3999 105.805 33.5999 105.343 33.5999C104.815 33.9999 104.353 33.9999 103.891 33.9999Z" fill="#717988"/>
<path d="M109.895 23.5334H111.611V27.8001H116.561V23.5334H118.343V33.9334H116.561V29.5334H111.611V33.9334H109.895V23.5334Z" fill="#717988"/>
<path d="M124.613 23.4666H126.329L130.752 33.7999H128.837L127.781 31.2666H123.029L121.973 33.7999H120.125L124.613 23.4666ZM127.121 29.7999L125.405 25.6666L123.689 29.7999H127.121Z" fill="#717988"/>
<path d="M132.602 23.5334H134.384V33.9334H132.602V23.5334Z" fill="#717988"/>
<path d="M137.09 23.5334H138.74L144.218 30.6668V23.5334H146V33.9334H144.548L138.938 26.5334V33.9334H137.09V23.5334Z" fill="#717988"/>
<path d="M20.7251 33.2V37.6667L16.8309 40L13.0687 37.7333V33.2667L16.8309 35.5333L20.7251 33.2ZM0 17.7333L3.76221 20V27.6667L10.2306 31.6V36.0667L0 30V17.7333ZM33.6618 17.7333V30L23.2993 36.0667V31.6L29.7676 27.6667V20L33.6618 17.7333ZM23.2993 11.6L27.1935 13.8667V18.3333L20.7251 22.2667V30.0667L16.9629 32.3333L13.2007 30.1333V22.2667L6.46836 18.4V13.9333L10.3626 11.6667L16.8309 15.6L23.2993 11.6ZM6.46836 21.6L10.2306 23.8667V28.3333L6.46836 26.0667V21.6ZM27.1935 21.6V26.0667L23.4313 28.3333V23.8667L27.1935 21.6ZM3.76221 7.66667L7.65642 9.93333L3.76221 12.2V16.6667L0 14.4667V10L3.76221 7.66667ZM29.8996 7.66667L33.7939 9.93333V14.4L29.8996 16.6667V12.2L26.1374 10L29.8996 7.66667ZM16.8309 7.66667L20.7251 9.93333L16.8309 12.2L13.0687 10L16.8309 7.66667ZM16.8309 0L27.1935 6.06667L23.4313 8.33333L16.9629 4.4L10.3626 8.33333L6.60036 6.06667L16.8309 0Z" fill="#717988"/>
</g>
<defs>
<clipPath id="clip0_2990_126">
<rect width="146" height="40" fill="white"/>
</clipPath>
</defs>
</svg>
