<svg width="100" height="100" viewBox="0 0 100 100" fill="none" xmlns="http://www.w3.org/2000/svg">
<circle cx="50" cy="50" r="50" fill="white"/>
<path d="M31.0778 66.7502H38.2311V49.3657L28 41.703V63.6936C28 65.3705 29.3797 66.7502 31.0778 66.7502Z" fill="#4285F4"/>
<path d="M62.7686 66.7503H69.9219C71.62 66.7503 72.9997 65.3706 72.9997 63.6725V41.7031L62.7686 49.3659V66.7503Z" fill="#34A853"/>
<path d="M62.7686 36.0778V49.3656L72.9997 41.7028V37.6061C72.9997 35.059 70.9407 33 68.3936 33C67.3959 33 66.4195 33.3184 65.6341 33.9127L62.7686 36.0778Z" fill="#FBBC04"/>
<path d="M38.2314 49.3659V36.0781L50.5003 45.2692L62.7692 36.0781V49.3659L50.5003 58.5781L38.2314 49.3659Z" fill="#EA4335"/>
<path d="M28 37.6061V41.7028L38.2311 49.3655V36.0778L35.3656 33.9127C33.3278 32.4056 30.441 32.8089 28.9127 34.8466C28.3184 35.632 28 36.6084 28 37.6061Z" fill="#C5221F"/>
</svg>
