<svg width="45" height="34" viewBox="0 0 45 34" fill="none" xmlns="http://www.w3.org/2000/svg">
<path d="M3.07783 33.7502H10.2311V16.3657L0 8.703V30.6936C0 32.3705 1.37972 33.7502 3.07783 33.7502Z" fill="#4285F4"/>
<path d="M34.7686 33.7503H41.9219C43.62 33.7503 44.9997 32.3706 44.9997 30.6725V8.70312L34.7686 16.3659V33.7503Z" fill="#34A853"/>
<path d="M34.7686 3.07783V16.3656L44.9997 8.70283V4.60613C44.9997 2.05896 42.9407 0 40.3936 0C39.3959 0 38.4195 0.318396 37.6341 0.912736L34.7686 3.07783Z" fill="#FBBC04"/>
<path d="M10.2314 16.3659V3.07812L22.5003 12.2692L34.7692 3.07812V16.3659L22.5003 25.5781L10.2314 16.3659Z" fill="#EA4335"/>
<path d="M0 4.60608V8.70278L10.2311 16.3655V3.07778L7.36557 0.912685C5.32783 -0.594391 2.44104 -0.191089 0.912736 1.84665C0.318396 2.63202 0 3.60844 0 4.60608Z" fill="#C5221F"/>
</svg>
