<svg width="44" height="45" viewBox="0 0 44 45" fill="none" xmlns="http://www.w3.org/2000/svg">
<path d="M33.0094 14.8177V9.46199C34.4609 8.76124 35.3619 7.35975 35.412 5.75803V5.65793C35.3619 3.35546 33.5099 1.50348 31.2575 1.50348H31.1574C28.855 1.50348 27.003 3.35546 27.003 5.60787V5.70798C27.003 7.30969 27.954 8.76124 29.4055 9.41194V14.7677C27.3533 15.068 25.4513 15.9189 23.8496 17.2203L9.13386 5.80809C9.23397 5.40766 9.28402 5.05728 9.28402 4.65686C9.28402 2.75482 8.13279 1.053 6.43097 0.352251C4.6791 -0.348498 2.67696 0.00187621 1.37557 1.35332C0.0241212 2.70477 -0.376307 4.70691 0.374496 6.40873C1.07525 8.1606 2.77707 9.26178 4.6791 9.31183C5.47996 9.31183 6.28081 9.11162 6.98156 8.71119L21.447 19.9732C18.7942 23.9775 18.8442 29.2331 21.6472 33.1874L17.2425 37.5921C16.8922 37.492 16.4917 37.4419 16.1414 37.3919C14.0391 37.3919 12.3373 39.0937 12.3373 41.1959C12.3373 43.2982 14.0391 45 16.1414 45C18.2436 45 19.9454 43.2982 19.9454 41.1959C19.9454 40.8456 19.8954 40.4451 19.7452 40.0948L24.0999 35.7401C28.004 38.7433 33.3598 38.9936 37.5142 36.3908C41.6687 33.788 43.7709 28.8828 42.7698 24.0276C41.7688 19.2725 37.8646 15.5685 33.0094 14.8177ZM31.2075 32.4866C29.0051 32.5367 26.9529 31.3854 25.8517 29.5335C24.7506 27.6314 24.7506 25.2789 25.8517 23.4269C26.9529 21.5249 29.0051 20.4237 31.2075 20.4738C34.461 20.5238 37.0137 23.1767 37.0137 26.4301C37.0137 29.6836 34.461 32.3365 31.2075 32.4866Z" fill="#FF7A59"/>
</svg>
