<svg width="100" height="100" viewBox="0 0 100 100" fill="none" xmlns="http://www.w3.org/2000/svg">
<circle cx="50" cy="50" r="50" fill="white"/>
<path d="M61.0094 42.8177V37.462C62.4609 36.7612 63.3619 35.3597 63.412 33.758V33.6579C63.3619 31.3555 61.5099 29.5035 59.2575 29.5035H59.1574C56.855 29.5035 55.003 31.3555 55.003 33.6079V33.708C55.003 35.3097 55.954 36.7612 57.4055 37.4119V42.7677C55.3533 43.068 53.4513 43.9189 51.8496 45.2203L37.1339 33.8081C37.234 33.4077 37.284 33.0573 37.284 32.6569C37.284 30.7548 36.1328 29.053 34.431 28.3523C32.6791 27.6515 30.677 28.0019 29.3756 29.3533C28.0241 30.7048 27.6237 32.7069 28.3745 34.4087C29.0752 36.1606 30.7771 37.2618 32.6791 37.3118C33.48 37.3118 34.2808 37.1116 34.9816 36.7112L49.447 47.9732C46.7942 51.9775 46.8442 57.2331 49.6472 61.1874L45.2425 65.5921C44.8922 65.492 44.4917 65.4419 44.1414 65.3919C42.0391 65.3919 40.3373 67.0937 40.3373 69.1959C40.3373 71.2982 42.0391 73 44.1414 73C46.2436 73 47.9454 71.2982 47.9454 69.1959C47.9454 68.8456 47.8954 68.4451 47.7452 68.0948L52.0999 63.7401C56.004 66.7433 61.3598 66.9936 65.5142 64.3908C69.6687 61.788 71.7709 56.8828 70.7698 52.0276C69.7688 47.2725 65.8646 43.5685 61.0094 42.8177ZM59.2075 60.4866C57.0051 60.5367 54.9529 59.3854 53.8517 57.5335C52.7506 55.6314 52.7506 53.2789 53.8517 51.4269C54.9529 49.5249 57.0051 48.4237 59.2075 48.4738C62.461 48.5238 65.0137 51.1767 65.0137 54.4301C65.0137 57.6836 62.461 60.3365 59.2075 60.4866Z" fill="#FF7A59"/>
</svg>
