<svg width="119" height="26" viewBox="0 0 119 26" fill="none" xmlns="http://www.w3.org/2000/svg">
<g clip-path="url(#clip0_3164_1400)">
<path d="M19.084 17.368C20.904 15.6 21.788 13.156 21.788 10.036C21.788 6.968 20.852 4.472 19.084 2.756C17.264 1.04 14.664 0.156 11.336 0.156H2.652V8.32H1.456V0H0V26H4.16V12.532C8.32 12.792 11.96 15.028 14.092 18.304C13.26 18.46 12.324 18.564 11.336 18.564H7.54V20.02H11.336C12.636 20.02 13.832 19.864 14.872 19.604C15.704 21.32 16.172 23.244 16.172 25.22V26H20.332V25.272C20.332 22.62 19.708 20.072 18.616 17.836C18.772 17.68 18.928 17.524 19.084 17.368ZM11.284 1.612C14.248 1.612 16.536 2.34 18.044 3.796C19.552 5.252 20.332 7.332 20.332 10.036C20.332 12.74 19.552 14.82 18.044 16.276C17.992 16.328 17.94 16.38 17.836 16.432C14.976 11.752 9.932 8.528 4.108 8.32V1.612H11.284ZM1.456 24.544V9.828H2.652V24.544H1.456ZM4.16 11.024V9.828C9.464 10.088 14.092 13.052 16.692 17.368C16.328 17.576 15.964 17.732 15.6 17.888C13.156 13.936 8.996 11.284 4.16 11.024ZM18.824 24.544H17.628C17.524 22.62 17.056 20.852 16.276 19.188C16.64 19.032 17.004 18.876 17.368 18.668C18.2 20.436 18.72 22.412 18.824 24.544Z" fill="white"/>
<path d="M34.5807 2.80811V22.1001H31.3047V2.80811H34.5807ZM33.2287 2.80811H37.2327C38.6367 2.80811 39.8847 3.06811 40.8727 3.53611C41.9127 4.05611 42.6927 4.73211 43.2647 5.61611C43.8367 6.50011 44.1487 7.54011 44.1487 8.78811C44.1487 10.0361 43.8367 11.0761 43.2647 11.9601C42.6927 12.8441 41.8607 13.5721 40.8727 14.0401C39.8327 14.5601 38.6367 14.7681 37.2327 14.7681H33.2287V12.0641H37.1287C37.8567 12.0641 38.5327 11.9601 39.1047 11.7001C39.6767 11.4401 40.0927 11.0761 40.4047 10.6081C40.7167 10.1401 40.8727 9.51611 40.8727 8.84011C40.8727 8.16411 40.7167 7.54011 40.4047 7.07211C40.0927 6.60411 39.6767 6.24011 39.1047 5.98011C38.5327 5.72011 37.9087 5.61611 37.1287 5.61611H33.2287V2.80811ZM38.7927 12.8961L45.3447 22.1001H41.3927L35.3087 12.8961H38.7927Z" fill="white"/>
<path d="M49.66 19.24C49.868 19.552 50.128 19.76 50.492 19.916C50.856 20.072 51.272 20.124 51.74 20.124C52.364 20.124 52.884 20.02 53.404 19.76C53.872 19.5 54.288 19.136 54.6 18.72C54.912 18.252 55.016 17.732 55.016 17.056L55.432 18.72C55.432 19.552 55.172 20.228 54.704 20.748C54.236 21.32 53.664 21.684 52.936 21.996C52.208 22.256 51.532 22.412 50.752 22.412C49.972 22.412 49.244 22.256 48.568 21.944C47.892 21.632 47.32 21.164 46.956 20.592C46.54 19.968 46.332 19.24 46.332 18.408C46.332 17.16 46.748 16.224 47.632 15.496C48.516 14.768 49.712 14.404 51.272 14.404C52.104 14.404 52.832 14.508 53.456 14.664C54.08 14.872 54.6 15.08 54.964 15.288C55.38 15.548 55.64 15.756 55.796 15.964V17.472C55.224 17.056 54.6 16.796 53.976 16.588C53.352 16.38 52.676 16.328 51.948 16.328C51.324 16.328 50.804 16.432 50.44 16.588C50.076 16.744 49.764 16.952 49.556 17.212C49.348 17.472 49.244 17.836 49.244 18.252C49.348 18.616 49.452 18.928 49.66 19.24ZM47.216 10.66C47.788 10.296 48.568 9.98398 49.452 9.61998C50.336 9.30798 51.376 9.09998 52.572 9.09998C53.612 9.09998 54.496 9.25598 55.328 9.56798C56.16 9.87998 56.784 10.296 57.2 10.92C57.668 11.492 57.876 12.22 57.876 13.052V22.1H54.964V13.624C54.964 13.208 54.912 12.896 54.756 12.636C54.652 12.376 54.444 12.168 54.184 12.012C53.924 11.856 53.664 11.752 53.3 11.648C52.988 11.596 52.624 11.544 52.208 11.544C51.636 11.544 51.064 11.596 50.544 11.752C50.024 11.908 49.556 12.064 49.192 12.272C48.828 12.48 48.516 12.636 48.36 12.74L47.216 10.66Z" fill="white"/>
<path d="M61.2556 12.2201C61.8276 11.2321 62.6076 10.5041 63.5436 9.98415C64.4796 9.46415 65.5196 9.20415 66.6116 9.20415C67.6516 9.20415 68.5876 9.46415 69.4196 9.98415C70.1996 10.5041 70.8756 11.2841 71.3436 12.2721C71.8116 13.2601 72.0716 14.4561 72.0716 15.8081C72.0716 17.1601 71.8116 18.3561 71.3436 19.3441C70.8756 20.3321 70.2516 21.1121 69.4196 21.6321C68.6396 22.1521 67.7036 22.4121 66.6116 22.4121C65.5196 22.4121 64.5316 22.1521 63.5436 21.6321C62.6076 21.1121 61.8276 20.3321 61.2556 19.3441C60.6836 18.3561 60.4236 17.1601 60.4236 15.8081C60.3716 14.3521 60.6836 13.2081 61.2556 12.2201ZM64.0116 17.9401C64.3756 18.5641 64.8436 18.9801 65.4156 19.2921C65.9876 19.6041 66.6116 19.7601 67.2876 19.7601C67.8596 19.7601 68.4316 19.6041 69.0036 19.2921C69.5756 18.9801 69.9916 18.5121 70.3556 17.9401C70.7196 17.3681 70.8756 16.5881 70.8756 15.7561C70.8756 14.8721 70.7196 14.1441 70.3556 13.5721C69.9916 13.0001 69.5236 12.5321 69.0036 12.2201C68.4316 11.9081 67.8596 11.7521 67.2876 11.7521C66.6116 11.7521 65.9876 11.9081 65.4156 12.2201C64.8436 12.5321 64.3756 13.0001 64.0116 13.5721C63.6476 14.1961 63.4916 14.9241 63.4916 15.7561C63.4916 16.6401 63.6476 17.3161 64.0116 17.9401ZM73.8916 0.624146V22.1001H70.8756V0.624146H73.8916Z" fill="white"/>
<path d="M78.0525 3.06834C78.4165 2.70434 78.8845 2.54834 79.3525 2.54834C79.8725 2.54834 80.3405 2.70434 80.7045 3.06834C81.0685 3.43234 81.2765 3.84834 81.2765 4.36834C81.2765 4.88834 81.0685 5.30434 80.7045 5.66834C80.3405 6.03234 79.8725 6.18834 79.3525 6.18834C78.8325 6.18834 78.4165 6.03234 78.0525 5.66834C77.6885 5.30434 77.4805 4.88834 77.4805 4.36834C77.4805 3.84834 77.6885 3.43234 78.0525 3.06834ZM80.8605 9.41234V22.1003H77.8965V9.41234H80.8605Z" fill="white"/>
<path d="M88.61 19.2402C88.974 19.7602 89.598 19.9682 90.378 19.9682C90.95 19.9682 91.418 19.8642 91.834 19.6042C92.25 19.3442 92.562 19.0322 92.822 18.6162C93.082 18.2002 93.186 17.6802 93.186 17.1082V9.41223H96.15V22.1002H93.186V20.1242C92.77 20.8522 92.25 21.4242 91.626 21.7882C91.002 22.1522 90.222 22.3602 89.338 22.3602C87.934 22.3602 86.842 21.9442 86.062 21.0602C85.282 20.1762 84.918 18.9802 84.918 17.4722V9.41223H87.986V17.1602C87.986 18.0442 88.194 18.7722 88.61 19.2402Z" fill="white"/>
<path d="M118.148 22.1H115.132V14.404C115.132 13.468 114.976 12.74 114.612 12.272C114.248 11.804 113.728 11.544 113.052 11.544C112.532 11.544 112.116 11.648 111.7 11.856C111.336 12.064 111.024 12.376 110.816 12.844C110.608 13.26 110.504 13.78 110.504 14.404V22.1H107.54V14.404C107.54 13.468 107.384 12.74 107.02 12.272C106.656 11.804 106.136 11.544 105.408 11.544C104.888 11.544 104.472 11.648 104.108 11.856C103.744 12.064 103.432 12.376 103.224 12.844C103.016 13.26 102.912 13.78 102.912 14.404V22.1H100V9.41198H102.912V11.284C103.276 10.608 103.796 10.036 104.368 9.72398C104.94 9.35998 105.668 9.20398 106.5 9.20398C107.436 9.20398 108.164 9.41198 108.788 9.77598C109.412 10.14 109.828 10.712 110.14 11.44C110.608 10.712 111.18 10.14 111.856 9.72398C112.532 9.35998 113.26 9.15198 114.144 9.15198C115.08 9.15198 115.808 9.35998 116.38 9.72398C116.952 10.088 117.42 10.66 117.732 11.388C118.044 12.116 118.2 13 118.2 14.04V22.1H118.148Z" fill="white"/>
</g>
<defs>
<clipPath id="clip0_3164_1400">
<rect width="118.144" height="26" fill="white"/>
</clipPath>
</defs>
</svg>
