<svg width="131" height="26" viewBox="0 0 131 26" fill="none" xmlns="http://www.w3.org/2000/svg">
<g clip-path="url(#clip0_3352_983)">
<path opacity="0.5" d="M30.35 18.5121C30.2461 18.3041 22.6583 3.27612 22.5543 3.06812C22.1385 2.13212 21.4629 1.24812 20.4754 0.728123C18.1367 -0.675877 15.0704 0.156123 13.7191 2.49612C12.7837 4.10812 12.8356 6.03212 13.7711 7.54012C13.8751 7.74812 21.0991 22.1521 21.255 22.3601C21.359 22.5681 21.4629 22.7761 21.5668 22.9841C21.9826 23.9201 22.6583 24.8041 23.6457 25.3241C25.9844 26.7281 29.0508 25.8961 30.402 23.5561C31.3375 21.9441 31.2855 20.0201 30.35 18.5121Z" fill="white"/>
<path d="M21.6202 8.32C22.4517 7.436 22.9714 6.24 22.9714 4.94C22.9714 2.184 20.7367 0 18.0341 0C16.3711 0 14.8639 0.832 13.9804 2.132C13.7725 2.288 1.4552 17.472 1.35126 17.68C0.519716 18.564 0 19.76 0 21.06C0 23.764 2.23478 26 4.9373 26C6.60039 26 8.10757 25.168 8.99109 23.868C9.147 23.712 21.4643 8.528 21.6202 8.32Z" fill="white"/>
<path d="M42.7725 8.32C43.6041 7.436 44.1238 6.24 44.1238 4.94C44.1238 2.184 41.889 0 39.1865 0C37.5234 0 36.0162 0.832 35.1327 2.132C34.9768 2.288 22.6595 17.472 22.5036 17.68C21.6721 18.564 21.1523 19.76 21.1523 21.06C21.1523 23.816 23.3871 26 26.0896 26C27.7527 26 29.2599 25.168 30.1434 23.868C30.3513 23.712 42.6686 8.528 42.7725 8.32Z" fill="white"/>
<path d="M68.2381 13.26C67.0947 14.352 65.3797 14.924 63.0409 14.924H59.247V23.244H56.6484V3.328H63.0929C65.3277 3.328 67.0428 3.848 68.2381 4.94C69.4335 6.032 70.0051 7.436 70.0051 9.152C69.9532 10.816 69.3815 12.168 68.2381 13.26ZM66.2632 11.856C66.9388 11.232 67.3026 10.348 67.3026 9.152C67.3026 6.708 65.8994 5.46 63.0929 5.46H59.247V12.792H63.0929C64.4961 12.792 65.5876 12.48 66.2632 11.856Z" fill="white"/>
<path d="M76.0334 22.516C74.8381 21.84 73.9026 20.904 73.2269 19.656C72.5513 18.408 72.1875 17.004 72.1875 15.392C72.1875 13.78 72.5513 12.376 73.2269 11.128C73.9026 9.88003 74.89 8.94403 76.0854 8.32003C77.2807 7.64403 78.632 7.33203 80.1392 7.33203C81.6463 7.33203 82.9456 7.64403 84.1929 8.32003C85.3883 8.99603 86.3238 9.93203 87.0514 11.128C87.727 12.324 88.0908 13.78 88.0908 15.392C88.0908 17.004 87.727 18.46 86.9994 19.656C86.2718 20.904 85.3363 21.84 84.089 22.516C82.8936 23.192 81.5424 23.504 80.0352 23.504C78.528 23.504 77.2287 23.192 76.0334 22.516ZM82.6338 20.54C83.4653 20.124 84.141 19.448 84.6087 18.564C85.1284 17.68 85.3883 16.64 85.3883 15.34C85.3883 14.04 85.1284 13 84.6607 12.116C84.141 11.232 83.5173 10.608 82.7377 10.14C81.9582 9.72403 81.0746 9.51603 80.1392 9.51603C79.2037 9.51603 78.3201 9.72403 77.5406 10.14C76.761 10.556 76.1373 11.232 75.6176 12.116C75.1499 13 74.89 14.04 74.89 15.34C74.89 16.64 75.0979 17.68 75.5657 18.564C76.0334 19.448 76.6571 20.072 77.4366 20.54C78.2162 20.956 79.0997 21.164 79.9832 21.164C80.9707 21.216 81.8022 21.008 82.6338 20.54Z" fill="white"/>
<path d="M96.045 8.00778C96.8765 7.48778 97.916 7.27979 99.1633 7.27979V9.98379H98.4876C95.5772 9.98379 94.122 11.5438 94.122 14.7158V23.2438H91.5234V7.59179H94.122V10.1398C94.5378 9.20379 95.2134 8.52778 96.045 8.00778Z" fill="white"/>
<path d="M105.293 9.72389V18.9799C105.293 19.7599 105.449 20.2799 105.761 20.5919C106.073 20.9039 106.645 21.0599 107.424 21.0599H109.347V23.2439H107.06C105.605 23.2439 104.514 22.9319 103.786 22.2559C103.059 21.5799 102.695 20.4879 102.695 18.9799V9.72389H100.668V7.59189H102.695V3.63989H105.293V7.59189H109.399V9.72389H105.293Z" fill="white"/>
<path d="M112.621 4.52381C112.257 4.15981 112.102 3.74381 112.102 3.27581C112.102 2.75581 112.257 2.33981 112.621 2.02781C112.985 1.66381 113.401 1.50781 113.869 1.50781C114.336 1.50781 114.752 1.66381 115.064 2.02781C115.376 2.39181 115.584 2.80781 115.584 3.27581C115.584 3.79581 115.428 4.21181 115.064 4.52381C114.752 4.88781 114.336 5.04381 113.869 5.04381C113.401 5.04381 112.985 4.83581 112.621 4.52381ZM115.168 7.59181V23.2438H112.569V7.59181H115.168Z" fill="white"/>
<path d="M121.873 22.8798C120.938 22.4638 120.158 21.8918 119.639 21.1638C119.067 20.4358 118.755 19.6038 118.703 18.6158H121.406C121.458 19.3958 121.873 20.0198 122.497 20.5398C123.173 21.0598 124.004 21.2678 125.096 21.2678C126.083 21.2678 126.863 21.0598 127.434 20.5918C128.006 20.1758 128.266 19.6038 128.266 18.9278C128.266 18.2518 127.954 17.7318 127.33 17.4198C126.707 17.1078 125.771 16.7438 124.524 16.4318C123.381 16.1198 122.393 15.8078 121.666 15.4958C120.938 15.1838 120.314 14.7158 119.795 14.0918C119.275 13.4678 119.015 12.6358 119.015 11.6478C119.015 10.8678 119.275 10.0878 119.743 9.46379C120.21 8.78779 120.886 8.26779 121.769 7.85179C122.653 7.43579 123.64 7.27979 124.784 7.27979C126.499 7.27979 127.902 7.69579 128.993 8.57978C130.085 9.46378 130.657 10.6598 130.709 12.1678H128.11C128.058 11.3358 127.746 10.7118 127.123 10.1918C126.499 9.67178 125.719 9.46379 124.732 9.46379C123.796 9.46379 123.069 9.67178 122.497 10.0878C121.925 10.5038 121.666 11.0238 121.666 11.6478C121.666 12.1678 121.821 12.5838 122.185 12.8958C122.497 13.2078 122.913 13.5198 123.433 13.6758C123.952 13.8838 124.628 14.0918 125.511 14.3518C126.655 14.6638 127.538 14.9758 128.266 15.2358C128.993 15.5478 129.565 15.9638 130.085 16.5878C130.605 17.1598 130.864 17.9398 130.864 18.9278C130.864 19.7598 130.605 20.5398 130.137 21.2678C129.669 21.9438 128.993 22.5158 128.11 22.8798C127.226 23.2958 126.239 23.4518 125.148 23.4518C123.9 23.5038 122.861 23.2958 121.873 22.8798Z" fill="white"/>
</g>
<defs>
<clipPath id="clip0_3352_983">
<rect width="130.812" height="26" fill="white"/>
</clipPath>
</defs>
</svg>
