<svg width="139" height="26" viewBox="0 0 139 26" fill="none" xmlns="http://www.w3.org/2000/svg">
<g clip-path="url(#clip0_3352_1011)">
<path d="M33.6424 7.644L29.0144 0.364C28.8584 0.156 28.5984 0 28.3384 0H16.8984C16.4304 0 16.1184 0.364 16.1184 0.78C16.1184 1.196 16.4304 1.56 16.8984 1.56H27.9224L32.0304 7.956L23.9704 16.588L7.85042 0.26C7.69442 0.104 7.48642 0 7.27842 0H7.22642H7.17442H4.93842C4.67842 0 4.41842 0.156 4.26242 0.416L0.102424 7.696C-0.0535759 8.008 -0.00157592 8.372 0.206424 8.632L16.3784 25.792C16.5344 25.948 16.7424 26.052 16.9504 26.052H17.0024C17.2104 26.052 17.3664 25.948 17.5224 25.792L33.5384 8.632C33.7984 8.32 33.7984 7.956 33.6424 7.644ZM6.96642 1.56L22.8784 17.68L16.9504 24.076L1.76642 7.956L5.40642 1.56H6.96642ZM48.8264 3.9H52.6744C52.9864 3.9 53.2464 4.004 53.5064 4.212C53.7144 4.42 53.8184 4.732 53.8184 5.044C53.8184 5.408 53.7144 5.668 53.4544 5.876C53.1944 6.084 52.9344 6.188 52.6744 6.188H49.0344C48.6704 6.188 48.3584 6.344 48.0984 6.708L44.8744 10.868C44.6144 11.18 44.4584 11.648 44.4584 12.22V18.616C44.4584 18.928 44.5624 19.24 44.7704 19.448C44.9784 19.656 45.2904 19.812 45.6024 19.812H50.2824C50.5944 19.812 50.8544 19.708 51.1144 19.448C51.3224 19.24 51.4784 18.928 51.4784 18.616V16.12H49.0864C48.7744 16.12 48.4624 16.016 48.2544 15.808C48.0464 15.6 47.9424 15.288 47.9424 14.976C47.9424 14.664 48.0464 14.404 48.2544 14.144C48.4624 13.936 48.7224 13.832 49.0864 13.832H53.7664V18.616C53.7664 19.552 53.4024 20.384 52.7264 21.06C52.0504 21.736 51.2184 22.1 50.2824 22.1H45.6024C44.6664 22.1 43.8344 21.736 43.1584 21.06C42.4824 20.384 42.1184 19.552 42.1184 18.616V12.272C42.1184 11.128 42.4304 10.14 43.0544 9.36L46.4344 5.044C46.6944 4.732 47.0064 4.42 47.4744 4.212C47.8904 4.004 48.3584 3.9 48.8264 3.9ZM70.7184 13.208V16.016C70.7184 16.328 70.6144 16.588 70.3544 16.848C70.1464 17.056 69.8344 17.212 69.5224 17.212H61.3584V17.888C61.3584 18.304 61.5144 18.616 61.8784 18.876L62.5544 19.448C62.9184 19.708 63.2824 19.864 63.5944 19.864H69.5224C69.8344 19.864 70.0944 19.968 70.3544 20.176C70.5624 20.384 70.7184 20.696 70.7184 21.008C70.7184 21.32 70.6144 21.58 70.3544 21.84C70.0944 22.1 69.8344 22.204 69.5744 22.204H63.4904C63.0744 22.204 62.6584 22.1 62.2424 21.944C61.7744 21.788 61.4624 21.58 61.2544 21.424L60.2144 20.54C59.9024 20.28 59.6424 19.916 59.4344 19.448C59.2264 18.98 59.1224 18.564 59.1224 18.2V12.792C59.1224 12.48 59.2264 12.064 59.4864 11.596C59.7464 11.128 60.0064 10.712 60.3704 10.4L61.3064 9.62C61.9304 9.1 62.6584 8.84 63.3864 8.84H66.6104C67.4424 8.84 68.1704 9.204 68.8984 9.88L69.7824 10.712C70.4064 11.284 70.7184 12.116 70.7184 13.208ZM61.4624 13.052V14.82H68.4304V13.208C68.4304 12.792 68.2744 12.428 68.0144 12.22L67.3384 11.648C66.9744 11.388 66.6624 11.232 66.4024 11.232H63.4904C63.1264 11.232 62.8144 11.336 62.5024 11.596L61.8264 12.168C61.6184 12.376 61.4624 12.688 61.4624 13.052ZM75.8144 20.956V10.036C75.8144 9.724 75.9184 9.464 76.1264 9.204C76.3344 8.996 76.6464 8.892 76.9584 8.892C77.5304 8.892 77.9464 9.204 78.1024 9.776C78.7264 9.152 79.4544 8.892 80.2344 8.892C81.1704 8.892 81.8984 9.308 82.5224 10.088C83.2504 9.308 84.0304 8.892 84.9144 8.892C85.6424 8.892 86.2664 9.152 86.7864 9.672C87.3064 10.192 87.5664 10.816 87.6184 11.596L87.9304 21.008C87.9304 21.32 87.8264 21.58 87.5664 21.84C87.3584 22.048 87.0464 22.204 86.7344 22.204C86.4224 22.204 86.1624 22.1 85.9024 21.84C85.6944 21.632 85.5384 21.32 85.5384 21.008L85.2784 11.96C85.2784 11.492 85.1224 11.232 84.8104 11.232C84.6544 11.232 84.4984 11.284 84.3424 11.44L82.9904 12.584V21.008C82.9904 21.32 82.8864 21.58 82.6784 21.788C82.4704 21.996 82.1584 22.1 81.8464 22.1C81.5344 22.1 81.2744 21.996 81.0144 21.788C80.8064 21.58 80.6504 21.268 80.6504 20.956V11.752C80.6504 11.336 80.4944 11.18 80.1304 11.18C79.9744 11.18 79.8184 11.232 79.6624 11.336L77.9984 12.74V20.956C77.9984 21.268 77.8944 21.528 77.6864 21.788C77.4784 22.048 77.2184 22.152 76.9064 22.152C76.5944 22.152 76.3344 22.048 76.0744 21.788C75.8144 21.528 75.8144 21.268 75.8144 20.956ZM104.674 16.484V17.524C104.674 18.772 104.206 19.864 103.322 20.8C102.438 21.736 101.346 22.152 100.046 22.152H92.9744V3.952H100.046C101.294 3.952 102.386 4.42 103.322 5.304C104.206 6.188 104.674 7.28 104.674 8.58V9.568C104.674 10.92 104.154 12.116 103.114 13.052C104.102 13.936 104.674 15.132 104.674 16.484ZM102.282 9.464V8.528C102.282 7.904 102.074 7.332 101.606 6.864C101.138 6.396 100.618 6.188 99.9944 6.188H95.3144V11.752H99.9944C100.618 11.752 101.138 11.544 101.606 11.076C102.074 10.66 102.282 10.088 102.282 9.464ZM102.282 17.472V16.536C102.282 15.912 102.074 15.34 101.606 14.872C101.138 14.404 100.618 14.196 99.9944 14.196H95.3144V19.76H99.9944C100.618 19.76 101.138 19.552 101.606 19.084C102.074 18.668 102.282 18.096 102.282 17.472ZM121.626 13.052V17.94C121.626 18.98 121.158 19.916 120.17 20.8C119.182 21.684 118.194 22.1 117.154 22.1H114.45C113.41 22.1 112.37 21.632 111.434 20.748C110.498 19.864 109.978 18.928 109.978 17.888V13C109.978 12.012 110.446 11.024 111.382 10.14C112.318 9.256 113.358 8.788 114.45 8.788H117.154C118.194 8.788 119.182 9.204 120.17 10.088C121.158 10.972 121.626 11.96 121.626 13.052ZM112.318 13.156V17.836C112.318 18.252 112.474 18.616 112.786 18.824L113.67 19.552C113.878 19.708 114.138 19.812 114.502 19.812H117.154C117.57 19.812 117.882 19.656 118.246 19.396L118.922 18.772C119.182 18.564 119.338 18.252 119.338 17.836V13.156C119.338 12.688 119.182 12.376 118.922 12.116L118.09 11.492C117.83 11.284 117.518 11.128 117.154 11.128H114.762C114.242 11.128 113.826 11.232 113.566 11.492L112.786 12.168C112.474 12.428 112.318 12.74 112.318 13.156ZM132.962 17.16L129.166 21.632C128.906 21.944 128.594 22.1 128.23 22.1C127.918 22.1 127.606 21.996 127.398 21.736C127.19 21.476 127.086 21.216 127.086 20.904C127.086 20.592 127.138 20.384 127.294 20.228L131.454 15.288L127.606 10.764C127.45 10.556 127.346 10.348 127.346 10.088C127.346 9.776 127.45 9.516 127.658 9.256C127.866 8.996 128.126 8.892 128.49 8.892C128.854 8.892 129.166 9.048 129.426 9.308L132.91 13.52L136.498 9.308C136.706 9.048 136.966 8.892 137.33 8.892C137.642 8.892 137.902 8.996 138.11 9.204C138.37 9.412 138.474 9.672 138.474 9.984C138.474 10.296 138.422 10.504 138.318 10.608L134.418 15.288L138.526 20.228C138.682 20.384 138.734 20.592 138.734 20.852C138.734 21.216 138.63 21.476 138.37 21.736C138.162 21.996 137.85 22.1 137.59 22.1C137.226 22.1 136.914 21.944 136.654 21.632L132.962 17.16Z" fill="white"/>
</g>
<defs>
<clipPath id="clip0_3352_1011">
<rect width="138.788" height="26" fill="white"/>
</clipPath>
</defs>
</svg>
