<svg width="130" height="26" viewBox="0 0 130 26" fill="none" xmlns="http://www.w3.org/2000/svg">
<g clip-path="url(#clip0_3164_1380)">
<path d="M3.01535 11.076C4.52335 12.116 6.60335 12.376 8.37135 12.376C10.8154 12.376 12.6874 11.856 13.9874 10.816C15.2874 9.776 15.9114 8.424 15.9114 6.76C15.9114 4.836 14.8714 3.016 13.1034 2.132C12.5314 1.872 11.9594 1.612 11.3354 1.456C10.4514 1.248 9.46335 1.144 8.37135 1.144C5.92735 1.144 4.05535 1.664 2.75535 2.704C1.45535 3.744 0.831354 5.096 0.831354 6.76C0.831354 7.748 1.03935 8.632 1.40335 9.36C1.81935 10.036 2.33935 10.608 3.01535 11.076ZM6.60335 2.86C7.01935 2.132 7.59135 1.768 8.37135 1.768C9.09935 1.768 9.72335 2.132 10.1394 2.86C10.5554 3.588 10.7634 4.888 10.7634 6.708C10.7634 8.528 10.5554 9.828 10.1394 10.556C9.72335 11.284 9.15135 11.648 8.37135 11.648C7.64335 11.648 7.01935 11.284 6.60335 10.556C6.18735 9.828 5.97935 8.528 5.97935 6.708C5.97935 4.888 6.18735 3.588 6.60335 2.86ZM17.2114 19.552C17.2114 20.8 16.8994 22.204 16.1194 23.192C15.0794 24.492 13.5194 25.22 11.9074 25.584C9.98335 26 8.05935 26.156 6.08335 25.948C4.36735 25.74 2.18335 25.428 0.831354 24.18C0.363354 23.764 -0.00064598 23.192 -0.052646 22.568C-0.104646 22.048 0.051354 21.476 0.363354 21.008C0.675354 20.54 1.09135 20.124 1.61135 19.916C2.39135 19.604 3.32735 19.656 4.00335 20.124C4.67935 20.592 5.14735 21.424 5.14735 22.256C5.14735 23.088 4.73135 23.92 4.05535 24.388C5.71935 25.012 7.33135 25.324 9.15135 25.22C10.8154 25.116 12.4794 24.7 13.9354 23.868C15.2354 23.088 15.8594 22.1 15.8594 20.956C15.8594 19.5 14.5074 18.72 11.7514 18.72H5.30335C3.58735 18.72 2.28735 18.356 1.40335 17.68C0.207354 16.744 -0.208646 15.132 0.259354 13.676C0.623354 12.636 1.81935 12.012 2.91135 12.064C2.75535 12.272 2.59935 12.532 2.59935 12.792C2.59935 13.156 2.85935 13.416 3.17135 13.572C3.58735 13.78 4.26335 13.884 5.30335 13.884H11.8034C13.5194 13.884 14.8714 14.404 15.8074 15.392C16.7434 16.38 17.2114 17.784 17.2114 19.552ZM21.2154 2.6C21.2154 4.056 20.0714 5.2 18.6154 5.2C17.1594 5.2 16.0154 4.056 16.0154 2.6C16.0154 1.144 17.1594 0 18.6154 0C20.0714 0 21.2154 1.144 21.2154 2.6ZM33.7474 10.972V10.348L31.2514 6.812V21.216C31.2514 21.528 31.1474 21.84 30.8874 22.048C30.6794 22.256 30.3674 22.412 30.0554 22.412C29.7434 22.412 29.4314 22.308 29.2234 22.048C29.0154 21.788 28.8594 21.528 28.8594 21.216V3.536H31.9274L34.8394 7.8L37.8554 3.536H40.8714V21.216C40.8714 21.528 40.7674 21.84 40.5074 22.048C40.2474 22.256 39.9874 22.412 39.6234 22.412C39.3114 22.412 38.9994 22.308 38.7914 22.048C38.5314 21.788 38.4274 21.528 38.4274 21.216V6.916L36.0354 10.348V11.024C36.0354 11.336 35.9314 11.648 35.6714 11.856C35.4114 12.116 35.1514 12.22 34.8394 12.22C34.5274 12.22 34.2154 12.116 34.0074 11.856C33.8514 11.596 33.7474 11.284 33.7474 10.972ZM55.6394 13.208V16.12C55.6394 16.432 55.5354 16.744 55.2754 16.952C55.0154 17.212 54.7554 17.316 54.4434 17.316H45.9674V17.992C45.9674 18.408 46.1234 18.72 46.4874 19.032L47.1633 19.604C47.5274 19.916 47.8914 20.02 48.2554 20.02H54.3913C54.7034 20.02 55.0154 20.124 55.2234 20.384C55.4833 20.592 55.5874 20.904 55.5874 21.216C55.5874 21.528 55.4833 21.84 55.2234 22.048C54.9634 22.308 54.7034 22.412 54.3913 22.412H48.1514C47.7354 22.412 47.3194 22.308 46.8514 22.152C46.3834 21.996 46.0714 21.788 45.8114 21.58L44.7194 20.696C44.4074 20.436 44.0954 20.072 43.8874 19.604C43.6794 19.136 43.5754 18.668 43.5754 18.304V12.792C43.5754 12.48 43.6794 12.064 43.9394 11.544C44.1994 11.024 44.5114 10.608 44.8754 10.296L45.8633 9.516C46.5394 8.996 47.2674 8.736 48.0474 8.736H51.4274C52.2594 8.736 53.0914 9.1 53.8194 9.776L54.7034 10.608C55.3274 11.232 55.6394 12.064 55.6394 13.208ZM46.0194 13.052V14.924H53.2474V13.26C53.2474 12.792 53.0914 12.48 52.8314 12.22L52.1554 11.596C51.7914 11.284 51.4794 11.18 51.1674 11.18H48.1514C47.7873 11.18 47.4234 11.284 47.1633 11.544L46.4874 12.116C46.1754 12.324 46.0194 12.636 46.0194 13.052ZM66.6634 22.464H64.2713C63.2834 22.464 62.4514 22.1 61.7234 21.424C60.9953 20.748 60.6314 19.864 60.6314 18.876V11.128H59.3834C59.0714 11.128 58.7593 11.024 58.5513 10.764C58.3433 10.556 58.1874 10.244 58.1874 9.932C58.1874 9.62 58.2914 9.308 58.5513 9.1C58.7593 8.892 59.0714 8.736 59.3834 8.736H60.6314V5.824C60.6314 5.512 60.7354 5.2 60.9954 4.992C61.2034 4.784 61.5154 4.628 61.8274 4.628C62.1394 4.628 62.3994 4.732 62.6594 4.992C62.9194 5.252 63.0233 5.512 63.0233 5.824V8.736H67.8074C68.1194 8.736 68.4314 8.84 68.6394 9.1C68.8994 9.36 69.0034 9.62 69.0034 9.932C69.0034 10.244 68.8994 10.556 68.6394 10.764C68.3794 10.972 68.1194 11.128 67.8074 11.128H62.9714V18.876C62.9714 19.188 63.0754 19.5 63.3354 19.708C63.5954 19.968 63.8554 20.072 64.2194 20.072H66.5594C67.1834 20.072 67.5993 19.708 67.8074 19.032C68.0154 18.356 68.4314 17.992 69.0034 17.992C69.3674 17.992 69.6273 18.096 69.8874 18.356C70.0954 18.564 70.1994 18.876 70.1994 19.24C70.1994 19.968 69.8354 20.696 69.1594 21.372C68.5874 22.1 67.7034 22.464 66.6634 22.464ZM76.4914 13.832H81.1714C81.4314 13.832 81.7954 13.884 82.2634 13.988L82.2114 12.272C82.2114 11.96 82.1074 11.648 81.8474 11.44C81.6394 11.232 81.3274 11.076 81.0154 11.076H76.4914C76.1794 11.076 75.8674 10.972 75.6594 10.712C75.3994 10.452 75.2954 10.192 75.2954 9.88C75.2954 9.568 75.3994 9.256 75.6594 9.048C75.8674 8.84 76.1794 8.684 76.4914 8.684H81.0154C82.0034 8.684 82.8354 9.048 83.5634 9.724C84.2394 10.4 84.6034 11.284 84.6554 12.272L84.9674 21.216C84.9674 21.528 84.8633 21.84 84.6034 22.048C84.3434 22.256 84.0834 22.412 83.7714 22.412C83.4074 22.412 83.1474 22.308 82.8874 22.048C82.6273 21.84 82.5234 21.528 82.5234 21.216L80.4954 22.412H76.4394C75.4514 22.412 74.5674 22.048 73.8914 21.372C73.1634 20.696 72.8514 19.812 72.8514 18.824V17.42C72.8514 16.432 73.2154 15.6 73.8914 14.872C74.6714 14.196 75.5034 13.832 76.4914 13.832ZM82.4714 18.46L82.4194 17.472C82.4194 17.108 82.3154 16.848 82.0554 16.64C81.7954 16.432 81.5354 16.276 81.2234 16.276H76.4914C76.1794 16.276 75.8674 16.38 75.6594 16.64C75.4514 16.848 75.2954 17.16 75.2954 17.472V18.824C75.2954 19.136 75.3994 19.448 75.6594 19.656C75.9194 19.916 76.1794 20.02 76.4914 20.02H79.8714L82.4714 18.46ZM92.4554 10.972V10.348L89.9594 6.812V21.216C89.9594 21.528 89.8554 21.84 89.5954 22.048C89.3874 22.256 89.0754 22.412 88.7634 22.412C88.4514 22.412 88.1394 22.308 87.9314 22.048C87.7234 21.788 87.5674 21.528 87.5674 21.216V3.536H90.6354L93.5473 7.8L96.5634 3.536H99.5794V21.216C99.5794 21.528 99.4754 21.84 99.2154 22.048C98.9554 22.256 98.6954 22.412 98.3314 22.412C98.0194 22.412 97.7074 22.308 97.4994 22.048C97.2394 21.788 97.1354 21.528 97.1354 21.216V6.916L94.7434 10.348V11.024C94.7434 11.336 94.6394 11.648 94.3794 11.856C94.1194 12.116 93.8594 12.22 93.5473 12.22C93.2354 12.22 92.9234 12.116 92.7154 11.856C92.5594 11.596 92.4554 11.284 92.4554 10.972ZM105.871 13.832H110.551C110.811 13.832 111.175 13.884 111.643 13.988L111.591 12.272C111.591 11.96 111.487 11.648 111.227 11.44C111.019 11.232 110.707 11.076 110.395 11.076H105.871C105.559 11.076 105.247 10.972 105.039 10.712C104.779 10.452 104.675 10.192 104.675 9.88C104.675 9.568 104.779 9.256 105.039 9.048C105.247 8.84 105.559 8.684 105.871 8.684H110.395C111.383 8.684 112.215 9.048 112.943 9.724C113.619 10.4 113.983 11.284 114.035 12.272L114.347 21.216C114.347 21.528 114.243 21.84 113.983 22.048C113.723 22.256 113.463 22.412 113.151 22.412C112.787 22.412 112.527 22.308 112.267 22.048C112.007 21.84 111.903 21.528 111.903 21.216L109.875 22.412H105.819C104.831 22.412 103.947 22.048 103.271 21.372C102.543 20.696 102.231 19.812 102.231 18.824V17.42C102.231 16.432 102.595 15.6 103.271 14.872C103.999 14.196 104.883 13.832 105.871 13.832ZM111.851 18.46L111.799 17.472C111.799 17.108 111.695 16.848 111.435 16.64C111.175 16.432 110.915 16.276 110.603 16.276H105.871C105.559 16.276 105.247 16.38 105.039 16.64C104.831 16.848 104.675 17.16 104.675 17.472V18.824C104.675 19.136 104.779 19.448 105.039 19.656C105.299 19.916 105.559 20.02 105.871 20.02H109.251L111.851 18.46ZM120.327 8.736H125.787C126.619 8.736 127.399 8.996 128.023 9.516C128.699 10.036 129.011 10.504 129.011 11.024C129.011 11.388 128.907 11.648 128.647 11.856C128.387 12.064 128.127 12.168 127.867 12.168C127.503 12.168 127.139 12.012 126.827 11.648C126.515 11.284 126.203 11.128 125.839 11.128H120.431C119.911 11.128 119.651 11.336 119.651 11.804C119.651 12.116 119.807 12.324 120.171 12.532L126.515 15.34C127.139 15.6 127.711 16.068 128.075 16.692C128.491 17.316 128.699 18.044 128.699 18.772C128.699 19.812 128.335 20.644 127.607 21.372C126.879 22.1 126.047 22.464 125.163 22.464H120.327C119.495 22.464 118.715 22.204 117.987 21.736C117.259 21.216 116.895 20.748 116.895 20.28C116.895 19.968 116.999 19.708 117.259 19.448C117.467 19.188 117.779 19.084 118.143 19.084C118.455 19.084 118.767 19.24 119.131 19.604C119.495 19.968 119.963 20.124 120.639 20.124H125.111C125.475 20.124 125.735 19.968 125.995 19.708C126.255 19.448 126.359 19.136 126.359 18.772C126.359 18.252 126.099 17.836 125.579 17.628L119.183 14.716C118.559 14.456 118.091 14.04 117.779 13.52C117.467 13 117.259 12.48 117.259 11.908C117.259 11.076 117.571 10.296 118.143 9.672C118.715 9.048 119.443 8.736 120.327 8.736Z" fill="white"/>
</g>
<defs>
<clipPath id="clip0_3164_1380">
<rect width="129.012" height="26" fill="white"/>
</clipPath>
</defs>
</svg>
