<svg width="134" height="26" viewBox="0 0 134 26" fill="none" xmlns="http://www.w3.org/2000/svg">
<g clip-path="url(#clip0_3352_979)">
<path d="M11.7632 24.8092C5.28424 24.8092 0 19.1031 0 12.1069V0C6.52489 0 11.7632 5.70611 11.7632 12.7023V24.8092ZM20.3099 6.40076V0C16.1744 0 12.82 3.62214 12.82 8.08778V14.4885C16.9555 14.5382 20.3099 10.916 20.3099 6.40076ZM29.7756 24.8092C29.7756 19.8473 26.0536 15.7786 21.4127 15.7786H12.82C12.82 20.7405 16.542 24.8092 21.1829 24.8092H29.7756ZM42.2739 20.2939C44.6174 20.2939 46.3635 19.5992 47.4663 18.2595C48.5691 16.9198 49.1205 14.7863 49.1205 11.9084C49.1205 8.83206 48.5691 6.64885 47.4203 5.30916C46.3175 3.96947 44.5714 3.32443 42.2739 3.32443H35.9328V20.2443H42.2739V20.2939ZM38.5979 5.60687H41.9063C43.0091 5.60687 43.8822 5.80534 44.5714 6.15267C45.2607 6.5 45.7202 7.14504 46.0418 8.08778C46.3635 8.98092 46.5013 10.271 46.5013 11.958C46.5013 13.645 46.3175 14.8855 45.9959 15.7786C45.6742 16.6718 45.1228 17.2672 44.4795 17.6145C43.7903 17.9618 42.9632 18.1107 41.9063 18.1107H38.5979V5.60687ZM57.5753 20.145C58.2645 19.8969 58.8619 19.5 59.3214 19.0038L59.5052 20.2443H61.7567V12.2557C61.7567 10.5687 61.2972 9.37786 60.4242 8.63359C59.5511 7.88931 58.2645 7.54198 56.5644 7.54198C55.6913 7.54198 54.9102 7.5916 54.175 7.74046C53.4398 7.88931 52.7965 8.08779 52.291 8.28626V10.4198C53.4857 9.97328 54.7723 9.77481 56.1049 9.77481C56.9779 9.77481 57.6212 9.87405 58.0807 10.0229C58.5402 10.1718 58.8159 10.4198 58.9997 10.7672C59.1835 11.1145 59.2754 11.6107 59.2754 12.2061V12.7519H55.5535C53.9912 12.7519 52.7965 13.0992 52.0613 13.8435C51.3261 14.5878 50.9125 15.5305 50.9125 16.7214C50.9125 17.5649 51.0963 18.2595 51.4639 18.855C51.8315 19.4008 52.337 19.8473 52.9803 20.145C53.6236 20.4427 54.2669 20.542 55.0021 20.542C56.013 20.542 56.886 20.4427 57.5753 20.145ZM53.9452 18.1107C53.5317 17.813 53.3479 17.3664 53.3479 16.7214C53.3479 16.0763 53.5317 15.5802 53.8533 15.2328C54.2209 14.8855 54.7723 14.7366 55.5535 14.7366H59.1835V16.9198C58.8159 17.416 58.3105 17.813 57.7131 18.1107C57.1158 18.4084 56.4265 18.5573 55.6454 18.5573C54.9561 18.5076 54.3588 18.3588 53.9452 18.1107ZM74.8065 18.855C75.7714 17.7137 76.2769 16.126 76.2769 14.042C76.2769 11.958 75.7714 10.3702 74.8065 9.22901C73.8415 8.08779 72.3252 7.54198 70.2115 7.54198C68.1437 7.54198 66.6274 8.08779 65.6624 9.22901C64.6975 10.3702 64.192 11.958 64.192 14.042C64.192 16.126 64.6975 17.7137 65.6624 18.855C66.6274 19.9962 68.1437 20.542 70.2115 20.542C72.3252 20.542 73.8415 19.9962 74.8065 18.855ZM67.6383 17.1679C67.1328 16.5229 66.8571 15.4809 66.8571 14.042C66.8571 12.6031 67.1328 11.5611 67.6383 10.916C68.1437 10.271 69.0168 9.97328 70.2115 9.97328C71.4062 9.97328 72.2792 10.271 72.7847 10.916C73.2901 11.5611 73.5658 12.6031 73.5658 14.042C73.5658 15.4809 73.2901 16.5229 72.7847 17.1679C72.2792 17.813 71.4062 18.1107 70.2115 18.1107C69.0168 18.1603 68.1437 17.813 67.6383 17.1679ZM88.2239 19.3015C89.2348 18.458 89.7402 17.2672 89.7402 15.7786C89.7402 14.9847 89.6024 14.2405 89.3267 13.5954C89.051 12.9504 88.5455 12.4046 87.8563 11.9084C87.167 11.4122 86.1561 11.0153 84.8695 10.6679C83.8586 10.3702 83.1234 10.1221 82.5261 9.92366C81.9747 9.67557 81.5611 9.42748 81.3314 9.12977C81.1016 8.83206 81.0097 8.3855 81.0097 7.88931C81.0097 6.99618 81.3314 6.40076 81.9747 6.05343C82.618 5.70611 83.537 5.55725 84.6857 5.55725C86.2021 5.55725 87.5346 5.80534 88.7753 6.30153V3.77099C88.3158 3.57252 87.6725 3.42366 86.8913 3.27481C86.1102 3.12595 85.2371 3.07634 84.3181 3.07634C82.3423 3.07634 80.8259 3.47328 79.815 4.31679C78.8041 5.1603 78.2987 6.30153 78.2987 7.79008C78.2987 9.08015 78.6203 10.0725 79.3096 10.8168C79.9988 11.5611 81.1935 12.1565 82.8477 12.6031C83.9046 12.9008 84.7317 13.1489 85.329 13.3969C85.9264 13.645 86.3399 13.9427 86.6156 14.2901C86.8913 14.6374 86.9832 15.084 86.9832 15.6794C86.9832 16.6221 86.6616 17.2672 86.0642 17.5649C85.4209 17.8626 84.5019 18.0611 83.2613 18.0611C82.4801 18.0611 81.653 17.9618 80.8719 17.813C80.0907 17.6145 79.3096 17.416 78.6203 17.1183V19.6489C79.861 20.1947 81.4692 20.4924 83.537 20.4924C85.6507 20.542 87.213 20.145 88.2239 19.3015ZM96.8625 20.2939L99.3897 12.1565L101.871 20.2939H104.398L107.431 7.83969H104.812L102.836 16.9198L100.309 7.83969H98.2869V9.37786L96.0354 16.9198L94.0595 7.83969H91.3944L94.4271 20.2939H96.8625ZM115.013 20.145C115.702 19.8969 116.299 19.5 116.759 19.0038L116.943 20.2443H119.194V12.2557C119.194 10.5687 118.735 9.37786 117.862 8.63359C116.989 7.88931 115.702 7.54198 114.002 7.54198C113.129 7.54198 112.348 7.5916 111.612 7.74046C110.877 7.88931 110.234 8.08779 109.728 8.28626V10.4198C110.923 9.97328 112.21 9.77481 113.542 9.77481C114.415 9.77481 115.059 9.87405 115.518 10.0229C115.978 10.1718 116.253 10.4198 116.437 10.7672C116.621 11.1145 116.713 11.6107 116.713 12.2061V12.7519H112.991C111.429 12.7519 110.234 13.0992 109.499 13.8435C108.763 14.5878 108.35 15.5305 108.35 16.7214C108.35 17.5649 108.534 18.2595 108.901 18.855C109.269 19.4008 109.774 19.8473 110.418 20.145C111.061 20.4427 111.704 20.542 112.439 20.542C113.45 20.542 114.323 20.4427 115.013 20.145ZM111.383 18.1107C110.969 17.813 110.785 17.3664 110.785 16.7214C110.785 16.0763 110.969 15.5802 111.291 15.2328C111.658 14.8855 112.21 14.7366 112.991 14.7366H116.621V16.9198C116.253 17.416 115.748 17.813 115.151 18.1107C114.553 18.4084 113.864 18.5573 113.083 18.5573C112.394 18.5076 111.796 18.3588 111.383 18.1107ZM124.8 26V19.5496C125.811 20.2443 127.006 20.5916 128.384 20.5916C130.038 20.5916 131.325 20.0458 132.29 18.9046C133.255 17.813 133.714 16.126 133.714 13.8931C133.714 11.6603 133.255 10.0229 132.336 9.08015C131.417 8.08778 130.13 7.64122 128.476 7.64122C127.649 7.64122 126.914 7.74046 126.27 7.98855C125.673 8.23664 125.076 8.63359 124.57 9.12977L124.432 7.88931H122.135V26.0496H124.8V26ZM126.041 18.1107C125.581 17.9122 125.168 17.6641 124.8 17.3168V11.0649C125.581 10.1718 126.592 9.77481 127.787 9.77481C128.981 9.77481 129.809 10.0725 130.314 10.7176C130.819 11.3626 131.049 12.4046 131.049 13.8435C131.049 16.8702 129.946 18.4084 127.695 18.4084C127.052 18.4084 126.5 18.3092 126.041 18.1107Z" fill="white"/>
</g>
<defs>
<clipPath id="clip0_3352_979">
<rect width="133.714" height="26" fill="white"/>
</clipPath>
</defs>
</svg>
