<svg width="143" height="28" viewBox="0 0 143 28" fill="none" xmlns="http://www.w3.org/2000/svg">
<g clip-path="url(#clip0_3164_1359)">
<path opacity="0.5" d="M27.6643 27.8419L41.5156 13.9906L27.6643 0.139267L13.813 13.9906L27.6643 27.8419Z" fill="white"/>
<path d="M13.8323 27.8419L27.6836 13.9906L13.8323 0.139266L-0.0190807 13.9906L13.8323 27.8419Z" fill="white"/>
<path d="M66.1797 9.07507C66.6778 9.7391 66.9544 10.5691 66.9544 11.5099C66.9544 12.8379 66.4564 13.8893 65.405 14.6087C64.3536 15.328 62.8596 15.7154 60.8675 15.7154H53.1758V0.221313H60.4248C62.2509 0.221313 63.6896 0.553329 64.6303 1.2727C65.6264 1.99206 66.1244 2.98811 66.1244 4.2055C66.1244 4.98021 65.9584 5.64424 65.571 6.25293C65.239 6.86163 64.741 7.30432 64.1323 7.63633C64.9623 7.91301 65.6817 8.41104 66.1797 9.07507ZM56.0533 2.49009V6.75096H60.1481C61.1442 6.75096 61.9189 6.58495 62.4722 6.1976C63.0256 5.81025 63.3023 5.31222 63.3023 4.59285C63.3023 3.87349 63.0256 3.37546 62.4722 2.98811C61.9189 2.60076 61.1442 2.43475 60.1481 2.43475H56.0533V2.49009ZM64.0216 11.2332C64.0216 9.7391 62.9149 9.01973 60.7015 9.01973H56.0533V13.5019H60.7015C62.9149 13.4466 64.0216 12.7272 64.0216 11.2332Z" fill="white"/>
<path d="M70 0.221313H72.8775V15.7154H70V0.221313Z" fill="white"/>
<path d="M90.806 0.221313V15.7154H88.4266L79.9048 5.20155V15.7154H77.0273V0.221313H79.4068L87.9285 10.7351V0.221313H90.806Z" fill="white"/>
<path d="M105.027 12.1185H97.2797L95.7303 15.7154H92.7422L99.7145 0.221313H102.537L109.509 15.7154H106.521L105.027 12.1185ZM104.086 9.84977L101.153 3.09878L98.2758 9.84977H104.086Z" fill="white"/>
<path d="M125.333 0.221313V15.7154H122.954L114.432 5.20155V15.7154H111.555V0.221313H113.934L122.456 10.7351V0.221313H125.333Z" fill="white"/>
<path d="M132.418 14.8854C131.146 14.2213 130.15 13.2253 129.43 12.0632C128.711 10.8459 128.379 9.46245 128.379 7.96838C128.379 6.47431 128.766 5.09091 129.486 3.87352C130.205 2.65613 131.201 1.71542 132.474 1.05138C133.746 0.387352 135.13 0 136.735 0C138.007 0 139.169 0.221344 140.221 0.664032C141.272 1.10672 142.158 1.77075 142.877 2.60079L140.995 4.37154C139.889 3.15415 138.505 2.54545 136.845 2.54545C135.794 2.54545 134.853 2.7668 133.968 3.26482C133.082 3.76285 132.474 4.37154 131.976 5.20158C131.478 6.03162 131.256 6.97233 131.256 8.02372C131.256 9.0751 131.478 10.0158 131.976 10.8459C132.474 11.6759 133.082 12.3399 133.968 12.7826C134.853 13.2253 135.739 13.502 136.845 13.502C138.505 13.502 139.889 12.8933 140.995 11.6759L142.877 13.4466C142.158 14.2767 141.272 14.9407 140.221 15.3834C139.169 15.8261 138.007 16.0474 136.735 16.0474C135.075 15.9368 133.691 15.6047 132.418 14.8854Z" fill="white"/>
<path d="M58.9867 24.9013C59.2081 25.178 59.3187 25.5653 59.3187 26.008C59.3187 26.6167 59.0974 27.0594 58.5994 27.3914C58.1567 27.7234 57.4373 27.8894 56.5519 27.8894H53.1211V20.9171H56.3859C57.216 20.9171 57.8247 21.0831 58.2673 21.4151C58.71 21.7472 58.9314 22.1898 58.9314 22.7432C58.9314 23.0752 58.876 23.4072 58.71 23.6839C58.544 23.9606 58.3227 24.1819 58.046 24.2926C58.4334 24.4033 58.7654 24.6246 58.9867 24.9013ZM54.3938 21.9132V23.8499H56.2199C56.6626 23.8499 56.9946 23.7946 57.2713 23.6286C57.4926 23.4626 57.6586 23.2412 57.6586 22.9092C57.6586 22.5772 57.548 22.3558 57.2713 22.1898C57.05 22.0238 56.6626 21.9685 56.2199 21.9685H54.3938V21.9132ZM57.9907 25.842C57.9907 25.178 57.4926 24.846 56.4966 24.846H54.3938V26.8381H56.4966C57.4926 26.8934 57.9907 26.5614 57.9907 25.842Z" fill="white"/>
<path d="M62.418 20.9171H63.6907V26.7827H67.3429V27.8894H62.418V20.9171Z" fill="white"/>
<path d="M71.2714 27.5019C70.718 27.1699 70.2754 26.7825 69.9433 26.2292C69.6113 25.6758 69.4453 25.0671 69.4453 24.4031C69.4453 23.739 69.6113 23.1303 69.9433 22.577C70.2754 22.0236 70.718 21.5809 71.2714 21.3043C71.8248 20.9722 72.4888 20.8616 73.2082 20.8616C73.9275 20.8616 74.5362 21.0276 75.1449 21.3043C75.6983 21.6363 76.141 22.0236 76.473 22.577C76.805 23.1303 76.971 23.739 76.971 24.4031C76.971 25.0671 76.805 25.6758 76.473 26.2292C76.141 26.7825 75.6983 27.2252 75.1449 27.5019C74.5916 27.8339 73.9275 27.9446 73.2082 27.9446C72.4888 27.9999 71.8248 27.8339 71.2714 27.5019ZM74.4256 26.5612C74.8129 26.3398 75.0896 26.0632 75.3109 25.6758C75.5323 25.2884 75.6429 24.9011 75.6429 24.4031C75.6429 23.905 75.5323 23.5177 75.3109 23.1303C75.0896 22.743 74.8129 22.4663 74.4256 22.245C74.0382 22.0236 73.6508 21.913 73.1528 21.913C72.7101 21.913 72.2674 22.0236 71.8801 22.245C71.4927 22.4663 71.2161 22.743 70.9947 23.1303C70.7734 23.5177 70.6627 23.905 70.6627 24.4031C70.6627 24.9011 70.7734 25.2884 70.9947 25.6758C71.2161 26.0632 71.4927 26.3398 71.8801 26.5612C72.2674 26.7825 72.6548 26.8932 73.1528 26.8932C73.6508 26.8379 74.0935 26.7272 74.4256 26.5612Z" fill="white"/>
<path d="M81.3456 27.5019C80.7923 27.1699 80.3496 26.7825 80.0176 26.2292C79.6855 25.6758 79.5195 25.0671 79.5195 24.4031C79.5195 23.739 79.6855 23.1303 80.0176 22.577C80.3496 22.0236 80.7923 21.5809 81.3456 21.3043C81.899 20.9722 82.563 20.8616 83.227 20.8616C83.7804 20.8616 84.3338 20.9722 84.7764 21.1383C85.2745 21.3596 85.6618 21.6363 85.9938 22.0236L85.1638 22.7983C84.6658 22.245 84.0571 21.9683 83.2824 21.9683C82.7844 21.9683 82.397 22.079 82.0097 22.3003C81.6223 22.5217 81.3456 22.7983 81.1243 23.1857C80.9029 23.573 80.7923 23.9604 80.7923 24.4584C80.7923 24.9564 80.9029 25.3438 81.1243 25.7311C81.3456 26.1185 81.6223 26.3952 82.0097 26.6165C82.397 26.8379 82.8397 26.9485 83.2824 26.9485C84.0017 26.9485 84.6658 26.6718 85.1638 26.1185L85.9938 26.8932C85.6618 27.2805 85.2745 27.5572 84.7764 27.7786C84.2784 27.9999 83.7804 28.0552 83.227 28.0552C82.563 27.9999 81.899 27.8339 81.3456 27.5019Z" fill="white"/>
<path d="M91.3599 24.9566L90.2532 26.1187V27.8894H88.9805V20.9171H90.2532V24.514L93.684 20.9171H95.1228L92.19 24.0159L95.2888 27.8894H93.7947L91.3599 24.9566Z" fill="white"/>
<path d="M103.697 27.5019C103.144 27.1699 102.701 26.7825 102.369 26.2292C102.037 25.6758 101.871 25.0671 101.871 24.4031C101.871 23.739 102.037 23.1303 102.369 22.577C102.701 22.0236 103.144 21.5809 103.697 21.3043C104.251 20.9722 104.915 20.8616 105.579 20.8616C106.132 20.8616 106.685 20.9722 107.128 21.1383C107.626 21.3596 108.013 21.6363 108.345 22.0236L107.515 22.7983C107.017 22.245 106.409 21.9683 105.634 21.9683C105.136 21.9683 104.749 22.079 104.361 22.3003C103.974 22.5217 103.697 22.7983 103.476 23.1857C103.254 23.573 103.144 23.9604 103.144 24.4584C103.144 24.9564 103.254 25.3438 103.476 25.7311C103.697 26.1185 103.974 26.3952 104.361 26.6165C104.749 26.8379 105.191 26.9485 105.634 26.9485C106.353 26.9485 107.017 26.6718 107.515 26.1185L108.345 26.8932C108.013 27.2805 107.626 27.5572 107.128 27.7786C106.63 27.9999 106.132 28.0552 105.579 28.0552C104.915 27.9999 104.251 27.8339 103.697 27.5019Z" fill="white"/>
<path d="M117.533 20.9171V27.8894H116.26V24.9013H112.663V27.8894H111.391V20.9171H112.663V23.7946H116.26V20.9171H117.533Z" fill="white"/>
<path d="M125.611 26.2847H122.125L121.461 27.8894H120.133L123.287 20.9171H124.56L127.714 27.8894H126.386L125.611 26.2847ZM125.224 25.2333L123.896 22.1898L122.568 25.2333H125.224Z" fill="white"/>
<path d="M130.262 20.9171H131.534V27.8894H130.262V20.9171Z" fill="white"/>
<path d="M141.33 20.9171V27.8894H140.278L136.46 23.1859V27.8894H135.188V20.9171H136.239L140.057 25.6207V20.9171H141.33Z" fill="white"/>
</g>
<defs>
<clipPath id="clip0_3164_1359">
<rect width="142.822" height="28" fill="white"/>
</clipPath>
</defs>
</svg>
