<svg width="120" height="26" viewBox="0 0 120 26" fill="none" xmlns="http://www.w3.org/2000/svg">
<g clip-path="url(#clip0_3164_1415)">
<path d="M26 13C26 20.2057 20.2057 26 13 26C10.0286 26 7.28 24.96 5.05143 23.2514C5.12571 22.88 5.2 22.5086 5.34857 22.1371C6.09143 22.7314 6.83429 23.2514 7.65143 23.6229C8.91429 24.2914 10.3257 24.6629 11.8114 24.8114C14.7086 25.0343 17.6057 24.2171 19.9086 22.5829C22.2114 20.8743 23.8457 18.3486 24.44 15.6C25.0343 12.8514 24.5886 9.88 23.1771 7.42857C21.7657 4.97714 19.4629 3.12 16.8629 2.22857C14.2629 1.33714 11.2914 1.41143 8.76571 2.52571C6.24 3.56571 4.08571 5.64571 2.89714 8.09714C1.70857 10.4743 1.41143 13.3714 2.15429 15.9714C1.48571 13.2971 1.78286 10.4743 3.04571 8.09714C4.23429 5.72 6.38857 3.78857 8.84 2.82286C11.2914 1.85714 14.1143 1.85714 16.64 2.74857C19.0914 3.64 21.2457 5.49714 22.5086 7.8C23.7714 10.1029 24.0686 12.8514 23.4743 15.3771C22.88 17.9029 21.32 20.2057 19.24 21.6171C17.16 23.1029 14.4857 23.7714 11.96 23.4743C10.6971 23.3257 9.43429 22.9543 8.32 22.36C7.42857 21.9143 6.61143 21.32 5.86857 20.5771C7.20571 16.64 9.65714 13.0743 12.6286 10.1029L15.8971 14.4857C16.3429 14.4857 16.7886 14.56 17.2343 14.7086C17.3829 14.7829 17.5314 14.7829 17.68 14.8571C17.3086 14.7829 16.7886 14.8571 16.1943 15.08C13.9657 15.8229 10.1771 17.5314 7.13143 20.8743C12.3314 17.68 20.1314 18.4229 20.1314 18.4229L14.8571 5.57143L13.8914 3.12C6.68572 8.39429 4.08571 16.0457 3.34286 21.6914C1.26286 19.3886 0 16.3429 0 13C0 5.79429 5.79429 0 13 0C20.2057 0 26 5.79429 26 13ZM43.3829 10.3257C43.3829 10.0286 43.16 9.88 42.7886 9.88L41.3771 9.95429H39V5.72H42.0457C42.64 5.72 43.0857 5.79429 43.4571 5.86857C43.68 5.94286 43.8286 5.94286 44.0514 5.94286C44.2 5.94286 44.2743 5.86857 44.4229 5.79429C44.4971 5.64571 44.5714 5.57143 44.5714 5.42286C44.5714 5.05143 44.2743 4.90286 43.68 4.90286H43.4571H42.2686H32.9829V21.3943H38.9257V10.7714H41.5257C41.8229 10.7714 41.9714 10.7714 42.1943 10.7714H42.64C43.16 10.7714 43.3829 10.6229 43.3829 10.3257ZM50.8857 6.38857C51.4057 6.01714 51.6286 5.64571 51.6286 5.12571C51.6286 4.60571 51.4057 4.16 50.96 3.78857C50.7371 3.56571 50.44 3.41714 50.1429 3.34286C49.8457 3.19429 49.3257 3.19429 48.8057 3.19429C48.2114 3.19429 47.6171 3.41714 47.0971 3.78857C46.5771 4.16 46.3543 4.53143 46.3543 5.05143C46.3543 5.64571 46.5771 6.09143 47.0229 6.46286C47.4686 6.83429 48.1371 6.98286 48.88 6.98286C49.6971 6.90857 50.3657 6.68571 50.8857 6.38857ZM46.4286 21.3943H51.48V8.91429H46.4286V21.3943ZM63.96 21.3943H69.0114V12.7029C69.0114 10.0286 67.6 8.69143 64.8514 8.69143C63.1429 8.69143 61.6571 9.43429 60.32 10.92V8.91429H55.2686V21.3943H60.32V12.1829C60.7657 11.5143 61.2857 10.9943 61.88 10.6229C62.1771 10.4 62.4 10.3257 62.6229 10.1771C62.8457 10.1029 63.0686 10.0286 63.2914 10.0286C63.5143 10.0286 63.7371 10.1029 63.8857 10.2514V21.3943H63.96ZM72.8 21.3943H76.7371C78.52 21.3943 79.8571 21.32 80.8229 21.1714C82.6057 20.8743 84.0914 20.2057 85.3543 19.0914C87.2114 17.5314 88.1029 15.4514 88.1029 12.9257C88.1029 11.2914 87.7314 9.88 86.9886 8.61714C86.6171 8.02286 86.0971 7.35429 85.4286 6.83429C84.76 6.24 83.8686 5.79429 82.6057 5.42286C81.5657 5.12571 79.8571 4.97714 77.6286 4.97714H72.8V21.3943ZM78.8171 5.79429C79.8571 5.79429 80.6743 5.86857 81.4171 6.01714C83.5714 6.38857 85.2057 7.42857 86.1714 9.06286C86.84 10.2514 87.2114 11.5143 87.2114 13C87.2114 15.3029 86.3943 17.16 84.8343 18.4971C83.3486 19.8343 81.5657 20.5029 79.4114 20.5029H79.1143C79.04 20.5029 78.8914 20.5029 78.7429 20.5029V5.79429H78.8171ZM99.0229 21.3943H104V14.1143C104 12.9257 103.777 11.96 103.406 11.2171C102.44 9.58286 100.211 8.76571 96.7943 8.76571C95.68 8.76571 94.4914 8.98857 93.3771 9.43429C92.8571 9.65714 92.4114 9.80571 92.1886 10.0286C92.1143 10.1029 92.04 10.1771 91.9657 10.3257C91.8914 10.4 91.8914 10.5486 91.8914 10.6229C91.8914 10.6971 91.9657 10.8457 92.04 10.92C92.1143 10.9943 92.2629 11.0686 92.4857 11.0686C92.6343 11.0686 92.8571 10.9943 93.08 10.7714C93.4514 10.4 93.9714 10.1771 94.7143 9.95429C95.0857 9.88 95.3829 9.80571 95.7543 9.73143C96.1257 9.65714 96.5714 9.65714 97.0914 9.65714C97.6114 9.65714 98.28 9.73143 98.9486 9.95429V13.1486C97.9829 12.7029 96.9429 12.48 95.8286 12.48C94.12 12.48 92.7829 12.9257 91.7429 13.7429C90.7029 14.56 90.2571 15.6743 90.2571 16.9371C90.2571 18.4229 90.7771 19.5371 91.7429 20.4286C92.7086 21.2457 94.0457 21.6171 95.6057 21.6171C96.7943 21.6171 97.9086 21.32 98.9486 20.6514V21.3943H99.0229ZM99.0229 19.6114C97.9829 20.3543 97.0172 20.7257 95.9029 20.7257C95.8286 20.7257 95.8286 20.7257 95.7543 20.7257C95.68 20.7257 95.68 20.7257 95.6057 20.7257V13.2971C95.7543 13.2971 95.9029 13.2971 96.0514 13.2971C97.0172 13.2971 97.9829 13.52 98.9486 14.04V19.6114H99.0229ZM108.531 19.8343C109.794 21.0229 111.354 21.6171 113.286 21.6171C115.217 21.6171 116.851 20.9486 118.114 19.6857C119.303 18.4229 119.971 16.9371 119.971 15.08C119.971 13.2229 119.377 11.7371 118.189 10.5486C116.926 9.28571 115.366 8.69143 113.36 8.69143C111.429 8.69143 109.794 9.28571 108.531 10.5486C107.937 11.1429 107.491 11.8114 107.12 12.5543C106.749 13.2971 106.6 14.1886 106.6 15.08C106.6 17.0114 107.269 18.5714 108.531 19.8343ZM112.914 9.58286C112.989 9.58286 112.989 9.58286 113.063 9.58286H113.211C114.846 9.58286 116.257 10.1029 117.297 11.1429C118.337 12.1829 118.931 13.52 118.931 15.2286C118.931 16.9371 118.337 18.3486 117.223 19.3886C116.183 20.3543 114.846 20.8743 113.286 20.8743H113.137C113.063 20.8743 112.989 20.8743 112.914 20.8743V9.58286Z" fill="white"/>
</g>
<defs>
<clipPath id="clip0_3164_1415">
<rect width="119.897" height="26" fill="white"/>
</clipPath>
</defs>
</svg>
