<svg width="134" height="26" viewBox="0 0 134 26" fill="none" xmlns="http://www.w3.org/2000/svg">
<g clip-path="url(#clip0_3164_1392)">
<path d="M26.8042 10.192C26.3169 12.636 24.6601 14.612 23.3444 16.536C21.6876 18.98 18.4227 22.464 16.0837 24.856C14.573 26.416 12.2827 26.416 10.7721 24.856C8.43309 22.464 5.21693 18.98 3.51139 16.536C2.19569 14.612 0.538881 12.636 0.0515839 10.192C-0.825551 5.252 2.48807 0.052 6.92247 0C7.84834 0 8.82293 0.208 9.65134 0.624C10.3823 1.04 10.8696 1.768 11.4056 2.392C12.1365 3.276 12.8675 4.16 13.5497 5.096C14.8654 6.708 16.1811 8.372 17.4968 9.984C17.6917 10.244 17.9841 10.348 18.2278 10.348C18.4714 10.348 18.6663 10.244 18.8612 10.088C19.2511 9.724 19.2998 9.048 18.9587 8.632L14.573 3.172C15.84 1.248 17.8379 0 20.0795 0C24.5139 0.052 27.8275 5.252 26.8042 10.192ZM37.3785 13.364C37.3785 11.96 37.6709 10.764 38.2557 9.776C38.8404 8.736 39.5714 7.956 40.4972 7.384C41.4231 6.812 42.4464 6.552 43.5672 6.552C44.4443 6.552 45.224 6.656 45.9062 6.916C46.5885 7.176 47.2219 7.488 47.758 7.904C48.294 8.32 48.7813 8.788 49.2199 9.308V5.46C48.4889 4.784 47.6605 4.264 46.7834 3.9C45.9062 3.536 44.7854 3.38 43.4697 3.38C42.154 3.38 40.8871 3.64 39.7663 4.108C38.5968 4.576 37.6222 5.304 36.7938 6.188C35.9654 7.072 35.2832 8.112 34.7959 9.36C34.3086 10.608 34.0649 11.908 34.0649 13.416C34.0649 14.872 34.3086 16.224 34.7959 17.42C35.2832 18.668 35.9166 19.708 36.7938 20.592C37.6222 21.476 38.6455 22.204 39.7663 22.672C40.8871 23.14 42.154 23.4 43.4697 23.4C44.7854 23.4 45.9062 23.244 46.7834 22.88C47.6605 22.516 48.4889 22.048 49.2199 21.372V17.472C48.83 17.992 48.3427 18.46 47.758 18.876C47.2219 19.292 46.5885 19.604 45.9062 19.864C45.224 20.124 44.4443 20.228 43.5672 20.228C42.4464 20.228 41.4718 19.968 40.4972 19.396C39.5714 18.824 38.7917 18.044 38.2557 17.004C37.6709 15.912 37.3785 14.716 37.3785 13.364ZM52.972 3.744V23.036H56.042V3.744H52.972ZM54.775 6.552H58.4298C59.112 6.552 59.7455 6.656 60.2815 6.916C60.8175 7.176 61.2074 7.54 61.4997 8.008C61.7921 8.476 61.9383 9.048 61.9383 9.776C61.9383 10.452 61.7921 11.024 61.4997 11.544C61.2074 12.012 60.8175 12.376 60.2815 12.636C59.7455 12.896 59.1607 13 58.4298 13H54.775V15.704H58.5272C59.8429 15.704 61.0124 15.444 61.9383 14.976C62.9129 14.456 63.6438 13.78 64.1799 12.896C64.7159 12.012 65.0083 10.92 65.0083 9.724C65.0083 8.528 64.7159 7.436 64.1799 6.552C63.6438 5.668 62.8642 4.992 61.9383 4.472C60.9637 3.952 59.8429 3.744 58.5272 3.744H54.775V6.552ZM56.6755 13.832L62.4256 23.036H66.1291L59.9891 13.832H56.6755ZM78.2628 3.744L74.072 11.96L69.8812 3.744H66.3727L72.5127 14.924V23.036H75.6314V14.872L81.7713 3.692H78.2628V3.744ZM83.8179 3.744V23.036H86.8879V3.744H83.8179ZM85.6697 6.604H89.3244C90.3965 6.604 91.2249 6.864 91.8583 7.384C92.4918 7.904 92.8329 8.684 92.8329 9.724C92.8329 10.764 92.4918 11.544 91.8583 12.064C91.2249 12.584 90.3965 12.844 89.3244 12.844H85.6697V15.704H89.3244C90.6401 15.704 91.8096 15.444 92.7355 14.976C93.7101 14.508 94.441 13.78 94.977 12.896C95.5131 12.012 95.8055 10.92 95.8055 9.724C95.8055 8.476 95.5131 7.436 94.977 6.552C94.441 5.668 93.6613 4.992 92.7355 4.472C91.7609 4.004 90.6401 3.744 89.3244 3.744H85.6697V6.604ZM98.778 3.744V23.036H101.848V3.744H98.778ZM99.9962 14.196H112.91V11.18H99.9962V14.196ZM110.912 3.744V23.036H113.982V3.744H110.912ZM124.897 9.204L127.772 16.38L127.821 17.16L130.257 23.036H133.717L124.897 2.652L116.077 23.036H119.488L121.973 17.004L122.022 16.276L124.897 9.204ZM120.17 18.044H129.721L129.137 15.288H120.755L120.17 18.044Z" fill="white"/>
</g>
<defs>
<clipPath id="clip0_3164_1392">
<rect width="133.714" height="26" fill="white"/>
</clipPath>
</defs>
</svg>
