<svg width="137" height="28" viewBox="0 0 137 28" fill="none" xmlns="http://www.w3.org/2000/svg">
<g clip-path="url(#clip0_3164_1384)">
<path d="M10.92 0C4.872 0 0 4.872 0 10.92C0 16.968 4.872 21.84 10.92 21.84V28C10.92 28 21.84 24.136 21.84 10.92C21.84 4.872 16.968 0 10.92 0ZM7.336 10.92C7.336 8.96 8.96 7.336 10.92 7.336C12.88 7.336 14.504 8.96 14.504 10.92C14.504 12.88 12.88 14.504 10.92 14.504C8.96 14.504 7.336 12.88 7.336 10.92ZM45.864 13.328C45.864 13.44 45.864 13.608 45.864 13.72C45.864 13.832 45.864 14 45.808 14.112C45.696 14.784 45.528 15.456 45.304 16.128C45.024 16.744 44.744 17.36 44.352 17.92C43.96 18.48 43.512 18.984 42.952 19.432C42.448 19.88 41.832 20.272 41.216 20.552C39.928 21.168 38.584 21.392 37.128 21.336C35.672 21.224 34.384 20.776 33.208 19.992C32.088 19.208 31.192 18.2 30.52 16.968C29.848 15.736 29.568 14.448 29.624 13.048C29.68 12.208 29.792 11.368 30.128 10.528C30.408 9.744 30.8 8.96 31.36 8.288C32.032 7.448 32.816 6.72 33.768 6.216C34.72 5.712 35.728 5.376 36.792 5.208C37.856 5.096 38.92 5.152 39.928 5.432C40.992 5.712 41.888 6.216 42.728 6.832V2.632C42.728 2.184 42.896 1.848 43.176 1.512C43.456 1.232 43.848 1.064 44.296 1.064C44.744 1.064 45.136 1.232 45.416 1.512C45.696 1.792 45.864 2.184 45.864 2.632V12.936V13.328ZM41.496 16.464C42.056 15.792 42.448 15.008 42.616 14.112C42.784 13.216 42.728 12.376 42.448 11.48C42.224 10.808 41.832 10.248 41.384 9.744C40.936 9.24 40.376 8.848 39.76 8.568C39.144 8.288 38.472 8.12 37.744 8.12C37.016 8.12 36.4 8.288 35.784 8.568C35.504 8.68 35.28 8.848 35 9.016C34.72 9.184 34.552 9.352 34.328 9.52C33.88 9.968 33.544 10.472 33.264 11.032C32.984 11.592 32.872 12.208 32.816 12.824C32.76 13.384 32.816 13.944 32.984 14.448C33.152 15.008 33.376 15.512 33.712 15.96C34.048 16.464 34.44 16.856 34.944 17.192C35.448 17.528 35.952 17.808 36.512 17.92C37.072 18.032 37.576 18.088 38.192 18.088C38.752 18.032 39.312 17.92 39.816 17.696C39.704 17.752 39.536 17.808 39.424 17.864C39.312 17.92 39.144 17.976 38.976 18.032C39.312 17.92 39.648 17.752 39.984 17.64C40.544 17.416 41.048 16.968 41.496 16.464ZM56.896 5.096C58.016 5.096 59.08 5.32 60.032 5.712C61.04 6.16 61.88 6.72 62.608 7.448C63.336 8.176 63.896 9.016 64.344 10.024C64.792 11.032 64.96 12.04 64.96 13.16V19.712C64.96 20.16 64.792 20.496 64.512 20.832C64.232 21.168 63.84 21.28 63.392 21.28C62.944 21.28 62.608 21.112 62.272 20.832C61.936 20.552 61.824 20.16 61.824 19.712V16.688H56.84C56.784 16.688 56.672 16.688 56.56 16.688C56 16.688 55.496 16.8 54.992 16.912C54.488 17.08 54.04 17.304 53.592 17.64C53.2 17.92 52.808 18.312 52.528 18.704C52.248 19.152 52.024 19.6 51.856 20.104V20.16V20.216C51.744 20.552 51.576 20.776 51.296 21C51.016 21.168 50.736 21.28 50.344 21.28C49.896 21.28 49.56 21.112 49.224 20.832C48.888 20.552 48.776 20.16 48.776 19.712V19.488V13.16C48.776 12.152 48.944 11.256 49.28 10.36C49.672 9.296 50.288 8.344 51.072 7.504C51.856 6.776 52.696 6.16 53.704 5.712C54.712 5.264 55.776 5.096 56.896 5.096ZM61.88 13.552V13.16C61.88 12.264 61.656 11.48 61.264 10.752V10.696C61.264 10.696 61.264 10.696 61.264 10.64C61.208 10.528 61.152 10.416 61.04 10.36C60.984 10.248 60.928 10.192 60.816 10.08C60.368 9.52 59.808 9.016 59.136 8.68C58.464 8.344 57.736 8.176 56.896 8.176C56.112 8.176 55.328 8.344 54.656 8.736C53.984 9.072 53.424 9.576 52.976 10.136C52.64 10.584 52.416 11.032 52.248 11.536C52.08 12.04 51.968 12.6 51.968 13.16V15.008C52.64 14.56 53.368 14.168 54.152 13.888C54.936 13.608 55.776 13.496 56.672 13.496H56.952H61.88V13.552ZM73.696 5.208C74.984 4.984 76.272 5.096 77.504 5.488C78.736 5.88 79.856 6.552 80.752 7.504C81.536 8.288 82.096 9.128 82.488 10.136C82.88 11.144 83.104 12.152 83.104 13.272C83.104 14.112 82.992 14.952 82.712 15.792C82.432 16.632 82.04 17.36 81.536 18.032C80.696 19.152 79.688 19.992 78.4 20.552C77.168 21.112 75.824 21.392 74.48 21.28C73.752 21.224 73.08 21.112 72.408 20.832C71.736 20.608 71.12 20.272 70.504 19.88C69.944 19.488 69.384 19.04 68.936 18.536C68.488 18.032 68.096 17.416 67.76 16.8C67.48 16.184 67.256 15.512 67.088 14.84C66.92 14.168 66.864 13.496 66.92 12.824C66.976 12.152 67.088 11.48 67.256 10.808C67.424 10.136 67.704 9.52 68.096 8.904C68.208 8.68 68.376 8.456 68.544 8.232C69.16 7.392 69.944 6.72 70.84 6.216C71.736 5.768 72.688 5.432 73.696 5.208ZM79.128 16.016C79.464 15.512 79.744 14.952 79.856 14.336C80.024 13.72 80.024 13.104 79.968 12.488C79.856 11.872 79.688 11.312 79.408 10.864C79.072 10.248 78.624 9.744 78.12 9.296C77.56 8.848 77 8.568 76.328 8.4C75.656 8.232 74.984 8.176 74.312 8.288C73.64 8.4 72.968 8.624 72.408 9.016C71.68 9.52 71.064 10.136 70.672 10.976C70.224 11.76 70.056 12.656 70.112 13.552C70.168 14.28 70.336 14.896 70.616 15.512C70.672 15.68 70.784 15.792 70.84 15.96C70.896 16.128 71.008 16.296 71.12 16.408C70.952 16.128 70.84 15.904 70.672 15.624C70.952 16.128 71.288 16.52 71.68 16.912C72.072 17.304 72.576 17.584 73.08 17.808C73.64 18.032 74.2 18.2 74.76 18.2C75.32 18.2 75.936 18.144 76.496 17.976C77.056 17.808 77.504 17.584 78.008 17.192C78.456 16.856 78.792 16.464 79.128 16.016ZM99.96 21.28C99.512 21.28 99.176 21.112 98.84 20.832C98.56 20.552 98.392 20.16 98.392 19.712V10.416L96.376 12.432C95.984 12.824 95.536 13.16 95.032 13.384C94.528 13.608 93.968 13.72 93.408 13.72C92.848 13.72 92.288 13.608 91.784 13.384C91.28 13.16 90.832 12.88 90.44 12.432L88.424 10.416V19.768C88.424 20.216 88.256 20.552 87.976 20.888C87.696 21.168 87.304 21.336 86.856 21.336C86.408 21.336 86.016 21.168 85.736 20.888C85.456 20.608 85.288 20.216 85.288 19.768V6.664C85.288 6.216 85.456 5.88 85.736 5.544C86.016 5.208 86.408 5.096 86.856 5.096C87.192 5.096 87.472 5.208 87.752 5.376L87.976 5.544L92.456 10.08C92.736 10.36 93.128 10.472 93.464 10.472C93.856 10.472 94.192 10.36 94.472 10.08L99.12 5.432C99.4 5.264 99.68 5.152 100.016 5.152C100.464 5.152 100.8 5.32 101.136 5.6C101.472 5.88 101.584 6.272 101.584 6.72V19.824C101.584 20.272 101.416 20.608 101.136 20.944C100.856 21.28 100.408 21.28 99.96 21.28ZM111.888 5.096C113.008 5.096 114.072 5.32 115.024 5.712C116.032 6.16 116.872 6.72 117.6 7.448C118.328 8.176 118.888 9.016 119.336 10.024C119.784 11.032 119.952 12.04 119.952 13.16V19.712C119.952 20.16 119.784 20.496 119.504 20.832C119.224 21.168 118.832 21.28 118.384 21.28C117.936 21.28 117.6 21.112 117.264 20.832C116.928 20.552 116.816 20.16 116.816 19.712V16.688H111.832C111.776 16.688 111.664 16.688 111.552 16.688C110.992 16.688 110.488 16.8 109.984 16.912C109.48 17.08 109.032 17.304 108.584 17.64C108.192 17.92 107.8 18.312 107.52 18.704C107.24 19.152 107.016 19.6 106.848 20.104V20.16V20.216C106.736 20.552 106.568 20.776 106.288 21C106.008 21.168 105.728 21.28 105.336 21.28C104.888 21.28 104.552 21.112 104.216 20.832C103.88 20.552 103.768 20.16 103.768 19.712V19.488V13.16C103.768 12.152 103.936 11.256 104.272 10.36C104.664 9.296 105.28 8.344 106.064 7.504C106.848 6.776 107.688 6.16 108.696 5.712C109.704 5.264 110.768 5.096 111.888 5.096ZM116.872 13.552V13.16C116.872 12.264 116.648 11.48 116.256 10.752V10.696C116.256 10.696 116.256 10.696 116.256 10.64C116.2 10.528 116.144 10.416 116.032 10.36C115.976 10.248 115.92 10.192 115.808 10.08C115.36 9.52 114.8 9.016 114.128 8.68C113.456 8.344 112.728 8.176 111.888 8.176C111.104 8.176 110.32 8.344 109.648 8.736C108.976 9.072 108.416 9.576 107.968 10.136C107.632 10.584 107.408 11.032 107.24 11.536C107.072 12.04 106.96 12.6 106.96 13.16V15.008C107.632 14.56 108.36 14.168 109.144 13.888C109.928 13.608 110.768 13.496 111.664 13.496H111.944H116.872V13.552ZM136.696 19.712C136.696 20.048 136.584 20.384 136.36 20.664C136.136 20.944 135.856 21.168 135.464 21.224C135.072 21.28 134.736 21.28 134.4 21.112C134.064 20.944 133.784 20.664 133.672 20.328C133.616 20.16 133.56 19.992 133.56 19.824C133.56 19.656 133.56 19.488 133.504 19.32C133.448 18.872 133.336 18.424 133.224 18.032C132.888 17.248 132.44 16.632 131.88 16.128C131.152 15.512 130.368 15.12 129.36 14.952C129.136 14.896 128.912 14.896 128.688 14.896C128.464 14.896 128.24 14.896 128.016 14.896H126.616C126.56 14.896 126.504 14.896 126.504 14.952V15.232V18.144V19.376C126.504 19.544 126.504 19.712 126.504 19.88C126.504 20.048 126.448 20.216 126.392 20.328C126.224 20.664 126 20.944 125.664 21.112C125.328 21.28 124.992 21.336 124.6 21.224C124.264 21.168 123.984 20.944 123.704 20.664C123.48 20.384 123.368 20.048 123.368 19.656V17.752V13.104V8.4C123.368 8.064 123.368 7.784 123.368 7.448C123.368 7.112 123.368 6.832 123.368 6.496C123.368 6.104 123.48 5.824 123.76 5.488C124.04 5.208 124.32 5.04 124.656 4.984C125.104 4.928 125.496 5.04 125.888 5.32C126.28 5.6 126.448 5.936 126.504 6.384C126.56 6.552 126.56 6.72 126.56 6.888C126.56 7.056 126.56 7.224 126.56 7.392V8.904V10.976V11.424C126.56 11.536 126.56 11.536 126.56 11.536C126.56 11.536 126.616 11.536 126.672 11.536H128.128C128.128 11.536 128.184 11.536 128.24 11.536C128.296 11.536 128.352 11.536 128.352 11.536L128.576 11.144C128.688 10.92 128.8 10.752 128.912 10.528C129.024 10.304 129.136 10.136 129.248 9.912C129.64 9.24 130.032 8.624 130.424 7.952C130.816 7.28 131.208 6.608 131.6 5.992C131.656 5.824 131.768 5.712 131.88 5.544C131.992 5.376 132.104 5.264 132.216 5.152C132.552 4.928 132.944 4.816 133.336 4.872C133.728 4.928 134.12 5.096 134.344 5.432C134.568 5.656 134.68 5.992 134.68 6.328C134.68 6.664 134.624 6.944 134.456 7.224C134.4 7.336 134.344 7.448 134.288 7.56C134.232 7.672 134.176 7.784 134.12 7.896L131.6 12.152C132.328 12.432 133 12.88 133.616 13.384C134.232 13.888 134.792 14.448 135.24 15.12C135.688 15.792 136.024 16.464 136.304 17.248C136.584 18.144 136.696 18.928 136.696 19.712Z" fill="white"/>
</g>
<defs>
<clipPath id="clip0_3164_1384">
<rect width="136.696" height="28" fill="white"/>
</clipPath>
</defs>
</svg>
