<svg width="126" height="28" viewBox="0 0 126 28" fill="none" xmlns="http://www.w3.org/2000/svg">
<g clip-path="url(#clip0_3164_1388)">
<path d="M45.2617 25.0896L29.6559 0L22.5305 11.491L15.3548 0L0 24.6882H2.00717L15.3548 3.21147L21.4767 13.0968L14.0502 25.0896H45.2617ZM29.6559 3.21147L42.2007 23.3835H29.9068L23.4839 13.0968L29.6559 3.21147ZM27.9498 23.3835H17.1111L22.5305 14.6523L27.9498 23.3835ZM49.0251 3.11111H62.0215V6.0215H57.1039V21.7276H53.9427V6.0215H49.0251V3.11111ZM61.319 12.2939C61.871 11.3405 62.6738 10.5878 63.6774 10.0358C64.681 9.48387 65.785 9.23297 67.0394 9.23297C68.2939 9.23297 69.448 9.48387 70.4014 10.0358C71.405 10.5878 72.1577 11.3405 72.7599 12.2939C73.3118 13.2473 73.6129 14.3513 73.6129 15.6057C73.6129 16.8602 73.3118 17.9642 72.7599 18.9176C72.2079 19.871 71.405 20.6237 70.4014 21.1756C69.3979 21.7276 68.2939 21.9785 67.0394 21.9785C65.785 21.9785 64.681 21.7276 63.6774 21.1756C62.6738 20.6237 61.871 19.871 61.319 18.9176C60.767 17.9642 60.466 16.8602 60.466 15.6057C60.466 14.4014 60.767 13.2473 61.319 12.2939ZM63.8781 17.6631C64.1792 18.2151 64.6308 18.6667 65.1828 19.0179C65.7348 19.3692 66.3369 19.5197 67.0394 19.5197C67.7419 19.5197 68.3441 19.3692 68.8961 19.0179C69.448 18.6667 69.8996 18.2151 70.2007 17.6631C70.5018 17.1111 70.7025 16.4086 70.7025 15.6559C70.7025 14.9032 70.552 14.2007 70.2007 13.6487C69.8996 13.0466 69.448 12.595 68.8961 12.2939C68.3441 11.9928 67.7419 11.7921 67.0394 11.7921C66.3369 11.7921 65.7348 11.9427 65.1828 12.2939C64.6308 12.595 64.1792 13.0466 63.8781 13.6487C63.5771 14.2509 63.3763 14.9032 63.3763 15.6559C63.4265 16.4086 63.5771 17.0609 63.8781 17.6631ZM76.2724 27.5986V9.53405H79.1828V27.5986H76.2724ZM88.466 19.1183C87.914 20.0717 87.2115 20.8244 86.3083 21.3262C85.405 21.828 84.4014 22.0789 83.3477 22.0789C82.3441 22.0789 81.4409 21.828 80.638 21.276C79.8853 20.7742 79.2832 20.0215 78.8316 19.0179C78.4301 18.0645 78.1792 16.9104 78.1792 15.6057C78.1792 14.3011 78.3799 13.147 78.8316 12.1935C79.233 11.2401 79.8351 10.4875 80.638 9.93548C81.4409 9.38351 82.2939 9.13262 83.3477 9.13262C84.4014 9.13262 85.405 9.38351 86.3083 9.8853C87.2115 10.3871 87.9642 11.1398 88.466 12.0932C89.0179 13.0466 89.2688 14.2007 89.2688 15.6057C89.319 16.9606 89.0179 18.1649 88.466 19.1183ZM85.8065 13.5484C85.4552 12.9964 85.0036 12.5448 84.4516 12.2437C83.8996 11.9427 83.2975 11.7921 82.595 11.7921C82.043 11.7921 81.491 11.9427 80.9391 12.2437C80.3871 12.5448 79.9857 12.9462 79.6344 13.5484C79.2832 14.1004 79.1326 14.8029 79.1326 15.6559C79.1326 16.509 79.2832 17.2115 79.6344 17.7634C79.9857 18.3154 80.4373 18.767 80.9391 19.0681C81.4409 19.3692 82.043 19.5197 82.595 19.5197C83.2473 19.5197 83.8996 19.3692 84.4516 19.0681C85.0036 18.767 85.4552 18.3154 85.8065 17.7634C86.1577 17.2115 86.3083 16.509 86.3083 15.7061C86.3083 14.8029 86.1577 14.1004 85.8065 13.5484ZM87.7634 3.11111H100.76V6.0215H95.8423V21.7276H92.681V6.0215H87.7634V3.11111ZM102.215 19.0179C102.416 19.319 102.667 19.5197 103.018 19.6702C103.369 19.8208 103.771 19.871 104.222 19.871C104.824 19.871 105.326 19.7706 105.828 19.5197C106.28 19.2688 106.681 18.9176 106.982 18.5161C107.283 18.0645 107.384 17.5627 107.384 16.9104L107.785 18.5161C107.785 19.319 107.534 19.9713 107.082 20.4731C106.631 21.0251 106.079 21.3763 105.376 21.6774C104.674 21.9283 104.022 22.0789 103.269 22.0789C102.516 22.0789 101.814 21.9283 101.161 21.6272C100.509 21.3262 99.957 20.8745 99.6057 20.3226C99.2043 19.7204 99.0036 19.0179 99.0036 18.2151C99.0036 17.0108 99.405 16.1075 100.258 15.405C101.111 14.7025 102.265 14.3513 103.771 14.3513C104.573 14.3513 105.276 14.4516 105.878 14.6021C106.48 14.8029 106.982 15.0036 107.333 15.2043C107.735 15.4552 107.986 15.6559 108.136 15.8566V17.3118C107.584 16.9104 106.982 16.6595 106.38 16.4588C105.778 16.2581 105.125 16.2079 104.423 16.2079C103.821 16.2079 103.319 16.3082 102.968 16.4588C102.616 16.6093 102.315 16.81 102.115 17.0609C101.914 17.3118 101.814 17.6631 101.814 18.0645C101.964 18.3656 102.065 18.7168 102.215 19.0179ZM99.8566 10.6882C100.409 10.3369 101.161 10.0358 102.014 9.68459C102.867 9.38351 103.871 9.18279 105.025 9.18279C106.029 9.18279 106.882 9.33333 107.685 9.63441C108.487 9.93548 109.09 10.3369 109.491 10.9391C109.943 11.491 110.143 12.1935 110.143 12.9964V21.7276H107.384V13.5986C107.384 13.1971 107.333 12.8961 107.183 12.6452C107.082 12.3943 106.882 12.1935 106.631 12.043C106.38 11.8925 106.129 11.7921 105.778 11.6918C105.477 11.6416 105.125 11.5914 104.724 11.5914C104.172 11.5914 103.62 11.6416 103.118 11.7921C102.616 11.9427 102.165 12.0932 101.814 12.2939C101.462 12.4946 101.161 12.6452 101.011 12.7455L99.8566 10.6882ZM113.455 12.1434C114.007 11.19 114.76 10.4875 115.663 9.98566C116.566 9.48387 117.57 9.23297 118.624 9.23297C119.627 9.23297 120.53 9.48387 121.333 9.98566C122.086 10.4875 122.738 11.19 123.19 12.1434C123.642 13.0968 123.892 14.2007 123.892 15.5556C123.892 16.8602 123.642 18.0143 123.19 18.9677C122.738 19.9211 122.136 20.6237 121.333 21.1254C120.581 21.6272 119.677 21.8781 118.624 21.8781C117.57 21.8781 116.616 21.6272 115.663 21.1254C114.76 20.6237 114.007 19.9211 113.455 18.9677C112.903 18.0143 112.652 16.8602 112.652 15.5556C112.602 14.2007 112.903 13.0466 113.455 12.1434ZM115.713 22.5806C115.713 23.1326 115.864 23.6344 116.165 24.0358C116.466 24.4875 116.867 24.8387 117.369 25.0896C117.871 25.3405 118.473 25.491 119.176 25.491C119.778 25.491 120.33 25.3405 120.882 25.0896C121.434 24.7885 121.885 24.3871 122.237 23.7849C122.588 23.1828 122.738 22.4301 122.738 21.5269V9.53405H125.548V21.5269C125.548 22.9821 125.247 24.2366 124.645 25.19C124.043 26.1434 123.29 26.8459 122.337 27.3477C121.384 27.7993 120.33 28.0502 119.226 28.0502C117.921 28.0502 116.767 27.7993 115.864 27.3477C114.91 26.8961 114.208 26.2437 113.706 25.4409C113.204 24.638 112.903 23.6846 112.903 22.6308H115.713V22.5806ZM116.115 17.6631C116.466 18.2151 116.918 18.6667 117.47 18.9677C118.022 19.2688 118.624 19.4194 119.276 19.4194C119.828 19.4194 120.38 19.2688 120.932 18.9677C121.484 18.6667 121.885 18.2652 122.237 17.6631C122.588 17.1111 122.738 16.4086 122.738 15.5556C122.738 14.9534 122.638 14.4014 122.437 13.8996C122.237 13.448 121.986 13.0466 121.634 12.6953C121.283 12.3441 120.932 12.1434 120.53 11.9427C120.129 11.7921 119.728 11.6918 119.276 11.6918C118.624 11.6918 118.022 11.8423 117.47 12.1434C116.918 12.4444 116.466 12.8459 116.115 13.448C115.763 14 115.613 14.7025 115.613 15.5054C115.563 16.3584 115.763 17.0609 116.115 17.6631Z" fill="white"/>
</g>
<defs>
<clipPath id="clip0_3164_1388">
<rect width="125.548" height="28" fill="white"/>
</clipPath>
</defs>
</svg>
