<svg width="134" height="26" viewBox="0 0 134 26" fill="none" xmlns="http://www.w3.org/2000/svg">
<g clip-path="url(#clip0_3164_1396)">
<path d="M20.592 2.444C23.868 4.784 26 8.632 26 13C26 17.368 23.816 21.268 20.488 23.608C17.16 21.32 14.976 17.42 14.976 13.052C14.976 8.632 17.212 4.732 20.592 2.444ZM13.156 13.052C13.156 8.32 15.444 4.108 18.928 1.404C17.16 0.52 15.132 0 13 0C5.824 0 0 5.824 0 13C0 20.176 5.824 26 13 26C15.08 26 17.108 25.48 18.824 24.596C15.392 21.944 13.156 17.732 13.156 13.052ZM40.56 13.052C40.56 6.032 34.84 0.312 27.768 0.312C20.748 0.312 15.028 6.032 15.028 13.052C15.028 20.072 20.748 25.792 27.768 25.792C34.84 25.844 40.56 20.124 40.56 13.052ZM38.74 13.052C38.74 19.084 33.8 24.024 27.768 24.024C21.736 24.024 16.796 19.084 16.796 13.052C16.796 7.02 21.736 2.08 27.768 2.08C33.852 2.08 38.74 7.02 38.74 13.052ZM47.32 22.776C48.152 22.88 49.452 22.984 51.116 22.984C54.184 22.984 56.316 22.412 57.668 21.216C58.604 20.28 59.28 19.032 59.28 17.42C59.28 14.612 57.2 13.104 55.38 12.688V12.636C57.356 11.908 58.604 10.296 58.604 8.476C58.604 6.968 58.032 5.876 57.044 5.148C55.848 4.212 54.288 3.796 51.844 3.796C50.128 3.796 48.464 3.952 47.372 4.212V22.776H47.32ZM49.764 5.772C50.18 5.668 50.804 5.616 51.948 5.616C54.444 5.616 56.108 6.5 56.108 8.684C56.108 10.504 54.6 11.856 52 11.856H49.764V5.772ZM49.764 13.728H51.792C54.444 13.728 56.68 14.82 56.68 17.368C56.68 20.124 54.34 21.06 51.844 21.06C50.96 21.06 50.284 21.008 49.816 20.956V13.728H49.764ZM73.84 9.204H71.344V17.524C71.344 17.992 71.24 18.408 71.136 18.772C70.668 19.864 69.524 21.008 67.86 21.008C65.624 21.008 64.844 19.292 64.844 16.692V9.204H62.4V17.16C62.4 21.944 64.948 23.088 67.08 23.088C69.472 23.088 70.928 21.632 71.552 20.54H71.604L71.76 22.776H73.944C73.84 21.684 73.84 20.488 73.84 19.084V9.204ZM77.948 22.828H80.444V2.86H77.948V22.828ZM84.552 22.828H87.048V2.86H84.552V22.828ZM91.26 22.828H93.704V14.612H95.992C98.228 14.716 99.216 15.704 99.788 18.304C100.308 20.644 100.724 22.308 101.036 22.828H103.584C103.168 22.1 102.752 20.28 102.128 17.628C101.66 15.652 100.828 14.3 99.372 13.832V13.728C101.348 13.052 102.96 11.388 102.96 8.892C102.96 7.436 102.44 6.136 101.452 5.304C100.256 4.212 98.592 3.744 95.992 3.744C94.328 3.744 92.56 3.9 91.312 4.16V22.828H91.26ZM93.704 5.876C94.12 5.772 94.952 5.668 96.096 5.668C98.696 5.72 100.464 6.76 100.464 9.204C100.464 11.388 98.8 12.792 96.2 12.792H93.704V5.876ZM117.676 9.204H115.18V17.524C115.18 17.992 115.076 18.408 114.972 18.772C114.504 19.864 113.36 21.008 111.696 21.008C109.46 21.008 108.68 19.292 108.68 16.692V9.204H106.184V17.16C106.184 21.944 108.732 23.088 110.864 23.088C113.256 23.088 114.712 21.632 115.336 20.54H115.388L115.544 22.776H117.728C117.624 21.684 117.624 20.488 117.624 19.084V9.204H117.676ZM121.784 22.828H124.28V14.664C124.28 14.248 124.332 13.832 124.436 13.52C124.852 12.168 126.1 10.972 127.764 10.972C130.104 10.972 130.884 12.792 130.884 14.976V22.828H133.38V14.716C133.38 10.036 130.468 8.944 128.596 8.944C126.36 8.944 124.8 10.192 124.124 11.492H124.072L123.916 9.256H121.732C121.836 10.4 121.836 11.544 121.836 12.948V22.828H121.784Z" fill="white"/>
</g>
<defs>
<clipPath id="clip0_3164_1396">
<rect width="133.328" height="26" fill="white"/>
</clipPath>
</defs>
</svg>
