<svg width="131" height="30" viewBox="0 0 131 30" fill="none" xmlns="http://www.w3.org/2000/svg">
<g clip-path="url(#clip0_3164_1354)">
<path d="M28.35 14.2H0C0 6.35 6.35 0 14.2 0C22.05 0 28.35 6.35 28.35 14.2ZM26.8 15.8C26.8 22.75 21.15 28.45 14.15 28.45C7.2 28.45 1.5 22.8 1.5 15.8H0C0 23.65 6.35 30 14.2 30C22.05 30 28.4 23.65 28.4 15.8H26.8ZM14.2 26.45C20.05 26.45 24.85 21.7 24.85 15.8H23.3C23.3 20.8 19.25 24.9 14.2 24.9C9.2 24.9 5.1 20.85 5.1 15.8H3.55C3.55 21.7 8.3 26.45 14.2 26.45ZM58.75 4.9C58.4 5.1 57.95 5.2 57.3 5.2C56.35 5.2 54.65 5 52.1 4.6C49.6 4.2 47.85 4 46.85 4C45.45 4 44.15 4.25 43.05 4.8C41.95 5.35 41.05 6.1 40.35 7.1C39.85 7.85 39.45 8.9 39.1 10.25L39.65 10.55C40 9.5 40.35 8.7 40.8 8.2C41.25 7.65 41.85 7.25 42.65 6.95C43.45 6.65 44.2 6.5 44.85 6.55L46.65 6.65C45.5 7.45 44.6 8.2 43.95 8.9C42.95 10 42.2 11.1 41.65 12.3C41.15 13.5 40.85 14.75 40.85 16.05C40.85 17.35 41.1 18.5 41.55 19.5C42.05 20.5 42.65 21.4 43.4 22.1C44.15 22.8 44.95 23.35 45.85 23.75C47.4 24.45 49.05 24.75 50.85 24.75C52.65 24.75 54.3 24.4 55.65 23.65C57 22.9 58.15 21.95 59.05 20.7C59.6 19.95 60.1 18.9 60.5 17.65L59.95 17.4C59.25 18.7 58.45 19.65 57.6 20.35C56.75 21.05 55.6 21.6 54.2 22V7.75C54.85 7.8 55.4 7.85 55.9 7.85C56.75 7.85 57.55 7.7 58.2 7.4C58.85 7.1 59.35 6.7 59.7 6.15C60.05 5.6 60.3 4.9 60.5 4L60 3.55C59.5 4.3 59.1 4.75 58.75 4.9ZM48.3 17.3C48.3 18.4 48.2 19.15 48.05 19.5C47.9 19.85 47.5 20.35 46.8 20.9C44.65 19.25 43.55 17.05 43.55 14.45C43.55 12.9 43.95 11.4 44.75 9.95C45.35 8.85 46.25 7.8 47.55 6.7L48.3 6.75V17.3ZM53.6 22.2C52.8 22.3 52.15 22.35 51.75 22.35C50.95 22.35 50.15 22.25 49.3 22C48.8 21.85 48.15 21.6 47.4 21.2C49 19.95 50.05 19 50.55 18.4C50.85 18.05 51.05 17.75 51.1 17.5C51.15 17.25 51.2 16.6 51.2 15.6V7.2C51.9 7.35 52.7 7.45 53.6 7.6V22.2ZM66.2 12.4C66.2 11.9 66.1 11.5 65.9 11.2C65.6 10.75 65.05 10.2 64.25 9.6L61.3 12.15L61.65 12.55C62 12.15 62.3 12 62.5 12C62.7 12 62.85 12.1 63.05 12.35C63.2 12.6 63.3 13.05 63.3 13.8V19.6C63.3 20.45 63.25 21 63.1 21.3C62.95 21.6 62.7 21.9 62.3 22.2V22.5C62.9 22.65 63.5 22.9 64 23.2C64.5 23.5 65.15 24 65.95 24.7L69.6 21.8L69.25 21.35L67.8 22.5L66.2 21.35V13.15L67.6 11.85L69.4 14.1L71.55 12.2L69.4 9.65L66.2 12.4ZM82.6 10.85C82.5 10.9 82.35 10.95 82.15 10.95C81.7 10.95 81.1 10.85 80.3 10.6C79.5 10.35 78.75 10.05 78.05 9.65C77.2 10.55 76.2 10.95 75.1 10.95C74.9 10.95 74.65 10.95 74.3 10.9L74.1 11.25L75.8 14.9C74.65 16.2 73.85 17.4 73.4 18.35C73.05 19.1 72.85 19.9 72.85 20.75C72.85 22.05 73.65 23.35 75.3 24.65L79.6 21.25C79.65 22.05 79.75 22.7 80 23.15C80.25 23.6 80.75 24.1 81.45 24.65L84.45 22.05L84.1 21.6C83.75 21.9 83.55 22.05 83.5 22.1C83.4 22.15 83.3 22.2 83.2 22.2C83 22.2 82.85 22.1 82.7 21.8C82.55 21.55 82.5 20.9 82.5 19.9V14C82.5 13.3 82.55 12.7 82.7 12.3C82.85 11.9 83.15 11.25 83.65 10.5L83.15 10.3C82.85 10.6 82.7 10.8 82.6 10.85ZM79.55 16.55L76.45 15.1L74.75 11.45L79.6 12.95V16.55H79.55ZM79.55 20.65L77.4 22.4C76 21.4 75.3 20.15 75.3 18.6C75.3 17.75 75.55 16.7 76.1 15.55L79.55 17.15V20.65ZM85.75 8.25L89.5 10.8C88.95 11.25 88.05 11.65 86.75 12V19.4C86.75 20.35 86.7 20.95 86.6 21.25C86.5 21.55 86.3 21.85 85.95 22.15V22.4C86.95 22.5 87.85 22.75 88.75 23.1C89.6 23.45 90.6 23.95 91.7 24.7C92.4 24.15 93 23.7 93.6 23.35C94.2 23 95.1 22.6 96.25 22.15V12.65C96.25 12 96.3 11.6 96.35 11.4C96.4 11.2 96.55 10.95 96.7 10.7V10.1C96.3 10.25 96.05 10.45 95.85 10.6C95.65 10.8 95.5 11.05 95.35 11.4L85.75 4.8V8.25ZM93.4 22.45L89.7 20.8V12.05C89.95 11.9 90.25 11.7 90.5 11.5L93.4 13.5V22.45ZM102.15 11.15C101.55 11.4 100.85 11.7 99.95 12.05V20.15C99.95 21.1 99.9 21.7 99.8 21.95C99.7 22.25 99.5 22.45 99.15 22.65V23C100.25 23.25 101.15 23.45 101.75 23.7C102.35 23.9 103.15 24.3 104.05 24.8L108.65 21.6L108.35 21.2L106.15 22.7L102.85 21.4V18.8L109.2 14.35L105.2 9.7C103.6 10.45 102.6 10.95 102.15 11.15ZM106.55 15.2L102.8 17.8V11.35L103 11.25L106.55 15.2ZM111.6 12.1V20.15C111.6 20.95 111.5 21.5 111.35 21.9C111.25 22.15 111.05 22.4 110.7 22.65V23C111.65 23.2 112.4 23.4 113.05 23.65C113.7 23.9 114.45 24.25 115.35 24.8L118.85 22.2L118.7 21.6L117.2 22.65L114.4 21.4V12.35L117.15 13.95L118.65 11.75L115 9.65C113.95 10.75 112.75 11.6 111.6 12.1ZM125.4 9.65C124.15 10.7 122.7 11.5 120.95 12.1V19.85C120.95 20.6 120.9 21.15 120.75 21.5C120.65 21.75 120.45 22 120.05 22.3L120.2 22.6C121.05 22.65 121.85 22.8 122.5 23C123.4 23.3 124.55 23.9 125.9 24.75C126.35 24.35 126.8 24 127.3 23.75C127.95 23.4 128.95 22.9 130.4 22.35V11.7C128.4 11.2 126.75 10.55 125.4 9.65ZM123.85 12.05C124.35 12.15 124.75 12.25 125.1 12.35C125.6 12.5 126.4 12.9 127.55 13.4V22.4L123.85 20.9V12.05Z" fill="white"/>
</g>
<defs>
<clipPath id="clip0_3164_1354">
<rect width="130.4" height="30" fill="white"/>
</clipPath>
</defs>
</svg>
