<svg width="139" height="26" viewBox="0 0 139 26" fill="none" xmlns="http://www.w3.org/2000/svg">
<g clip-path="url(#clip0_3164_1411)">
<path d="M33.1604 26H12.0048L29.1739 17.472L33.1604 26ZM0 26H8.2448L17.8939 0L0 26ZM15.6742 20.644L28.585 16.276L22.9677 4.212L15.6742 20.644ZM34.157 14.352L26.0481 2.548L30.7141 15.496L34.157 14.352ZM34.4741 26H42.1753L34.4741 14.82L31.0766 16.536L34.4741 26ZM62.3796 19.604C62.1984 19.396 61.9266 19.24 61.6095 19.24C61.3377 19.24 61.0659 19.396 60.8394 19.708C60.6129 20.072 60.3864 20.436 60.1599 20.748C59.1179 22.1 57.4418 22.724 55.0408 22.724C50.8278 22.724 48.744 19.968 48.744 14.404C48.744 11.648 49.3329 9.464 50.5107 7.852C51.6886 6.24 53.2741 5.46 55.222 5.46C56.8076 5.46 58.3478 6.084 59.8881 7.332C60.2505 7.592 60.477 7.748 60.6582 7.748C60.93 7.748 61.2018 7.644 61.4283 7.384C61.6548 7.124 61.7454 6.864 61.7454 6.5C61.7454 6.084 61.4736 5.564 60.93 5.096C59.4804 3.692 57.5777 3.016 55.2673 3.016C52.5493 3.016 50.3748 4.108 48.744 6.344C47.2491 8.424 46.4789 11.076 46.4789 14.404C46.4789 17.836 47.2038 20.488 48.6987 22.36C50.1936 24.232 52.2775 25.168 54.9955 25.168C57.5324 25.168 59.6163 24.44 61.2018 22.932C62.1531 22.048 62.6514 21.216 62.6514 20.384C62.6967 20.124 62.6061 19.864 62.3796 19.604ZM74.7921 8.112C73.7502 6.76 72.3912 6.084 70.715 6.084C68.7218 6.084 67.1362 6.76 66.0037 8.112C64.8712 9.464 64.2823 11.388 64.2823 13.884C64.2823 16.224 64.7806 18.044 65.7319 19.396C66.6832 20.748 67.997 21.372 69.6731 21.372C71.7116 21.372 73.3425 20.644 74.5656 19.24C75.7887 17.836 76.3777 15.912 76.3777 13.52C76.3777 11.284 75.8341 9.516 74.7921 8.112ZM73.0707 17.628C72.2553 18.616 71.168 19.084 69.7637 19.084C68.6765 19.084 67.8611 18.616 67.2721 17.732C66.6832 16.848 66.4114 15.496 66.4114 13.832C66.4114 10.14 67.7251 8.32 70.3979 8.32C71.5757 8.32 72.5271 8.788 73.2066 9.724C73.8861 10.66 74.2485 11.908 74.2485 13.572C74.2485 15.288 73.8408 16.692 73.0707 17.628ZM85.7097 8.788C85.2567 8.424 84.7131 8.216 83.9882 8.216C82.5839 8.216 81.4967 9.048 80.7719 10.66C80.2736 8.528 79.6393 7.488 78.9145 7.488C78.6427 7.488 78.4162 7.592 78.1897 7.852C77.9632 8.112 77.8726 8.32 77.8726 8.58C77.8726 8.84 77.9632 9.152 78.1444 9.516C78.5068 10.296 78.7333 10.712 78.7333 10.764C79.2769 12.116 79.594 13.936 79.594 16.224C79.594 17.056 79.5034 17.94 79.2769 18.876C79.0504 19.812 78.9598 20.332 78.9598 20.488C78.9598 21.216 79.2769 21.58 79.9111 21.58C80.4095 21.58 80.7719 21.112 81.089 20.124C81.4061 19.084 81.5873 17.68 81.5873 15.86V14.248C81.5873 13.104 81.8138 12.168 82.2215 11.492C82.6292 10.816 83.1728 10.452 83.8523 10.452C84.1242 10.452 84.4413 10.608 84.7584 10.868C85.0755 11.128 85.3473 11.284 85.5285 11.284C85.755 11.284 85.9362 11.18 86.1174 10.972C86.2986 10.764 86.3439 10.504 86.3439 10.192C86.3892 9.62 86.1627 9.152 85.7097 8.788ZM97.035 7.852C96.1289 6.76 94.9511 6.24 93.5468 6.24C91.7347 6.24 90.2398 7.176 89.0167 9.1C87.9294 10.764 87.3858 12.792 87.3858 15.08C87.3858 19.552 89.062 21.84 92.4596 21.84C94.0904 21.84 95.54 21.06 96.7179 19.552C96.9444 19.292 97.035 19.032 97.035 18.72C97.035 18.356 96.9444 18.044 96.7179 17.784C96.4913 17.524 96.2648 17.42 95.9477 17.42C95.7212 17.42 95.4947 17.524 95.2682 17.784C94.6793 18.46 94.2716 18.928 94.0451 19.084C93.5921 19.448 93.0938 19.656 92.5049 19.656C90.4663 19.656 89.4697 18.148 89.4697 15.08C90.1945 15.184 90.8287 15.184 91.327 15.184C92.4596 15.184 93.8186 14.976 95.4494 14.612C96.6726 14.352 97.3974 14.092 97.6239 13.936C98.1222 13.52 98.394 12.896 98.394 12.064C98.394 10.296 97.941 8.944 97.035 7.852ZM91.2817 12.896C90.7381 12.896 90.1945 12.844 89.6962 12.792C90.0586 11.388 90.6022 10.296 91.327 9.568C92.0065 8.788 92.822 8.424 93.7733 8.424C94.4981 8.424 95.087 8.736 95.54 9.412C95.993 10.088 96.2648 10.972 96.3102 12.116C94.3169 12.636 92.6861 12.896 91.2817 12.896ZM111.531 3.848C110.172 2.6 108.27 1.976 105.914 1.976C103.105 1.976 100.886 2.912 99.1641 4.784C98.5752 5.46 98.2581 5.928 98.2581 6.292C98.2581 6.604 98.3487 6.916 98.5752 7.124C98.8017 7.332 99.0282 7.488 99.3453 7.488C99.6171 7.488 99.9795 7.228 100.433 6.708C101.021 6.032 101.565 5.564 102.063 5.252C102.154 7.228 102.245 9.62 102.245 12.48C102.245 14.612 102.154 16.328 102.018 17.628C101.61 21.476 101.384 23.348 101.384 23.192C101.384 24.336 101.746 24.96 102.516 24.96C103.015 24.96 103.332 24.596 103.468 23.92C103.875 21.996 104.147 19.76 104.283 17.212C104.374 15.08 104.419 12.636 104.419 9.88C104.419 8.632 104.374 6.812 104.238 4.472C105.053 4.368 105.733 4.264 106.186 4.264C107.726 4.264 108.994 4.68 109.946 5.564C110.897 6.448 111.395 7.592 111.395 8.996C111.395 10.348 111.078 11.492 110.444 12.376C109.81 13.26 109.04 13.728 108.043 13.728C107.59 13.728 107.092 13.572 106.503 13.312C105.914 13.052 105.597 12.896 105.461 12.896C105.189 12.896 105.008 13 104.827 13.26C104.646 13.52 104.555 13.78 104.555 14.144V14.196C104.555 14.716 104.872 15.132 105.506 15.496C106.186 15.912 107.001 16.12 107.998 16.12C109.629 16.12 110.988 15.444 111.984 14.092C112.981 12.74 113.525 10.972 113.525 8.788C113.57 6.812 112.89 5.096 111.531 3.848ZM119.504 6.968C118.598 6.968 117.783 7.176 117.149 7.644C116.514 8.06 116.243 8.528 116.243 8.996C116.243 9.308 116.333 9.568 116.514 9.776C116.696 9.984 116.922 10.14 117.149 10.14C117.285 10.14 117.602 9.984 118.1 9.672C118.598 9.36 119.051 9.204 119.504 9.204C121.452 9.204 122.494 10.816 122.63 14.04C121.815 13.104 120.818 12.688 119.595 12.688C118.236 12.688 117.103 13.156 116.288 14.092C115.473 15.028 115.065 16.328 115.065 17.94C115.065 19.552 115.427 20.748 116.197 21.632C116.967 22.516 118.055 22.984 119.414 22.984C120.184 22.984 120.954 22.776 121.633 22.308C121.633 22.412 121.633 22.516 121.633 22.672C121.633 23.4 121.905 23.816 122.494 23.816C123.038 23.816 123.491 23.192 123.763 21.996C124.306 19.552 124.623 17.264 124.623 15.028C124.578 9.62 122.902 6.968 119.504 6.968ZM121.769 20.124C121.316 20.644 120.682 20.956 119.912 20.956C118.055 20.956 117.149 19.916 117.149 17.836C117.149 15.808 118.055 14.768 119.912 14.768C121.588 14.768 122.449 15.808 122.449 17.888C122.449 18.824 122.222 19.552 121.769 20.124ZM137.761 2.6C137.126 2.6 136.764 3.016 136.583 3.848C136.492 4.316 136.447 5.668 136.402 7.904C135.405 7.384 134.408 7.176 133.502 7.176C131.464 7.176 129.833 7.956 128.61 9.568C127.341 11.18 126.752 13.26 126.752 15.86C126.752 17.784 127.16 19.292 128.021 20.384C128.882 21.476 130.059 22.048 131.509 22.048C133.276 22.048 134.816 21.268 136.175 19.76C136.175 19.916 136.175 20.176 136.175 20.488C136.175 21.84 136.538 22.516 137.262 22.516C137.942 22.516 138.259 21.892 138.259 20.696C138.259 20.644 138.259 20.332 138.259 19.76C138.259 19.188 138.259 18.616 138.259 18.044C138.259 15.34 138.304 12.792 138.395 10.4C138.44 8.736 138.531 7.176 138.621 5.72C138.712 4.472 138.757 3.848 138.757 3.9C138.667 3.068 138.35 2.6 137.761 2.6ZM136.13 16.848C135.813 16.9 135.586 17.108 135.36 17.472C135.178 17.784 134.997 18.096 134.816 18.46C134.182 19.396 133.231 19.864 131.962 19.864C130.965 19.864 130.195 19.5 129.652 18.772C129.108 18.044 128.791 17.004 128.791 15.652C128.791 13.676 129.199 12.168 130.059 11.024C130.875 9.88 132.053 9.308 133.457 9.308C134.408 9.308 135.314 9.62 136.266 10.296C136.175 12.376 136.13 14.612 136.13 16.848Z" fill="white"/>
</g>
<defs>
<clipPath id="clip0_3164_1411">
<rect width="138.667" height="26" fill="white"/>
</clipPath>
</defs>
</svg>
