<svg width="123" height="30" viewBox="0 0 123 30" fill="none" xmlns="http://www.w3.org/2000/svg">
<g clip-path="url(#clip0_3352_997)">
<path d="M16.7084 16.44C19.5231 17.76 22.4575 18.42 24.9129 18.3C24.9129 18.3 24.9129 18.3 24.9727 18.3L25.1524 0.780008C25.1524 0.180008 24.4937 -0.239992 23.9547 0.120009L9.22266 10.08C10.3605 12.36 13.1153 14.76 16.7084 16.44Z" fill="white"/>
<path d="M24.2533 19.9799C21.6782 19.9799 18.8036 19.2599 15.989 17.9399C12.0964 16.1399 9.22185 13.5599 7.84446 10.9799L0.358679 16.0799C-0.240183 16.4999 -0.000638423 17.3999 0.65811 17.4599L13.2342 19.1399C13.9529 19.2599 14.6715 19.6199 15.1506 20.1599L23.4748 29.6999C23.9539 30.2399 24.7923 29.8799 24.7923 29.2199L24.912 19.9199C24.6725 19.9799 24.4928 19.9799 24.2533 19.9799Z" fill="white"/>
<path d="M25.213 18.1202C22.6379 18.1202 19.7633 17.4002 16.9487 16.0802C10.3612 13.0202 6.52847 7.68025 8.26517 3.96025C10.0019 0.240249 16.5295 -0.239752 23.117 2.82025C25.2729 3.84025 27.2491 5.16025 28.7463 6.60025C29.1056 6.90025 29.1056 7.44025 28.8062 7.80025C28.5067 8.16025 27.9678 8.16025 27.6084 7.86025C26.1712 6.54025 24.3746 5.34025 22.3983 4.38025C16.8888 1.80025 11.0798 1.98025 9.82222 4.74025C8.50472 7.50025 12.1578 12.0602 17.6673 14.6402C20.482 15.9602 23.4164 16.6202 25.8717 16.5002C28.1474 16.3802 29.7045 15.6002 30.3033 14.3402C30.9022 13.0202 30.3033 11.5202 29.7045 10.4402C29.4649 10.0202 29.5847 9.54025 30.0039 9.30025C30.4231 9.06025 30.9022 9.18025 31.1417 9.60025C32.2796 11.5802 32.5191 13.5002 31.8005 15.0002C30.9621 16.8602 28.866 17.9403 25.9316 18.1202C25.6921 18.1202 25.4525 18.1202 25.213 18.1202Z" fill="white"/>
<path d="M46.8911 16.7398V14.0998H51.6221V16.0798C51.6221 18.9598 51.2029 21.1198 50.3046 22.7398C49.4063 24.2998 48.2086 25.0798 46.6515 25.0798C45.873 25.0798 45.1544 24.8398 44.4956 24.4198C43.8369 23.9998 43.2979 23.3398 42.8188 22.4398C42.3397 21.5398 42.0403 20.4598 41.8606 19.1398C41.681 17.8198 41.6211 16.0798 41.6211 13.8598C41.6211 9.83984 41.9804 6.89984 42.699 5.09984C43.4177 3.23984 44.5555 2.33984 46.0527 2.33984C46.8911 2.33984 47.7295 2.75984 48.4481 3.53984V2.63984H51.0831V9.77984H48.4481C48.4481 6.71984 47.8493 5.15984 46.6515 5.15984C46.2323 5.15984 45.873 5.33984 45.6335 5.75984C45.3939 6.17984 45.2742 6.95984 45.1544 8.09984C45.0346 9.23984 45.0346 11.0398 45.0346 13.3798C45.0346 15.9598 45.0945 17.8798 45.1544 19.0198C45.2143 20.2198 45.3939 20.9998 45.6335 21.4198C45.873 21.8398 46.2323 22.0798 46.7114 22.0798C47.4301 22.0798 47.8493 21.5998 48.0289 20.6998C48.2086 19.7998 48.3284 18.4198 48.3284 16.6198H46.8911V16.7398Z" fill="white"/>
<path d="M63.419 22.2004V24.7204H59.4665V23.4004H59.4066C58.8078 24.4204 57.9694 24.9004 56.8914 24.9004C55.9332 24.9004 55.1547 24.4804 54.4959 23.5804C53.8971 22.6804 53.5977 21.5404 53.5977 20.1604C53.5977 18.6004 53.957 17.4004 54.6157 16.5604C55.2745 15.7204 56.1728 15.3004 57.2507 15.3004C58.0891 15.3004 58.8676 15.6604 59.4665 16.3804V13.7404C59.4665 12.7204 59.3467 12.0604 59.1072 11.8204C58.8676 11.5804 58.5083 11.4004 58.0891 11.4004C57.1908 11.4004 56.6519 12.0604 56.592 13.3804L54.0767 12.6604C54.2564 11.5204 54.7355 10.6204 55.4541 9.96037C56.1728 9.30037 57.1309 9.00037 58.2089 9.00037C59.4066 9.00037 60.3648 9.36037 61.1433 10.1404C61.9218 10.9204 62.2812 11.9404 62.2812 13.2604V22.2004H63.419ZM59.4665 21.7204V18.3604C59.0473 17.8804 58.6281 17.6404 58.0891 17.6404C57.0711 17.6404 56.5321 18.4804 56.5321 20.1604C56.5321 21.7804 57.0711 22.5604 58.0891 22.5604C58.6281 22.5004 59.0473 22.2604 59.4665 21.7204Z" fill="white"/>
<path d="M64.556 24.7201V22.2001H65.6938V11.8801H64.4961V9.36005H68.4486V10.7401H68.5085C69.1672 9.72005 69.9457 9.18005 70.9039 9.18005C71.8621 9.18005 72.5807 9.72005 73.1197 10.7401C73.8383 9.72005 74.6768 9.18005 75.6948 9.18005C77.6112 9.18005 78.5694 10.5601 78.5694 13.3801V22.2001H79.7072V24.7201H75.8146V13.4401C75.8146 12.7801 75.7547 12.3601 75.6349 12.0601C75.5152 11.8201 75.2756 11.7001 74.9163 11.7001C74.557 11.7001 74.1977 11.8801 73.8982 12.1801C73.5988 12.4801 73.479 12.6601 73.479 12.7801V22.2001H74.6169V24.7201H70.7243V13.4401C70.7243 12.7801 70.6644 12.3601 70.5446 12.1201C70.4248 11.8801 70.1853 11.7001 69.826 11.7001C69.3469 11.7001 68.8678 12.0601 68.4486 12.7801V22.2001H69.5864V24.7201H64.556Z" fill="white"/>
<path d="M92.5841 2.64014V10.7401H90.2485V4.98014H88.3921V22.0801H90.1288V24.7201H83.5413V22.0801H85.278V4.98014H83.4215V10.7401H81.0859V2.64014H92.5841Z" fill="white"/>
<path d="M96.5345 25.0799C95.0972 25.0799 94.0792 24.4199 93.4204 23.0999C92.7617 21.7799 92.4023 19.7399 92.4023 16.9799C92.4023 14.2199 92.7617 12.1799 93.4204 10.8599C94.0792 9.53994 95.1571 8.93994 96.5345 8.93994C99.2892 8.93994 100.727 11.6399 100.727 17.0399C100.727 22.4399 99.2892 25.0799 96.5345 25.0799ZM96.5345 11.5199C96.0554 11.5199 95.6961 11.8799 95.5763 12.5999C95.3967 13.3199 95.3368 14.7599 95.3368 16.9799C95.3368 18.5999 95.3966 19.7999 95.4565 20.5799C95.5164 21.3599 95.6362 21.8999 95.8159 22.1399C95.9955 22.3799 96.2351 22.4999 96.5944 22.4999C97.1334 22.4999 97.4927 22.0799 97.6723 21.2399C97.7921 20.3999 97.9119 18.9599 97.9119 16.9799C97.9119 14.7599 97.852 13.3199 97.6723 12.5999C97.3729 11.8799 97.0735 11.5199 96.5345 11.5199Z" fill="white"/>
<path d="M111.325 9.35986V22.1999H112.583V24.7199H108.631V23.4599H108.571C107.912 24.4199 107.133 24.8399 106.235 24.8399C104.498 24.8399 103.66 23.5799 103.66 21.0599V11.8799H102.402V9.35986H106.415V20.6999C106.415 21.2999 106.475 21.7199 106.594 22.0199C106.714 22.2599 106.954 22.3799 107.313 22.3799C107.672 22.3799 107.972 22.1999 108.271 21.8999C108.571 21.5399 108.69 21.3599 108.69 21.2999V11.8799H107.373V9.35986H111.325Z" fill="white"/>
<path d="M120.189 19.1397L122.644 20.2197C122.585 21.7797 122.225 22.9797 121.507 23.8797C120.788 24.7197 119.83 25.1397 118.692 25.1397C117.135 25.1397 115.997 24.5397 115.338 23.2797C114.68 22.0797 114.32 19.9797 114.32 17.0997C114.32 14.3397 114.62 12.2997 115.159 11.0997C115.698 9.89975 116.656 9.23975 117.854 9.23975C118.812 9.23975 119.53 9.71975 120.069 10.6797H120.129V9.41975H122.644V14.9997H120.129C120.129 13.7397 120.01 12.8997 119.77 12.4197C119.53 11.9397 119.171 11.6997 118.632 11.6997C118.033 11.6997 117.674 11.9997 117.494 12.6597C117.315 13.3197 117.195 14.3997 117.195 16.0197V18.3597C117.195 19.9797 117.315 21.1197 117.554 21.7197C117.794 22.3197 118.153 22.6797 118.692 22.6797C119.231 22.6797 119.65 22.4397 119.89 21.9597C120.069 21.3597 120.189 20.4597 120.189 19.1397Z" fill="white"/>
</g>
<defs>
<clipPath id="clip0_3352_997">
<rect width="122.647" height="30" fill="white"/>
</clipPath>
</defs>
</svg>
