<svg width="100" height="100" viewBox="0 0 100 100" fill="none" xmlns="http://www.w3.org/2000/svg">
<circle cx="50" cy="50" r="50" fill="white"/>
<path d="M67.9822 68.6062C67.9044 68.6529 67.8421 68.684 67.7643 68.684C67.6554 68.684 67.5465 68.6373 67.4687 68.5595C67.3909 68.4817 67.3442 68.3728 67.3442 68.2328C67.3442 68.1083 67.3753 67.9994 67.4531 67.9216C67.5309 67.8282 67.6243 67.7971 67.7488 67.7971C67.8266 67.7971 67.9044 67.8127 67.951 67.8438C68.0444 67.8905 68.1066 67.9838 68.1222 68.1239H67.9355C67.9199 68.0616 67.9044 68.0149 67.8577 67.9994C67.8266 67.9838 67.7954 67.9683 67.7488 67.9683C67.6865 67.9683 67.6398 67.9838 67.6087 68.0305C67.5776 68.0772 67.562 68.1394 67.562 68.2328C67.562 68.3261 67.5776 68.3884 67.6243 68.435C67.671 68.4817 67.7176 68.4973 67.7643 68.4973C67.811 68.4973 67.8577 68.4817 67.8732 68.4506C67.9044 68.4195 67.9199 68.3884 67.9199 68.3417H68.1066C68.0911 68.4817 68.0444 68.5595 67.9822 68.6062ZM67.2975 67.7971C67.173 67.9216 67.1108 68.0616 67.1108 68.2328C67.1108 68.4039 67.173 68.5595 67.2975 68.6684C67.422 68.7929 67.562 68.8552 67.7332 68.8552C67.9044 68.8552 68.0444 68.7929 68.1689 68.6684C68.2933 68.544 68.3556 68.4039 68.3556 68.2328C68.3556 68.0616 68.2933 67.9216 68.1689 67.7971C68.0444 67.6726 67.9044 67.6104 67.7332 67.6104C67.562 67.6104 67.422 67.6726 67.2975 67.7971ZM68.2622 68.7774C68.1222 68.9174 67.9355 68.9952 67.7332 68.9952C67.5154 68.9952 67.3442 68.9174 67.2042 68.7774C67.0641 68.6373 66.9863 68.4506 66.9863 68.2483C66.9863 68.0305 67.0641 67.8438 67.2197 67.7037C67.3598 67.5637 67.5309 67.5015 67.7332 67.5015C67.9355 67.5015 68.1222 67.5793 68.2622 67.7193C68.4023 67.8593 68.4801 68.0461 68.4801 68.2483C68.4801 68.4506 68.4178 68.6373 68.2622 68.7774Z" fill="#59473D"/>
<path d="M69.8649 60.7329C69.8649 60.6551 69.8493 60.5928 69.8493 60.515C69.8493 60.4683 69.8338 60.4217 69.8182 60.375C69.8027 60.2816 69.7715 60.1727 69.7404 60.0793C69.6782 59.8771 69.5693 59.6904 69.4292 59.5348C69.2892 59.3792 69.1336 59.2547 68.9624 59.1613C68.7913 59.068 68.6201 59.0213 68.4645 58.9902C68.4178 58.9746 68.3712 58.9746 68.34 58.9746C68.5423 58.1188 68.2934 57.4653 68.1222 57.1697C68.1378 57.1541 68.1533 57.1386 68.1533 57.1386C68.3712 56.9363 68.5423 56.734 68.6979 56.5317L68.729 56.485C68.8535 56.3139 68.9313 56.1272 68.978 55.9716C69.0247 55.8315 69.0402 55.7071 69.0558 55.5826V55.567V55.5359V55.4892V55.4581C69.0558 55.427 69.0558 55.4114 69.0558 55.3803C69.0558 55.3336 69.0558 55.287 69.0558 55.2247C69.0402 54.9602 68.9935 54.6179 68.8224 54.2444C68.729 54.0577 68.6201 53.871 68.449 53.6843C68.2934 53.5131 68.0911 53.342 67.8577 53.2175C67.8421 53.2019 67.8266 53.2019 67.811 53.1864C67.3442 52.4862 66.7996 51.9572 66.3173 51.5371C66.0683 51.3192 65.8349 51.1481 65.6326 51.008C65.4304 50.868 65.2748 50.7435 65.1814 50.6813C64.9636 50.5257 64.808 50.4323 64.7457 50.3856C64.5746 50.2767 64.4501 50.1989 64.3723 50.1367C64.3101 50.09 64.2789 50.0589 64.2789 50.0433C64.2789 50.0433 64.2789 50.0278 64.2634 49.9811C64.2478 49.9344 64.2478 49.8566 64.2323 49.7477C64.2167 49.561 64.2323 49.2965 64.2478 48.9541C64.2789 48.394 64.3412 47.616 64.4034 46.5735C64.419 46.2467 64.4345 45.92 64.419 45.6244C64.4034 45.142 64.3412 44.7219 64.2323 44.3329C64.2167 44.2395 64.1856 44.1617 64.1545 44.0684C64.1389 44.0061 64.1233 43.9595 64.1078 43.9284C64.0922 43.8661 64.0611 43.8194 64.0456 43.7572C64.03 43.7261 64.0144 43.695 63.9989 43.6483C63.9678 43.5705 63.9211 43.4771 63.8744 43.3682L63.8588 43.3371L63.8277 43.2904L63.8122 43.2593C63.7188 43.1037 63.6099 42.9636 63.5165 42.8236C63.4698 42.5747 63.3765 42.2323 63.2209 41.8122C63.0808 41.4544 62.8941 41.0654 62.6452 40.6608C62.5518 40.5208 62.4585 40.3963 62.334 40.2563L62.3651 40.2096C62.4118 40.1473 63.6721 38.8403 64.6524 37.1443C66.4729 33.9701 65.866 32.0407 65.0414 30.9671L65.0103 30.936L64.9791 30.9049C64.17 30.018 63.0808 29.4734 61.7427 29.3022C58.942 28.9599 55.7833 30.3292 54.9587 30.7181L53.4494 29.0533C53.3093 28.9132 53.1693 28.7732 53.0137 28.6643C52.8581 28.5553 52.687 28.4464 52.5002 28.3686C52.1424 28.1975 51.7534 28.1041 51.3177 28.0419C50.4775 27.933 49.5283 28.0419 48.5014 28.3064C46.961 28.7109 45.2338 29.4734 43.4134 30.5625C41.6084 31.6517 39.7101 33.0521 37.8897 34.717C35.6491 36.7553 33.7974 38.9181 32.4593 40.9564C31.7902 41.9834 31.2457 42.9792 30.8255 43.9284C30.421 44.8775 30.1565 45.7644 30.0476 46.5891C29.9698 47.1959 29.9853 47.756 30.1098 48.2851C30.1565 48.5185 30.2343 48.7363 30.3276 48.9386C30.4521 49.2031 30.6077 49.4521 30.81 49.6699L32.5682 51.5059L32.5527 51.5215C32.5371 51.5526 32.5215 51.5837 32.4904 51.6149C32.4593 51.6615 32.4438 51.7082 32.4126 51.7705C32.3971 51.8016 32.3815 51.8327 32.366 51.8794C32.3348 51.9261 32.3193 51.9883 32.2882 52.035C32.2726 52.0661 32.257 52.0972 32.2415 52.1439C32.2259 52.1906 32.1948 52.2528 32.1792 52.2995C32.1637 52.3306 32.1481 52.3773 32.1326 52.4084C32.117 52.4551 32.0859 52.5173 32.0703 52.5796C32.0548 52.6107 32.0392 52.6574 32.0392 52.6885C32.0236 52.7507 32.0081 52.7974 31.9925 52.8596C31.9925 52.8752 31.977 52.8908 31.977 52.9063C31.977 52.9219 31.9614 52.953 31.9614 52.9686C31.9458 53.0308 31.9303 53.093 31.9147 53.1397C31.8992 53.1708 31.8992 53.2175 31.8836 53.2486C31.8836 53.2797 31.868 53.2953 31.868 53.3264C31.868 53.3575 31.8525 53.4042 31.8525 53.4353C31.8525 53.4665 31.8369 53.4976 31.8369 53.5287C31.8214 53.6065 31.8058 53.6843 31.8058 53.7465C31.8058 53.7621 31.8058 53.7932 31.7902 53.8088V53.8243C31.7902 53.871 31.7747 53.9177 31.7747 53.9644C31.7747 54.0422 31.7591 54.12 31.7591 54.1978C31.7591 54.2289 31.7591 54.26 31.7591 54.3067C31.7591 54.3378 31.7591 54.3534 31.7591 54.3845C31.7591 54.4312 31.7591 54.4934 31.7591 54.5556C31.7591 54.5868 31.7591 54.6179 31.7591 54.649C31.7591 54.6646 31.7591 54.6957 31.7591 54.7112V54.7268C31.7591 54.7579 31.7591 54.8046 31.7591 54.8357C31.7591 54.8824 31.7591 54.9135 31.7747 54.9446C31.7747 54.9758 31.7747 55.0069 31.7747 55.038C31.7747 55.0691 31.7747 55.0847 31.7747 55.1002C31.7747 55.1314 31.7747 55.178 31.7902 55.2092C31.7902 55.2558 31.8058 55.3025 31.8058 55.3492C31.8058 55.3647 31.8058 55.3803 31.8058 55.3959C31.8058 55.4425 31.8214 55.4737 31.8214 55.5203C31.8214 55.5515 31.8369 55.5981 31.8369 55.6448C31.8369 55.6604 31.8369 55.6759 31.8525 55.6915C31.8525 55.7226 31.868 55.7382 31.868 55.7693V55.8004C31.868 55.8315 31.8836 55.8782 31.8992 55.9405C31.8992 55.956 31.8992 55.9716 31.9147 55.9871C31.9303 56.0183 31.9303 56.0494 31.9303 56.0649L31.9458 56.0961C31.9458 56.1116 31.9458 56.1272 31.9614 56.1427L31.977 56.1739L31.9925 56.205V56.2361C31.9925 56.2517 31.9925 56.2517 32.0081 56.2672L32.0236 56.2983C32.0392 56.3295 32.0392 56.3606 32.0548 56.3761C32.0703 56.4072 32.0703 56.4539 32.1014 56.5162V56.5006V56.5162C32.1014 56.5317 32.1014 56.5317 32.117 56.5473C32.1326 56.594 32.1481 56.6251 32.1481 56.6562C32.1637 56.6873 32.1792 56.734 32.1948 56.7962L32.2104 56.8274C32.2259 56.8585 32.2415 56.8896 32.2415 56.9207L32.257 56.9518C32.257 56.9674 32.2726 56.983 32.2726 57.0141C32.2882 57.0296 32.2882 57.0608 32.3037 57.0919L32.3193 57.123C32.3348 57.1541 32.3348 57.1697 32.3504 57.1852C32.366 57.2008 32.366 57.2164 32.3815 57.2319C32.3971 57.263 32.4126 57.2942 32.4438 57.3564L32.4593 57.372C32.4749 57.3875 32.4749 57.4186 32.4904 57.4342C32.506 57.4653 32.5215 57.4809 32.5215 57.4964C32.5371 57.5275 32.5527 57.5587 32.5838 57.6053L32.5993 57.6209C32.6149 57.6365 32.6149 57.652 32.6305 57.6676C32.646 57.6987 32.6616 57.7143 32.6771 57.7454C32.6927 57.7609 32.7083 57.7921 32.7394 57.8387V57.8543C32.7549 57.8699 32.7705 57.901 32.7705 57.9165C32.7861 57.9477 32.8016 57.9632 32.8172 57.9943C32.8327 58.0255 32.8483 58.0566 32.8794 58.0877C32.895 58.1033 32.9105 58.1344 32.9261 58.1499C32.9417 58.1811 32.9572 58.1966 32.9883 58.2277C33.0039 58.2433 33.0195 58.2744 33.0506 58.3055C33.0661 58.3367 33.0817 58.3522 33.0973 58.3678C33.1128 58.3989 33.1439 58.4145 33.1595 58.4456V58.4611C33.1751 58.4767 33.1906 58.4923 33.2062 58.5234L33.2217 58.5389C33.2529 58.5701 33.284 58.6012 33.3151 58.6323L33.3462 58.6634C33.3618 58.679 33.3773 58.6945 33.3929 58.7256V58.7412C33.424 58.7723 33.4551 58.819 33.5018 58.8501C33.5174 58.8657 33.5329 58.8812 33.5485 58.8968C33.5485 58.8968 33.5796 58.9279 33.5952 58.9435L33.6107 58.959C33.6574 59.0057 33.6885 59.0368 33.7352 59.0835L33.7508 59.0991C33.7663 59.1146 33.7819 59.1302 33.7974 59.1458C33.8441 59.1924 33.9064 59.2391 33.953 59.2858L33.9842 59.3169L33.9997 59.3325L34.0308 59.3636C34.0775 59.3947 34.1242 59.4414 34.1709 59.4725L34.1864 59.4881C34.202 59.5036 34.2176 59.5036 34.2176 59.5192H34.2331C34.2487 59.5348 34.2642 59.5348 34.2642 59.5503C34.2954 59.5814 34.342 59.597 34.3732 59.6281L34.4043 59.6437L34.451 59.6748L34.5599 59.7993C34.6066 59.8304 34.6377 59.8459 34.6844 59.8771C34.6999 59.8926 34.731 59.9082 34.7466 59.9237L34.7777 59.9393L34.7933 59.9549H34.8088C34.8711 59.986 34.9333 60.0327 34.9955 60.0638L35.0267 60.0793C35.1045 60.126 35.1823 60.1571 35.2445 60.1883H35.2601L35.2912 60.2038C35.3223 60.2194 35.369 60.2349 35.4001 60.2505C35.4157 60.2661 35.4312 60.2661 35.4468 60.2816C35.4623 60.2972 35.4935 60.2972 35.509 60.3127H35.5246H35.5401C35.5713 60.3283 35.6179 60.3439 35.6491 60.3594H35.6646C35.7113 60.375 35.7424 60.3905 35.7891 60.4061H35.8047L35.8358 60.4217C35.8513 60.4217 35.8669 60.4372 35.898 60.4372H35.9136C35.9758 60.4528 36.0225 60.4839 36.0847 60.4995H36.1003C36.1936 60.5306 36.2714 60.5461 36.3648 60.5773H36.3804C36.4582 60.5928 36.536 60.6084 36.6138 60.6395H36.6449H36.676C36.7538 60.6551 36.816 60.6706 36.8938 60.6862H36.9094L36.9561 60.7017C37.0028 60.7017 37.0494 60.7173 37.0961 60.7173C37.0961 60.7329 37.1117 60.7484 37.1117 60.764C37.2361 61.0907 37.3606 61.433 37.5162 61.7598C39.6168 67.5791 45.4206 72.0759 52.049 72.9006C58.6774 73.7252 65.7571 69.3218 68.6357 63.3624C68.7601 63.1291 68.8691 62.9112 68.978 62.6934C69.2581 62.3977 69.4915 62.0865 69.6315 61.7754C69.8182 61.4642 69.8804 61.0596 69.8649 60.7329Z" fill="#59473D"/>
<path d="M33.082 58.4146V58.4301V58.4146H33.0664H33.082Z" fill="#59473D"/>
<path d="M64.1854 31.6673C63.8587 31.3094 63.5008 31.0449 63.0963 30.8426C63.0185 30.8115 62.9407 30.7804 62.8629 30.7648C62.8317 30.7337 62.7851 30.7182 62.7539 30.687C62.3961 30.547 62.0226 30.4536 61.6336 30.407C59.7042 30.158 57.5103 30.8582 56.2655 31.3561C56.2033 31.3872 56.1255 31.4183 56.0633 31.4495C55.9543 31.4961 55.8454 31.5428 55.7365 31.5895C55.5498 31.6673 55.3786 31.7451 55.1919 31.8385C55.1608 31.854 55.1452 31.8696 55.1141 31.8696L54.6162 31.2939L54.4762 31.1227L54.4139 31.0449L53.1225 29.5512L53.0136 29.4267L52.8735 29.2711H52.8424L52.4845 29.3489L52.0644 29.4423C51.831 29.3333 51.5509 29.2555 51.2397 29.2244C50.6018 29.1466 49.7771 29.2244 48.8435 29.4578C47.91 29.6912 46.8675 30.0958 45.7627 30.6559C43.5532 31.7607 41.0948 33.4567 38.7142 35.6195C37.8895 36.3663 37.1115 37.1443 36.4113 37.9223C35.7267 38.6692 35.0888 39.416 34.5286 40.1629C33.3772 41.6722 32.5058 43.1348 31.9457 44.4418C31.5723 45.3132 31.3389 46.1067 31.2611 46.7914C31.1988 47.2893 31.2144 47.7249 31.2922 48.0828C31.3233 48.1917 31.3544 48.3006 31.4011 48.4096C31.4789 48.6274 31.5878 48.7986 31.7434 48.9697L33.1749 50.479L33.3305 50.6346L33.3149 50.619C33.3616 50.5724 33.4083 50.5257 33.455 50.4634L33.4705 50.4479C33.4861 50.4323 33.5017 50.4168 33.5172 50.4012C33.5639 50.3545 33.6106 50.3079 33.6417 50.2612C33.6728 50.2301 33.7039 50.2145 33.7195 50.1834C33.7506 50.1523 33.7662 50.1367 33.7973 50.1056C33.8129 50.09 33.8284 50.09 33.8284 50.0745C33.8595 50.0433 33.8907 50.0278 33.9218 49.9967C33.9685 49.9655 33.9996 49.9189 34.0463 49.8877C34.0774 49.8722 34.0929 49.8411 34.124 49.8255L34.1396 49.8099C34.1863 49.7788 34.233 49.7321 34.2796 49.701C34.3108 49.6855 34.3419 49.6543 34.373 49.6388C34.4197 49.6077 34.4664 49.5765 34.513 49.5454C34.5442 49.5299 34.5753 49.4987 34.6064 49.4832C34.6531 49.4521 34.7153 49.4209 34.762 49.3898C34.7931 49.3743 34.8242 49.3587 34.8554 49.3431C34.902 49.312 34.9643 49.2809 35.011 49.2498C35.0421 49.2342 35.0732 49.2187 35.1043 49.2031L35.1354 49.1876C35.1821 49.1564 35.2288 49.1409 35.2755 49.1253C35.3066 49.1098 35.3221 49.0942 35.3533 49.0942C35.3999 49.0786 35.4311 49.0631 35.4777 49.0475C35.5089 49.032 35.54 49.0164 35.5867 49.0008L35.6178 48.9853C35.7111 48.9542 35.7889 48.9075 35.8823 48.8764C35.9134 48.8608 35.9445 48.8608 35.9757 48.8452C36.0068 48.8297 36.0379 48.8297 36.069 48.8141L36.1001 48.7986C36.1157 48.7986 36.1313 48.783 36.1624 48.783C36.1935 48.7674 36.2402 48.7674 36.2713 48.7519L36.3024 48.7363C36.3491 48.7208 36.3958 48.7052 36.4424 48.7052C36.4891 48.6896 36.5202 48.6896 36.5669 48.6741C36.6136 48.6585 36.6758 48.643 36.7225 48.643C36.7381 48.643 36.7692 48.6274 36.7848 48.6274C36.8003 48.6274 36.8314 48.6274 36.847 48.6118C36.8937 48.5963 36.9559 48.5963 37.0026 48.5807C37.0493 48.5807 37.096 48.5652 37.1426 48.5652C37.1738 48.5652 37.2204 48.5496 37.2516 48.5496C37.2671 48.5496 37.2827 48.5496 37.2982 48.5496C37.3138 48.5496 37.3294 48.5496 37.3449 48.5496H37.376C37.5627 48.5496 37.765 48.5496 37.9829 48.5652H38.014C38.2318 48.5807 38.4808 48.6118 38.7297 48.6741C38.792 48.6896 38.8542 48.7052 38.9164 48.7208C38.932 48.6896 38.9476 48.6741 38.9631 48.643C39.1032 48.4096 39.2276 48.1762 39.3677 47.9428C40.1612 46.5735 41.017 45.4065 41.8884 44.3952C42.184 44.0528 42.4796 43.7105 42.7908 43.3993C44.0512 42.0923 45.3115 41.0654 46.4629 40.2874C46.7119 40.1162 46.9764 39.9451 47.2098 39.7895C47.5365 39.5872 47.8633 39.4005 48.1745 39.2293C48.4234 39.0893 48.6568 38.9648 48.8902 38.8559C49.2637 38.6692 49.606 38.5136 49.9172 38.3735C50.0105 38.3269 50.1039 38.2957 50.1817 38.2646C50.3062 38.2179 50.4306 38.1557 50.5396 38.1246C50.4462 38.109 50.3528 38.109 50.2439 38.109C50.1506 38.109 50.0572 38.109 49.9638 38.109C49.9327 38.109 49.9172 38.109 49.886 38.109C49.7927 38.109 49.6993 38.109 49.5904 38.1246C49.4037 38.1401 49.217 38.1557 49.0303 38.1868C48.968 38.2024 48.9058 38.2024 48.828 38.2179C49.3103 37.969 49.7771 37.7823 50.2439 37.6422C50.5551 37.5489 50.8508 37.4711 51.1308 37.4244C51.5198 37.3466 51.8933 37.2999 52.2356 37.2844C52.469 37.2688 52.6868 37.2688 52.8891 37.2688C53.0914 37.2688 53.2781 37.2844 53.4492 37.2844C54.0249 37.331 54.3828 37.4244 54.3828 37.4244C54.305 37.3155 54.1961 37.2066 54.0872 37.1132C53.8849 36.9576 53.6515 36.8331 53.4337 36.7553C53.3559 36.7242 53.2781 36.6931 53.2003 36.6775C53.138 36.662 53.0914 36.6464 53.0602 36.6309C53.1536 36.6153 53.2625 36.5997 53.3559 36.5842C53.4648 36.5686 53.5581 36.5531 53.6515 36.5531C54.4917 36.4753 55.223 36.5531 55.7676 36.6464C56.4367 36.7709 56.8257 36.942 56.8257 36.942C56.7323 36.7553 56.5923 36.5997 56.4367 36.4597C56.3278 36.3663 56.2033 36.273 56.0944 36.2107C56.3122 36.2574 56.5301 36.3197 56.7323 36.3819C57.2614 36.5375 57.7126 36.7398 58.0705 36.9109C58.1794 36.9732 58.2883 37.0198 58.3817 37.0665C58.4128 37.0821 58.4283 37.0976 58.4595 37.1132C58.7862 37.2844 58.9574 37.4244 58.9574 37.4244C58.9107 37.2377 58.7862 37.051 58.6617 36.8954C58.6306 36.8487 58.5995 36.8176 58.5684 36.7709H58.5839C58.5995 36.7709 58.6151 36.7865 58.6617 36.802C58.6929 36.8176 58.724 36.8176 58.7551 36.8331C58.8951 36.8798 59.113 36.9732 59.3619 37.0976C59.3775 37.0976 59.393 37.1132 59.393 37.1132C59.4242 37.1288 59.4553 37.1443 59.502 37.1754C59.5953 37.2221 59.6731 37.2688 59.7665 37.331C59.8598 37.3777 59.9376 37.44 60.031 37.5022C60.0777 37.5333 60.1243 37.5644 60.171 37.5956C60.2644 37.6578 60.3577 37.7356 60.4667 37.8134C60.56 37.8912 60.6534 37.9846 60.7623 38.0779C60.7779 38.0935 60.7934 38.109 60.8245 38.1401C60.8868 38.2024 60.9646 38.2802 61.0268 38.358C61.1513 38.498 61.2602 38.6536 61.3536 38.8248C61.478 39.0271 61.5714 39.2449 61.6492 39.4783C61.6492 39.4938 61.6648 39.5094 61.6648 39.525C61.727 39.4627 61.8204 39.3538 61.9448 39.2138C62.9718 37.9534 66.0526 34.0479 64.1854 31.6673Z" fill="#141C26"/>
<path d="M68.791 60.8573C68.791 60.8573 68.8221 60.5928 68.6821 60.3438C68.6665 60.3283 68.6665 60.3127 68.651 60.2971L68.6354 60.2816C68.6198 60.266 68.6043 60.2349 68.5887 60.2193C68.5576 60.1882 68.5109 60.1415 68.4642 60.1104C68.4331 60.0949 68.4176 60.0793 68.3864 60.0637C68.3086 60.0326 68.2153 60.0015 68.0908 59.9859C68.013 59.9704 67.9041 59.9704 67.8107 59.9704C67.7641 59.9704 67.7329 59.9704 67.6863 59.9704H67.6707C67.6707 59.9704 67.6707 59.9859 67.6707 60.0015C67.6707 60.0171 67.6863 60.0482 67.6863 60.0793C67.6863 60.0949 67.6863 60.1104 67.7018 60.126C67.7174 60.1882 67.7329 60.266 67.7485 60.3438C67.7485 60.3438 67.7485 60.3594 67.7329 60.3905V60.406C67.6863 60.5305 67.5307 60.8106 67.2195 61.184C67.1728 61.2463 67.1105 61.3085 67.0483 61.3863C66.1614 62.3043 64.232 63.6114 60.1865 64.3427C58.8172 64.5294 57.5413 64.5449 56.4677 64.4049C54.865 64.2026 53.6669 63.6892 53.1068 63.0045C53.0601 62.9423 53.0134 62.88 52.9668 62.8178C52.9356 62.7711 52.9045 62.7244 52.8734 62.6778C52.8578 62.6622 52.8578 62.6467 52.8423 62.6311C52.6089 62.211 52.5 61.7442 52.5 61.293C52.5 60.7484 52.6711 60.2349 52.9668 59.8303C53.2002 59.5036 53.5114 59.2546 53.8692 59.1457C54.0404 59.0835 54.2427 59.0679 54.4294 59.0835C54.4761 59.0835 54.5227 59.099 54.585 59.099C54.725 59.1146 54.8962 59.1457 55.1296 59.1768C55.1607 59.1768 55.1762 59.1768 55.2074 59.1924C55.9698 59.2858 57.1679 59.3947 58.6305 59.3169C61.2912 59.1613 64.7922 58.321 67.9663 55.4581L67.9819 55.4425C67.9975 55.2091 67.9663 54.7734 67.6551 54.4311C67.6085 54.3689 67.5462 54.3222 67.4684 54.26C67.4217 54.2288 67.3906 54.1977 67.3439 54.1822C67.2973 54.151 67.2506 54.1355 67.2195 54.1044C67.1572 54.0732 67.1105 54.0266 67.0639 53.9954V53.9799C67.0483 53.9488 67.0172 53.9176 67.0016 53.8865C66.177 52.6417 65.0411 51.9104 64.5899 51.5837C64.372 51.4281 64.2476 51.3503 64.2476 51.3503C63.2673 50.759 63.1273 50.5567 63.2206 48.9385C63.2517 48.3473 63.314 47.5848 63.3762 46.5423C63.3918 46.4023 63.3918 46.2778 63.3918 46.1533C63.3918 46.1222 63.3918 46.0911 63.3918 46.06C63.3918 45.9355 63.3918 45.8266 63.3918 45.7177V45.6866V45.6554C63.3918 45.5621 63.3762 45.4843 63.3762 45.3909C63.3762 45.3598 63.3762 45.3131 63.3607 45.282C63.3451 45.1886 63.3451 45.1108 63.3295 45.0175C63.3295 44.9708 63.314 44.9397 63.314 44.893C63.2984 44.8463 63.2984 44.7996 63.2829 44.753C63.2673 44.7063 63.2673 44.6596 63.2517 44.6285C63.2362 44.5818 63.2206 44.5196 63.2051 44.4729C63.2051 44.4573 63.1895 44.4418 63.1895 44.4107C63.1895 44.3951 63.1739 44.3795 63.1739 44.364V44.3484L63.1584 44.3017C63.1428 44.2706 63.1273 44.2239 63.1117 44.1928V44.1773L63.0961 44.1461L63.0806 44.0995V44.0839C63.0495 44.0217 63.0183 43.9439 62.9872 43.8816L62.9561 43.8349C62.925 43.7727 62.8783 43.7105 62.8472 43.6638L62.8316 43.6482L62.8161 43.6171C62.7849 43.586 62.7538 43.5393 62.7383 43.5082L62.7071 43.4615C62.676 43.4148 62.6293 43.3682 62.5982 43.337V43.3215V43.3059V43.2904V43.2748V43.2437V43.2281V43.197V43.1814C62.5827 43.1192 62.5671 43.0258 62.536 42.9325C62.536 42.9014 62.5204 42.8858 62.5204 42.8547V42.8391C62.5204 42.808 62.5049 42.7769 62.5049 42.7458C62.4893 42.6835 62.4582 42.6057 62.4426 42.5279C62.4426 42.4968 62.4271 42.4812 62.4115 42.4501C62.396 42.4034 62.3804 42.3412 62.3493 42.279C62.3337 42.2479 62.3182 42.2167 62.3182 42.1856C62.3026 42.1389 62.2715 42.0767 62.2559 42.03C62.2404 41.9989 62.2248 41.9678 62.2092 41.9211C62.1781 41.8744 62.1626 41.8122 62.1314 41.7655C62.1159 41.7344 62.1003 41.6877 62.0692 41.6566C62.0381 41.6099 62.007 41.5477 61.9758 41.501C61.9603 41.4699 61.9292 41.4387 61.9136 41.3921C61.8825 41.3298 61.8358 41.2831 61.8047 41.2209C61.7891 41.1898 61.7736 41.1587 61.7424 41.1431C61.7269 41.112 61.7113 41.0964 61.6802 41.0809C61.6335 41.0186 61.5868 40.972 61.5402 40.9097L61.509 40.8786C61.4468 40.8164 61.3846 40.7386 61.3068 40.6763L61.2912 40.6608C61.2601 40.6296 61.229 40.6141 61.1979 40.583L61.1823 40.5674C61.1512 40.5518 61.1201 40.5207 61.0889 40.5052H61.0111C60.98 40.4896 60.9178 40.4585 60.8555 40.4118C60.8244 40.3962 60.7933 40.3807 60.7777 40.3807C60.6221 40.3184 60.4199 40.2562 60.1709 40.1784C60.1554 40.1784 60.1398 40.1628 60.1242 40.1628C59.922 40.1162 59.6886 40.0539 59.4552 40.0228C59.3774 40.0073 59.2996 39.9917 59.2062 39.9917C59.1595 39.9917 59.1284 39.9917 59.0817 39.9761C59.0662 39.9761 59.0506 39.9761 59.0351 39.9761C58.8483 39.9606 58.6616 39.945 58.4593 39.945H58.4438C58.1948 39.945 57.9459 39.9606 57.7125 40.0073C57.7747 39.9139 57.9148 39.8205 58.0704 39.7272C58.2571 39.6183 58.4438 39.5405 58.4438 39.5405C58.3349 39.556 58.2259 39.556 58.117 39.5871C58.0859 39.5871 58.0392 39.6027 58.0081 39.6027C57.9926 39.6027 57.9614 39.6183 57.9459 39.6183H57.9303C57.9148 39.6183 57.8992 39.6338 57.8681 39.6338C57.3079 39.7583 56.7789 39.945 56.4833 40.0695C56.4366 40.085 56.4055 40.1006 56.3743 40.1162L56.3588 40.1317C56.3277 40.1317 56.2965 40.1473 56.2654 40.1473C56.4833 39.7427 56.81 39.5249 57.0434 39.416C57.0901 39.4004 57.1212 39.3849 57.1679 39.3693C57.1834 39.3693 57.199 39.3537 57.199 39.3537C57.2301 39.3382 57.2612 39.3382 57.2924 39.3226C57.3546 39.3071 57.3857 39.2915 57.3857 39.2915C57.3546 39.2915 57.339 39.2915 57.3079 39.2915C57.2924 39.2915 57.2612 39.2915 57.2457 39.2915C57.2146 39.2915 57.1834 39.2915 57.1523 39.2915C57.1368 39.2915 57.1212 39.2915 57.0901 39.2915C56.4833 39.3537 55.9387 39.5716 55.4719 39.8205C55.1451 39.9917 54.865 40.194 54.6317 40.3962C54.5694 40.4118 54.5072 40.4274 54.4294 40.4429C53.7603 40.583 52.9979 40.7697 52.1888 41.0186C51.8931 41.112 51.5975 41.2053 51.2863 41.3143C51.0529 41.3921 50.804 41.4854 50.5706 41.5943C50.3994 41.6566 50.2283 41.7344 50.0571 41.8122C48.8279 42.3568 47.6142 43.0881 46.5873 44.0683C46.5562 44.0995 46.5095 44.1306 46.4784 44.1773C46.385 44.2706 46.3072 44.364 46.2138 44.4573C46.1827 44.4885 46.136 44.5351 46.1049 44.5663C46.0582 44.6129 46.0271 44.6596 45.9804 44.7218C45.7937 44.9397 45.607 45.1731 45.4359 45.422C45.3114 45.6088 45.1869 45.7955 45.078 45.9822L45.0624 45.9977C44.829 46.4023 44.6267 46.838 44.4556 47.3048C44.3778 47.5382 44.3 47.7716 44.2222 48.0205C44.2066 48.0827 44.1911 48.145 44.1755 48.2228L44.16 48.2539C44.0977 48.5184 44.051 48.7985 44.0044 49.0941C43.9888 49.1564 43.9888 49.203 43.9732 49.2653C43.9577 49.4053 43.9421 49.5609 43.9266 49.701C43.911 49.841 43.911 49.981 43.8954 50.1211V50.1522C43.8954 50.2144 43.8954 50.2922 43.8799 50.3545C43.8799 50.4323 43.8799 50.5101 43.8799 50.5879C43.8799 50.6034 43.8799 50.619 43.8799 50.6501C43.8799 50.8057 43.8799 50.9613 43.8954 51.1325V51.1636C43.8954 51.3192 43.911 51.4903 43.9266 51.6615C43.9266 51.7237 43.9421 51.8015 43.9421 51.8638C43.9421 51.8793 43.9421 51.8949 43.9421 51.9104C43.9421 51.9416 43.9577 51.9882 43.9577 52.0194C43.9732 52.2061 44.0044 52.3928 44.0355 52.5795C44.0355 52.6262 44.051 52.6884 44.051 52.7351C44.0822 52.9063 44.1133 53.0619 44.1444 53.233C44.1444 53.233 44.1133 53.0152 44.1288 52.6884C44.1288 52.6106 44.1444 52.5328 44.1444 52.455C44.16 52.2683 44.2066 52.066 44.2689 51.8638C44.2844 51.8171 44.3 51.7548 44.3156 51.7082C44.3311 51.6926 44.3311 51.6615 44.3467 51.6459C44.3934 51.5526 44.4245 51.4592 44.4867 51.3659C44.5023 51.4281 44.5178 51.5059 44.5178 51.5681V51.5837V51.6148C44.5178 51.6615 44.5178 51.7082 44.5178 51.7548C44.5178 51.8638 44.5178 51.9727 44.5178 52.0972C44.5178 52.2216 44.5178 52.3617 44.5334 52.5017C44.549 53.1085 44.6112 53.8398 44.7357 54.4467C44.7357 54.4467 44.7668 53.3264 44.9535 53.1863C44.9535 53.1863 45.2803 55.2713 45.5915 56.0649C45.6381 56.1738 45.6693 56.2516 45.7159 56.2983L45.7004 56.096L45.6537 54.929C45.6537 54.929 45.6537 54.8823 45.6537 54.8045C45.8871 55.2869 46.1516 55.7693 46.4472 56.2672C46.525 56.4072 46.6184 56.5472 46.6962 56.6873C46.1205 57.1852 45.5915 57.9009 45.218 58.7567C45.1558 58.8968 45.0935 59.0368 45.0469 59.1768C45.0157 59.2546 44.9846 59.348 44.9691 59.4258C44.9535 59.4569 44.9535 59.4725 44.9379 59.5036C44.9224 59.5658 44.9068 59.6281 44.8913 59.6747C44.8757 59.7059 44.8757 59.737 44.8601 59.7681C44.8446 59.8303 44.829 59.8926 44.8135 59.9548C44.8135 59.9859 44.7979 60.0171 44.7979 60.0326C44.7823 60.126 44.7668 60.2038 44.7357 60.2971V60.3127C44.7201 60.406 44.7045 60.4838 44.689 60.5772C44.689 60.6083 44.6734 60.6394 44.6734 60.6706C44.6579 60.7328 44.6579 60.795 44.6579 60.8573C44.6579 60.8884 44.6579 60.9195 44.6423 60.9506C44.6423 61.0129 44.6267 61.0751 44.6267 61.1529C44.6267 61.184 44.6267 61.2152 44.6267 61.2463C44.6267 61.3396 44.6267 61.433 44.6267 61.5419V61.5575C44.6267 61.6353 44.6267 61.7131 44.6267 61.7753C44.6267 61.8531 44.6267 61.9309 44.6423 62.0087V62.0398V62.0554C44.6423 62.1487 44.6579 62.2421 44.6734 62.3355C44.6734 62.3666 44.689 62.3977 44.689 62.4288C44.7045 62.4911 44.7045 62.5533 44.7201 62.6155C44.7201 62.6467 44.7357 62.6933 44.7357 62.7244C44.7512 62.7867 44.7512 62.8489 44.7668 62.8956C44.7823 62.9267 44.7823 62.9734 44.7979 63.0045C44.8135 63.0668 44.829 63.1134 44.8446 63.1757C44.8601 63.2068 44.8601 63.2535 44.8757 63.2846C44.8913 63.3468 44.9068 63.3935 44.9224 63.4558C44.9379 63.4869 44.9379 63.5336 44.9535 63.5647C44.9691 63.6269 45.0002 63.6891 45.0157 63.7514C45.0313 63.7825 45.0469 63.8292 45.0469 63.8603C45.078 63.9225 45.0935 64.0003 45.1247 64.0626C45.1402 64.0937 45.1402 64.1248 45.1558 64.1559C45.2336 64.3427 45.3269 64.5449 45.4203 64.7317C45.4359 64.7628 45.4514 64.7939 45.467 64.825C45.4981 64.8873 45.5448 64.965 45.5759 65.0273C45.5915 65.0584 45.6226 65.1051 45.6381 65.1362C45.6693 65.1984 45.7159 65.2607 45.747 65.3229C45.7782 65.354 45.7937 65.4007 45.8248 65.4318C45.856 65.4941 45.9026 65.5563 45.9493 65.603C45.9804 65.6497 45.996 65.6808 46.0271 65.7275C46.0738 65.7897 46.1049 65.852 46.1516 65.8986C46.1827 65.9298 46.2138 65.9764 46.245 66.0075C46.2916 66.0698 46.3383 66.132 46.385 66.1943C46.4161 66.2254 46.4472 66.2721 46.4784 66.3032C46.5406 66.3654 46.5873 66.4277 46.6495 66.5055C46.6806 66.5366 46.6962 66.5677 46.7273 66.5988C46.8207 66.6922 46.8985 66.7855 46.9918 66.8789C46.9918 66.8789 46.9451 66.8011 46.8673 66.6611C46.8518 66.6299 46.8362 66.6144 46.8207 66.5833V66.5677C46.8051 66.5366 46.7896 66.5055 46.774 66.4743C46.7584 66.4432 46.7429 66.3965 46.7273 66.3499C46.5873 66.0231 46.4628 65.5719 46.4784 65.0584C46.525 65.1362 46.5873 65.1984 46.634 65.2607C46.6962 65.3852 46.774 65.5408 46.8673 65.7119C46.8985 65.7742 46.9296 65.8364 46.9607 65.8986C47.1007 66.1476 47.2563 66.4277 47.4275 66.7077C47.6298 67.0345 47.8632 67.3768 48.0966 67.6569C48.0966 67.6569 47.8321 67.0967 47.7387 66.7233C47.7076 66.6144 47.7076 66.5366 47.7076 66.4743C47.7231 66.4899 47.7543 66.521 47.7698 66.5366C47.7854 66.5521 47.8165 66.5833 47.8321 66.5988C47.8787 66.6611 47.9254 66.7233 47.9877 66.8011L48.0188 66.8478C48.0499 66.8945 48.081 66.9256 48.1121 66.9723C48.1432 67.0189 48.1899 67.0812 48.2366 67.1279C48.61 67.6102 49.1235 68.2326 49.4814 68.5905C49.6059 68.6994 49.6992 68.7927 49.777 68.8239L49.2635 67.8903C50.4461 68.855 55.3007 70.0842 60.0776 68.6994C60.6533 68.5282 61.229 68.326 61.8047 68.077C62.147 67.9214 62.4893 67.7658 62.8316 67.5791L62.8783 67.548C63.1117 67.4235 63.3451 67.2834 63.5785 67.1279C63.7497 67.0189 63.9208 66.91 64.092 66.7855C64.372 66.5833 64.6677 66.3654 64.9322 66.1476C64.9477 66.132 64.9633 66.1165 64.9789 66.1009C65.2589 65.8675 65.5079 65.6186 65.7413 65.3696C66.0525 65.0428 66.3326 64.7005 66.5971 64.3582L66.6126 64.3271C66.6749 64.2493 66.7371 64.1559 66.7994 64.0781L66.8149 64.047C66.8305 64.0159 66.846 63.9848 66.8772 63.9692C66.955 63.8447 67.0483 63.7358 67.1105 63.6114C67.1261 63.5802 67.1417 63.5491 67.1728 63.5336C67.2195 63.4713 67.2506 63.4091 67.2817 63.3468C67.3128 63.3002 67.3439 63.2535 67.3751 63.2068C67.4062 63.1601 67.4373 63.0979 67.4684 63.0512C67.5151 62.9578 67.5773 62.8645 67.624 62.7711C67.6396 62.74 67.6551 62.6933 67.6863 62.6622C67.7174 62.5844 67.7641 62.5222 67.7952 62.4444C67.8107 62.4133 67.8263 62.3821 67.8419 62.351L67.8574 62.3199C67.9041 62.2265 67.9508 62.1487 67.9819 62.0554V62.0398C68.1375 61.8998 68.262 61.7597 68.3553 61.6353C68.3709 61.6197 68.3864 61.6041 68.402 61.573C68.7288 61.3708 68.791 61.1062 68.791 60.8573Z" fill="#856249"/>
<path d="M40.2076 57.3874C40.2076 57.3719 40.192 57.3408 40.192 57.3252C40.1298 57.014 40.0987 56.7028 40.0676 56.3761C40.0676 56.3605 40.0676 56.3294 40.0676 56.3138C40.0209 56.3294 39.9586 56.4072 39.8964 56.5005C39.8808 56.5317 39.8497 56.5783 39.8342 56.625C39.6786 56.9362 39.523 57.3563 39.523 57.3563C39.5385 57.2163 39.5541 57.0763 39.5697 56.9207C39.5697 56.9051 39.5697 56.8895 39.5697 56.874C39.5852 56.7184 39.6008 56.5783 39.6319 56.4227C39.6319 56.4072 39.6319 56.3916 39.6319 56.3761C39.663 56.2049 39.6786 56.0338 39.7097 55.8782C39.7097 55.8626 39.7097 55.8315 39.7253 55.8159V55.8004C39.7253 55.7848 39.7253 55.7692 39.7408 55.7381C39.7408 55.707 39.7564 55.6759 39.7564 55.6603C39.7719 55.5358 39.803 55.4114 39.8342 55.2869C39.8497 55.178 39.8808 55.0846 39.8964 54.9912V54.9601C39.8964 54.9446 39.8964 54.929 39.912 54.9135C39.912 54.8979 39.912 54.8823 39.9275 54.8668C39.9275 54.8357 39.9431 54.8201 39.9431 54.789C39.9431 54.7734 39.9586 54.7423 39.9586 54.7267C39.9586 54.6956 39.9742 54.6645 39.9742 54.6334V54.6178C39.9742 54.5867 39.9898 54.5711 39.9898 54.54C39.9898 54.5089 40.0053 54.4778 40.0053 54.4467C40.0053 54.4311 40.0053 54.4155 40.0209 54.4C40.0209 54.3844 40.0209 54.3689 40.0364 54.3533C40.0364 54.3222 40.052 54.2911 40.052 54.2755V54.2599V54.2444V54.2288L40.0209 54.2599C39.9898 54.2911 39.9586 54.3066 39.9431 54.3377L39.912 54.3689C39.8808 54.4 39.8497 54.4467 39.8186 54.4778L39.803 54.4933C39.7719 54.54 39.7408 54.6023 39.7097 54.6489L39.6941 54.6801C39.6941 54.6956 39.6786 54.7112 39.6786 54.7267C39.663 54.7579 39.6475 54.789 39.6319 54.8201V54.8357V54.8512C39.6008 54.8979 39.5852 54.9601 39.5541 55.0068C39.4919 55.1468 39.4452 55.2869 39.4141 55.4114C39.3985 55.458 39.3829 55.4892 39.3829 55.5203C39.3674 55.5981 39.3518 55.6603 39.3363 55.6759V55.6914V55.6759C39.3363 55.6292 39.3363 55.5825 39.3518 55.5358C39.3518 55.4425 39.3674 55.3491 39.3674 55.2558C39.3829 55.178 39.3829 55.1002 39.3985 55.0224C39.3985 54.9912 39.3985 54.9757 39.4141 54.9446C39.4141 54.9135 39.4296 54.8668 39.4296 54.8357C39.4296 54.8045 39.4452 54.7734 39.4452 54.7423V54.7112V54.6956C39.4452 54.6489 39.4607 54.6178 39.4607 54.5711C39.4607 54.5556 39.4607 54.54 39.4763 54.5245V54.4933C39.4763 54.4778 39.4763 54.4622 39.4919 54.4467C39.4919 54.4311 39.4919 54.4155 39.5074 54.4C39.523 54.3377 39.5385 54.2911 39.5541 54.2288V54.2133C39.5697 54.1666 39.5697 54.1199 39.5852 54.0888V54.0732C39.6008 53.9799 39.6319 53.9021 39.663 53.8087L39.6786 53.762C39.6786 53.7465 39.6941 53.7309 39.6941 53.7154C39.7408 53.5753 39.7875 53.4353 39.8342 53.3108V53.2952C39.8808 53.1863 39.912 53.0618 39.9586 52.9529V52.9374C39.9742 52.8907 40.0053 52.844 40.0209 52.7973C40.052 52.7195 40.0831 52.6573 40.1142 52.5795V52.5639C40.1298 52.5484 40.1454 52.5017 40.1765 52.4395V52.4239C40.192 52.3928 40.192 52.3772 40.2076 52.3461C40.2232 52.2994 40.2387 52.2683 40.2543 52.2216L40.2698 52.1905L40.5655 51.6459C40.581 51.6303 40.5966 51.5992 40.5966 51.5837V51.5681L40.6122 51.537C40.6433 51.4747 40.6744 51.4125 40.7055 51.3503C40.7522 51.2569 40.7989 51.1791 40.8456 51.1013C40.9389 50.9457 41.0167 50.8057 41.0634 50.7279C41.0945 50.6812 41.1101 50.6501 41.1101 50.6501C41.0945 50.6345 41.0011 50.5723 40.8611 50.4789C40.69 50.37 40.441 50.23 40.1298 50.0899C40.0364 50.0433 39.9275 49.9966 39.8186 49.9499C39.6941 49.9032 39.5541 49.841 39.4141 49.7943C39.3829 49.7787 39.3363 49.7787 39.3051 49.7632C39.1807 49.7321 39.0717 49.6854 38.9473 49.6698C38.8695 49.6543 38.7761 49.6231 38.6827 49.6076C38.6205 49.592 38.5427 49.5765 38.4805 49.5765C38.4494 49.5765 38.4182 49.5765 38.3716 49.5609C38.3404 49.5609 38.3093 49.5609 38.2782 49.5453C38.1848 49.5298 38.0915 49.5298 37.9981 49.5298C37.9514 49.5298 37.9048 49.5298 37.8581 49.5298C37.6558 49.5298 37.4535 49.5453 37.2513 49.5765H37.2201C36.8623 49.6231 36.5199 49.7165 36.1932 49.841C36.0843 49.8877 35.9754 49.9343 35.8664 49.981C35.8353 49.9966 35.8042 50.0121 35.7731 50.0277C35.742 50.0433 35.6953 50.0588 35.6642 50.0744C35.3374 50.2455 35.0418 50.4478 34.7617 50.6812L34.7461 50.6968C34.5127 50.899 34.2793 51.1169 34.0771 51.3658C34.0148 51.4281 33.9682 51.5059 33.9059 51.5837C33.8437 51.6615 33.7814 51.7548 33.7192 51.8482C33.6103 52.0193 33.5169 52.1905 33.4236 52.3772C33.3924 52.4395 33.3613 52.5017 33.3302 52.5639C33.3302 52.5795 33.3146 52.5951 33.3146 52.5951C33.1279 53.0152 33.0034 53.4664 32.9412 53.9332C32.9257 54.0265 32.9257 54.1199 32.9101 54.2133V54.2444C32.9101 54.3222 32.8945 54.4 32.8945 54.4622C32.8945 54.5556 32.8945 54.6489 32.8945 54.7423C32.8945 54.7579 32.8945 54.7734 32.8945 54.789C32.8945 54.8668 32.8945 54.929 32.9101 55.0068V55.0379C32.9101 55.0535 32.9101 55.069 32.9101 55.0846C32.9101 55.1468 32.9257 55.1935 32.9257 55.2558V55.2713C32.9257 55.3024 32.9412 55.3336 32.9412 55.3491C32.9412 55.3958 32.9568 55.4425 32.9568 55.5047C32.9568 55.5358 32.9723 55.5825 32.9723 55.6136C32.9879 55.6603 32.9879 55.707 33.0034 55.7537C33.019 55.7848 33.019 55.8315 33.0346 55.8626V55.8937L33.0501 55.9404V55.9715L33.0657 56.0026C33.0812 56.0338 33.0812 56.0804 33.0968 56.1115C33.1124 56.1582 33.1279 56.1893 33.1279 56.236C33.1435 56.2827 33.159 56.3138 33.1746 56.3605L33.1902 56.3916C33.2057 56.4227 33.2057 56.4539 33.2213 56.4694C33.2368 56.5161 33.2524 56.5472 33.268 56.5939C33.2835 56.625 33.2991 56.6717 33.3146 56.7028C33.3302 56.7184 33.3302 56.7495 33.3458 56.7651C33.3613 56.7806 33.3613 56.8117 33.3769 56.8273C33.3924 56.8584 33.408 56.8895 33.4236 56.9362C33.4391 56.9829 33.4702 57.014 33.4858 57.0607C33.5014 57.0918 33.5169 57.1229 33.5325 57.154C33.548 57.2007 33.5792 57.2318 33.6103 57.2785C33.6258 57.3096 33.6414 57.3408 33.657 57.3719C33.6881 57.4186 33.7036 57.4497 33.7348 57.4964C33.7503 57.5275 33.7659 57.543 33.7814 57.5742C33.8126 57.6208 33.8437 57.652 33.8748 57.6986C33.8904 57.7298 33.9059 57.7453 33.9215 57.7764C33.9526 57.8231 33.9837 57.8542 34.0148 57.9009C34.0304 57.9165 34.046 57.9476 34.0615 57.9632C34.0926 58.0098 34.1393 58.041 34.1704 58.0876C34.186 58.1032 34.2015 58.1188 34.2171 58.1499C34.2482 58.1966 34.2949 58.2277 34.326 58.2743C34.3416 58.2899 34.3571 58.3055 34.3727 58.321C34.4194 58.3677 34.4505 58.3988 34.4972 58.4455C34.5127 58.4611 34.5283 58.4766 34.5439 58.4922C34.5905 58.5389 34.6372 58.57 34.6839 58.6011C34.6995 58.6167 34.715 58.6322 34.7306 58.6322C34.7773 58.6789 34.8239 58.71 34.8706 58.7411C34.8862 58.7567 34.9017 58.7567 34.9173 58.7723C34.964 58.8034 35.0262 58.8501 35.0729 58.8812L35.1196 58.9123C35.1663 58.9434 35.2285 58.9901 35.2907 59.0212L35.3218 59.0368C35.3841 59.0679 35.4463 59.099 35.493 59.1457L35.5241 59.1613C35.5864 59.1924 35.6486 59.2235 35.7108 59.2546L35.742 59.2702C35.8042 59.3013 35.8664 59.3324 35.9442 59.3635L35.9598 59.3791C36.022 59.4102 36.0998 59.4413 36.1621 59.4569H36.1776C36.2554 59.488 36.3177 59.5036 36.3955 59.5347H36.411C36.4421 59.5502 36.4888 59.5502 36.5199 59.5658C36.5511 59.5814 36.5977 59.5969 36.6289 59.5969H36.6444C36.7222 59.6125 36.8 59.628 36.8778 59.6436C36.9556 59.6592 37.0334 59.6747 37.1112 59.6903C37.3602 59.737 37.6091 59.7525 37.8581 59.7525C37.9203 59.7525 37.9826 59.7525 38.0448 59.7525C38.1226 59.7525 38.216 59.7525 38.2938 59.737C38.4027 59.7214 38.5272 59.7214 38.6361 59.6903C38.745 59.6747 38.8383 59.6592 38.9473 59.628C39.1029 59.5969 39.2585 59.5502 39.4141 59.5191C39.8653 59.3791 40.2698 59.2079 40.5188 59.0368C40.5188 59.0368 40.3632 58.3366 40.2232 57.6208C40.2387 57.543 40.2232 57.4652 40.2076 57.3874Z" fill="#856249"/>
<path d="M51.6131 30.9982L51.5509 30.2825L51.9087 29.4889L52.0488 29.4578C51.8154 29.3489 51.5353 29.2711 51.2241 29.2244C50.5862 29.1466 49.7615 29.2244 48.8279 29.4578C47.8943 29.6912 46.8518 30.0958 45.7471 30.6559C43.5376 31.7607 41.0792 33.4567 38.6985 35.6195C37.8739 36.3663 37.0959 37.1443 36.3957 37.9223C35.7111 38.6692 35.0731 39.4316 34.513 40.1629C33.3616 41.6722 32.4902 43.1348 31.9301 44.4418C31.5566 45.3132 31.3232 46.1067 31.2454 46.7914C31.1832 47.2893 31.1988 47.7249 31.2766 48.0828C31.3077 48.1917 31.3388 48.3006 31.3855 48.4096C31.4633 48.6274 31.5722 48.7986 31.7278 48.9697L33.1593 50.479L33.3149 50.6346V50.619C33.3616 50.5724 33.4082 50.5257 33.4549 50.4634L33.4705 50.4479C33.486 50.4323 33.5016 50.4168 33.5172 50.4012C33.5638 50.3545 33.6105 50.3079 33.6416 50.2612C33.6728 50.2301 33.7039 50.2145 33.7194 50.1834C33.7506 50.1523 33.7661 50.1367 33.7972 50.1056C33.8128 50.09 33.8283 50.09 33.8283 50.0745C33.8595 50.0433 33.8906 50.0278 33.9217 49.9967C33.9684 49.9655 33.9995 49.9189 34.0462 49.8877C34.0773 49.8722 34.0929 49.8411 34.124 49.8255L34.1395 49.8099C34.1862 49.7788 34.2329 49.7321 34.2796 49.701C34.3107 49.6855 34.3418 49.6543 34.3729 49.6388C34.4196 49.6077 34.4663 49.5765 34.513 49.5454C34.5441 49.5299 34.5752 49.4987 34.6063 49.4832C34.653 49.4521 34.7153 49.4209 34.7619 49.3898C34.7931 49.3743 34.8242 49.3587 34.8553 49.3431C34.902 49.312 34.9642 49.2809 35.0109 49.2498C35.042 49.2342 35.0731 49.2187 35.1042 49.2031L35.1354 49.1876C35.4777 48.2384 35.9912 47.2115 36.6602 46.1378C37.4849 44.8153 38.5274 43.4305 39.7722 42.0612C40.5501 41.1899 41.4059 40.3341 42.3395 39.4783C43.5376 38.3891 44.7513 37.4088 45.9649 36.5686C46.774 35.9929 47.5831 35.495 48.3611 35.0438C48.4389 34.9971 48.5167 34.9504 48.579 34.9193C48.7812 34.8104 48.9991 34.7014 49.2014 34.5925C49.6526 34.3591 50.0883 34.1569 50.5239 33.9701L50.3061 33.7212L50.275 33.6745L48.5323 31.5739L48.5478 30.298L48.5323 30.2825L49.5748 29.9713L51.6131 30.9982Z" fill="#3478AD"/>
<path d="M68.7913 60.8574C68.7913 60.8574 68.8224 60.5928 68.6823 60.3439C68.6668 60.3283 68.6668 60.3128 68.6512 60.2972L68.6357 60.2817C68.6201 60.2661 68.6045 60.235 68.589 60.2194C68.5579 60.1883 68.5112 60.1416 68.4645 60.1105C68.4334 60.0949 68.4178 60.0794 68.3867 60.0638C68.3089 60.0327 68.2155 60.0016 68.0911 59.986C68.0133 59.9705 67.9043 59.9705 67.811 59.9705C67.7643 59.9705 67.7332 59.9705 67.6865 59.9705H67.6709C67.6709 59.9705 67.6709 59.986 67.6709 60.0016C67.6709 60.0171 67.6865 60.0483 67.6865 60.0794C67.6865 60.0949 67.6865 60.1105 67.7021 60.1261C67.7176 60.1883 67.7332 60.2661 67.7487 60.3439C67.7487 60.3439 67.7487 60.3595 67.7332 60.3906V60.4061C67.6865 60.5306 67.5309 60.8107 67.2197 61.1841C67.173 61.2464 67.1108 61.3086 67.0486 61.3864C66.1617 62.3044 64.2323 63.6114 60.1867 64.3427C58.8175 64.5295 57.5416 64.545 56.4679 64.405C54.8653 64.2027 53.6672 63.6892 53.107 63.0046C53.0604 62.9424 53.0137 62.8801 52.967 62.8179C52.9359 62.7712 52.9048 62.7245 52.8737 62.6779C52.8581 62.6623 52.8581 62.6467 52.8425 62.6312C52.6091 62.2111 52.5002 61.7443 52.5002 61.293C52.5002 60.7484 52.6714 60.235 52.967 59.8304C53.2004 59.5037 53.5116 59.2547 53.8695 59.1458C54.0406 59.0836 54.2429 59.068 54.4296 59.0836C54.4763 59.0836 54.523 59.0991 54.5852 59.0991C54.7253 59.1147 54.8964 59.1458 55.1298 59.1769C55.1609 59.1769 55.1765 59.1769 55.2076 59.1925C55.97 59.2858 57.1681 59.3947 58.6308 59.3169C61.2915 59.1614 64.7924 58.3211 67.9666 55.4581L67.9821 55.4426C67.9977 55.2092 67.9666 54.7735 67.6554 54.4312C67.6087 54.369 67.5465 54.3223 67.4687 54.26C67.422 54.2289 67.3909 54.1978 67.3442 54.1822C67.2975 54.1511 67.2508 54.1356 67.2197 54.1044C67.1575 54.0733 67.1108 54.0266 67.0641 53.9955V53.98C67.0486 53.9488 67.0174 53.9177 67.0019 53.8866C66.1772 52.6418 65.0414 51.9105 64.5901 51.5838C64.3723 51.4282 64.2478 51.3504 64.2478 51.3504C63.2675 50.7591 63.1275 50.5568 63.2209 48.9386C63.252 48.3473 63.3142 47.5849 63.3765 46.5424C63.392 46.4024 63.392 46.2779 63.392 46.1534C63.392 46.1223 63.392 46.0912 63.392 46.0601C63.392 45.9356 63.392 45.8267 63.392 45.7178V45.6866V45.6555C63.392 45.5622 63.3765 45.4844 63.3765 45.391C63.3765 45.3599 63.3765 45.3132 63.3609 45.2821C63.3453 45.1887 63.3453 45.1109 63.3298 45.0176C63.3298 44.9709 63.3142 44.9398 63.3142 44.8931C63.2987 44.8464 63.2987 44.7997 63.2831 44.753C63.2675 44.7064 63.2675 44.6597 63.252 44.6286C63.2364 44.5819 63.2209 44.5197 63.2053 44.473C63.2053 44.4574 63.1897 44.4419 63.1897 44.4107C63.1897 44.3952 63.1742 44.3796 63.1742 44.3641V44.3485L63.1586 44.3018C63.1431 44.2707 63.1275 44.224 63.112 44.1929V44.1773L63.0964 44.1462L63.0808 44.0995V44.084C63.0497 44.0217 63.0186 43.9439 62.9875 43.8817L62.9564 43.835C62.9252 43.7728 62.8786 43.7105 62.8474 43.6639L62.8319 43.6483L62.8163 43.6172C62.7852 43.5861 62.7541 43.5394 62.7385 43.5083L62.7074 43.4616C62.6763 43.4149 62.6296 43.3682 62.5985 43.3371C62.5518 43.2904 62.5051 43.2438 62.4584 43.1971C62.4118 43.166 62.3495 43.1348 62.3028 43.1037C62.2873 43.0882 62.2717 43.0882 62.2562 43.0726C62.225 43.057 62.1784 43.0415 62.1472 43.0259C62.1317 43.0259 62.1006 43.0104 62.085 43.0104C62.0539 42.9948 62.0228 42.9948 61.9917 42.9792C61.9761 42.9792 61.945 42.9637 61.9294 42.9637C61.8983 42.9637 61.8672 42.9481 61.8361 42.9481C61.8205 42.9481 61.7894 42.9481 61.7738 42.9481C61.7427 42.9481 61.7116 42.9481 61.6805 42.9481C61.6649 42.9481 61.6338 42.9481 61.6182 42.9481C61.5871 42.9481 61.556 42.9481 61.5249 42.9481C61.5093 42.9481 61.4937 42.9481 61.4626 42.9481H61.4159C61.4004 42.9481 61.3848 42.9481 61.3537 42.9637C61.3381 42.9637 61.3226 42.9637 61.307 42.9792C61.2603 42.9948 61.2292 42.9948 61.1981 43.0104L61.167 43.0259C61.0581 43.057 60.9647 43.0882 60.8714 43.1348L60.8402 43.1504C60.7936 43.166 60.7624 43.1815 60.7158 43.2126L60.6691 43.2438C60.638 43.2593 60.5913 43.2749 60.5602 43.306L60.5135 43.3371C60.4824 43.3527 60.4512 43.3838 60.4046 43.3994L60.3579 43.4305C60.3268 43.446 60.2801 43.4772 60.249 43.4927L60.2023 43.5238C60.1556 43.555 60.1245 43.5705 60.0778 43.6016L60.0467 43.6172C60 43.6483 59.9533 43.6794 59.9066 43.7105C59.8133 43.7728 59.7355 43.835 59.6421 43.8973C59.5643 43.9439 59.4865 44.0062 59.4243 44.0529L59.3932 44.084C59.3154 44.1307 59.2376 44.1773 59.1598 44.2396L59.1131 44.2707C59.0353 44.3174 58.9575 44.3641 58.8797 44.4107L58.833 44.4263C58.7552 44.473 58.6774 44.5197 58.5996 44.5508L58.553 44.5663C58.4752 44.613 58.3818 44.6441 58.304 44.6753L58.2729 44.6908C58.1795 44.7219 58.1017 44.753 58.0084 44.7686H57.9772C57.8839 44.7997 57.7905 44.8153 57.6816 44.8308C57.5105 44.8464 57.3549 44.862 57.1837 44.862C56.9192 44.862 56.6391 44.8464 56.3746 44.7997C56.2812 44.7842 56.1879 44.7686 56.0945 44.753C56.0634 44.753 56.0323 44.7375 56.0012 44.7375C55.7678 44.6908 55.5188 44.6441 55.2854 44.5819C55.1921 44.5508 55.0831 44.5352 54.9898 44.5041C54.8342 44.4574 54.663 44.4263 54.4919 44.3952C54.4607 44.3952 54.4296 44.3796 54.3985 44.3796C54.3829 44.3796 54.3518 44.3641 54.3363 44.3641C54.3051 44.3485 54.2585 44.3485 54.2273 44.3329C54.1962 44.3329 54.1651 44.3174 54.1184 44.3174H54.1029H54.0873C54.0562 44.3174 54.0251 44.3018 53.994 44.3018C53.9162 44.2863 53.8384 44.2707 53.7761 44.2551C53.7606 44.2551 53.7294 44.2551 53.7139 44.2396C53.6516 44.224 53.605 44.224 53.5427 44.2085C53.5116 44.2085 53.4805 44.2085 53.4649 44.1929C53.4182 44.1929 53.3716 44.1773 53.3249 44.1773C53.2938 44.1773 53.2626 44.1773 53.2315 44.1618C53.216 44.1618 53.2004 44.1618 53.1848 44.1618C53.1537 44.1618 53.1226 44.1618 53.0915 44.1618C53.0604 44.1618 53.0292 44.1618 52.9981 44.1618C52.9515 44.1618 52.8892 44.1618 52.8425 44.1618C52.827 44.1618 52.8114 44.1618 52.7959 44.1618C52.7803 44.1618 52.7647 44.1618 52.7492 44.1618C52.6869 44.1618 52.6247 44.1618 52.5625 44.1618C52.5469 44.1618 52.5313 44.1618 52.5158 44.1618C52.438 44.1618 52.3602 44.1773 52.2668 44.1773C52.2513 44.1773 52.2201 44.1773 52.2046 44.1773C52.1579 44.1773 52.0957 44.1929 52.049 44.1929H52.0179C51.9867 44.1929 51.9556 44.2085 51.9245 44.2085C51.8778 44.224 51.8156 44.224 51.7689 44.2396C51.7378 44.2396 51.7067 44.2551 51.6756 44.2551C51.6289 44.2707 51.5666 44.2863 51.52 44.3018C51.4888 44.3174 51.4577 44.3174 51.4266 44.3329C51.3644 44.3485 51.3021 44.3641 51.2554 44.3952C51.2243 44.4107 51.2088 44.4107 51.1776 44.4263C51.0843 44.4574 51.0065 44.4885 50.9131 44.5352C50.2441 44.9242 49.6528 45.4532 49.2016 46.0756C49.046 46.2779 48.9059 46.4957 48.7814 46.7136C48.6414 46.947 48.5325 47.1959 48.4236 47.4449C48.3925 47.5227 48.3613 47.5849 48.3458 47.6627C48.2991 47.7872 48.2524 47.9117 48.2213 48.0361C48.2213 48.0517 48.2213 48.0673 48.2057 48.0828C48.1591 48.2229 48.1279 48.3785 48.0968 48.5185C48.0657 48.6741 48.0501 48.8297 48.0346 48.9853C48.019 49.0631 48.019 49.1565 48.0035 49.2343C47.9879 49.4676 47.9879 49.6855 48.0035 49.9189C48.0035 49.9344 48.0035 49.9656 48.0035 49.9811C48.0035 50.0434 48.0035 50.09 48.019 50.1523C48.0346 50.3079 48.0657 50.479 48.0968 50.6346C48.1124 50.6969 48.1279 50.7435 48.1435 50.8058C48.1591 50.8525 48.1746 50.9147 48.1902 50.9769C48.2991 51.3815 48.4703 51.7549 48.657 52.0817C49.3883 53.3576 50.6019 54.1044 51.4733 54.5246C51.8156 54.6802 52.1735 54.8046 52.5313 54.9291C52.5313 54.9291 52.5158 54.9447 52.4847 54.9602C52.4224 54.9758 52.3446 54.9913 52.2513 55.0225C52.1268 55.0536 51.9712 55.1003 51.8156 55.1625C51.6289 55.2247 51.4266 55.3025 51.2243 55.3803C50.6486 55.6137 50.0107 55.956 49.435 56.4073C49.3572 56.4695 49.2949 56.5318 49.2171 56.594C49.0926 56.7029 48.9837 56.8118 48.8748 56.9363C48.8592 56.9519 48.8437 56.9674 48.8437 56.983C48.8281 56.9986 48.8126 57.0141 48.797 57.0452C48.7503 57.0919 48.7192 57.1386 48.6725 57.1853C48.657 57.2008 48.6414 57.2319 48.6258 57.2475C48.5792 57.3097 48.5169 57.3875 48.4703 57.4498C48.4236 57.512 48.3769 57.5898 48.3302 57.6676C47.9879 58.2589 47.8012 58.9591 47.8634 59.8149V59.7993C47.8634 59.7993 47.8634 59.7837 47.8634 59.7682C47.8634 59.7526 47.8634 59.7371 47.879 59.7215V59.7059C47.879 59.6904 47.8945 59.6593 47.8945 59.6437V59.6281C47.8945 59.597 47.9101 59.5815 47.9101 59.5503C47.9257 59.5192 47.9257 59.4881 47.9412 59.457V59.4414C47.9568 59.4103 47.9568 59.3792 47.9723 59.3325V59.3169C47.9879 59.2858 48.0035 59.2547 48.019 59.208V59.1925C48.0346 59.1458 48.0501 59.1147 48.0657 59.068L48.0813 59.0369C48.0968 58.9902 48.1279 58.9591 48.1435 58.9124C48.1746 58.8502 48.2213 58.7879 48.2524 58.7101C48.268 58.679 48.2835 58.6634 48.2991 58.6323L48.3147 58.6168C48.3458 58.5701 48.3925 58.5078 48.4236 58.4612C48.4547 58.4145 48.4858 58.3834 48.5169 58.3367C48.5325 58.3211 48.5325 58.3056 48.548 58.3056C48.5792 58.2744 48.6103 58.2433 48.6414 58.2122C48.657 58.1967 48.6725 58.1811 48.6725 58.1811C48.7192 58.1344 48.7503 58.1033 48.797 58.0566C48.797 58.0566 48.0346 59.7993 48.3613 61.1686C48.3613 61.1686 48.3613 61.1686 48.3613 61.153V61.1374C48.3613 61.1374 48.3613 61.1219 48.3613 61.1063C48.3613 61.0908 48.3613 61.0752 48.3613 61.0596C48.3613 61.0441 48.3613 61.013 48.3613 60.9974C48.3613 60.9663 48.3613 60.9352 48.3613 60.9196C48.3613 60.8885 48.3613 60.8574 48.3769 60.8262C48.3769 60.8262 48.3769 60.8262 48.3769 60.8107C48.3769 60.7796 48.3925 60.7329 48.3925 60.7018C48.3925 60.7018 48.3925 60.7018 48.3925 60.6862C48.3925 60.6395 48.408 60.6084 48.408 60.5617V60.5462V60.5306C48.4236 60.4839 48.4236 60.4373 48.4391 60.3906C48.4391 60.3906 48.4391 60.3906 48.4391 60.375C48.4547 60.3283 48.4703 60.2817 48.4858 60.235C48.4858 60.2194 48.5014 60.2039 48.5014 60.1883L48.5169 60.1572C48.5325 60.1105 48.548 60.0794 48.5636 60.0327C48.5947 59.9705 48.6103 59.9238 48.6414 59.8615C48.657 59.846 48.657 59.8304 48.6725 59.8149C48.7036 59.7682 48.7348 59.7059 48.7814 59.6593C48.7814 59.6593 48.7348 60.0949 48.7503 60.5928C48.7503 60.6706 48.7503 60.7484 48.7659 60.8418C48.7659 60.904 48.7659 60.9507 48.7814 61.013C48.8126 60.4684 48.9215 59.9549 49.0615 59.4725C48.9215 59.9549 48.8126 60.4684 48.7814 61.013C48.7659 61.3553 48.7659 61.7287 48.797 62.1021C48.8592 62.7245 48.9993 63.3936 49.2638 64.0938C49.2638 64.0938 49.0304 63.2847 49.3727 62.4911C49.4038 62.5689 49.435 62.6312 49.4661 62.709C49.4972 62.9424 49.5439 63.2847 49.6061 63.6581C49.6683 64.2805 49.964 66.1321 51.2399 67.4547C51.2399 67.4547 50.7575 66.8323 50.8353 66.0232C50.882 66.1321 50.9287 66.2255 50.9754 66.3033C51.1932 66.7078 51.6289 67.4547 52.0957 67.9837C52.0957 67.9837 51.7222 67.2524 51.8 67.0813C51.8 67.0813 53.0448 68.6217 53.4338 68.7773L52.9203 67.9215L52.9048 67.8904C54.7097 69.1974 57.1837 69.6797 60.2334 68.8239C60.7624 68.6839 61.307 68.4972 61.8672 68.2638C62.2095 68.1082 62.5518 67.9526 62.8941 67.7659L62.9408 67.7348C63.1742 67.6103 63.4076 67.4702 63.641 67.3146C63.8121 67.2057 63.9833 67.0968 64.1545 66.9723C64.4345 66.7701 64.7302 66.5522 64.9947 66.3344C65.0102 66.3188 65.0258 66.3033 65.0414 66.2877C65.3214 66.0543 65.5704 65.8054 65.8038 65.5564C66.115 65.2296 66.3951 64.8873 66.6596 64.545L66.6751 64.5139C66.7374 64.4361 66.7996 64.3427 66.8618 64.2649L66.8774 64.2338C66.893 64.2027 66.9085 64.1716 66.9396 64.156C67.0174 64.0315 67.1108 63.9226 67.173 63.7982C67.1886 63.767 67.2042 63.7359 67.2353 63.7204C67.282 63.6581 67.3131 63.5959 67.3442 63.5336C67.3753 63.487 67.4064 63.4403 67.4376 63.3936C67.4687 63.3469 67.4998 63.2847 67.5309 63.238C67.5776 63.1446 67.6398 63.0513 67.6865 62.9579C67.7021 62.9268 67.7176 62.8801 67.7487 62.849C67.7799 62.7712 67.8265 62.709 67.8577 62.6312C67.8732 62.6001 67.8888 62.5689 67.9043 62.5378L67.9199 62.5067C67.9666 62.4133 68.0133 62.3355 68.0444 62.2422V62.2266C68.2 62.0866 68.3245 61.9465 68.4178 61.8221C68.4334 61.8065 68.4489 61.7909 68.4645 61.7598C68.729 61.3708 68.7913 61.1063 68.7913 60.8574Z" fill="#FCE9C9"/>
<path d="M40.0676 56.3139C40.0209 56.3295 39.9587 56.4073 39.8965 56.5006C39.8809 56.5318 39.8498 56.5784 39.8342 56.6251C39.6786 56.9363 39.523 57.3564 39.523 57.3564C39.5386 57.2164 39.5541 57.0763 39.5697 56.9207C39.5697 56.9052 39.5697 56.8896 39.5697 56.8741C39.5853 56.7185 39.6008 56.5784 39.6319 56.4228C39.6319 56.4073 39.6319 56.3917 39.6475 56.3762C39.6786 56.205 39.6942 56.0338 39.7253 55.8782C39.7253 55.8627 39.7253 55.8316 39.7409 55.816V55.8004C39.7409 55.7849 39.7409 55.7693 39.7564 55.7382C39.7564 55.7071 39.772 55.676 39.772 55.6604C39.7875 55.5359 39.8187 55.4115 39.8498 55.287C39.8653 55.1781 39.8965 55.0847 39.912 54.9913V54.9602C39.912 54.9447 39.912 54.9291 39.9276 54.9135C39.9276 54.898 39.9276 54.8824 39.9431 54.8669C39.9431 54.8357 39.9587 54.8202 39.9587 54.7891C39.9587 54.7735 39.9743 54.7424 39.9743 54.7268C39.9743 54.6957 39.9898 54.6646 39.9898 54.6335V54.6179C39.9898 54.5868 40.0054 54.5712 40.0054 54.5401C40.0054 54.509 40.0209 54.4779 40.0209 54.4467C40.0209 54.4312 40.0209 54.4156 40.0365 54.4001C40.0365 54.3845 40.0365 54.3689 40.0521 54.3534C40.0521 54.3223 40.0676 54.2912 40.0676 54.2756V54.26V54.2445V54.2289L40.0365 54.26C40.0054 54.2911 39.9743 54.3067 39.9587 54.3378L39.9276 54.369C39.8965 54.4001 39.8653 54.4467 39.8342 54.4779L39.8187 54.4934C39.7875 54.5401 39.7564 54.6023 39.7253 54.649L39.7097 54.6801C39.7097 54.6957 39.6942 54.7113 39.6942 54.7268C39.6786 54.7579 39.6631 54.7891 39.6475 54.8202V54.8357V54.8513C39.6164 54.898 39.6008 54.9602 39.5697 55.0069C39.5075 55.1469 39.4608 55.287 39.4297 55.4115C39.4141 55.4581 39.3985 55.4892 39.3985 55.5204C39.383 55.5982 39.3674 55.6604 39.3519 55.676V55.6915V55.676C39.3519 55.6293 39.3519 55.5826 39.3674 55.5359C39.3674 55.4426 39.383 55.3492 39.383 55.2559C39.3985 55.1781 39.3985 55.1003 39.4141 55.0225C39.4141 54.9913 39.4141 54.9758 39.4297 54.9447C39.4297 54.9135 39.4452 54.8669 39.4452 54.8357C39.4452 54.8046 39.4608 54.7735 39.4608 54.7424V54.7113V54.6957C39.4608 54.649 39.4763 54.6179 39.4763 54.5712C39.4763 54.5557 39.4763 54.5401 39.4919 54.5245V54.4934C39.4919 54.4779 39.4919 54.4623 39.5075 54.4467C39.5075 54.4312 39.5075 54.4156 39.523 54.4001C39.5386 54.3378 39.5541 54.2912 39.5697 54.2289V54.2134C39.5853 54.1667 39.5853 54.12 39.6008 54.0889V54.0733C39.6164 53.98 39.6475 53.9022 39.6786 53.8088L39.6942 53.7621C39.6942 53.7466 39.7097 53.731 39.7097 53.7154C39.7564 53.5754 39.8031 53.4354 39.8498 53.3109V53.2953C39.8965 53.1864 39.9276 53.0619 39.9743 52.953V52.9375C39.9898 52.8908 40.0209 52.8441 40.0365 52.7974C40.0676 52.7196 40.0987 52.6574 40.1299 52.5796V52.564C40.1299 52.5485 40.161 52.5018 40.1921 52.4395V52.424C40.2077 52.3929 40.2077 52.3773 40.2232 52.3462C40.2388 52.2995 40.2543 52.2684 40.2699 52.2217L40.2855 52.1906C40.2543 52.175 40.2388 52.1595 40.2077 52.1595H40.1921L40.161 52.1439C39.9898 52.0661 39.8187 52.0039 39.6319 51.9572H39.6008C39.4919 51.9261 39.3674 51.9105 39.2429 51.895C39.1807 51.8794 39.1029 51.8794 39.0251 51.8794C38.9629 51.8794 38.9006 51.8794 38.854 51.8794C38.7606 51.8794 38.6672 51.895 38.5894 51.895C38.5583 51.895 38.5272 51.9105 38.5116 51.9105C38.465 51.9105 38.4183 51.9261 38.3872 51.9261C38.3716 51.9261 38.356 51.9261 38.3405 51.9416C38.3094 51.9416 38.2782 51.9572 38.2471 51.9572C38.1849 51.9728 38.1382 51.9883 38.076 52.0039C38.0448 52.0194 38.0293 52.0194 37.9982 52.035C37.9204 52.0661 37.8426 52.0972 37.7648 52.1283C37.7337 52.1439 37.7025 52.1595 37.6714 52.175C37.6403 52.1906 37.6092 52.2061 37.5781 52.2217L37.5469 52.2373C37.5158 52.2528 37.4691 52.2839 37.438 52.2995C37.4069 52.3151 37.3758 52.3462 37.3447 52.3617C37.298 52.3929 37.2669 52.4084 37.2357 52.4395C37.2202 52.4551 37.1891 52.4707 37.1735 52.4862C37.1113 52.5329 37.049 52.5796 37.0023 52.6418C36.9712 52.6729 36.9401 52.7041 36.9246 52.7196C36.8779 52.7663 36.8312 52.813 36.7845 52.8752L36.769 52.9063C36.7378 52.9375 36.7223 52.9686 36.7067 52.9997C36.6912 53.0153 36.6756 53.0464 36.66 53.0619V53.0775V53.0931C36.5667 53.2175 36.4889 53.3576 36.4266 53.4976C36.4111 53.5132 36.4111 53.5443 36.3955 53.5598C36.3644 53.6221 36.3333 53.6999 36.3022 53.7777C36.2866 53.8088 36.2866 53.8399 36.271 53.8555C36.2399 53.9333 36.2244 54.0111 36.2088 54.0733V54.1044V54.1356C36.1932 54.1978 36.1777 54.2445 36.1777 54.3067C36.1777 54.3378 36.1777 54.3689 36.1621 54.3845V54.4001C36.1621 54.4312 36.1621 54.4623 36.1466 54.4934C36.1466 54.509 36.1466 54.5401 36.1466 54.5557C36.1466 54.649 36.131 54.7268 36.1466 54.8202C36.1466 54.898 36.1621 54.9602 36.1621 55.0225V55.0536C36.1621 55.0847 36.1777 55.1314 36.1777 55.1625C36.1932 55.3025 36.2244 55.4426 36.271 55.567C36.3022 55.6604 36.3333 55.7693 36.38 55.8627C36.4578 56.0338 36.5511 56.205 36.6445 56.3606C36.8623 56.6873 37.1424 56.9674 37.4691 57.1697C37.6559 57.2942 37.8581 57.3875 38.076 57.4653C38.2782 57.5431 38.4961 57.5898 38.7139 57.6209C38.7606 57.6209 38.8073 57.6365 38.8695 57.6365C38.9473 57.6365 39.0251 57.6521 39.1029 57.6365C39.1807 57.6365 39.2429 57.6209 39.3052 57.6209C39.3519 57.6209 39.383 57.6209 39.4297 57.6054C39.523 57.5898 39.6319 57.5743 39.7253 57.5431H39.7409C39.7875 57.5276 39.8187 57.512 39.8653 57.512C39.9898 57.4809 40.0987 57.4342 40.2232 57.372L40.2543 57.3564C40.2854 57.3409 40.3166 57.3253 40.3477 57.3097C40.2854 56.9985 40.2543 56.6873 40.2232 56.3606C40.0676 56.3606 40.0676 56.3295 40.0676 56.3139Z" fill="#FCE9C9"/>
<path d="M52.0488 31.2316L52.1111 31.2472L52.0488 31.2316Z" fill="#4D94C3"/>
<path d="M67.7025 60.126C67.7025 60.1105 67.7025 60.0949 67.687 60.0794C67.6714 60.0482 67.6714 60.0171 67.6714 60.0016C67.578 59.7215 67.4691 59.5037 67.3758 59.3481C67.2513 59.1458 67.1424 59.0369 67.1424 59.0369C67.1579 58.9591 67.1735 58.8968 67.189 58.819C67.2046 58.7257 67.2202 58.6479 67.2357 58.5545C67.3135 57.9166 67.1424 57.4031 67.0023 57.123C66.9868 57.0763 66.9556 57.0452 66.9401 56.9985C66.8467 57.0763 66.7378 57.1386 66.6445 57.2008C64.7306 58.4923 62.5834 59.3169 60.2494 59.6748C58.6468 59.9238 56.9507 59.9393 55.2081 59.737L55.2392 59.7526C55.2392 59.7526 54.1811 59.8926 53.901 60.9196L53.9166 60.9351L53.8232 61.6198C53.8544 62.5378 54.2745 63.1135 54.7568 63.4247C55.2547 63.6114 55.8616 63.767 56.5306 63.8448C57.6976 63.9849 59.0357 63.9537 60.3894 63.7359C62.1944 63.4869 64.7617 62.5222 66.5822 61.2775C67.0023 60.9974 67.3758 60.7018 67.7025 60.3906L67.7181 60.375L67.7336 60.3594C67.7336 60.2661 67.7181 60.1883 67.7025 60.126Z" fill="white"/>
<path d="M64.2478 51.3503C63.2675 50.7591 63.1275 50.5568 63.2209 48.9386C63.252 48.3473 63.3142 47.5849 63.3765 46.5424C63.392 46.4024 63.392 46.2779 63.392 46.1534C63.392 46.1223 63.392 46.0912 63.392 46.06C63.392 45.9356 63.392 45.8266 63.392 45.7177V45.6866V45.6555C63.392 45.5621 63.3765 45.4843 63.3765 45.391C63.3765 45.3599 63.3765 45.3132 63.3609 45.2821C63.3453 45.1887 63.3453 45.1109 63.3298 45.0175C63.3298 44.9709 63.3142 44.9397 63.3142 44.8931C63.2987 44.8464 63.2987 44.7997 63.2831 44.753C63.2675 44.7063 63.2675 44.6597 63.252 44.6285C63.1119 44.4263 62.9408 44.2396 62.7541 44.084L62.7229 44.0528L62.6918 44.0373H62.6763C62.6452 44.0217 62.614 43.9906 62.5829 43.975C62.5518 43.9595 62.5207 43.9284 62.4896 43.9128C62.1939 43.7416 61.8827 43.6327 61.5249 43.5705C61.3381 43.5394 61.1359 43.5394 60.9336 43.5394C60.8402 43.5394 60.7469 43.5549 60.6535 43.5549C60.4046 43.586 60.14 43.6327 59.8911 43.7105C59.7977 43.7728 59.7199 43.835 59.6266 43.8972C59.5488 43.9439 59.471 44.0062 59.4087 44.0528L59.3776 44.084C59.2998 44.1306 59.222 44.1773 59.1442 44.2396L59.0975 44.2707C59.0197 44.3174 58.9419 44.364 58.8641 44.4107L58.8175 44.4263C58.7397 44.473 58.6619 44.5196 58.5841 44.5507L58.5374 44.5663C58.4596 44.613 58.3662 44.6441 58.2884 44.6752L58.2573 44.6908C58.164 44.7219 58.0862 44.753 57.9928 44.7686H57.9617C57.8683 44.7997 57.775 44.8153 57.666 44.8308C57.4949 44.8464 57.3393 44.8619 57.1681 44.8619C56.9036 44.8619 56.6235 44.8464 56.359 44.7997C56.2657 44.7841 56.1723 44.7686 56.0789 44.753C56.0478 44.753 56.0167 44.7375 55.9856 44.7375C55.7522 44.6908 55.5188 44.6441 55.2698 44.5819C55.1765 44.5507 55.0676 44.5352 54.9742 44.5041C54.8186 44.4574 54.6475 44.4263 54.4763 44.3952C54.4452 44.3952 54.4141 44.3796 54.3829 44.3796C54.2429 44.3796 54.1029 44.3952 53.9628 44.4107H53.9317C53.5272 44.4574 53.1226 44.5663 52.718 44.6908C52.7025 44.6908 52.6714 44.7063 52.6558 44.7063C52.5936 44.7219 52.5313 44.753 52.4691 44.7841C52.3913 44.8153 52.2979 44.8464 52.2201 44.8931C51.6444 45.142 51.0843 45.4999 50.5552 45.9356C50.3374 46.1223 50.1507 46.309 49.964 46.4957C49.6839 46.7913 49.4349 47.1181 49.2016 47.4604C49.186 47.476 49.1704 47.4915 49.1704 47.5227C49.046 47.7094 48.9526 47.8961 48.8437 48.0828C48.8126 48.145 48.7659 48.2228 48.7348 48.2851V48.3006C48.6258 48.5185 48.5325 48.7519 48.4547 48.9853C48.4547 49.0008 48.4391 49.0164 48.4391 49.032C48.4236 49.0631 48.4236 49.0942 48.408 49.1253C48.3769 49.2342 48.3458 49.3431 48.3146 49.4521C48.2835 49.561 48.2524 49.6699 48.2368 49.7788C48.2368 49.8099 48.2213 49.8255 48.2213 49.8566C48.2057 49.9189 48.1902 49.9967 48.1902 50.0589C48.159 50.3078 48.1279 50.5568 48.1279 50.8058C48.1279 50.868 48.1279 50.9302 48.1279 50.9925C48.2368 51.397 48.408 51.7705 48.5947 52.0972C49.326 53.3731 50.5397 54.12 51.411 54.5401C51.7533 54.6957 52.1112 54.8202 52.4691 54.9446L52.4847 54.9602L52.5158 54.9446C52.5624 54.9135 52.6091 54.8668 52.6558 54.8357C52.6714 54.8202 52.6869 54.8046 52.7025 54.8046C52.7492 54.7735 52.7958 54.7268 52.8581 54.6957C52.8736 54.6801 52.8892 54.6646 52.9048 54.6646C52.9514 54.6335 53.0137 54.5868 53.0604 54.5557C53.0759 54.5401 53.0915 54.5245 53.1226 54.5245C53.1848 54.4934 53.2315 54.4467 53.2938 54.4156C53.3093 54.4001 53.3249 54.3845 53.356 54.3845C53.4182 54.3534 53.4805 54.3067 53.5272 54.2756C53.5427 54.26 53.5738 54.2445 53.5894 54.2445C53.6516 54.2133 53.7139 54.1822 53.7761 54.1355C53.7917 54.12 53.8228 54.1044 53.8383 54.1044C53.9006 54.0733 53.9628 54.0422 54.0251 53.9955C54.0562 53.9799 54.0717 53.9644 54.1029 53.9488C54.1651 53.9177 54.2273 53.8866 54.2896 53.8555C54.3207 53.8399 54.3518 53.8243 54.3674 53.8088C54.4296 53.7777 54.4919 53.7465 54.5541 53.7154C54.5852 53.6999 54.6163 53.6843 54.6475 53.6687C54.7097 53.6376 54.7719 53.6065 54.8342 53.5754C54.8653 53.5598 54.8964 53.5443 54.9431 53.5287C55.0053 53.4976 55.0676 53.4665 55.1298 53.4509C55.1609 53.4354 55.2076 53.4198 55.2543 53.4042C55.3165 53.3731 55.3788 53.3576 55.441 53.3264C55.4877 53.3109 55.5344 53.2953 55.5655 53.2798C55.6277 53.2486 55.69 53.2331 55.7522 53.202C55.7989 53.1864 55.8456 53.1708 55.8922 53.1553C55.9545 53.1397 56.0167 53.1086 56.0789 53.093C56.1256 53.0775 56.1879 53.0619 56.2345 53.0308C56.2968 53.0152 56.359 52.9841 56.4213 52.9686C56.4835 52.953 56.5457 52.9219 56.608 52.9063C56.6702 52.8908 56.7325 52.8752 56.7947 52.8441C56.8569 52.8285 56.9347 52.7974 56.997 52.7818C57.0592 52.7663 57.1059 52.7507 57.1681 52.7352C57.2459 52.7196 57.3237 52.6885 57.386 52.6729C57.4171 52.6574 57.4638 52.6574 57.4949 52.6418C57.7905 51.9105 58.6463 50.09 60.1245 49.9033C60.2801 49.8877 60.4201 49.8722 60.5601 49.8722C60.5913 49.8722 60.6379 49.8722 60.6691 49.8722C60.6535 49.7633 60.6379 49.6543 60.6379 49.5454C60.5913 48.7674 60.8247 48.1139 61.167 48.0984C61.4315 48.0828 61.6493 48.4718 61.6804 48.5963C61.7738 48.8297 61.8516 49.1409 61.8672 49.4676C61.8827 49.7788 61.8516 50.0589 61.8049 50.2923C61.836 50.3234 61.8516 50.3545 61.8827 50.3856C62.225 50.8058 62.2717 51.3815 62.2717 51.8016C62.3962 51.786 62.5362 51.7705 62.6763 51.7705C62.7074 51.7705 62.7385 51.7705 62.7852 51.7549H62.8007C62.8163 51.7549 62.8474 51.7549 62.863 51.7549C63.0341 51.7393 63.2053 51.7238 63.3765 51.7082C63.7655 51.6771 64.17 51.6615 64.5746 51.646C64.3723 51.4126 64.2478 51.3503 64.2478 51.3503Z" fill="#EFCFA5"/>
<path d="M67.9506 62.2889C67.2971 62.8646 66.6281 63.3314 65.959 63.6893C65.6167 63.876 65.2899 64.0316 64.9632 64.1716C64.2319 64.4828 63.5317 64.7162 62.9248 64.8563C61.5711 65.183 60.6064 65.183 60.6064 65.183C61.3533 65.5876 62.2869 65.6031 62.9404 65.5253C63.3916 65.4786 63.6873 65.4008 63.6873 65.4008C63.6717 65.6809 63.6406 65.9299 63.5939 66.1633C63.5472 66.4278 63.4694 66.6612 63.3761 66.879V66.8946C63.2672 67.1591 63.1271 67.3925 62.9871 67.5948C62.9715 67.6103 62.956 67.6414 62.9404 67.657L62.9871 67.6259C63.2205 67.5014 63.4539 67.3614 63.6873 67.2058C63.8584 67.0969 64.0296 66.9879 64.2007 66.8635C64.4808 66.6612 64.7765 66.4433 65.041 66.2255C65.0565 66.2099 65.0721 66.1944 65.0876 66.1788C65.3677 65.9454 65.6167 65.6965 65.8501 65.4475C66.1613 65.1208 66.4413 64.7785 66.7059 64.4361L66.7214 64.405C66.7837 64.3272 66.8459 64.2339 66.9081 64.1561L66.9237 64.1249C66.9393 64.0938 66.9548 64.0627 66.9859 64.0471C67.0637 63.9227 67.1571 63.8138 67.2193 63.6893C67.2349 63.6582 67.2504 63.627 67.2816 63.6115C67.3282 63.5492 67.3594 63.487 67.3905 63.4248C67.4216 63.3781 67.4527 63.3314 67.4838 63.2847C67.515 63.238 67.5461 63.1758 67.5772 63.1291C67.6239 63.0358 67.6861 62.9424 67.7328 62.849C67.7484 62.8179 67.7639 62.7712 67.795 62.7401C67.8262 62.6623 67.8728 62.6001 67.904 62.5223C67.9195 62.4912 67.9351 62.4601 67.9506 62.4289L67.9662 62.3978C68.0129 62.3045 68.0596 62.2267 68.0907 62.1333C68.044 62.2111 67.9973 62.2422 67.9506 62.2889Z" fill="#EFCFA5"/>
<path d="M51.7687 55.1314C51.582 55.1936 51.3797 55.2714 51.1774 55.3492C50.6017 55.5826 49.9638 55.9249 49.3881 56.3761C49.3103 56.4384 49.248 56.5006 49.1702 56.5629C49.0458 56.6718 48.9368 56.7807 48.8279 56.9052C48.8124 56.9207 48.7968 56.9363 48.7968 56.9519C48.7812 56.9674 48.7657 56.983 48.7501 57.0141C48.7035 57.0608 48.6723 57.1075 48.6257 57.1541C48.6101 57.1697 48.5945 57.2008 48.579 57.2164C48.5323 57.2786 48.4701 57.3564 48.4234 57.4186C48.3767 57.4809 48.33 57.5587 48.2833 57.6365C47.941 58.2278 47.7543 58.9279 47.8165 59.7837V59.7682C47.8165 59.7526 47.8165 59.7526 47.8165 59.737C47.8165 59.7215 47.8165 59.7059 47.8321 59.6904V59.6748C47.8321 59.6592 47.8477 59.6281 47.8477 59.6126V59.597C47.8477 59.5659 47.8632 59.5503 47.8632 59.5192C47.8788 59.4881 47.8788 59.457 47.8943 59.4259V59.4103C47.9099 59.3792 47.9099 59.3481 47.9255 59.3014V59.2858C47.941 59.2547 47.9566 59.2236 47.9721 59.1769V59.1613C47.9877 59.1147 48.0033 59.0835 48.0188 59.0369L48.0344 59.0057C48.0499 58.9591 48.0811 58.9279 48.0966 58.8813C48.1277 58.819 48.1744 58.7568 48.2055 58.679C48.2211 58.6479 48.2367 58.6323 48.2522 58.6012L48.2678 58.5856C48.2989 58.5389 48.3456 58.4767 48.3767 58.43C48.4078 58.3833 48.4389 58.3522 48.4701 58.3055C48.4856 58.29 48.4856 58.2744 48.5012 58.2744C48.5323 58.2433 48.5634 58.2122 48.5945 58.1811C48.6101 58.1655 48.6257 58.15 48.6257 58.15C48.6723 58.1033 48.7035 58.0722 48.7501 58.0255C48.7501 58.0255 47.9877 59.7682 48.3145 61.1374C48.3145 61.1374 48.3145 61.1374 48.3145 61.1219V61.1063C48.3145 61.1063 48.3145 61.0907 48.3145 61.0752C48.3145 61.0596 48.3145 61.0441 48.3145 61.0285C48.3145 61.0129 48.3145 60.9818 48.3145 60.9663C48.3145 60.9351 48.3145 60.904 48.3145 60.8885C48.3145 60.8573 48.3145 60.8262 48.33 60.7951C48.33 60.7951 48.33 60.7951 48.33 60.7795C48.33 60.7484 48.3456 60.7017 48.3456 60.6706C48.3456 60.6706 48.3456 60.6706 48.3456 60.6551C48.3456 60.6084 48.3611 60.5773 48.3611 60.5306V60.515V60.4995C48.3767 60.4528 48.3767 60.4061 48.3923 60.3594C48.3923 60.3594 48.3923 60.3594 48.3923 60.3439C48.4078 60.2972 48.4234 60.2505 48.4389 60.2038C48.4389 60.1883 48.4545 60.1727 48.4545 60.1572L48.4701 60.126C48.4856 60.0794 48.5012 60.0482 48.5167 60.0016C48.5479 59.9393 48.5634 59.8926 48.5945 59.8304C48.5945 59.8148 48.6101 59.7993 48.6257 59.7837C48.6568 59.737 48.6879 59.6748 48.7346 59.6281C48.7346 59.6281 48.6879 60.0638 48.7035 60.5617C48.7035 60.6395 48.7035 60.7173 48.719 60.8107C48.719 60.8729 48.719 60.9196 48.7346 60.9818C48.7657 60.4372 48.8746 59.9238 49.0146 59.4414C49.0613 59.3169 49.0924 59.1769 49.1391 59.0524C49.1391 59.0369 49.1547 59.0213 49.1547 58.9902C49.2014 58.8657 49.248 58.7568 49.2947 58.6323C49.3103 58.6167 49.3103 58.5856 49.3258 58.5701C49.3725 58.4611 49.4348 58.3522 49.4814 58.2433C49.497 58.2278 49.497 58.2122 49.5126 58.1966C49.637 57.9632 49.7615 57.761 49.886 57.5431C49.9015 57.5276 49.9015 57.512 49.9171 57.4964C49.9638 57.4186 50.026 57.3408 50.0727 57.2786C50.0883 57.263 50.1038 57.2319 50.1194 57.2164C50.1349 57.2008 50.1505 57.1853 50.1505 57.1697C50.2127 57.0763 50.275 56.9985 50.3528 56.9052C50.3683 56.8896 50.3683 56.8741 50.3839 56.8585C50.4461 56.7651 50.5239 56.6873 50.5862 56.6095C50.6795 56.5006 50.7573 56.4073 50.8507 56.3139C50.9129 56.2517 50.9752 56.1739 51.0374 56.1116C51.0685 56.0805 51.0841 56.065 51.1152 56.0338C51.2708 55.8782 51.4108 55.7538 51.5353 55.6293C51.9399 55.2714 52.2511 55.0536 52.36 54.9758C52.2977 54.9913 52.2199 55.0069 52.1266 55.038C52.0799 55.0224 51.9243 55.0691 51.7687 55.1314Z" fill="#EFCFA5"/>
<path d="M61.992 51.2726C61.992 51.2726 61.992 51.2259 61.9765 51.1637C61.9142 50.9147 61.6653 50.3079 60.6694 50.4013C59.6425 50.4946 59.2846 51.3349 59.1913 51.6149C59.1757 51.6772 59.1602 51.7083 59.1602 51.7083L59.1913 51.7394C59.3158 51.6305 59.5803 51.6461 59.7981 51.7861C59.907 51.8483 59.9848 51.9417 60.0471 52.0195C60.1404 52.1595 60.156 52.2996 60.0937 52.4085C60.0782 52.424 60.0626 52.4552 60.0471 52.4707C60.0471 52.4707 60.0937 52.4863 60.156 52.5018C60.4361 52.5796 61.2452 52.7508 61.6653 52.1906C61.6808 52.1595 61.712 52.144 61.7275 52.1128C61.6497 52.0662 61.603 51.9417 61.5875 51.8017C61.5875 51.7239 61.603 51.6616 61.6186 51.5838C61.6964 51.3504 61.852 51.2104 61.992 51.2726Z" fill="#EFCFA5"/>
<path d="M56.8571 58.8813C56.188 59.0213 55.5967 59.1147 55.1455 59.1925C55.1766 59.1925 55.1922 59.1925 55.2233 59.2081C55.9857 59.3014 57.1838 59.4103 58.6464 59.3325C61.3072 59.1769 64.8081 58.3367 67.9823 55.4737L67.9978 55.4582C68.0134 55.2248 67.9823 54.7891 67.6711 54.4468C67.6244 54.3845 67.5622 54.3379 67.4844 54.2756C67.4688 54.2756 67.4688 54.2601 67.4532 54.2601C67.3754 54.2134 67.2977 54.1667 67.2354 54.12C67.1732 54.0889 67.1265 54.0422 67.0798 54.0111V53.9955C66.8775 54.2756 66.6597 54.5401 66.4107 54.8046C66.3174 54.898 66.224 54.9758 66.1307 55.0692C65.2593 55.8627 64.1235 56.5162 62.8943 57.0608C60.8404 57.9322 58.5686 58.5234 56.8571 58.8813Z" fill="#EFCFA5"/>
<path d="M40.0214 54.2445C39.9903 54.2756 39.9591 54.2911 39.9436 54.3223L39.9125 54.3534C39.8813 54.3845 39.8502 54.4312 39.8191 54.4623L39.8035 54.4779C39.7724 54.5245 39.7413 54.5868 39.7102 54.6335L39.6946 54.6646C39.6946 54.6801 39.6791 54.6957 39.6791 54.7113C39.6635 54.7424 39.6479 54.7735 39.6324 54.8046V54.8202V54.8357C39.6013 54.8824 39.5857 54.9447 39.5546 54.9913C39.4923 55.1314 39.4457 55.2714 39.4145 55.3959C39.399 55.4426 39.3834 55.4737 39.3834 55.5048C39.3679 55.5826 39.3523 55.6448 39.3368 55.6604V55.676V55.6604C39.3368 55.6137 39.3367 55.567 39.3523 55.5204C39.3523 55.427 39.3679 55.3336 39.3679 55.2403C39.3834 55.1625 39.3834 55.0847 39.399 55.0069C39.399 54.9758 39.399 54.9602 39.4145 54.9291C39.4145 54.898 39.4301 54.8513 39.4301 54.8202C39.4301 54.7891 39.4457 54.7579 39.4457 54.7268V54.6957V54.6801C39.4457 54.6335 39.4612 54.6023 39.4612 54.5557C39.4612 54.5401 39.4612 54.5245 39.4768 54.509V54.4779C39.4768 54.4623 39.4768 54.4467 39.4923 54.4312C39.4923 54.4156 39.4923 54.4001 39.5079 54.3845C39.5235 54.3223 39.539 54.2756 39.5546 54.2133V54.1978C39.5701 54.1511 39.5701 54.1044 39.5857 54.0733V54.0578C39.6013 53.9644 39.6324 53.8866 39.6635 53.7932L39.6791 53.7466C39.6791 53.731 39.6946 53.7154 39.6946 53.6999C39.7413 53.5598 39.788 53.4198 39.8347 53.2953V53.2798C39.8813 53.1708 39.9125 53.0464 39.9591 52.9375V52.9219C39.9747 52.8752 40.0058 52.8285 40.0214 52.7819C40.0525 52.7041 40.0836 52.6418 40.1147 52.564V52.5485C40.1303 52.5329 40.1459 52.4862 40.177 52.424V52.4084C40.1925 52.3773 40.1925 52.3617 40.2081 52.3306C40.2237 52.2839 40.2392 52.2528 40.2548 52.2061L40.2703 52.175C40.2392 52.1595 40.2237 52.1439 40.1925 52.1439H40.177L40.1459 52.1283C39.9747 52.0505 39.8035 51.9883 39.6168 51.9416H39.5857C39.4768 51.9105 39.3523 51.895 39.2278 51.8794C39.15 51.8638 39.0878 51.8638 39.01 51.8638C38.9478 51.8638 38.8855 51.8638 38.8388 51.8638C38.7455 51.8638 38.6521 51.8794 38.5743 51.8794C38.5432 51.8794 38.5121 51.8949 38.4965 51.8949C38.4498 51.8949 38.4032 51.9105 38.372 51.9105C38.3565 51.9105 38.3409 51.9105 38.3254 51.9261C38.2942 51.9261 38.2631 51.9416 38.232 51.9416C38.1698 51.9572 38.1231 51.9727 38.0609 51.9883C38.0297 52.0039 38.0142 52.0039 37.9831 52.0194C37.9053 52.0505 37.8275 52.0817 37.7497 52.1128C37.7185 52.1283 37.6874 52.1439 37.6719 52.1595C37.6407 52.175 37.6096 52.1906 37.5785 52.2061L37.5474 52.2217C37.5163 52.2373 37.4696 52.2684 37.4385 52.2839C37.4073 52.2995 37.3762 52.3306 37.3451 52.3462C37.2984 52.3773 37.2673 52.3929 37.2362 52.424C37.2206 52.4395 37.1895 52.4551 37.1739 52.4707C37.1117 52.5173 37.0495 52.564 37.0028 52.6263C36.9717 52.6574 36.9406 52.6885 36.925 52.7041C36.8783 52.7507 36.8316 52.7974 36.785 52.8597L36.7694 52.8908C36.7383 52.9219 36.7227 52.953 36.7072 52.9841C36.6916 52.9997 36.676 53.0308 36.6605 53.0464V53.0619C36.5671 53.1864 36.4893 53.3264 36.4271 53.4665C36.4115 53.482 36.4115 53.5132 36.396 53.5287C36.3648 53.591 36.3337 53.6688 36.3026 53.7466C36.287 53.7777 36.287 53.8088 36.2715 53.8244C36.2715 53.8399 36.287 53.8555 36.287 53.8866C36.3026 53.9488 36.3337 54.0111 36.3493 54.0733V54.0889L36.3648 54.1044C36.3804 54.1667 36.4115 54.2289 36.4271 54.2911C36.5049 54.4623 36.5671 54.6335 36.6449 54.7735C36.6605 54.7891 36.6605 54.8202 36.676 54.8357L36.6916 54.8513L36.7072 54.8669C36.7694 54.9602 36.8161 55.0536 36.8628 55.1314C36.9406 55.2559 37.0184 55.3492 37.065 55.4114C37.0806 55.427 37.0806 55.4426 37.0961 55.4426C37.0961 55.4581 37.1117 55.4581 37.1117 55.4737C37.1273 55.4892 37.1428 55.5048 37.1428 55.5048C37.1428 55.4737 37.1273 55.4426 37.1273 55.4114C37.0806 55.1781 37.0495 54.9602 37.0495 54.7424V54.7268V54.6957C37.0495 54.5557 37.0495 54.4156 37.065 54.2756C37.0806 54.3223 37.0961 54.3845 37.1117 54.4312C37.1428 54.509 37.1584 54.5868 37.1895 54.649L37.2051 54.6801V54.6957C37.314 54.9913 37.4385 55.2403 37.5629 55.4426C37.703 55.6915 37.8275 55.8627 37.9053 55.956C37.9208 55.9716 37.9364 55.9872 37.9519 56.0027C37.9675 56.0338 37.9831 56.0338 37.9831 56.0338C37.9208 55.7849 37.9053 55.5515 37.8897 55.3181C37.8897 55.2403 37.8897 55.1625 37.8897 55.0847C37.8897 54.9913 37.8897 54.8824 37.9053 54.7891C37.9519 54.9602 37.9986 55.1003 38.0453 55.2403V55.2559C38.232 55.7693 38.4654 56.1428 38.6366 56.3762L38.6521 56.4073C38.6832 56.4384 38.6988 56.4851 38.7299 56.5006C38.7455 56.5162 38.761 56.5317 38.7766 56.5473C38.7922 56.5629 38.8077 56.5784 38.8077 56.594C38.8233 56.6095 38.8233 56.6095 38.8233 56.6095V56.5784C38.8233 56.5473 38.8077 56.5162 38.8077 56.4851C38.7922 56.3606 38.7766 56.2517 38.761 56.1272C38.761 56.0494 38.7455 55.9716 38.7455 55.8938C38.7455 55.816 38.7455 55.7538 38.7455 55.676C38.7455 55.6604 38.7455 55.6448 38.7455 55.6293C38.7455 55.5982 38.7455 55.5515 38.7455 55.5204V55.5048V55.4892C38.7455 55.3959 38.761 55.3025 38.7766 55.2092C38.7922 55.2714 38.8077 55.3336 38.8388 55.3959C38.8544 55.4426 38.87 55.4892 38.8855 55.5204V55.5359V55.5515L38.9011 55.5826C38.9166 55.6293 38.9478 55.676 38.9633 55.7382C38.9944 55.8316 39.0411 55.9094 39.0722 55.9872C39.1189 56.0805 39.1656 56.1739 39.2123 56.2517C39.2434 56.2984 39.259 56.345 39.2901 56.3917C39.3212 56.4384 39.3523 56.5006 39.3834 56.5317C39.4145 56.5784 39.4301 56.6095 39.4612 56.6407C39.4612 56.6562 39.4768 56.6562 39.4768 56.6718C39.4923 56.7029 39.5235 56.734 39.539 56.7496C39.5546 56.7651 39.5701 56.7807 39.5857 56.7963C39.6168 56.8274 39.6324 56.8585 39.6479 56.8741L39.6635 56.8896C39.6635 56.8741 39.6635 56.8585 39.6635 56.8429C39.6791 56.6873 39.6946 56.5473 39.7257 56.3917C39.7257 56.3762 39.7257 56.3606 39.7257 56.345C39.7569 56.1739 39.7724 56.0027 39.8035 55.8471C39.8035 55.8316 39.8035 55.8004 39.8191 55.7849V55.7693C39.8191 55.7538 39.8191 55.7382 39.8347 55.7071C39.8347 55.676 39.8502 55.6448 39.8502 55.6293C39.8658 55.5048 39.8969 55.3803 39.928 55.2559C39.9436 55.1469 39.9747 55.0536 39.9903 54.9602V54.9291C39.9903 54.9135 39.9903 54.898 40.0058 54.8824C40.0058 54.8669 40.0058 54.8513 40.0214 54.8357C40.0214 54.8046 40.0369 54.7891 40.0369 54.7579C40.0369 54.7424 40.0525 54.7113 40.0525 54.6957C40.0525 54.6646 40.0681 54.6335 40.0681 54.6023V54.5868C40.0681 54.5557 40.0836 54.5401 40.0836 54.509C40.0836 54.4779 40.0992 54.4467 40.0992 54.4156C40.0992 54.4001 40.0992 54.3845 40.1147 54.3689C40.1147 54.3534 40.1147 54.3378 40.1303 54.3223C40.1303 54.2911 40.1459 54.26 40.1459 54.2445V54.2289V54.2133V54.1978L40.0214 54.2445Z" fill="#EFCFA5"/>
<path d="M61.5561 61.6665C61.805 61.5731 62.0229 61.5109 62.194 61.4331C62.5363 61.293 62.723 61.1841 62.7075 61.153C62.6919 61.1219 62.4896 61.1374 62.1318 61.2308C61.9451 61.2775 61.7272 61.3086 61.4783 61.3708C61.3538 61.4019 61.2137 61.4175 61.0737 61.4486C60.9337 61.4797 60.7781 61.5109 60.6225 61.5264C60.3113 61.5731 59.9379 61.6042 59.5644 61.6509C59.3777 61.6665 59.1754 61.682 58.9731 61.6976C58.7709 61.7131 58.5686 61.7131 58.3508 61.7287C57.495 61.7598 56.5614 61.7131 55.5967 61.542C55.0832 61.4486 54.4141 61.2308 53.9318 60.9507L53.9162 60.9352C54.1963 59.9238 55.2544 59.7682 55.2544 59.7682L55.2233 59.7526C55.2077 59.7526 55.1921 59.7526 55.1766 59.7526C55.021 59.7371 54.8809 59.7215 54.772 59.7059C54.6942 59.6904 54.6164 59.6904 54.5542 59.6748C54.4919 59.6748 54.4608 59.6593 54.4297 59.6593C53.7918 59.6126 53.4494 60.1572 53.325 60.3906C53.3094 60.4217 53.2938 60.4528 53.2783 60.4995C53.1849 60.7018 53.1227 60.9507 53.1071 61.1997C53.076 61.682 53.2005 62.1955 53.5584 62.6467C53.8073 62.9424 54.2274 63.2069 54.772 63.4247C54.2897 63.1291 53.8696 62.5378 53.8384 61.6198C54.383 61.8532 55.021 61.9932 55.4878 62.0866C56.4992 62.2733 57.495 62.2888 58.3663 62.2422C58.5842 62.2266 58.802 62.211 59.0043 62.1799C59.2065 62.1488 59.4088 62.1333 59.6111 62.1021C60.0001 62.0399 60.3424 61.9777 60.6692 61.8999C60.8403 61.8687 60.9804 61.8221 61.136 61.7909C61.2915 61.7443 61.416 61.7131 61.5561 61.6665Z" fill="#EFCFA5"/>
<path d="M60.7001 49.7944C61.2292 49.8099 61.587 49.9811 61.836 50.2145C61.8982 49.9811 61.9294 49.701 61.8982 49.3898C61.8827 49.0475 61.8049 48.7519 61.7115 48.5185C61.6804 48.3784 61.4626 47.9894 61.1981 48.0206C60.8557 48.0361 60.6223 48.6896 60.669 49.4676C60.669 49.5921 60.6846 49.701 60.7001 49.7944Z" fill="#59473D"/>
<path d="M61.6025 51.8171C61.6025 51.9727 61.6492 52.0816 61.7426 52.1283C61.8671 52.1906 62.0227 52.0505 62.1004 51.8171C62.1004 51.8016 62.116 51.7704 62.116 51.7549C62.1627 51.5371 62.116 51.3348 62.0071 51.2725C61.8826 51.2103 61.727 51.3503 61.6492 51.5837C61.6181 51.6615 61.6025 51.7393 61.6025 51.8171Z" fill="#59473D"/>
<path d="M59.1906 52.1907C59.2529 52.2841 59.3307 52.3775 59.4396 52.4397C59.673 52.5797 59.9219 52.5953 60.0464 52.4864C60.062 52.4708 60.0775 52.4553 60.0931 52.4241C60.1553 52.3152 60.1242 52.1752 60.0464 52.0351C59.9842 51.9418 59.9064 51.864 59.7974 51.8018C59.564 51.6617 59.3151 51.6462 59.1906 51.7551C59.1751 51.7706 59.1439 51.8017 59.1284 51.8173C59.0817 51.9262 59.1128 52.0663 59.1906 52.1907Z" fill="#59473D"/>
<path d="M67.998 55.4424L67.9824 55.4579C67.998 55.4579 67.998 55.4579 67.998 55.4424Z" fill="#59473D"/>
<path d="M67.7331 60.375C67.3908 60.7018 67.0174 60.9974 66.5972 61.2775C64.7612 62.5222 62.2094 63.4869 60.4045 63.7359C59.0352 63.9537 57.7126 63.9849 56.5457 63.8448C55.8766 63.767 55.2698 63.6114 54.7718 63.4247C54.2273 63.2224 53.7916 62.9579 53.5582 62.6467C53.2003 62.1955 53.0758 61.682 53.107 61.1997C53.1225 60.9507 53.1848 60.7018 53.2781 60.4995C53.2937 60.4684 53.3092 60.4217 53.3248 60.3906C53.4493 60.1572 53.7916 59.6126 54.4295 59.6593C54.4607 59.6593 54.4918 59.6593 54.554 59.6748C54.6163 59.6748 54.6941 59.6904 54.7718 59.7059C54.8808 59.7215 55.0208 59.737 55.1764 59.7526C55.192 59.7526 55.2075 59.7526 55.2231 59.7526C56.9813 59.9704 58.6618 59.9393 60.2644 59.6904C62.5984 59.3325 64.7456 58.5078 66.6595 57.2164C66.7528 57.1541 66.8618 57.0763 66.9551 57.0141L67.9976 55.4426C64.8234 58.3056 61.3225 59.1458 58.6618 59.3014C57.1992 59.3947 55.9855 59.2703 55.2386 59.1769C55.2075 59.1769 55.192 59.1769 55.1608 59.1613C54.9274 59.1302 54.7407 59.0991 54.6163 59.0835C54.554 59.068 54.4918 59.068 54.4607 59.068C54.2584 59.0524 54.0717 59.0835 53.9005 59.1302C53.5426 59.2391 53.2314 59.4881 52.998 59.8148C52.718 60.2194 52.5468 60.7329 52.5312 61.2775C52.5312 61.7287 52.6246 62.1799 52.8736 62.6156C52.8891 62.6312 52.8891 62.6467 52.9047 62.6623C52.9358 62.709 52.9669 62.7556 52.998 62.8023C53.0447 62.8646 53.0914 62.9268 53.1381 62.989C53.6982 63.6737 54.8963 64.1871 56.499 64.3894C57.5882 64.5294 58.8485 64.5139 60.2178 64.3272C64.2633 63.5959 66.1927 62.2888 67.0796 61.3708C67.1418 61.3086 67.2041 61.2463 67.2507 61.1685C67.5619 60.7951 67.7175 60.515 67.7642 60.3906V60.375C67.7798 60.3439 67.7798 60.3283 67.7798 60.3283L67.7331 60.375Z" fill="#59473D"/>
<path d="M54.8497 46.3401C54.7252 46.2778 54.5852 46.2156 54.4451 46.1845C54.3518 46.1689 54.2584 46.1378 54.1651 46.1378C54.1339 46.1378 54.1028 46.1378 54.0561 46.1222C53.5894 46.0755 53.1692 46.1533 53.1692 46.1533C53.0759 46.1689 52.9981 46.2 52.9203 46.2156C52.2823 46.4178 51.8311 46.7446 51.5199 47.1336C51.271 47.4448 51.0998 47.7871 50.9909 48.1294C50.9753 48.1605 50.9753 48.1917 50.9598 48.2228C50.9286 48.3161 50.9131 48.3939 50.8975 48.4717C50.8353 48.7518 50.8197 49.0163 50.8042 49.2186C50.7886 49.4987 50.8197 49.6854 50.8197 49.6854C50.9286 49.4364 51.0531 49.2186 51.162 49.0008C51.4577 48.4717 51.7844 48.0516 52.1112 47.7249C52.7491 47.0714 53.4026 46.7135 53.9005 46.5423C54.4763 46.3556 54.8497 46.3401 54.8497 46.3401Z" fill="#E1B27E"/>
<path d="M62.5366 45.4219L62.5211 45.3908C62.4433 45.2974 62.3655 45.2196 62.2566 45.1418C62.0076 44.9707 61.6808 44.8929 61.2141 44.9862C61.2141 44.9862 60.6539 45.1107 60.3271 45.4841C60.3271 45.4841 61.2918 45.064 62.3188 45.7953C62.4121 45.8576 62.5055 45.9354 62.5989 46.0287C62.6922 46.1221 62.7856 46.2154 62.8789 46.3244C62.8789 46.3244 62.8323 45.8731 62.5833 45.4997C62.5677 45.4686 62.5522 45.453 62.5366 45.4219Z" fill="#E1B27E"/>
<path d="M54.9739 52.5019C55.3473 52.3929 55.7519 52.284 56.172 52.1907C56.2498 51.8484 56.2654 51.4438 56.2187 50.9926C56.0942 49.9501 55.6274 49.1565 55.1762 49.2188C54.725 49.281 54.4604 50.1679 54.5694 51.1948C54.6316 51.7239 54.7716 52.1907 54.9739 52.5019Z" fill="#59473D"/>
<path d="M52.8578 29.2866L51.9087 29.5045L52.111 31.2471L49.5747 29.9557L48.5322 30.2669L48.5478 30.2824L51.6286 33.7989L51.6597 33.7834L51.7064 33.7523C51.7998 33.69 51.8931 33.6278 52.002 33.5655C52.0332 33.55 52.0643 33.5189 52.111 33.5033C52.251 33.4099 52.391 33.3321 52.5311 33.2544L51.2241 31.7451L53.3402 32.7876H53.3557C53.418 32.7564 53.4802 32.7098 53.5425 32.6786L53.3402 31.1693L54.3049 32.2896H54.3204C54.3982 32.243 54.476 32.2118 54.5694 32.1652L54.6005 32.1496L54.6472 32.1341C54.6628 32.1341 54.6783 32.1185 54.6939 32.1185C54.725 32.1029 54.7561 32.0874 54.8028 32.0718C54.8028 32.0718 54.8184 32.0718 54.8184 32.0563C54.9273 31.994 55.0517 31.9473 55.1607 31.9007L52.8578 29.2866Z" fill="#FACE56"/>
<path d="M51.9086 29.5046L52.0486 29.4735C51.8152 29.3646 51.5351 29.2868 51.2239 29.2401C50.586 29.1623 49.7613 29.2401 48.8277 29.4735C47.8941 29.7069 46.8516 30.1115 45.7469 30.6716C43.5374 31.7763 41.079 33.4724 38.6983 35.6352C37.8737 36.382 37.0957 37.16 36.3955 37.938L39.2741 41.4389C40.052 40.5832 40.8923 39.7274 41.8103 38.8871C43.0395 37.7668 44.2843 36.7866 45.5135 35.9152C46.7116 35.075 47.8786 34.3748 49.0144 33.7991L48.5165 31.543L48.5321 30.2671L48.5165 30.2515L49.559 29.9403L51.5974 30.9828L51.5351 30.2671L51.9086 29.5046Z" fill="#4D94C3"/>
<path d="M51.9087 29.5044L51.5508 30.2824L51.613 30.9981L52.1109 31.2471L51.9087 29.5044Z" fill="#141C26"/>
<path d="M51.1934 31.7606L53.3095 32.7876L52.5004 33.2544L51.1934 31.7606Z" fill="#141C26"/>
<path d="M53.3252 31.1694L53.5119 32.6787L54.2899 32.2897L53.3252 31.1694Z" fill="#141C26"/>
<path d="M61.3535 30.6093C61.478 30.6093 61.6181 30.6093 61.7425 30.6093C62.1004 30.6093 62.4272 30.6559 62.7539 30.7337C62.7695 30.7337 62.785 30.7337 62.8006 30.7493H62.8162L62.8473 30.7649L62.8784 30.7804C62.8473 30.7493 62.8006 30.7337 62.7695 30.7026C62.4116 30.5626 62.0382 30.4692 61.6492 30.4225C59.7198 30.1736 57.5259 30.8738 56.2811 31.3717C56.2188 31.4028 56.141 31.4339 56.0788 31.465C55.9699 31.5117 55.861 31.5584 55.752 31.6051C55.5653 31.6829 55.3942 31.7607 55.2075 31.854C55.1763 31.8696 55.1608 31.8852 55.1297 31.8852C55.0207 31.9318 54.9118 31.9941 54.7873 32.0408C54.7873 32.0408 54.7718 32.0408 54.7718 32.0563C54.7407 32.0719 54.7095 32.0874 54.6629 32.103C54.6473 32.103 54.6317 32.1186 54.6162 32.1186L54.5695 32.1341L54.5384 32.1497C54.4606 32.1964 54.3828 32.2275 54.2894 32.2742H54.2739C54.2583 32.2897 54.2272 32.2897 54.2116 32.3053H54.1961C54.1805 32.3053 54.165 32.3208 54.1494 32.3208C54.0249 32.3831 53.9004 32.4453 53.776 32.5076C53.6826 32.5542 53.6048 32.6009 53.5114 32.6476H53.4959C53.4336 32.6787 53.3714 32.7098 53.3092 32.7565H53.2936C53.0913 32.8654 52.8735 32.9899 52.6712 33.1144C52.6557 33.1299 52.6245 33.1455 52.609 33.1455C52.5934 33.1611 52.5779 33.1611 52.5467 33.1766C52.5312 33.1922 52.5156 33.1922 52.5001 33.2077L52.4845 33.2233C52.3445 33.3011 52.2044 33.3945 52.0644 33.4723C52.0333 33.4878 52.0022 33.5189 51.9555 33.5345C51.8621 33.5967 51.7688 33.659 51.6598 33.7212L51.6132 33.7523L51.582 33.7679C51.3175 33.939 51.053 34.1102 50.7885 34.2969C50.3528 34.5926 49.9171 34.9037 49.497 35.2149C49.4348 35.2616 49.3881 35.2927 49.3259 35.3394C48.2056 36.1796 47.132 37.0821 46.105 38.0157C45.0158 38.996 43.9733 40.0229 42.9931 41.0654C42.464 41.5944 42.0128 42.0768 41.6394 42.4813C40.8925 43.2904 40.488 43.7884 40.5035 43.7884C40.5035 43.7884 40.5813 43.7417 40.6902 43.6172C40.5969 43.7261 40.5035 43.835 40.4102 43.9595C42.075 42.2479 43.88 40.4586 45.8249 38.7937C47.0075 37.7823 48.2211 36.802 49.497 35.8996C50.0572 35.495 50.6173 35.1216 51.1775 34.7482C51.3642 34.6237 51.5354 34.5148 51.7221 34.4058C51.8154 34.3436 51.9088 34.2969 52.0022 34.2347C52.0488 34.2036 52.1111 34.1724 52.1577 34.1413C52.2511 34.0791 52.36 34.0168 52.4534 33.9702C52.5467 33.9079 52.6401 33.8612 52.749 33.799C52.7957 33.7679 52.8579 33.7368 52.9046 33.7057C53.0291 33.6279 53.1536 33.5656 53.278 33.5034C53.3558 33.4567 53.4181 33.4256 53.4959 33.3789C53.7293 33.2544 53.9627 33.1299 54.1961 33.0055C54.2116 32.9899 54.2428 32.9899 54.2583 32.9743C54.2894 32.9588 54.3361 32.9432 54.3672 32.9121C54.4139 32.881 54.4606 32.8654 54.5073 32.8343C54.5228 32.8187 54.5384 32.8187 54.5695 32.8032H54.5851C54.6162 32.7876 54.6473 32.7721 54.6784 32.7565C54.6784 32.7565 54.694 32.7565 54.694 32.7409H54.7095C54.8185 32.6943 54.9118 32.6476 55.0207 32.5854C55.0363 32.5698 55.0519 32.5698 55.083 32.5542C55.1141 32.5387 55.1452 32.5231 55.1763 32.5076C55.3008 32.4453 55.4097 32.3986 55.5342 32.3364C55.5653 32.3208 55.5964 32.3053 55.6276 32.2897C55.6431 32.2897 55.6587 32.2742 55.6742 32.2742C55.7054 32.2586 55.7365 32.243 55.7676 32.2275C55.9076 32.1652 56.0321 32.103 56.1722 32.0408C56.2966 31.9941 56.4056 31.9318 56.53 31.8852C57.1991 31.6051 57.837 31.3717 58.4128 31.185C59.5175 30.8427 60.4978 30.6404 61.3535 30.6093Z" fill="white"/>
</svg>
