<svg width="156" height="32" viewBox="0 0 156 32" fill="none" xmlns="http://www.w3.org/2000/svg">
<g clip-path="url(#clip0_113_20169)">
<path d="M12.4621 0C5.56002 0 0 5.56002 0 12.4621C0 19.3642 5.56002 24.9242 12.4621 24.9242V31.9541C12.4621 31.9541 24.9242 27.5444 24.9242 12.4621C24.9242 5.56002 19.3642 0 12.4621 0ZM8.37198 12.4621C8.37198 10.2253 10.2253 8.37198 12.4621 8.37198C14.6989 8.37198 16.5522 10.2253 16.5522 12.4621C16.5522 14.6989 14.6989 16.5522 12.4621 16.5522C10.2253 16.5522 8.37198 14.6989 8.37198 12.4621ZM52.3408 15.2102C52.3408 15.338 52.3408 15.5297 52.3408 15.6575C52.3408 15.7853 52.3408 15.9771 52.2769 16.1049C52.1491 16.8718 51.9574 17.6387 51.7018 18.4056C51.3822 19.1086 51.0627 19.8116 50.6153 20.4506C50.168 21.0897 49.6567 21.6649 49.0176 22.1762C48.4424 22.6874 47.7394 23.1348 47.0365 23.4543C45.5666 24.1573 44.0328 24.4129 42.3712 24.349C40.7095 24.2212 39.2397 23.71 37.8976 22.8152C36.6194 21.9205 35.5969 20.7702 34.83 19.3642C34.0631 17.9582 33.7435 16.4883 33.8075 14.8906C33.8714 13.932 33.9992 12.9734 34.3826 12.0147C34.7022 11.12 35.1495 10.2253 35.7886 9.45842C36.5555 8.49979 37.4502 7.66899 38.5367 7.09381C39.6231 6.51864 40.7734 6.13519 41.9877 5.94347C43.202 5.81565 44.4162 5.87956 45.5666 6.1991C46.7808 6.51864 47.8034 7.09381 48.762 7.7968V3.00369C48.762 2.49242 48.9537 2.10897 49.2732 1.72552C49.5928 1.40598 50.0401 1.21426 50.5514 1.21426C51.0627 1.21426 51.51 1.40598 51.8296 1.72552C52.1491 2.04506 52.3408 2.49242 52.3408 3.00369V14.7628V15.2102ZM47.356 18.789C47.9951 18.0221 48.4424 17.1274 48.6342 16.1049C48.8259 15.0823 48.762 14.1237 48.4424 13.1012C48.1868 12.3343 47.7394 11.6952 47.2282 11.12C46.7169 10.5449 46.0778 10.0975 45.3748 9.77796C44.6719 9.45842 43.905 9.26669 43.0741 9.26669C42.2433 9.26669 41.5404 9.45842 40.8374 9.77796C40.5178 9.90578 40.2622 10.0975 39.9426 10.2892C39.6231 10.481 39.4314 10.6727 39.1757 10.8644C38.6645 11.3757 38.281 11.9508 37.9615 12.5899C37.6419 13.229 37.5141 13.932 37.4502 14.635C37.3863 15.2741 37.4502 15.9131 37.6419 16.4883C37.8337 17.1274 38.0893 17.7026 38.4728 18.2138C38.8562 18.789 39.3036 19.2364 39.8787 19.6198C40.4539 20.0033 41.0291 20.3228 41.6682 20.4506C42.3072 20.5785 42.8824 20.6424 43.5854 20.6424C44.2245 20.5784 44.8636 20.4506 45.4388 20.195C45.3109 20.2589 45.1192 20.3228 44.9914 20.3867C44.8636 20.4506 44.6719 20.5145 44.4801 20.5785C44.8636 20.4506 45.247 20.2589 45.6305 20.1311C46.2696 19.8755 46.8447 19.3642 47.356 18.789ZM64.9308 5.81565C66.2089 5.81565 67.4232 6.07128 68.5096 6.51864C69.66 7.02991 70.6186 7.66899 71.4494 8.49979C72.2802 9.3306 72.9193 10.2892 73.4306 11.4396C73.9418 12.5899 74.1335 13.7403 74.1335 15.0184V22.4957C74.1335 23.007 73.9418 23.3904 73.6223 23.7739C73.3027 24.1573 72.8554 24.2851 72.3441 24.2851C71.8328 24.2851 71.4494 24.0934 71.066 23.7739C70.6825 23.4543 70.5547 23.007 70.5547 22.4957V19.0447H64.8669C64.8029 19.0447 64.6751 19.0447 64.5473 19.0447C63.9082 19.0447 63.3331 19.1725 62.7579 19.3003C62.1827 19.492 61.6714 19.7476 61.1602 20.1311C60.7128 20.4506 60.2655 20.898 59.9459 21.3454C59.6264 21.8566 59.3707 22.3679 59.179 22.9431V23.007V23.0709C59.0512 23.4543 58.8595 23.71 58.5399 23.9656C58.2204 24.1573 57.9009 24.2851 57.4535 24.2851C56.9422 24.2851 56.5588 24.0934 56.1753 23.7739C55.7919 23.4543 55.6641 23.007 55.6641 22.4957V22.2401V15.0184C55.6641 13.8681 55.8558 12.8456 56.2392 11.823C56.6866 10.6088 57.3896 9.52233 58.2843 8.5637C59.179 7.7329 60.1376 7.02991 61.288 6.51864C62.4383 6.00737 63.6526 5.81565 64.9308 5.81565ZM70.6186 15.4658V15.0184C70.6186 13.9959 70.363 13.1012 69.9156 12.2704V12.2065C69.9156 12.2065 69.9156 12.2065 69.9156 12.1426C69.8517 12.0147 69.7878 11.8869 69.66 11.823C69.5961 11.6952 69.5322 11.6313 69.4043 11.5035C68.8931 10.8644 68.254 10.2892 67.4871 9.90578C66.7202 9.52233 65.8894 9.3306 64.9308 9.3306C64.036 9.3306 63.1413 9.52233 62.3744 9.96968C61.6075 10.3531 60.9685 10.9283 60.4572 11.5674C60.0737 12.0787 59.8181 12.5899 59.6264 13.1651C59.4347 13.7403 59.3068 14.3794 59.3068 15.0184V17.1274C60.0737 16.6161 60.9045 16.1688 61.7993 15.8492C62.694 15.5297 63.6526 15.4019 64.6751 15.4019H64.9947H70.6186V15.4658ZM84.1032 5.94347C85.5731 5.68783 87.043 5.81565 88.449 6.26301C89.855 6.71036 91.1331 7.47726 92.1557 8.5637C93.0504 9.45842 93.6895 10.417 94.1368 11.5674C94.5842 12.7177 94.8398 13.8681 94.8398 15.1463C94.8398 16.1049 94.712 17.0635 94.3925 18.0221C94.0729 18.9807 93.6256 19.8116 93.0504 20.5785C92.0918 21.8566 90.9414 22.8152 89.4715 23.4543C88.0655 24.0934 86.5317 24.4129 84.9979 24.2851C84.1671 24.2212 83.4002 24.0934 82.6333 23.7739C81.8664 23.5182 81.1635 23.1348 80.4605 22.6874C79.8214 22.2401 79.1823 21.7288 78.671 21.1536C78.1598 20.5784 77.7124 19.8755 77.329 19.1725C77.0094 18.4695 76.7538 17.7026 76.5621 16.9357C76.3703 16.1688 76.3064 15.4019 76.3703 14.635C76.4342 13.8681 76.5621 13.1012 76.7538 12.3343C76.9455 11.5674 77.2651 10.8644 77.7124 10.1614C77.8402 9.90578 78.032 9.65014 78.2237 9.39451C78.9267 8.43589 79.8214 7.66899 80.8439 7.09381C81.8664 6.58255 82.9529 6.1991 84.1032 5.94347ZM90.3023 18.2778C90.6858 17.7026 91.0053 17.0635 91.1331 16.3605C91.3249 15.6575 91.3249 14.9545 91.261 14.2515C91.1331 13.5485 90.9414 12.9095 90.6219 12.3982C90.2384 11.6952 89.7272 11.12 89.152 10.6088C88.5129 10.0975 87.8738 9.77796 87.1069 9.58623C86.34 9.39451 85.5731 9.3306 84.8062 9.45842C84.0393 9.58623 83.2724 9.84187 82.6333 10.2892C81.8025 10.8644 81.0995 11.5674 80.6522 12.526C80.1409 13.4207 79.9492 14.4433 80.0131 15.4658C80.077 16.2966 80.2687 16.9996 80.5883 17.7026C80.6522 17.8943 80.78 18.0221 80.8439 18.2138C80.9078 18.4056 81.0356 18.5973 81.1635 18.7251C80.9717 18.4056 80.8439 18.1499 80.6522 17.8304C80.9717 18.4056 81.3552 18.8529 81.8025 19.3003C82.2499 19.7476 82.8251 20.0672 83.4002 20.3228C84.0393 20.5784 84.6784 20.7702 85.3175 20.7702C85.9566 20.7702 86.6596 20.7063 87.2986 20.5145C87.9377 20.3228 88.449 20.0672 89.0242 19.6198C89.5354 19.2364 89.9189 18.789 90.3023 18.2778ZM114.076 24.2851C113.565 24.2851 113.181 24.0934 112.798 23.7739C112.478 23.4543 112.287 23.007 112.287 22.4957V11.8869L109.986 14.1876C109.539 14.635 109.027 15.0184 108.452 15.2741C107.877 15.5297 107.238 15.6575 106.599 15.6575C105.96 15.6575 105.321 15.5297 104.746 15.2741C104.17 15.0184 103.659 14.6989 103.212 14.1876L100.911 11.8869V22.5596C100.911 23.0709 100.719 23.4543 100.4 23.8378C100.08 24.1573 99.6329 24.349 99.1217 24.349C98.6104 24.349 98.163 24.1573 97.8435 23.8378C97.524 23.5182 97.3322 23.0709 97.3322 22.5596V7.60508C97.3322 7.09381 97.524 6.71036 97.8435 6.32691C98.163 5.94347 98.6104 5.81565 99.1217 5.81565C99.5051 5.81565 99.8247 5.94347 100.144 6.13519L100.4 6.32691L105.512 11.5035C105.832 11.823 106.279 11.9508 106.663 11.9508C107.11 11.9508 107.494 11.823 107.813 11.5035L113.118 6.1991C113.437 6.00737 113.757 5.87956 114.14 5.87956C114.651 5.87956 115.035 6.07128 115.418 6.39082C115.802 6.71036 115.93 7.15772 115.93 7.66899V22.6235C115.93 23.1348 115.738 23.5182 115.418 23.9017C115.099 24.2851 114.587 24.2851 114.076 24.2851ZM127.689 5.81565C128.967 5.81565 130.181 6.07128 131.268 6.51864C132.418 7.02991 133.376 7.66899 134.207 8.49979C135.038 9.3306 135.677 10.2892 136.188 11.4396C136.7 12.5899 136.891 13.7403 136.891 15.0184V22.4957C136.891 23.007 136.7 23.3904 136.38 23.7739C136.061 24.1573 135.613 24.2851 135.102 24.2851C134.591 24.2851 134.207 24.0934 133.824 23.7739C133.44 23.4543 133.313 23.007 133.313 22.4957V19.0447H127.625C127.561 19.0447 127.433 19.0447 127.305 19.0447C126.666 19.0447 126.091 19.1725 125.516 19.3003C124.941 19.492 124.429 19.7476 123.918 20.1311C123.471 20.4506 123.023 20.898 122.704 21.3454C122.384 21.8566 122.129 22.3679 121.937 22.9431V23.007V23.0709C121.809 23.4543 121.617 23.71 121.298 23.9656C120.978 24.1573 120.659 24.2851 120.211 24.2851C119.7 24.2851 119.317 24.0934 118.933 23.7739C118.55 23.4543 118.422 23.007 118.422 22.4957V22.2401V15.0184C118.422 13.8681 118.614 12.8456 118.997 11.823C119.444 10.6088 120.147 9.52233 121.042 8.5637C121.937 7.7329 122.896 7.02991 124.046 6.51864C125.196 6.00737 126.41 5.81565 127.689 5.81565ZM133.376 15.4658V15.0184C133.376 13.9959 133.121 13.1012 132.673 12.2704V12.2065C132.673 12.2065 132.673 12.2065 132.673 12.1426C132.61 12.0147 132.546 11.8869 132.418 11.823C132.354 11.6952 132.29 11.6313 132.162 11.5035C131.651 10.8644 131.012 10.2892 130.245 9.90578C129.478 9.52233 128.647 9.3306 127.689 9.3306C126.794 9.3306 125.899 9.52233 125.132 9.96968C124.365 10.3531 123.726 10.9283 123.215 11.5674C122.832 12.0787 122.576 12.5899 122.384 13.1651C122.193 13.7403 122.065 14.3794 122.065 15.0184V17.1274C122.832 16.6161 123.662 16.1688 124.557 15.8492C125.452 15.5297 126.41 15.4019 127.433 15.4019H127.753H133.376V15.4658ZM156 22.4957C156 22.8791 155.872 23.2626 155.617 23.5821C155.361 23.9017 155.041 24.1573 154.594 24.2212C154.147 24.2851 153.763 24.2851 153.38 24.0934C152.996 23.9017 152.677 23.5821 152.549 23.1987C152.485 23.007 152.421 22.8152 152.421 22.6235C152.421 22.4318 152.421 22.2401 152.357 22.0483C152.293 21.5371 152.165 21.0258 152.038 20.5785C151.654 19.6837 151.143 18.9807 150.504 18.4056C149.673 17.7026 148.778 17.2552 147.628 17.0635C147.372 16.9996 147.117 16.9996 146.861 16.9996C146.605 16.9996 146.35 16.9996 146.094 16.9996H144.497C144.433 16.9996 144.369 16.9996 144.369 17.0635V17.383V20.7063V22.1122C144.369 22.304 144.369 22.4957 144.369 22.6874C144.369 22.8791 144.305 23.0709 144.241 23.1987C144.049 23.5821 143.794 23.9017 143.41 24.0934C143.027 24.2851 142.643 24.349 142.196 24.2212C141.812 24.1573 141.493 23.9017 141.173 23.5821C140.918 23.2626 140.79 22.8791 140.79 22.4318V20.2589V14.9545V9.58623C140.79 9.20279 140.79 8.88324 140.79 8.49979C140.79 8.11635 140.79 7.7968 140.79 7.41336C140.79 6.966 140.918 6.64646 141.237 6.26301C141.557 5.94347 141.876 5.75174 142.26 5.68783C142.771 5.62392 143.218 5.75174 143.666 6.07128C144.113 6.39082 144.305 6.77427 144.369 7.28554C144.433 7.47726 144.433 7.66899 144.433 7.86071C144.433 8.05244 144.433 8.24416 144.433 8.43589V10.1614V12.526V13.0373C144.433 13.1651 144.433 13.1651 144.433 13.1651C144.433 13.1651 144.497 13.1651 144.56 13.1651H146.222C146.222 13.1651 146.286 13.1651 146.35 13.1651C146.414 13.1651 146.478 13.1651 146.478 13.1651L146.733 12.7177C146.861 12.4621 146.989 12.2704 147.117 12.0147C147.245 11.7591 147.372 11.5674 147.5 11.3118C147.948 10.5449 148.395 9.84187 148.842 9.07497C149.29 8.30807 149.737 7.54117 150.184 6.83818C150.248 6.64646 150.376 6.51864 150.504 6.32691C150.632 6.13519 150.76 6.00737 150.887 5.87956C151.271 5.62392 151.718 5.49611 152.166 5.56002C152.613 5.62392 153.06 5.81565 153.316 6.1991C153.571 6.45473 153.699 6.83818 153.699 7.22163C153.699 7.60508 153.635 7.92462 153.444 8.24416C153.38 8.37198 153.316 8.49979 153.252 8.62761C153.188 8.75543 153.124 8.88324 153.06 9.01106L150.184 13.8681C151.015 14.1876 151.782 14.6989 152.485 15.2741C153.188 15.8492 153.827 16.4883 154.338 17.2552C154.85 18.0221 155.233 18.789 155.553 19.6837C155.872 20.7063 156 21.601 156 22.4957Z" fill="#717988"/>
</g>
<defs>
<clipPath id="clip0_113_20169">
<rect width="156" height="31.9541" fill="white"/>
</clipPath>
</defs>
</svg>
