<svg width="143" height="32" viewBox="0 0 143 32" fill="none" xmlns="http://www.w3.org/2000/svg">
<g clip-path="url(#clip0_113_20182)">
<path d="M51.5532 28.6738L33.7782 0L25.6623 13.1326L17.4892 0L0 28.2151H2.28617L17.4892 3.67025L24.462 14.9677L16.0032 28.6738H51.5532ZM33.7782 3.67025L48.0667 26.724H34.0639L26.7482 14.9677L33.7782 3.67025ZM31.8349 26.724H19.4896L25.6623 16.7455L31.8349 26.724ZM55.8397 3.55556H70.6427V6.88172H65.0416V24.8315H61.4409V6.88172H55.8397V3.55556ZM69.8425 14.0502C70.4712 12.9606 71.3857 12.1004 72.5288 11.4695C73.6719 10.8387 74.9293 10.552 76.3581 10.552C77.787 10.552 79.1015 10.8387 80.1875 11.4695C81.3305 12.1004 82.1879 12.9606 82.8737 14.0502C83.5024 15.1398 83.8453 16.4014 83.8453 17.8351C83.8453 19.2688 83.5024 20.5305 82.8737 21.6201C82.245 22.7097 81.3305 23.5699 80.1875 24.2007C79.0444 24.8315 77.787 25.1183 76.3581 25.1183C74.9293 25.1183 73.6719 24.8315 72.5288 24.2007C71.3857 23.5699 70.4712 22.7097 69.8425 21.6201C69.2138 20.5305 68.8709 19.2688 68.8709 17.8351C68.8709 16.4588 69.2138 15.1398 69.8425 14.0502ZM72.7574 20.1864C73.1003 20.8172 73.6147 21.3333 74.2434 21.7348C74.8721 22.1362 75.558 22.3082 76.3581 22.3082C77.1583 22.3082 77.8441 22.1362 78.4728 21.7348C79.1015 21.3333 79.6159 20.8172 79.9588 20.1864C80.3018 19.5556 80.5304 18.7527 80.5304 17.8925C80.5304 17.0323 80.3589 16.2294 79.9588 15.5986C79.6159 14.9104 79.1015 14.3943 78.4728 14.0502C77.8441 13.7061 77.1583 13.4767 76.3581 13.4767C75.558 13.4767 74.8721 13.6487 74.2434 14.0502C73.6147 14.3943 73.1003 14.9104 72.7574 15.5986C72.4145 16.2867 72.1859 17.0323 72.1859 17.8925C72.243 18.7527 72.4145 19.4982 72.7574 20.1864ZM86.8745 31.5412V10.8961H90.1895V31.5412H86.8745ZM100.763 21.8495C100.134 22.9391 99.3341 23.7993 98.3054 24.3728C97.2766 24.9462 96.1335 25.233 94.9333 25.233C93.7902 25.233 92.7614 24.9462 91.8469 24.3154C90.9896 23.7419 90.3038 22.8817 89.7894 21.7348C89.3321 20.6452 89.0464 19.3262 89.0464 17.8351C89.0464 16.3441 89.275 15.0251 89.7894 13.9355C90.2466 12.8459 90.9325 11.9857 91.8469 11.3548C92.7614 10.724 93.733 10.4373 94.9333 10.4373C96.1335 10.4373 97.2766 10.724 98.3054 11.2975C99.3341 11.871 100.191 12.7312 100.763 13.8208C101.392 14.9104 101.677 16.2294 101.677 17.8351C101.735 19.3835 101.392 20.7599 100.763 21.8495ZM97.7338 15.4839C97.3337 14.853 96.8194 14.3369 96.1907 13.9928C95.562 13.6487 94.8761 13.4767 94.0759 13.4767C93.4473 13.4767 92.8186 13.6487 92.1899 13.9928C91.5612 14.3369 91.1039 14.7957 90.7038 15.4839C90.3038 16.1147 90.1323 16.9176 90.1323 17.8925C90.1323 18.8674 90.3038 19.6703 90.7038 20.3011C91.1039 20.9319 91.6183 21.448 92.1899 21.7921C92.7614 22.1362 93.4473 22.3082 94.0759 22.3082C94.819 22.3082 95.562 22.1362 96.1907 21.7921C96.8194 21.448 97.3337 20.9319 97.7338 20.3011C98.1339 19.6703 98.3054 18.8674 98.3054 17.9498C98.3054 16.9176 98.1339 16.1147 97.7338 15.4839ZM99.9628 3.55556H114.766V6.88172H109.165V24.8315H105.564V6.88172H99.9628V3.55556V3.55556ZM116.423 21.7348C116.652 22.0789 116.938 22.3082 117.338 22.4803C117.738 22.6523 118.195 22.7097 118.709 22.7097C119.395 22.7097 119.967 22.595 120.538 22.3082C121.053 22.0215 121.51 21.6201 121.853 21.1613C122.196 20.6452 122.31 20.0717 122.31 19.3262L122.767 21.1613C122.767 22.0789 122.482 22.8244 121.967 23.3978C121.453 24.0287 120.824 24.4301 120.024 24.7742C119.224 25.0609 118.481 25.233 117.624 25.233C116.766 25.233 115.966 25.0609 115.223 24.7168C114.48 24.3728 113.851 23.8566 113.451 23.2258C112.994 22.5376 112.765 21.7348 112.765 20.8172C112.765 19.4409 113.223 18.4086 114.194 17.6057C115.166 16.8029 116.48 16.4014 118.195 16.4014C119.11 16.4014 119.91 16.5161 120.596 16.6882C121.281 16.9176 121.853 17.147 122.253 17.3763C122.71 17.6631 122.996 17.8925 123.167 18.1219V19.7849C122.539 19.3262 121.853 19.0394 121.167 18.81C120.481 18.5806 119.738 18.5233 118.938 18.5233C118.252 18.5233 117.681 18.638 117.281 18.81C116.881 18.9821 116.538 19.2115 116.309 19.4982C116.08 19.7849 115.966 20.1864 115.966 20.6452C116.137 20.9892 116.252 21.3907 116.423 21.7348ZM113.737 12.2151C114.366 11.8136 115.223 11.4695 116.195 11.0681C117.166 10.724 118.309 10.4946 119.624 10.4946C120.767 10.4946 121.739 10.6667 122.653 11.0108C123.568 11.3548 124.253 11.8136 124.711 12.5018C125.225 13.1326 125.454 13.9355 125.454 14.853V24.8315H122.31V15.5412C122.31 15.0824 122.253 14.7384 122.082 14.4516C121.967 14.1649 121.739 13.9355 121.453 13.7634C121.167 13.5914 120.881 13.4767 120.481 13.362C120.138 13.3047 119.738 13.2473 119.281 13.2473C118.652 13.2473 118.024 13.3047 117.452 13.4767C116.881 13.6487 116.366 13.8208 115.966 14.0502C115.566 14.2796 115.223 14.4516 115.052 14.5663L113.737 12.2151ZM129.226 13.8781C129.855 12.7885 130.712 11.9857 131.741 11.4122C132.769 10.8387 133.912 10.552 135.113 10.552C136.256 10.552 137.285 10.8387 138.199 11.4122C139.056 11.9857 139.799 12.7885 140.314 13.8781C140.828 14.9677 141.114 16.2294 141.114 17.7778C141.114 19.2688 140.828 20.5878 140.314 21.6774C139.799 22.767 139.114 23.5699 138.199 24.1434C137.342 24.7168 136.313 25.0036 135.113 25.0036C133.912 25.0036 132.827 24.7168 131.741 24.1434C130.712 23.5699 129.855 22.767 129.226 21.6774C128.597 20.5878 128.311 19.2688 128.311 17.7778C128.254 16.2294 128.597 14.9104 129.226 13.8781ZM131.798 25.8065C131.798 26.4373 131.969 27.0108 132.312 27.4695C132.655 27.9857 133.112 28.3871 133.684 28.6738C134.255 28.9606 134.941 29.1326 135.741 29.1326C136.427 29.1326 137.056 28.9606 137.685 28.6738C138.313 28.3297 138.828 27.871 139.228 27.1828C139.628 26.4946 139.799 25.6344 139.799 24.6022V10.8961H143V24.6022C143 26.2652 142.657 27.6989 141.971 28.7885C141.285 29.8781 140.428 30.681 139.342 31.2545C138.256 31.7706 137.056 32.0573 135.799 32.0573C134.313 32.0573 132.998 31.7706 131.969 31.2545C130.883 30.7383 130.083 29.9928 129.512 29.0753C128.94 28.1577 128.597 27.0681 128.597 25.8638H131.798V25.8065ZM132.255 20.1864C132.655 20.8172 133.169 21.3333 133.798 21.6774C134.427 22.0215 135.113 22.1935 135.856 22.1935C136.484 22.1935 137.113 22.0215 137.742 21.6774C138.371 21.3333 138.828 20.8746 139.228 20.1864C139.628 19.5556 139.799 18.7527 139.799 17.7778C139.799 17.0896 139.685 16.4588 139.456 15.8853C139.228 15.3692 138.942 14.9104 138.542 14.509C138.142 14.1075 137.742 13.8781 137.285 13.6487C136.827 13.4767 136.37 13.362 135.856 13.362C135.113 13.362 134.427 13.534 133.798 13.8781C133.169 14.2222 132.655 14.681 132.255 15.3692C131.855 16 131.683 16.8029 131.683 17.7204C131.626 18.6953 131.855 19.4982 132.255 20.1864Z" fill="#717988"/>
</g>
<defs>
<clipPath id="clip0_113_20182">
<rect width="143" height="32" fill="white"/>
</clipPath>
</defs>
</svg>
