<svg width="160" height="30" viewBox="0 0 160 30" fill="none" xmlns="http://www.w3.org/2000/svg">
<g clip-path="url(#clip0_113_20190)">
<path d="M38.262 30H13.8517L33.6622 20.16L38.262 30ZM0 30H9.51323L20.6468 0L0 30ZM18.0856 23.82L32.9827 18.78L26.5011 4.86L18.0856 23.82ZM39.412 16.56L30.0555 2.94L35.4394 17.88L39.412 16.56ZM39.7779 30H48.6638L39.7779 17.1L35.8576 19.08L39.7779 30ZM71.9765 22.62C71.7674 22.38 71.4538 22.2 71.0879 22.2C70.7743 22.2 70.4606 22.38 70.1993 22.74C69.9379 23.16 69.6766 23.58 69.4152 23.94C68.213 25.5 66.279 26.22 63.5087 26.22C58.6475 26.22 56.2431 23.04 56.2431 16.62C56.2431 13.44 56.9226 10.92 58.2816 9.06C59.6406 7.2 61.4701 6.3 63.7177 6.3C65.5472 6.3 67.3244 7.02 69.1016 8.46C69.5198 8.76 69.7811 8.94 69.9902 8.94C70.3038 8.94 70.6175 8.82 70.8788 8.52C71.1402 8.22 71.2447 7.92 71.2447 7.5C71.2447 7.02 70.9311 6.42 70.3038 5.88C68.6312 4.26 66.4358 3.48 63.77 3.48C60.6338 3.48 58.1248 4.74 56.2431 7.32C54.5181 9.72 53.6295 12.78 53.6295 16.62C53.6295 20.58 54.4659 23.64 56.1908 25.8C57.9157 27.96 60.3202 29.04 63.4564 29.04C66.3835 29.04 68.788 28.2 70.6175 26.46C71.7151 25.44 72.2901 24.48 72.2901 23.52C72.3424 23.22 72.2378 22.92 71.9765 22.62ZM86.2986 9.36C85.0964 7.8 83.5283 7.02 81.5943 7.02C79.2944 7.02 77.4649 7.8 76.1581 9.36C74.8514 10.92 74.1718 13.14 74.1718 16.02C74.1718 18.72 74.7468 20.82 75.8445 22.38C76.9422 23.94 78.458 24.66 80.392 24.66C82.7442 24.66 84.6259 23.82 86.0372 22.2C87.4486 20.58 88.1281 18.36 88.1281 15.6C88.1281 13.02 87.5008 10.98 86.2986 9.36ZM84.3123 20.34C83.3715 21.48 82.117 22.02 80.4966 22.02C79.2421 22.02 78.3012 21.48 77.6217 20.46C76.9422 19.44 76.6286 17.88 76.6286 15.96C76.6286 11.7 78.1444 9.6 81.2284 9.6C82.5874 9.6 83.6851 10.14 84.4691 11.22C85.2532 12.3 85.6713 13.74 85.6713 15.66C85.6713 17.64 85.2009 19.26 84.3123 20.34ZM98.8958 10.14C98.3731 9.72 97.7458 9.48 96.9095 9.48C95.2891 9.48 94.0346 10.44 93.1983 12.3C92.6233 9.84 91.8915 8.64 91.0552 8.64C90.7416 8.64 90.4802 8.76 90.2189 9.06C89.9575 9.36 89.853 9.6 89.853 9.9C89.853 10.2 89.9575 10.56 90.1666 10.98C90.5848 11.88 90.8461 12.36 90.8461 12.42C91.4734 13.98 91.8393 16.08 91.8393 18.72C91.8393 19.68 91.7347 20.7 91.4734 21.78C91.212 22.86 91.1075 23.46 91.1075 23.64C91.1075 24.48 91.4734 24.9 92.2052 24.9C92.7801 24.9 93.1983 24.36 93.5642 23.22C93.9301 22.02 94.1392 20.4 94.1392 18.3V16.44C94.1392 15.12 94.4005 14.04 94.871 13.26C95.3414 12.48 95.9686 12.06 96.7527 12.06C97.0663 12.06 97.4322 12.24 97.7981 12.54C98.164 12.84 98.4776 13.02 98.6867 13.02C98.9481 13.02 99.1571 12.9 99.3662 12.66C99.5753 12.42 99.6276 12.12 99.6276 11.76C99.6799 11.1 99.4185 10.56 98.8958 10.14ZM111.963 9.06C110.918 7.8 109.559 7.2 107.939 7.2C105.848 7.2 104.123 8.28 102.712 10.5C101.457 12.42 100.83 14.76 100.83 17.4C100.83 22.56 102.764 25.2 106.684 25.2C108.566 25.2 110.238 24.3 111.598 22.56C111.859 22.26 111.963 21.96 111.963 21.6C111.963 21.18 111.859 20.82 111.598 20.52C111.336 20.22 111.075 20.1 110.709 20.1C110.448 20.1 110.186 20.22 109.925 20.52C109.245 21.3 108.775 21.84 108.514 22.02C107.991 22.44 107.416 22.68 106.736 22.68C104.384 22.68 103.234 20.94 103.234 17.4C104.071 17.52 104.802 17.52 105.377 17.52C106.684 17.52 108.252 17.28 110.134 16.86C111.545 16.56 112.382 16.26 112.643 16.08C113.218 15.6 113.532 14.88 113.532 13.92C113.532 11.88 113.009 10.32 111.963 9.06ZM105.325 14.88C104.698 14.88 104.071 14.82 103.496 14.76C103.914 13.14 104.541 11.88 105.377 11.04C106.161 10.14 107.102 9.72 108.2 9.72C109.036 9.72 109.716 10.08 110.238 10.86C110.761 11.64 111.075 12.66 111.127 13.98C108.827 14.58 106.945 14.88 105.325 14.88ZM128.69 4.44C127.122 3 124.927 2.28 122.208 2.28C118.968 2.28 116.406 3.36 114.42 5.52C113.741 6.3 113.375 6.84 113.375 7.26C113.375 7.62 113.479 7.98 113.741 8.22C114.002 8.46 114.263 8.64 114.629 8.64C114.943 8.64 115.361 8.34 115.884 7.74C116.563 6.96 117.19 6.42 117.765 6.06C117.87 8.34 117.975 11.1 117.975 14.4C117.975 16.86 117.87 18.84 117.713 20.34C117.243 24.78 116.981 26.94 116.981 26.76C116.981 28.08 117.4 28.8 118.288 28.8C118.863 28.8 119.229 28.38 119.386 27.6C119.856 25.38 120.17 22.8 120.327 19.86C120.431 17.4 120.484 14.58 120.484 11.4C120.484 9.96 120.431 7.86 120.274 5.16C121.215 5.04 121.999 4.92 122.522 4.92C124.299 4.92 125.763 5.4 126.861 6.42C127.958 7.44 128.533 8.76 128.533 10.38C128.533 11.94 128.167 13.26 127.435 14.28C126.704 15.3 125.815 15.84 124.665 15.84C124.142 15.84 123.567 15.66 122.888 15.36C122.208 15.06 121.843 14.88 121.686 14.88C121.372 14.88 121.163 15 120.954 15.3C120.745 15.6 120.64 15.9 120.64 16.32V16.38C120.64 16.98 121.006 17.46 121.738 17.88C122.522 18.36 123.463 18.6 124.613 18.6C126.495 18.6 128.063 17.82 129.213 16.26C130.363 14.7 130.99 12.66 130.99 10.14C131.042 7.86 130.258 5.88 128.69 4.44ZM137.89 8.04C136.844 8.04 135.903 8.28 135.172 8.82C134.44 9.3 134.126 9.84 134.126 10.38C134.126 10.74 134.231 11.04 134.44 11.28C134.649 11.52 134.91 11.7 135.172 11.7C135.328 11.7 135.694 11.52 136.269 11.16C136.844 10.8 137.367 10.62 137.89 10.62C140.137 10.62 141.339 12.48 141.496 16.2C140.555 15.12 139.405 14.64 137.994 14.64C136.426 14.64 135.119 15.18 134.178 16.26C133.238 17.34 132.767 18.84 132.767 20.7C132.767 22.56 133.185 23.94 134.074 24.96C134.962 25.98 136.217 26.52 137.785 26.52C138.674 26.52 139.562 26.28 140.346 25.74C140.346 25.86 140.346 25.98 140.346 26.16C140.346 27 140.66 27.48 141.339 27.48C141.967 27.48 142.489 26.76 142.803 25.38C143.43 22.56 143.796 19.92 143.796 17.34C143.744 11.1 141.81 8.04 137.89 8.04ZM140.503 23.22C139.98 23.82 139.249 24.18 138.36 24.18C136.217 24.18 135.172 22.98 135.172 20.58C135.172 18.24 136.217 17.04 138.36 17.04C140.294 17.04 141.287 18.24 141.287 20.64C141.287 21.72 141.026 22.56 140.503 23.22ZM158.955 3C158.223 3 157.805 3.48 157.596 4.44C157.491 4.98 157.439 6.54 157.386 9.12C156.237 8.52 155.087 8.28 154.041 8.28C151.689 8.28 149.807 9.18 148.396 11.04C146.932 12.9 146.253 15.3 146.253 18.3C146.253 20.52 146.723 22.26 147.716 23.52C148.71 24.78 150.069 25.44 151.741 25.44C153.78 25.44 155.557 24.54 157.125 22.8C157.125 22.98 157.125 23.28 157.125 23.64C157.125 25.2 157.543 25.98 158.38 25.98C159.164 25.98 159.53 25.26 159.53 23.88C159.53 23.82 159.53 23.46 159.53 22.8C159.53 22.14 159.53 21.48 159.53 20.82C159.53 17.7 159.582 14.76 159.686 12C159.739 10.08 159.843 8.28 159.948 6.6C160.052 5.16 160.105 4.44 160.105 4.5C160 3.54 159.634 3 158.955 3ZM157.073 19.44C156.707 19.5 156.446 19.74 156.184 20.16C155.975 20.52 155.766 20.88 155.557 21.3C154.825 22.38 153.728 22.92 152.264 22.92C151.114 22.92 150.225 22.5 149.598 21.66C148.971 20.82 148.605 19.62 148.605 18.06C148.605 15.78 149.075 14.04 150.069 12.72C151.009 11.4 152.369 10.74 153.989 10.74C155.087 10.74 156.132 11.1 157.23 11.88C157.125 14.28 157.073 16.86 157.073 19.44Z" fill="#717988"/>
</g>
<defs>
<clipPath id="clip0_113_20190">
<rect width="160" height="30" fill="white"/>
</clipPath>
</defs>
</svg>
