<svg width="154" height="30" viewBox="0 0 154 30" fill="none" xmlns="http://www.w3.org/2000/svg">
<g clip-path="url(#clip0_113_20177)">
<path d="M23.7847 2.82C27.5686 5.52 30.0312 9.96 30.0312 15C30.0312 20.04 27.5086 24.54 23.6646 27.24C19.8206 24.6 17.298 20.1 17.298 15.06C17.298 9.96 19.8807 5.46 23.7847 2.82ZM15.1958 15.06C15.1958 9.6 17.8385 4.74 21.8627 1.62C19.8206 0.6 17.4782 0 15.0156 0C6.72699 0 0 6.72 0 15C0 23.28 6.72699 30 15.0156 30C17.4181 30 19.7605 29.4 21.7426 28.38C17.7785 25.32 15.1958 20.46 15.1958 15.06ZM46.8487 15.06C46.8487 6.96 40.2418 0.36 32.0733 0.36C23.9649 0.36 17.358 6.96 17.358 15.06C17.358 23.16 23.9649 29.76 32.0733 29.76C40.2418 29.82 46.8487 23.22 46.8487 15.06ZM44.7465 15.06C44.7465 22.02 39.0406 27.72 32.0733 27.72C25.1061 27.72 19.4002 22.02 19.4002 15.06C19.4002 8.1 25.1061 2.4 32.0733 2.4C39.1006 2.4 44.7465 8.1 44.7465 15.06ZM54.6568 26.28C55.6178 26.4 57.1194 26.52 59.0413 26.52C62.585 26.52 65.0476 25.86 66.6092 24.48C67.6903 23.4 68.4711 21.96 68.4711 20.1C68.4711 16.86 66.0686 15.12 63.9665 14.64V14.58C66.2488 13.74 67.6903 11.88 67.6903 9.78C67.6903 8.04 67.0296 6.78 65.8885 5.94C64.507 4.86 62.7052 4.38 59.8822 4.38C57.9002 4.38 55.9782 4.56 54.7169 4.86V26.28H54.6568ZM57.4797 6.66C57.9602 6.54 58.681 6.48 60.0023 6.48C62.8853 6.48 64.8073 7.5 64.8073 10.02C64.8073 12.12 63.0655 13.68 60.0624 13.68H57.4797V6.66ZM57.4797 15.84H59.8222C62.8853 15.84 65.468 17.1 65.468 20.04C65.468 23.22 62.7652 24.3 59.8822 24.3C58.8612 24.3 58.0804 24.24 57.5398 24.18V15.84H57.4797ZM85.2886 10.62H82.4056V20.22C82.4056 20.76 82.2855 21.24 82.1654 21.66C81.6248 22.92 80.3034 24.24 78.3814 24.24C75.7988 24.24 74.8978 22.26 74.8978 19.26V10.62H72.0749V19.8C72.0749 25.32 75.0179 26.64 77.4805 26.64C80.2434 26.64 81.9251 24.96 82.6459 23.7H82.7059L82.8861 26.28H85.4087C85.2886 25.02 85.2886 23.64 85.2886 22.02V10.62ZM90.0335 26.34H92.9165V3.3H90.0335V26.34ZM97.6615 26.34H100.544V3.3H97.6615V26.34ZM105.41 26.34H108.232V16.86H110.875C113.458 16.98 114.599 18.12 115.26 21.12C115.86 23.82 116.341 25.74 116.701 26.34H119.644C119.164 25.5 118.683 23.4 117.963 20.34C117.422 18.06 116.461 16.5 114.779 15.96V15.84C117.062 15.06 118.924 13.14 118.924 10.26C118.924 8.58 118.323 7.08 117.182 6.12C115.8 4.86 113.878 4.32 110.875 4.32C108.953 4.32 106.911 4.5 105.47 4.8V26.34H105.41ZM108.232 6.78C108.713 6.66 109.674 6.54 110.995 6.54C113.998 6.6 116.041 7.8 116.041 10.62C116.041 13.14 114.119 14.76 111.115 14.76H108.232V6.78ZM135.921 10.62H133.038V20.22C133.038 20.76 132.918 21.24 132.798 21.66C132.257 22.92 130.936 24.24 129.014 24.24C126.431 24.24 125.53 22.26 125.53 19.26V10.62H122.647V19.8C122.647 25.32 125.59 26.64 128.053 26.64C130.816 26.64 132.498 24.96 133.218 23.7H133.278L133.459 26.28H135.981C135.861 25.02 135.861 23.64 135.861 22.02V10.62H135.921ZM140.666 26.34H143.549V16.92C143.549 16.44 143.609 15.96 143.729 15.6C144.21 14.04 145.651 12.66 147.573 12.66C150.276 12.66 151.177 14.76 151.177 17.28V26.34H154.06V16.98C154.06 11.58 150.697 10.32 148.534 10.32C145.952 10.32 144.15 11.76 143.369 13.26H143.309L143.129 10.68H140.606C140.726 12 140.726 13.32 140.726 14.94V26.34H140.666Z" fill="#717988"/>
</g>
<defs>
<clipPath id="clip0_113_20177">
<rect width="154" height="30" fill="white"/>
</clipPath>
</defs>
</svg>
