<svg width="155" height="30" viewBox="0 0 155 30" fill="none" xmlns="http://www.w3.org/2000/svg">
<g clip-path="url(#clip0_113_20233)">
<path d="M13.5729 28.626C6.0972 28.626 0 22.042 0 13.9695V0C7.52872 0 13.5729 6.58397 13.5729 14.6565V28.626ZM23.4345 7.38549V0C18.6627 0 14.7923 4.17939 14.7923 9.33206V16.7176C19.5641 16.7748 23.4345 12.5954 23.4345 7.38549ZM34.3564 28.626C34.3564 22.9008 30.0619 18.2061 24.7069 18.2061H14.7923C14.7923 23.9313 19.0869 28.626 24.4418 28.626H34.3564ZM48.7776 23.416C51.4816 23.416 53.4963 22.6145 54.7688 21.0687C56.0412 19.5229 56.6775 17.0611 56.6775 13.7405C56.6775 10.1908 56.0412 7.67175 54.7158 6.12595C53.4433 4.58015 51.4286 3.83588 48.7776 3.83588H41.461V23.3588H48.7776V23.416ZM44.5361 6.46946H48.3535C49.6259 6.46946 50.6333 6.69847 51.4286 7.09924C52.2239 7.5 52.7541 8.24427 53.1252 9.33206C53.4963 10.3626 53.6554 11.8511 53.6554 13.7977C53.6554 15.7443 53.4433 17.1756 53.0722 18.2061C52.701 19.2366 52.0648 19.9237 51.3225 20.3244C50.5272 20.7252 49.5729 20.8969 48.3535 20.8969H44.5361V6.46946ZM66.433 23.2443C67.2283 22.958 67.9175 22.5 68.4477 21.9275L68.6598 23.3588H71.2577V14.1412C71.2577 12.1947 70.7275 10.8206 69.7202 9.96183C68.7128 9.10305 67.2283 8.70229 65.2666 8.70229C64.2592 8.70229 63.3579 8.75954 62.5096 8.9313C61.6613 9.10305 60.919 9.33206 60.3358 9.56107V12.0229C61.7143 11.5076 63.1988 11.2786 64.7364 11.2786C65.7437 11.2786 66.486 11.3931 67.0162 11.5649C67.5464 11.7366 67.8645 12.0229 68.0766 12.4237C68.2887 12.8244 68.3947 13.3969 68.3947 14.084V14.7137H64.1002C62.2975 14.7137 60.919 15.1145 60.0707 15.9733C59.2224 16.8321 58.7452 17.9198 58.7452 19.2939C58.7452 20.2672 58.9573 21.0687 59.3814 21.7557C59.8056 22.3855 60.3888 22.9008 61.1311 23.2443C61.8733 23.5878 62.6156 23.7023 63.4639 23.7023C64.6303 23.7023 65.6377 23.5878 66.433 23.2443ZM62.2445 20.8969C61.7673 20.5534 61.5552 20.0382 61.5552 19.2939C61.5552 18.5496 61.7673 17.9771 62.1384 17.5763C62.5626 17.1756 63.1988 17.0038 64.1002 17.0038H68.2887V19.5229C67.8645 20.0954 67.2813 20.5534 66.592 20.8969C65.9028 21.2405 65.1075 21.4122 64.2062 21.4122C63.4109 21.355 62.7217 21.1832 62.2445 20.8969ZM86.3152 21.7557C87.4286 20.4389 88.0118 18.6069 88.0118 16.2023C88.0118 13.7977 87.4286 11.9656 86.3152 10.6489C85.2018 9.33206 83.4521 8.70229 81.0133 8.70229C78.6274 8.70229 76.8778 9.33206 75.7644 10.6489C74.651 11.9656 74.0677 13.7977 74.0677 16.2023C74.0677 18.6069 74.651 20.4389 75.7644 21.7557C76.8778 23.0725 78.6274 23.7023 81.0133 23.7023C83.4521 23.7023 85.2018 23.0725 86.3152 21.7557ZM78.0442 19.8092C77.461 19.0649 77.1429 17.8626 77.1429 16.2023C77.1429 14.542 77.461 13.3397 78.0442 12.5954C78.6274 11.8511 79.6348 11.5076 81.0133 11.5076C82.3918 11.5076 83.3991 11.8511 83.9823 12.5954C84.5655 13.3397 84.8837 14.542 84.8837 16.2023C84.8837 17.8626 84.5655 19.0649 83.9823 19.8092C83.3991 20.5534 82.3918 20.8969 81.0133 20.8969C79.6348 20.9542 78.6274 20.5534 78.0442 19.8092ZM101.797 22.271C102.963 21.2977 103.546 19.9237 103.546 18.2061C103.546 17.2901 103.387 16.4313 103.069 15.687C102.751 14.9427 102.168 14.313 101.373 13.7405C100.577 13.1679 99.4109 12.7099 97.9264 12.3092C96.7599 11.9656 95.9116 11.6794 95.2224 11.4504C94.5862 11.1641 94.109 10.8779 93.8439 10.5343C93.5788 10.1908 93.4728 9.67557 93.4728 9.10305C93.4728 8.07252 93.8439 7.3855 94.5862 6.98473C95.3284 6.58397 96.3888 6.41221 97.7143 6.41221C99.4639 6.41221 101.001 6.69847 102.433 7.27099V4.35114C101.903 4.12214 101.161 3.95038 100.259 3.77863C99.3579 3.60687 98.3505 3.54962 97.2901 3.54962C95.0103 3.54962 93.2607 4.00763 92.0943 4.98092C90.9278 5.9542 90.3446 7.27099 90.3446 8.98855C90.3446 10.4771 90.7158 11.6221 91.5111 12.4809C92.3063 13.3397 93.6848 14.0267 95.5935 14.542C96.813 14.8855 97.7673 15.1718 98.4566 15.458C99.1458 15.7443 99.623 16.0878 99.9411 16.4885C100.259 16.8893 100.365 17.4046 100.365 18.0916C100.365 19.1794 99.9941 19.9237 99.3049 20.2672C98.5626 20.6107 97.5022 20.8397 96.0707 20.8397C95.1694 20.8397 94.215 20.7252 93.3137 20.5534C92.4124 20.3244 91.5111 20.0954 90.7158 19.7519V22.6718C92.1473 23.3015 94.003 23.645 96.3888 23.645C98.8277 23.7023 100.63 23.2443 101.797 22.271ZM111.764 23.416L114.68 14.0267L117.543 23.416H120.46L123.959 9.0458H120.937L118.657 19.5229L115.741 9.0458H113.408V10.8206L110.81 19.5229L108.53 9.0458H105.455L108.954 23.416H111.764V23.416ZM132.707 23.2443C133.502 22.958 134.191 22.5 134.722 21.9275L134.934 23.3588H137.532V14.1412C137.532 12.1947 137.001 10.8206 135.994 9.96183C134.987 9.10305 133.502 8.70229 131.541 8.70229C130.533 8.70229 129.632 8.75954 128.784 8.9313C127.935 9.10305 127.193 9.33206 126.61 9.56107V12.0229C127.988 11.5076 129.473 11.2786 131.01 11.2786C132.018 11.2786 132.76 11.3931 133.29 11.5649C133.82 11.7366 134.138 12.0229 134.351 12.4237C134.563 12.8244 134.669 13.3969 134.669 14.084V14.7137H130.374C128.571 14.7137 127.193 15.1145 126.345 15.9733C125.496 16.8321 125.019 17.9198 125.019 19.2939C125.019 20.2672 125.231 21.0687 125.655 21.7557C126.08 22.3855 126.663 22.9008 127.405 23.2443C128.147 23.5878 128.89 23.7023 129.738 23.7023C130.904 23.7023 131.912 23.5878 132.707 23.2443ZM128.518 20.8969C128.041 20.5534 127.829 20.0382 127.829 19.2939C127.829 18.5496 128.041 17.9771 128.412 17.5763C128.837 17.1756 129.473 17.0038 130.374 17.0038H134.563V19.5229C134.138 20.0954 133.555 20.5534 132.866 20.8969C132.177 21.2405 131.381 21.4122 130.48 21.4122C129.685 21.355 128.996 21.1832 128.518 20.8969ZM144 30V22.5572C145.166 23.3588 146.545 23.7595 148.135 23.7595C150.044 23.7595 151.529 23.1298 152.642 21.813C153.756 20.5534 154.286 18.6069 154.286 16.0305C154.286 13.4542 153.756 11.5649 152.695 10.4771C151.635 9.33206 150.15 8.81679 148.242 8.81679C147.287 8.81679 146.439 8.9313 145.697 9.21756C145.007 9.50382 144.318 9.96183 143.735 10.5343L143.576 9.10305H140.925V30.0572H144V30ZM145.432 20.8969C144.901 20.6679 144.424 20.3817 144 19.9809V12.7672C144.901 11.7366 146.068 11.2786 147.446 11.2786C148.825 11.2786 149.779 11.6221 150.362 12.3664C150.946 13.1107 151.211 14.313 151.211 15.9733C151.211 19.4656 149.938 21.2405 147.34 21.2405C146.598 21.2405 145.962 21.126 145.432 20.8969Z" fill="#717988"/>
</g>
<defs>
<clipPath id="clip0_113_20233">
<rect width="154.286" height="30" fill="white"/>
</clipPath>
</defs>
</svg>
