<svg width="163" height="32" viewBox="0 0 163 32" fill="none" xmlns="http://www.w3.org/2000/svg">
<g clip-path="url(#clip0_113_20130)">
<path opacity="0.5" d="M31.5746 31.8184L47.3828 15.9883L31.5746 0.158184L15.7663 15.9883L31.5746 31.8184Z" fill="#717988"/>
<path d="M15.7855 31.8184L31.5938 15.9883L15.7855 0.158183L-0.0227485 15.9883L15.7855 31.8184Z" fill="#717988"/>
<path d="M75.5286 10.3725C76.097 11.1314 76.4128 12.08 76.4128 13.1551C76.4128 14.6729 75.8444 15.8745 74.6445 16.6966C73.4446 17.5187 71.7394 17.9614 69.4659 17.9614H60.6875V0.253906H68.9606C71.0447 0.253906 72.6867 0.633353 73.7603 1.45549C74.8971 2.27762 75.4655 3.41596 75.4655 4.80727C75.4655 5.69264 75.276 6.45154 74.834 7.14719C74.455 7.84284 73.8866 8.34877 73.192 8.72821C74.1393 9.04442 74.9603 9.61359 75.5286 10.3725ZM63.9715 2.84679V7.71636H68.6449C69.7816 7.71636 70.6658 7.52663 71.2973 7.08395C71.9289 6.64126 72.2446 6.07209 72.2446 5.24995C72.2446 4.42782 71.9289 3.85865 71.2973 3.41596C70.6658 2.97327 69.7816 2.78355 68.6449 2.78355H63.9715V2.84679ZM73.0656 12.8389C73.0656 11.1314 71.8026 10.3092 69.2764 10.3092H63.9715V15.4318H69.2764C71.8026 15.3685 73.0656 14.5464 73.0656 12.8389Z" fill="#717988"/>
<path d="M79.8906 0.253906H83.1746V17.9614H79.8906V0.253906V0.253906Z" fill="#717988"/>
<path d="M103.632 0.253906V17.9614H100.916L91.1902 5.94561V17.9614H87.9062V0.253906H90.6219L100.348 12.2697V0.253906H103.632V0.253906Z" fill="#717988"/>
<path d="M119.864 13.8507H111.022L109.254 17.9614H105.844L113.801 0.253906H117.022L124.979 17.9614H121.569L119.864 13.8507ZM118.79 11.2579L115.443 3.54244L112.159 11.2579H118.79Z" fill="#717988"/>
<path d="M143.038 0.253906V17.9614H140.322L130.596 5.94561V17.9614H127.312V0.253906H130.028L139.754 12.2697V0.253906H143.038V0.253906Z" fill="#717988"/>
<path d="M151.126 17.0119C149.673 16.253 148.537 15.1146 147.716 13.7866C146.895 12.3953 146.516 10.8142 146.516 9.10672C146.516 7.39921 146.958 5.81818 147.779 4.42688C148.6 3.03557 149.736 1.96047 151.189 1.20158C152.642 0.442688 154.22 0 156.052 0C157.504 0 158.831 0.252964 160.031 0.758893C161.23 1.26482 162.241 2.02372 163.062 2.97233L160.915 4.99605C159.652 3.60474 158.073 2.90909 156.178 2.90909C154.978 2.90909 153.905 3.16206 152.894 3.73123C151.884 4.3004 151.189 4.99605 150.621 5.94466C150.052 6.89328 149.8 7.96838 149.8 9.16996C149.8 10.3715 150.052 11.4466 150.621 12.3953C151.189 13.3439 151.884 14.1028 152.894 14.6087C153.905 15.1146 154.915 15.4308 156.178 15.4308C158.073 15.4308 159.652 14.7352 160.915 13.3439L163.062 15.3676C162.241 16.3162 161.23 17.0751 160.031 17.581C158.831 18.087 157.504 18.3399 156.052 18.3399C154.157 18.2134 152.578 17.834 151.126 17.0119Z" fill="#717988"/>
<path d="M67.3193 28.4596C67.5719 28.7758 67.6982 29.2185 67.6982 29.7244C67.6982 30.4201 67.4456 30.926 66.8772 31.3055C66.372 31.6849 65.551 31.8746 64.5405 31.8746H60.625V23.9062H64.3511C65.2984 23.9062 65.9931 24.096 66.4983 24.4754C67.0035 24.8549 67.2562 25.3608 67.2562 25.9932C67.2562 26.3727 67.193 26.7521 67.0035 27.0683C66.8141 27.3845 66.5615 27.6375 66.2457 27.764C66.6878 27.8904 67.0667 28.1434 67.3193 28.4596ZM62.0775 25.0446V27.258H64.1616C64.6668 27.258 65.0458 27.1948 65.3615 27.0051C65.6142 26.8153 65.8036 26.5624 65.8036 26.1829C65.8036 25.8035 65.6773 25.5505 65.3615 25.3608C65.1089 25.1711 64.6668 25.1078 64.1616 25.1078H62.0775V25.0446ZM66.1825 29.5347C66.1825 28.7758 65.6142 28.3964 64.4774 28.3964H62.0775V30.673H64.4774C65.6142 30.7363 66.1825 30.3568 66.1825 29.5347Z" fill="#717988"/>
<path d="M71.2344 23.9062H72.6869V30.6098H76.855V31.8746H71.2344V23.9062V23.9062Z" fill="#717988"/>
<path d="M81.3419 31.4307C80.7104 31.0513 80.2051 30.6086 79.8262 29.9762C79.4473 29.3438 79.2578 28.6481 79.2578 27.8892C79.2578 27.1303 79.4473 26.4347 79.8262 25.8023C80.2051 25.1699 80.7104 24.6639 81.3419 24.3477C81.9734 23.9683 82.7313 23.8418 83.5523 23.8418C84.3733 23.8418 85.068 24.0315 85.7627 24.3477C86.3942 24.7272 86.8994 25.1699 87.2783 25.8023C87.6573 26.4347 87.8467 27.1303 87.8467 27.8892C87.8467 28.6481 87.6573 29.3438 87.2783 29.9762C86.8994 30.6086 86.3942 31.1145 85.7627 31.4307C85.1311 31.8102 84.3733 31.9367 83.5523 31.9367C82.7313 31.9999 81.9734 31.8102 81.3419 31.4307ZM84.9417 30.3556C85.3837 30.1027 85.6995 29.7865 85.9521 29.3438C86.2047 28.9011 86.331 28.4584 86.331 27.8892C86.331 27.3201 86.2047 26.8774 85.9521 26.4347C85.6995 25.992 85.3837 25.6758 84.9417 25.4228C84.4996 25.1699 84.0575 25.0434 83.4891 25.0434C82.9839 25.0434 82.4787 25.1699 82.0366 25.4228C81.5945 25.6758 81.2787 25.992 81.0261 26.4347C80.7735 26.8774 80.6472 27.3201 80.6472 27.8892C80.6472 28.4584 80.7735 28.9011 81.0261 29.3438C81.2787 29.7865 81.5945 30.1027 82.0366 30.3556C82.4787 30.6086 82.9207 30.7351 83.4891 30.7351C84.0575 30.6718 84.5627 30.5454 84.9417 30.3556Z" fill="#717988"/>
<path d="M92.8341 31.4307C92.2025 31.0513 91.6973 30.6086 91.3184 29.9762C90.9395 29.3438 90.75 28.6481 90.75 27.8892C90.75 27.1303 90.9395 26.4347 91.3184 25.8023C91.6973 25.1699 92.2025 24.6639 92.8341 24.3477C93.4656 23.9683 94.2235 23.8418 94.9813 23.8418C95.6128 23.8418 96.2444 23.9683 96.7496 24.158C97.318 24.411 97.7601 24.7272 98.139 25.1699L97.1917 26.0552C96.6233 25.4228 95.9286 25.1066 95.0445 25.1066C94.4761 25.1066 94.034 25.2331 93.5919 25.4861C93.1498 25.739 92.8341 26.0552 92.5815 26.4979C92.3289 26.9406 92.2025 27.3833 92.2025 27.9525C92.2025 28.5216 92.3289 28.9643 92.5815 29.407C92.8341 29.8497 93.1498 30.1659 93.5919 30.4189C94.034 30.6718 94.5392 30.7983 95.0445 30.7983C95.8655 30.7983 96.6233 30.4821 97.1917 29.8497L98.139 30.7351C97.7601 31.1778 97.318 31.494 96.7496 31.7469C96.1812 31.9999 95.6128 32.0631 94.9813 32.0631C94.2235 31.9999 93.4656 31.8102 92.8341 31.4307Z" fill="#717988"/>
<path d="M104.27 28.5228L103.007 29.8509V31.8746H101.555V23.9062H103.007V28.0169L106.923 23.9062H108.565L105.218 27.4478L108.754 31.8746H107.049L104.27 28.5228Z" fill="#717988"/>
<path d="M118.35 31.4307C117.718 31.0513 117.213 30.6086 116.834 29.9762C116.455 29.3438 116.266 28.6481 116.266 27.8892C116.266 27.1303 116.455 26.4347 116.834 25.8023C117.213 25.1699 117.718 24.6639 118.35 24.3477C118.981 23.9683 119.739 23.8418 120.497 23.8418C121.128 23.8418 121.76 23.9683 122.265 24.158C122.834 24.411 123.276 24.7272 123.655 25.1699L122.707 26.0552C122.139 25.4228 121.444 25.1066 120.56 25.1066C119.992 25.1066 119.55 25.2331 119.108 25.4861C118.665 25.739 118.35 26.0552 118.097 26.4979C117.844 26.9406 117.718 27.3833 117.718 27.9525C117.718 28.5216 117.844 28.9643 118.097 29.407C118.35 29.8497 118.665 30.1659 119.108 30.4189C119.55 30.6718 120.055 30.7983 120.56 30.7983C121.381 30.7983 122.139 30.4821 122.707 29.8497L123.655 30.7351C123.276 31.1778 122.834 31.494 122.265 31.7469C121.697 31.9999 121.128 32.0631 120.497 32.0631C119.739 31.9999 118.981 31.8102 118.35 31.4307Z" fill="#717988"/>
<path d="M134.143 23.9062V31.8746H132.69V28.4596H128.585V31.8746H127.133V23.9062H128.585V27.1948H132.69V23.9062H134.143Z" fill="#717988"/>
<path d="M143.362 30.0406H139.383L138.625 31.8746H137.109L140.709 23.9062H142.162L145.761 31.8746H144.246L143.362 30.0406ZM142.92 28.8391L141.404 25.3608L139.888 28.8391H142.92Z" fill="#717988"/>
<path d="M148.664 23.9062H150.117V31.8746H148.664V23.9062Z" fill="#717988"/>
<path d="M161.299 23.9062V31.8746H160.099L155.742 26.4991V31.8746H154.289V23.9062H155.489L159.847 29.2817V23.9062H161.299Z" fill="#717988"/>
</g>
<defs>
<clipPath id="clip0_113_20130">
<rect width="163" height="32" fill="white"/>
</clipPath>
</defs>
</svg>
