<svg width="161" height="32" viewBox="0 0 161 32" fill="none" xmlns="http://www.w3.org/2000/svg">
<g clip-path="url(#clip0_113_20151)">
<path opacity="0.5" d="M37.3557 22.7846C37.2278 22.5286 27.8889 4.0326 27.761 3.7766C27.2492 2.6246 26.4177 1.5366 25.2024 0.896602C22.3239 -0.831398 18.55 0.192602 16.8869 3.0726C15.7355 5.0566 15.7995 7.4246 16.9509 9.2806C17.0788 9.5366 25.9699 27.2646 26.1618 27.5206C26.2898 27.7766 26.4177 28.0326 26.5456 28.2886C27.0573 29.4406 27.8889 30.5286 29.1042 31.1686C31.9826 32.8966 35.7566 31.8726 37.4197 28.9926C38.571 27.0086 38.5071 24.6406 37.3557 22.7846Z" fill="#717988"/>
<path d="M26.6095 10.24C27.6329 9.152 28.2725 7.68 28.2725 6.08C28.2725 2.688 25.522 0 22.1959 0C20.149 0 18.294 1.024 17.2066 2.624C16.9507 2.816 1.79102 21.504 1.66309 21.76C0.63965 22.848 0 24.32 0 25.92C0 29.248 2.7505 32 6.07668 32C8.12356 32 9.97854 30.976 11.066 29.376C11.2578 29.184 26.4176 10.496 26.6095 10.24Z" fill="#717988"/>
<path d="M52.6407 10.24C53.6641 9.152 54.3038 7.68 54.3038 6.08C54.3038 2.688 51.5533 0 48.2271 0C46.1802 0 44.3252 1.024 43.2378 2.624C43.0459 2.816 27.8862 21.504 27.6943 21.76C26.6709 22.848 26.0312 24.32 26.0312 25.92C26.0312 29.312 28.7817 32 32.1079 32C34.1548 32 36.0098 30.976 37.0972 29.376C37.3531 29.184 52.5128 10.496 52.6407 10.24Z" fill="#717988"/>
<path d="M83.9908 16.3197C82.5835 17.6637 80.4727 18.3677 77.5943 18.3677H72.9248V28.6077H69.7266V4.0957H77.6582C80.4087 4.0957 82.5196 4.7357 83.9908 6.0797C85.462 7.4237 86.1656 9.1517 86.1656 11.2637C86.1016 13.3117 85.398 14.9757 83.9908 16.3197ZM81.5601 14.5917C82.3916 13.8237 82.8394 12.7357 82.8394 11.2637C82.8394 8.2557 81.1123 6.7197 77.6582 6.7197H72.9248V15.7437H77.6582C79.3853 15.7437 80.7285 15.3597 81.5601 14.5917Z" fill="#717988"/>
<path d="M93.585 27.7114C92.1138 26.8794 90.9624 25.7274 90.1309 24.1914C89.2993 22.6554 88.8516 20.9274 88.8516 18.9434C88.8516 16.9594 89.2993 15.2314 90.1309 13.6954C90.9624 12.1594 92.1777 11.0074 93.6489 10.2394C95.1201 9.40744 96.7832 9.02344 98.6382 9.02344C100.493 9.02344 102.092 9.40744 103.627 10.2394C105.099 11.0714 106.25 12.2234 107.146 13.6954C107.977 15.1674 108.425 16.9594 108.425 18.9434C108.425 20.9274 107.977 22.7194 107.082 24.1914C106.186 25.7274 105.035 26.8794 103.5 27.7114C102.028 28.5434 100.365 28.9274 98.5103 28.9274C96.6553 28.9274 95.0562 28.5434 93.585 27.7114ZM101.709 25.2794C102.732 24.7674 103.564 23.9354 104.139 22.8474C104.779 21.7594 105.099 20.4794 105.099 18.8794C105.099 17.2794 104.779 15.9994 104.203 14.9114C103.564 13.8234 102.796 13.0554 101.836 12.4794C100.877 11.9674 99.7896 11.7114 98.6382 11.7114C97.4868 11.7114 96.3994 11.9674 95.44 12.4794C94.4805 12.9914 93.7129 13.8234 93.0733 14.9114C92.4976 15.9994 92.1778 17.2794 92.1778 18.8794C92.1778 20.4794 92.4336 21.7594 93.0093 22.8474C93.585 23.9354 94.3526 24.7034 95.312 25.2794C96.2715 25.7914 97.3589 26.0474 98.4463 26.0474C99.6616 26.1114 100.685 25.8554 101.709 25.2794Z" fill="#717988"/>
<path d="M118.213 9.85498C119.237 9.21498 120.516 8.95898 122.051 8.95898V12.287H121.22C117.638 12.287 115.847 14.207 115.847 18.111V28.607H112.648V9.34298H115.847V12.479C116.358 11.327 117.19 10.495 118.213 9.85498Z" fill="#717988"/>
<path d="M129.599 11.9685V23.3605C129.599 24.3205 129.791 24.9605 130.175 25.3445C130.559 25.7285 131.262 25.9205 132.222 25.9205H134.588V28.6085H131.774C129.983 28.6085 128.64 28.2245 127.744 27.3925C126.849 26.5605 126.401 25.2165 126.401 23.3605V11.9685H123.906V9.34447H126.401V4.48047H129.599V9.34447H134.652V11.9685H129.599Z" fill="#717988"/>
<path d="M138.616 5.56747C138.168 5.11947 137.977 4.60747 137.977 4.03147C137.977 3.39147 138.168 2.87947 138.616 2.49547C139.064 2.04747 139.576 1.85547 140.151 1.85547C140.727 1.85547 141.239 2.04747 141.623 2.49547C142.006 2.94347 142.262 3.45547 142.262 4.03147C142.262 4.67147 142.07 5.18347 141.623 5.56747C141.239 6.01547 140.727 6.20747 140.151 6.20747C139.576 6.20747 139.064 5.95147 138.616 5.56747ZM141.751 9.34347V28.6075H138.552V9.34347H141.751Z" fill="#717988"/>
<path d="M150.003 28.159C148.852 27.647 147.893 26.943 147.253 26.047C146.549 25.151 146.166 24.127 146.102 22.911H149.428C149.492 23.871 150.003 24.639 150.771 25.279C151.603 25.919 152.626 26.175 153.969 26.175C155.185 26.175 156.144 25.919 156.848 25.343C157.551 24.831 157.871 24.127 157.871 23.295C157.871 22.463 157.487 21.823 156.72 21.439C155.952 21.055 154.801 20.607 153.266 20.223C151.858 19.839 150.643 19.455 149.748 19.071C148.852 18.687 148.084 18.111 147.445 17.343C146.805 16.575 146.485 15.551 146.485 14.335C146.485 13.375 146.805 12.415 147.381 11.647C147.957 10.815 148.788 10.175 149.876 9.66298C150.963 9.15098 152.178 8.95898 153.585 8.95898C155.696 8.95898 157.423 9.47098 158.767 10.559C160.11 11.647 160.814 13.119 160.877 14.975H157.679C157.615 13.951 157.231 13.183 156.464 12.543C155.696 11.903 154.737 11.647 153.522 11.647C152.37 11.647 151.475 11.903 150.771 12.415C150.067 12.927 149.748 13.567 149.748 14.335C149.748 14.975 149.939 15.487 150.387 15.871C150.771 16.255 151.283 16.639 151.922 16.831C152.562 17.087 153.394 17.343 154.481 17.663C155.888 18.047 156.976 18.431 157.871 18.751C158.767 19.135 159.47 19.647 160.11 20.415C160.75 21.119 161.069 22.079 161.069 23.295C161.069 24.319 160.75 25.279 160.174 26.175C159.598 27.007 158.767 27.711 157.679 28.159C156.592 28.671 155.376 28.863 154.033 28.863C152.498 28.927 151.219 28.671 150.003 28.159Z" fill="#717988"/>
</g>
<defs>
<clipPath id="clip0_113_20151">
<rect width="161" height="32" fill="white"/>
</clipPath>
</defs>
</svg>
