<svg width="139" height="30" viewBox="0 0 139 30" fill="none" xmlns="http://www.w3.org/2000/svg">
<g clip-path="url(#clip0_113_20194)">
<path d="M30 15C30 23.3143 23.3143 30 15 30C11.5714 30 8.4 28.8 5.82857 26.8286C5.91429 26.4 6 25.9714 6.17143 25.5429C7.02857 26.2286 7.88571 26.8286 8.82857 27.2571C10.2857 28.0286 11.9143 28.4571 13.6286 28.6286C16.9714 28.8857 20.3143 27.9429 22.9714 26.0571C25.6286 24.0857 27.5143 21.1714 28.2 18C28.8857 14.8286 28.3714 11.4 26.7429 8.57143C25.1143 5.74286 22.4571 3.6 19.4571 2.57143C16.4571 1.54286 13.0286 1.62857 10.1143 2.91429C7.2 4.11429 4.71429 6.51429 3.34286 9.34286C1.97143 12.0857 1.62857 15.4286 2.48571 18.4286C1.71429 15.3429 2.05714 12.0857 3.51429 9.34286C4.88571 6.6 7.37143 4.37143 10.2 3.25714C13.0286 2.14286 16.2857 2.14286 19.2 3.17143C22.0286 4.2 24.5143 6.34286 25.9714 9C27.4286 11.6571 27.7714 14.8286 27.0857 17.7429C26.4 20.6571 24.6 23.3143 22.2 24.9429C19.8 26.6571 16.7143 27.4286 13.8 27.0857C12.3429 26.9143 10.8857 26.4857 9.6 25.8C8.57143 25.2857 7.62857 24.6 6.77143 23.7429C8.31429 19.2 11.1429 15.0857 14.5714 11.6571L18.3429 16.7143C18.8571 16.7143 19.3714 16.8 19.8857 16.9714C20.0571 17.0571 20.2286 17.0571 20.4 17.1429C19.9714 17.0571 19.3714 17.1429 18.6857 17.4C16.1143 18.2571 11.7429 20.2286 8.22857 24.0857C14.2286 20.4 23.2286 21.2571 23.2286 21.2571L17.1429 6.42857L16.0286 3.6C7.71429 9.68571 4.71429 18.5143 3.85714 25.0286C1.45714 22.3714 0 18.8571 0 15C0 6.68571 6.68571 0 15 0C23.3143 0 30 6.68571 30 15ZM50.0571 11.9143C50.0571 11.5714 49.8 11.4 49.3714 11.4L47.7429 11.4857H45V6.6H48.5143C49.2 6.6 49.7143 6.68571 50.1429 6.77143C50.4 6.85714 50.5714 6.85714 50.8286 6.85714C51 6.85714 51.0857 6.77143 51.2571 6.68571C51.3429 6.51429 51.4286 6.42857 51.4286 6.25714C51.4286 5.82857 51.0857 5.65714 50.4 5.65714H50.1429H48.7714H38.0571V24.6857H44.9143V12.4286H47.9143C48.2571 12.4286 48.4286 12.4286 48.6857 12.4286H49.2C49.8 12.4286 50.0571 12.2571 50.0571 11.9143ZM58.7143 7.37143C59.3143 6.94286 59.5714 6.51429 59.5714 5.91429C59.5714 5.31429 59.3143 4.8 58.8 4.37143C58.5429 4.11429 58.2 3.94286 57.8571 3.85714C57.5143 3.68571 56.9143 3.68571 56.3143 3.68571C55.6286 3.68571 54.9429 3.94286 54.3429 4.37143C53.7429 4.8 53.4857 5.22857 53.4857 5.82857C53.4857 6.51429 53.7429 7.02857 54.2571 7.45714C54.7714 7.88571 55.5429 8.05714 56.4 8.05714C57.3429 7.97143 58.1143 7.71429 58.7143 7.37143ZM53.5714 24.6857H59.4V10.2857H53.5714V24.6857ZM73.8 24.6857H79.6286V14.6571C79.6286 11.5714 78 10.0286 74.8286 10.0286C72.8571 10.0286 71.1429 10.8857 69.6 12.6V10.2857H63.7714V24.6857H69.6V14.0571C70.1143 13.2857 70.7143 12.6857 71.4 12.2571C71.7429 12 72 11.9143 72.2571 11.7429C72.5143 11.6571 72.7714 11.5714 73.0286 11.5714C73.2857 11.5714 73.5429 11.6571 73.7143 11.8286V24.6857H73.8ZM84 24.6857H88.5429C90.6 24.6857 92.1429 24.6 93.2571 24.4286C95.3143 24.0857 97.0286 23.3143 98.4857 22.0286C100.629 20.2286 101.657 17.8286 101.657 14.9143C101.657 13.0286 101.229 11.4 100.371 9.94286C99.9429 9.25714 99.3429 8.48571 98.5714 7.88571C97.8 7.2 96.7714 6.68571 95.3143 6.25714C94.1143 5.91429 92.1429 5.74286 89.5714 5.74286H84V24.6857ZM90.9429 6.68571C92.1429 6.68571 93.0857 6.77143 93.9429 6.94286C96.4286 7.37143 98.3143 8.57143 99.4286 10.4571C100.2 11.8286 100.629 13.2857 100.629 15C100.629 17.6571 99.6857 19.8 97.8857 21.3429C96.1714 22.8857 94.1143 23.6571 91.6286 23.6571H91.2857C91.2 23.6571 91.0286 23.6571 90.8571 23.6571V6.68571H90.9429ZM114.257 24.6857H120V16.2857C120 14.9143 119.743 13.8 119.314 12.9429C118.2 11.0571 115.629 10.1143 111.686 10.1143C110.4 10.1143 109.029 10.3714 107.743 10.8857C107.143 11.1429 106.629 11.3143 106.371 11.5714C106.286 11.6571 106.2 11.7429 106.114 11.9143C106.029 12 106.029 12.1714 106.029 12.2571C106.029 12.3429 106.114 12.5143 106.2 12.6C106.286 12.6857 106.457 12.7714 106.714 12.7714C106.886 12.7714 107.143 12.6857 107.4 12.4286C107.829 12 108.429 11.7429 109.286 11.4857C109.714 11.4 110.057 11.3143 110.486 11.2286C110.914 11.1429 111.429 11.1429 112.029 11.1429C112.629 11.1429 113.4 11.2286 114.171 11.4857V15.1714C113.057 14.6571 111.857 14.4 110.571 14.4C108.6 14.4 107.057 14.9143 105.857 15.8571C104.657 16.8 104.143 18.0857 104.143 19.5429C104.143 21.2571 104.743 22.5429 105.857 23.5714C106.971 24.5143 108.514 24.9429 110.314 24.9429C111.686 24.9429 112.971 24.6 114.171 23.8286V24.6857H114.257ZM114.257 22.6286C113.057 23.4857 111.943 23.9143 110.657 23.9143C110.571 23.9143 110.571 23.9143 110.486 23.9143C110.4 23.9143 110.4 23.9143 110.314 23.9143V15.3429C110.486 15.3429 110.657 15.3429 110.829 15.3429C111.943 15.3429 113.057 15.6 114.171 16.2V22.6286H114.257ZM125.229 22.8857C126.686 24.2571 128.486 24.9429 130.714 24.9429C132.943 24.9429 134.829 24.1714 136.286 22.7143C137.657 21.2571 138.429 19.5429 138.429 17.4C138.429 15.2571 137.743 13.5429 136.371 12.1714C134.914 10.7143 133.114 10.0286 130.8 10.0286C128.571 10.0286 126.686 10.7143 125.229 12.1714C124.543 12.8571 124.029 13.6286 123.6 14.4857C123.171 15.3429 123 16.3714 123 17.4C123 19.6286 123.771 21.4286 125.229 22.8857ZM130.286 11.0571C130.371 11.0571 130.371 11.0571 130.457 11.0571H130.629C132.514 11.0571 134.143 11.6571 135.343 12.8571C136.543 14.0571 137.229 15.6 137.229 17.5714C137.229 19.5429 136.543 21.1714 135.257 22.3714C134.057 23.4857 132.514 24.0857 130.714 24.0857H130.543C130.457 24.0857 130.371 24.0857 130.286 24.0857V11.0571V11.0571Z" fill="#717988"/>
</g>
<defs>
<clipPath id="clip0_113_20194">
<rect width="138.343" height="30" fill="white"/>
</clipPath>
</defs>
</svg>
