<svg width="161" height="30" viewBox="0 0 161 30" fill="none" xmlns="http://www.w3.org/2000/svg">
<g clip-path="url(#clip0_113_20237)">
<path d="M38.8203 8.82L33.4803 0.42C33.3003 0.18 33.0003 0 32.7003 0H19.5003C18.9603 0 18.6003 0.42 18.6003 0.9C18.6003 1.38 18.9603 1.8 19.5003 1.8H32.2203L36.9603 9.18L27.6603 19.14L9.06029 0.3C8.88029 0.12 8.64029 0 8.40029 0H8.34028H8.28029H5.70028C5.40028 0 5.10028 0.18 4.92028 0.48L0.120285 8.88C-0.059715 9.24 0.000284999 9.66 0.240285 9.96L18.9003 29.76C19.0803 29.94 19.3203 30.06 19.5603 30.06H19.6203C19.8603 30.06 20.0403 29.94 20.2203 29.76L38.7003 9.96C39.0003 9.6 39.0003 9.18 38.8203 8.82ZM8.04028 1.8L26.4003 20.4L19.5603 27.78L2.04029 9.18L6.24028 1.8H8.04028ZM56.3403 4.5H60.7803C61.1403 4.5 61.4403 4.62 61.7403 4.86C61.9803 5.1 62.1003 5.46 62.1003 5.82C62.1003 6.24 61.9803 6.54 61.6803 6.78C61.3803 7.02 61.0803 7.14 60.7803 7.14H56.5803C56.1603 7.14 55.8003 7.32 55.5003 7.74L51.7803 12.54C51.4803 12.9 51.3003 13.44 51.3003 14.1V21.48C51.3003 21.84 51.4203 22.2 51.6603 22.44C51.9003 22.68 52.2603 22.86 52.6203 22.86H58.0203C58.3803 22.86 58.6803 22.74 58.9803 22.44C59.2203 22.2 59.4003 21.84 59.4003 21.48V18.6H56.6403C56.2803 18.6 55.9203 18.48 55.6803 18.24C55.4403 18 55.3203 17.64 55.3203 17.28C55.3203 16.92 55.4403 16.62 55.6803 16.32C55.9203 16.08 56.2203 15.96 56.6403 15.96H62.0403V21.48C62.0403 22.56 61.6203 23.52 60.8403 24.3C60.0603 25.08 59.1003 25.5 58.0203 25.5H52.6203C51.5403 25.5 50.5803 25.08 49.8003 24.3C49.0203 23.52 48.6003 22.56 48.6003 21.48V14.16C48.6003 12.84 48.9603 11.7 49.6803 10.8L53.5803 5.82C53.8803 5.46 54.2403 5.1 54.7803 4.86C55.2603 4.62 55.8003 4.5 56.3403 4.5ZM81.6003 15.24V18.48C81.6003 18.84 81.4803 19.14 81.1803 19.44C80.9403 19.68 80.5803 19.86 80.2203 19.86H70.8003V20.64C70.8003 21.12 70.9803 21.48 71.4003 21.78L72.1803 22.44C72.6003 22.74 73.0203 22.92 73.3803 22.92H80.2203C80.5803 22.92 80.8803 23.04 81.1803 23.28C81.4203 23.52 81.6003 23.88 81.6003 24.24C81.6003 24.6 81.4803 24.9 81.1803 25.2C80.8803 25.5 80.5803 25.62 80.2803 25.62H73.2603C72.7803 25.62 72.3003 25.5 71.8203 25.32C71.2803 25.14 70.9203 24.9 70.6803 24.72L69.4803 23.7C69.1203 23.4 68.8203 22.98 68.5803 22.44C68.3403 21.9 68.2203 21.42 68.2203 21V14.76C68.2203 14.4 68.3403 13.92 68.6403 13.38C68.9403 12.84 69.2403 12.36 69.6603 12L70.7403 11.1C71.4603 10.5 72.3003 10.2 73.1403 10.2H76.8603C77.8203 10.2 78.6603 10.62 79.5003 11.4L80.5203 12.36C81.2403 13.02 81.6003 13.98 81.6003 15.24ZM70.9203 15.06V17.1H78.9603V15.24C78.9603 14.76 78.7803 14.34 78.4803 14.1L77.7003 13.44C77.2803 13.14 76.9203 12.96 76.6203 12.96H73.2603C72.8403 12.96 72.4803 13.08 72.1203 13.38L71.3403 14.04C71.1003 14.28 70.9203 14.64 70.9203 15.06ZM87.4803 24.18V11.58C87.4803 11.22 87.6003 10.92 87.8403 10.62C88.0803 10.38 88.4403 10.26 88.8003 10.26C89.4603 10.26 89.9403 10.62 90.1203 11.28C90.8403 10.56 91.6803 10.26 92.5803 10.26C93.6603 10.26 94.5003 10.74 95.2203 11.64C96.0603 10.74 96.9603 10.26 97.9803 10.26C98.8203 10.26 99.5403 10.56 100.14 11.16C100.74 11.76 101.04 12.48 101.1 13.38L101.46 24.24C101.46 24.6 101.34 24.9 101.04 25.2C100.8 25.44 100.44 25.62 100.08 25.62C99.7203 25.62 99.4203 25.5 99.1203 25.2C98.8803 24.96 98.7003 24.6 98.7003 24.24L98.4003 13.8C98.4003 13.26 98.2203 12.96 97.8603 12.96C97.6803 12.96 97.5003 13.02 97.3203 13.2L95.7603 14.52V24.24C95.7603 24.6 95.6403 24.9 95.4003 25.14C95.1603 25.38 94.8003 25.5 94.4403 25.5C94.0803 25.5 93.7803 25.38 93.4803 25.14C93.2403 24.9 93.0603 24.54 93.0603 24.18V13.56C93.0603 13.08 92.8803 12.9 92.4603 12.9C92.2803 12.9 92.1003 12.96 91.9203 13.08L90.0003 14.7V24.18C90.0003 24.54 89.8803 24.84 89.6403 25.14C89.4003 25.44 89.1003 25.56 88.7403 25.56C88.3803 25.56 88.0803 25.44 87.7803 25.14C87.4803 24.84 87.4803 24.54 87.4803 24.18ZM120.78 19.02V20.22C120.78 21.66 120.24 22.92 119.22 24C118.2 25.08 116.94 25.56 115.44 25.56H107.28V4.56H115.44C116.88 4.56 118.14 5.1 119.22 6.12C120.24 7.14 120.78 8.4 120.78 9.9V11.04C120.78 12.6 120.18 13.98 118.98 15.06C120.12 16.08 120.78 17.46 120.78 19.02ZM118.02 10.92V9.84C118.02 9.12 117.78 8.46 117.24 7.92C116.7 7.38 116.1 7.14 115.38 7.14H109.98V13.56H115.38C116.1 13.56 116.7 13.32 117.24 12.78C117.78 12.3 118.02 11.64 118.02 10.92ZM118.02 20.16V19.08C118.02 18.36 117.78 17.7 117.24 17.16C116.7 16.62 116.1 16.38 115.38 16.38H109.98V22.8H115.38C116.1 22.8 116.7 22.56 117.24 22.02C117.78 21.54 118.02 20.88 118.02 20.16ZM140.34 15.06V20.7C140.34 21.9 139.8 22.98 138.66 24C137.52 25.02 136.38 25.5 135.18 25.5H132.06C130.86 25.5 129.66 24.96 128.58 23.94C127.5 22.92 126.9 21.84 126.9 20.64V15C126.9 13.86 127.44 12.72 128.52 11.7C129.6 10.68 130.8 10.14 132.06 10.14H135.18C136.38 10.14 137.52 10.62 138.66 11.64C139.8 12.66 140.34 13.8 140.34 15.06ZM129.6 15.18V20.58C129.6 21.06 129.78 21.48 130.14 21.72L131.16 22.56C131.4 22.74 131.7 22.86 132.12 22.86H135.18C135.66 22.86 136.02 22.68 136.44 22.38L137.22 21.66C137.52 21.42 137.7 21.06 137.7 20.58V15.18C137.7 14.64 137.52 14.28 137.22 13.98L136.26 13.26C135.96 13.02 135.6 12.84 135.18 12.84H132.42C131.82 12.84 131.34 12.96 131.04 13.26L130.14 14.04C129.78 14.34 129.6 14.7 129.6 15.18ZM153.42 19.8L149.04 24.96C148.74 25.32 148.38 25.5 147.96 25.5C147.6 25.5 147.24 25.38 147 25.08C146.76 24.78 146.64 24.48 146.64 24.12C146.64 23.76 146.7 23.52 146.88 23.34L151.68 17.64L147.24 12.42C147.06 12.18 146.94 11.94 146.94 11.64C146.94 11.28 147.06 10.98 147.3 10.68C147.54 10.38 147.84 10.26 148.26 10.26C148.68 10.26 149.04 10.44 149.34 10.74L153.36 15.6L157.5 10.74C157.74 10.44 158.04 10.26 158.46 10.26C158.82 10.26 159.12 10.38 159.36 10.62C159.66 10.86 159.78 11.16 159.78 11.52C159.78 11.88 159.72 12.12 159.6 12.24L155.1 17.64L159.84 23.34C160.02 23.52 160.08 23.76 160.08 24.06C160.08 24.48 159.96 24.78 159.66 25.08C159.42 25.38 159.06 25.5 158.76 25.5C158.34 25.5 157.98 25.32 157.68 24.96L153.42 19.8Z" fill="#717988"/>
</g>
<defs>
<clipPath id="clip0_113_20237">
<rect width="160.14" height="30" fill="white"/>
</clipPath>
</defs>
</svg>
