<svg width="159" height="32" viewBox="0 0 159 32" fill="none" xmlns="http://www.w3.org/2000/svg">
<g clip-path="url(#clip0_113_20165)">
<path d="M3.71 13.632C5.566 14.912 8.126 15.232 10.302 15.232C13.31 15.232 15.614 14.592 17.214 13.312C18.814 12.032 19.582 10.368 19.582 8.32C19.582 5.952 18.302 3.712 16.126 2.624C15.422 2.304 14.718 1.984 13.95 1.792C12.862 1.536 11.646 1.408 10.302 1.408C7.294 1.408 4.99 2.048 3.39 3.328C1.79 4.608 1.022 6.272 1.022 8.32C1.022 9.536 1.278 10.624 1.726 11.52C2.238 12.352 2.878 13.056 3.71 13.632ZM8.126 3.52C8.638 2.624 9.342 2.176 10.302 2.176C11.198 2.176 11.966 2.624 12.478 3.52C12.99 4.416 13.246 6.016 13.246 8.256C13.246 10.496 12.99 12.096 12.478 12.992C11.966 13.888 11.262 14.336 10.302 14.336C9.406 14.336 8.638 13.888 8.126 12.992C7.614 12.096 7.358 10.496 7.358 8.256C7.358 6.016 7.614 4.416 8.126 3.52ZM21.182 24.064C21.182 25.6 20.798 27.328 19.838 28.544C18.558 30.144 16.638 31.04 14.654 31.488C12.286 32 9.918 32.192 7.486 31.936C5.374 31.68 2.686 31.296 1.022 29.76C0.446003 29.248 -0.00199697 28.544 -0.065997 27.776C-0.129997 27.136 0.062003 26.432 0.446003 25.856C0.830003 25.28 1.342 24.768 1.982 24.512C2.942 24.128 4.094 24.192 4.926 24.768C5.758 25.344 6.334 26.368 6.334 27.392C6.334 28.416 5.822 29.44 4.99 30.016C7.038 30.784 9.022 31.168 11.262 31.04C13.31 30.912 15.358 30.4 17.15 29.376C18.75 28.416 19.518 27.2 19.518 25.792C19.518 24 17.854 23.04 14.462 23.04H6.526C4.414 23.04 2.814 22.592 1.726 21.76C0.254003 20.608 -0.257997 18.624 0.318003 16.832C0.766003 15.552 2.238 14.784 3.582 14.848C3.39 15.104 3.198 15.424 3.198 15.744C3.198 16.192 3.518 16.512 3.902 16.704C4.414 16.96 5.246 17.088 6.526 17.088H14.526C16.638 17.088 18.302 17.728 19.454 18.944C20.606 20.16 21.182 21.888 21.182 24.064ZM26.11 3.2C26.11 4.992 24.702 6.4 22.91 6.4C21.118 6.4 19.71 4.992 19.71 3.2C19.71 1.408 21.118 0 22.91 0C24.702 0 26.11 1.408 26.11 3.2ZM41.534 13.504V12.736L38.462 8.384V26.112C38.462 26.496 38.334 26.88 38.014 27.136C37.758 27.392 37.374 27.584 36.99 27.584C36.606 27.584 36.222 27.456 35.966 27.136C35.71 26.816 35.518 26.496 35.518 26.112V4.352H39.294L42.878 9.6L46.59 4.352H50.302V26.112C50.302 26.496 50.174 26.88 49.854 27.136C49.534 27.392 49.214 27.584 48.766 27.584C48.382 27.584 47.998 27.456 47.742 27.136C47.422 26.816 47.294 26.496 47.294 26.112V8.512L44.35 12.736V13.568C44.35 13.952 44.222 14.336 43.902 14.592C43.582 14.912 43.262 15.04 42.878 15.04C42.494 15.04 42.11 14.912 41.854 14.592C41.662 14.272 41.534 13.888 41.534 13.504ZM68.478 16.256V19.84C68.478 20.224 68.35 20.608 68.03 20.864C67.71 21.184 67.39 21.312 67.006 21.312H56.574V22.144C56.574 22.656 56.766 23.04 57.214 23.424L58.046 24.128C58.494 24.512 58.942 24.64 59.39 24.64H66.942C67.326 24.64 67.71 24.768 67.966 25.088C68.286 25.344 68.414 25.728 68.414 26.112C68.414 26.496 68.286 26.88 67.966 27.136C67.646 27.456 67.326 27.584 66.942 27.584H59.262C58.75 27.584 58.238 27.456 57.662 27.264C57.086 27.072 56.702 26.816 56.382 26.56L55.038 25.472C54.654 25.152 54.27 24.704 54.014 24.128C53.758 23.552 53.63 22.976 53.63 22.528V15.744C53.63 15.36 53.758 14.848 54.078 14.208C54.398 13.568 54.782 13.056 55.23 12.672L56.446 11.712C57.278 11.072 58.174 10.752 59.134 10.752H63.294C64.318 10.752 65.342 11.2 66.238 12.032L67.326 13.056C68.094 13.824 68.478 14.848 68.478 16.256ZM56.638 16.064V18.368H65.534V16.32C65.534 15.744 65.342 15.36 65.022 15.04L64.19 14.272C63.742 13.888 63.358 13.76 62.974 13.76H59.262C58.814 13.76 58.366 13.888 58.046 14.208L57.214 14.912C56.83 15.168 56.638 15.552 56.638 16.064ZM82.046 27.648H79.102C77.886 27.648 76.862 27.2 75.966 26.368C75.07 25.536 74.622 24.448 74.622 23.232V13.696H73.086C72.702 13.696 72.318 13.568 72.062 13.248C71.806 12.992 71.614 12.608 71.614 12.224C71.614 11.84 71.742 11.456 72.062 11.2C72.318 10.944 72.702 10.752 73.086 10.752H74.622V7.168C74.622 6.784 74.75 6.4 75.07 6.144C75.326 5.888 75.71 5.696 76.094 5.696C76.478 5.696 76.798 5.824 77.118 6.144C77.438 6.464 77.566 6.784 77.566 7.168V10.752H83.454C83.838 10.752 84.222 10.88 84.478 11.2C84.798 11.52 84.926 11.84 84.926 12.224C84.926 12.608 84.798 12.992 84.478 13.248C84.158 13.504 83.838 13.696 83.454 13.696H77.502V23.232C77.502 23.616 77.63 24 77.95 24.256C78.27 24.576 78.59 24.704 79.038 24.704H81.918C82.686 24.704 83.198 24.256 83.454 23.424C83.71 22.592 84.222 22.144 84.926 22.144C85.374 22.144 85.694 22.272 86.014 22.592C86.27 22.848 86.398 23.232 86.398 23.68C86.398 24.576 85.95 25.472 85.118 26.304C84.414 27.2 83.326 27.648 82.046 27.648ZM94.142 17.024H99.902C100.222 17.024 100.67 17.088 101.246 17.216L101.182 15.104C101.182 14.72 101.054 14.336 100.734 14.08C100.478 13.824 100.094 13.632 99.71 13.632H94.142C93.758 13.632 93.374 13.504 93.118 13.184C92.798 12.864 92.67 12.544 92.67 12.16C92.67 11.776 92.798 11.392 93.118 11.136C93.374 10.88 93.758 10.688 94.142 10.688H99.71C100.926 10.688 101.95 11.136 102.846 11.968C103.678 12.8 104.126 13.888 104.19 15.104L104.574 26.112C104.574 26.496 104.446 26.88 104.126 27.136C103.806 27.392 103.486 27.584 103.102 27.584C102.654 27.584 102.334 27.456 102.014 27.136C101.694 26.88 101.566 26.496 101.566 26.112L99.07 27.584H94.078C92.862 27.584 91.774 27.136 90.942 26.304C90.046 25.472 89.662 24.384 89.662 23.168V21.44C89.662 20.224 90.11 19.2 90.942 18.304C91.902 17.472 92.926 17.024 94.142 17.024ZM101.502 22.72L101.438 21.504C101.438 21.056 101.31 20.736 100.99 20.48C100.67 20.224 100.35 20.032 99.966 20.032H94.142C93.758 20.032 93.374 20.16 93.118 20.48C92.862 20.736 92.67 21.12 92.67 21.504V23.168C92.67 23.552 92.798 23.936 93.118 24.192C93.438 24.512 93.758 24.64 94.142 24.64H98.302L101.502 22.72ZM113.79 13.504V12.736L110.718 8.384V26.112C110.718 26.496 110.59 26.88 110.27 27.136C110.014 27.392 109.63 27.584 109.246 27.584C108.862 27.584 108.478 27.456 108.222 27.136C107.966 26.816 107.774 26.496 107.774 26.112V4.352H111.55L115.134 9.6L118.846 4.352H122.558V26.112C122.558 26.496 122.43 26.88 122.11 27.136C121.79 27.392 121.47 27.584 121.022 27.584C120.638 27.584 120.254 27.456 119.998 27.136C119.678 26.816 119.55 26.496 119.55 26.112V8.512L116.606 12.736V13.568C116.606 13.952 116.478 14.336 116.158 14.592C115.838 14.912 115.518 15.04 115.134 15.04C114.75 15.04 114.366 14.912 114.11 14.592C113.918 14.272 113.79 13.888 113.79 13.504ZM130.302 17.024H136.062C136.382 17.024 136.83 17.088 137.406 17.216L137.342 15.104C137.342 14.72 137.214 14.336 136.894 14.08C136.638 13.824 136.254 13.632 135.87 13.632H130.302C129.918 13.632 129.534 13.504 129.278 13.184C128.958 12.864 128.83 12.544 128.83 12.16C128.83 11.776 128.958 11.392 129.278 11.136C129.534 10.88 129.918 10.688 130.302 10.688H135.87C137.086 10.688 138.11 11.136 139.006 11.968C139.838 12.8 140.286 13.888 140.35 15.104L140.734 26.112C140.734 26.496 140.606 26.88 140.286 27.136C139.966 27.392 139.646 27.584 139.262 27.584C138.814 27.584 138.494 27.456 138.174 27.136C137.854 26.88 137.726 26.496 137.726 26.112L135.23 27.584H130.238C129.022 27.584 127.934 27.136 127.102 26.304C126.206 25.472 125.822 24.384 125.822 23.168V21.44C125.822 20.224 126.27 19.2 127.102 18.304C127.998 17.472 129.086 17.024 130.302 17.024ZM137.662 22.72L137.598 21.504C137.598 21.056 137.47 20.736 137.15 20.48C136.83 20.224 136.51 20.032 136.126 20.032H130.302C129.918 20.032 129.534 20.16 129.278 20.48C129.022 20.736 128.83 21.12 128.83 21.504V23.168C128.83 23.552 128.958 23.936 129.278 24.192C129.598 24.512 129.918 24.64 130.302 24.64H134.462L137.662 22.72ZM148.094 10.752H154.814C155.838 10.752 156.798 11.072 157.566 11.712C158.398 12.352 158.782 12.928 158.782 13.568C158.782 14.016 158.654 14.336 158.334 14.592C158.014 14.848 157.694 14.976 157.374 14.976C156.926 14.976 156.478 14.784 156.094 14.336C155.71 13.888 155.326 13.696 154.878 13.696H148.222C147.582 13.696 147.262 13.952 147.262 14.528C147.262 14.912 147.454 15.168 147.902 15.424L155.71 18.88C156.478 19.2 157.182 19.776 157.63 20.544C158.142 21.312 158.398 22.208 158.398 23.104C158.398 24.384 157.95 25.408 157.054 26.304C156.158 27.2 155.134 27.648 154.046 27.648H148.094C147.07 27.648 146.11 27.328 145.214 26.752C144.318 26.112 143.87 25.536 143.87 24.96C143.87 24.576 143.998 24.256 144.318 23.936C144.574 23.616 144.958 23.488 145.406 23.488C145.79 23.488 146.174 23.68 146.622 24.128C147.07 24.576 147.646 24.768 148.478 24.768H153.982C154.43 24.768 154.75 24.576 155.07 24.256C155.39 23.936 155.518 23.552 155.518 23.104C155.518 22.464 155.198 21.952 154.558 21.696L146.686 18.112C145.918 17.792 145.342 17.28 144.958 16.64C144.574 16 144.318 15.36 144.318 14.656C144.318 13.632 144.702 12.672 145.406 11.904C146.11 11.136 147.006 10.752 148.094 10.752Z" fill="#717988"/>
</g>
<defs>
<clipPath id="clip0_113_20165">
<rect width="158.784" height="32" fill="white"/>
</clipPath>
</defs>
</svg>
