<svg width="154" height="30" viewBox="0 0 154 30" fill="none" xmlns="http://www.w3.org/2000/svg">
<g clip-path="url(#clip0_113_20173)">
<path d="M7.679 28.1363C6.9591 29.2162 5.63927 29.9961 4.19945 29.9961C1.85976 29.9961 0 28.1363 0 25.7966C0 24.6568 0.479938 23.5769 1.19984 22.857C1.37982 22.6171 17.9977 2.09973 18.2376 1.85976C18.9575 0.779899 20.2774 0 21.7172 0C24.0569 0 25.9166 1.85976 25.9166 4.19945C25.9166 5.33931 25.4367 6.41917 24.7168 7.13907C24.5368 7.37904 7.85898 27.8964 7.679 28.1363ZM34.3155 16.8578C35.0954 16.0779 35.5154 15.058 35.5154 13.9182C35.5154 11.5785 33.6556 9.71874 31.3159 9.71874C29.8761 9.71874 28.5563 10.4986 27.8364 11.5785C27.6564 11.7585 18.8975 22.5571 18.7176 22.797C17.9377 23.5769 17.5177 24.5968 17.5177 25.7367C17.5177 28.0764 19.3775 29.9361 21.7172 29.9361C23.157 29.9361 24.4768 29.1562 25.1967 28.0764C25.4367 27.8964 34.1956 17.0978 34.3155 16.8578ZM39.2949 0C36.9552 0 35.0954 1.85976 35.0954 4.19945C35.0954 6.53915 36.9552 8.39891 39.2949 8.39891C41.6346 8.39891 43.4943 6.53915 43.4943 4.19945C43.4943 1.85976 41.5746 0 39.2949 0ZM4.19945 0C1.85976 0 0 1.85976 0 4.19945C0 6.53915 1.85976 8.39891 4.19945 8.39891C6.53915 8.39891 8.39891 6.53915 8.39891 4.19945C8.39891 1.85976 6.47916 0 4.19945 0ZM56.3327 26.8165H59.2123V7.37904H65.8714V4.97935H49.6735V7.37904H56.3327V26.8165V26.8165ZM66.7113 26.8165H69.531V18.4776C69.531 17.9977 69.591 17.5177 69.651 17.1578C70.0109 14.9981 71.4507 13.4982 73.4905 13.4982C73.8504 13.4982 74.1504 13.5582 74.4503 13.6182V10.9186C74.2104 10.8586 73.9704 10.7986 73.6104 10.7986C71.6907 10.7986 70.0109 12.1184 69.291 14.2182H69.171L69.051 11.1586H66.5913C66.7113 12.5984 66.7113 14.2182 66.7113 16.0779V26.8165ZM90.4682 11.1586H87.5886V20.7573C87.5886 21.2972 87.4686 21.7772 87.3487 22.1971C86.8087 23.457 85.4889 24.7768 83.5691 24.7768C80.9895 24.7768 80.0896 22.797 80.0896 19.7974V11.1586H77.21V20.3374C77.21 25.8566 80.1496 27.1765 82.6093 27.1765C85.3689 27.1765 87.0487 25.4967 87.7686 24.2369H87.8286L88.0086 26.8165H90.5282C90.4083 25.5567 90.4083 24.1769 90.4083 22.5571V11.1586H90.4682ZM94.0678 26.0966C95.1476 26.7565 96.7674 27.1765 98.4472 27.1765C102.167 27.1765 104.326 25.2567 104.326 22.4971C104.326 20.1574 102.947 18.7776 100.187 17.7577C98.1472 16.9778 97.1874 16.3779 97.1874 15.118C97.1874 13.9782 98.1472 12.9583 99.827 12.9583C101.267 12.9583 102.407 13.4982 103.007 13.8582L103.727 11.7585C102.827 11.2185 101.447 10.7986 99.887 10.7986C96.5275 10.7986 94.4877 12.8983 94.4877 15.418C94.4877 17.2778 95.8075 18.8376 98.6272 19.8574C100.727 20.6373 101.567 21.3572 101.567 22.737C101.567 24.0569 100.607 25.0767 98.5072 25.0767C97.0674 25.0767 95.5676 24.4768 94.7277 23.9369L94.0678 26.0966ZM108.646 7.37904V11.1586H106.246V13.3183H108.646V21.8972C108.646 23.7569 108.946 25.1367 109.726 25.9766C110.386 26.7565 111.466 27.1765 112.785 27.1765C113.865 27.1765 114.765 26.9965 115.305 26.8165L115.185 24.6568C114.825 24.7768 114.285 24.8368 113.505 24.8368C111.945 24.8368 111.346 23.7569 111.346 21.7772V13.3183H115.425V11.1586H111.346V6.65914L108.646 7.37904ZM135.462 15.358H128.263V17.6377H132.703V24.1769C132.043 24.4768 130.783 24.7768 128.923 24.7768C123.824 24.7768 120.524 21.4772 120.524 15.9579C120.524 10.4986 124.004 7.19906 129.283 7.19906C131.503 7.19906 132.943 7.61901 134.083 8.15894L134.742 5.87924C133.783 5.3993 131.803 4.85937 129.283 4.85937C121.964 4.85937 117.465 9.59875 117.465 16.1379C117.465 19.5575 118.605 22.4371 120.524 24.2968C122.684 26.3366 125.384 27.1765 128.683 27.1765C131.623 27.1765 134.143 26.4566 135.402 25.9766V15.358H135.462ZM146.441 10.7986C142.122 10.7986 138.642 13.8582 138.642 19.1375C138.642 24.1169 141.942 27.1765 146.141 27.1765C149.921 27.1765 153.94 24.6568 153.94 18.8376C154 14.0382 150.94 10.7986 146.441 10.7986ZM146.381 12.8983C149.741 12.8983 151.06 16.2579 151.06 18.8975C151.06 22.4371 149.021 25.0168 146.321 25.0168C143.561 25.0168 141.582 22.4371 141.582 19.0175C141.582 16.0179 143.021 12.8983 146.381 12.8983Z" fill="#717988"/>
</g>
<defs>
<clipPath id="clip0_113_20173">
<rect width="154" height="29.9961" fill="white"/>
</clipPath>
</defs>
</svg>
