<svg width="137" height="30" viewBox="0 0 137 30" fill="none" xmlns="http://www.w3.org/2000/svg">
<g clip-path="url(#clip0_113_20198)">
<path d="M22.02 20.04C24.12 18 25.14 15.18 25.14 11.58C25.14 8.04 24.06 5.16 22.02 3.18C19.92 1.2 16.92 0.18 13.08 0.18H3.06V9.6H1.68V0H0V30H4.8V14.46C9.6 14.76 13.8 17.34 16.26 21.12C15.3 21.3 14.22 21.42 13.08 21.42H8.7V23.1H13.08C14.58 23.1 15.96 22.92 17.16 22.62C18.12 24.6 18.66 26.82 18.66 29.1V30H23.46V29.16C23.46 26.1 22.74 23.16 21.48 20.58C21.66 20.4 21.84 20.22 22.02 20.04ZM13.02 1.86C16.44 1.86 19.08 2.7 20.82 4.38C22.56 6.06 23.46 8.46 23.46 11.58C23.46 14.7 22.56 17.1 20.82 18.78C20.76 18.84 20.7 18.9 20.58 18.96C17.28 13.56 11.46 9.84 4.74 9.6V1.86H13.02ZM1.68 28.32V11.34H3.06V28.32H1.68ZM4.8 12.72V11.34C10.92 11.64 16.26 15.06 19.26 20.04C18.84 20.28 18.42 20.46 18 20.64C15.18 16.08 10.38 13.02 4.8 12.72ZM21.72 28.32H20.34C20.22 26.1 19.68 24.06 18.78 22.14C19.2 21.96 19.62 21.78 20.04 21.54C21 23.58 21.6 25.86 21.72 28.32Z" fill="#717988"/>
<path d="M39.905 3.24023V25.5002H36.125V3.24023H39.905ZM38.345 3.24023H42.965C44.585 3.24023 46.025 3.54023 47.165 4.08023C48.365 4.68023 49.265 5.46023 49.925 6.48023C50.585 7.50023 50.945 8.70023 50.945 10.1402C50.945 11.5802 50.585 12.7802 49.925 13.8002C49.265 14.8202 48.305 15.6602 47.165 16.2002C45.965 16.8002 44.585 17.0402 42.965 17.0402H38.345V13.9202H42.845C43.685 13.9202 44.465 13.8002 45.125 13.5002C45.785 13.2002 46.265 12.7802 46.625 12.2402C46.985 11.7002 47.165 10.9802 47.165 10.2002C47.165 9.42023 46.985 8.70023 46.625 8.16023C46.265 7.62023 45.785 7.20023 45.125 6.90023C44.465 6.60023 43.745 6.48023 42.845 6.48023H38.345V3.24023V3.24023ZM44.765 14.8802L52.325 25.5002H47.765L40.745 14.8802H44.765Z" fill="#717988"/>
<path d="M57.3087 22.2C57.5487 22.56 57.8487 22.8 58.2687 22.98C58.6887 23.16 59.1687 23.22 59.7087 23.22C60.4287 23.22 61.0287 23.1 61.6287 22.8C62.1687 22.5 62.6487 22.08 63.0087 21.6C63.3687 21.06 63.4887 20.46 63.4887 19.68L63.9687 21.6C63.9687 22.56 63.6687 23.34 63.1287 23.94C62.5887 24.6 61.9287 25.02 61.0887 25.38C60.2487 25.68 59.4687 25.86 58.5687 25.86C57.6687 25.86 56.8287 25.68 56.0488 25.32C55.2688 24.96 54.6088 24.42 54.1888 23.76C53.7088 23.04 53.4688 22.2 53.4688 21.24C53.4688 19.8 53.9487 18.72 54.9687 17.88C55.9887 17.04 57.3687 16.62 59.1687 16.62C60.1287 16.62 60.9687 16.74 61.6887 16.92C62.4087 17.16 63.0087 17.4 63.4287 17.64C63.9087 17.94 64.2087 18.18 64.3887 18.42V20.16C63.7287 19.68 63.0087 19.38 62.2887 19.14C61.5687 18.9 60.7887 18.84 59.9487 18.84C59.2287 18.84 58.6287 18.96 58.2087 19.14C57.7887 19.32 57.4288 19.56 57.1888 19.86C56.9488 20.16 56.8287 20.58 56.8287 21.06C56.9487 21.48 57.0687 21.84 57.3087 22.2ZM54.4888 12.3C55.1488 11.88 56.0487 11.52 57.0687 11.1C58.0887 10.74 59.2887 10.5 60.6687 10.5C61.8687 10.5 62.8887 10.68 63.8487 11.04C64.8087 11.4 65.5287 11.88 66.0087 12.6C66.5487 13.26 66.7887 14.1 66.7887 15.06V25.5H63.4287V15.72C63.4287 15.24 63.3687 14.88 63.1887 14.58C63.0687 14.28 62.8287 14.04 62.5287 13.86C62.2287 13.68 61.9287 13.56 61.5087 13.44C61.1487 13.38 60.7287 13.32 60.2487 13.32C59.5887 13.32 58.9287 13.38 58.3287 13.56C57.7287 13.74 57.1887 13.92 56.7687 14.16C56.3487 14.4 55.9887 14.58 55.8087 14.7L54.4888 12.3Z" fill="#717988"/>
<path d="M70.6852 14.1007C71.3452 12.9607 72.2452 12.1207 73.3252 11.5207C74.4052 10.9207 75.6052 10.6207 76.8652 10.6207C78.0652 10.6207 79.1452 10.9207 80.1052 11.5207C81.0052 12.1207 81.7852 13.0207 82.3252 14.1607C82.8652 15.3007 83.1652 16.6807 83.1652 18.2407C83.1652 19.8007 82.8652 21.1807 82.3252 22.3207C81.7852 23.4607 81.0652 24.3607 80.1052 24.9607C79.2052 25.5607 78.1252 25.8607 76.8652 25.8607C75.6052 25.8607 74.4652 25.5607 73.3252 24.9607C72.2452 24.3607 71.3452 23.4607 70.6852 22.3207C70.0252 21.1807 69.7252 19.8007 69.7252 18.2407C69.6652 16.5607 70.0252 15.2407 70.6852 14.1007ZM73.8652 20.7007C74.2852 21.4207 74.8252 21.9007 75.4852 22.2607C76.1452 22.6207 76.8652 22.8007 77.6452 22.8007C78.3052 22.8007 78.9652 22.6207 79.6252 22.2607C80.2852 21.9007 80.7652 21.3607 81.1852 20.7007C81.6052 20.0407 81.7852 19.1407 81.7852 18.1807C81.7852 17.1607 81.6052 16.3207 81.1852 15.6607C80.7652 15.0007 80.2252 14.4607 79.6252 14.1007C78.9652 13.7407 78.3052 13.5607 77.6452 13.5607C76.8652 13.5607 76.1452 13.7407 75.4852 14.1007C74.8252 14.4607 74.2852 15.0007 73.8652 15.6607C73.4452 16.3807 73.2652 17.2207 73.2652 18.1807C73.2652 19.2007 73.4452 19.9807 73.8652 20.7007ZM85.2652 0.720703V25.5007H81.7852V0.720703H85.2652Z" fill="#717988"/>
<path d="M90.0663 3.54141C90.4863 3.12141 91.0263 2.94141 91.5663 2.94141C92.1663 2.94141 92.7062 3.12141 93.1262 3.54141C93.5462 3.96141 93.7862 4.44141 93.7862 5.04141C93.7862 5.64141 93.5462 6.12141 93.1262 6.54141C92.7062 6.96141 92.1663 7.14141 91.5663 7.14141C90.9663 7.14141 90.4863 6.96141 90.0663 6.54141C89.6463 6.12141 89.4062 5.64141 89.4062 5.04141C89.4062 4.44141 89.6463 3.96141 90.0663 3.54141ZM93.3062 10.8614V25.5014H89.8863V10.8614H93.3062Z" fill="#717988"/>
<path d="M102.244 22.2013C102.664 22.8013 103.384 23.0413 104.284 23.0413C104.944 23.0413 105.484 22.9213 105.964 22.6213C106.444 22.3213 106.804 21.9613 107.104 21.4813C107.404 21.0013 107.524 20.4013 107.524 19.7413V10.8613H110.944V25.5013H107.524V23.2213C107.044 24.0613 106.444 24.7213 105.724 25.1413C105.004 25.5613 104.104 25.8013 103.084 25.8013C101.464 25.8013 100.204 25.3213 99.3044 24.3013C98.4044 23.2813 97.9844 21.9013 97.9844 20.1613V10.8613H101.524V19.8013C101.524 20.8213 101.764 21.6613 102.244 22.2013Z" fill="#717988"/>
<path d="M136.331 25.5005H132.851V16.6205C132.851 15.5405 132.671 14.7005 132.251 14.1605C131.831 13.6205 131.231 13.3205 130.451 13.3205C129.851 13.3205 129.371 13.4405 128.891 13.6805C128.471 13.9205 128.111 14.2805 127.871 14.8205C127.631 15.3005 127.511 15.9005 127.511 16.6205V25.5005H124.091V16.6205C124.091 15.5405 123.911 14.7005 123.491 14.1605C123.071 13.6205 122.471 13.3205 121.631 13.3205C121.031 13.3205 120.551 13.4405 120.131 13.6805C119.711 13.9205 119.351 14.2805 119.111 14.8205C118.871 15.3005 118.751 15.9005 118.751 16.6205V25.5005H115.391V10.8605H118.751V13.0205C119.171 12.2405 119.771 11.5805 120.431 11.2205C121.091 10.8005 121.931 10.6205 122.891 10.6205C123.971 10.6205 124.811 10.8605 125.531 11.2805C126.251 11.7005 126.731 12.3605 127.091 13.2005C127.631 12.3605 128.291 11.7005 129.071 11.2205C129.851 10.8005 130.691 10.5605 131.711 10.5605C132.791 10.5605 133.631 10.8005 134.291 11.2205C134.951 11.6405 135.491 12.3005 135.851 13.1405C136.211 13.9805 136.391 15.0005 136.391 16.2005V25.5005H136.331Z" fill="#717988"/>
</g>
<defs>
<clipPath id="clip0_113_20198">
<rect width="136.32" height="30" fill="white"/>
</clipPath>
</defs>
</svg>
