<svg width="154" height="30" viewBox="0 0 154 30" fill="none" xmlns="http://www.w3.org/2000/svg">
<g clip-path="url(#clip0_113_20186)">
<path d="M30.8647 11.76C30.3035 14.58 28.3953 16.86 26.88 19.08C24.9719 21.9 21.2117 25.92 18.5178 28.68C16.778 30.48 14.1402 30.48 12.4004 28.68C9.70657 25.92 6.00249 21.9 4.0382 19.08C2.5229 16.86 0.614733 14.58 0.0535086 11.76C-0.956696 6.06 2.85963 0.06 7.96677 0C9.0331 0 10.1555 0.24 11.1096 0.72C11.9515 1.2 12.5127 2.04 13.13 2.76C13.9719 3.78 14.8137 4.8 15.5994 5.88C17.1147 7.74 18.63 9.66 20.1453 11.52C20.3698 11.82 20.7066 11.94 20.9872 11.94C21.2678 11.94 21.4923 11.82 21.7168 11.64C22.1658 11.22 22.2219 10.44 21.829 9.96L16.778 3.66C18.2372 1.44 20.5382 0 23.1198 0C28.227 0.06 32.0433 6.06 30.8647 11.76ZM43.0433 15.42C43.0433 13.8 43.38 12.42 44.0535 11.28C44.727 10.08 45.5688 9.18 46.6351 8.52C47.7015 7.86 48.88 7.56 50.1709 7.56C51.1811 7.56 52.079 7.68 52.8647 7.98C53.6504 8.28 54.38 8.64 54.9974 9.12C55.6147 9.6 56.176 10.14 56.6811 10.74V6.3C55.8392 5.52 54.8851 4.92 53.8749 4.5C52.8647 4.08 51.5739 3.9 50.0586 3.9C48.5433 3.9 47.0841 4.2 45.7933 4.74C44.4464 5.28 43.3239 6.12 42.3698 7.14C41.4158 8.16 40.63 9.36 40.0688 10.8C39.5076 12.24 39.227 13.74 39.227 15.48C39.227 17.16 39.5076 18.72 40.0688 20.1C40.63 21.54 41.3596 22.74 42.3698 23.76C43.3239 24.78 44.5025 25.62 45.7933 26.16C47.0841 26.7 48.5433 27 50.0586 27C51.5739 27 52.8647 26.82 53.8749 26.4C54.8851 25.98 55.8392 25.44 56.6811 24.66V20.16C56.2321 20.76 55.6709 21.3 54.9974 21.78C54.38 22.26 53.6504 22.62 52.8647 22.92C52.079 23.22 51.1811 23.34 50.1709 23.34C48.88 23.34 47.7576 23.04 46.6351 22.38C45.5688 21.72 44.6709 20.82 44.0535 19.62C43.38 18.36 43.0433 16.98 43.0433 15.42ZM61.0025 4.32V26.58H64.5382V4.32H61.0025ZM63.079 7.56H67.2882C68.0739 7.56 68.8035 7.68 69.4209 7.98C70.0382 8.28 70.4872 8.7 70.8239 9.24C71.1607 9.78 71.329 10.44 71.329 11.28C71.329 12.06 71.1607 12.72 70.8239 13.32C70.4872 13.86 70.0382 14.28 69.4209 14.58C68.8035 14.88 68.13 15 67.2882 15H63.079V18.12H67.4005C68.9158 18.12 70.2627 17.82 71.329 17.28C72.4515 16.68 73.2933 15.9 73.9107 14.88C74.528 13.86 74.8647 12.6 74.8647 11.22C74.8647 9.84 74.528 8.58 73.9107 7.56C73.2933 6.54 72.3953 5.76 71.329 5.16C70.2066 4.56 68.9158 4.32 67.4005 4.32H63.079V7.56V7.56ZM65.2678 15.96L71.8903 26.58H76.1556L69.0841 15.96H65.2678V15.96ZM90.13 4.32L85.3035 13.8L80.477 4.32H76.4362L83.5076 17.22V26.58H87.0994V17.16L94.1709 4.26H90.13V4.32ZM96.528 4.32V26.58H100.064V4.32H96.528ZM98.6607 7.62H102.87C104.105 7.62 105.059 7.92 105.788 8.52C106.518 9.12 106.911 10.02 106.911 11.22C106.911 12.42 106.518 13.32 105.788 13.92C105.059 14.52 104.105 14.82 102.87 14.82H98.6607V18.12H102.87C104.385 18.12 105.732 17.82 106.798 17.28C107.921 16.74 108.763 15.9 109.38 14.88C109.997 13.86 110.334 12.6 110.334 11.22C110.334 9.78 109.997 8.58 109.38 7.56C108.763 6.54 107.865 5.76 106.798 5.16C105.676 4.62 104.385 4.32 102.87 4.32H98.6607V7.62ZM113.758 4.32V26.58H117.293V4.32H113.758ZM115.161 16.38H130.033V12.9H115.161V16.38ZM127.732 4.32V26.58H131.268V4.32H127.732ZM143.839 10.62L147.15 18.9L147.207 19.8L150.013 26.58H153.997L143.839 3.06L133.681 26.58H137.61L140.472 19.62L140.528 18.78L143.839 10.62ZM138.395 20.82H149.395L148.722 17.64H139.069L138.395 20.82Z" fill="#717988"/>
</g>
<defs>
<clipPath id="clip0_113_20186">
<rect width="154" height="30" fill="white"/>
</clipPath>
</defs>
</svg>
