<svg width="147" height="34" viewBox="0 0 147 34" fill="none" xmlns="http://www.w3.org/2000/svg">
<g clip-path="url(#clip0_113_20126)">
<path d="M31.959 16.0933H0C0 7.19667 7.15836 0 16.0077 0C24.857 0 31.959 7.19667 31.959 16.0933ZM30.2117 17.9067C30.2117 25.7833 23.8424 32.2433 15.9513 32.2433C8.11656 32.2433 1.69095 25.84 1.69095 17.9067H0C0 26.8033 7.15836 34 16.0077 34C24.857 34 32.0153 26.8033 32.0153 17.9067H30.2117ZM16.0077 29.9767C22.6024 29.9767 28.0134 24.5933 28.0134 17.9067H26.2661C26.2661 23.5733 21.7005 28.22 16.0077 28.22C10.3712 28.22 5.74923 23.63 5.74923 17.9067H4.00192C4.00192 24.5933 9.35659 29.9767 16.0077 29.9767ZM66.2289 5.55333C65.8344 5.78 65.3271 5.89333 64.5943 5.89333C63.5234 5.89333 61.607 5.66667 58.7324 5.21333C55.9141 4.76 53.9413 4.53333 52.814 4.53333C51.2358 4.53333 49.7703 4.81667 48.5303 5.44C47.2903 6.06333 46.2757 6.91333 45.4866 8.04667C44.9229 8.89667 44.472 10.0867 44.0775 11.6167L44.6975 11.9567C45.092 10.7667 45.4866 9.86 45.9939 9.29333C46.5011 8.67 47.1775 8.21667 48.0794 7.87667C48.9812 7.53667 49.8267 7.36667 50.5594 7.42333L52.5886 7.53667C51.2922 8.44333 50.2776 9.29333 49.5449 10.0867C48.4176 11.3333 47.5721 12.58 46.9521 13.94C46.3884 15.3 46.0502 16.7167 46.0502 18.19C46.0502 19.6633 46.3321 20.9667 46.8393 22.1C47.403 23.2333 48.0794 24.2533 48.9248 25.0467C49.7703 25.84 50.6722 26.4633 51.6867 26.9167C53.434 27.71 55.2941 28.05 57.3232 28.05C59.3524 28.05 61.2124 27.6533 62.7343 26.8033C64.2561 25.9533 65.5525 24.8767 66.5671 23.46C67.1871 22.61 67.7508 21.42 68.2017 20.0033L67.5817 19.72C66.7926 21.1933 65.8907 22.27 64.9325 23.0633C63.9743 23.8567 62.6779 24.48 61.0997 24.9333V8.78333C61.8324 8.84 62.4525 8.89667 63.0161 8.89667C63.9743 8.89667 64.8762 8.72667 65.6089 8.38667C66.3416 8.04667 66.9053 7.59333 67.2998 6.97C67.6944 6.34667 67.9762 5.55333 68.2017 4.53333L67.638 4.02333C67.0744 4.87333 66.6235 5.38333 66.2289 5.55333ZM54.4486 19.6067C54.4486 20.8533 54.3359 21.7033 54.1668 22.1C53.9977 22.4967 53.5468 23.0633 52.7577 23.6867C50.334 21.8167 49.0939 19.3233 49.0939 16.3767C49.0939 14.62 49.5449 12.92 50.4467 11.2767C51.1231 10.03 52.1377 8.84 53.6031 7.59333L54.4486 7.65V19.6067ZM60.4233 25.16C59.5215 25.2733 58.7887 25.33 58.3378 25.33C57.436 25.33 56.5341 25.2167 55.5759 24.9333C55.0123 24.7633 54.2795 24.48 53.4341 24.0267C55.2377 22.61 56.4214 21.5333 56.985 20.8533C57.3232 20.4567 57.5487 20.1167 57.6051 19.8333C57.6614 19.55 57.7178 18.8133 57.7178 17.68V8.16C58.5069 8.33 59.4087 8.44333 60.4233 8.61333V25.16V25.16ZM74.6273 14.0533C74.6273 13.4867 74.5146 13.0333 74.2891 12.6933C73.9509 12.1833 73.3309 11.56 72.4291 10.88L69.1035 13.77L69.4981 14.2233C69.8926 13.77 70.2308 13.6 70.4563 13.6C70.6817 13.6 70.8508 13.7133 71.0763 13.9967C71.2454 14.28 71.3581 14.79 71.3581 15.64V22.2133C71.3581 23.1767 71.3018 23.8 71.1327 24.14C70.9636 24.48 70.6817 24.82 70.2308 25.16V25.5C70.9072 25.67 71.5836 25.9533 72.1472 26.2933C72.7109 26.6333 73.4436 27.2 74.3455 27.9933L78.4601 24.7067L78.0656 24.1967L76.431 25.5L74.6273 24.1967V14.9033L76.2055 13.43L78.2347 15.98L80.6584 13.8267L78.2347 10.9367L74.6273 14.0533ZM93.115 12.2967C93.0023 12.3533 92.8332 12.41 92.6077 12.41C92.1005 12.41 91.4241 12.2967 90.5222 12.0133C89.6204 11.73 88.7749 11.39 87.9858 10.9367C87.0276 11.9567 85.9003 12.41 84.6603 12.41C84.4348 12.41 84.153 12.41 83.7584 12.3533L83.533 12.75L85.4494 16.8867C84.153 18.36 83.2512 19.72 82.7439 20.7967C82.3493 21.6467 82.1238 22.5533 82.1238 23.5167C82.1238 24.99 83.0257 26.4633 84.8857 27.9367L89.7331 24.0833C89.7895 24.99 89.9022 25.7267 90.184 26.2367C90.4659 26.7467 91.0295 27.3133 91.8186 27.9367L95.2005 24.99L94.806 24.48C94.4114 24.82 94.186 24.99 94.1296 25.0467C94.0169 25.1033 93.9041 25.16 93.7914 25.16C93.5659 25.16 93.3969 25.0467 93.2278 24.7067C93.0587 24.4233 93.0023 23.6867 93.0023 22.5533V15.8667C93.0023 15.0733 93.0587 14.3933 93.2278 13.94C93.3969 13.4867 93.735 12.75 94.2987 11.9L93.735 11.6733C93.3969 12.0133 93.2278 12.24 93.115 12.2967ZM89.6768 18.7567L86.1821 17.1133L84.2657 12.9767L89.7331 14.6767V18.7567H89.6768ZM89.6768 23.4033L87.2531 25.3867C85.6748 24.2533 84.8857 22.8367 84.8857 21.08C84.8857 20.1167 85.1676 18.9267 85.7876 17.6233L89.6768 19.4367V23.4033ZM96.666 9.35L100.893 12.24C100.273 12.75 99.2588 13.2033 97.7933 13.6V21.9867C97.7933 23.0633 97.737 23.7433 97.6242 24.0833C97.5115 24.4233 97.286 24.7633 96.8915 25.1033V25.3867C98.0188 25.5 99.0334 25.7833 100.048 26.18C101.006 26.5767 102.133 27.1433 103.373 27.9933C104.163 27.37 104.839 26.86 105.515 26.4633C106.192 26.0667 107.206 25.6133 108.503 25.1033V14.3367C108.503 13.6 108.559 13.1467 108.615 12.92C108.672 12.6933 108.841 12.41 109.01 12.1267V11.4467C108.559 11.6167 108.277 11.8433 108.052 12.0133C107.826 12.24 107.657 12.5233 107.488 12.92L96.666 5.44V9.35ZM105.29 25.4433L101.119 23.5733V13.6567C101.401 13.4867 101.739 13.26 102.021 13.0333L105.29 15.3V25.4433ZM115.154 12.6367C114.477 12.92 113.688 13.26 112.674 13.6567V22.8367C112.674 23.9133 112.617 24.5933 112.505 24.8767C112.392 25.2167 112.166 25.4433 111.772 25.67V26.0667C113.012 26.35 114.026 26.5767 114.703 26.86C115.379 27.0867 116.281 27.54 117.296 28.1067L122.481 24.48L122.143 24.0267L119.663 25.7267L115.943 24.2533V21.3067L123.101 16.2633L118.592 10.9933C116.788 11.8433 115.661 12.41 115.154 12.6367ZM120.114 17.2267L115.887 20.1733V12.8633L116.112 12.75L120.114 17.2267ZM125.807 13.7133V22.8367C125.807 23.7433 125.694 24.3667 125.525 24.82C125.412 25.1033 125.187 25.3867 124.792 25.67V26.0667C125.863 26.2933 126.709 26.52 127.441 26.8033C128.174 27.0867 129.02 27.4833 130.034 28.1067L133.98 25.16L133.811 24.48L132.12 25.67L128.963 24.2533V13.9967L132.063 15.81L133.754 13.3167L129.64 10.9367C128.456 12.1833 127.103 13.1467 125.807 13.7133ZM141.363 10.9367C139.954 12.1267 138.32 13.0333 136.347 13.7133V22.4967C136.347 23.3467 136.291 23.97 136.122 24.3667C136.009 24.65 135.783 24.9333 135.332 25.2733L135.502 25.6133C136.46 25.67 137.362 25.84 138.094 26.0667C139.109 26.4067 140.405 27.0867 141.927 28.05C142.434 27.5967 142.942 27.2 143.505 26.9167C144.238 26.52 145.365 25.9533 147 25.33V13.26C144.745 12.6933 142.885 11.9567 141.363 10.9367ZM139.616 13.6567C140.18 13.77 140.631 13.8833 141.025 13.9967C141.589 14.1667 142.491 14.62 143.787 15.1867V25.3867L139.616 23.6867V13.6567Z" fill="#717988"/>
</g>
<defs>
<clipPath id="clip0_113_20126">
<rect width="147" height="34" fill="white"/>
</clipPath>
</defs>
</svg>
