<svg width="36" height="40" viewBox="0 0 36 40" fill="none" xmlns="http://www.w3.org/2000/svg">
<path d="M30.8055 7.78755C30.7773 7.58354 30.6015 7.47802 30.4537 7.46395C30.306 7.44988 27.2318 7.22476 27.2318 7.22476C27.2318 7.22476 25.0932 5.10728 24.8611 4.8681C24.6289 4.63595 24.1716 4.7063 23.9887 4.75554C23.9606 4.76258 23.5244 4.89624 22.7928 5.12135C22.0823 3.06718 20.8231 1.18185 18.6071 1.18185C18.5438 1.18185 18.4805 1.18185 18.4172 1.18889C17.784 0.358777 17.0102 -0.0070343 16.3349 -0.0070343C11.1854 5.20609e-07 8.72318 6.45093 7.94935 9.72916C5.94443 10.3482 4.52339 10.7914 4.34049 10.8477C3.22195 11.1994 3.18677 11.2346 3.03904 12.2898C2.92649 13.0848 0 35.7228 0 35.7228L22.8139 40L35.1741 37.3268C35.1741 37.3268 30.8336 7.99156 30.8055 7.78755ZM21.5406 5.5153C20.9708 5.69117 20.3166 5.89518 19.6131 6.11326C19.6131 5.9796 19.6131 5.84594 19.6131 5.69821C19.6131 4.4249 19.4372 3.39782 19.1488 2.58178C20.2955 2.72248 21.0552 4.02392 21.5406 5.5153ZM17.7348 2.83503C18.0514 3.62997 18.2554 4.76961 18.2554 6.31024C18.2554 6.38762 18.2554 6.45797 18.2554 6.53535C17.0032 6.92227 15.6384 7.34436 14.2666 7.76644C15.0405 4.80478 16.4826 3.37672 17.7348 2.83503ZM16.2012 1.38586C16.4263 1.38586 16.6514 1.46324 16.8625 1.61097C15.2093 2.39184 13.4365 4.34752 12.6908 8.25888C11.6004 8.59655 10.5311 8.92719 9.53922 9.23672C10.4186 6.24692 12.5009 1.38586 16.2012 1.38586Z" fill="#95BF46"/>
<path d="M30.4613 7.46395C30.3136 7.44988 27.2394 7.22477 27.2394 7.22477C27.2394 7.22477 25.1008 5.10728 24.8686 4.8681C24.7842 4.78368 24.6646 4.73444 24.538 4.71333L22.8145 39.993L35.1746 37.3268C35.1746 37.3268 30.8342 7.99156 30.806 7.78755C30.7779 7.58354 30.602 7.47802 30.4613 7.46395Z" fill="#5E8E3E"/>
<path d="M18.6141 14.2948L17.0876 18.8252C17.0876 18.8252 15.751 18.1147 14.1119 18.1147C11.713 18.1147 11.5934 19.6201 11.5934 20C11.5934 22.0682 16.9891 22.8632 16.9891 27.7172C16.9891 31.5301 14.5691 33.9923 11.305 33.9923C7.38656 33.9923 5.38867 31.5582 5.38867 31.5582L6.43686 28.0971C6.43686 28.0971 8.49806 29.8628 10.2357 29.8628C11.3683 29.8628 11.8326 28.9694 11.8326 28.3152C11.8326 25.6138 7.40767 25.4942 7.40767 21.0552C7.40767 17.3197 10.0879 13.7038 15.4977 13.7038C17.5871 13.6968 18.6141 14.2948 18.6141 14.2948Z" fill="white"/>
</svg>
