<svg width="100" height="100" viewBox="0 0 100 100" fill="none" xmlns="http://www.w3.org/2000/svg">
<circle cx="50" cy="50" r="50" fill="white"/>
<path d="M44.5 28C42 28 40 30 40 32.5C40 35 42 37 44.5 37H49V32.5C49 30 47 28 44.5 28ZM44.5 40H32.5C30 40 28 42 28 44.5C28 47 30 49 32.5 49H44.5C47 49 49 47 49 44.5C49 42 47 40 44.5 40Z" fill="#36C5F0"/>
<path d="M73 44.5C73 42 71 40 68.5 40C66 40 64 42 64 44.5V49H68.5C71 49 73 47 73 44.5ZM61 44.5V32.5C61 30 59 28 56.5 28C54 28 52 30 52 32.5V44.5C52 47 54 49 56.5 49C59 49 61 47 61 44.5Z" fill="#2EB67D"/>
<path d="M56.5 73.0002C59 73.0002 61 71.0002 61 68.5002C61 66.0002 59 64.0002 56.5 64.0002H52V68.5002C52 70.9502 54 73.0002 56.5 73.0002ZM56.5 61.0002H68.5C71 61.0002 73 59.0002 73 56.5002C73 54.0002 71 52.0002 68.5 52.0002H56.5C54 52.0002 52 54.0002 52 56.5002C52 59.0002 54 61.0002 56.5 61.0002Z" fill="#ECB22E"/>
<path d="M28 56.5002C28 59.0002 30 61.0002 32.5 61.0002C35 61.0002 37 59.0002 37 56.5002V52.0002H32.5C30 52.0002 28 54.0002 28 56.5002ZM40 56.5002V68.5002C40 71.0002 42 73.0002 44.5 73.0002C47 73.0002 49 71.0002 49 68.5002V56.5002C49 54.0002 47 52.0002 44.5 52.0002C42 52.0002 40 54.0002 40 56.5002Z" fill="#E01E5A"/>
</svg>
