<svg width="37" height="37" viewBox="0 0 37 37" fill="none" xmlns="http://www.w3.org/2000/svg">
<path d="M13.5994 0.400208C11.5994 0.400208 9.99941 2.00021 9.99941 4.00021C9.99941 6.00021 11.5994 7.60021 13.5994 7.60021H17.1994V4.00021C17.1994 2.00021 15.5994 0.400208 13.5994 0.400208ZM13.5994 10.0002H3.99941C1.99941 10.0002 0.399414 11.6002 0.399414 13.6002C0.399414 15.6002 1.99941 17.2002 3.99941 17.2002H13.5994C15.5994 17.2002 17.1994 15.6002 17.1994 13.6002C17.1994 11.6002 15.5994 10.0002 13.5994 10.0002Z" fill="#36C5F0"/>
<path d="M36.3996 13.6002C36.3996 11.6002 34.7996 10.0002 32.7996 10.0002C30.7996 10.0002 29.1996 11.6002 29.1996 13.6002V17.2002H32.7996C34.7996 17.2002 36.3996 15.6002 36.3996 13.6002ZM26.7996 13.6002V4.00021C26.7996 2.00021 25.1996 0.400208 23.1996 0.400208C21.1996 0.400208 19.5996 2.00021 19.5996 4.00021V13.6002C19.5996 15.6002 21.1996 17.2002 23.1996 17.2002C25.1996 17.2002 26.7996 15.6002 26.7996 13.6002Z" fill="#2EB67D"/>
<path d="M23.1996 36.4002C25.1996 36.4002 26.7996 34.8002 26.7996 32.8002C26.7996 30.8002 25.1996 29.2002 23.1996 29.2002H19.5996V32.8002C19.5996 34.7602 21.1996 36.4002 23.1996 36.4002ZM23.1996 26.8002H32.7996C34.7996 26.8002 36.3996 25.2002 36.3996 23.2002C36.3996 21.2002 34.7996 19.6002 32.7996 19.6002H23.1996C21.1996 19.6002 19.5996 21.2002 19.5996 23.2002C19.5996 25.2002 21.1996 26.8002 23.1996 26.8002Z" fill="#ECB22E"/>
<path d="M0.399414 23.2002C0.399414 25.2002 1.99941 26.8002 3.99941 26.8002C5.99941 26.8002 7.59941 25.2002 7.59941 23.2002V19.6002H3.99941C1.99941 19.6002 0.399414 21.2002 0.399414 23.2002ZM9.99941 23.2002V32.8002C9.99941 34.8002 11.5994 36.4002 13.5994 36.4002C15.5994 36.4002 17.1994 34.8002 17.1994 32.8002V23.2002C17.1994 21.2002 15.5994 19.6002 13.5994 19.6002C11.5994 19.6002 9.99941 21.2002 9.99941 23.2002Z" fill="#E01E5A"/>
</svg>
