<svg width="100" height="100" viewBox="0 0 100 100" fill="none" xmlns="http://www.w3.org/2000/svg">
<circle cx="50" cy="50" r="50" fill="white"/>
<path d="M28 61.5512C28.0263 62.5478 28.035 63.5531 28.2013 64.5497C28.3764 65.5987 28.639 66.6215 29.1204 67.5744C29.7769 68.8682 30.6872 69.9522 31.8251 70.8438C32.6479 71.482 33.5408 71.989 34.5299 72.3125C35.9741 72.7758 37.4709 72.9594 38.9852 72.9681C39.9306 72.9768 40.8759 72.9943 41.8212 72.9943C48.6837 72.9681 55.5462 73.0468 62.4087 72.9506C63.319 72.9419 64.2118 72.8282 65.1046 72.6621C66.8203 72.3474 68.3346 71.6219 69.63 70.4679C71.1356 69.1217 72.1597 67.4782 72.6149 65.4938C72.9125 64.2 72.9912 62.88 73 61.56V61.2977C73 61.1928 72.965 38.8399 72.9562 38.5427C72.9475 37.7297 72.8862 36.9254 72.7374 36.1299C72.5536 35.1596 72.291 34.2067 71.8271 33.3238C71.3369 32.3972 70.7154 31.5579 69.9539 30.8236C68.7897 29.7047 67.4417 28.9092 65.8662 28.4895C64.4482 28.1136 63.0039 28.0262 61.5421 28.0262C61.5421 28.0262 61.5334 28.0087 61.5334 28H39.4666C39.4666 28.0087 39.4666 28.0175 39.4666 28.0262C38.6351 28.0437 37.8123 28.035 36.9895 28.1399C36.0879 28.2535 35.1951 28.4196 34.3373 28.7343C32.9893 29.2326 31.8251 30.0106 30.8273 31.0422C29.6981 32.2136 28.9016 33.5686 28.4727 35.1421C28.0963 36.5495 28.0175 37.9832 28.0088 39.4256" fill="#FFFC00"/>
<path d="M50.7053 65.9658C50.609 65.9658 50.5215 65.9658 50.4515 65.9571C50.399 65.9658 50.3464 65.9658 50.2852 65.9658C48.3245 65.9658 47.0115 65.0392 45.8473 64.2175C45.0158 63.6318 44.2367 63.081 43.3177 62.9237C42.8712 62.845 42.4161 62.81 41.9872 62.81C41.2081 62.81 40.5867 62.9324 40.1403 63.0198C39.8602 63.0723 39.6238 63.116 39.44 63.116C39.2474 63.116 39.0111 63.0723 38.9148 62.7401C38.836 62.4778 38.7835 62.2243 38.731 61.9796C38.5997 61.3676 38.5034 60.9917 38.2671 60.9568C35.8074 60.5809 34.3457 60.0214 34.0568 59.3395C34.0306 59.2696 34.013 59.1996 34.0043 59.1297C33.9955 58.9286 34.1356 58.7538 34.3369 58.7188C36.2889 58.3954 38.0307 57.3639 39.51 55.6504C40.6479 54.3217 41.2169 53.0541 41.2694 52.9142C41.2694 52.9055 41.2782 52.9055 41.2782 52.8968C41.5583 52.3198 41.6195 51.8215 41.4445 51.4194C41.1294 50.6676 40.079 50.3354 39.3787 50.1169C39.2037 50.0644 39.0461 50.012 38.9148 49.9595C38.3021 49.7147 37.2867 49.199 37.418 48.4909C37.5143 47.9751 38.1971 47.6167 38.7573 47.6167C38.9148 47.6167 39.0461 47.6429 39.1599 47.6954C39.7814 47.9838 40.3503 48.1325 40.8318 48.1325C41.4357 48.1325 41.7246 47.9052 41.7946 47.8352C41.7771 47.5118 41.7596 47.1796 41.7333 46.8561C41.5933 44.6095 41.4182 41.8208 42.1272 40.2211C44.2718 35.4305 48.8059 35.0546 50.1539 35.0546C50.1889 35.0546 50.7403 35.0459 50.7403 35.0459C50.7666 35.0459 50.7929 35.0459 50.8191 35.0459C52.1671 35.0459 56.71 35.4218 58.8545 40.2123C59.5723 41.8121 59.3972 44.6095 59.2484 46.8561L59.2397 46.961C59.2222 47.267 59.2046 47.5555 59.1871 47.8352C59.2572 47.8964 59.5198 48.1062 60.0625 48.1237C60.5264 48.1062 61.0516 47.9576 61.638 47.6866C61.8218 47.5992 62.0144 47.5817 62.1545 47.5817C62.3558 47.5817 62.5659 47.6254 62.7409 47.6954H62.7497C63.2486 47.8702 63.5725 48.2199 63.5725 48.587C63.5812 48.928 63.3274 49.4437 62.0669 49.942C61.9356 49.9945 61.7693 50.0469 61.603 50.0994C60.9028 50.3179 59.8524 50.6501 59.5373 51.4019C59.3622 51.804 59.4235 52.3023 59.7036 52.8793C59.7036 52.888 59.7123 52.888 59.7123 52.8968C59.7999 53.0978 61.9181 57.9233 66.6448 58.7014C66.8462 58.7363 66.9862 58.9112 66.9775 59.1122C66.9775 59.1822 66.9599 59.2608 66.9249 59.3308C66.6361 60.0039 65.1831 60.5634 62.7147 60.9393C62.4871 60.9742 62.382 61.3501 62.2507 61.9621C62.1982 62.2156 62.137 62.4604 62.0669 62.7226C61.9969 62.9674 61.8393 63.0898 61.5768 63.0898H61.5417C61.3754 63.0898 61.1391 63.0635 60.8415 63.0023C60.3163 62.8974 59.7386 62.81 58.9946 62.81C58.5657 62.81 58.1105 62.845 57.6641 62.9237C56.745 63.0723 55.966 63.6318 55.1344 64.2175C53.9878 65.0392 52.6748 65.9658 50.7053 65.9658Z" fill="white"/>
<path d="M50.8287 35.4308C52.0979 35.4308 56.4482 35.7717 58.5052 40.37C59.1792 41.8823 59.0041 44.6272 58.8728 46.8302C58.8553 47.1799 58.8291 47.5208 58.8116 47.8442L58.8028 47.9841L58.8991 48.089C58.9341 48.1327 59.2842 48.4999 60.072 48.5261H60.0808H60.0895C60.606 48.5086 61.1924 48.3425 61.8226 48.054C61.9189 48.0103 62.0415 47.9929 62.1728 47.9929C62.3216 47.9929 62.4791 48.0191 62.6104 48.0803L62.6279 48.089C62.9606 48.2027 63.1969 48.4212 63.1969 48.6223C63.1969 48.7359 63.1181 49.138 61.9364 49.6014C61.8226 49.6451 61.6738 49.6975 61.4988 49.75C60.7372 49.9947 59.5818 50.3619 59.1879 51.2711C58.9691 51.7868 59.0304 52.3987 59.363 53.0806C59.5031 53.4041 61.6826 58.317 66.5931 59.1212C66.5931 59.1475 66.5844 59.1737 66.5756 59.1999C66.4881 59.3922 65.9629 60.0741 62.6717 60.5811C62.1553 60.6598 62.0327 61.2368 61.8839 61.9099C61.8314 62.1459 61.7789 62.3907 61.7001 62.6442C61.6738 62.7229 61.6738 62.7229 61.5951 62.7229H61.56C61.4112 62.7229 61.1924 62.6967 60.9386 62.6442C60.4747 62.5568 59.8357 62.4431 59.0129 62.4431C58.5577 62.4431 58.085 62.4868 57.6124 62.5655C56.6058 62.7316 55.783 63.3086 54.9164 63.9205C53.7522 64.7422 52.5443 65.5902 50.7061 65.5902C50.6273 65.5902 50.5486 65.5902 50.4698 65.5815H50.4523H50.4348C50.391 65.5815 50.3472 65.5902 50.2947 65.5902C48.4566 65.5902 47.2486 64.7422 46.0845 63.9205C45.2179 63.3086 44.3951 62.7316 43.3885 62.5655C42.9158 62.4868 42.4431 62.4431 41.988 62.4431C41.1739 62.4431 40.535 62.5655 40.0623 62.6617C39.8084 62.7141 39.5809 62.7578 39.4408 62.7578C39.3183 62.7578 39.3183 62.7491 39.292 62.6617C39.222 62.4082 39.1607 62.1634 39.1082 61.9274C38.9594 61.2542 38.8368 60.6773 38.3204 60.5986C35.0292 60.0916 34.4953 59.4097 34.4165 59.2174C34.4077 59.1824 34.399 59.1562 34.399 59.1387C39.3095 58.3345 41.489 53.4215 41.6291 53.0981C41.9705 52.4162 42.023 51.8043 41.8042 51.2885C41.419 50.3706 40.2636 50.0035 39.4933 49.7675C39.3183 49.715 39.1695 49.6625 39.0557 49.6188C38.0666 49.2255 37.7602 48.8321 37.804 48.596C37.8565 48.3163 38.3379 48.0366 38.7493 48.0366C38.8456 48.0366 38.9244 48.054 38.9856 48.0803C39.6596 48.395 40.2811 48.5611 40.8238 48.5611C41.6816 48.5611 42.058 48.1677 42.1018 48.1152L42.1981 48.0103L42.1893 47.8705C42.1718 47.547 42.1543 47.2061 42.128 46.8564C41.988 44.6535 41.8129 41.9085 42.4957 40.3962C44.5527 35.798 48.8855 35.4396 50.1634 35.4396C50.1984 35.4396 50.7499 35.4308 50.7499 35.4308C50.7761 35.4396 50.8024 35.4308 50.8287 35.4308ZM50.8287 34.644C50.7937 34.644 50.7674 34.644 50.7411 34.644C50.5311 34.644 50.1897 34.6528 50.1634 34.6528C49.4107 34.6528 47.9139 34.7577 46.3033 35.4658C45.3842 35.8679 44.5527 36.4186 43.8436 37.1005C42.9946 37.9048 42.3031 38.9013 41.7867 40.0553C41.0339 41.7424 41.2089 44.5923 41.3577 46.8826C41.3753 47.1274 41.3928 47.3809 41.4015 47.6344C41.2877 47.6869 41.1127 47.7393 40.8501 47.7393C40.4212 47.7393 39.9222 47.5995 39.3445 47.3372C39.1782 47.2585 38.9856 47.2236 38.7756 47.2236C38.4342 47.2236 38.0753 47.3197 37.7602 47.5033C37.3663 47.7306 37.1125 48.054 37.0424 48.4212C36.9987 48.6572 36.9987 49.1293 37.5239 49.6101C37.8127 49.8724 38.2329 50.1171 38.7843 50.3269C38.9244 50.3794 39.0994 50.4406 39.2745 50.493C39.896 50.6941 40.8501 50.9913 41.0952 51.5683C41.2177 51.8655 41.1652 52.2501 40.9376 52.7135C40.9288 52.7222 40.9288 52.7397 40.9201 52.7484C40.8588 52.8796 40.3249 54.1034 39.222 55.3885C38.5917 56.1228 37.9002 56.726 37.1737 57.2068C36.2809 57.7837 35.3093 58.1596 34.2939 58.3345C33.8913 58.3957 33.6112 58.7541 33.6287 59.1562C33.6375 59.2698 33.6637 59.3922 33.7075 59.4971C33.865 59.873 34.2414 60.1965 34.8541 60.4762C35.5982 60.8172 36.7098 61.1144 38.1541 61.3417C38.2241 61.4815 38.3029 61.8312 38.3554 62.0672C38.4079 62.3208 38.4692 62.583 38.548 62.8627C38.6355 63.16 38.8631 63.5271 39.4496 63.5271C39.6684 63.5271 39.931 63.4747 40.2286 63.4222C40.6662 63.3348 41.2615 63.2212 41.9967 63.2212C42.4081 63.2212 42.837 63.2561 43.2659 63.3261C44.0975 63.4659 44.8065 63.9642 45.6293 64.5499C46.8372 65.4066 48.2027 66.3682 50.2947 66.3682C50.356 66.3682 50.4085 66.3682 50.461 66.3595C50.5311 66.3595 50.6186 66.3682 50.7061 66.3682C52.7981 66.3682 54.1636 65.4066 55.3716 64.5499C56.1944 63.9642 56.9121 63.4659 57.7349 63.3261C58.1638 63.2561 58.5927 63.2212 59.0041 63.2212C59.7131 63.2212 60.2733 63.3086 60.7723 63.4047C61.0961 63.4659 61.35 63.5009 61.5513 63.5009H61.5688H61.5863C62.0152 63.5009 62.3303 63.2649 62.4529 62.854C62.5316 62.583 62.5929 62.3295 62.6454 62.0672C62.698 61.84 62.7767 61.4815 62.8468 61.3417C64.2998 61.1144 65.4027 60.8259 66.1467 60.4762C66.7507 60.1965 67.1271 59.873 67.2934 59.4971C67.3459 59.3835 67.3721 59.2698 67.3809 59.1475C67.4072 58.7453 67.1183 58.3869 66.7157 58.3257C62.199 57.5827 60.1683 52.9495 60.0808 52.7484C60.072 52.7397 60.072 52.7222 60.0633 52.7135C59.8357 52.2414 59.7832 51.8568 59.9057 51.5683C60.1508 50.9913 61.0961 50.6853 61.7264 50.493C61.9102 50.4318 62.0765 50.3794 62.2165 50.3269C62.8293 50.0822 63.2757 49.8199 63.5645 49.5227C63.9146 49.1643 63.9759 48.8233 63.9759 48.596C63.9672 48.054 63.547 47.5732 62.8905 47.3372C62.6717 47.2411 62.4179 47.1973 62.1553 47.1973C61.9802 47.1973 61.7176 47.2236 61.4725 47.3372C60.9473 47.582 60.4747 47.7219 60.0633 47.7393C59.8444 47.7306 59.6956 47.6781 59.5993 47.6344C59.6081 47.4246 59.6256 47.2061 59.6431 46.9788L59.6519 46.8826C59.8007 44.5923 59.9757 41.7424 59.223 40.0553C58.7065 38.8926 58.0063 37.896 57.1572 37.0918C56.4394 36.4186 55.6079 35.8679 54.6888 35.457C53.0782 34.7489 51.5814 34.644 50.8287 34.644Z" fill="#020202"/>
</svg>
