<svg width="100" height="100" viewBox="0 0 100 100" fill="none" xmlns="http://www.w3.org/2000/svg">
<circle cx="50" cy="50" r="50" fill="white"/>
<circle cx="50.5" cy="50.5" r="22.5" fill="url(#paint0_linear_1_1119)"/>
<path d="M61.4428 40.9403L57.4216 61.1978C57.4216 61.1978 56.8568 62.6057 55.3141 61.9313L46.0409 54.8247L42.6689 53.1977L36.9954 51.284C36.9954 51.284 36.1271 50.9721 36.0428 50.2977C35.9585 49.6233 37.0291 49.2608 37.0291 49.2608L59.5966 40.4092C59.5882 40.4092 61.4428 39.5914 61.4428 40.9403Z" fill="white"/>
<path d="M45.3332 60.9785C45.3332 60.9785 45.0635 60.9532 44.7263 59.8826C44.389 58.8119 42.6777 53.1975 42.6777 53.1975L56.3092 44.5397C56.3092 44.5397 57.0932 44.0592 57.068 44.5397C57.068 44.5397 57.2113 44.624 56.7898 45.0203C56.3683 45.4165 46.0835 54.6559 46.0835 54.6559" fill="#D3E6F2"/>
<path d="M49.6065 57.5476L45.9394 60.8943C45.9394 60.8943 45.6527 61.1135 45.3408 60.9786L46.0405 54.7656" fill="#B6D0E5"/>
<defs>
<linearGradient id="paint0_linear_1_1119" x1="50.5" y1="28" x2="50.5" y2="73" gradientUnits="userSpaceOnUse">
<stop stop-color="#42BDE9"/>
<stop offset="1" stop-color="#23A8DD"/>
</linearGradient>
</defs>
</svg>
