<svg width="45" height="45" viewBox="0 0 45 45" fill="none" xmlns="http://www.w3.org/2000/svg">
<circle cx="22.5" cy="22.5" r="22.5" fill="url(#paint0_linear_730_3)"/>
<path d="M33.4428 12.9403L29.4216 33.1978C29.4216 33.1978 28.8568 34.6057 27.3141 33.9313L18.0409 26.8247L14.6689 25.1977L8.99542 23.284C8.99542 23.284 8.12712 22.9721 8.04282 22.2977C7.95851 21.6233 9.02914 21.2608 9.02914 21.2608L31.5966 12.4092C31.5882 12.4092 33.4428 11.5914 33.4428 12.9403Z" fill="white"/>
<path d="M17.3332 32.9785C17.3332 32.9785 17.0635 32.9532 16.7263 31.8826C16.389 30.8119 14.6777 25.1975 14.6777 25.1975L28.3092 16.5397C28.3092 16.5397 29.0932 16.0592 29.068 16.5397C29.068 16.5397 29.2113 16.624 28.7898 17.0203C28.3683 17.4165 18.0835 26.6559 18.0835 26.6559" fill="#D3E6F2"/>
<path d="M21.6065 29.5476L17.9394 32.8943C17.9394 32.8943 17.6527 33.1135 17.3408 32.9786L18.0405 26.7656" fill="#B6D0E5"/>
<defs>
<linearGradient id="paint0_linear_730_3" x1="22.5" y1="0" x2="22.5" y2="45" gradientUnits="userSpaceOnUse">
<stop stop-color="#42BDE9"/>
<stop offset="1" stop-color="#23A8DD"/>
</linearGradient>
</defs>
</svg>
