<svg width="100" height="100" viewBox="0 0 100 100" fill="none" xmlns="http://www.w3.org/2000/svg">
<circle cx="50" cy="50" r="50" fill="white"/>
<path d="M63 28H38C32.4772 28 28 32.4772 28 38V63C28 68.5228 32.4772 73 38 73H63C68.5228 73 73 68.5229 73 63V38C73 32.4772 68.5229 28 63 28Z" fill="url(#paint0_linear_1_1063)"/>
<path d="M62.4138 38.6414C59.3708 35.5984 55.3134 33.9201 50.9978 33.9201C42.1085 33.9201 34.8605 41.1496 34.8605 50.0574C34.8605 52.8976 35.5982 55.6824 37.0183 58.1168L34.7314 66.4713L43.2888 64.2213C45.6495 65.5123 48.3052 66.1763 50.9978 66.1763C59.8872 66.1763 67.1351 58.9467 67.1351 50.039C67.1351 45.7418 65.4569 41.6844 62.4138 38.6414ZM50.9978 63.4652C48.5819 63.4652 46.2212 62.8197 44.1741 61.6025L43.6761 61.3074L38.6044 62.6353L39.9507 57.6926L39.6372 57.1763C38.3093 55.0369 37.5901 52.584 37.5901 50.039C37.5901 42.6435 43.6023 36.6312 50.9978 36.6312C54.5757 36.6312 57.9507 38.0328 60.4773 40.5594C63.004 43.0861 64.4056 46.4611 64.4056 50.039C64.4056 57.4529 58.3933 63.4652 50.9978 63.4652ZM58.3564 53.414C57.9507 53.2111 55.9773 52.2336 55.6085 52.1045C55.2396 51.9754 54.963 51.9017 54.7048 52.3074C54.4282 52.7131 53.672 53.6168 53.4323 53.8935C53.1925 54.1701 52.9528 54.1885 52.5655 53.9857C52.1597 53.7828 50.8687 53.3586 49.3196 51.9939C48.1208 50.9242 47.3093 49.5963 47.0696 49.209C46.8298 48.8033 47.0511 48.582 47.254 48.3791C47.4384 48.1947 47.6597 47.8996 47.8626 47.6783C48.0655 47.4385 48.1392 47.2726 48.2683 47.0144C48.3974 46.7377 48.3421 46.5164 48.2314 46.3135C48.1392 46.1107 47.3278 44.1189 46.9958 43.3258C46.6638 42.5328 46.3319 42.6435 46.0921 42.625C45.8523 42.6066 45.5941 42.6066 45.3175 42.6066C45.0409 42.6066 44.6167 42.6988 44.2478 43.1045C43.879 43.5103 42.8278 44.4877 42.8278 46.4611C42.8278 48.4529 44.2663 50.3525 44.4692 50.6291C44.672 50.9058 47.3093 54.9631 51.3482 56.7152C52.3073 57.1394 53.0634 57.3791 53.6536 57.5636C54.6126 57.8771 55.4978 57.8217 56.1987 57.7295C56.9732 57.6189 58.5778 56.7521 58.9282 55.8115C59.2601 54.8709 59.2601 54.0594 59.1679 53.8935C59.0388 53.7275 58.7622 53.6168 58.3564 53.414Z" fill="white"/>
<defs>
<linearGradient id="paint0_linear_1_1063" x1="50.4972" y1="28" x2="50.4972" y2="72.9934" gradientUnits="userSpaceOnUse">
<stop stop-color="#61FD7D"/>
<stop offset="1" stop-color="#2BB826"/>
</linearGradient>
</defs>
</svg>
