<svg width="100" height="100" viewBox="0 0 100 100" fill="none" xmlns="http://www.w3.org/2000/svg">
<circle cx="50" cy="50" r="50" fill="white"/>
<path d="M50.5 73C62.9 73 73 62.95 73 50.5C73 38.05 62.9 28 50.5 28C38.05 28 28 38.05 28 50.5C28 62.9 38.05 73 50.5 73Z" fill="#13B5EA"/>
<path d="M38.7505 50.4499L42.6005 46.5999C42.8505 46.3499 42.8005 45.8999 42.5505 45.6499C42.3005 45.3999 41.9005 45.3999 41.6005 45.6499L37.7505 49.4999L33.9005 45.6499C33.6505 45.3999 33.2005 45.3999 32.9505 45.6499C32.7005 45.8999 32.7005 46.3499 32.9505 46.5999L36.8005 50.4499L32.9505 54.2999C32.7505 54.4499 32.7005 54.7499 32.7505 54.9499C32.8005 55.1499 33.0005 55.3999 33.2505 55.4499C33.5005 55.4999 33.7505 55.4499 33.9005 55.2499L37.7505 51.3999L41.6005 55.2499C41.8005 55.4499 42.1005 55.4999 42.3505 55.3999C42.6005 55.2999 42.8005 55.0499 42.8005 54.7499C42.8005 54.5499 42.7505 54.3999 42.6005 54.2499L38.7505 50.4499ZM61.6005 50.4499C61.6005 51.1499 62.1505 51.6999 62.8505 51.6999C63.5505 51.6999 64.1005 51.1499 64.1005 50.4499C64.1005 49.7499 63.5505 49.1999 62.8505 49.1999C62.1505 49.1999 61.6005 49.7499 61.6005 50.4499ZM59.2005 50.4499C59.2005 48.4499 60.8005 46.8499 62.8005 46.8499C64.8005 46.8499 66.4005 48.4999 66.4005 50.4499C66.4005 52.3999 64.7505 54.0499 62.8005 54.0499C60.8505 54.0499 59.2005 52.4499 59.2005 50.4499ZM57.8005 50.4499C57.8005 53.2499 60.0505 55.4999 62.8505 55.4999C65.6505 55.4999 67.9005 53.2499 67.9005 50.4499C67.9005 47.6499 65.6505 45.3999 62.8505 45.3999C60.0505 45.3999 57.8005 47.6499 57.8005 50.4499ZM57.4505 45.4999H57.2505C56.6005 45.4999 56.0005 45.6999 55.5005 46.0999C55.4505 45.7999 55.1505 45.5499 54.8005 45.5499C54.6005 45.5499 54.4505 45.5999 54.3005 45.7499C54.1505 45.8999 54.1005 46.0499 54.1005 46.2499V54.7499C54.1005 55.0999 54.4005 55.3999 54.8005 55.3999C55.1505 55.3999 55.4505 55.0999 55.5005 54.7499V49.4999C55.5005 47.7499 55.6505 47.0499 57.1505 46.8499C57.3005 46.8499 57.4505 46.8499 57.4505 46.8499C57.8505 46.8499 58.1505 46.5499 58.1505 46.1499C58.1005 45.7999 57.8005 45.4999 57.4505 45.4999ZM44.2505 49.5999V49.5499C44.6505 47.9499 46.1505 46.7999 47.8005 46.7999C49.5005 46.7999 50.9505 47.9499 51.3005 49.5999H44.2505ZM52.7005 49.4999C52.4005 48.0999 51.6505 46.9499 50.4505 46.1999C48.7005 45.0999 46.5005 45.1499 44.8505 46.3499C43.1505 47.5499 42.4005 49.6999 42.8505 51.6999C43.3505 53.6999 45.0505 55.1999 47.1505 55.4499C47.7505 55.4999 48.3505 55.4999 48.9505 55.3499C49.5005 55.1999 50.0005 54.9999 50.4505 54.6999C50.9505 54.3999 51.3505 53.9499 51.7505 53.4999C51.7505 53.4999 51.7505 53.4999 51.7505 53.4499C52.0005 53.0999 51.9505 52.5999 51.6505 52.3999C51.4005 52.1999 50.9505 52.1499 50.6505 52.5499C50.6005 52.6499 50.5005 52.7499 50.4005 52.8499C50.1505 53.1499 49.8005 53.4499 49.4005 53.6499C48.9005 53.8999 48.3005 54.0499 47.7005 54.0999C45.7005 54.0999 44.6505 52.6999 44.2505 51.6999C44.2005 51.4999 44.1505 51.2999 44.1005 51.0999V50.9999H51.3005C52.3505 50.9499 52.8505 50.2499 52.7005 49.4999Z" fill="white"/>
</svg>
