<svg width="45" height="45" viewBox="0 0 45 45" fill="none" xmlns="http://www.w3.org/2000/svg">
<path d="M22.5 45C34.9 45 45 34.95 45 22.5C45 10.05 34.9 0 22.5 0C10.05 0 0 10.05 0 22.5C0 34.9 10.05 45 22.5 45Z" fill="#13B5EA"/>
<path d="M10.7505 22.4499L14.6005 18.5999C14.8505 18.3499 14.8005 17.8999 14.5505 17.6499C14.3005 17.3999 13.9005 17.3999 13.6005 17.6499L9.75046 21.4999L5.90046 17.6499C5.65046 17.3999 5.20046 17.3999 4.95046 17.6499C4.70046 17.8999 4.70046 18.3499 4.95046 18.5999L8.80046 22.4499L4.95046 26.2999C4.75046 26.4499 4.70046 26.7499 4.75046 26.9499C4.80046 27.1499 5.00046 27.3999 5.25046 27.4499C5.50046 27.4999 5.75046 27.4499 5.90046 27.2499L9.75046 23.3999L13.6005 27.2499C13.8005 27.4499 14.1005 27.4999 14.3505 27.3999C14.6005 27.2999 14.8005 27.0499 14.8005 26.7499C14.8005 26.5499 14.7505 26.3999 14.6005 26.2499L10.7505 22.4499ZM33.6005 22.4499C33.6005 23.1499 34.1505 23.6999 34.8505 23.6999C35.5505 23.6999 36.1005 23.1499 36.1005 22.4499C36.1005 21.7499 35.5505 21.1999 34.8505 21.1999C34.1505 21.1999 33.6005 21.7499 33.6005 22.4499ZM31.2005 22.4499C31.2005 20.4499 32.8005 18.8499 34.8005 18.8499C36.8005 18.8499 38.4005 20.4999 38.4005 22.4499C38.4005 24.3999 36.7505 26.0499 34.8005 26.0499C32.8505 26.0499 31.2005 24.4499 31.2005 22.4499ZM29.8005 22.4499C29.8005 25.2499 32.0505 27.4999 34.8505 27.4999C37.6505 27.4999 39.9005 25.2499 39.9005 22.4499C39.9005 19.6499 37.6505 17.3999 34.8505 17.3999C32.0505 17.3999 29.8005 19.6499 29.8005 22.4499ZM29.4505 17.4999H29.2505C28.6005 17.4999 28.0005 17.6999 27.5005 18.0999C27.4505 17.7999 27.1505 17.5499 26.8005 17.5499C26.6005 17.5499 26.4505 17.5999 26.3005 17.7499C26.1505 17.8999 26.1005 18.0499 26.1005 18.2499V26.7499C26.1005 27.0999 26.4005 27.3999 26.8005 27.3999C27.1505 27.3999 27.4505 27.0999 27.5005 26.7499V21.4999C27.5005 19.7499 27.6505 19.0499 29.1505 18.8499C29.3005 18.8499 29.4505 18.8499 29.4505 18.8499C29.8505 18.8499 30.1505 18.5499 30.1505 18.1499C30.1005 17.7999 29.8005 17.4999 29.4505 17.4999ZM16.2505 21.5999V21.5499C16.6505 19.9499 18.1505 18.7999 19.8005 18.7999C21.5005 18.7999 22.9505 19.9499 23.3005 21.5999H16.2505ZM24.7005 21.4999C24.4005 20.0999 23.6505 18.9499 22.4505 18.1999C20.7005 17.0999 18.5005 17.1499 16.8505 18.3499C15.1505 19.5499 14.4005 21.6999 14.8505 23.6999C15.3505 25.6999 17.0505 27.1999 19.1505 27.4499C19.7505 27.4999 20.3505 27.4999 20.9505 27.3499C21.5005 27.1999 22.0005 26.9999 22.4505 26.6999C22.9505 26.3999 23.3505 25.9499 23.7505 25.4999C23.7505 25.4999 23.7505 25.4999 23.7505 25.4499C24.0005 25.0999 23.9505 24.5999 23.6505 24.3999C23.4005 24.1999 22.9505 24.1499 22.6505 24.5499C22.6005 24.6499 22.5005 24.7499 22.4005 24.8499C22.1505 25.1499 21.8005 25.4499 21.4005 25.6499C20.9005 25.8999 20.3005 26.0499 19.7005 26.0999C17.7005 26.0999 16.6505 24.6999 16.2505 23.6999C16.2005 23.4999 16.1505 23.2999 16.1005 23.0999V22.9999H23.3005C24.3505 22.9499 24.8505 22.2499 24.7005 21.4999Z" fill="white"/>
</svg>
