<svg width="100" height="100" viewBox="0 0 100 100" fill="none" xmlns="http://www.w3.org/2000/svg">
<circle cx="50" cy="50" r="50" fill="white"/>
<path d="M56.15 50.5C56.15 52.1 55.85 53.75 55.3 55.25C53.8 55.8 52.15 56.1 50.55 56.1C48.9 56.1 47.3 55.8 45.8 55.25C45.25 53.75 44.95 52.1 44.95 50.5C44.95 48.9 45.25 47.25 45.8 45.75C47.3 45.2 48.95 44.9 50.55 44.9C52.15 44.9 53.8 45.2 55.3 45.75C55.85 47.25 56.15 48.85 56.15 50.5ZM72.7 46.75H59.55L68.85 37.45C68.1 36.45 67.3 35.45 66.4 34.6C65.5 33.7 64.55 32.9 63.55 32.15L54.25 41.45V28.3C53 28.1 51.75 28 50.5 28C49.25 28 48 28.1 46.75 28.3V41.45L37.45 32.15C36.45 32.9 35.45 33.7 34.6 34.6C33.7 35.5 32.9 36.45 32.15 37.45L41.45 46.75H28.3C28.3 46.75 28 49.2 28 50.5C28 51.75 28.1 53 28.3 54.25H41.45L32.15 63.55C33.6 65.6 35.4 67.4 37.45 68.85L46.75 59.55V72.7C48 72.9 49.25 73 50.5 73C51.75 73 53 72.9 54.25 72.7V59.55L63.55 68.85C64.55 68.1 65.55 67.3 66.4 66.4C67.3 65.5 68.1 64.55 68.85 63.55L59.55 54.25H72.7C72.9 53.05 73 51.8 73 50.5C73 49.2 72.9 47.95 72.7 46.75Z" fill="#FF4A00"/>
</svg>
