<svg width="37" height="37" viewBox="0 0 37 37" fill="none" xmlns="http://www.w3.org/2000/svg">
<path d="M22.9194 18.4002C22.9194 19.6802 22.6794 21.0002 22.2394 22.2002C21.0394 22.6402 19.7194 22.8802 18.4394 22.8802C17.1194 22.8802 15.8394 22.6402 14.6394 22.2002C14.1994 21.0002 13.9594 19.6802 13.9594 18.4002C13.9594 17.1202 14.1994 15.8002 14.6394 14.6002C15.8394 14.1602 17.1594 13.9202 18.4394 13.9202C19.7194 13.9202 21.0394 14.1602 22.2394 14.6002C22.6794 15.8002 22.9194 17.0802 22.9194 18.4002ZM36.1594 15.4002H25.6394L33.0794 7.96021C32.4794 7.16021 31.8394 6.36021 31.1194 5.68021C30.3994 4.96021 29.6394 4.32021 28.8394 3.72021L21.3994 11.1602V0.640208C20.3994 0.480208 19.3994 0.400208 18.3994 0.400208C17.3994 0.400208 16.3994 0.480208 15.3994 0.640208V11.1602L7.95941 3.72021C7.15941 4.32021 6.35941 4.96021 5.67941 5.68021C4.95941 6.40021 4.31941 7.16021 3.71941 7.96021L11.1594 15.4002H0.639414C0.639414 15.4002 0.399414 17.3602 0.399414 18.4002C0.399414 19.4002 0.479414 20.4002 0.639414 21.4002H11.1594L3.71941 28.8402C4.87941 30.4802 6.31941 31.9202 7.95941 33.0802L15.3994 25.6402V36.1602C16.3994 36.3202 17.3994 36.4002 18.3994 36.4002C19.3994 36.4002 20.3994 36.3202 21.3994 36.1602V25.6402L28.8394 33.0802C29.6394 32.4802 30.4394 31.8402 31.1194 31.1202C31.8394 30.4002 32.4794 29.6402 33.0794 28.8402L25.6394 21.4002H36.1594C36.3194 20.4402 36.3994 19.4402 36.3994 18.4002C36.3994 17.3602 36.3194 16.3602 36.1594 15.4002Z" fill="#FF4A00"/>
</svg>
