<svg width="163" height="45" viewBox="0 0 163 45" fill="none" xmlns="http://www.w3.org/2000/svg">
<path d="M140.312 44.995C140.312 44.995 121.98 44.995 112.095 44.995C101.563 44.995 90.5126 44.995 79.0302 44.995C58.5276 44.995 36.6382 44.995 13.7889 44.995L0 34.5226C23.0251 26.3719 26.5628 25.1005 43.0151 18.9447C49.2362 20.5628 57.5327 22.6935 63.7437 24.3367C70.4472 20.8543 79.3869 16.201 86.0302 12.608L88.6633 8.62312C93.4774 6.05025 99.9196 2.65829 104.688 0C109.663 5.27638 116.332 12.3266 121.216 17.6884C140.296 29.4472 145.548 32.3719 162.93 45C155.839 44.995 140.312 44.995 140.312 44.995Z" fill="white" fill-opacity="0.8"/>
</svg>
