<svg width="32" height="45" viewBox="0 0 32 45" fill="none" xmlns="http://www.w3.org/2000/svg">
<path d="M19.1918 8.25078L18.7878 8.3022L18.3912 8.71354C14.6009 12.5626 10.5903 15.7284 6.54297 18.0716V33.3281C6.54297 37.8896 8.06347 41.3273 10.6931 43.0461C11.6701 43.6852 12.8013 44.0892 14.0647 44.2214L18.7878 44.7209L23.5109 38.7637C28.1753 32.8874 31.04 25.4391 31.04 19.1808V3.92432C26.9927 6.26017 22.9747 7.72925 19.1918 8.25078Z" fill="#38EA8E"/>
<path d="M24.7705 0.273682C20.7378 2.60219 16.7346 4.06393 12.959 4.58546C12.9443 4.5928 12.937 4.5928 12.9223 4.5928L12.5256 4.65157L12.1216 5.05556C8.41953 8.82378 4.49707 11.9382 0.537873 14.2594C0.449728 14.3108 0.361583 14.3622 0.273438 14.4137V29.6775C0.273438 33.7248 1.47074 36.8907 3.58623 38.7565C3.90943 39.0356 4.2767 39.2706 4.64398 39.4837L10.704 43.0462C10.5424 42.9434 10.3808 42.8258 10.2265 42.701C10.1016 42.6128 9.98411 42.51 9.86659 42.4071C9.71233 42.2676 9.55808 42.128 9.41851 41.9738C9.3524 41.915 9.29364 41.8489 9.24222 41.7828C9.15408 41.6873 9.07328 41.5918 8.99248 41.489C8.88964 41.3714 8.79415 41.2539 8.70601 41.129C8.62521 41.0188 8.55175 40.9087 8.47095 40.7911C8.2359 40.4386 8.02288 40.0713 7.8319 39.6746C7.77313 39.5498 7.71437 39.4102 7.64826 39.278C7.64092 39.2486 7.63357 39.2266 7.61888 39.2045C7.55277 39.0503 7.49401 38.8887 7.4279 38.7271C7.36913 38.5581 7.31037 38.3892 7.25895 38.2202C7.20754 38.0807 7.16346 37.9338 7.12674 37.7868C7.07532 37.6106 7.03124 37.4343 6.98717 37.258C6.93575 37.045 6.89168 36.8319 6.84761 36.6116C6.83292 36.5455 6.82557 36.4867 6.81823 36.4206C6.7815 36.2296 6.74477 36.0313 6.72274 35.8256C6.70804 35.7742 6.70805 35.7228 6.7007 35.6714C6.67866 35.5098 6.65663 35.3408 6.64928 35.1645C6.62725 35.025 6.61255 34.8854 6.61255 34.7458C6.60521 34.7091 6.59786 34.6797 6.60521 34.643C6.58317 34.4373 6.57583 34.2317 6.56848 34.0186C6.56114 33.7909 6.55379 33.5632 6.55379 33.3282V18.0717C6.63459 18.0276 6.71539 17.9762 6.79619 17.9248C7.04594 17.7779 7.28833 17.631 7.53808 17.4767C7.78783 17.3298 8.03022 17.1755 8.27997 17.0139C9.2716 16.3896 10.2485 15.7138 11.2328 14.9866C11.4752 14.803 11.7176 14.6193 11.96 14.4357C14.149 12.7536 16.3085 10.8364 18.402 8.71359L18.6003 8.50792L18.7986 8.30225L19.0778 8.26552L19.2026 8.25083C19.4377 8.22145 19.6801 8.18472 19.9151 8.14065C20.3706 8.0672 20.8333 7.9717 21.3034 7.86887C21.5385 7.81745 21.7735 7.75869 22.0159 7.69992C22.3171 7.62647 22.6183 7.54567 22.9194 7.45018C23.1325 7.39876 23.3381 7.33265 23.5438 7.26654C24.058 7.11229 24.5722 6.936 25.0863 6.74502C25.3141 6.66422 25.5418 6.57607 25.7695 6.48058C26.0192 6.38509 26.269 6.28225 26.5187 6.17942C26.7684 6.07658 27.0182 5.9664 27.2679 5.85622C27.9437 5.55505 28.6195 5.23185 29.2879 4.87927C29.5377 4.7544 29.7874 4.62218 30.0298 4.48997C30.2796 4.35775 30.522 4.21818 30.7717 4.07862C30.8672 4.03455 30.9554 3.97578 31.0508 3.92437L24.7705 0.273682ZM18.2037 8.52261C14.4795 12.3055 10.5644 15.4126 6.57583 17.7411L0.817 14.421C4.7615 12.0852 8.62521 9.00741 12.32 5.24655L12.5697 4.9968L18.3579 8.36101L18.2037 8.52261ZM19.1659 7.97905L18.8574 8.01578L13.341 4.80582C17.021 4.24757 20.8627 2.82255 24.7705 0.589536L30.4999 3.92437C26.6068 6.11331 22.7946 7.47956 19.1659 7.97905Z" fill="#9BE9C1"/>
<path d="M31.2916 3.79208C31.2916 3.78474 31.2916 3.78474 31.2916 3.79208C31.2769 3.77005 31.2622 3.74801 31.2402 3.73332C31.2255 3.71128 31.2108 3.70394 31.1887 3.68925L24.9084 0.0385636C24.8202 -0.0128545 24.7174 -0.0128545 24.6293 0.0385636C20.604 2.35972 16.6521 3.79943 12.8766 4.32096L12.524 4.37237C12.5093 4.37237 12.4946 4.37237 12.4799 4.37972C12.4285 4.38707 12.3697 4.41645 12.3257 4.45317L11.9217 4.86452C8.1461 8.70619 4.17956 11.8427 0.132218 14.1785C0.110182 14.1932 0.0954907 14.2079 0.0807999 14.2226C0.066109 14.2373 0.0514181 14.252 0.0367272 14.274V14.2814H0.0293818C0.0220363 14.3034 0.0146909 14.3181 0.00734544 14.3401C0.00734544 14.3695 0 14.3916 0 14.4209V29.6774C0 33.7248 1.20465 37.0229 3.40094 38.9621C3.69476 39.2192 4.03265 39.4469 4.50276 39.7186L10.5627 43.2812C10.6068 43.3106 10.6509 43.3253 10.7023 43.3253C10.7978 43.3253 10.8786 43.2738 10.9374 43.193V43.1857C11.0182 43.0535 10.9741 42.8845 10.8419 42.8111L10.8272 42.8037C8.24893 41.0996 6.82392 37.7354 6.82392 33.3281V18.2332C10.8639 15.8753 14.8231 12.7388 18.5987 8.90451L18.9292 8.56662L19.2377 8.52255C23.0206 8.00102 26.9945 6.56866 31.0492 4.24016C31.0712 4.22547 31.1006 4.21077 31.1226 4.19608C31.1447 4.18139 31.1741 4.17405 31.1887 4.15936C31.2108 4.14467 31.2255 4.13732 31.2402 4.11528C31.2622 4.10059 31.2695 4.0859 31.2842 4.06387C31.2989 4.04183 31.3136 4.01979 31.3136 3.99776C31.321 3.96838 31.321 3.94634 31.321 3.9243V3.91696C31.321 3.87288 31.3136 3.82881 31.2916 3.79208ZM18.8558 8.01571L18.7603 8.03041C18.7015 8.03775 18.6427 8.06713 18.5987 8.1112L18.3563 8.36095L18.202 8.52255C14.4779 12.3055 10.5627 15.4126 6.57417 17.7411C6.52275 17.7705 6.46399 17.8072 6.41257 17.8366C6.33177 17.8806 6.28035 17.9761 6.28035 18.0716V33.3281C6.28035 36.7364 7.10304 39.5497 8.64559 41.5183L4.78188 39.2485C4.34116 38.9914 4.0253 38.7784 3.76821 38.5507C1.68945 36.7217 0.550908 33.5705 0.550908 29.6774V14.5752L0.815344 14.4209C4.75985 12.0851 8.62355 9.00735 12.3183 5.24648L12.5681 4.99674L12.6562 4.90859L12.9574 4.86452C13.0822 4.84983 13.2145 4.82779 13.3393 4.80576C17.0194 4.2475 20.8611 2.82249 24.7688 0.589472L30.4983 3.9243C26.6052 6.11324 22.7929 7.4795 19.1643 7.97899L18.8558 8.01571Z" fill="#111111"/>
<path d="M30.4949 3.92443C26.6018 6.11337 22.7895 7.47962 19.1609 7.97911L18.8524 8.01584L13.3359 4.80588C17.016 4.24763 20.8577 2.82261 24.7654 0.5896L30.4949 3.92443Z" fill="#9BE9C1"/>
<path d="M18.3573 8.36079L18.2031 8.52239C14.4789 12.3053 10.5638 15.4124 6.57523 17.7409L0.816406 14.4208C4.76091 12.0849 8.62461 9.00719 12.3194 5.24633L12.5691 4.99658L18.3573 8.36079Z" fill="#414B3D"/>
<path d="M6.78719 18.1818C6.73577 18.2699 6.64763 18.3214 6.55213 18.3214C6.50072 18.3214 6.45664 18.3067 6.41257 18.2846L6.28035 18.2112L0.550908 14.9057L0.271781 14.7441L0.132218 14.6633C0.066109 14.6266 0.0220363 14.5605 0 14.4944V14.4209C0 14.3915 0.00734544 14.3695 0.00734544 14.3401C0.0146909 14.3181 0.0220363 14.3034 0.0293818 14.2814L0.0367272 14.274C0.0514181 14.252 0.066109 14.2373 0.0807999 14.2226C0.168945 14.1418 0.301163 14.1198 0.411345 14.1859L0.536217 14.2593L0.815344 14.4209L6.57417 17.7411L6.68435 17.8072C6.73577 17.8366 6.7725 17.8733 6.79453 17.9247C6.83126 18.0055 6.83126 18.101 6.78719 18.1818Z" fill="#111111"/>
<path d="M28.644 7.88379V19.1811C28.644 24.8958 25.963 31.8226 21.6365 37.2729L17.7434 42.187L14.3351 41.8271C13.0276 41.6875 11.9258 41.1219 11.0664 40.1964C11.4043 40.3066 11.7642 40.38 12.1388 40.4168L15.5398 40.7767L19.4402 35.8626C23.7667 30.4196 26.4478 23.4855 26.4478 17.7781V8.80931C27.175 8.53019 27.9095 8.22168 28.644 7.88379Z" fill="#414B3D"/>
<path d="M17.7451 42.466C17.7378 42.466 17.7231 42.466 17.7157 42.466L14.3074 42.106C12.9485 41.9591 11.7879 41.3862 10.8624 40.3872C10.7743 40.2917 10.7669 40.1595 10.833 40.0493C10.8991 39.9465 11.0314 39.8951 11.1489 39.9391C11.4647 40.042 11.81 40.1154 12.1626 40.1448L15.4166 40.49L19.2215 35.6935C23.5113 30.3019 26.1703 23.4339 26.1703 17.7779V8.80914C26.1703 8.69161 26.2438 8.59612 26.3466 8.55205C27.0812 8.27292 27.8157 7.96441 28.5282 7.63387C28.6164 7.59714 28.7118 7.60449 28.7926 7.64856C28.8734 7.69998 28.9175 7.78812 28.9175 7.88361V19.1809C28.9175 24.9544 26.207 31.9546 21.8512 37.4417L17.9581 42.3558C17.9067 42.4292 17.8259 42.466 17.7451 42.466ZM12.0303 40.681C12.7061 41.1658 13.4921 41.4596 14.3662 41.5551L17.6202 41.9004L21.4178 37.1038C25.7002 31.7049 28.3666 24.8369 28.3666 19.1809V8.30965C27.823 8.55205 27.2721 8.77976 26.7212 9.00012V17.7779C26.7212 23.5514 24.0108 30.5516 19.6549 36.0313L15.7545 40.9454C15.6957 41.0189 15.6002 41.0556 15.5121 41.0483L12.1111 40.6884C12.0818 40.6884 12.0597 40.6884 12.0303 40.681Z" fill="#111111"/>
<path d="M26.4465 8.81641V17.7778C26.4465 23.4853 23.7654 30.4193 19.439 35.8623L15.5385 40.7764L12.1376 40.4165C11.763 40.3798 11.4031 40.3063 11.0652 40.1961C9.71361 38.7344 8.95703 36.3692 8.95703 33.3281V19.4379C12.7326 17.1094 16.42 14.1345 19.9458 10.572C22.076 10.2488 24.2429 9.65379 26.4465 8.81641Z" fill="#9BE9C1"/>
<path d="M15.5403 41.0554C15.533 41.0554 15.5183 41.0554 15.5109 41.0554L12.11 40.6955C11.7134 40.6588 11.3387 40.578 10.9788 40.4604C10.9347 40.4457 10.8907 40.4237 10.8613 40.387C9.43627 38.8444 8.67969 36.4057 8.67969 33.3354V19.4378C8.67969 19.3423 8.73111 19.2541 8.8119 19.2027C12.5654 16.8889 16.2455 13.9214 19.7493 10.3808C19.7933 10.3368 19.8448 10.3074 19.9035 10.3C21.9602 9.98419 24.1272 9.4039 26.3455 8.55918C26.4336 8.5298 26.5218 8.53714 26.6026 8.58856C26.676 8.63998 26.7201 8.72812 26.7201 8.81627V17.7777C26.7201 23.5512 24.0096 30.5514 19.6538 36.0311L15.7533 40.9452C15.7019 41.0187 15.6211 41.0554 15.5403 41.0554ZM11.2212 39.9609C11.515 40.0491 11.8382 40.1152 12.1688 40.1446L15.4228 40.4898L19.2277 35.6932C23.5101 30.3017 26.1692 23.4337 26.1692 17.7777V9.21292C24.0757 9.98419 22.0264 10.5278 20.0798 10.8289C16.6054 14.3327 12.9547 17.2782 9.2306 19.592V33.328C9.2306 36.2221 9.92107 38.5139 11.2212 39.9609Z" fill="#111111"/>
<path d="M31.321 3.91696V3.9243C31.321 3.94634 31.321 3.96838 31.3136 3.99776C31.3136 4.01979 31.2989 4.04183 31.2842 4.06387C31.2695 4.0859 31.2622 4.10059 31.2402 4.11528C31.2255 4.13732 31.2108 4.14467 31.1887 4.15936C31.1741 4.17405 31.1447 4.18139 31.1226 4.19608C31.0933 4.20343 31.0712 4.20343 31.0492 4.20343C31.0051 4.20343 30.9537 4.18874 30.9096 4.15936L30.7701 4.07856L30.4983 3.9243L24.7688 0.589472C20.8611 2.82249 17.0194 4.2475 13.3393 4.80576C13.2145 4.82779 13.0822 4.84983 12.9574 4.86452L12.6562 4.90859L12.5681 4.99674L12.3183 5.24648C8.62355 9.00735 4.75985 12.0851 0.815344 14.4209L0.550908 14.5752V29.6774C0.550908 33.5705 1.68945 36.7217 3.76821 38.5507C4.0253 38.7784 4.34116 38.9914 4.78188 39.2485L8.64559 41.5183L9.41686 41.9737L10.8272 42.8037L10.8419 42.8111C10.9741 42.8845 11.0182 43.0535 10.9374 43.1857V43.193C10.8786 43.2738 10.7978 43.3253 10.7023 43.3253C10.6509 43.3253 10.6068 43.3106 10.5627 43.2812L4.50276 39.7186C4.03265 39.4469 3.69476 39.2192 3.40094 38.9621C1.20465 37.0229 0 33.7248 0 29.6774V14.4209C0 14.3916 0.00734544 14.3695 0.00734544 14.3401C0.0146909 14.3181 0.0220363 14.2961 0.0367272 14.2814V14.274C0.0514181 14.252 0.066109 14.2373 0.0807999 14.2226C0.0954907 14.2079 0.110182 14.1932 0.132218 14.1785C4.17956 11.8427 8.1461 8.70619 11.9217 4.86452L12.3257 4.45317C12.3697 4.41645 12.4285 4.38707 12.4799 4.37972C12.4946 4.37237 12.5093 4.37237 12.524 4.37237L12.8766 4.32096C16.6521 3.79943 20.604 2.35972 24.6293 0.0385636C24.7174 -0.0128545 24.8202 -0.0128545 24.9084 0.0385636L31.1887 3.68925C31.2108 3.70394 31.2255 3.71128 31.2402 3.73332C31.2622 3.74801 31.2769 3.77005 31.2842 3.78474C31.2916 3.78474 31.2916 3.78474 31.2916 3.79208C31.3136 3.82881 31.321 3.87288 31.321 3.91696Z" fill="#111111"/>
<path d="M19.0688 8.26564C19.0762 8.32441 19.0615 8.39052 19.0321 8.44193C18.9807 8.53008 18.8852 8.5815 18.7897 8.5815C18.7456 8.5815 18.6942 8.56681 18.6501 8.53742L18.5914 8.50804L18.349 8.36113L12.5608 4.99692L12.3771 4.88674C12.3551 4.87205 12.3404 4.8647 12.3257 4.84267C12.2376 4.76187 12.2082 4.6223 12.2743 4.51212C12.289 4.49009 12.3037 4.46805 12.3184 4.45336C12.3625 4.41663 12.4212 4.38725 12.4726 4.3799C12.4873 4.37256 12.502 4.37256 12.5167 4.37256C12.5608 4.37256 12.6049 4.38725 12.6489 4.40929L12.9501 4.58558L13.3321 4.80594L18.8485 8.0159L18.9293 8.06732C19.0101 8.11139 19.0541 8.18484 19.0688 8.26564Z" fill="#111111"/>
<path d="M18.7896 45C18.7823 45 18.7676 45 18.7602 45L14.0371 44.5005C12.7517 44.3683 11.5764 43.9569 10.5407 43.2811C7.78613 41.4815 6.26562 37.9483 6.26562 33.3354V18.0716C6.26562 17.9761 6.31704 17.8806 6.40519 17.8365C10.4452 15.4933 14.4191 12.3642 18.1946 8.5225L18.5913 8.11115C18.6353 8.06708 18.6941 8.0377 18.7529 8.03035L19.1569 7.97894C22.9104 7.46476 26.8622 6.0177 30.9022 3.6892C30.9904 3.63778 31.0932 3.63778 31.1814 3.6892C31.2695 3.74062 31.3209 3.82876 31.3209 3.9316V19.1881C31.3209 25.4758 28.4121 33.0489 23.7331 38.94L19.01 44.8971C18.9512 44.9632 18.8704 45 18.7896 45ZM6.81653 18.2332V33.3281C6.81653 37.75 8.24889 41.1216 10.8418 42.8184C11.7967 43.4427 12.8912 43.8247 14.0885 43.9496L18.6647 44.4344L23.2924 38.5947C27.9053 32.7918 30.77 25.3509 30.77 19.1807V4.40171C26.8108 6.62738 22.9324 8.01566 19.2377 8.52984L18.9292 8.56657L18.5986 8.90446C14.8157 12.7388 10.8565 15.8753 6.81653 18.2332Z" fill="#111111"/>
</svg>
