<svg width="30" height="46" viewBox="0 0 30 46" fill="none" xmlns="http://www.w3.org/2000/svg">
<path d="M21.8179 27.8098C21.8179 26.8995 21.4971 26.213 20.9151 25.8698C20.5718 25.6683 20.1838 25.631 19.751 25.7131H19.7212C19.7063 25.7131 19.6914 25.7131 19.669 25.7206C19.654 25.7206 19.6391 25.7205 19.6242 25.728C19.6093 25.7355 19.6018 25.7355 19.5869 25.7429C19.3183 25.8026 19.0571 25.8996 18.781 26.0563C17.2663 26.9293 16.0277 29.0708 16.0277 30.8243C16.0277 31.8988 16.4978 32.6674 17.2738 32.8912L16.8932 35.3685C16.8783 35.473 16.9231 35.5774 17.0126 35.6371C17.0574 35.6744 17.1171 35.6893 17.1693 35.6893C17.2215 35.6893 17.2663 35.6744 17.3111 35.652L20.8181 33.6299C20.9225 33.5702 20.9748 33.4508 20.9524 33.3315L20.5569 31.2049C21.3478 30.1602 21.8179 28.8992 21.8179 27.8098ZM17.5349 34.876L17.8707 32.7121C17.8782 32.6375 17.8632 32.5629 17.811 32.4958C17.7662 32.4361 17.6991 32.3987 17.6245 32.3913C16.9753 32.3167 16.5873 31.7347 16.5873 30.8243C16.5873 29.2499 17.6991 27.3248 19.0646 26.5413C19.2213 26.4518 19.3705 26.3772 19.5197 26.3324C19.557 26.504 19.5794 26.6906 19.5794 26.892C19.5794 27.877 19.1093 29.0858 18.3557 30.0409C18.2587 30.1602 18.2811 30.3393 18.4005 30.4289C18.4527 30.4736 18.5199 30.496 18.5796 30.496C18.6616 30.496 18.7437 30.4587 18.796 30.3841C19.6391 29.3245 20.1391 28.0187 20.1391 26.892C20.1391 26.6533 20.1167 26.4294 20.0719 26.2205C20.0794 26.2205 20.0794 26.2205 20.0868 26.2205C20.2883 26.2205 20.4748 26.2653 20.6315 26.3548C21.0345 26.5936 21.2583 27.1084 21.2583 27.8098C21.2583 28.7948 20.7882 30.0036 20.0346 30.9586C19.9898 31.0183 19.9674 31.1004 19.9824 31.1825L20.3629 33.2419L17.5349 34.876ZM21.8179 27.8098C21.8179 26.8995 21.4971 26.213 20.9151 25.8698C20.5718 25.6683 20.1838 25.631 19.751 25.7131H19.7212C19.7063 25.7131 19.6914 25.7131 19.669 25.7206C19.654 25.7206 19.6391 25.7205 19.6242 25.728C19.6093 25.7355 19.6018 25.7355 19.5869 25.7429C19.3183 25.8026 19.0571 25.8996 18.781 26.0563C17.2663 26.9293 16.0277 29.0708 16.0277 30.8243C16.0277 31.8988 16.4978 32.6674 17.2738 32.8912L16.8932 35.3685C16.8783 35.473 16.9231 35.5774 17.0126 35.6371C17.0574 35.6744 17.1171 35.6893 17.1693 35.6893C17.2215 35.6893 17.2663 35.6744 17.3111 35.652L20.8181 33.6299C20.9225 33.5702 20.9748 33.4508 20.9524 33.3315L20.5569 31.2049C21.3478 30.1602 21.8179 28.8992 21.8179 27.8098ZM17.5349 34.876L17.8707 32.7121C17.8782 32.6375 17.8632 32.5629 17.811 32.4958C17.7662 32.4361 17.6991 32.3987 17.6245 32.3913C16.9753 32.3167 16.5873 31.7347 16.5873 30.8243C16.5873 29.2499 17.6991 27.3248 19.0646 26.5413C19.2213 26.4518 19.3705 26.3772 19.5197 26.3324C19.557 26.504 19.5794 26.6906 19.5794 26.892C19.5794 27.877 19.1093 29.0858 18.3557 30.0409C18.2587 30.1602 18.2811 30.3393 18.4005 30.4289C18.4527 30.4736 18.5199 30.496 18.5796 30.496C18.6616 30.496 18.7437 30.4587 18.796 30.3841C19.6391 29.3245 20.1391 28.0187 20.1391 26.892C20.1391 26.6533 20.1167 26.4294 20.0719 26.2205C20.0794 26.2205 20.0794 26.2205 20.0868 26.2205C20.2883 26.2205 20.4748 26.2653 20.6315 26.3548C21.0345 26.5936 21.2583 27.1084 21.2583 27.8098C21.2583 28.7948 20.7882 30.0036 20.0346 30.9586C19.9898 31.0183 19.9674 31.1004 19.9824 31.1825L20.3629 33.2419L17.5349 34.876ZM29.1826 15.9308C29.1677 15.9159 29.1453 15.901 29.1229 15.8861C29.1154 15.8786 29.1154 15.8711 29.108 15.8711C29.0931 15.8637 29.0781 15.8562 29.0558 15.8488L21.8105 11.6702V5.67103C21.8105 3.36537 20.9001 1.52234 19.3108 0.604553C17.7215 -0.313233 15.6695 -0.178923 13.6772 0.977637C10.1852 2.99229 7.45421 7.72299 7.45421 11.7523V18.2887L2.32058 21.2585C1.04463 21.9972 0.0373084 23.7208 0.00746167 25.2132C0 25.2355 0 25.2579 0 25.2878V38.577C0 39.3754 0.298467 39.9873 0.813322 40.2559L8.663 44.7777L8.77493 44.8374C8.79731 44.8523 8.8197 44.8597 8.84208 44.8672C9.02863 44.9567 9.23009 45.0015 9.44648 45.0015C9.79718 45.0015 10.1703 44.8896 10.5657 44.6657L27.5634 34.8536C28.8692 34.1 29.8915 32.3316 29.8915 30.8243V17.5276C29.8915 16.7889 29.6452 16.2293 29.1826 15.9308ZM8.01384 11.7523C8.01384 7.90207 10.618 3.3803 13.9533 1.46265C14.983 0.865712 16.0277 0.559783 16.9977 0.559783C17.7289 0.559783 18.4229 0.738863 19.0347 1.08956C20.445 1.90288 21.2508 3.5743 21.2508 5.67103V14.5877C21.2508 15.3339 20.6465 15.9383 19.9003 15.9383C19.1541 15.9383 18.5497 15.3339 18.5497 14.5877V5.67103C18.5497 4.5667 18.2363 3.74592 17.6842 3.43253C17.132 3.11168 16.2664 3.24599 15.3039 3.79815C14.304 4.3727 13.3564 5.30541 12.5431 6.48435C11.9685 7.30514 11.5357 8.15577 11.2149 9.07355C10.8791 10.0212 10.715 10.9166 10.715 11.7523V20.669C10.715 21.4152 10.1031 22.0196 9.3644 22.0196C8.61823 22.0196 8.01384 21.4152 8.01384 20.669V11.7523ZM17.9901 12.2149L11.2746 16.0875V11.7523C11.2746 10.9912 11.4387 10.1331 11.7447 9.26009C12.0431 8.38708 12.461 7.58122 13.0057 6.79774C13.7593 5.70088 14.6697 4.81294 15.5874 4.28316C16.3411 3.84292 17.035 3.70115 17.4006 3.91754C17.7662 4.12646 17.9901 4.79801 17.9901 5.67103V12.2149ZM7.45421 18.9379V20.669C7.45421 21.7286 8.30484 22.5792 9.3644 22.5792C10.4165 22.5792 11.2746 21.7286 11.2746 20.669V16.7367L17.9901 12.8566V14.5877C17.9901 15.6398 18.8482 16.4979 19.9003 16.4979C20.9524 16.4979 21.8105 15.6398 21.8105 14.5877V12.3119L27.832 15.7891C27.653 15.8413 27.4739 15.9234 27.2873 16.0278L10.4165 25.7653L3.02198 21.4972L7.45421 18.9379ZM1.08194 39.7634C0.746167 39.5918 0.559626 39.159 0.559626 38.577V25.7653L6.30511 29.0783C6.34988 29.1007 6.39465 29.1156 6.43942 29.1156C6.53643 29.1156 6.63343 29.0634 6.68566 28.9738C6.76028 28.8395 6.71551 28.6679 6.5812 28.5933L0.567087 25.1236C0.634242 23.9074 1.45503 22.4896 2.46981 21.833L9.89418 26.1086C8.78239 26.9517 7.95414 28.5187 7.95414 29.8692V43.1659C7.95414 43.3749 7.97653 43.5763 8.0213 43.7554L1.08194 39.7634ZM29.3318 30.8243C29.3318 32.1227 28.4141 33.712 27.2873 34.3686L10.2822 44.1807C9.8121 44.4494 9.37186 44.5165 9.05847 44.3598C9.05847 44.3523 9.05101 44.3523 9.05101 44.3523L8.96893 44.3076C8.67793 44.1061 8.51377 43.7032 8.51377 43.1659V29.8692C8.51377 28.5709 9.43155 26.9816 10.5583 26.3324L21.2658 20.1467L27.5634 16.5128C27.8694 16.3412 28.1529 16.2517 28.3991 16.2517C28.5484 16.2517 28.6827 16.2815 28.8021 16.3412L28.8468 16.3711C28.8543 16.3711 28.8543 16.3785 28.8618 16.3785C29.1677 16.5725 29.3318 16.9829 29.3318 17.5276V30.8243ZM20.9151 25.8698C20.5718 25.6683 20.1838 25.631 19.751 25.7131H19.7212C19.7063 25.7131 19.6914 25.7131 19.669 25.7206C19.654 25.7206 19.6391 25.7205 19.6242 25.728C19.6093 25.7355 19.6018 25.7355 19.5869 25.7429C19.3183 25.8026 19.0571 25.8996 18.781 26.0563C17.2663 26.9293 16.0277 29.0708 16.0277 30.8243C16.0277 31.8988 16.4978 32.6674 17.2738 32.8912L16.8932 35.3685C16.8783 35.473 16.9231 35.5774 17.0126 35.6371C17.0574 35.6744 17.1171 35.6893 17.1693 35.6893C17.2215 35.6893 17.2663 35.6744 17.3111 35.652L20.8181 33.6299C20.9225 33.5702 20.9748 33.4508 20.9524 33.3315L20.5569 31.2049C21.3478 30.1602 21.8179 28.8992 21.8179 27.8098C21.8179 26.8995 21.4971 26.213 20.9151 25.8698ZM20.0346 30.9586C19.9898 31.0183 19.9674 31.1004 19.9824 31.1825L20.3629 33.2419L17.5349 34.876L17.8707 32.7121C17.8782 32.6375 17.8632 32.5629 17.811 32.4958C17.7662 32.4361 17.6991 32.3987 17.6245 32.3913C16.9753 32.3167 16.5873 31.7347 16.5873 30.8243C16.5873 29.2499 17.6991 27.3248 19.0646 26.5413C19.2213 26.4518 19.3705 26.3772 19.5197 26.3324C19.557 26.504 19.5794 26.6906 19.5794 26.892C19.5794 27.877 19.1093 29.0858 18.3557 30.0409C18.2587 30.1602 18.2811 30.3393 18.4005 30.4289C18.4527 30.4736 18.5199 30.496 18.5796 30.496C18.6616 30.496 18.7437 30.4587 18.796 30.3841C19.6391 29.3245 20.1391 28.0187 20.1391 26.892C20.1391 26.6533 20.1167 26.4294 20.0719 26.2205C20.0794 26.2205 20.0794 26.2205 20.0868 26.2205C20.2883 26.2205 20.4748 26.2653 20.6315 26.3548C21.0345 26.5936 21.2583 27.1084 21.2583 27.8098C21.2583 28.7948 20.7882 30.0036 20.0346 30.9586Z" fill="#FCB76D"/>
<path d="M7.95311 29.8692V43.1659C7.95311 43.3749 7.9755 43.5763 8.02027 43.7554L1.08091 39.7634C0.745136 39.5918 0.558594 39.159 0.558594 38.577V25.7653L6.30408 29.0783C6.34885 29.1007 6.39362 29.1156 6.43839 29.1156C6.53539 29.1156 6.6324 29.0634 6.68463 28.9738C6.75924 28.8395 6.71447 28.6679 6.58016 28.5933L0.566055 25.1236C0.63321 23.9074 1.45399 22.4896 2.46878 21.833L9.89315 26.1085C8.78136 26.9517 7.95311 28.5187 7.95311 29.8692Z" fill="#9BE9C1"/>
<path d="M27.8335 15.789C27.6544 15.8413 27.4753 15.9233 27.2888 16.0278L10.418 25.7653L3.02344 21.4972L7.45567 18.9379V20.669C7.45567 21.7285 8.3063 22.5792 9.36586 22.5792C10.418 22.5792 11.276 21.7285 11.276 20.669V16.7367L17.9916 12.8566V14.5877C17.9916 15.6398 18.8496 16.4979 19.9017 16.4979C20.9538 16.4979 21.8119 15.6398 21.8119 14.5877V12.3119L27.8335 15.789Z" fill="#414B3D"/>
<path d="M27.8349 15.789C27.6558 15.8412 27.4768 15.9233 27.2902 16.0278L10.4194 25.7652L10.5612 25.8473C10.6955 25.9219 10.7477 26.0936 10.6656 26.2279C10.6432 26.2726 10.6059 26.3099 10.5612 26.3323L21.2687 20.1466L27.5663 16.5128C27.8722 16.3412 28.1558 16.2516 28.402 16.2516C28.5513 16.2516 28.6856 16.2815 28.8049 16.3412L27.8349 15.789ZM27.8349 15.789C27.6558 15.8412 27.4768 15.9233 27.2902 16.0278L10.4194 25.7652L10.5612 25.8473C10.6955 25.9219 10.7477 26.0936 10.6656 26.2279C10.6432 26.2726 10.6059 26.3099 10.5612 26.3323L21.2687 20.1466L27.5663 16.5128C27.8722 16.3412 28.1558 16.2516 28.402 16.2516C28.5513 16.2516 28.6856 16.2815 28.8049 16.3412L27.8349 15.789ZM27.8349 15.789C27.6558 15.8412 27.4768 15.9233 27.2902 16.0278L10.4194 25.7652L10.5612 25.8473C10.6955 25.9219 10.7477 26.0936 10.6656 26.2279C10.6432 26.2726 10.6059 26.3099 10.5612 26.3323L21.2687 20.1466L27.5663 16.5128C27.8722 16.3412 28.1558 16.2516 28.402 16.2516C28.5513 16.2516 28.6856 16.2815 28.8049 16.3412L27.8349 15.789ZM29.1855 15.9308C29.1706 15.9158 29.1482 15.9009 29.1258 15.886C29.1183 15.8785 29.1183 15.8711 29.1109 15.8711C29.096 15.8636 29.081 15.8561 29.0586 15.8487C28.7079 15.6621 28.2826 15.6398 27.8349 15.789C27.6558 15.8412 27.4768 15.9233 27.2902 16.0278L10.4194 25.7652L10.2851 25.8473C10.1508 25.9219 10.0239 26.0115 9.89707 26.1085C8.78528 26.9517 7.95703 28.5186 7.95703 29.8692V43.1659C7.95703 43.3748 7.97942 43.5763 8.02419 43.7553C8.12119 44.203 8.34504 44.5537 8.66589 44.7776L8.77782 44.8373C8.8002 44.8522 8.82259 44.8597 8.84497 44.8671C9.03151 44.9567 9.23298 45.0014 9.44937 45.0014C9.80006 45.0014 10.1731 44.8895 10.5686 44.6657L27.5663 34.8536C28.8721 34.0999 29.8944 32.3315 29.8944 30.8243V17.5276C29.8944 16.7889 29.6481 16.2292 29.1855 15.9308ZM29.3347 30.8243C29.3347 32.1226 28.4169 33.7119 27.2902 34.3686L10.2851 44.1807C9.81499 44.4493 9.37475 44.5164 9.06136 44.3597C9.06136 44.3523 9.0539 44.3523 9.0539 44.3523L8.97182 44.3075C8.68081 44.106 8.51666 43.7031 8.51666 43.1659V29.8692C8.51666 28.5708 9.43444 26.9815 10.5612 26.3323L21.2687 20.1466L27.5663 16.5128C27.8722 16.3412 28.1558 16.2516 28.402 16.2516C28.5513 16.2516 28.6856 16.2815 28.8049 16.3412L28.8497 16.371C28.8572 16.371 28.8572 16.3785 28.8646 16.3785C29.1706 16.5725 29.3347 16.9829 29.3347 17.5276V30.8243ZM27.8349 15.789C27.6558 15.8412 27.4768 15.9233 27.2902 16.0278L10.4194 25.7652L10.5612 25.8473C10.6955 25.9219 10.7477 26.0936 10.6656 26.2279C10.6432 26.2726 10.6059 26.3099 10.5612 26.3323L21.2687 20.1466L27.5663 16.5128C27.8722 16.3412 28.1558 16.2516 28.402 16.2516C28.5513 16.2516 28.6856 16.2815 28.8049 16.3412L27.8349 15.789ZM27.8349 15.789C27.6558 15.8412 27.4768 15.9233 27.2902 16.0278L10.4194 25.7652L10.5612 25.8473C10.6955 25.9219 10.7477 26.0936 10.6656 26.2279C10.6432 26.2726 10.6059 26.3099 10.5612 26.3323L21.2687 20.1466L27.5663 16.5128C27.8722 16.3412 28.1558 16.2516 28.402 16.2516C28.5513 16.2516 28.6856 16.2815 28.8049 16.3412L27.8349 15.789ZM27.8349 15.789C27.6558 15.8412 27.4768 15.9233 27.2902 16.0278L10.4194 25.7652L10.5612 25.8473C10.6955 25.9219 10.7477 26.0936 10.6656 26.2279C10.6432 26.2726 10.6059 26.3099 10.5612 26.3323L21.2687 20.1466L27.5663 16.5128C27.8722 16.3412 28.1558 16.2516 28.402 16.2516C28.5513 16.2516 28.6856 16.2815 28.8049 16.3412L27.8349 15.789Z" fill="#111111"/>
<path d="M28.8597 16.3784C28.8522 16.3784 28.8522 16.371 28.8448 16.371L28.8 16.3411C28.6806 16.2814 28.5463 16.2516 28.3971 16.2516C28.1508 16.2516 27.8673 16.3411 27.5614 16.5127L21.2637 20.1466L10.5562 26.3323C9.4295 26.9815 8.51172 28.5708 8.51172 29.8691V43.1658C8.51172 43.7031 8.67588 44.106 8.96688 44.3075L9.04896 44.3522C9.04896 44.3522 9.05642 44.3522 9.05642 44.3597C9.36981 44.5164 9.81005 44.4493 10.2801 44.1806L27.2853 34.3685C28.412 33.7119 29.3298 32.1226 29.3298 30.8242V17.5275C29.3298 16.9828 29.1656 16.5724 28.8597 16.3784ZM20.9503 33.3314C20.9727 33.4507 20.9205 33.5701 20.816 33.6298L17.309 35.6519C17.2643 35.6743 17.2195 35.6892 17.1673 35.6892C17.115 35.6892 17.0553 35.6743 17.0106 35.637C16.921 35.5773 16.8763 35.4729 16.8912 35.3684L17.2717 32.8911C16.4957 32.6673 16.0256 31.8987 16.0256 30.8242C16.0256 29.0707 17.2643 26.9292 18.779 26.0562C19.0551 25.8995 19.3162 25.8025 19.5848 25.7428C19.5998 25.7354 19.6072 25.7354 19.6222 25.7279C19.6371 25.7204 19.652 25.7205 19.6669 25.7205C19.6893 25.713 19.7042 25.713 19.7192 25.713H19.749C20.1818 25.6309 20.5698 25.6682 20.913 25.8697C21.495 26.2129 21.8159 26.8994 21.8159 27.8097C21.8159 28.8991 21.3458 30.1601 20.5549 31.2048L20.9503 33.3314Z" fill="#38EA8E"/>
<path d="M21.8215 27.8099C21.8215 26.8996 21.5007 26.2131 20.9186 25.8698C20.5754 25.6684 20.1874 25.6311 19.7546 25.7131H19.7248C19.7099 25.7131 19.6949 25.7131 19.6725 25.7206C19.6576 25.7206 19.6427 25.7206 19.6278 25.7281C19.6129 25.7355 19.6054 25.7355 19.5905 25.743C19.3218 25.8027 19.0607 25.8997 18.7846 26.0564C17.2699 26.9294 16.0312 29.0709 16.0312 30.8244C16.0312 31.8989 16.5013 32.6674 17.2773 32.8913L16.8968 35.3686C16.8819 35.473 16.9267 35.5775 17.0162 35.6372C17.061 35.6745 17.1207 35.6894 17.1729 35.6894C17.2251 35.6894 17.2699 35.6745 17.3147 35.6521L20.8216 33.63C20.9261 33.5703 20.9783 33.4509 20.956 33.3315L20.5605 31.2049C21.3514 30.1603 21.8215 28.8993 21.8215 27.8099ZM17.5385 34.8761L17.8743 32.7122C17.8817 32.6376 17.8668 32.563 17.8146 32.4958C17.7698 32.4361 17.7027 32.3988 17.628 32.3913C16.9789 32.3167 16.5909 31.7347 16.5909 30.8244C16.5909 29.25 17.7027 27.3249 19.0682 26.5414C19.2248 26.4519 19.3741 26.3772 19.5233 26.3325C19.7173 26.2578 19.9039 26.2205 20.0755 26.2205C20.0829 26.2205 20.0829 26.2205 20.0904 26.2205C20.2919 26.2205 20.4784 26.2653 20.6351 26.3548C21.038 26.5936 21.2619 27.1085 21.2619 27.8099C21.2619 28.7948 20.7918 30.0036 20.0382 30.9587C19.9934 31.0184 19.971 31.1005 19.9859 31.1826L20.3665 33.242L17.5385 34.8761Z" fill="#111111"/>
<path d="M20.1409 26.8921C20.1409 28.0188 19.641 29.3246 18.7978 30.3841C18.7456 30.4588 18.6635 30.4961 18.5814 30.4961C18.5217 30.4961 18.4546 30.4737 18.4023 30.4289C18.283 30.3394 18.2606 30.1603 18.3576 30.0409C19.1112 29.0858 19.5813 27.877 19.5813 26.8921C19.5813 26.6906 19.5589 26.5041 19.5216 26.3325C19.5067 26.2429 19.4843 26.1608 19.4544 26.0788C19.4097 25.9519 19.4619 25.8101 19.5888 25.743C19.6037 25.7355 19.6111 25.7355 19.6261 25.7281C19.641 25.7206 19.6559 25.7206 19.6708 25.7206C19.6932 25.7131 19.7081 25.7131 19.7231 25.7131H19.7529C19.8499 25.7206 19.9469 25.7878 19.9842 25.8922C20.0215 25.9967 20.0514 26.1086 20.0738 26.2205C20.1185 26.4295 20.1409 26.6533 20.1409 26.8921Z" fill="#111111"/>
<path d="M29.2265 16.2665C29.1743 16.3561 29.0773 16.4083 28.9803 16.4083C28.943 16.4083 28.8982 16.3934 28.8609 16.3785C28.8534 16.3785 28.8534 16.371 28.846 16.371L28.8012 16.3412L27.8312 15.789L21.8096 12.3119L21.3918 12.0731C21.3022 12.0208 21.25 11.9313 21.25 11.8343C21.25 11.7821 21.2649 11.7373 21.2873 11.6925C21.3619 11.5582 21.5335 11.5135 21.6679 11.5881L21.8096 11.6701L29.0549 15.8487L29.1221 15.886C29.1445 15.9009 29.1668 15.9158 29.1818 15.9308C29.2713 16.0203 29.2862 16.1546 29.2265 16.2665Z" fill="#111111"/>
<path d="M18.5535 12.3791C18.5535 12.4761 18.5013 12.5656 18.4117 12.6179L17.9939 12.8567L11.2784 16.7367L11.1366 16.8188C11.0918 16.8412 11.0471 16.8561 10.9948 16.8561C10.8978 16.8561 10.8083 16.8039 10.7561 16.7143C10.7411 16.692 10.7337 16.6696 10.7188 16.6472V16.4979C10.7337 16.4681 10.7486 16.4308 10.771 16.4084C10.7934 16.3786 10.8232 16.3562 10.8531 16.3338L11.2784 16.0876L17.9939 12.2149L18.1357 12.1329C18.27 12.0583 18.4341 12.103 18.5162 12.2373C18.5386 12.2821 18.5535 12.3269 18.5535 12.3791Z" fill="#111111"/>
<path d="M9.15547 44.7328C9.10324 44.8224 9.0137 44.8746 8.9167 44.8746C8.89431 44.8746 8.86447 44.8746 8.84208 44.8671C8.8197 44.8597 8.79731 44.8522 8.77493 44.8373L8.663 44.7776L0.813322 40.2558C0.298467 39.9872 0 39.3754 0 38.577V25.2877C0 25.2579 0 25.2355 0.00746167 25.2131C0.0373084 23.7208 1.04463 21.9971 2.32058 21.2584L7.45421 18.2887L7.58852 18.214C7.72283 18.1394 7.89445 18.1842 7.97653 18.3185C7.99891 18.3633 8.01384 18.408 8.01384 18.4603C8.01384 18.5573 7.96161 18.6468 7.87207 18.6991L7.45421 18.9378L3.02198 21.4972L2.60412 21.7434C2.55935 21.7658 2.51458 21.7957 2.46981 21.833C1.45503 22.4896 0.634242 23.9073 0.567087 25.1236C0.559625 25.1758 0.559626 25.2355 0.559626 25.2877V38.577C0.559626 39.159 0.746167 39.5917 1.08194 39.7634L8.0213 43.7554L8.96893 44.3075L9.05101 44.3523C9.05101 44.3523 9.05847 44.3523 9.05847 44.3598C9.18532 44.4344 9.23009 44.5985 9.15547 44.7328Z" fill="#111111"/>
<path d="M10.6622 26.2278C10.6399 26.2726 10.6026 26.3099 10.5578 26.3323C10.5205 26.3547 10.4757 26.3696 10.4235 26.3696C10.3712 26.3696 10.3265 26.3547 10.2817 26.3323L9.89369 26.1084L2.46933 21.8329L2.3201 21.7434C2.18579 21.6687 2.14102 21.4971 2.21563 21.3628C2.23802 21.318 2.28279 21.2807 2.3201 21.2584C2.40964 21.2136 2.5141 21.2061 2.60364 21.2584L3.02149 21.4971L10.416 25.7652L10.5578 25.8473C10.6921 25.9219 10.7443 26.0935 10.6622 26.2278Z" fill="#111111"/>
<path d="M17.6831 3.43253C17.1309 3.11168 16.2654 3.24599 15.3028 3.79815C14.3029 4.3727 13.3553 5.30541 12.542 6.48435C11.9674 7.30514 11.5347 8.15577 11.2138 9.07355C10.878 10.0212 10.7139 10.9166 10.7139 11.7523V16.4979C10.7288 16.4681 10.7437 16.4308 10.7661 16.4084C10.7885 16.3785 10.8183 16.3487 10.8482 16.3338L11.2735 16.0875V11.7523C11.2735 10.9912 11.4377 10.1331 11.7436 9.26009C12.0421 8.38708 12.4599 7.58122 13.0046 6.79774C13.7582 5.70088 14.6686 4.81294 15.5863 4.28316C16.34 3.84292 17.0339 3.70115 17.3995 3.91754C17.7652 4.12646 17.989 4.79801 17.989 5.67103V12.2149L18.1308 12.1328C18.2651 12.0582 18.4292 12.103 18.5113 12.2373C18.5337 12.2821 18.5486 12.3268 18.5486 12.3791V5.67103C18.5486 4.5667 18.2352 3.74592 17.6831 3.43253ZM17.6831 3.43253C17.1309 3.11168 16.2654 3.24599 15.3028 3.79815C14.3029 4.3727 13.3553 5.30541 12.542 6.48435C11.9674 7.30514 11.5347 8.15577 11.2138 9.07355C10.878 10.0212 10.7139 10.9166 10.7139 11.7523V16.4979C10.7288 16.4681 10.7437 16.4308 10.7661 16.4084C10.7885 16.3785 10.8183 16.3487 10.8482 16.3338L11.2735 16.0875V11.7523C11.2735 10.9912 11.4377 10.1331 11.7436 9.26009C12.0421 8.38708 12.4599 7.58122 13.0046 6.79774C13.7582 5.70088 14.6686 4.81294 15.5863 4.28316C16.34 3.84292 17.0339 3.70115 17.3995 3.91754C17.7652 4.12646 17.989 4.79801 17.989 5.67103V12.2149L18.1308 12.1328C18.2651 12.0582 18.4292 12.103 18.5113 12.2373C18.5337 12.2821 18.5486 12.3268 18.5486 12.3791V5.67103C18.5486 4.5667 18.2352 3.74592 17.6831 3.43253ZM17.6831 3.43253C17.1309 3.11168 16.2654 3.24599 15.3028 3.79815C14.3029 4.3727 13.3553 5.30541 12.542 6.48435C11.9674 7.30514 11.5347 8.15577 11.2138 9.07355C10.878 10.0212 10.7139 10.9166 10.7139 11.7523V20.669C10.7139 21.4152 10.102 22.0196 9.36331 22.0196C8.61715 22.0196 8.01275 21.4152 8.01275 20.669V18.4603C8.01275 18.5573 7.96052 18.6469 7.87098 18.6991L7.45312 18.9379V20.669C7.45312 21.7286 8.30376 22.5792 9.36331 22.5792C10.4154 22.5792 11.2735 21.7286 11.2735 20.669V11.7523C11.2735 10.9912 11.4377 10.1331 11.7436 9.26009C12.0421 8.38708 12.4599 7.58122 13.0046 6.79774C13.7582 5.70088 14.6686 4.81294 15.5863 4.28316C16.34 3.84292 17.0339 3.70115 17.3995 3.91754C17.7652 4.12646 17.989 4.79801 17.989 5.67103V12.2149L18.1308 12.1328C18.2651 12.0582 18.4292 12.103 18.5113 12.2373C18.5337 12.2821 18.5486 12.3268 18.5486 12.3791V5.67103C18.5486 4.5667 18.2352 3.74592 17.6831 3.43253ZM19.3097 0.604553C17.7204 -0.313233 15.6684 -0.178923 13.6762 0.977637C10.1841 2.99229 7.45312 7.72299 7.45312 11.7523V20.669C7.45312 21.7286 8.30376 22.5792 9.36331 22.5792C10.4154 22.5792 11.2735 21.7286 11.2735 20.669V11.7523C11.2735 10.9912 11.4377 10.1331 11.7436 9.26009C12.0421 8.38708 12.4599 7.58122 13.0046 6.79774C13.7582 5.70088 14.6686 4.81294 15.5863 4.28316C16.34 3.84292 17.0339 3.70115 17.3995 3.91754C17.7652 4.12646 17.989 4.79801 17.989 5.67103V14.5877C17.989 15.6398 18.8471 16.4979 19.8992 16.4979C20.9513 16.4979 21.8094 15.6398 21.8094 14.5877V5.67103C21.8094 3.36537 20.8991 1.52234 19.3097 0.604553ZM21.2498 14.5877C21.2498 15.3339 20.6454 15.9383 19.8992 15.9383C19.153 15.9383 18.5486 15.3339 18.5486 14.5877V5.67103C18.5486 4.5667 18.2352 3.74592 17.6831 3.43253C17.1309 3.11168 16.2654 3.24599 15.3028 3.79815C14.3029 4.3727 13.3553 5.30541 12.542 6.48435C11.9674 7.30514 11.5347 8.15577 11.2138 9.07355C10.878 10.0212 10.7139 10.9166 10.7139 11.7523V20.669C10.7139 21.4152 10.102 22.0196 9.36331 22.0196C8.61715 22.0196 8.01275 21.4152 8.01275 20.669V11.7523C8.01275 7.90207 10.6169 3.3803 13.9522 1.46265C14.982 0.865712 16.0266 0.559783 16.9966 0.559783C17.7278 0.559783 18.4218 0.738863 19.0336 1.08956C20.4439 1.90288 21.2498 3.5743 21.2498 5.67103V14.5877ZM17.6831 3.43253C17.1309 3.11168 16.2654 3.24599 15.3028 3.79815C14.3029 4.3727 13.3553 5.30541 12.542 6.48435C11.9674 7.30514 11.5347 8.15577 11.2138 9.07355C10.878 10.0212 10.7139 10.9166 10.7139 11.7523V16.4979C10.7288 16.4681 10.7437 16.4308 10.7661 16.4084C10.7885 16.3785 10.8183 16.3487 10.8482 16.3338L11.2735 16.0875V11.7523C11.2735 10.9912 11.4377 10.1331 11.7436 9.26009C12.0421 8.38708 12.4599 7.58122 13.0046 6.79774C13.7582 5.70088 14.6686 4.81294 15.5863 4.28316C16.34 3.84292 17.0339 3.70115 17.3995 3.91754C17.7652 4.12646 17.989 4.79801 17.989 5.67103V12.2149L18.1308 12.1328C18.2651 12.0582 18.4292 12.103 18.5113 12.2373C18.5337 12.2821 18.5486 12.3268 18.5486 12.3791V5.67103C18.5486 4.5667 18.2352 3.74592 17.6831 3.43253ZM17.6831 3.43253C17.1309 3.11168 16.2654 3.24599 15.3028 3.79815C14.3029 4.3727 13.3553 5.30541 12.542 6.48435C11.9674 7.30514 11.5347 8.15577 11.2138 9.07355C10.878 10.0212 10.7139 10.9166 10.7139 11.7523V16.4979C10.7288 16.4681 10.7437 16.4308 10.7661 16.4084C10.7885 16.3785 10.8183 16.3561 10.8482 16.3338L11.2735 16.0875V11.7523C11.2735 10.9912 11.4377 10.1331 11.7436 9.26009C12.0421 8.38708 12.4599 7.58122 13.0046 6.79774C13.7582 5.70088 14.6686 4.81294 15.5863 4.28316C16.34 3.84292 17.0339 3.70115 17.3995 3.91754C17.7652 4.12646 17.989 4.79801 17.989 5.67103V12.2149L18.1308 12.1328C18.2651 12.0582 18.4292 12.103 18.5113 12.2373C18.5337 12.2821 18.5486 12.3268 18.5486 12.3791V5.67103C18.5486 4.5667 18.2352 3.74592 17.6831 3.43253Z" fill="#111111"/>
<path d="M21.2487 5.67106V14.5878C21.2487 15.3339 20.6443 15.9383 19.8982 15.9383C19.152 15.9383 18.5476 15.3339 18.5476 14.5878V5.67106C18.5476 4.56673 18.2342 3.74595 17.682 3.43256C17.1299 3.11171 16.2643 3.24602 15.3018 3.79818C14.3019 4.37273 13.3543 5.30544 12.541 6.48438C11.9664 7.30517 11.5336 8.1558 11.2128 9.07358C10.877 10.0212 10.7128 10.9166 10.7128 11.7523V20.669C10.7128 21.4152 10.101 22.0196 9.36228 22.0196C8.61611 22.0196 8.01172 21.4152 8.01172 20.669V11.7523C8.01172 7.9021 10.6158 3.38033 13.9512 1.46268C14.9809 0.865743 16.0256 0.559814 16.9956 0.559814C17.7268 0.559814 18.4208 0.738895 19.0326 1.08959C20.4429 1.90292 21.2487 3.57433 21.2487 5.67106Z" fill="#38EA8E"/>
<path d="M6.68566 28.9737C6.63343 29.0633 6.53643 29.1155 6.43942 29.1155C6.39465 29.1155 6.34988 29.1006 6.30511 29.0782L0.559626 25.7652L0.141772 25.5264C0.0522317 25.4742 0 25.3847 0 25.2877C0 25.2578 0 25.2354 0.00746167 25.2131C0.0149233 25.1907 0.022385 25.1683 0.0373084 25.1459C0.111925 25.0116 0.283544 24.9668 0.417854 25.0414L0.567087 25.1235L6.5812 28.5932C6.71551 28.6678 6.76028 28.8394 6.68566 28.9737Z" fill="#111111"/>
</svg>
