<svg width="39" height="40" viewBox="0 0 39 40" fill="none" xmlns="http://www.w3.org/2000/svg">
<path d="M12.3891 4.15796L6.73494 18.7351L2.8473 16.4878L0.503906 15.1299L6.1581 0.552734L12.3891 4.15796Z" fill="#414B3D"/>
<path d="M38.8987 9.98648L34.2359 3.35286C34.2179 3.31681 34.1879 3.28677 34.1518 3.26874L34.1398 3.26273L28.8581 0.204296L28.8281 0.18627C28.8161 0.180261 28.8101 0.174253 28.798 0.174253C28.768 0.162235 28.738 0.156226 28.7139 0.156226C28.6899 0.156226 28.6658 0.162235 28.6418 0.168244C28.6298 0.174253 28.6178 0.180261 28.5997 0.18627C28.5817 0.198287 28.5697 0.210305 28.5517 0.222322C28.5397 0.23434 28.5276 0.252366 28.5156 0.270392C28.5036 0.294427 28.4976 0.312453 28.4916 0.336488L23.8409 12.3239C23.8348 12.3359 23.8288 12.3419 23.8288 12.3539C23.8168 12.3779 23.8108 12.408 23.8108 12.438C23.8108 12.5161 23.8529 12.5883 23.925 12.6303L25.8237 13.7299V14.451L20.4459 11.3444L20.4159 11.3264C20.4039 11.3204 20.3918 11.3144 20.3798 11.3084C20.3137 11.2844 20.2356 11.2904 20.1815 11.3324C20.1575 11.3444 20.1455 11.3625 20.1275 11.3805C20.1215 11.3865 20.1154 11.3925 20.1094 11.4045C20.0974 11.4226 20.0914 11.4406 20.0854 11.4586L16.2158 21.4331V13.9162L18.6073 12.5342C18.6613 12.5041 18.6974 12.4501 18.7154 12.39C18.7274 12.3239 18.7154 12.2638 18.6794 12.2097L12.8689 3.94772C12.8509 3.91167 12.8209 3.88163 12.7848 3.8636L12.7728 3.85759L6.18726 0.0480697L6.15721 0.0300436C6.1452 0.0240348 6.13919 0.0180261 6.12717 0.0180261C6.09713 0.00600871 6.06708 0 6.04305 0C6.01901 0 6.00099 0.00600871 5.97695 0.0120174C5.96493 0.0180261 5.94691 0.0240348 5.93489 0.0300436C5.91686 0.042061 5.89884 0.0540784 5.88682 0.0660958C5.8748 0.0781133 5.86279 0.0961394 5.85077 0.114166C5.83875 0.132192 5.82673 0.150218 5.82673 0.168244L0.0103006 15.148V15.166C-0.0137342 15.2381 0.00429194 15.3222 0.0643791 15.3823C0.0763965 15.4003 0.0944226 15.4123 0.112449 15.4244L2.49791 16.8064V33.6007C2.49791 33.6308 2.50392 33.6608 2.51593 33.6848C2.53396 33.7269 2.564 33.769 2.61207 33.793L2.63611 33.805L9.23968 37.6265C9.27573 37.6446 9.31779 37.6566 9.35385 37.6566C9.39591 37.6566 9.43196 37.6446 9.46801 37.6265L16.1016 33.793C16.1737 33.7509 16.2158 33.6788 16.2158 33.6007V27.7843L16.7626 28.0967V35.9381C16.7626 35.9441 16.7626 35.9441 16.7626 35.9501C16.7686 35.9742 16.7686 36.0042 16.7806 36.0282C16.7926 36.0523 16.8107 36.0763 16.8287 36.1003C16.8407 36.1184 16.8527 36.1244 16.8707 36.1364L16.8948 36.1484L23.5044 39.9699C23.5404 39.988 23.5765 40 23.6125 40C23.6486 40 23.6906 39.988 23.7267 39.9699L30.3663 36.1364C30.4324 36.0943 30.4745 36.0222 30.4745 35.9381V25.2065L32.8659 23.8245C32.92 23.7945 32.9621 23.7404 32.9741 23.6803C32.9861 23.6202 32.9741 23.5541 32.938 23.5001L32.4093 22.743L36.8197 20.1953C36.8858 20.1592 36.9278 20.0811 36.9278 20.003V11.4045L38.8266 10.3109C38.8807 10.2749 38.9227 10.2268 38.9347 10.1607C38.9468 10.1006 38.9347 10.0345 38.8987 9.98648ZM24.3155 12.3359L28.8281 0.709028L33.7552 3.56317L29.2487 15.184L26.1602 13.3994L24.3155 12.3359ZM26.2744 13.9883L29.2487 15.7068C29.2847 15.7308 29.3268 15.7368 29.3629 15.7368C29.4049 15.7368 29.441 15.7308 29.477 15.7068L31.1474 14.7454V20.9524L27.1276 15.2381C27.1216 15.2321 27.1156 15.2261 27.1096 15.2141C27.0916 15.19 27.0675 15.172 27.0435 15.154H27.0375L26.2744 14.7093V13.9883ZM0.503015 15.1299L6.15721 0.552801L12.3882 4.15803L6.73405 18.7352L2.84641 16.4879L0.503015 15.1299ZM2.94856 17.0647L6.70401 19.2279L6.74006 19.2519H6.74607C6.75808 19.2639 6.77611 19.2699 6.78813 19.2699L6.79414 19.2759C6.80014 19.282 6.81216 19.288 6.82418 19.282C6.83019 19.288 6.8362 19.288 6.84821 19.288C6.85422 19.288 6.86023 19.282 6.86624 19.282C6.87225 19.282 6.87225 19.282 6.87826 19.282C6.89028 19.2759 6.90229 19.2759 6.91431 19.2699C6.93234 19.2639 6.94435 19.2639 6.96238 19.2519L6.99843 19.2339C6.99843 19.2279 7.00444 19.2279 7.01045 19.2219L9.12552 18.0081V37.0377L2.94856 33.4625V17.0647ZM15.7651 33.4685L9.57617 37.0377V17.6175C9.57617 17.5334 9.53411 17.4613 9.46801 17.4193C9.39591 17.3772 9.31179 17.3772 9.23968 17.4193L7.29286 18.5429L12.7307 4.53057L18.1686 12.2698L15.8793 13.5857C15.8072 13.6278 15.7651 13.7059 15.7651 13.784V22.5988L14.287 26.4083C14.281 26.4203 14.275 26.4263 14.275 26.4383C14.263 26.4624 14.257 26.4924 14.257 26.5225C14.257 26.6006 14.299 26.6727 14.3711 26.7147L15.7651 27.5199V33.4685ZM16.0776 27.1834L14.7617 26.4203L16.1918 22.731C16.1978 22.7249 16.1978 22.7189 16.1978 22.7129L20.4159 11.8492L25.9619 15.0458L26.6529 15.4484L20.9987 30.0255L17.0991 27.7723L16.0776 27.1834ZM17.2132 28.3611L20.9987 30.5483C21.0107 30.5543 21.0288 30.5603 21.0408 30.5663C21.0648 30.5723 21.0889 30.5783 21.1129 30.5783C21.155 30.5783 21.197 30.5663 21.2271 30.5483L23.3902 29.2985V39.3871L17.2132 35.8119V28.3611ZM32.4273 23.5602L30.138 24.8821C30.0719 24.9241 30.0238 24.9962 30.0238 25.0744V35.8119L23.8409 39.3811V28.9079C23.8409 28.8298 23.7988 28.7517 23.7267 28.7156C23.6906 28.6916 23.6546 28.6856 23.6125 28.6856C23.5765 28.6856 23.5344 28.6916 23.5044 28.7156L21.5515 29.8393L25.5473 19.5403L26.9894 15.8269L31.1655 21.7575C31.1775 21.7816 31.1955 21.8116 31.2135 21.8296L31.8865 22.785C31.8985 22.8031 31.9106 22.8211 31.9226 22.8331L32.4273 23.5602ZM36.5913 11.0801C36.5252 11.1221 36.4772 11.1942 36.4772 11.2723V19.8708L32.1449 22.3764L31.5981 21.5953V14.3548C31.5981 14.2707 31.556 14.1986 31.4839 14.1565C31.4178 14.1145 31.3277 14.1145 31.2616 14.1565L29.8075 14.9977L34.0977 3.93571L38.3879 10.0406L36.5913 11.0801Z" fill="black"/>
<path d="M31.1504 14.7454V20.9524L27.1306 15.2381C27.1246 15.2321 27.1186 15.2261 27.1126 15.2141C27.0945 15.19 27.0705 15.172 27.0465 15.154H27.0405L26.2773 14.7093V13.9883L29.2517 15.7068C29.2877 15.7308 29.3298 15.7368 29.3658 15.7368C29.4079 15.7368 29.4439 15.7308 29.48 15.7068L31.1504 14.7454Z" fill="#9BE9C1"/>
<path d="M33.7561 3.56312L29.2496 15.184L26.1611 13.3994L24.3164 12.3358L28.8289 0.708984L33.7561 3.56312Z" fill="#414B3D"/>
<path d="M38.389 10.0404L36.5924 11.0799C36.5263 11.122 36.4783 11.1941 36.4783 11.2722V19.8707L32.146 22.3763L31.5992 21.5952V14.3547C31.5992 14.2705 31.5571 14.1984 31.485 14.1564C31.4189 14.1143 31.3288 14.1143 31.2627 14.1564L29.8086 14.9976L34.0988 3.93555L38.389 10.0404Z" fill="#38EA8E"/>
<path d="M23.3918 29.2987V39.3873L17.2148 35.8121V28.3613L21.0003 30.5485C21.0124 30.5545 21.0304 30.5605 21.0424 30.5665C21.0664 30.5725 21.0905 30.5785 21.1145 30.5785C21.1566 30.5785 21.1986 30.5665 21.2287 30.5485L23.3918 29.2987Z" fill="#9BE9C1"/>
<path d="M26.653 15.4483L20.9988 30.0255L17.0991 27.7722L16.0776 27.1834L14.7617 26.4202L16.1918 22.7309C16.1978 22.7249 16.1978 22.7189 16.1978 22.7129L20.4159 11.8491L25.962 15.0458L26.653 15.4483Z" fill="#414B3D"/>
<path d="M18.1687 12.27L15.8794 13.5859C15.8073 13.628 15.7653 13.7061 15.7653 13.7842V22.599L14.2871 26.4085C14.2811 26.4205 14.2751 26.4265 14.2751 26.4385C14.2631 26.4626 14.2571 26.4926 14.2571 26.5226C14.2571 26.6008 14.2991 26.6729 14.3712 26.7149L15.7653 27.5201V33.4687L9.57628 37.0379V17.6177C9.57628 17.5336 9.53422 17.4615 9.46812 17.4194C9.39602 17.3774 9.3119 17.3774 9.23979 17.4194L7.29297 18.5431L12.7309 4.53076L18.1687 12.27Z" fill="#38EA8E"/>
<path d="M9.12617 18.0083V37.0379L2.94922 33.4627V17.0649L6.70466 19.2281L6.74072 19.2521H6.74672C6.75874 19.2641 6.77677 19.2701 6.78879 19.2701L6.79479 19.2761C6.8008 19.2822 6.81282 19.2882 6.82484 19.2822C6.83085 19.2882 6.83686 19.2882 6.84887 19.2882C6.85488 19.2882 6.86089 19.2822 6.8669 19.2822C6.87291 19.2822 6.87291 19.2822 6.87892 19.2822C6.89093 19.2761 6.90295 19.2761 6.91497 19.2701C6.933 19.2641 6.94501 19.2641 6.96304 19.2521L6.99909 19.2341C6.99909 19.2281 7.0051 19.2281 7.01111 19.2221L9.12617 18.0083Z" fill="#9BE9C1"/>
<path d="M32.9347 23.5002L32.4059 22.7431L32.1415 22.3766L31.5947 21.5955L31.1441 20.9525L27.1242 15.2383C27.1182 15.2322 27.1122 15.2262 27.1062 15.2142C27.0882 15.1902 27.0641 15.1722 27.0401 15.1541H27.0341C26.992 15.1301 26.95 15.1241 26.9019 15.1301C26.8178 15.1361 26.7517 15.1902 26.7216 15.2683L26.6495 15.4486L20.9953 30.0257L20.8992 30.272C20.8631 30.3622 20.8872 30.4643 20.9653 30.5244C20.9893 30.5424 21.0134 30.5545 21.0374 30.5665C21.0614 30.5725 21.0855 30.5785 21.1095 30.5785C21.1516 30.5785 21.1936 30.5665 21.2237 30.5485L23.3868 29.2986V39.7718C23.3868 39.8559 23.4289 39.928 23.501 39.9701C23.537 39.9881 23.5731 40.0002 23.6091 40.0002C23.6452 40.0002 23.6872 39.9881 23.7233 39.9701L30.3629 36.1366C30.429 36.0945 30.4711 36.0224 30.4711 35.9383V25.2067L32.8625 23.8247C32.9166 23.7947 32.9587 23.7406 32.9707 23.6805C32.9827 23.6204 32.9707 23.5543 32.9347 23.5002ZM30.1346 24.8822C30.0685 24.9243 30.0204 24.9964 30.0204 25.0745V35.8121L23.8375 39.3813V28.9081C23.8375 28.83 23.7954 28.7518 23.7233 28.7158C23.6872 28.6918 23.6512 28.6858 23.6091 28.6858C23.5731 28.6858 23.531 28.6918 23.501 28.7158L21.5481 29.8394L25.5439 19.5405L26.986 15.8271L31.1621 21.7577C31.1741 21.7817 31.1921 21.8118 31.2102 21.8298L31.8831 22.7852C31.8951 22.8032 31.9072 22.8212 31.9192 22.8333L32.4239 23.5603L30.1346 24.8822Z" fill="#111111"/>
<path d="M32.4226 23.5604L30.1333 24.8823C30.0672 24.9243 30.0192 24.9964 30.0192 25.0746V35.8121L23.8362 39.3813V28.9081C23.8362 28.83 23.7941 28.7519 23.722 28.7158C23.686 28.6918 23.6499 28.6858 23.6079 28.6858C23.5718 28.6858 23.5297 28.6918 23.4997 28.7158L21.5469 29.8395L25.5427 19.5405L26.9848 15.8271L31.1608 21.7577C31.1728 21.7818 31.1909 21.8118 31.2089 21.8299L31.8819 22.7852C31.8939 22.8033 31.9059 22.8213 31.9179 22.8333L32.4226 23.5604Z" fill="#38EA8E"/>
<path d="M20.5051 11.6029L20.4089 11.8493L16.1908 22.713C16.1908 22.719 16.1908 22.725 16.1848 22.7311L14.7547 26.4204L16.0706 27.1835L17.0921 27.7724C17.1642 27.8144 17.2063 27.8865 17.2063 27.9646V35.9382C17.2063 36.0644 17.1041 36.1665 16.978 36.1665C16.9479 36.1665 16.9179 36.1605 16.8878 36.1485L16.8638 36.1365C16.8458 36.1245 16.8337 36.1185 16.8217 36.1004C16.8037 36.0764 16.7857 36.0524 16.7737 36.0283C16.7616 36.0043 16.7616 35.9743 16.7556 35.9502C16.7556 35.9442 16.7556 35.9442 16.7556 35.9382V28.0968L16.2088 27.7844V27.7784L15.7582 27.52L14.3642 26.7148C14.2921 26.6728 14.25 26.6007 14.25 26.5225C14.25 26.4925 14.256 26.4625 14.268 26.4384C14.268 26.4264 14.274 26.4204 14.28 26.4084L15.7582 22.5989L16.2088 21.4332L20.0785 11.4587C20.0845 11.4407 20.0905 11.4227 20.1025 11.4046C20.1085 11.3926 20.1145 11.3866 20.1205 11.3806C20.1385 11.3626 20.1506 11.3445 20.1746 11.3325C20.2287 11.2905 20.3068 11.2845 20.3729 11.3085C20.3849 11.3145 20.3969 11.3205 20.4089 11.3265L20.439 11.3445C20.5111 11.4046 20.5411 11.5068 20.5051 11.6029Z" fill="#111111"/>
<path d="M23.8099 39.8857C23.7919 39.9218 23.7559 39.9518 23.7258 39.9699C23.6898 39.9879 23.6477 39.9999 23.6116 39.9999C23.5756 39.9999 23.5395 39.9879 23.5035 39.9699L16.8939 36.1483L16.8699 36.1363C16.8518 36.1243 16.8398 36.1183 16.8278 36.1003C16.8098 36.0762 16.7918 36.0522 16.7797 36.0282C16.7677 36.0041 16.7677 35.9741 16.7617 35.95C16.7617 35.944 16.7617 35.944 16.7617 35.938V35.8839C16.7737 35.8659 16.7797 35.8479 16.7918 35.8299C16.8519 35.7217 16.99 35.6857 17.0982 35.7457L17.2124 35.8118L23.3893 39.387L23.7258 39.5793C23.834 39.6394 23.87 39.7776 23.8099 39.8857Z" fill="#111111"/>
<path d="M21.2982 30.4644C21.2802 30.5004 21.2502 30.5244 21.2201 30.5485C21.1901 30.5665 21.148 30.5785 21.1059 30.5785C21.0819 30.5785 21.0579 30.5725 21.0338 30.5665C21.0218 30.5605 21.0038 30.5545 20.9918 30.5485L17.2063 28.3613L16.7556 28.0969L16.2088 27.7845V27.7785L15.7582 27.5201L14.3642 26.7149C14.2921 26.6729 14.25 26.6008 14.25 26.5226C14.25 26.4926 14.256 26.4626 14.268 26.4385C14.268 26.4265 14.274 26.4205 14.28 26.4085C14.3461 26.3003 14.4783 26.2643 14.5865 26.3244L14.7547 26.4205L16.0706 27.1836L17.0921 27.7725L20.9918 30.0257L21.2201 30.1579C21.3283 30.218 21.3643 30.3562 21.2982 30.4644Z" fill="#111111"/>
<path d="M27.1231 15.4665C27.081 15.5386 27.0089 15.5747 26.9308 15.5747C26.8888 15.5747 26.8527 15.5687 26.8167 15.5446L26.6484 15.4485L25.9574 15.0459L20.4114 11.8493L20.189 11.7171C20.0989 11.663 20.0569 11.5548 20.0809 11.4587C20.0869 11.4407 20.0929 11.4227 20.1049 11.4046C20.1109 11.3926 20.1169 11.3866 20.1229 11.3806C20.141 11.3626 20.153 11.3445 20.177 11.3325C20.2311 11.2905 20.3092 11.2845 20.3753 11.3085C20.3873 11.3145 20.3993 11.3205 20.4114 11.3265L20.4414 11.3445L25.8192 14.451L26.2699 14.7094L27.033 15.1541H27.039C27.063 15.1721 27.087 15.1901 27.1051 15.2142C27.1111 15.2262 27.1171 15.2322 27.1231 15.2382C27.1591 15.3103 27.1652 15.3944 27.1231 15.4665Z" fill="#111111"/>
<path d="M38.9381 10.1605C38.9261 10.2266 38.884 10.2747 38.8299 10.3107L36.9312 11.4043V20.0028C36.9312 20.0809 36.8891 20.159 36.823 20.1951L32.4126 22.7428L32.1963 22.869C32.1603 22.887 32.1182 22.899 32.0821 22.899C32.0221 22.899 31.968 22.875 31.9259 22.8329C31.9139 22.8209 31.9019 22.8029 31.8899 22.7848C31.8238 22.6767 31.8598 22.5385 31.968 22.4784L32.1482 22.3762L36.4805 19.8706V11.2721C36.4805 11.194 36.5286 11.1219 36.5947 11.0799L38.3913 10.0404L34.1011 3.93551L29.8109 14.9975L31.265 14.1563C31.3311 14.1143 31.4212 14.1143 31.4873 14.1563C31.5594 14.1984 31.6014 14.2705 31.6014 14.3546V21.6672C31.6014 21.7934 31.4993 21.8955 31.3791 21.8955C31.319 21.8955 31.259 21.8715 31.2169 21.8295C31.1989 21.8114 31.1808 21.7814 31.1688 21.7573C31.1568 21.7273 31.1508 21.6973 31.1508 21.6672V14.7452L29.4804 15.7066C29.4443 15.7306 29.4083 15.7366 29.3662 15.7366C29.3302 15.7366 29.2881 15.7306 29.252 15.7066C29.24 15.7006 29.234 15.6885 29.222 15.6825C29.1499 15.6224 29.1198 15.5203 29.1559 15.4302L29.252 15.1838L33.7586 3.56297L33.8307 3.3827C33.8607 3.30459 33.9328 3.25051 34.0169 3.2385C34.059 3.23249 34.1071 3.2385 34.1431 3.26253L34.1551 3.26854C34.1912 3.28657 34.2212 3.31661 34.2393 3.35266L38.902 9.98628C38.9381 10.0343 38.9501 10.1004 38.9381 10.1605Z" fill="#111111"/>
<path d="M28.9259 0.462694L28.8298 0.709051L24.3172 12.3359L26.1619 13.3995C26.234 13.4415 26.2761 13.5136 26.2761 13.5977V14.8415C26.2761 14.9617 26.1739 15.0639 26.0477 15.0639C26.0177 15.0639 25.9877 15.0579 25.9636 15.0458C25.8855 15.0098 25.8254 14.9317 25.8254 14.8415V13.7299L23.9267 12.6303C23.8546 12.5883 23.8125 12.5162 23.8125 12.4381C23.8125 12.408 23.8185 12.378 23.8305 12.3539C23.8305 12.3419 23.8365 12.3359 23.8425 12.3239L28.4933 0.336511C28.4993 0.312477 28.5053 0.29445 28.5173 0.270416C28.5293 0.252389 28.5414 0.234363 28.5534 0.222346C28.5714 0.210328 28.5834 0.198311 28.6014 0.186294C28.6195 0.180285 28.6315 0.174276 28.6435 0.168267C28.6675 0.162259 28.6916 0.15625 28.7156 0.15625C28.7396 0.15625 28.7697 0.162259 28.7997 0.174276C28.8117 0.174276 28.8178 0.180285 28.8298 0.186294L28.8598 0.20432C28.9319 0.264407 28.962 0.372564 28.9259 0.462694Z" fill="#111111"/>
<path d="M29.5568 15.6288C29.5388 15.6648 29.5088 15.6949 29.4787 15.7069C29.4427 15.7309 29.4066 15.737 29.3645 15.737C29.3285 15.737 29.2864 15.7309 29.2504 15.7069L26.2761 13.9884L25.8254 13.73L23.9267 12.6304C23.8546 12.5884 23.8125 12.5163 23.8125 12.4382C23.8125 12.4081 23.8185 12.3781 23.8305 12.354C23.8305 12.342 23.8365 12.336 23.8425 12.324C23.9086 12.2158 24.0468 12.1798 24.155 12.2399L24.3172 12.336L26.1619 13.3996L29.2504 15.1842L29.4787 15.3163C29.5869 15.3824 29.6229 15.5206 29.5568 15.6288Z" fill="#111111"/>
<path d="M34.2367 3.57521C34.1947 3.64731 34.1166 3.68937 34.0384 3.68937C34.0024 3.68937 33.9603 3.67735 33.9243 3.65933L33.756 3.56319L28.8289 0.709051L28.6006 0.57686C28.5164 0.52879 28.4744 0.426642 28.4924 0.336511C28.4984 0.312477 28.5044 0.29445 28.5164 0.270416C28.5285 0.252389 28.5405 0.234363 28.5525 0.222346C28.5705 0.210328 28.5825 0.198311 28.6006 0.186294C28.6186 0.180285 28.6306 0.174276 28.6426 0.168267C28.6667 0.162259 28.6907 0.15625 28.7147 0.15625C28.7388 0.15625 28.7688 0.162259 28.7988 0.174276C28.8109 0.174276 28.8169 0.180285 28.8289 0.186294L28.8589 0.20432L34.1406 3.26275L34.1526 3.26876C34.1887 3.28679 34.2187 3.31683 34.2367 3.35288C34.2728 3.41898 34.2788 3.5031 34.2367 3.57521Z" fill="#111111"/>
<path d="M18.7131 12.39C18.695 12.4501 18.659 12.5042 18.6049 12.5342L16.2134 13.9162V22.6349C16.2134 22.6649 16.2074 22.6889 16.1954 22.713C16.1954 22.719 16.1954 22.725 16.1894 22.731C16.1534 22.8091 16.0752 22.8632 15.9851 22.8632C15.8649 22.8632 15.7628 22.761 15.7628 22.6349V13.784C15.7628 13.7059 15.8048 13.6278 15.877 13.5857L18.1663 12.2698L12.7284 4.5306L7.2905 18.5429L9.23733 17.4193C9.30943 17.3772 9.39355 17.3772 9.46566 17.4193C9.53175 17.4614 9.57381 17.5335 9.57381 17.6176V37.0377L15.7628 33.4686V27.3938C15.7628 27.2676 15.8649 27.1654 15.9851 27.1654C16.0152 27.1654 16.0452 27.1714 16.0752 27.1835C16.1534 27.2195 16.2134 27.2976 16.2134 27.3938V33.6008C16.2134 33.6789 16.1714 33.751 16.0993 33.793L9.46566 37.6266C9.42961 37.6446 9.39355 37.6566 9.35149 37.6566C9.31544 37.6566 9.27338 37.6446 9.23733 37.6266C9.17123 37.5845 9.12316 37.5124 9.12316 37.4283V18.0081L7.00809 19.2219C7.00209 19.2279 6.99608 19.2279 6.99608 19.2339L6.96003 19.2519C6.942 19.264 6.92998 19.264 6.91196 19.27C6.89994 19.276 6.88792 19.276 6.8759 19.282C6.86989 19.282 6.86989 19.282 6.86389 19.282H6.82182C6.80981 19.288 6.79779 19.282 6.79178 19.276L6.78577 19.27C6.77376 19.27 6.75573 19.264 6.74371 19.2519H6.7377L6.70165 19.2279C6.62955 19.1678 6.60551 19.0657 6.64156 18.9755L6.73169 18.7352L12.3859 4.15806L12.458 3.9778C12.488 3.89969 12.5601 3.84561 12.6443 3.83359C12.6863 3.82759 12.7284 3.8396 12.7704 3.85763L12.7825 3.86364C12.8185 3.88166 12.8486 3.91171 12.8666 3.94776L18.677 12.2097C18.7131 12.2638 18.7251 12.3239 18.7131 12.39Z" fill="#111111"/>
<path d="M6.25335 0.306444L6.15721 0.552801L0.503015 15.1299L2.84641 16.4879C2.9065 16.524 2.94856 16.5961 2.94856 16.6742V33.6007C2.94856 33.7209 2.85242 33.823 2.72624 33.823C2.69619 33.823 2.66615 33.817 2.63611 33.805L2.61207 33.793C2.564 33.769 2.53396 33.7269 2.51593 33.6848C2.50392 33.6608 2.49791 33.6308 2.49791 33.6007V16.8064L0.112449 15.4244C0.0944226 15.4123 0.0763965 15.4003 0.0643791 15.3823C0.00429194 15.3222 -0.0137342 15.2381 0.0103006 15.166V15.148L5.82673 0.168244C5.82673 0.150218 5.83875 0.132192 5.85077 0.114166C5.86279 0.0961394 5.8748 0.0781133 5.88682 0.0660958C5.89884 0.0540784 5.91686 0.042061 5.93489 0.0300436C5.94691 0.0240348 5.96493 0.0180261 5.97695 0.0120174C6.00099 0.00600871 6.01901 0 6.04305 0C6.06708 0 6.09713 0.00600871 6.12717 0.0180261C6.13919 0.0180261 6.1452 0.0240348 6.15721 0.0300436L6.18726 0.0480697C6.25936 0.108157 6.2894 0.216314 6.25335 0.306444Z" fill="#111111"/>
<path d="M9.54822 37.5425C9.53019 37.5785 9.50015 37.6086 9.47011 37.6266C9.43405 37.6446 9.398 37.6566 9.35594 37.6566C9.31989 37.6566 9.27783 37.6446 9.24177 37.6266L2.6382 33.8051L2.61417 33.793C2.5661 33.769 2.53605 33.727 2.51803 33.6849C2.50601 33.6609 2.5 33.6308 2.5 33.6008C2.5 33.5587 2.51202 33.5227 2.53004 33.4866C2.59614 33.3784 2.73434 33.3424 2.8425 33.4025L2.95065 33.4626L9.12761 37.0378L9.47011 37.236C9.57826 37.2961 9.61431 37.4343 9.54822 37.5425Z" fill="#111111"/>
<path d="M7.0465 19.1738C7.03448 19.1918 7.02247 19.2099 7.01045 19.2219C7.00444 19.2279 6.99843 19.2279 6.99843 19.2339L6.96238 19.2519C6.94435 19.2639 6.93234 19.2639 6.91431 19.27C6.90229 19.276 6.89028 19.276 6.87826 19.282C6.87225 19.282 6.87225 19.282 6.86624 19.282C6.86023 19.282 6.85422 19.288 6.84821 19.288C6.8362 19.288 6.83019 19.288 6.82418 19.282C6.81216 19.288 6.80015 19.282 6.79414 19.276L6.78813 19.27C6.77611 19.27 6.75808 19.2639 6.74607 19.2519H6.74006L6.70401 19.2279L2.94856 17.0648L2.49791 16.8064L0.112449 15.4244C0.0944226 15.4124 0.0763965 15.4003 0.0643791 15.3823C0.00429194 15.3222 -0.0137342 15.2381 0.0103006 15.166C0.0163094 15.148 0.0223181 15.136 0.0283268 15.1179C0.0884139 15.0098 0.226614 14.9677 0.334771 15.0338L0.503015 15.13L2.84641 16.4879L6.73405 18.7352L6.96238 18.8674C7.07054 18.9275 7.10659 19.0657 7.0465 19.1738Z" fill="#111111"/>
<path d="M12.8643 4.17005C12.8223 4.24215 12.7442 4.28421 12.666 4.28421C12.63 4.28421 12.5879 4.27219 12.5519 4.25417L12.3836 4.15803L6.1526 0.552801L5.92427 0.42061C5.83414 0.37254 5.79207 0.264383 5.82212 0.168244C5.82212 0.150218 5.83414 0.132192 5.84615 0.114166C5.85817 0.0961394 5.87019 0.0781133 5.88221 0.0660958C5.89422 0.0540784 5.91225 0.042061 5.93028 0.0300436C5.94229 0.0240348 5.96032 0.0180261 5.97234 0.0120174C5.99637 0.00600871 6.0144 0 6.03843 0C6.06247 0 6.09251 0.00600871 6.12255 0.0180261C6.13457 0.0180261 6.14058 0.0240348 6.1526 0.0300436L6.18264 0.0480697L12.7682 3.85759L12.7802 3.8636C12.8163 3.88163 12.8463 3.91167 12.8643 3.94772C12.9004 4.01382 12.9064 4.09794 12.8643 4.17005Z" fill="#111111"/>
</svg>
