<svg width="41" height="41" viewBox="0 0 41 41" fill="none" xmlns="http://www.w3.org/2000/svg">
<path d="M39.9864 21.2039C39.9683 21.1496 39.9201 21.1014 39.8658 21.0772L36.3787 19.0622V5.88625C36.3787 5.85608 36.3727 5.82592 36.3606 5.80179C36.3425 5.74749 36.2943 5.69923 36.24 5.6751L28.186 1.02972C28.1196 0.987489 28.0351 0.987489 27.9627 1.02972L19.9148 5.6751C19.8605 5.69923 19.8122 5.74749 19.7941 5.80179C19.7821 5.82592 19.776 5.85608 19.776 5.88625V9.05355L11.8367 13.6326L11.8125 13.6446C11.7944 13.6567 11.7824 13.6688 11.7703 13.6808C11.7462 13.705 11.7281 13.7291 11.722 13.7593C11.71 13.7834 11.7039 13.8136 11.7039 13.8437V17.005L3.76456 21.59L3.74043 21.6021C3.69217 21.6262 3.662 21.6685 3.6439 21.7167C3.63184 21.7409 3.62581 21.771 3.62581 21.8012V28.3892L0.138758 30.4042C0.0844614 30.4283 0.0422307 30.4705 0.0180989 30.5248C0.00603295 30.549 0 30.5791 0 30.6093V34.0179C0 34.0963 0.0422307 34.1748 0.114626 34.217L11.7763 40.9437C11.7944 40.9558 11.8125 40.9679 11.8306 40.9739C11.8367 40.9799 11.8427 40.9799 11.8427 40.9799C11.8668 40.992 11.897 40.998 11.9272 40.998C11.9573 40.998 11.9875 40.992 12.0116 40.9799C12.0237 40.9799 12.0297 40.9739 12.0418 40.9679L39.8899 24.8901C39.9623 24.8478 40.0045 24.7754 40.0045 24.697V21.2884C40.0045 21.2582 39.9985 21.2281 39.9864 21.2039ZM22.8227 4.51677L28.0774 1.48219L35.697 5.88625L28.0774 10.2843L20.4517 5.88625L22.8227 4.51677ZM20.2285 6.27236L27.8481 10.6764V13.4516L20.2285 9.05355V6.27236ZM19.9992 9.43966L27.6249 13.8437L19.9992 18.2417L12.3796 13.8437L19.9992 9.43966ZM12.1564 14.2359L19.776 18.6339V21.409L12.1564 17.011V14.2359ZM11.9272 17.3971L19.5468 21.8012L11.9272 26.1992L7.17922 23.4602L4.30753 21.8012L11.9272 17.3971ZM3.62581 28.908V30.6093C3.62581 30.736 3.72837 30.8385 3.85506 30.8385C3.97572 30.8385 4.07828 30.736 4.07828 30.6093V22.1873L11.7039 26.5974V35.1461C11.7039 35.2728 11.8005 35.3693 11.9272 35.3693C12.0538 35.3693 12.1564 35.2728 12.1564 35.1461V26.5913L19.776 22.1873V30.6093C19.776 30.736 19.8786 30.8385 19.9992 30.8385C20.1259 30.8385 20.2285 30.736 20.2285 30.6093V18.6339L25.1454 15.7984L27.8481 14.2298V25.9519C27.8481 26.0725 27.9507 26.1751 28.0774 26.1751C28.198 26.1751 28.3006 26.0725 28.3006 25.9519V10.6764L35.9262 6.27236V21.2884C35.9262 21.4151 36.0228 21.5116 36.1495 21.5116C36.2762 21.5116 36.3787 21.4151 36.3787 21.2884V19.5931L39.3228 21.2884L11.9272 37.1068L0.675691 30.6093L3.62581 28.908ZM0.452472 31.0014L11.7039 37.505V40.3887L0.452472 33.8852V31.0014ZM39.552 24.5643L12.1564 40.3827V37.4989L39.552 21.6745V24.5643Z" fill="#FCB76D"/>
<path d="M39.5519 21.6744V24.5642L12.1562 40.3826V37.4989L39.5519 21.6744Z" fill="#38EA8E"/>
<path d="M11.7046 37.505V40.3887L0.453125 33.8852V31.0015L11.7046 37.505Z" fill="#38EA8E"/>
<path d="M39.3229 21.2884L11.9272 37.1068L0.675781 30.6093L3.6259 28.908V30.6093C3.6259 30.736 3.72846 30.8385 3.85515 30.8385C3.97581 30.8385 4.07837 30.736 4.07837 30.6093V22.1873L11.704 26.5974V35.1461C11.704 35.2728 11.8005 35.3693 11.9272 35.3693C12.0539 35.3693 12.1565 35.2728 12.1565 35.1461V26.5913L19.7761 22.1873V30.6093C19.7761 30.736 19.8787 30.8385 19.9993 30.8385C20.126 30.8385 20.2286 30.736 20.2286 30.6093V18.6339L25.1454 15.7984L27.8482 14.2298V25.9518C27.8482 26.0725 27.9508 26.1751 28.0775 26.1751C28.1981 26.1751 28.3007 26.0725 28.3007 25.9518V10.6764L35.9263 6.27234V21.2884C35.9263 21.4151 36.0229 21.5116 36.1496 21.5116C36.2762 21.5116 36.3788 21.4151 36.3788 21.2884V19.5931L39.3229 21.2884Z" fill="#9BE9C1"/>
<path d="M27.8462 10.6764V13.4516L20.2266 9.05353V6.27234L27.8462 10.6764Z" fill="#9BE9C1"/>
<path d="M19.7759 18.6339V21.409L12.1562 17.011V14.2358L19.7759 18.6339Z" fill="#9BE9C1"/>
<path d="M40.0045 21.2884C40.0045 21.3668 39.9623 21.4452 39.8899 21.4814L39.552 21.6745L12.1564 37.4989L12.0418 37.5653C12.0056 37.5834 11.9694 37.5955 11.9272 37.5955C11.891 37.5955 11.8487 37.5834 11.8125 37.5653L11.7039 37.505L0.452472 31.0014L0.114626 30.8084C0.0422307 30.7662 0 30.6938 0 30.6093C0 30.5791 0.00603295 30.549 0.0180989 30.5248C0.0422307 30.4705 0.0844614 30.4283 0.138758 30.4042L3.62581 28.3892L3.74043 28.3228C3.84902 28.2625 3.98778 28.2987 4.04811 28.4012C4.07224 28.4374 4.07828 28.4736 4.07828 28.5159C4.07828 28.5943 4.03605 28.6727 3.96365 28.7149L3.62581 28.908L0.675691 30.6093L11.9272 37.1068L39.3228 21.2884L36.3787 19.5931L36.0348 19.394C35.9685 19.3518 35.9262 19.2734 35.9262 19.1949C35.9262 19.1527 35.9323 19.1165 35.9564 19.0803C36.0167 18.9717 36.1555 18.9355 36.2641 18.9959L36.3787 19.0622L39.8658 21.0772C39.9201 21.1014 39.9683 21.1496 39.9864 21.2039C39.9985 21.2281 40.0045 21.2582 40.0045 21.2884Z" fill="#111111"/>
<path d="M40.0045 21.2883V24.697C40.0045 24.7754 39.9623 24.8478 39.8899 24.89L12.0418 40.9678C12.0297 40.9739 12.0237 40.9799 12.0116 40.9799C11.9875 40.992 11.9573 40.998 11.9272 40.998C11.897 40.998 11.8668 40.992 11.8427 40.9799C11.8427 40.9799 11.8367 40.9799 11.8306 40.9739C11.8125 40.9678 11.7944 40.9558 11.7763 40.9437L0.114626 34.217C0.0422307 34.1747 0 34.0963 0 34.0179V30.6093C0 30.5791 0.00603295 30.5489 0.0180989 30.5248C0.0422307 30.4705 0.0844614 30.4283 0.138758 30.4041C0.16289 30.3921 0.193055 30.386 0.223219 30.386C0.349911 30.386 0.452472 30.4886 0.452472 30.6093V33.8851L11.7039 40.3887L11.9272 40.5154L12.1564 40.3826L39.552 24.5642V21.2883C39.552 21.1616 39.6546 21.0591 39.7753 21.0591C39.8054 21.0591 39.8356 21.0651 39.8658 21.0772C39.9201 21.1013 39.9683 21.1496 39.9864 21.2039C39.9985 21.228 40.0045 21.2582 40.0045 21.2883Z" fill="#111111"/>
<path d="M4.07747 21.8013V30.6094C4.07747 30.7361 3.97491 30.8386 3.85425 30.8386C3.72756 30.8386 3.625 30.7361 3.625 30.6094V21.8013C3.625 21.7711 3.63103 21.7409 3.6431 21.7168C3.6612 21.6685 3.69136 21.6263 3.73963 21.6022L3.76376 21.5901C3.79392 21.5781 3.82409 21.572 3.85425 21.572C3.97491 21.572 4.07747 21.6746 4.07747 21.8013Z" fill="#111111"/>
<path d="M20.2298 21.8013V30.6094C20.2298 30.7361 20.1273 30.8386 20.0006 30.8386C19.8799 30.8386 19.7773 30.7361 19.7773 30.6094V21.8013C19.7773 21.6746 19.8799 21.572 20.0006 21.572C20.0307 21.572 20.0609 21.5781 20.0911 21.5901L20.1152 21.6022C20.1635 21.6263 20.1936 21.6685 20.2117 21.7168C20.2238 21.7409 20.2298 21.7711 20.2298 21.8013Z" fill="#111111"/>
<path d="M20.2096 21.7167C20.1915 21.6684 20.1613 21.6262 20.1131 21.6021L20.0889 21.59L19.7752 21.409L12.1556 17.011L12.041 16.9446C11.9686 16.9024 11.8841 16.9024 11.8117 16.9446L11.7031 17.005L3.76376 21.59L3.73963 21.6021C3.69136 21.6262 3.6612 21.6684 3.6431 21.7167C3.63103 21.7408 3.625 21.771 3.625 21.8012C3.625 21.8796 3.66723 21.958 3.73963 21.9942L4.07747 22.1873L11.7031 26.5974L11.8117 26.6577C11.8479 26.6758 11.8901 26.6879 11.9263 26.6879C11.9686 26.6879 12.0048 26.6758 12.041 26.6577L12.1556 26.5913L19.7752 22.1873L20.0889 22.0063C20.1131 21.9942 20.1372 21.9822 20.1613 21.958C20.2036 21.9218 20.2277 21.8615 20.2277 21.8012C20.2277 21.771 20.2217 21.7408 20.2096 21.7167ZM11.9263 26.1992L7.17841 23.4602L4.30672 21.8012L11.9263 17.3971L19.546 21.8012L11.9263 26.1992Z" fill="#111111"/>
<path d="M19.5478 21.8013L11.9282 26.1993L7.18028 23.4603L4.30859 21.8013L11.9282 17.3972L19.5478 21.8013Z" fill="#414B3D"/>
<path d="M28.1852 13.6447L27.8473 13.4516L20.2277 9.0536L20.1131 8.98724C20.0467 8.94501 19.9562 8.94501 19.8898 8.98724L19.7752 9.0536L11.8359 13.6326L11.8117 13.6447C11.7936 13.6567 11.7816 13.6688 11.7695 13.6809C11.7454 13.705 11.7273 13.7291 11.7212 13.7593C11.7092 13.7834 11.7031 13.8136 11.7031 13.8438C11.7031 13.9222 11.7454 14.0006 11.8117 14.0368L12.1556 14.2359L19.7752 18.6339L19.8898 18.7003C19.92 18.7184 19.9622 18.7305 19.9984 18.7305C20.0407 18.7305 20.0769 18.7184 20.1131 18.7003L20.2277 18.6339L25.1445 15.7984L27.8473 14.2299L28.1852 14.0368C28.2576 14.0006 28.2998 13.9222 28.2998 13.8438C28.2998 13.7593 28.2576 13.6869 28.1852 13.6447ZM19.9984 18.2418L12.3788 13.8438L19.9984 9.43971L27.6241 13.8438L19.9984 18.2418Z" fill="#111111"/>
<path d="M27.6242 13.8439L19.9985 18.2419L12.3789 13.8439L19.9985 9.43982L27.6242 13.8439Z" fill="#414B3D"/>
<path d="M36.3619 5.80179C36.3438 5.74749 36.2956 5.69923 36.2413 5.6751L28.1873 1.02972C28.1209 0.987489 28.0365 0.987489 27.9641 1.02972L19.9161 5.6751C19.8618 5.69923 19.8135 5.74749 19.7954 5.80179C19.7834 5.82592 19.7773 5.85608 19.7773 5.88625C19.7773 5.96468 19.8196 6.0431 19.892 6.0793L20.2298 6.27236L27.8494 10.6764L27.9641 10.7428C28.0003 10.7609 28.0365 10.7729 28.0787 10.7729C28.1149 10.7729 28.1571 10.7609 28.1873 10.7428L28.3019 10.6764L35.9276 6.27236L36.2654 6.0793C36.3318 6.0431 36.38 5.96468 36.38 5.88625C36.38 5.85608 36.374 5.82592 36.3619 5.80179ZM28.0787 10.2843L20.453 5.88625L22.824 4.51677L28.0787 1.48219L35.6983 5.88625L28.0787 10.2843Z" fill="#111111"/>
<path d="M35.6984 5.88636L28.0788 10.2844L20.4531 5.88636L22.8241 4.51688L28.0788 1.4823L35.6984 5.88636Z" fill="#414B3D"/>
<path d="M28.304 10.5497V25.9518C28.304 26.0725 28.2015 26.175 28.0808 26.175C27.9541 26.175 27.8516 26.0725 27.8516 25.9518V10.5497C27.8516 10.423 27.9541 10.3204 28.0808 10.3204C28.2015 10.3204 28.304 10.423 28.304 10.5497Z" fill="#111111"/>
<path d="M36.3822 5.88624V21.2884C36.3822 21.4151 36.2796 21.5116 36.1529 21.5116C36.0262 21.5116 35.9297 21.4151 35.9297 21.2884V5.88624C35.9297 5.75954 36.0262 5.65698 36.1529 5.65698C36.1831 5.65698 36.2132 5.66302 36.2434 5.67508C36.2977 5.69921 36.346 5.74748 36.3641 5.80177C36.3761 5.82591 36.3822 5.85607 36.3822 5.88624Z" fill="#111111"/>
<path d="M20.2298 5.88636V9.18035C20.2298 9.30704 20.1273 9.4096 20.0006 9.4096C19.8799 9.4096 19.7773 9.30704 19.7773 9.18035V5.88636C19.7773 5.85619 19.7834 5.82603 19.7954 5.8019C19.8135 5.7476 19.8618 5.69934 19.9161 5.6752C19.9402 5.66314 19.9704 5.6571 20.0006 5.6571C20.1273 5.6571 20.2298 5.75967 20.2298 5.88636Z" fill="#111111"/>
<path d="M12.1556 26.4587V35.1461C12.1556 35.2728 12.053 35.3694 11.9263 35.3694C11.7997 35.3694 11.7031 35.2728 11.7031 35.1461V26.4587C11.7031 26.338 11.7997 26.2355 11.9263 26.2355C12.053 26.2355 12.1556 26.338 12.1556 26.4587Z" fill="#111111"/>
<path d="M20.2298 18.5072V21.8012C20.2298 21.8615 20.2057 21.9219 20.1635 21.9581C20.1393 21.9822 20.1152 21.9943 20.0911 22.0063C20.0609 22.0184 20.0307 22.0244 20.0006 22.0244C19.8799 22.0244 19.7773 21.9279 19.7773 21.8012V18.5072C19.7773 18.3805 19.8799 18.278 20.0006 18.278C20.1273 18.278 20.2298 18.3805 20.2298 18.5072Z" fill="#111111"/>
<path d="M12.1556 13.8436V17.1376C12.1556 17.2643 12.053 17.3669 11.9263 17.3669C11.7997 17.3669 11.7031 17.2643 11.7031 17.1376V13.8436C11.7031 13.8135 11.7092 13.7833 11.7212 13.7592C11.7273 13.729 11.7454 13.7049 11.7695 13.6807C11.7876 13.6626 11.8117 13.6445 11.8359 13.6325C11.866 13.6204 11.8962 13.6144 11.9263 13.6144C12.053 13.6144 12.1556 13.7169 12.1556 13.8436Z" fill="#111111"/>
<path d="M12.1556 37.3663V40.7749C12.1556 40.8594 12.1073 40.9318 12.041 40.968C12.0289 40.974 12.0229 40.98 12.0108 40.98C11.9867 40.9921 11.9565 40.9981 11.9263 40.9981C11.8962 40.9981 11.866 40.9921 11.8419 40.98C11.8419 40.98 11.8359 40.98 11.8298 40.974C11.8117 40.968 11.7936 40.9559 11.7755 40.9438C11.7333 40.9016 11.7031 40.8413 11.7031 40.7749V37.3663C11.7031 37.2456 11.7997 37.1431 11.9263 37.1431C12.053 37.1431 12.1556 37.2456 12.1556 37.3663Z" fill="#111111"/>
</svg>
