<svg width="40" height="40" viewBox="0 0 40 40" fill="none" xmlns="http://www.w3.org/2000/svg">
<path d="M18.9349 2.19382C17.4042 2.04196 15.667 2.5036 13.8569 3.5423C8.35357 6.71914 3.87684 14.476 3.87684 20.8297C3.87684 22.9678 4.39315 24.7658 5.34681 26.0353L3.23904 24.8569C1.44714 23.8243 0.457031 21.6254 0.457031 18.6672C0.457031 14.7432 2.1882 10.1693 5.08562 6.4215C5.78416 5.51644 6.4827 4.73893 7.15087 4.10721C8.14097 3.1657 9.16752 2.37605 10.2123 1.77469C12.6663 0.35939 14.9927 0.0738999 16.7604 0.972891C16.7604 0.972891 16.7664 0.972891 16.7725 0.978965C16.7786 0.985039 16.7846 0.985039 16.7907 0.991113L18.9349 2.19382Z" fill="#414B3D"/>
<path d="M8.49789 25.0816C6.91858 24.298 6.00745 22.3968 6.00745 19.8638C6.00745 19.7363 5.90418 19.633 5.77662 19.633C5.65514 19.633 5.55188 19.7363 5.55188 19.8638C5.55188 22.5729 6.55413 24.626 8.29744 25.4886C8.33389 25.5068 8.36426 25.5129 8.4007 25.5129C8.48574 25.5129 8.56471 25.4643 8.60116 25.3853C8.6619 25.2699 8.6133 25.1363 8.49789 25.0816ZM10.2412 8.85726C10.144 8.77829 10.0043 8.79044 9.92534 8.88763C8.4493 10.6492 7.26482 12.7205 6.49339 14.8769C6.45087 14.9983 6.51161 15.1259 6.62702 15.1684C6.65132 15.1806 6.68169 15.1866 6.70599 15.1866C6.7971 15.1866 6.88821 15.1259 6.91858 15.0348C7.67787 12.927 8.83198 10.9043 10.2716 9.17919C10.3505 9.082 10.3384 8.9423 10.2412 8.85726ZM12.4644 21.7954C11.8023 20.5806 11.7901 19.2928 12.4279 18.0719C12.4826 17.9565 12.4401 17.8168 12.3308 17.7621C12.2214 17.7014 12.0817 17.7439 12.021 17.8593C11.3224 19.2017 11.3346 20.6778 12.0635 22.0141C12.106 22.087 12.185 22.1295 12.2639 22.1295C12.3004 22.1295 12.3368 22.1234 12.3733 22.1052C12.4826 22.0445 12.5251 21.9048 12.4644 21.7954ZM16.5827 10.0114C16.1758 9.77447 15.6534 9.81699 15.1067 10.1329L14.8759 10.2665V8.5171C14.8759 8.39561 14.7726 8.29235 14.6511 8.29235C14.5236 8.29235 14.4203 8.39561 14.4203 8.5171V10.5277L13.5213 11.0501V9.30068C13.5213 9.17312 13.418 9.07593 13.2905 9.07593C13.1629 9.07593 13.0657 9.17312 13.0657 9.30068V11.3113L12.6041 11.5785C11.5532 12.186 10.7271 13.6195 10.7271 14.8343C10.7271 14.9619 10.8243 15.0652 10.9519 15.0652C11.0795 15.0652 11.1827 14.9619 11.1827 14.8343C11.1827 13.7835 11.9238 12.5018 12.8349 11.9734L13.3816 11.6575L13.3877 11.6514C13.4059 11.6453 13.4241 11.6332 13.4423 11.615L14.7301 10.8739C14.7422 10.8739 14.7483 10.8678 14.7544 10.8618L15.3314 10.5277C15.7323 10.2969 16.0968 10.2543 16.358 10.4062C16.6131 10.5581 16.7589 10.8921 16.7589 11.3538C16.7589 11.4753 16.8622 11.5785 16.9897 11.5785C17.1112 11.5785 17.2145 11.4753 17.2145 11.3538C17.2145 10.7221 16.9897 10.2483 16.5827 10.0114ZM29.4966 22.4211L27.9841 21.5464L28.2149 21.4128C28.7556 21.0969 29.0593 20.6656 29.0593 20.1918C29.0593 19.7241 28.7556 19.2928 28.2149 18.977C27.158 18.3696 25.5058 18.3696 24.4489 18.977L23.1976 19.6998L21.9524 20.4227C21.0412 20.945 19.5531 20.945 18.6419 20.4227C18.2471 20.1918 18.0223 19.9003 18.0223 19.5966C18.0223 19.2989 18.2471 19.0073 18.6419 18.7765L19.2068 18.4546C19.2129 18.4485 19.219 18.4424 19.225 18.4424L21.1445 17.3309C22.0556 16.8024 23.5378 16.8024 24.4489 17.3309C24.5582 17.3916 24.698 17.3552 24.7648 17.2458C24.8255 17.1365 24.7891 16.9968 24.6797 16.936C23.6228 16.3286 21.9706 16.3286 20.9137 16.936L20.4581 17.1972L18.7148 16.195C18.6055 16.1342 18.4658 16.1707 18.405 16.28C18.3443 16.3893 18.3807 16.529 18.4901 16.5898L20.0025 17.4645L19.1036 17.9869L17.3602 16.9785C17.2509 16.9178 17.1112 16.9542 17.0505 17.0636C16.9836 17.1729 17.0201 17.3066 17.1294 17.3734L18.648 18.2481L18.4172 18.3817C17.8705 18.6976 17.5668 19.1288 17.5668 19.5966C17.5668 20.0703 17.8705 20.5016 18.4172 20.8175C18.9456 21.1212 19.6199 21.273 20.2941 21.273C20.9744 21.273 21.6487 21.1212 22.1771 20.8175L24.6797 19.3718C25.5909 18.8433 27.073 18.8433 27.9841 19.3718C28.385 19.6026 28.6037 19.8942 28.6037 20.1918C28.6037 20.4955 28.385 20.7871 27.9841 21.0179L27.4253 21.3399L27.401 21.352L26.0647 22.1295L26.0525 22.1356L25.4815 22.4636C24.5704 22.986 23.0883 22.986 22.1771 22.4636C22.0739 22.3968 21.9281 22.4332 21.8673 22.5426C21.8066 22.6519 21.843 22.7916 21.9524 22.8584C22.4748 23.1621 23.1551 23.314 23.8293 23.314C24.5096 23.314 25.1839 23.1621 25.7124 22.8584L26.174 22.5912L27.9112 23.5995C27.9477 23.6177 27.9902 23.6299 28.0266 23.6299C28.1056 23.6299 28.1846 23.5873 28.2271 23.5145C28.2878 23.4051 28.2514 23.2654 28.1421 23.2047L26.6296 22.33L27.5286 21.8076L29.2719 22.8159C29.3022 22.8341 29.3448 22.8463 29.3812 22.8463C29.4602 22.8463 29.5391 22.8038 29.5817 22.7309C29.6424 22.6215 29.606 22.4818 29.4966 22.4211ZM19.875 4.90899C18.2532 3.97355 16.115 4.174 13.8554 5.47997C13.7461 5.54071 13.7096 5.68042 13.7704 5.78975C13.8372 5.89909 13.9769 5.93554 14.0862 5.87479C16.2001 4.65387 18.1742 4.45342 19.6502 5.30381C21.1202 6.15421 21.9342 7.96434 21.9342 10.4062C21.9342 10.5338 22.0374 10.637 22.1589 10.637C22.2865 10.637 22.3897 10.5338 22.3897 10.4062C22.3897 7.79426 21.4968 5.84442 19.875 4.90899ZM31.6165 14.968C27.0426 12.3257 19.5895 12.3257 15.0095 14.968C14.9002 15.0348 14.8637 15.1745 14.9245 15.2838C14.9913 15.3932 15.131 15.4296 15.2403 15.3628C19.6928 12.7934 26.9394 12.7934 31.3918 15.3628C34.3317 17.0636 35.3947 19.5297 34.1677 21.7954C33.6332 22.7795 32.6735 23.6845 31.3918 24.4256C26.9394 27.0011 19.6928 27.0011 15.2403 24.4256C15.131 24.3648 14.9913 24.4013 14.9245 24.5106C14.8637 24.62 14.9002 24.7597 15.0095 24.8204C17.2995 26.1446 20.3063 26.8067 23.313 26.8067C26.3198 26.8067 29.3265 26.1446 31.6165 24.8204C32.9893 24.0308 33.9855 23.0832 34.5626 22.0141C35.9293 19.5054 34.7994 16.8085 31.6165 14.968ZM31.6165 14.968C27.0426 12.3257 19.5895 12.3257 15.0095 14.968C14.9002 15.0348 14.8637 15.1745 14.9245 15.2838C14.9913 15.3932 15.131 15.4296 15.2403 15.3628C19.6928 12.7934 26.9394 12.7934 31.3918 15.3628C34.3317 17.0636 35.3947 19.5297 34.1677 21.7954C33.6332 22.7795 32.6735 23.6845 31.3918 24.4256C26.9394 27.0011 19.6928 27.0011 15.2403 24.4256C15.131 24.3648 14.9913 24.4013 14.9245 24.5106C14.8637 24.62 14.9002 24.7597 15.0095 24.8204C17.2995 26.1446 20.3063 26.8067 23.313 26.8067C26.3198 26.8067 29.3265 26.1446 31.6165 24.8204C32.9893 24.0308 33.9855 23.0832 34.5626 22.0141C35.9293 19.5054 34.7994 16.8085 31.6165 14.968ZM29.4966 22.4211L27.9841 21.5464L28.2149 21.4128C28.7556 21.0969 29.0593 20.6656 29.0593 20.1918C29.0593 19.7241 28.7556 19.2928 28.2149 18.977C27.158 18.3696 25.5058 18.3696 24.4489 18.977L23.1976 19.6998L21.9524 20.4227C21.0412 20.945 19.5531 20.945 18.6419 20.4227C18.2471 20.1918 18.0223 19.9003 18.0223 19.5966C18.0223 19.2989 18.2471 19.0073 18.6419 18.7765L19.2068 18.4546C19.2129 18.4485 19.219 18.4424 19.225 18.4424L21.1445 17.3309C22.0556 16.8024 23.5378 16.8024 24.4489 17.3309C24.5582 17.3916 24.698 17.3552 24.7648 17.2458C24.8255 17.1365 24.7891 16.9968 24.6797 16.936C23.6228 16.3286 21.9706 16.3286 20.9137 16.936L20.4581 17.1972L18.7148 16.195C18.6055 16.1342 18.4658 16.1707 18.405 16.28C18.3443 16.3893 18.3807 16.529 18.4901 16.5898L20.0025 17.4645L19.1036 17.9869L17.3602 16.9785C17.2509 16.9178 17.1112 16.9542 17.0505 17.0636C16.9836 17.1729 17.0201 17.3066 17.1294 17.3734L18.648 18.2481L18.4172 18.3817C17.8705 18.6976 17.5668 19.1288 17.5668 19.5966C17.5668 20.0703 17.8705 20.5016 18.4172 20.8175C18.9456 21.1212 19.6199 21.273 20.2941 21.273C20.9744 21.273 21.6487 21.1212 22.1771 20.8175L24.6797 19.3718C25.5909 18.8433 27.073 18.8433 27.9841 19.3718C28.385 19.6026 28.6037 19.8942 28.6037 20.1918C28.6037 20.4955 28.385 20.7871 27.9841 21.0179L27.4253 21.3399L27.401 21.352L26.0647 22.1295L26.0525 22.1356L25.4815 22.4636C24.5704 22.986 23.0883 22.986 22.1771 22.4636C22.0739 22.3968 21.9281 22.4332 21.8673 22.5426C21.8066 22.6519 21.843 22.7916 21.9524 22.8584C22.4748 23.1621 23.1551 23.314 23.8293 23.314C24.5096 23.314 25.1839 23.1621 25.7124 22.8584L26.174 22.5912L27.9112 23.5995C27.9477 23.6177 27.9902 23.6299 28.0266 23.6299C28.1056 23.6299 28.1846 23.5873 28.2271 23.5145C28.2878 23.4051 28.2514 23.2654 28.1421 23.2047L26.6296 22.33L27.5286 21.8076L29.2719 22.8159C29.3022 22.8341 29.3448 22.8463 29.3812 22.8463C29.4602 22.8463 29.5391 22.8038 29.5817 22.7309C29.6424 22.6215 29.606 22.4818 29.4966 22.4211ZM12.4644 21.7954C11.8023 20.5806 11.7901 19.2928 12.4279 18.0719C12.4826 17.9565 12.4401 17.8168 12.3308 17.7621C12.2214 17.7014 12.0817 17.7439 12.021 17.8593C11.3224 19.2017 11.3346 20.6778 12.0635 22.0141C12.106 22.087 12.185 22.1295 12.2639 22.1295C12.3004 22.1295 12.3368 22.1234 12.3733 22.1052C12.4826 22.0445 12.5251 21.9048 12.4644 21.7954ZM19.875 4.90899C18.2532 3.97355 16.115 4.174 13.8554 5.47997C13.7461 5.54071 13.7096 5.68042 13.7704 5.78975C13.8372 5.89909 13.9769 5.93554 14.0862 5.87479C16.2001 4.65387 18.1742 4.45342 19.6502 5.30381C21.1202 6.15421 21.9342 7.96434 21.9342 10.4062C21.9342 10.5338 22.0374 10.637 22.1589 10.637C22.2865 10.637 22.3897 10.5338 22.3897 10.4062C22.3897 7.79426 21.4968 5.84442 19.875 4.90899ZM16.5827 10.0114C16.1758 9.77447 15.6534 9.81699 15.1067 10.1329L14.8759 10.2665V8.5171C14.8759 8.39561 14.7726 8.29235 14.6511 8.29235C14.5236 8.29235 14.4203 8.39561 14.4203 8.5171V10.5277L13.5213 11.0501V9.30068C13.5213 9.17312 13.418 9.07593 13.2905 9.07593C13.1629 9.07593 13.0657 9.17312 13.0657 9.30068V11.3113L12.6041 11.5785C11.5532 12.186 10.7271 13.6195 10.7271 14.8343C10.7271 14.9619 10.8243 15.0652 10.9519 15.0652C11.0795 15.0652 11.1827 14.9619 11.1827 14.8343C11.1827 13.7835 11.9238 12.5018 12.8349 11.9734L13.3816 11.6575L13.3877 11.6514C13.4059 11.6453 13.4241 11.6332 13.4423 11.615L14.7301 10.8739C14.7422 10.8739 14.7483 10.8678 14.7544 10.8618L15.3314 10.5277C15.7323 10.2969 16.0968 10.2543 16.358 10.4062C16.6131 10.5581 16.7589 10.8921 16.7589 11.3538C16.7589 11.4753 16.8622 11.5785 16.9897 11.5785C17.1112 11.5785 17.2145 11.4753 17.2145 11.3538C17.2145 10.7221 16.9897 10.2483 16.5827 10.0114ZM10.2412 8.85726C10.144 8.77829 10.0043 8.79044 9.92534 8.88763C8.4493 10.6492 7.26482 12.7205 6.49339 14.8769C6.45087 14.9983 6.51161 15.1259 6.62702 15.1684C6.65132 15.1806 6.68169 15.1866 6.70599 15.1866C6.7971 15.1866 6.88821 15.1259 6.91858 15.0348C7.67787 12.927 8.83198 10.9043 10.2716 9.17919C10.3505 9.082 10.3384 8.9423 10.2412 8.85726ZM8.49789 25.0816C6.91858 24.298 6.00745 22.3968 6.00745 19.8638C6.00745 19.7363 5.90418 19.633 5.77662 19.633C5.65514 19.633 5.55188 19.7363 5.55188 19.8638C5.55188 22.5729 6.55413 24.626 8.29744 25.4886C8.33389 25.5068 8.36426 25.5129 8.4007 25.5129C8.48574 25.5129 8.56471 25.4643 8.60116 25.3853C8.6619 25.2699 8.6133 25.1363 8.49789 25.0816ZM8.49789 25.0816C6.91858 24.298 6.00745 22.3968 6.00745 19.8638C6.00745 19.7363 5.90418 19.633 5.77662 19.633C5.65514 19.633 5.55188 19.7363 5.55188 19.8638C5.55188 22.5729 6.55413 24.626 8.29744 25.4886C8.33389 25.5068 8.36426 25.5129 8.4007 25.5129C8.48574 25.5129 8.56471 25.4643 8.60116 25.3853C8.6619 25.2699 8.6133 25.1363 8.49789 25.0816ZM10.2412 8.85726C10.144 8.77829 10.0043 8.79044 9.92534 8.88763C8.4493 10.6492 7.26482 12.7205 6.49339 14.8769C6.45087 14.9983 6.51161 15.1259 6.62702 15.1684C6.65132 15.1806 6.68169 15.1866 6.70599 15.1866C6.7971 15.1866 6.88821 15.1259 6.91858 15.0348C7.67787 12.927 8.83198 10.9043 10.2716 9.17919C10.3505 9.082 10.3384 8.9423 10.2412 8.85726ZM12.4644 21.7954C11.8023 20.5806 11.7901 19.2928 12.4279 18.0719C12.4826 17.9565 12.4401 17.8168 12.3308 17.7621C12.2214 17.7014 12.0817 17.7439 12.021 17.8593C11.3224 19.2017 11.3346 20.6778 12.0635 22.0141C12.106 22.087 12.185 22.1295 12.2639 22.1295C12.3004 22.1295 12.3368 22.1234 12.3733 22.1052C12.4826 22.0445 12.5251 21.9048 12.4644 21.7954ZM16.5827 10.0114C16.1758 9.77447 15.6534 9.81699 15.1067 10.1329L14.8759 10.2665V8.5171C14.8759 8.39561 14.7726 8.29235 14.6511 8.29235C14.5236 8.29235 14.4203 8.39561 14.4203 8.5171V10.5277L13.5213 11.0501V9.30068C13.5213 9.17312 13.418 9.07593 13.2905 9.07593C13.1629 9.07593 13.0657 9.17312 13.0657 9.30068V11.3113L12.6041 11.5785C11.5532 12.186 10.7271 13.6195 10.7271 14.8343C10.7271 14.9619 10.8243 15.0652 10.9519 15.0652C11.0795 15.0652 11.1827 14.9619 11.1827 14.8343C11.1827 13.7835 11.9238 12.5018 12.8349 11.9734L13.3816 11.6575L13.3877 11.6514C13.4059 11.6453 13.4241 11.6332 13.4423 11.615L14.7301 10.8739C14.7422 10.8739 14.7483 10.8678 14.7544 10.8618L15.3314 10.5277C15.7323 10.2969 16.0968 10.2543 16.358 10.4062C16.6131 10.5581 16.7589 10.8921 16.7589 11.3538C16.7589 11.4753 16.8622 11.5785 16.9897 11.5785C17.1112 11.5785 17.2145 11.4753 17.2145 11.3538C17.2145 10.7221 16.9897 10.2483 16.5827 10.0114ZM29.4966 22.4211L27.9841 21.5464L28.2149 21.4128C28.7556 21.0969 29.0593 20.6656 29.0593 20.1918C29.0593 19.7241 28.7556 19.2928 28.2149 18.977C27.158 18.3696 25.5058 18.3696 24.4489 18.977L23.1976 19.6998L21.9524 20.4227C21.0412 20.945 19.5531 20.945 18.6419 20.4227C18.2471 20.1918 18.0223 19.9003 18.0223 19.5966C18.0223 19.2989 18.2471 19.0073 18.6419 18.7765L19.2068 18.4546C19.2129 18.4485 19.219 18.4424 19.225 18.4424L21.1445 17.3309C22.0556 16.8024 23.5378 16.8024 24.4489 17.3309C24.5582 17.3916 24.698 17.3552 24.7648 17.2458C24.8255 17.1365 24.7891 16.9968 24.6797 16.936C23.6228 16.3286 21.9706 16.3286 20.9137 16.936L20.4581 17.1972L18.7148 16.195C18.6055 16.1342 18.4658 16.1707 18.405 16.28C18.3443 16.3893 18.3807 16.529 18.4901 16.5898L20.0025 17.4645L19.1036 17.9869L17.3602 16.9785C17.2509 16.9178 17.1112 16.9542 17.0505 17.0636C16.9836 17.1729 17.0201 17.3066 17.1294 17.3734L18.648 18.2481L18.4172 18.3817C17.8705 18.6976 17.5668 19.1288 17.5668 19.5966C17.5668 20.0703 17.8705 20.5016 18.4172 20.8175C18.9456 21.1212 19.6199 21.273 20.2941 21.273C20.9744 21.273 21.6487 21.1212 22.1771 20.8175L24.6797 19.3718C25.5909 18.8433 27.073 18.8433 27.9841 19.3718C28.385 19.6026 28.6037 19.8942 28.6037 20.1918C28.6037 20.4955 28.385 20.7871 27.9841 21.0179L27.4253 21.3399L27.401 21.352L26.0647 22.1295L26.0525 22.1356L25.4815 22.4636C24.5704 22.986 23.0883 22.986 22.1771 22.4636C22.0739 22.3968 21.9281 22.4332 21.8673 22.5426C21.8066 22.6519 21.843 22.7916 21.9524 22.8584C22.4748 23.1621 23.1551 23.314 23.8293 23.314C24.5096 23.314 25.1839 23.1621 25.7124 22.8584L26.174 22.5912L27.9112 23.5995C27.9477 23.6177 27.9902 23.6299 28.0266 23.6299C28.1056 23.6299 28.1846 23.5873 28.2271 23.5145C28.2878 23.4051 28.2514 23.2654 28.1421 23.2047L26.6296 22.33L27.5286 21.8076L29.2719 22.8159C29.3022 22.8341 29.3448 22.8463 29.3812 22.8463C29.4602 22.8463 29.5391 22.8038 29.5817 22.7309C29.6424 22.6215 29.606 22.4818 29.4966 22.4211ZM19.875 4.90899C18.2532 3.97355 16.115 4.174 13.8554 5.47997C13.7461 5.54071 13.7096 5.68042 13.7704 5.78975C13.8372 5.89909 13.9769 5.93554 14.0862 5.87479C16.2001 4.65387 18.1742 4.45342 19.6502 5.30381C21.1202 6.15421 21.9342 7.96434 21.9342 10.4062C21.9342 10.5338 22.0374 10.637 22.1589 10.637C22.2865 10.637 22.3897 10.5338 22.3897 10.4062C22.3897 7.79426 21.4968 5.84442 19.875 4.90899ZM34.0705 32.2492C34.0098 32.1399 33.8701 32.1035 33.7607 32.1703C31.6226 33.4034 28.7677 34.0897 25.7306 34.0958C25.603 34.0958 25.5058 34.1991 25.5058 34.3266C25.5058 34.4481 25.603 34.5514 25.7306 34.5514C28.8467 34.5453 31.7805 33.8346 33.9916 32.559C34.1009 32.4983 34.1374 32.3586 34.0705 32.2492ZM31.6165 14.968C27.0426 12.3257 19.5895 12.3257 15.0095 14.968C14.9002 15.0348 14.8637 15.1745 14.9245 15.2838C14.9913 15.3932 15.131 15.4296 15.2403 15.3628C19.6928 12.7934 26.9394 12.7934 31.3918 15.3628C34.3317 17.0636 35.3947 19.5297 34.1677 21.7954C33.6332 22.7795 32.6735 23.6845 31.3918 24.4256C26.9394 27.0011 19.6928 27.0011 15.2403 24.4256C15.131 24.3648 14.9913 24.4013 14.9245 24.5106C14.8637 24.62 14.9002 24.7597 15.0095 24.8204C17.2995 26.1446 20.3063 26.8067 23.313 26.8067C26.3198 26.8067 29.3265 26.1446 31.6165 24.8204C32.9893 24.0308 33.9855 23.0832 34.5626 22.0141C35.9293 19.5054 34.7994 16.8085 31.6165 14.968ZM37.2777 27.6449C37.1502 27.6449 37.0409 27.7361 37.0348 27.8636C36.974 28.8355 36.5124 29.8074 35.7045 30.6699C35.6134 30.761 35.6195 30.9068 35.7106 30.9919C35.7531 31.0344 35.8139 31.0526 35.8685 31.0526C35.9293 31.0526 35.99 31.0283 36.0325 30.9858C36.9194 30.0443 37.4235 28.9752 37.4903 27.8879C37.4964 27.7664 37.3992 27.6571 37.2777 27.6449ZM31.6165 14.968C27.0426 12.3257 19.5895 12.3257 15.0095 14.968C14.9002 15.0348 14.8637 15.1745 14.9245 15.2838C14.9913 15.3932 15.131 15.4296 15.2403 15.3628C19.6928 12.7934 26.9394 12.7934 31.3918 15.3628C34.3317 17.0636 35.3947 19.5297 34.1677 21.7954C33.6332 22.7795 32.6735 23.6845 31.3918 24.4256C26.9394 27.0011 19.6928 27.0011 15.2403 24.4256C15.131 24.3648 14.9913 24.4013 14.9245 24.5106C14.8637 24.62 14.9002 24.7597 15.0095 24.8204C17.2995 26.1446 20.3063 26.8067 23.313 26.8067C26.3198 26.8067 29.3265 26.1446 31.6165 24.8204C32.9893 24.0308 33.9855 23.0832 34.5626 22.0141C35.9293 19.5054 34.7994 16.8085 31.6165 14.968ZM17.3602 16.9785C17.2509 16.9178 17.1112 16.9542 17.0505 17.0636C16.9836 17.1729 17.0201 17.3066 17.1294 17.3734L18.648 18.2481L18.4172 18.3817C17.8705 18.6976 17.5668 19.1288 17.5668 19.5966C17.5668 20.0703 17.8705 20.5016 18.4172 20.8175C18.9456 21.1212 19.6199 21.273 20.2941 21.273C20.9744 21.273 21.6487 21.1212 22.1771 20.8175L24.6797 19.3718C25.5909 18.8433 27.073 18.8433 27.9841 19.3718C28.385 19.6026 28.6037 19.8942 28.6037 20.1918C28.6037 20.4955 28.385 20.7871 27.9841 21.0179L27.4253 21.3399L27.401 21.352L26.0647 22.1295L26.0525 22.1356L25.4815 22.4636C24.5704 22.986 23.0883 22.986 22.1771 22.4636C22.0739 22.3968 21.9281 22.4332 21.8673 22.5426C21.8066 22.6519 21.843 22.7916 21.9524 22.8584C22.4748 23.1621 23.1551 23.314 23.8293 23.314C24.5096 23.314 25.1839 23.1621 25.7124 22.8584L26.174 22.5912L27.9112 23.5995C27.9477 23.6177 27.9902 23.6299 28.0266 23.6299C28.1056 23.6299 28.1846 23.5873 28.2271 23.5145C28.2878 23.4051 28.2514 23.2654 28.1421 23.2047L26.6296 22.33L27.5286 21.8076L29.2719 22.8159C29.3022 22.8341 29.3448 22.8463 29.3812 22.8463C29.4602 22.8463 29.5391 22.8038 29.5817 22.7309C29.6424 22.6215 29.606 22.4818 29.4966 22.4211L27.9841 21.5464L28.2149 21.4128C28.7556 21.0969 29.0593 20.6656 29.0593 20.1918C29.0593 19.7241 28.7556 19.2928 28.2149 18.977C27.158 18.3696 25.5058 18.3696 24.4489 18.977L23.1976 19.6998L21.9524 20.4227C21.0412 20.945 19.5531 20.945 18.6419 20.4227C18.2471 20.1918 18.0223 19.9003 18.0223 19.5966C18.0223 19.2989 18.2471 19.0073 18.6419 18.7765L19.2068 18.4546C19.2129 18.4485 19.219 18.4424 19.225 18.4424L21.1445 17.3309C22.0556 16.8024 23.5378 16.8024 24.4489 17.3309C24.5582 17.3916 24.698 17.3552 24.7648 17.2458C24.8255 17.1365 24.7891 16.9968 24.6797 16.936C23.6228 16.3286 21.9706 16.3286 20.9137 16.936L20.4581 17.1972L18.7148 16.195C18.6055 16.1342 18.4658 16.1707 18.405 16.28C18.3443 16.3893 18.3807 16.529 18.4901 16.5898L20.0025 17.4645L19.1036 17.9869L17.3602 16.9785ZM12.4279 18.0719C12.4826 17.9565 12.4401 17.8168 12.3308 17.7621C12.2214 17.7014 12.0817 17.7439 12.021 17.8593C11.3224 19.2017 11.3346 20.6778 12.0635 22.0141C12.106 22.087 12.185 22.1295 12.2639 22.1295C12.3004 22.1295 12.3368 22.1234 12.3733 22.1052C12.4826 22.0445 12.5251 21.9048 12.4644 21.7954C11.8023 20.5806 11.7901 19.2928 12.4279 18.0719ZM19.875 4.90899C18.2532 3.97355 16.115 4.174 13.8554 5.47997C13.7461 5.54071 13.7096 5.68042 13.7704 5.78975C13.8372 5.89909 13.9769 5.93554 14.0862 5.87479C16.2001 4.65387 18.1742 4.45342 19.6502 5.30381C21.1202 6.15421 21.9342 7.96434 21.9342 10.4062C21.9342 10.5338 22.0374 10.637 22.1589 10.637C22.2865 10.637 22.3897 10.5338 22.3897 10.4062C22.3897 7.79426 21.4968 5.84442 19.875 4.90899ZM16.5827 10.0114C16.1758 9.77447 15.6534 9.81699 15.1067 10.1329L14.8759 10.2665V8.5171C14.8759 8.39561 14.7726 8.29235 14.6511 8.29235C14.5236 8.29235 14.4203 8.39561 14.4203 8.5171V10.5277L13.5213 11.0501V9.30068C13.5213 9.17312 13.418 9.07593 13.2905 9.07593C13.1629 9.07593 13.0657 9.17312 13.0657 9.30068V11.3113L12.6041 11.5785C11.5532 12.186 10.7271 13.6195 10.7271 14.8343C10.7271 14.9619 10.8243 15.0652 10.9519 15.0652C11.0795 15.0652 11.1827 14.9619 11.1827 14.8343C11.1827 13.7835 11.9238 12.5018 12.8349 11.9734L13.3816 11.6575L13.3877 11.6514C13.4059 11.6453 13.4241 11.6332 13.4423 11.615L14.7301 10.8739C14.7422 10.8739 14.7483 10.8678 14.7544 10.8618L15.3314 10.5277C15.7323 10.2969 16.0968 10.2543 16.358 10.4062C16.6131 10.5581 16.7589 10.8921 16.7589 11.3538C16.7589 11.4753 16.8622 11.5785 16.9897 11.5785C17.1112 11.5785 17.2145 11.4753 17.2145 11.3538C17.2145 10.7221 16.9897 10.2483 16.5827 10.0114ZM9.92534 8.88763C8.4493 10.6492 7.26482 12.7205 6.49339 14.8769C6.45087 14.9983 6.51161 15.1259 6.62702 15.1684C6.65132 15.1806 6.68169 15.1866 6.70599 15.1866C6.7971 15.1866 6.88821 15.1259 6.91858 15.0348C7.67787 12.927 8.83198 10.9043 10.2716 9.17919C10.3505 9.082 10.3384 8.9423 10.2412 8.85726C10.144 8.77829 10.0043 8.79044 9.92534 8.88763ZM8.49789 25.0816C6.91858 24.298 6.00745 22.3968 6.00745 19.8638C6.00745 19.7363 5.90418 19.633 5.77662 19.633C5.65514 19.633 5.55188 19.7363 5.55188 19.8638C5.55188 22.5729 6.55413 24.626 8.29744 25.4886C8.33389 25.5068 8.36426 25.5129 8.4007 25.5129C8.48574 25.5129 8.56471 25.4643 8.60116 25.3853C8.6619 25.2699 8.6133 25.1363 8.49789 25.0816ZM37.2777 27.6449C37.1502 27.6449 37.0409 27.7361 37.0348 27.8636C36.974 28.8355 36.5124 29.8074 35.7045 30.6699C35.6134 30.761 35.6195 30.9068 35.7106 30.9919C35.7531 31.0344 35.8139 31.0526 35.8685 31.0526C35.9293 31.0526 35.99 31.0283 36.0325 30.9858C36.9194 30.0443 37.4235 28.9752 37.4903 27.8879C37.4964 27.7664 37.3992 27.6571 37.2777 27.6449ZM33.7607 32.1703C31.6226 33.4034 28.7677 34.0897 25.7306 34.0958C25.603 34.0958 25.5058 34.1991 25.5058 34.3266C25.5058 34.4481 25.603 34.5514 25.7306 34.5514C28.8467 34.5453 31.7805 33.8346 33.9916 32.559C34.1009 32.4983 34.1374 32.3586 34.0705 32.2492C34.0098 32.1399 33.8701 32.1035 33.7607 32.1703ZM37.4964 23.0407V19.8942C37.4964 17.6589 36.0022 15.5632 33.293 14.0022C30.6932 12.4957 27.316 11.7061 23.9022 11.6332C24.0116 10.8861 24.0662 10.145 24.0662 9.44039C24.0662 6.4154 23.07 4.13148 21.2538 2.97737C21.2356 2.95915 21.2113 2.94093 21.187 2.92878L21.0777 2.86803L20.7558 2.69188L17.0201 0.602334L17.014 0.59626L17.0079 0.590186C16.9958 0.584111 16.9836 0.571963 16.9654 0.565889C15.0581 -0.405993 12.5737 -0.120503 9.98609 1.37984C8.90487 1.99941 7.84795 2.80729 6.83962 3.77917C6.14108 4.42912 5.44861 5.20662 4.7197 6.14206C1.76761 9.96885 0 14.646 0 18.6672C0 21.7954 1.06907 24.134 3.00676 25.2517L6.82747 27.3838L6.95503 27.4566C6.97325 27.4688 6.99755 27.4809 7.01577 27.4809C7.76898 27.894 8.62545 28.1066 9.55481 28.1066C9.98001 28.1066 10.4234 28.0641 10.8729 27.973C11.0673 28.1795 11.2738 28.386 11.5047 28.5804V31.7269C11.5047 33.9622 12.9928 36.0517 15.702 37.6189C18.4536 39.2043 22.0678 40 25.6881 40C29.2962 40 32.9164 39.2043 35.6681 37.6189C38.3772 36.0517 39.8654 33.9622 39.8654 31.7208V27.6692C39.8715 26.0231 39.0454 24.3952 37.4964 23.0407ZM39.4098 27.6753C39.4098 27.8029 39.4037 27.9244 39.3916 28.0459C39.2154 29.9592 37.8123 31.7633 35.4372 33.1361C30.0615 36.24 21.3085 36.24 15.9328 33.1361C14.0072 32.0184 12.7317 30.6517 12.2153 29.1453C12.5616 29.4004 12.9321 29.6434 13.333 29.8742C16.0846 31.4657 19.6988 32.2614 23.313 32.2614C26.9272 32.2614 30.5414 31.4657 33.293 29.8742C36.0022 28.3131 37.4964 26.2175 37.4964 23.9822V23.6602C38.772 24.8812 39.428 26.2539 39.4098 27.6753ZM3.23758 24.8569C1.44567 23.8242 0.45557 21.6254 0.45557 18.6672C0.45557 14.7432 2.18673 10.1693 5.08416 6.42148C5.7827 5.51641 6.48124 4.73891 7.14941 4.10718C8.13951 3.16567 9.16606 2.37602 10.2108 1.77467C12.6648 0.359364 14.9913 0.0738734 16.7589 0.972864C16.7589 0.972864 16.765 0.972864 16.771 0.978938C16.7771 0.985013 16.7832 0.985013 16.7893 0.991087L18.9335 2.19379C17.4028 2.04193 15.6655 2.50358 13.8554 3.54228C8.35211 6.71912 3.87538 14.476 3.87538 20.8296C3.87538 22.9678 4.39169 24.7658 5.34535 26.0353L3.23758 24.8569ZM7.19193 27.0679C7.18585 27.0679 7.18585 27.0618 7.17978 27.0618L7.14333 27.0436C6.92466 26.9221 6.71813 26.7763 6.51768 26.6184C5.10845 25.4704 4.33095 23.4173 4.33095 20.8296C4.33095 14.6217 8.70442 7.04105 14.0862 3.9371C16.522 2.53395 18.7998 2.24238 20.5553 3.09886L20.8955 3.28716C22.6448 4.33193 23.6107 6.51867 23.6107 9.44039C23.6107 10.145 23.556 10.8739 23.4345 11.621C19.7778 11.6028 16.115 12.3986 13.333 14.0022C10.6239 15.5632 9.12962 17.6589 9.12962 19.8942V23.9822C9.13569 25.2517 9.61556 26.4726 10.5206 27.5781C9.2754 27.7664 8.13951 27.5903 7.19193 27.0679ZM11.1584 27.6146C11.1584 27.6085 11.1584 27.6085 11.1584 27.6085C11.1341 27.5842 11.1159 27.566 11.0977 27.5417C10.1136 26.4544 9.59126 25.2395 9.59126 23.9822V21.9959C10.2169 23.4233 11.4986 24.7293 13.333 25.7923C16.0421 27.3534 19.6624 28.1795 23.3312 28.1795C25.4086 28.1795 27.4982 27.9122 29.4419 27.3716C29.5634 27.3412 29.6363 27.2137 29.606 27.0922C29.5695 26.9707 29.4419 26.8978 29.3205 26.9343C24.0419 28.4042 17.7065 27.7907 13.5638 25.3975C11.0005 23.9154 9.59126 21.9655 9.59126 19.8942C9.59126 17.8289 11.0005 15.873 13.5638 14.397C18.9396 11.293 27.6865 11.293 33.0683 14.397C35.6316 15.873 37.0409 17.8289 37.0409 19.8942V19.9306C37.0226 21.9898 35.6195 23.9214 33.0683 25.3975C32.6917 25.6101 32.2908 25.8166 31.8838 26.0049C31.7684 26.0596 31.7198 26.1932 31.7684 26.3086C31.8231 26.424 31.9567 26.4726 32.0721 26.4179C32.4973 26.2236 32.9104 26.011 33.293 25.7923C35.1335 24.7293 36.4152 23.4173 37.0409 21.9837V23.9822C37.0409 26.0474 35.6316 28.0033 33.0683 29.4855C27.6865 32.5894 18.9396 32.5894 13.5638 29.4855C12.9382 29.121 12.3793 28.7322 11.8934 28.3192C11.6261 28.0884 11.3832 27.8575 11.1584 27.6146ZM39.4098 31.7208C39.4098 33.7921 38.0006 35.7419 35.4372 37.2241C30.0615 40.328 21.3085 40.328 15.9328 37.2241C13.3695 35.7419 11.9602 33.7921 11.9602 31.7269V29.7345C12.5919 31.1741 13.8675 32.4679 15.702 33.5309C18.4536 35.1163 22.0678 35.912 25.6881 35.912C29.3022 35.912 32.9164 35.1163 35.6681 33.5309C37.4964 32.474 38.7781 31.1619 39.4098 29.7284V31.7208ZM37.2777 27.6449C37.1502 27.6449 37.0409 27.7361 37.0348 27.8636C36.974 28.8355 36.5124 29.8074 35.7045 30.6699C35.6134 30.761 35.6195 30.9068 35.7106 30.9919C35.7531 31.0344 35.8139 31.0526 35.8685 31.0526C35.9293 31.0526 35.99 31.0283 36.0325 30.9858C36.9194 30.0443 37.4235 28.9752 37.4903 27.8879C37.4964 27.7664 37.3992 27.6571 37.2777 27.6449ZM34.5626 22.0141C35.9293 19.5054 34.7994 16.8085 31.6165 14.968C27.0426 12.3257 19.5895 12.3257 15.0095 14.968C14.9002 15.0348 14.8637 15.1745 14.9245 15.2838C14.9913 15.3932 15.131 15.4296 15.2403 15.3628C19.6928 12.7934 26.9394 12.7934 31.3918 15.3628C34.3317 17.0636 35.3947 19.5297 34.1677 21.7954C33.6332 22.7795 32.6735 23.6845 31.3918 24.4256C26.9394 27.0011 19.6928 27.0011 15.2403 24.4256C15.131 24.3648 14.9913 24.4013 14.9245 24.5106C14.8637 24.62 14.9002 24.7597 15.0095 24.8204C17.2995 26.1446 20.3063 26.8067 23.313 26.8067C26.3198 26.8067 29.3265 26.1446 31.6165 24.8204C32.9893 24.0308 33.9855 23.0832 34.5626 22.0141ZM33.7607 32.1703C31.6226 33.4034 28.7677 34.0897 25.7306 34.0958C25.603 34.0958 25.5058 34.1991 25.5058 34.3266C25.5058 34.4481 25.603 34.5514 25.7306 34.5514C28.8467 34.5453 31.7805 33.8346 33.9916 32.559C34.1009 32.4983 34.1374 32.3586 34.0705 32.2492C34.0098 32.1399 33.8701 32.1035 33.7607 32.1703ZM14.0862 5.87479C16.2001 4.65387 18.1742 4.45342 19.6502 5.30381C21.1202 6.15421 21.9342 7.96434 21.9342 10.4062C21.9342 10.5338 22.0374 10.637 22.1589 10.637C22.2865 10.637 22.3897 10.5338 22.3897 10.4062C22.3897 7.79426 21.4968 5.84442 19.875 4.90899C18.2532 3.97355 16.115 4.174 13.8554 5.47997C13.7461 5.54071 13.7096 5.68042 13.7704 5.78975C13.8372 5.89909 13.9769 5.93554 14.0862 5.87479ZM17.3602 16.9785C17.2509 16.9178 17.1112 16.9542 17.0505 17.0636C16.9836 17.1729 17.0201 17.3066 17.1294 17.3734L18.648 18.2481L18.4172 18.3817C17.8705 18.6976 17.5668 19.1288 17.5668 19.5966C17.5668 20.0703 17.8705 20.5016 18.4172 20.8175C18.9456 21.1212 19.6199 21.273 20.2941 21.273C20.9744 21.273 21.6487 21.1212 22.1771 20.8175L24.6797 19.3718C25.5909 18.8433 27.073 18.8433 27.9841 19.3718C28.385 19.6026 28.6037 19.8942 28.6037 20.1918C28.6037 20.4955 28.385 20.7871 27.9841 21.0179L27.4253 21.3399L27.401 21.352L26.0647 22.1295L26.0525 22.1356L25.4815 22.4636C24.5704 22.986 23.0883 22.986 22.1771 22.4636C22.0739 22.3968 21.9281 22.4332 21.8673 22.5426C21.8066 22.6519 21.843 22.7916 21.9524 22.8584C22.4748 23.1621 23.1551 23.314 23.8293 23.314C24.5096 23.314 25.1839 23.1621 25.7124 22.8584L26.174 22.5912L27.9112 23.5995C27.9477 23.6177 27.9902 23.6299 28.0266 23.6299C28.1056 23.6299 28.1846 23.5873 28.2271 23.5145C28.2878 23.4051 28.2514 23.2654 28.1421 23.2047L26.6296 22.33L27.5286 21.8076L29.2719 22.8159C29.3022 22.8341 29.3448 22.8463 29.3812 22.8463C29.4602 22.8463 29.5391 22.8038 29.5817 22.7309C29.6424 22.6215 29.606 22.4818 29.4966 22.4211L27.9841 21.5464L28.2149 21.4128C28.7556 21.0969 29.0593 20.6656 29.0593 20.1918C29.0593 19.7241 28.7556 19.2928 28.2149 18.977C27.158 18.3696 25.5058 18.3696 24.4489 18.977L23.1976 19.6998L21.9524 20.4227C21.0412 20.945 19.5531 20.945 18.6419 20.4227C18.2471 20.1918 18.0223 19.9003 18.0223 19.5966C18.0223 19.2989 18.2471 19.0073 18.6419 18.7765L19.2068 18.4546C19.2129 18.4485 19.219 18.4424 19.225 18.4424L21.1445 17.3309C22.0556 16.8024 23.5378 16.8024 24.4489 17.3309C24.5582 17.3916 24.698 17.3552 24.7648 17.2458C24.8255 17.1365 24.7891 16.9968 24.6797 16.936C23.6228 16.3286 21.9706 16.3286 20.9137 16.936L20.4581 17.1972L18.7148 16.195C18.6055 16.1342 18.4658 16.1707 18.405 16.28C18.3443 16.3893 18.3807 16.529 18.4901 16.5898L20.0025 17.4645L19.1036 17.9869L17.3602 16.9785ZM10.9519 15.0652C11.0795 15.0652 11.1827 14.9619 11.1827 14.8343C11.1827 13.7835 11.9238 12.5018 12.8349 11.9734L13.3816 11.6575L13.3877 11.6514C13.4059 11.6453 13.4241 11.6332 13.4423 11.615L14.7301 10.8739C14.7422 10.8739 14.7483 10.8678 14.7544 10.8618L15.3314 10.5277C15.7323 10.2969 16.0968 10.2543 16.358 10.4062C16.6131 10.5581 16.7589 10.8921 16.7589 11.3538C16.7589 11.4753 16.8622 11.5785 16.9897 11.5785C17.1112 11.5785 17.2145 11.4753 17.2145 11.3538C17.2145 10.7221 16.9897 10.2483 16.5827 10.0114C16.1758 9.77447 15.6534 9.81699 15.1067 10.1329L14.8759 10.2665V8.5171C14.8759 8.39561 14.7726 8.29235 14.6511 8.29235C14.5236 8.29235 14.4203 8.39561 14.4203 8.5171V10.5277L13.5213 11.0501V9.30068C13.5213 9.17312 13.418 9.07593 13.2905 9.07593C13.1629 9.07593 13.0657 9.17312 13.0657 9.30068V11.3113L12.6041 11.5785C11.5532 12.186 10.7271 13.6195 10.7271 14.8343C10.7271 14.9619 10.8243 15.0652 10.9519 15.0652ZM12.4279 18.0719C12.4826 17.9565 12.4401 17.8168 12.3308 17.7621C12.2214 17.7014 12.0817 17.7439 12.021 17.8593C11.3224 19.2017 11.3346 20.6778 12.0635 22.0141C12.106 22.087 12.185 22.1295 12.2639 22.1295C12.3004 22.1295 12.3368 22.1234 12.3733 22.1052C12.4826 22.0445 12.5251 21.9048 12.4644 21.7954C11.8023 20.5806 11.7901 19.2928 12.4279 18.0719ZM6.62702 15.1684C6.65132 15.1806 6.68169 15.1866 6.70599 15.1866C6.7971 15.1866 6.88821 15.1259 6.91858 15.0348C7.67787 12.927 8.83198 10.9043 10.2716 9.17919C10.3505 9.082 10.3384 8.9423 10.2412 8.85726C10.144 8.77829 10.0043 8.79044 9.92534 8.88763C8.4493 10.6492 7.26482 12.7205 6.49339 14.8769C6.45087 14.9983 6.51161 15.1259 6.62702 15.1684ZM8.49789 25.0816C6.91858 24.298 6.00745 22.3968 6.00745 19.8638C6.00745 19.7363 5.90418 19.633 5.77662 19.633C5.65514 19.633 5.55188 19.7363 5.55188 19.8638C5.55188 22.5729 6.55413 24.626 8.29744 25.4886C8.33389 25.5068 8.36426 25.5129 8.4007 25.5129C8.48574 25.5129 8.56471 25.4643 8.60116 25.3853C8.6619 25.2699 8.6133 25.1363 8.49789 25.0816ZM34.0705 32.2492C34.0098 32.1399 33.8701 32.1035 33.7607 32.1703C31.6226 33.4034 28.7677 34.0897 25.7306 34.0958C25.603 34.0958 25.5058 34.1991 25.5058 34.3266C25.5058 34.4481 25.603 34.5514 25.7306 34.5514C28.8467 34.5453 31.7805 33.8346 33.9916 32.559C34.1009 32.4983 34.1374 32.3586 34.0705 32.2492ZM37.2777 27.6449C37.1502 27.6449 37.0409 27.7361 37.0348 27.8636C36.974 28.8355 36.5124 29.8074 35.7045 30.6699C35.6134 30.761 35.6195 30.9068 35.7106 30.9919C35.7531 31.0344 35.8139 31.0526 35.8685 31.0526C35.9293 31.0526 35.99 31.0283 36.0325 30.9858C36.9194 30.0443 37.4235 28.9752 37.4903 27.8879C37.4964 27.7664 37.3992 27.6571 37.2777 27.6449ZM8.49789 25.0816C6.91858 24.298 6.00745 22.3968 6.00745 19.8638C6.00745 19.7363 5.90418 19.633 5.77662 19.633C5.65514 19.633 5.55188 19.7363 5.55188 19.8638C5.55188 22.5729 6.55413 24.626 8.29744 25.4886C8.33389 25.5068 8.36426 25.5129 8.4007 25.5129C8.48574 25.5129 8.56471 25.4643 8.60116 25.3853C8.6619 25.2699 8.6133 25.1363 8.49789 25.0816ZM10.2412 8.85726C10.144 8.77829 10.0043 8.79044 9.92534 8.88763C8.4493 10.6492 7.26482 12.7205 6.49339 14.8769C6.45087 14.9983 6.51161 15.1259 6.62702 15.1684C6.65132 15.1806 6.68169 15.1866 6.70599 15.1866C6.7971 15.1866 6.88821 15.1259 6.91858 15.0348C7.67787 12.927 8.83198 10.9043 10.2716 9.17919C10.3505 9.082 10.3384 8.9423 10.2412 8.85726ZM16.5827 10.0114C16.1758 9.77447 15.6534 9.81699 15.1067 10.1329L14.8759 10.2665V8.5171C14.8759 8.39561 14.7726 8.29235 14.6511 8.29235C14.5236 8.29235 14.4203 8.39561 14.4203 8.5171V10.5277L13.5213 11.0501V9.30068C13.5213 9.17312 13.418 9.07593 13.2905 9.07593C13.1629 9.07593 13.0657 9.17312 13.0657 9.30068V11.3113L12.6041 11.5785C11.5532 12.186 10.7271 13.6195 10.7271 14.8343C10.7271 14.9619 10.8243 15.0652 10.9519 15.0652C11.0795 15.0652 11.1827 14.9619 11.1827 14.8343C11.1827 13.7835 11.9238 12.5018 12.8349 11.9734L13.3816 11.6575L13.3877 11.6514C13.4059 11.6453 13.4241 11.6332 13.4423 11.615L14.7301 10.8739C14.7422 10.8739 14.7483 10.8678 14.7544 10.8618L15.3314 10.5277C15.7323 10.2969 16.0968 10.2543 16.358 10.4062C16.6131 10.5581 16.7589 10.8921 16.7589 11.3538C16.7589 11.4753 16.8622 11.5785 16.9897 11.5785C17.1112 11.5785 17.2145 11.4753 17.2145 11.3538C17.2145 10.7221 16.9897 10.2483 16.5827 10.0114ZM19.875 4.90899C18.2532 3.97355 16.115 4.174 13.8554 5.47997C13.7461 5.54071 13.7096 5.68042 13.7704 5.78975C13.8372 5.89909 13.9769 5.93554 14.0862 5.87479C16.2001 4.65387 18.1742 4.45342 19.6502 5.30381C21.1202 6.15421 21.9342 7.96434 21.9342 10.4062C21.9342 10.5338 22.0374 10.637 22.1589 10.637C22.2865 10.637 22.3897 10.5338 22.3897 10.4062C22.3897 7.79426 21.4968 5.84442 19.875 4.90899ZM12.4644 21.7954C11.8023 20.5806 11.7901 19.2928 12.4279 18.0719C12.4826 17.9565 12.4401 17.8168 12.3308 17.7621C12.2214 17.7014 12.0817 17.7439 12.021 17.8593C11.3224 19.2017 11.3346 20.6778 12.0635 22.0141C12.106 22.087 12.185 22.1295 12.2639 22.1295C12.3004 22.1295 12.3368 22.1234 12.3733 22.1052C12.4826 22.0445 12.5251 21.9048 12.4644 21.7954ZM29.4966 22.4211L27.9841 21.5464L28.2149 21.4128C28.7556 21.0969 29.0593 20.6656 29.0593 20.1918C29.0593 19.7241 28.7556 19.2928 28.2149 18.977C27.158 18.3696 25.5058 18.3696 24.4489 18.977L23.1976 19.6998L21.9524 20.4227C21.0412 20.945 19.5531 20.945 18.6419 20.4227C18.2471 20.1918 18.0223 19.9003 18.0223 19.5966C18.0223 19.2989 18.2471 19.0073 18.6419 18.7765L19.2068 18.4546C19.2129 18.4485 19.219 18.4424 19.225 18.4424L21.1445 17.3309C22.0556 16.8024 23.5378 16.8024 24.4489 17.3309C24.5582 17.3916 24.698 17.3552 24.7648 17.2458C24.8255 17.1365 24.7891 16.9968 24.6797 16.936C23.6228 16.3286 21.9706 16.3286 20.9137 16.936L20.4581 17.1972L18.7148 16.195C18.6055 16.1342 18.4658 16.1707 18.405 16.28C18.3443 16.3893 18.3807 16.529 18.4901 16.5898L20.0025 17.4645L19.1036 17.9869L17.3602 16.9785C17.2509 16.9178 17.1112 16.9542 17.0505 17.0636C16.9836 17.1729 17.0201 17.3066 17.1294 17.3734L18.648 18.2481L18.4172 18.3817C17.8705 18.6976 17.5668 19.1288 17.5668 19.5966C17.5668 20.0703 17.8705 20.5016 18.4172 20.8175C18.9456 21.1212 19.6199 21.273 20.2941 21.273C20.9744 21.273 21.6487 21.1212 22.1771 20.8175L24.6797 19.3718C25.5909 18.8433 27.073 18.8433 27.9841 19.3718C28.385 19.6026 28.6037 19.8942 28.6037 20.1918C28.6037 20.4955 28.385 20.7871 27.9841 21.0179L27.4253 21.3399L27.401 21.352L26.0647 22.1295L26.0525 22.1356L25.4815 22.4636C24.5704 22.986 23.0883 22.986 22.1771 22.4636C22.0739 22.3968 21.9281 22.4332 21.8673 22.5426C21.8066 22.6519 21.843 22.7916 21.9524 22.8584C22.4748 23.1621 23.1551 23.314 23.8293 23.314C24.5096 23.314 25.1839 23.1621 25.7124 22.8584L26.174 22.5912L27.9112 23.5995C27.9477 23.6177 27.9902 23.6299 28.0266 23.6299C28.1056 23.6299 28.1846 23.5873 28.2271 23.5145C28.2878 23.4051 28.2514 23.2654 28.1421 23.2047L26.6296 22.33L27.5286 21.8076L29.2719 22.8159C29.3022 22.8341 29.3448 22.8463 29.3812 22.8463C29.4602 22.8463 29.5391 22.8038 29.5817 22.7309C29.6424 22.6215 29.606 22.4818 29.4966 22.4211ZM31.6165 14.968C27.0426 12.3257 19.5895 12.3257 15.0095 14.968C14.9002 15.0348 14.8637 15.1745 14.9245 15.2838C14.9913 15.3932 15.131 15.4296 15.2403 15.3628C19.6928 12.7934 26.9394 12.7934 31.3918 15.3628C34.3317 17.0636 35.3947 19.5297 34.1677 21.7954C33.6332 22.7795 32.6735 23.6845 31.3918 24.4256C26.9394 27.0011 19.6928 27.0011 15.2403 24.4256C15.131 24.3648 14.9913 24.4013 14.9245 24.5106C14.8637 24.62 14.9002 24.7597 15.0095 24.8204C17.2995 26.1446 20.3063 26.8067 23.313 26.8067C26.3198 26.8067 29.3265 26.1446 31.6165 24.8204C32.9893 24.0308 33.9855 23.0832 34.5626 22.0141C35.9293 19.5054 34.7994 16.8085 31.6165 14.968ZM37.2777 27.6449C37.1502 27.6449 37.0409 27.7361 37.0348 27.8636C36.974 28.8355 36.5124 29.8074 35.7045 30.6699C35.6134 30.761 35.6195 30.9068 35.7106 30.9919C35.7531 31.0344 35.8139 31.0526 35.8685 31.0526C35.9293 31.0526 35.99 31.0283 36.0325 30.9858C36.9194 30.0443 37.4235 28.9752 37.4903 27.8879C37.4964 27.7664 37.3992 27.6571 37.2777 27.6449ZM31.6165 14.968C27.0426 12.3257 19.5895 12.3257 15.0095 14.968C14.9002 15.0348 14.8637 15.1745 14.9245 15.2838C14.9913 15.3932 15.131 15.4296 15.2403 15.3628C19.6928 12.7934 26.9394 12.7934 31.3918 15.3628C34.3317 17.0636 35.3947 19.5297 34.1677 21.7954C33.6332 22.7795 32.6735 23.6845 31.3918 24.4256C26.9394 27.0011 19.6928 27.0011 15.2403 24.4256C15.131 24.3648 14.9913 24.4013 14.9245 24.5106C14.8637 24.62 14.9002 24.7597 15.0095 24.8204C17.2995 26.1446 20.3063 26.8067 23.313 26.8067C26.3198 26.8067 29.3265 26.1446 31.6165 24.8204C32.9893 24.0308 33.9855 23.0832 34.5626 22.0141C35.9293 19.5054 34.7994 16.8085 31.6165 14.968ZM34.0705 32.2492C34.0098 32.1399 33.8701 32.1035 33.7607 32.1703C31.6226 33.4034 28.7677 34.0897 25.7306 34.0958C25.603 34.0958 25.5058 34.1991 25.5058 34.3266C25.5058 34.4481 25.603 34.5514 25.7306 34.5514C28.8467 34.5453 31.7805 33.8346 33.9916 32.559C34.1009 32.4983 34.1374 32.3586 34.0705 32.2492ZM19.875 4.90899C18.2532 3.97355 16.115 4.174 13.8554 5.47997C13.7461 5.54071 13.7096 5.68042 13.7704 5.78975C13.8372 5.89909 13.9769 5.93554 14.0862 5.87479C16.2001 4.65387 18.1742 4.45342 19.6502 5.30381C21.1202 6.15421 21.9342 7.96434 21.9342 10.4062C21.9342 10.5338 22.0374 10.637 22.1589 10.637C22.2865 10.637 22.3897 10.5338 22.3897 10.4062C22.3897 7.79426 21.4968 5.84442 19.875 4.90899ZM29.4966 22.4211L27.9841 21.5464L28.2149 21.4128C28.7556 21.0969 29.0593 20.6656 29.0593 20.1918C29.0593 19.7241 28.7556 19.2928 28.2149 18.977C27.158 18.3696 25.5058 18.3696 24.4489 18.977L23.1976 19.6998L21.9524 20.4227C21.0412 20.945 19.5531 20.945 18.6419 20.4227C18.2471 20.1918 18.0223 19.9003 18.0223 19.5966C18.0223 19.2989 18.2471 19.0073 18.6419 18.7765L19.2068 18.4546C19.2129 18.4485 19.219 18.4424 19.225 18.4424L21.1445 17.3309C22.0556 16.8024 23.5378 16.8024 24.4489 17.3309C24.5582 17.3916 24.698 17.3552 24.7648 17.2458C24.8255 17.1365 24.7891 16.9968 24.6797 16.936C23.6228 16.3286 21.9706 16.3286 20.9137 16.936L20.4581 17.1972L18.7148 16.195C18.6055 16.1342 18.4658 16.1707 18.405 16.28C18.3443 16.3893 18.3807 16.529 18.4901 16.5898L20.0025 17.4645L19.1036 17.9869L17.3602 16.9785C17.2509 16.9178 17.1112 16.9542 17.0505 17.0636C16.9836 17.1729 17.0201 17.3066 17.1294 17.3734L18.648 18.2481L18.4172 18.3817C17.8705 18.6976 17.5668 19.1288 17.5668 19.5966C17.5668 20.0703 17.8705 20.5016 18.4172 20.8175C18.9456 21.1212 19.6199 21.273 20.2941 21.273C20.9744 21.273 21.6487 21.1212 22.1771 20.8175L24.6797 19.3718C25.5909 18.8433 27.073 18.8433 27.9841 19.3718C28.385 19.6026 28.6037 19.8942 28.6037 20.1918C28.6037 20.4955 28.385 20.7871 27.9841 21.0179L27.4253 21.3399L27.401 21.352L26.0647 22.1295L26.0525 22.1356L25.4815 22.4636C24.5704 22.986 23.0883 22.986 22.1771 22.4636C22.0739 22.3968 21.9281 22.4332 21.8673 22.5426C21.8066 22.6519 21.843 22.7916 21.9524 22.8584C22.4748 23.1621 23.1551 23.314 23.8293 23.314C24.5096 23.314 25.1839 23.1621 25.7124 22.8584L26.174 22.5912L27.9112 23.5995C27.9477 23.6177 27.9902 23.6299 28.0266 23.6299C28.1056 23.6299 28.1846 23.5873 28.2271 23.5145C28.2878 23.4051 28.2514 23.2654 28.1421 23.2047L26.6296 22.33L27.5286 21.8076L29.2719 22.8159C29.3022 22.8341 29.3448 22.8463 29.3812 22.8463C29.4602 22.8463 29.5391 22.8038 29.5817 22.7309C29.6424 22.6215 29.606 22.4818 29.4966 22.4211ZM16.5827 10.0114C16.1758 9.77447 15.6534 9.81699 15.1067 10.1329L14.8759 10.2665V8.5171C14.8759 8.39561 14.7726 8.29235 14.6511 8.29235C14.5236 8.29235 14.4203 8.39561 14.4203 8.5171V10.5277L13.5213 11.0501V9.30068C13.5213 9.17312 13.418 9.07593 13.2905 9.07593C13.1629 9.07593 13.0657 9.17312 13.0657 9.30068V11.3113L12.6041 11.5785C11.5532 12.186 10.7271 13.6195 10.7271 14.8343C10.7271 14.9619 10.8243 15.0652 10.9519 15.0652C11.0795 15.0652 11.1827 14.9619 11.1827 14.8343C11.1827 13.7835 11.9238 12.5018 12.8349 11.9734L13.3816 11.6575L13.3877 11.6514C13.4059 11.6453 13.4241 11.6332 13.4423 11.615L14.7301 10.8739C14.7422 10.8739 14.7483 10.8678 14.7544 10.8618L15.3314 10.5277C15.7323 10.2969 16.0968 10.2543 16.358 10.4062C16.6131 10.5581 16.7589 10.8921 16.7589 11.3538C16.7589 11.4753 16.8622 11.5785 16.9897 11.5785C17.1112 11.5785 17.2145 11.4753 17.2145 11.3538C17.2145 10.7221 16.9897 10.2483 16.5827 10.0114ZM12.4644 21.7954C11.8023 20.5806 11.7901 19.2928 12.4279 18.0719C12.4826 17.9565 12.4401 17.8168 12.3308 17.7621C12.2214 17.7014 12.0817 17.7439 12.021 17.8593C11.3224 19.2017 11.3346 20.6778 12.0635 22.0141C12.106 22.087 12.185 22.1295 12.2639 22.1295C12.3004 22.1295 12.3368 22.1234 12.3733 22.1052C12.4826 22.0445 12.5251 21.9048 12.4644 21.7954ZM10.2412 8.85726C10.144 8.77829 10.0043 8.79044 9.92534 8.88763C8.4493 10.6492 7.26482 12.7205 6.49339 14.8769C6.45087 14.9983 6.51161 15.1259 6.62702 15.1684C6.65132 15.1806 6.68169 15.1866 6.70599 15.1866C6.7971 15.1866 6.88821 15.1259 6.91858 15.0348C7.67787 12.927 8.83198 10.9043 10.2716 9.17919C10.3505 9.082 10.3384 8.9423 10.2412 8.85726ZM8.49789 25.0816C6.91858 24.298 6.00745 22.3968 6.00745 19.8638C6.00745 19.7363 5.90418 19.633 5.77662 19.633C5.65514 19.633 5.55188 19.7363 5.55188 19.8638C5.55188 22.5729 6.55413 24.626 8.29744 25.4886C8.33389 25.5068 8.36426 25.5129 8.4007 25.5129C8.48574 25.5129 8.56471 25.4643 8.60116 25.3853C8.6619 25.2699 8.6133 25.1363 8.49789 25.0816ZM8.49789 25.0816C6.91858 24.298 6.00745 22.3968 6.00745 19.8638C6.00745 19.7363 5.90418 19.633 5.77662 19.633C5.65514 19.633 5.55188 19.7363 5.55188 19.8638C5.55188 22.5729 6.55413 24.626 8.29744 25.4886C8.33389 25.5068 8.36426 25.5129 8.4007 25.5129C8.48574 25.5129 8.56471 25.4643 8.60116 25.3853C8.6619 25.2699 8.6133 25.1363 8.49789 25.0816ZM10.2412 8.85726C10.144 8.77829 10.0043 8.79044 9.92534 8.88763C8.4493 10.6492 7.26482 12.7205 6.49339 14.8769C6.45087 14.9983 6.51161 15.1259 6.62702 15.1684C6.65132 15.1806 6.68169 15.1866 6.70599 15.1866C6.7971 15.1866 6.88821 15.1259 6.91858 15.0348C7.67787 12.927 8.83198 10.9043 10.2716 9.17919C10.3505 9.082 10.3384 8.9423 10.2412 8.85726ZM16.5827 10.0114C16.1758 9.77447 15.6534 9.81699 15.1067 10.1329L14.8759 10.2665V8.5171C14.8759 8.39561 14.7726 8.29235 14.6511 8.29235C14.5236 8.29235 14.4203 8.39561 14.4203 8.5171V10.5277L13.5213 11.0501V9.30068C13.5213 9.17312 13.418 9.07593 13.2905 9.07593C13.1629 9.07593 13.0657 9.17312 13.0657 9.30068V11.3113L12.6041 11.5785C11.5532 12.186 10.7271 13.6195 10.7271 14.8343C10.7271 14.9619 10.8243 15.0652 10.9519 15.0652C11.0795 15.0652 11.1827 14.9619 11.1827 14.8343C11.1827 13.7835 11.9238 12.5018 12.8349 11.9734L13.3816 11.6575L13.3877 11.6514C13.4059 11.6453 13.4241 11.6332 13.4423 11.615L14.7301 10.8739C14.7422 10.8739 14.7483 10.8678 14.7544 10.8618L15.3314 10.5277C15.7323 10.2969 16.0968 10.2543 16.358 10.4062C16.6131 10.5581 16.7589 10.8921 16.7589 11.3538C16.7589 11.4753 16.8622 11.5785 16.9897 11.5785C17.1112 11.5785 17.2145 11.4753 17.2145 11.3538C17.2145 10.7221 16.9897 10.2483 16.5827 10.0114ZM19.875 4.90899C18.2532 3.97355 16.115 4.174 13.8554 5.47997C13.7461 5.54071 13.7096 5.68042 13.7704 5.78975C13.8372 5.89909 13.9769 5.93554 14.0862 5.87479C16.2001 4.65387 18.1742 4.45342 19.6502 5.30381C21.1202 6.15421 21.9342 7.96434 21.9342 10.4062C21.9342 10.5338 22.0374 10.637 22.1589 10.637C22.2865 10.637 22.3897 10.5338 22.3897 10.4062C22.3897 7.79426 21.4968 5.84442 19.875 4.90899ZM19.875 4.90899C18.2532 3.97355 16.115 4.174 13.8554 5.47997C13.7461 5.54071 13.7096 5.68042 13.7704 5.78975C13.8372 5.89909 13.9769 5.93554 14.0862 5.87479C16.2001 4.65387 18.1742 4.45342 19.6502 5.30381C21.1202 6.15421 21.9342 7.96434 21.9342 10.4062C21.9342 10.5338 22.0374 10.637 22.1589 10.637C22.2865 10.637 22.3897 10.5338 22.3897 10.4062C22.3897 7.79426 21.4968 5.84442 19.875 4.90899ZM16.5827 10.0114C16.1758 9.77447 15.6534 9.81699 15.1067 10.1329L14.8759 10.2665V8.5171C14.8759 8.39561 14.7726 8.29235 14.6511 8.29235C14.5236 8.29235 14.4203 8.39561 14.4203 8.5171V10.5277L13.5213 11.0501V9.30068C13.5213 9.17312 13.418 9.07593 13.2905 9.07593C13.1629 9.07593 13.0657 9.17312 13.0657 9.30068V11.3113L12.6041 11.5785C11.5532 12.186 10.7271 13.6195 10.7271 14.8343C10.7271 14.9619 10.8243 15.0652 10.9519 15.0652C11.0795 15.0652 11.1827 14.9619 11.1827 14.8343C11.1827 13.7835 11.9238 12.5018 12.8349 11.9734L13.3816 11.6575L13.3877 11.6514C13.4059 11.6453 13.4241 11.6332 13.4423 11.615L14.7301 10.8739C14.7422 10.8739 14.7483 10.8678 14.7544 10.8618L15.3314 10.5277C15.7323 10.2969 16.0968 10.2543 16.358 10.4062C16.6131 10.5581 16.7589 10.8921 16.7589 11.3538C16.7589 11.4753 16.8622 11.5785 16.9897 11.5785C17.1112 11.5785 17.2145 11.4753 17.2145 11.3538C17.2145 10.7221 16.9897 10.2483 16.5827 10.0114ZM10.2412 8.85726C10.144 8.77829 10.0043 8.79044 9.92534 8.88763C8.4493 10.6492 7.26482 12.7205 6.49339 14.8769C6.45087 14.9983 6.51161 15.1259 6.62702 15.1684C6.65132 15.1806 6.68169 15.1866 6.70599 15.1866C6.7971 15.1866 6.88821 15.1259 6.91858 15.0348C7.67787 12.927 8.83198 10.9043 10.2716 9.17919C10.3505 9.082 10.3384 8.9423 10.2412 8.85726ZM8.49789 25.0816C6.91858 24.298 6.00745 22.3968 6.00745 19.8638C6.00745 19.7363 5.90418 19.633 5.77662 19.633C5.65514 19.633 5.55188 19.7363 5.55188 19.8638C5.55188 22.5729 6.55413 24.626 8.29744 25.4886C8.33389 25.5068 8.36426 25.5129 8.4007 25.5129C8.48574 25.5129 8.56471 25.4643 8.60116 25.3853C8.6619 25.2699 8.6133 25.1363 8.49789 25.0816Z" fill="#FCB76D"/>
<path d="M39.4066 29.7285V31.7209C39.4066 33.7922 37.9974 35.742 35.4341 37.2242C30.0583 40.3281 21.3053 40.3281 15.9296 37.2242C13.3663 35.742 11.957 33.7922 11.957 31.7269V29.7346C12.5888 31.1742 13.8643 32.468 15.6988 33.531C18.4504 35.1164 22.0646 35.9121 25.6849 35.9121C29.299 35.9121 32.9132 35.1164 35.6649 33.531C37.4932 32.4741 38.7749 31.162 39.4066 29.7285Z" fill="#38EA8E"/>
<path d="M37.4959 23.6603V23.9822C37.4959 26.2175 36.0017 28.3132 33.2925 29.8742C30.5409 31.4657 26.9267 32.2614 23.3125 32.2614C19.6983 32.2614 16.0841 31.4657 13.3325 29.8742C12.9316 29.6434 12.5611 29.4005 12.2148 29.1453C12.7312 30.6518 14.0068 32.0185 15.9323 33.1361C21.308 36.2401 30.061 36.2401 35.4367 33.1361C37.8118 31.7633 39.2149 29.9593 39.3911 28.0459C39.4032 27.9244 39.4093 27.8029 39.4093 27.6754C39.4275 26.254 38.7715 24.8812 37.4959 23.6603ZM33.9911 32.5591C31.78 33.8347 28.8462 34.5454 25.7301 34.5514C25.6025 34.5514 25.5053 34.4482 25.5053 34.3267C25.5053 34.1991 25.6025 34.0959 25.7301 34.0959C28.7672 34.0898 31.6221 33.4034 33.7603 32.1703C33.8696 32.1035 34.0093 32.1399 34.07 32.2493C34.1369 32.3586 34.1004 32.4983 33.9911 32.5591ZM36.032 30.9858C35.9895 31.0284 35.9288 31.0527 35.868 31.0527C35.8134 31.0527 35.7526 31.0344 35.7101 30.9919C35.619 30.9069 35.6129 30.7611 35.704 30.67C36.5119 29.8074 36.9735 28.8355 37.0343 27.8637C37.0404 27.7361 37.1497 27.645 37.2772 27.645C37.3987 27.6571 37.4959 27.7665 37.4898 27.888C37.423 28.9753 36.9189 30.0443 36.032 30.9858Z" fill="#9BE9C1"/>
<path d="M31.8824 26.0048C32.2894 25.8165 32.6903 25.61 33.0669 25.3974C35.6181 23.9214 37.0212 21.9898 37.0394 19.9306V19.8941C37.0394 17.8289 35.6302 15.873 33.0669 14.3969C27.6851 11.293 18.9381 11.293 13.5624 14.3969C10.9991 15.873 9.58984 17.8289 9.58984 19.8941C9.58984 21.9655 10.9991 23.9153 13.5624 25.3974C17.7051 27.7907 24.0405 28.4042 29.319 26.9342C29.4405 26.8978 29.5681 26.9707 29.6045 27.0921C29.6349 27.2136 29.562 27.3412 29.4405 27.3716C27.4968 27.9122 25.4072 28.1794 23.3298 28.1794C19.661 28.1794 16.0407 27.3533 13.3316 25.7922C11.4972 24.7292 10.2155 23.4233 9.58984 21.9958V23.9821C9.58984 25.2395 10.1122 26.4543 11.0963 27.5416C11.1145 27.5659 11.1327 27.5842 11.157 27.6085C11.157 27.6085 11.157 27.6085 11.157 27.6145C11.3818 27.8575 11.6247 28.0883 11.892 28.3191C12.3779 28.7322 12.9368 29.1209 13.5624 29.4854C18.9381 32.5893 27.6851 32.5893 33.0669 29.4854C35.6302 28.0033 37.0394 26.0474 37.0394 23.9821V21.9837C36.4138 23.4172 35.1321 24.7292 33.2916 25.7922C32.9089 26.0109 32.4959 26.2235 32.0707 26.4179C31.9553 26.4726 31.8216 26.424 31.767 26.3086C31.7184 26.1931 31.767 26.0595 31.8824 26.0048ZM12.3719 22.1052C12.3354 22.1234 12.299 22.1295 12.2625 22.1295C12.1836 22.1295 12.1046 22.0869 12.0621 22.0141C11.3332 20.6777 11.321 19.2017 12.0195 17.8593C12.0803 17.7438 12.22 17.7013 12.3293 17.7621C12.4387 17.8167 12.4812 17.9564 12.4265 18.0719C11.7887 19.2928 11.8009 20.5805 12.463 21.7954C12.5237 21.9047 12.4812 22.0444 12.3719 22.1052ZM31.6151 24.8204C29.3251 26.1446 26.3184 26.8066 23.3116 26.8066C20.3048 26.8066 17.2981 26.1446 15.0081 24.8204C14.8987 24.7596 14.8623 24.6199 14.923 24.5106C14.9899 24.4012 15.1296 24.3648 15.2389 24.4255C19.6913 27.001 26.9379 27.001 31.3904 24.4255C32.672 23.6845 33.6318 22.7794 34.1663 21.7954C35.3933 19.5297 34.3303 17.0635 31.3904 15.3627C26.9379 12.7933 19.6913 12.7933 15.2389 15.3627C15.1296 15.4296 14.9899 15.3931 14.923 15.2838C14.8623 15.1744 14.8987 15.0347 15.0081 14.9679C19.5881 12.3256 27.0412 12.3256 31.6151 14.9679C34.798 16.8084 35.9278 19.5054 34.5611 22.0141C33.9841 23.0831 32.9879 24.0307 31.6151 24.8204ZM18.4886 16.5897C18.3793 16.529 18.3429 16.3893 18.4036 16.28C18.4643 16.1706 18.604 16.1342 18.7134 16.1949L20.4567 17.1972L20.9123 16.936C21.9692 16.3285 23.6214 16.3285 24.6783 16.936C24.7876 16.9967 24.8241 17.1364 24.7634 17.2458C24.6965 17.3551 24.5568 17.3915 24.4475 17.3308C23.5363 16.8023 22.0542 16.8023 21.1431 17.3308L19.2236 18.4424C19.2175 18.4424 19.2115 18.4485 19.2054 18.4545L18.6405 18.7765C18.2457 19.0073 18.0209 19.2989 18.0209 19.5965C18.0209 19.9002 18.2457 20.1918 18.6405 20.4226C19.5516 20.945 21.0398 20.945 21.951 20.4226L23.1962 19.6998L24.4475 18.9769C25.5044 18.3695 27.1566 18.3695 28.2135 18.9769C28.7541 19.2928 29.0579 19.7241 29.0579 20.1918C29.0579 20.6656 28.7541 21.0968 28.2135 21.4127L27.9827 21.5463L29.4952 22.421C29.6045 22.4818 29.641 22.6215 29.5802 22.7308C29.5377 22.8037 29.4588 22.8462 29.3798 22.8462C29.3433 22.8462 29.3008 22.8341 29.2705 22.8159L27.5271 21.8075L26.6281 22.3299L28.1406 23.2046C28.25 23.2654 28.2864 23.4051 28.2257 23.5144C28.1832 23.5873 28.1042 23.6298 28.0252 23.6298C27.9888 23.6298 27.9463 23.6177 27.9098 23.5994L26.1726 22.5911L25.7109 22.8584C25.1825 23.1621 24.5082 23.3139 23.8279 23.3139C23.1537 23.3139 22.4734 23.1621 21.951 22.8584C21.8416 22.7916 21.8052 22.6519 21.8659 22.5425C21.9267 22.4332 22.0725 22.3967 22.1757 22.4636C23.0869 22.9859 24.569 22.9859 25.4801 22.4636L26.0511 22.1355L26.0632 22.1295L27.3996 21.352L27.4239 21.3398L27.9827 21.0179C28.3836 20.7871 28.6023 20.4955 28.6023 20.1918C28.6023 19.8941 28.3836 19.6026 27.9827 19.3718C27.0716 18.8433 25.5895 18.8433 24.6783 19.3718L22.1757 20.8174C21.6473 21.1211 20.973 21.273 20.2927 21.273C19.6185 21.273 18.9442 21.1211 18.4157 20.8174C17.8691 20.5016 17.5654 20.0703 17.5654 19.5965C17.5654 19.1288 17.8691 18.6975 18.4157 18.3816L18.6466 18.248L17.128 17.3733C17.0187 17.3065 16.9822 17.1729 17.049 17.0635C17.1098 16.9542 17.2495 16.9177 17.3588 16.9785L19.1021 17.9868L20.0011 17.4644L18.4886 16.5897Z" fill="#414B3D"/>
<path d="M20.8926 3.2871L20.5525 3.0988C18.797 2.24233 16.5192 2.53389 14.0834 3.93705C8.70159 7.041 4.32812 14.6217 4.32812 20.8296C4.32812 23.4172 5.10563 25.4703 6.51486 26.6183C6.71531 26.7763 6.92183 26.9221 7.14051 27.0435L7.17695 27.0618C7.18303 27.0618 7.18303 27.0678 7.1891 27.0678C8.13669 27.5902 9.27257 27.7664 10.5178 27.5781C9.61273 26.4726 9.13287 25.2516 9.12679 23.9821V19.8941C9.12679 17.6588 10.6211 15.5632 13.3302 14.0021C16.1122 12.3985 19.775 11.6028 23.4317 11.621C23.5532 10.8739 23.6078 10.1449 23.6078 9.44033C23.6078 6.51861 22.642 4.33188 20.8926 3.2871ZM8.59833 25.3853C8.56189 25.4642 8.48292 25.5128 8.39788 25.5128C8.36143 25.5128 8.33106 25.5068 8.29462 25.4885C6.5513 24.626 5.54905 22.5729 5.54905 19.8638C5.54905 19.7362 5.65231 19.6329 5.7738 19.6329C5.90136 19.6329 6.00462 19.7362 6.00462 19.8638C6.00462 22.3967 6.91576 24.298 8.49507 25.0816C8.61048 25.1362 8.65907 25.2699 8.59833 25.3853ZM10.2688 9.17914C8.82915 10.9042 7.67504 12.927 6.91576 15.0347C6.88539 15.1258 6.79428 15.1866 6.70316 15.1866C6.67886 15.1866 6.64849 15.1805 6.6242 15.1684C6.50879 15.1258 6.44804 14.9983 6.49056 14.8768C7.26199 12.7204 8.44648 10.6491 9.92252 8.88757C10.0015 8.79038 10.1412 8.77824 10.2384 8.8572C10.3356 8.94224 10.3477 9.08195 10.2688 9.17914ZM16.9869 11.5785C16.8593 11.5785 16.7561 11.4752 16.7561 11.3537C16.7561 10.8921 16.6103 10.558 16.3552 10.4061C16.094 10.2543 15.7295 10.2968 15.3286 10.5276L14.7516 10.8617C14.7455 10.8678 14.7394 10.8739 14.7273 10.8739L13.3849 11.6514L13.3788 11.6574L12.8321 11.9733C11.921 12.5018 11.1799 13.7834 11.1799 14.8343C11.1799 14.9618 11.0766 15.0651 10.9491 15.0651C10.8215 15.0651 10.7243 14.9618 10.7243 14.8343C10.7243 13.6194 11.5504 12.1859 12.6013 11.5785L13.0629 11.3112V9.30062C13.0629 9.17306 13.1601 9.07587 13.2877 9.07587C13.4152 9.07587 13.5185 9.17306 13.5185 9.30062V11.05L14.4175 10.5276V8.51704C14.4175 8.39556 14.5207 8.29229 14.6483 8.29229C14.7698 8.29229 14.873 8.39556 14.873 8.51704V10.2664L15.1039 10.1328C15.6506 9.81694 16.1729 9.77442 16.5799 10.0113C16.9869 10.2482 17.2116 10.722 17.2116 11.3537C17.2116 11.4752 17.1084 11.5785 16.9869 11.5785ZM22.1561 10.637C22.0346 10.637 21.9313 10.5337 21.9313 10.4061C21.9313 7.96428 21.1174 6.15415 19.6474 5.30376C18.1714 4.45336 16.1972 4.65381 14.0834 5.87474C13.9741 5.93548 13.8343 5.89904 13.7675 5.7897C13.7068 5.68036 13.7432 5.54065 13.8526 5.47991C16.1122 4.17394 18.2503 3.97349 19.8722 4.90893C21.494 5.84437 22.3869 7.79421 22.3869 10.4061C22.3869 10.5337 22.2836 10.637 22.1561 10.637Z" fill="#38EA8E"/>
<path d="M39.8636 27.669C39.8636 27.8147 39.8575 27.9484 39.8454 28.0881C39.7907 28.6469 39.6449 29.1936 39.408 29.7281C38.7763 31.1617 37.4947 32.4737 35.6663 33.5306C32.9147 35.116 29.3005 35.9117 25.6863 35.9117C22.066 35.9117 18.4518 35.116 15.7002 33.5306C13.8658 32.4676 12.5902 31.1738 11.9585 29.7342C11.8005 29.388 11.6851 29.0357 11.6122 28.6712C11.6061 28.6469 11.6001 28.6226 11.594 28.5983C11.5697 28.4768 11.6547 28.3554 11.7762 28.3311C11.8248 28.3189 11.8734 28.325 11.9099 28.3432C11.9767 28.3736 12.0253 28.4343 12.0435 28.5133C12.086 28.7259 12.1407 28.9385 12.2136 29.145C12.7299 30.6514 14.0055 32.0181 15.931 33.1358C21.3067 36.2397 30.0598 36.2397 35.4355 33.1358C37.8105 31.763 39.2137 29.959 39.3898 28.0456C39.402 27.9241 39.408 27.8026 39.408 27.675C39.4263 26.2537 38.7703 24.8809 37.4947 23.66C37.3732 23.5445 37.2517 23.4291 37.1181 23.3137C37.0634 23.2651 37.0391 23.2044 37.0391 23.1376C37.0391 23.089 37.0573 23.0343 37.0938 22.9918C37.1727 22.8946 37.3185 22.8885 37.4157 22.9675C37.44 22.9918 37.4704 23.0161 37.4947 23.0404C39.0436 24.3949 39.8697 26.0228 39.8636 27.669Z" fill="#111111"/>
<path d="M39.8607 27.6691V31.7206C39.8607 33.962 38.3725 36.0516 35.6634 37.6187C32.9118 39.2041 29.2915 39.9998 25.6834 39.9998C22.0631 39.9998 18.449 39.2041 15.6973 37.6187C12.9882 36.0516 11.5 33.962 11.5 31.7267V28.477C11.5 28.3555 11.6033 28.2522 11.7247 28.2522C11.7855 28.2522 11.8462 28.2765 11.8888 28.319C11.8948 28.3251 11.9009 28.3312 11.907 28.3433C11.9373 28.3798 11.9556 28.4284 11.9556 28.477V31.7267C11.9556 33.7919 13.3648 35.7418 15.9281 37.2239C21.3039 40.3278 30.0569 40.3278 35.4326 37.2239C37.9959 35.7418 39.4052 33.7919 39.4052 31.7206V27.6752C39.4052 27.5476 39.5084 27.4443 39.636 27.4443C39.7575 27.4443 39.8547 27.5415 39.8607 27.6691Z" fill="#111111"/>
<path d="M33.9975 32.5589C31.7864 33.8345 28.8526 34.5452 25.7365 34.5512C25.6089 34.5512 25.5117 34.448 25.5117 34.3265C25.5117 34.1989 25.6089 34.0957 25.7365 34.0957C28.7736 34.0896 31.6285 33.4032 33.7666 32.1701C33.876 32.1033 34.0157 32.1398 34.0764 32.2491C34.1432 32.3584 34.1068 32.4981 33.9975 32.5589Z" fill="#111111"/>
<path d="M37.4918 27.8877C37.425 28.975 36.9209 30.0441 36.034 30.9856C35.9915 31.0281 35.9307 31.0524 35.87 31.0524C35.8153 31.0524 35.7546 31.0342 35.7121 30.9917C35.621 30.9067 35.6149 30.7609 35.706 30.6698C36.5139 29.8072 36.9755 28.8353 37.0363 27.8634C37.0423 27.7359 37.1517 27.6448 37.2792 27.6448C37.4007 27.6569 37.4979 27.7663 37.4918 27.8877Z" fill="#111111"/>
<path d="M37.4918 19.8941V19.9305C37.4857 20.6351 37.3339 21.3215 37.0362 21.9836C36.4106 23.4171 35.1289 24.7292 33.2884 25.7922C32.9057 26.0108 32.4927 26.2234 32.0675 26.4178C31.9521 26.4725 31.8184 26.4239 31.7638 26.3085C31.7152 26.1931 31.7638 26.0594 31.8792 26.0048C32.2862 25.8165 32.6871 25.6099 33.0637 25.3973C35.6149 23.9213 37.018 21.9897 37.0362 19.9305V19.8941C37.0362 17.8288 35.627 15.8729 33.0637 14.3969C27.6819 11.2929 18.9349 11.2929 13.5592 14.3969C10.9959 15.8729 9.58664 17.8288 9.58664 19.8941C9.58664 21.9654 10.9959 23.9152 13.5592 25.3973C17.7019 27.7906 24.0373 28.4041 29.3158 26.9341C29.4373 26.8977 29.5649 26.9706 29.6013 27.0921C29.6317 27.2135 29.5588 27.3411 29.4373 27.3715C27.4936 27.9121 25.404 28.1793 23.3266 28.1793C19.6578 28.1793 16.0375 27.3533 13.3284 25.7922C11.494 24.7292 10.2123 23.4232 9.58664 21.9958C9.28293 21.3215 9.125 20.6169 9.125 19.8941C9.125 17.6587 10.6193 15.5631 13.3284 14.002C16.1104 12.3984 19.7732 11.6027 23.4299 11.6209C23.5817 11.6209 23.7397 11.627 23.8976 11.6331C27.3113 11.706 30.6886 12.4956 33.2884 14.002C35.9975 15.5631 37.4918 17.6587 37.4918 19.8941Z" fill="#111111"/>
<path d="M37.4918 19.9244V23.982C37.4918 26.2174 35.9975 28.313 33.2884 29.8741C30.5368 31.4655 26.9226 32.2613 23.3084 32.2613C19.6942 32.2613 16.08 31.4655 13.3284 29.8741C12.9275 29.6432 12.557 29.4003 12.2107 29.1452C12.1257 29.0844 12.0406 29.0237 11.9556 28.9508C11.8341 28.8657 11.7187 28.7746 11.6094 28.6714C11.5729 28.6471 11.5365 28.6106 11.5 28.5803C11.2692 28.3859 11.0627 28.1794 10.8683 27.9728C10.7408 27.8453 10.6253 27.7116 10.516 27.578C9.61094 26.4725 9.13107 25.2516 9.125 23.982V19.8941C9.125 19.7726 9.22826 19.6693 9.35582 19.6693C9.48338 19.6693 9.58664 19.7726 9.58664 19.8941V23.982C9.58664 25.2394 10.109 26.4543 11.0931 27.5416C11.1113 27.5659 11.1295 27.5841 11.1538 27.6084C11.1538 27.6084 11.1538 27.6084 11.1538 27.6144C11.3786 27.8574 11.6215 28.0882 11.8888 28.3191C12.3747 28.7321 12.9336 29.1209 13.5592 29.4853C18.9349 32.5893 27.6819 32.5893 33.0637 29.4853C35.627 28.0032 37.0362 26.0473 37.0362 23.982V19.9305C37.0362 19.809 37.1395 19.7058 37.261 19.7058C37.3885 19.7058 37.4857 19.8029 37.4918 19.9244Z" fill="#111111"/>
<path d="M28.2203 23.5142C28.1778 23.5871 28.0988 23.6296 28.0199 23.6296C27.9834 23.6296 27.9409 23.6175 27.9045 23.5992L26.1672 22.5909L26.0518 22.5241C25.9425 22.4633 25.906 22.3236 25.9668 22.2143C25.985 22.1779 26.0154 22.1536 26.0457 22.1353L26.0579 22.1293C26.1247 22.0928 26.2097 22.0928 26.2765 22.1293L26.6228 22.3297L28.1353 23.2044C28.2446 23.2652 28.2811 23.4049 28.2203 23.5142Z" fill="#38EA8E"/>
<path d="M29.5758 22.7305C29.5333 22.8033 29.4543 22.8459 29.3753 22.8459C29.3389 22.8459 29.2964 22.8337 29.266 22.8155L27.5227 21.8072L27.4073 21.7404C27.2979 21.6796 27.2615 21.5399 27.3222 21.4306C27.3405 21.4002 27.3647 21.3698 27.3951 21.3516L27.4194 21.3395C27.4862 21.3091 27.5652 21.3091 27.632 21.3455L27.9782 21.546L29.4907 22.4207C29.6001 22.4814 29.6365 22.6211 29.5758 22.7305Z" fill="#38EA8E"/>
<path d="M24.7605 17.2456C24.6937 17.3549 24.554 17.3914 24.4446 17.3306C23.5335 16.8022 22.0514 16.8022 21.1402 17.3306L19.2208 18.4422C19.2147 18.4422 19.2086 18.4483 19.2026 18.4544L18.6376 18.7763C18.2428 19.0071 18.0181 19.2987 18.0181 19.5963C18.0181 19.9 18.2428 20.1916 18.6376 20.4224C19.5488 20.9448 21.037 20.9448 21.9481 20.4224L23.1933 19.6996C23.3027 19.6328 23.4424 19.6692 23.5092 19.7846C23.5699 19.8879 23.5335 20.0276 23.4242 20.0944L22.1729 20.8172C21.6444 21.121 20.9702 21.2728 20.2898 21.2728C19.6156 21.2728 18.9414 21.121 18.4129 20.8172C17.8662 20.5014 17.5625 20.0701 17.5625 19.5963C17.5625 19.1286 17.8662 18.6973 18.4129 18.3815L18.6437 18.2478L19.0993 17.9866L19.9983 17.4643L20.4538 17.197L20.9094 16.9358C21.9663 16.3284 23.6185 16.3284 24.6755 16.9358C24.7848 16.9965 24.8212 17.1362 24.7605 17.2456Z" fill="#38EA8E"/>
<path d="M29.0649 20.1917C29.0649 20.6655 28.7612 21.0967 28.2206 21.4126L27.9898 21.5462L27.5342 21.8074L26.6352 22.3298L26.1797 22.591L25.718 22.8583C25.1896 23.162 24.5153 23.3138 23.835 23.3138C23.1608 23.3138 22.4804 23.162 21.9581 22.8583C21.8487 22.7914 21.8123 22.6517 21.873 22.5424C21.9338 22.4331 22.0795 22.3966 22.1828 22.4634C23.0939 22.9858 24.5761 22.9858 25.4872 22.4634L26.0582 22.1354L26.0703 22.1294L27.4067 21.3518L27.431 21.3397L27.9898 21.0178C28.3907 20.7869 28.6094 20.4954 28.6094 20.1917C28.6094 19.894 28.3907 19.6025 27.9898 19.3716C27.0787 18.8432 25.5965 18.8432 24.6854 19.3716L23.4341 20.0945C23.3248 20.1552 23.1851 20.1188 23.1243 20.0094C23.0575 19.9001 23.0939 19.7604 23.2033 19.6996L24.4546 18.9768C25.5115 18.3694 27.1637 18.3694 28.2206 18.9768C28.7612 19.2927 29.0649 19.7239 29.0649 20.1917Z" fill="#38EA8E"/>
<path d="M19.2966 18.3633C19.2784 18.3937 19.2541 18.418 19.2237 18.4423C19.2177 18.4423 19.2116 18.4483 19.2055 18.4544C19.1752 18.4666 19.1387 18.4726 19.1023 18.4726C19.0597 18.4726 19.0233 18.4666 18.9869 18.4423L18.6467 18.2479L17.1281 17.3732C17.0188 17.3064 16.9823 17.1727 17.0492 17.0634C17.1099 16.9541 17.2496 16.9176 17.3589 16.9784L19.1023 17.9867L19.2116 18.0474C19.3209 18.1142 19.3635 18.254 19.2966 18.3633Z" fill="#38EA8E"/>
<path d="M20.6517 17.5796C20.6092 17.6525 20.5363 17.6889 20.4574 17.6889C20.4209 17.6889 20.3784 17.6829 20.342 17.6586L20.0018 17.4642L18.4893 16.5895C18.38 16.5288 18.3435 16.389 18.4043 16.2797C18.465 16.1704 18.6047 16.1339 18.714 16.1947L20.4574 17.1969L20.5728 17.2637C20.6821 17.3306 20.7186 17.4703 20.6517 17.5796Z" fill="#38EA8E"/>
<path d="M12.3665 22.1051C12.3301 22.1233 12.2936 22.1294 12.2572 22.1294C12.1782 22.1294 12.0993 22.0869 12.0568 22.014C11.3278 20.6776 11.3157 19.2016 12.0142 17.8592C12.075 17.7438 12.2147 17.7013 12.324 17.762C12.4334 17.8167 12.4759 17.9564 12.4212 18.0718C11.7834 19.2927 11.7956 20.5805 12.4577 21.7953C12.5184 21.9046 12.4759 22.0444 12.3665 22.1051Z" fill="#111111"/>
<path d="M34.558 22.0141C33.9809 23.0831 32.9847 24.0307 31.612 24.8204C29.322 26.1446 26.3152 26.8067 23.3084 26.8067C20.3017 26.8067 17.2949 26.1446 15.0049 24.8204C14.8956 24.7596 14.8591 24.6199 14.9199 24.5106C14.9867 24.4013 15.1264 24.3648 15.2357 24.4256C19.6882 27.001 26.9348 27.001 31.3872 24.4256C32.6689 23.6845 33.6286 22.7794 34.1632 21.7954C35.3902 19.5297 34.3272 17.0636 31.3872 15.3628C26.9348 12.7933 19.6882 12.7933 15.2357 15.3628C15.1264 15.4296 14.9867 15.3931 14.9199 15.2838C14.8591 15.1745 14.8956 15.0348 15.0049 14.9679C19.5849 12.3256 27.038 12.3256 31.612 14.9679C34.7949 16.8084 35.9247 19.5054 34.558 22.0141Z" fill="#111111"/>
<path d="M24.0658 9.44038C24.0658 10.145 24.0112 10.8861 23.9018 11.6332C23.8897 11.7122 23.8775 11.7972 23.8654 11.8762C23.8411 11.9976 23.7318 12.0888 23.6042 12.0645C23.4766 12.0462 23.3916 11.9308 23.4098 11.8033C23.422 11.7425 23.4281 11.6818 23.4341 11.621C23.5556 10.8739 23.6103 10.145 23.6103 9.44038C23.6103 6.51866 22.6445 4.33193 20.8951 3.28716L20.5549 3.09885C18.7995 2.24238 16.5216 2.53395 14.0858 3.9371C8.70404 7.04105 4.33057 14.6217 4.33057 20.8296C4.33057 23.4173 5.10807 25.4704 6.5173 26.6184C6.71775 26.7763 6.92428 26.9221 7.14295 27.0436L7.1794 27.0618C7.18547 27.0618 7.18547 27.0679 7.19155 27.0679C8.13913 27.5903 9.27502 27.7664 10.5202 27.5781C10.6478 27.5538 10.7814 27.5356 10.9151 27.5052C10.9819 27.487 11.0426 27.5052 11.0973 27.5417C11.1155 27.566 11.1337 27.5842 11.158 27.6085C11.158 27.6085 11.158 27.6085 11.158 27.6146C11.1763 27.6328 11.1823 27.6571 11.1884 27.6814C11.2127 27.8029 11.1337 27.9244 11.0062 27.9487C10.9637 27.9608 10.9151 27.9669 10.8726 27.973C10.4231 28.0641 9.97963 28.1066 9.55443 28.1066C8.62507 28.1066 7.7686 27.894 7.01539 27.4809C6.99717 27.4809 6.97287 27.4688 6.95465 27.4566L6.82709 27.3838C6.62057 27.2623 6.42012 27.1226 6.23181 26.9707C5.9038 26.7034 5.60616 26.3876 5.34497 26.0353C4.39131 24.7657 3.875 22.9678 3.875 20.8296C3.875 14.4759 8.35173 6.71911 13.855 3.54227C15.6651 2.50358 17.4024 2.04193 18.9331 2.19379C19.583 2.24846 20.1905 2.41854 20.7554 2.69188L21.0773 2.86803C21.1381 2.8984 21.1988 2.93485 21.2535 2.97737C23.0697 4.13148 24.0658 6.4154 24.0658 9.44038Z" fill="#111111"/>
<path d="M17.0626 0.875676C17.0079 0.978939 16.8804 1.02146 16.771 0.978938C16.765 0.972864 16.7589 0.972864 16.7589 0.972864C14.9913 0.0738734 12.6648 0.359364 10.2108 1.77467C9.16606 2.37602 8.13951 3.16567 7.14941 4.10718C6.48124 4.73891 5.7827 5.51641 5.08416 6.42148C2.18673 10.1693 0.45557 14.7432 0.45557 18.6672C0.45557 21.6254 1.44567 23.8242 3.23758 24.8569L5.34535 26.0353L7.14333 27.0436L7.17978 27.0618C7.18585 27.0618 7.18585 27.0679 7.19193 27.0679C7.28911 27.1347 7.32556 27.2683 7.26482 27.3716C7.2223 27.4445 7.14941 27.487 7.06437 27.487C7.04614 27.487 7.034 27.487 7.01577 27.4809C6.99755 27.4809 6.97325 27.4688 6.95503 27.4566L6.82747 27.3838L3.00676 25.2517C1.06907 24.134 0 21.7954 0 18.6672C0 14.646 1.76761 9.96885 4.7197 6.14206C5.44861 5.20662 6.14108 4.42912 6.83962 3.77917C7.84795 2.80729 8.90487 1.99941 9.98609 1.37984C12.5737 -0.120503 15.0581 -0.405993 16.9654 0.565889C16.9836 0.571963 16.9958 0.584111 17.0079 0.590186L17.014 0.59626L17.0201 0.602334C17.0869 0.675225 17.1112 0.778488 17.0626 0.875676Z" fill="#111111"/>
<path d="M17.2061 11.3537C17.2061 11.4752 17.1028 11.5785 16.9813 11.5785C16.8538 11.5785 16.7505 11.4752 16.7505 11.3537C16.7505 10.8921 16.6047 10.558 16.3496 10.4062C16.0884 10.2543 15.7239 10.2968 15.323 10.5276L14.746 10.8617C14.7399 10.8678 14.7338 10.8739 14.7217 10.8739L13.3793 11.6514L13.3732 11.6575L12.8265 11.9733C11.9154 12.5018 11.1743 13.7834 11.1743 14.8343C11.1743 14.9619 11.0711 15.0651 10.9435 15.0651C10.8159 15.0651 10.7188 14.9619 10.7188 14.8343C10.7188 13.6194 11.5448 12.1859 12.5957 11.5785L13.0573 11.3112L13.5129 11.05L14.4119 10.5276L14.8675 10.2664L15.0983 10.1328C15.645 9.81695 16.1674 9.77443 16.5743 10.0113C16.9813 10.2482 17.2061 10.722 17.2061 11.3537Z" fill="#111111"/>
<path d="M13.5181 9.30031V11.4445C13.5181 11.5356 13.4634 11.6146 13.3844 11.651L13.3784 11.6571C13.348 11.6693 13.3176 11.6753 13.2872 11.6753C13.1597 11.6753 13.0625 11.5721 13.0625 11.4445V9.30031C13.0625 9.17275 13.1597 9.07556 13.2872 9.07556C13.4148 9.07556 13.5181 9.17275 13.5181 9.30031Z" fill="#111111"/>
<path d="M14.8735 8.51674V10.661C14.8735 10.746 14.8249 10.825 14.7521 10.8614C14.746 10.8675 14.7399 10.8736 14.7278 10.8736C14.7035 10.8857 14.6792 10.8918 14.6488 10.8918C14.5212 10.8918 14.418 10.7885 14.418 10.661V8.51674C14.418 8.39526 14.5212 8.29199 14.6488 8.29199C14.7703 8.29199 14.8735 8.39526 14.8735 8.51674Z" fill="#111111"/>
<path d="M10.2722 9.17931C8.83265 10.9044 7.67854 12.9271 6.91926 15.0349C6.88889 15.126 6.79777 15.1868 6.70666 15.1868C6.68236 15.1868 6.65199 15.1807 6.62769 15.1685C6.51228 15.126 6.45154 14.9985 6.49406 14.877C7.26549 12.7206 8.44997 10.6493 9.92602 8.88775C10.005 8.79056 10.1447 8.77841 10.2419 8.85737C10.3391 8.94241 10.3512 9.08212 10.2722 9.17931Z" fill="#111111"/>
<path d="M8.59615 25.3853C8.55971 25.4642 8.48074 25.5128 8.3957 25.5128C8.35926 25.5128 8.32889 25.5067 8.29244 25.4885C6.54913 24.626 5.54688 22.5729 5.54688 19.8638C5.54688 19.7362 5.65014 19.6329 5.77162 19.6329C5.89918 19.6329 6.00244 19.7362 6.00244 19.8638C6.00244 22.3967 6.91358 24.298 8.49289 25.0815C8.6083 25.1362 8.6569 25.2699 8.59615 25.3853Z" fill="#111111"/>
<path d="M22.3869 10.4062C22.3869 10.5338 22.2837 10.637 22.1561 10.637C22.0346 10.637 21.9314 10.5338 21.9314 10.4062C21.9314 7.96436 21.1174 6.15423 19.6474 5.30384C18.1714 4.45344 16.1972 4.65389 14.0834 5.87482C13.9741 5.93556 13.8344 5.89911 13.7675 5.78978C13.7068 5.68044 13.7432 5.54073 13.8526 5.47999C16.1122 4.17402 18.2503 3.97357 19.8722 4.90901C21.494 5.84445 22.3869 7.79428 22.3869 10.4062Z" fill="#111111"/>
<path d="M21.2789 3.23856C21.2364 3.31752 21.1574 3.36004 21.0784 3.36004C21.042 3.36004 21.0055 3.34789 20.9691 3.32967L20.8962 3.28715L20.5561 3.09885L18.9342 2.19378L16.79 0.991081C16.7839 0.985007 16.7779 0.985007 16.7718 0.978933C16.7657 0.972858 16.7596 0.972858 16.7596 0.972858C16.6746 0.899967 16.6503 0.778482 16.705 0.681294C16.7657 0.571957 16.8993 0.535511 17.0087 0.59018L17.0148 0.596254L17.0208 0.602328L20.7565 2.69187L21.0784 2.86803L21.1878 2.92877C21.2121 2.94092 21.2364 2.95914 21.2546 2.97736C21.3153 3.05026 21.3275 3.15352 21.2789 3.23856Z" fill="#111111"/>
</svg>
