<svg width="42" height="40" viewBox="0 0 42 40" fill="none" xmlns="http://www.w3.org/2000/svg">
<path d="M6.20909 28.0214C6.07073 28.0214 5.95872 28.1334 5.95872 28.2718V34.1227C5.95872 34.2611 6.07073 34.3731 6.20909 34.3731C6.34087 34.3731 6.45288 34.2611 6.45288 34.1227V28.2718C6.45288 28.1334 6.34087 28.0214 6.20909 28.0214ZM6.20909 28.0214C6.07073 28.0214 5.95872 28.1334 5.95872 28.2718V34.1227C5.95872 34.2611 6.07073 34.3731 6.20909 34.3731C6.34087 34.3731 6.45288 34.2611 6.45288 34.1227V28.2718C6.45288 28.1334 6.34087 28.0214 6.20909 28.0214ZM6.20909 28.0214C6.07073 28.0214 5.95872 28.1334 5.95872 28.2718V34.1227C5.95872 34.2611 6.07073 34.3731 6.20909 34.3731C6.34087 34.3731 6.45288 34.2611 6.45288 34.1227V28.2718C6.45288 28.1334 6.34087 28.0214 6.20909 28.0214ZM6.20909 28.0214C6.07073 28.0214 5.95872 28.1334 5.95872 28.2718V34.1227C5.95872 34.2611 6.07073 34.3731 6.20909 34.3731C6.34087 34.3731 6.45288 34.2611 6.45288 34.1227V28.2718C6.45288 28.1334 6.34087 28.0214 6.20909 28.0214ZM40.5897 9.1707C37.0713 3.9721 27.1353 1.20478 17.9702 2.85858C17.2059 2.97718 16.4218 3.18143 15.5784 3.47793L6.95363 1.29702L1.84727 0.00560356C1.75503 -0.014163 1.65619 0.0187813 1.59031 0.0978476C0.450433 1.60011 -0.0766752 3.2012 0.00897997 4.7957V29.9981C0.00897997 31.3554 0.443845 32.6863 1.3004 33.958C3.18481 36.7451 6.86798 38.8799 11.6778 39.9802C11.7108 39.9934 11.7437 40 11.7767 40C11.8096 40 11.8426 39.9934 11.8689 39.9802C11.8755 39.9802 11.8821 39.9802 11.8887 39.9736C11.915 39.9604 11.9348 39.9473 11.948 39.9275C11.9612 39.9143 11.9743 39.9077 11.9809 39.8945L16.5075 33.2793V38.6361C16.5075 38.669 16.5141 38.7085 16.5338 38.7349C16.5404 38.7613 16.5536 38.781 16.5734 38.8008C16.5865 38.8206 16.6063 38.8337 16.6327 38.8469C16.6458 38.8601 16.659 38.8667 16.6788 38.8667C16.6854 38.8733 16.692 38.8733 16.6986 38.8733C18.8861 39.374 21.179 39.6244 23.4719 39.6244C25.7187 39.6244 27.9721 39.3806 30.1069 38.8996C30.7196 38.7613 31.3192 38.6031 31.8925 38.4318C38.0201 36.6067 41.8812 32.9697 41.8812 28.8714V13.124C41.8812 11.7799 41.4463 10.4424 40.5897 9.1707ZM18.0559 3.34615C27.0431 1.71871 36.7616 4.40037 40.1812 9.44744C40.9851 10.6334 41.387 11.8787 41.387 13.124V13.1306C41.387 13.8817 41.242 14.6329 40.9455 15.3708C39.9638 17.8548 37.4337 20.0028 33.9152 21.4589C32.7161 21.9465 31.4049 22.3616 30.0015 22.6779C28.4662 22.9809 26.819 23.2116 25.1191 23.3433C22.444 23.4883 19.7031 23.2774 17.1598 22.7306L18.6291 20.576C18.6554 20.5562 18.6686 20.5299 18.6818 20.4969L23.182 13.9279C23.3335 13.717 23.3665 13.4403 23.2742 13.1899C23.182 12.9461 22.9711 12.7616 22.7142 12.6957L18.7016 11.6876V4.46626C18.7016 4.45308 18.7016 4.43332 18.695 4.42014C18.695 4.41355 18.695 4.41355 18.695 4.40696C18.695 4.40037 18.695 4.38719 18.6884 4.37402L18.6818 4.36743C18.6686 4.34107 18.6554 4.31472 18.6291 4.28836C18.6093 4.26859 18.583 4.24883 18.5566 4.23565C18.5434 4.22906 18.5303 4.22247 18.5171 4.22247L16.4877 3.70854C17.028 3.55041 17.5419 3.43181 18.0559 3.34615ZM18.7016 12.2016L22.5956 13.1767C22.6944 13.2031 22.7735 13.269 22.813 13.3678C22.846 13.46 22.8328 13.5655 22.7735 13.6511L18.7016 19.6009V12.2016ZM1.8868 0.526123L15.506 3.9721L18.0559 4.6178L11.6647 13.9476C7.10518 12.8736 3.48131 10.7652 1.7089 8.14943C0.93142 7.00956 0.5295 5.81039 0.503144 4.6178V4.46626C0.503144 4.45967 0.503144 4.44649 0.496555 4.4399C0.503144 3.11554 0.970953 1.78459 1.8868 0.526123ZM1.7089 33.6812C0.905064 32.4887 0.503144 31.25 0.503144 29.9981V6.96344C0.707399 7.4576 0.977542 7.94518 1.3004 8.42616C3.16504 11.1803 6.7955 13.3019 11.5263 14.422V39.4465C7.0327 38.3593 3.46154 36.2707 1.7089 33.6812ZM12.0205 38.9589V14.3034L18.2074 5.2701V20.3256L16.5602 22.7372L16.547 22.7503C16.5404 22.7635 16.5338 22.7767 16.5272 22.7965C16.5141 22.8294 16.5075 22.8623 16.5075 22.8953V32.403L12.0205 38.9589ZM32.044 37.8718V34.5246C32.044 34.3863 31.932 34.2742 31.8002 34.2742C31.6618 34.2742 31.5498 34.3863 31.5498 34.5246V38.0167C31.0425 38.1683 30.5286 38.3 29.9949 38.4186C25.8175 39.3608 21.2119 39.3674 17.0016 38.4318V23.1984C19.0837 23.653 21.291 23.8836 23.4917 23.8836C24.0451 23.8836 24.5986 23.8704 25.1521 23.8375C26.8783 23.6991 28.5453 23.4751 30.1069 23.1588C31.4115 22.8623 32.637 22.4868 33.7637 22.0453V28.5222C33.7637 28.6605 33.8757 28.7726 34.0141 28.7726C34.1458 28.7726 34.2579 28.6605 34.2579 28.5222V21.8411C37.8027 20.352 40.3591 18.1513 41.387 15.6014V28.8714C41.387 32.6073 37.7104 36.0796 32.044 37.8718ZM6.20909 28.0214C6.07073 28.0214 5.95872 28.1334 5.95872 28.2718V34.1227C5.95872 34.2611 6.07073 34.3731 6.20909 34.3731C6.34087 34.3731 6.45288 34.2611 6.45288 34.1227V28.2718C6.45288 28.1334 6.34087 28.0214 6.20909 28.0214ZM6.20909 28.0214C6.07073 28.0214 5.95872 28.1334 5.95872 28.2718V34.1227C5.95872 34.2611 6.07073 34.3731 6.20909 34.3731C6.34087 34.3731 6.45288 34.2611 6.45288 34.1227V28.2718C6.45288 28.1334 6.34087 28.0214 6.20909 28.0214ZM6.20909 28.0214C6.07073 28.0214 5.95872 28.1334 5.95872 28.2718V34.1227C5.95872 34.2611 6.07073 34.3731 6.20909 34.3731C6.34087 34.3731 6.45288 34.2611 6.45288 34.1227V28.2718C6.45288 28.1334 6.34087 28.0214 6.20909 28.0214ZM6.20909 28.0214C6.07073 28.0214 5.95872 28.1334 5.95872 28.2718V34.1227C5.95872 34.2611 6.07073 34.3731 6.20909 34.3731C6.34087 34.3731 6.45288 34.2611 6.45288 34.1227V28.2718C6.45288 28.1334 6.34087 28.0214 6.20909 28.0214ZM6.20909 28.0214C6.07073 28.0214 5.95872 28.1334 5.95872 28.2718V34.1227C5.95872 34.2611 6.07073 34.3731 6.20909 34.3731C6.34087 34.3731 6.45288 34.2611 6.45288 34.1227V28.2718C6.45288 28.1334 6.34087 28.0214 6.20909 28.0214Z" fill="#FCB76D"/>
<path d="M41.3893 15.6016V28.8715C41.3893 32.6074 37.7127 36.0797 32.0463 37.8719V34.5248C32.0463 34.3864 31.9343 34.2744 31.8025 34.2744C31.6641 34.2744 31.5521 34.3864 31.5521 34.5248V38.0169C31.0448 38.1684 30.5308 38.3002 29.9971 38.4188C25.8198 39.361 21.2142 39.3676 17.0039 38.432V23.1985C19.086 23.6531 21.2933 23.8838 23.4939 23.8838C24.0474 23.8838 24.6009 23.8706 25.1543 23.8376C26.8806 23.6993 28.5476 23.4752 30.1091 23.159C31.4137 22.8625 32.6393 22.4869 33.766 22.0455V28.5223C33.766 28.6607 33.878 28.7727 34.0163 28.7727C34.1481 28.7727 34.2601 28.6607 34.2601 28.5223V21.8412C37.8049 20.3521 40.3614 18.1514 41.3893 15.6016Z" fill="#38EA8E"/>
<path d="M41.3876 13.1239C41.3876 13.8817 41.2426 14.6328 40.9461 15.3707C39.9644 17.8547 37.4343 20.0027 33.9158 21.4589C32.7166 21.9464 31.4055 22.3615 30.002 22.6778C28.4668 22.9809 26.8196 23.2115 25.1197 23.3433C22.4446 23.4882 19.7036 23.2774 17.1603 22.7305L18.6297 20.5759C18.656 20.5562 18.6692 20.5298 18.6824 20.4969L23.1826 13.9278C23.3341 13.7169 23.367 13.4402 23.2748 13.1898C23.1826 12.946 22.9717 12.7616 22.7148 12.6957L18.7021 11.6876V4.46619C18.7021 4.45301 18.7021 4.43325 18.6955 4.42007C18.6955 4.41348 18.6955 4.41348 18.6955 4.40689C18.6955 4.4003 18.6955 4.38712 18.689 4.37395L18.6824 4.36736C18.6692 4.341 18.656 4.31465 18.6297 4.28829C18.6099 4.26852 18.5835 4.24876 18.5572 4.23558C18.544 4.22899 18.5308 4.2224 18.5176 4.2224L16.4883 3.70847C17.0286 3.55034 17.5425 3.43174 18.0564 3.34608C27.0436 1.71864 36.7622 4.4003 40.1818 9.44736C40.9856 10.6334 41.3876 11.8787 41.3876 13.1239Z" fill="#414B3D"/>
<path d="M22.775 13.6512L18.7031 19.6009V12.2017L22.5971 13.1768C22.696 13.2032 22.775 13.2691 22.8146 13.3679C22.8475 13.4601 22.8343 13.5656 22.775 13.6512Z" fill="#9BE9C1"/>
<path d="M18.2065 5.27002V20.3256L16.5593 22.7371L16.5461 22.7503C16.5395 22.7634 16.5329 22.7766 16.5263 22.7964C16.5131 22.8293 16.5065 22.8623 16.5065 22.8952V32.4029L12.0195 38.9588V14.3033L18.2065 5.27002Z" fill="#38EA8E"/>
<path d="M1.29725 8.42611C0.974398 7.94512 0.704255 7.45754 0.5 6.96338V29.998C0.5 31.2499 0.90192 32.4886 1.70576 33.6812C3.4584 36.2706 7.02956 38.3593 11.5232 39.4464V14.422C6.79236 13.3019 3.1619 11.1802 1.29725 8.42611ZM6.44974 34.1226C6.44974 34.261 6.33773 34.373 6.20595 34.373C6.06758 34.373 5.95557 34.261 5.95557 34.1226V28.2717C5.95557 28.1334 6.06758 28.0214 6.20595 28.0214C6.33773 28.0214 6.44974 28.1334 6.44974 28.2717V34.1226Z" fill="#9BE9C1"/>
<path d="M17.0083 32.4888C17.0083 32.5349 16.9885 32.5876 16.9622 32.6271L16.5141 33.2794L11.9876 39.8946C11.981 39.9078 11.9678 39.9144 11.9546 39.9276C11.9415 39.9474 11.9217 39.9605 11.8953 39.9737C11.8887 39.9803 11.8822 39.9803 11.8756 39.9803C11.8492 39.9935 11.8163 40.0001 11.7833 40.0001C11.7504 40.0001 11.7174 39.9935 11.6845 39.9803C6.87462 38.88 3.19145 36.7452 1.30704 33.9581C0.45049 32.6864 0.015625 31.3555 0.015625 29.9982V29.9916C0.0222139 29.8532 0.127636 29.7478 0.259413 29.7478C0.397779 29.7478 0.5032 29.8532 0.509789 29.9916V29.9982C0.509789 31.2501 0.911709 32.4888 1.71555 33.6813C3.46819 36.2708 7.03935 38.3594 11.5329 39.4466C11.5791 39.4598 11.6252 39.4664 11.6713 39.4795L12.0271 38.959L16.5141 32.4031L16.5537 32.3438C16.6327 32.2318 16.7843 32.2054 16.8963 32.2845C16.9688 32.3306 17.0083 32.4097 17.0083 32.4888Z" fill="#111111"/>
<path d="M41.8776 28.8715C41.8776 32.9697 38.0165 36.6068 31.8889 38.4319C31.3157 38.6032 30.7161 38.7613 30.1033 38.8997C27.9685 39.3807 25.7151 39.6245 23.4683 39.6245C21.1754 39.6245 18.8825 39.3741 16.695 38.8734C16.6884 38.8734 16.6818 38.8734 16.6752 38.8668C16.6555 38.8668 16.6423 38.8602 16.6291 38.847C16.6027 38.8338 16.583 38.8206 16.5698 38.8009C16.55 38.7811 16.5369 38.7613 16.5303 38.735C16.5105 38.7086 16.5039 38.6691 16.5039 38.6362C16.5039 38.6164 16.5039 38.5966 16.5105 38.5769C16.5369 38.4451 16.6686 38.3594 16.8004 38.3924C16.8663 38.4055 16.9322 38.4253 16.9981 38.4319C21.2084 39.3675 25.814 39.3609 29.9913 38.4187C30.525 38.3001 31.0389 38.1683 31.5463 38.0168C31.711 37.9707 31.8757 37.918 32.0404 37.8718C37.7069 36.0797 41.3834 32.6074 41.3834 28.8715C41.3834 28.7331 41.4954 28.6211 41.6338 28.6211C41.7656 28.6211 41.8776 28.7331 41.8776 28.8715Z" fill="#111111"/>
<path d="M18.695 4.42014C18.695 4.41355 18.695 4.41355 18.695 4.40696C18.695 4.40037 18.695 4.38719 18.6884 4.37402L18.6818 4.36743C18.6686 4.34107 18.6554 4.31472 18.6291 4.28836C18.6093 4.26859 18.583 4.24883 18.5566 4.23565C18.5434 4.22906 18.5303 4.22247 18.5171 4.22247L16.4877 3.70854L15.5784 3.47793L6.95363 1.29702L1.84727 0.00560356C1.75503 -0.014163 1.65619 0.0187813 1.59031 0.0978476C0.450433 1.60011 -0.0766752 3.2012 0.00897997 4.7957C0.0419243 5.52707 0.213235 6.24525 0.503144 6.96344C0.707399 7.4576 0.977542 7.94518 1.3004 8.42616C3.16504 11.1803 6.7955 13.3019 11.5263 14.422C11.5922 14.4352 11.6581 14.455 11.724 14.4681C11.7371 14.4681 11.7569 14.4747 11.7767 14.4747C11.8557 14.4747 11.9348 14.4352 11.9809 14.3627L12.0205 14.3034L18.2074 5.2701L18.662 4.60463C18.6884 4.56509 18.7016 4.51897 18.7016 4.46626C18.7016 4.45308 18.7016 4.43332 18.695 4.42014ZM11.6647 13.9476C7.10518 12.8736 3.48131 10.7652 1.7089 8.14943C0.93142 7.00956 0.5295 5.81039 0.503144 4.6178C0.496555 4.5585 0.496555 4.4992 0.496555 4.4399C0.503144 3.11554 0.970953 1.78459 1.8868 0.526123L15.506 3.9721L18.0559 4.6178L11.6647 13.9476Z" fill="#111111"/>
<path d="M18.0554 4.61756L11.6642 13.9474C7.10472 12.8734 3.48085 10.765 1.70844 8.14919C0.930958 7.00931 0.529038 5.81014 0.502683 4.61756V4.46602C0.502683 4.45943 0.502683 4.44625 0.496094 4.43966C0.502683 3.1153 0.970491 1.78435 1.88634 0.525879L15.5055 3.97185L18.0554 4.61756Z" fill="#414B3D"/>
<path d="M41.88 13.1242C41.88 13.9478 41.7219 14.7516 41.4056 15.5555C41.399 15.5687 41.3925 15.5884 41.3859 15.6016C40.358 18.1515 37.8015 20.3522 34.2567 21.8413C34.0986 21.9137 33.9339 21.9796 33.7626 22.0455C32.6359 22.487 31.4103 22.8625 30.1057 23.159C28.5442 23.4753 26.8772 23.6993 25.1509 23.8377C24.5975 23.8706 24.044 23.8838 23.4905 23.8838C21.2899 23.8838 19.0826 23.6532 17.0005 23.1986C16.9017 23.1788 16.7963 23.1524 16.6974 23.1327C16.6184 23.1129 16.5525 23.0602 16.5195 22.9811C16.5063 22.9548 16.5063 22.9218 16.5063 22.8955C16.5063 22.8625 16.5129 22.8296 16.5261 22.7966C16.5327 22.7769 16.5393 22.7637 16.5459 22.7505L16.5591 22.7373L18.2063 20.3258L18.7004 19.601L22.7723 13.6513C22.8316 13.5656 22.8448 13.4602 22.8119 13.368C22.7723 13.2691 22.6933 13.2033 22.5944 13.1769L18.7004 12.2018L18.3973 12.1227C18.2853 12.0963 18.2063 11.9909 18.2063 11.8789C18.2063 11.8591 18.2063 11.8394 18.2129 11.8196C18.2458 11.6878 18.3842 11.6088 18.5159 11.6417L18.7004 11.6878L22.713 12.6959C22.97 12.7618 23.1809 12.9463 23.2731 13.1901C23.3653 13.4405 23.3324 13.7172 23.1809 13.928L18.6807 20.4971C18.6675 20.5301 18.6543 20.5564 18.628 20.5762L17.1586 22.7307C19.7019 23.2776 22.4429 23.4885 25.118 23.3435C26.8179 23.2117 28.4651 22.9811 30.0003 22.678C31.4037 22.3618 32.7149 21.9467 33.9141 21.4591C37.4326 20.003 39.9627 17.855 40.9444 15.371C41.2409 14.633 41.3859 13.8819 41.3859 13.1308V13.1242C41.3859 11.8789 40.9839 10.6336 40.1801 9.44761C36.7605 4.40055 27.0419 1.71888 18.0547 3.34633C17.5408 3.43198 17.0269 3.55058 16.4866 3.70872C16.2164 3.78119 15.9463 3.87344 15.663 3.97227C15.6103 3.98545 15.5575 3.98545 15.5048 3.97227C15.4324 3.9525 15.3796 3.8932 15.3467 3.82073C15.3006 3.68895 15.3665 3.55058 15.4982 3.50446C15.5246 3.49787 15.551 3.4847 15.5773 3.47811C16.4207 3.18161 17.2048 2.97735 17.9691 2.85875C27.1342 1.20495 37.0702 3.97227 40.5886 9.17088C41.4452 10.4425 41.88 11.7801 41.88 13.1242Z" fill="#111111"/>
<path d="M18.7012 4.4662V20.4046C18.7012 20.4376 18.6946 20.4705 18.6814 20.4969C18.6683 20.5298 18.6551 20.5562 18.6287 20.576C18.5892 20.6221 18.5299 20.6484 18.4574 20.6484C18.319 20.6484 18.207 20.5364 18.207 20.4046V4.4662C18.207 4.32783 18.319 4.21582 18.4574 4.21582C18.4904 4.21582 18.5233 4.22241 18.5562 4.23559C18.5826 4.24876 18.609 4.26853 18.6287 4.2883C18.6551 4.31465 18.6683 4.34101 18.6814 4.36736C18.688 4.38054 18.688 4.39372 18.6946 4.4069C18.6946 4.41349 18.6946 4.41349 18.6946 4.42007C18.7012 4.43325 18.7012 4.45302 18.7012 4.4662Z" fill="#111111"/>
<path d="M0.505883 4.4662V29.998C0.499294 30.1364 0.393872 30.2418 0.262095 30.2418C0.123729 30.2418 0.0183076 30.1364 0.0117188 29.998V4.4662C0.0117188 4.32783 0.123729 4.21582 0.262095 4.21582C0.387284 4.21582 0.492705 4.31465 0.499294 4.43984C0.505883 4.44643 0.505883 4.45961 0.505883 4.4662Z" fill="#111111"/>
<path d="M16.9981 22.8954V38.6362C16.9981 38.768 16.8861 38.88 16.7477 38.88C16.7279 38.88 16.7082 38.88 16.695 38.8734C16.6884 38.8734 16.6818 38.8734 16.6752 38.8668C16.6555 38.8668 16.6423 38.8602 16.6291 38.847C16.6027 38.8338 16.583 38.8207 16.5698 38.8009C16.55 38.7811 16.5369 38.7614 16.5303 38.735C16.5105 38.7087 16.5039 38.6691 16.5039 38.6362V22.8954C16.5039 22.8625 16.5105 22.8295 16.5237 22.7966C16.5303 22.7768 16.5434 22.757 16.5566 22.7373C16.6027 22.6846 16.6686 22.645 16.7477 22.645C16.8861 22.645 16.9981 22.757 16.9981 22.8954Z" fill="#111111"/>
<path d="M41.8809 13.1242V28.8715C41.8809 29.0099 41.7689 29.1153 41.6371 29.1153C41.4987 29.1153 41.3867 29.0099 41.3867 28.8715V13.1242C41.3933 12.9858 41.4987 12.8804 41.6371 12.8804C41.7689 12.8804 41.8743 12.9858 41.8809 13.1242Z" fill="#111111"/>
<path d="M12.0215 14.2243V39.7561C12.0215 39.8286 11.9952 39.8879 11.949 39.9274C11.9359 39.9472 11.9161 39.9603 11.8897 39.9735C11.8831 39.9801 11.8766 39.9801 11.87 39.9801C11.8436 39.9933 11.8107 39.9999 11.7777 39.9999C11.7448 39.9999 11.7118 39.9933 11.6789 39.9801C11.5932 39.9472 11.5273 39.8615 11.5273 39.7561V14.2243C11.5273 14.0925 11.6394 13.9805 11.7777 13.9805C11.9161 13.9805 12.0215 14.0925 12.0215 14.2243Z" fill="#111111"/>
<path d="M34.2598 21.6828V28.522C34.2598 28.6604 34.1478 28.7724 34.016 28.7724C33.8776 28.7724 33.7656 28.6604 33.7656 28.522V21.6828C33.7656 21.5773 33.8315 21.4917 33.9172 21.4587C33.9501 21.4456 33.9831 21.439 34.016 21.439C34.1478 21.439 34.2598 21.5444 34.2598 21.6828Z" fill="#111111"/>
<path d="M32.041 34.5245V38.2011C32.041 38.3065 31.9752 38.3922 31.8895 38.4317C31.8631 38.4449 31.8302 38.4515 31.7972 38.4515C31.6589 38.4515 31.5469 38.3395 31.5469 38.2011V34.5245C31.5469 34.3862 31.6589 34.2742 31.7972 34.2742C31.929 34.2742 32.041 34.3862 32.041 34.5245Z" fill="#111111"/>
<path d="M6.44729 28.2719V34.1228C6.44729 34.2611 6.33528 34.3731 6.2035 34.3731C6.06514 34.3731 5.95312 34.2611 5.95312 34.1228V28.2719C5.95312 28.1335 6.06514 28.0215 6.2035 28.0215C6.33528 28.0215 6.44729 28.1335 6.44729 28.2719Z" fill="#111111"/>
</svg>
