<svg width="136" height="40" viewBox="0 0 136 40" fill="none" xmlns="http://www.w3.org/2000/svg">
<path d="M55.5294 31.6001C53.8594 31.6001 52.3894 31.4401 51.1294 31.1201C49.8694 30.8001 48.6894 30.4001 47.6094 29.9201V24.7301H48.1094C49.1994 25.6601 50.4094 26.3701 51.7294 26.8701C53.0494 27.3701 54.3294 27.6201 55.5694 27.6201C55.8794 27.6201 56.2994 27.5901 56.8094 27.5201C57.3194 27.4501 57.7394 27.3401 58.0494 27.2001C58.4294 27.0301 58.7494 26.8001 59.0194 26.5001C59.2894 26.2001 59.4194 25.8101 59.4194 25.3201C59.4194 24.7701 59.2094 24.3301 58.7794 23.9901C58.3494 23.6501 57.8394 23.4001 57.2394 23.2401C56.4994 23.0401 55.6994 22.8601 54.8594 22.6801C54.0194 22.5001 53.2294 22.2901 52.4894 22.0401C50.7994 21.4401 49.5894 20.6401 48.8594 19.6401C48.1294 18.6401 47.7594 17.3701 47.7594 15.8601C47.7594 13.8201 48.6194 12.1701 50.3494 10.9001C52.0794 9.63012 54.2394 9.00012 56.8194 9.00012C58.1194 9.00012 59.4094 9.13012 60.6894 9.40012C61.9694 9.66012 63.1194 10.0201 64.1394 10.4701V15.4501H63.6594C62.8494 14.7601 61.8594 14.1701 60.6894 13.6901C59.5194 13.2101 58.3194 12.9701 57.0894 12.9701C56.6094 12.9701 56.1794 13.0001 55.7994 13.0701C55.4194 13.1401 55.0194 13.2701 54.5994 13.4701C54.2594 13.6301 53.9594 13.8601 53.7094 14.1701C53.4594 14.4801 53.3394 14.8201 53.3394 15.2001C53.3394 15.7601 53.5394 16.2001 53.9294 16.5301C54.3194 16.8601 55.0894 17.1501 56.2194 17.4201C56.9494 17.5901 57.6594 17.7501 58.3394 17.9001C59.0194 18.0501 59.7394 18.2701 60.5194 18.5401C62.0294 19.0901 63.1594 19.8201 63.8994 20.7401C64.6394 21.6601 65.0094 22.8801 65.0094 24.3901C65.0094 26.5601 64.1594 28.3001 62.4494 29.6201C60.7394 30.9401 58.4294 31.6001 55.5294 31.6001Z" fill="white"/>
<path d="M75.5398 31.52C73.4498 31.52 71.9299 31.09 70.9799 30.23C70.0299 29.37 69.5499 27.96 69.5499 26.01V18.32H67.5898V14.75H69.5499V10.05H74.6798V14.75H79.6199V18.32H74.6798V24.15C74.6798 24.73 74.6798 25.23 74.6898 25.66C74.6999 26.09 74.7798 26.48 74.9198 26.82C75.0598 27.16 75.2998 27.43 75.6498 27.63C75.9998 27.83 76.4998 27.93 77.1698 27.93C77.4398 27.93 77.7998 27.8701 78.2498 27.75C78.6998 27.63 78.9998 27.53 79.1798 27.43H79.6199V31.05C79.0598 31.2 78.4698 31.31 77.8498 31.39C77.2298 31.47 76.4498 31.52 75.5398 31.52Z" fill="white"/>
<path d="M92.5322 29.4599C92.1822 29.7499 91.8622 30.0199 91.5922 30.2499C91.3222 30.4799 90.9422 30.7199 90.4722 30.9499C90.0122 31.1699 89.5622 31.3499 89.1322 31.4599C88.7022 31.5699 88.0922 31.6399 87.3122 31.6399C85.8522 31.6399 84.6522 31.1499 83.6822 30.1799C82.7122 29.2099 82.2422 27.9699 82.2422 26.4899C82.2422 25.2699 82.4822 24.2799 82.9722 23.5299C83.4622 22.7799 84.1622 22.1799 85.0822 21.7399C86.0122 21.2899 87.1222 20.9799 88.4122 20.7999C89.7022 20.6199 91.0922 20.4899 92.5722 20.3899V20.2999C92.5722 19.3899 92.2422 18.7599 91.5722 18.4199C90.9022 18.0799 89.9022 17.8999 88.5622 17.8999C87.9522 17.8999 87.2522 18.0099 86.4422 18.2299C85.6322 18.4499 84.8422 18.7299 84.0722 19.0699H83.6322V15.0999C84.1422 14.9499 84.9622 14.7799 86.0922 14.5799C87.2222 14.3799 88.3722 14.2799 89.5222 14.2799C92.3522 14.2799 94.4222 14.7499 95.7122 15.6899C97.0022 16.6299 97.6522 18.0699 97.6522 19.9999V31.1899H92.5522V29.4599H92.5322ZM92.5322 26.9099V23.4799C91.6622 23.5699 90.9622 23.6399 90.4222 23.7099C89.8822 23.7799 89.3622 23.8999 88.8422 24.0799C88.3922 24.2399 88.0422 24.4699 87.7922 24.7899C87.5422 25.1099 87.4222 25.5299 87.4222 26.0599C87.4222 26.8299 87.6322 27.3599 88.0422 27.6499C88.4522 27.9399 89.0722 28.0799 89.8822 28.0799C90.3322 28.0799 90.7922 27.9799 91.2622 27.7699C91.7322 27.5599 92.1522 27.2799 92.5322 26.9099Z" fill="white"/>
<path d="M110.217 31.6399C108.857 31.6399 107.618 31.4699 106.488 31.1299C105.358 30.7899 104.378 30.2599 103.548 29.5499C102.728 28.8399 102.087 27.9399 101.627 26.8599C101.167 25.7799 100.938 24.5099 100.938 23.0399C100.938 21.4699 101.188 20.1299 101.688 19.0299C102.188 17.9299 102.858 17.0199 103.708 16.3099C104.528 15.6299 105.488 15.1199 106.598 14.7899C107.708 14.4599 108.857 14.2999 110.057 14.2999C110.967 14.2999 111.877 14.3999 112.777 14.6099C113.677 14.8199 114.598 15.1499 115.518 15.6099V19.9999H114.857C114.647 19.7999 114.397 19.5899 114.107 19.3599C113.817 19.1299 113.487 18.9099 113.137 18.7199C112.767 18.5099 112.348 18.3399 111.878 18.1999C111.408 18.0599 110.887 17.9899 110.307 17.9899C108.997 17.9899 107.988 18.4499 107.268 19.3599C106.548 20.2699 106.188 21.4999 106.188 23.0399C106.188 24.6899 106.567 25.9199 107.337 26.7299C108.107 27.5399 109.117 27.9499 110.387 27.9499C111.027 27.9499 111.597 27.8799 112.087 27.7299C112.577 27.5799 112.998 27.4099 113.348 27.1999C113.688 26.9899 113.977 26.7799 114.227 26.5599C114.477 26.3399 114.677 26.1399 114.857 25.9699H115.518V30.3599C115.228 30.4899 114.887 30.6299 114.497 30.7999C114.107 30.9699 113.718 31.0999 113.318 31.2099C112.818 31.3499 112.357 31.4499 111.917 31.5199C111.477 31.5899 110.927 31.6399 110.217 31.6399Z" fill="white"/>
<path d="M135.51 22.9804C135.51 25.6904 134.77 27.8204 133.29 29.3704C131.81 30.9204 129.72 31.7104 127.01 31.7104C124.32 31.7104 122.24 30.9304 120.75 29.3704C119.26 27.8104 118.52 25.6804 118.52 22.9804C118.52 20.2504 119.26 18.1004 120.75 16.5604C122.24 15.0204 124.33 14.2404 127.01 14.2404C129.71 14.2404 131.8 15.0204 133.28 16.5804C134.76 18.1404 135.51 20.2704 135.51 22.9804ZM130.25 23.0104C130.25 22.0304 130.17 21.2204 130.01 20.5704C129.85 19.9204 129.63 19.4004 129.34 19.0104C129.04 18.6004 128.7 18.3104 128.31 18.1504C127.92 17.9904 127.49 17.9104 127.01 17.9104C126.55 17.9104 126.14 17.9804 125.76 18.1204C125.38 18.2604 125.05 18.5304 124.73 18.9304C124.44 19.3104 124.2 19.8304 124.03 20.5004C123.86 21.1704 123.77 22.0004 123.77 23.0004C123.77 24.0004 123.85 24.8204 124.02 25.4404C124.19 26.0604 124.4 26.5604 124.66 26.9304C124.93 27.3104 125.28 27.5904 125.69 27.7604C126.1 27.9304 126.55 28.0204 127.05 28.0204C127.46 28.0204 127.88 27.9304 128.3 27.7604C128.72 27.5904 129.06 27.3204 129.32 26.9704C129.62 26.5504 129.85 26.0404 130.01 25.4504C130.17 24.8604 130.25 24.0604 130.25 23.0104Z" fill="white"/>
<path d="M32.1896 0.264049L4.2988 8.61184C-0.158585 9.94621 -1.48258 15.5467 1.91617 18.6931L23.1805 38.3789C26.5793 41.5254 32.1508 39.8576 33.2103 35.3768L39.8359 7.34324C40.8945 2.86246 36.647 -1.07032 32.1896 0.264049Z" fill="url(#paint0_linear_2934_3013)"/>
<path d="M32.1901 0.264049L18.2521 4.43612C7.59355 7.62637 4.4278 21.0185 12.5539 28.5424L23.1801 38.3799C26.5788 41.5263 32.1503 39.8585 33.2099 35.3778L39.8363 7.34324C40.895 2.86246 36.6475 -1.07032 32.1901 0.264049Z" fill="url(#paint1_linear_2934_3013)" fill-opacity="0.6"/>
<path d="M32.1913 0.264049C15.3381 5.30835 10.3324 26.4838 23.1813 38.3789C26.58 41.5254 32.1515 39.8576 33.2111 35.3768L39.8375 7.34324C40.8962 2.86246 36.6487 -1.07032 32.1913 0.264049Z" fill="url(#paint2_linear_2934_3013)" fill-opacity="0.6"/>
<defs>
<linearGradient id="paint0_linear_2934_3013" x1="1.49011e-07" y1="19.9997" x2="39.9997" y2="19.9997" gradientUnits="userSpaceOnUse">
<stop stop-color="#30D7F1"/>
<stop offset="1" stop-color="#79FA4B"/>
</linearGradient>
<linearGradient id="paint1_linear_2934_3013" x1="7.97227" y1="12.8783" x2="37.5608" y2="18.0893" gradientUnits="userSpaceOnUse">
<stop stop-color="white"/>
<stop offset="1" stop-color="#0095FF"/>
</linearGradient>
<linearGradient id="paint2_linear_2934_3013" x1="15.9372" y1="12.878" x2="38.4636" y2="15.8588" gradientUnits="userSpaceOnUse">
<stop stop-color="white"/>
<stop offset="1" stop-color="#5ECC62"/>
</linearGradient>
</defs>
</svg>
