<svg width="70" height="70" viewBox="0 0 70 70" fill="none" xmlns="http://www.w3.org/2000/svg">
<rect width="70" height="70" rx="35" fill="url(#paint0_linear_3442_1424)"/>
<path d="M41.3922 0.562701C40.1402 0.309486 38.8739 0.11254 37.5788 0C22.6561 1.74437 11 16.7404 11 35C11 53.2596 22.6561 68.2556 37.5788 70C38.8739 69.8734 40.1402 69.6905 41.3922 69.4373C57.7251 66.1033 70 51.9514 70 35C70 18.0486 57.7251 3.8967 41.3922 0.562701Z" fill="url(#paint1_linear_3442_1424)" fill-opacity="0.7"/>
<path d="M42.1688 0.742432C31.6828 4.04643 23.8008 18.1304 23.8008 35.0004C23.8008 51.8704 31.6828 65.9544 42.1688 69.2584C58.0588 65.9544 70.0008 51.8704 70.0008 35.0004C70.0008 18.1304 58.0588 4.04643 42.1688 0.742432Z" fill="url(#paint2_linear_3442_1424)" fill-opacity="0.7"/>
<defs>
<linearGradient id="paint0_linear_3442_1424" x1="-0.00083845" y1="22.5368" x2="63.5973" y2="36.5256" gradientUnits="userSpaceOnUse">
<stop offset="0.369792" stop-color="#37EA8E"/>
<stop offset="1" stop-color="#44C486"/>
</linearGradient>
<linearGradient id="paint1_linear_3442_1424" x1="10.9993" y1="22.5368" x2="65.3295" y2="32.6092" gradientUnits="userSpaceOnUse">
<stop stop-opacity="0.2"/>
<stop offset="1" stop-color="#BDF93F"/>
</linearGradient>
<linearGradient id="paint2_linear_3442_1424" x1="23.8002" y1="22.8015" x2="66.8586" y2="29.1877" gradientUnits="userSpaceOnUse">
<stop stop-color="white"/>
<stop offset="1" stop-color="#BDF93F"/>
</linearGradient>
</defs>
</svg>
