<svg width="150" height="50" viewBox="0 0 150 50" fill="none" xmlns="http://www.w3.org/2000/svg">
<path d="M69.5294 36.6C67.8594 36.6 66.3894 36.44 65.1294 36.12C63.8694 35.8 62.6894 35.4 61.6094 34.92V29.73H62.1094C63.1994 30.66 64.4094 31.37 65.7294 31.87C67.0494 32.37 68.3294 32.62 69.5694 32.62C69.8794 32.62 70.2994 32.59 70.8094 32.52C71.3194 32.45 71.7394 32.34 72.0494 32.2C72.4294 32.03 72.7494 31.8 73.0194 31.5C73.2894 31.2 73.4194 30.81 73.4194 30.32C73.4194 29.77 73.2094 29.33 72.7794 28.99C72.3494 28.65 71.8394 28.4 71.2394 28.24C70.4994 28.04 69.6994 27.86 68.8594 27.68C68.0194 27.5 67.2294 27.29 66.4894 27.04C64.7994 26.44 63.5894 25.64 62.8594 24.64C62.1294 23.64 61.7594 22.37 61.7594 20.86C61.7594 18.82 62.6194 17.17 64.3494 15.9C66.0794 14.63 68.2394 14 70.8194 14C72.1194 14 73.4094 14.13 74.6894 14.4C75.9694 14.66 77.1194 15.02 78.1394 15.47V20.45H77.6594C76.8494 19.76 75.8594 19.17 74.6894 18.69C73.5194 18.21 72.3194 17.97 71.0894 17.97C70.6094 17.97 70.1794 18 69.7994 18.07C69.4194 18.14 69.0194 18.27 68.5994 18.47C68.2594 18.63 67.9594 18.86 67.7094 19.17C67.4594 19.48 67.3394 19.82 67.3394 20.2C67.3394 20.76 67.5394 21.2 67.9294 21.53C68.3194 21.86 69.0894 22.15 70.2194 22.42C70.9494 22.59 71.6594 22.75 72.3394 22.9C73.0194 23.05 73.7394 23.27 74.5194 23.54C76.0294 24.09 77.1594 24.82 77.8994 25.74C78.6394 26.66 79.0094 27.88 79.0094 29.39C79.0094 31.56 78.1594 33.3 76.4494 34.62C74.7394 35.94 72.4294 36.6 69.5294 36.6Z" fill="white"/>
<path d="M89.5398 36.52C87.4498 36.52 85.9299 36.09 84.9799 35.23C84.0299 34.37 83.5499 32.96 83.5499 31.01V23.32H81.5898V19.75H83.5499V15.05H88.6798V19.75H93.6199V23.32H88.6798V29.15C88.6798 29.73 88.6798 30.23 88.6898 30.66C88.6999 31.09 88.7798 31.48 88.9198 31.82C89.0598 32.16 89.2998 32.43 89.6498 32.63C89.9998 32.83 90.4998 32.93 91.1698 32.93C91.4398 32.93 91.7998 32.8701 92.2498 32.75C92.6998 32.63 92.9998 32.53 93.1798 32.43H93.6199V36.05C93.0598 36.2 92.4698 36.31 91.8498 36.39C91.2298 36.47 90.4498 36.52 89.5398 36.52Z" fill="white"/>
<path d="M106.532 34.46C106.182 34.75 105.862 35.02 105.592 35.25C105.322 35.48 104.942 35.72 104.472 35.95C104.012 36.17 103.562 36.35 103.132 36.46C102.702 36.57 102.092 36.64 101.312 36.64C99.8522 36.64 98.6522 36.15 97.6822 35.18C96.7122 34.21 96.2422 32.97 96.2422 31.49C96.2422 30.27 96.4822 29.28 96.9722 28.53C97.4622 27.78 98.1622 27.18 99.0822 26.74C100.012 26.29 101.122 25.98 102.412 25.8C103.702 25.62 105.092 25.49 106.572 25.39V25.3C106.572 24.39 106.242 23.76 105.572 23.42C104.902 23.08 103.902 22.9 102.562 22.9C101.952 22.9 101.252 23.01 100.442 23.23C99.6322 23.45 98.8422 23.73 98.0722 24.07H97.6322V20.1C98.1422 19.95 98.9622 19.78 100.092 19.58C101.222 19.38 102.372 19.28 103.522 19.28C106.352 19.28 108.422 19.75 109.712 20.69C111.002 21.63 111.652 23.07 111.652 25V36.19H106.552V34.46H106.532ZM106.532 31.91V28.48C105.662 28.57 104.962 28.64 104.422 28.71C103.882 28.78 103.362 28.9 102.842 29.08C102.392 29.24 102.042 29.47 101.792 29.79C101.542 30.11 101.422 30.53 101.422 31.06C101.422 31.83 101.632 32.36 102.042 32.65C102.452 32.94 103.072 33.08 103.882 33.08C104.332 33.08 104.792 32.98 105.262 32.77C105.732 32.56 106.152 32.28 106.532 31.91Z" fill="white"/>
<path d="M124.217 36.64C122.857 36.64 121.618 36.47 120.488 36.13C119.358 35.79 118.378 35.26 117.548 34.55C116.728 33.84 116.087 32.94 115.627 31.86C115.167 30.78 114.938 29.51 114.938 28.04C114.938 26.47 115.188 25.13 115.688 24.03C116.188 22.93 116.858 22.02 117.708 21.31C118.528 20.63 119.488 20.12 120.598 19.79C121.708 19.46 122.857 19.3 124.057 19.3C124.967 19.3 125.877 19.4 126.777 19.61C127.677 19.82 128.598 20.15 129.518 20.61V25H128.857C128.647 24.8 128.397 24.59 128.107 24.36C127.817 24.13 127.487 23.91 127.137 23.72C126.767 23.51 126.348 23.34 125.878 23.2C125.408 23.06 124.887 22.99 124.307 22.99C122.997 22.99 121.988 23.45 121.268 24.36C120.548 25.27 120.188 26.5 120.188 28.04C120.188 29.69 120.567 30.92 121.337 31.73C122.107 32.54 123.117 32.95 124.387 32.95C125.027 32.95 125.597 32.88 126.087 32.73C126.577 32.58 126.998 32.41 127.348 32.2C127.688 31.99 127.977 31.78 128.227 31.56C128.477 31.34 128.677 31.14 128.857 30.97H129.518V35.36C129.228 35.49 128.887 35.63 128.497 35.8C128.107 35.97 127.718 36.1 127.318 36.21C126.818 36.35 126.357 36.45 125.917 36.52C125.477 36.59 124.927 36.64 124.217 36.64Z" fill="white"/>
<path d="M149.51 27.98C149.51 30.69 148.77 32.82 147.29 34.37C145.81 35.92 143.72 36.71 141.01 36.71C138.32 36.71 136.24 35.93 134.75 34.37C133.26 32.81 132.52 30.68 132.52 27.98C132.52 25.25 133.26 23.1 134.75 21.56C136.24 20.02 138.33 19.24 141.01 19.24C143.71 19.24 145.8 20.02 147.28 21.58C148.76 23.14 149.51 25.27 149.51 27.98ZM144.25 28.01C144.25 27.03 144.17 26.22 144.01 25.57C143.85 24.92 143.63 24.4 143.34 24.01C143.04 23.6 142.7 23.31 142.31 23.15C141.92 22.99 141.49 22.91 141.01 22.91C140.55 22.91 140.14 22.98 139.76 23.12C139.38 23.26 139.05 23.53 138.73 23.93C138.44 24.31 138.2 24.83 138.03 25.5C137.86 26.17 137.77 27 137.77 28C137.77 29 137.85 29.82 138.02 30.44C138.19 31.06 138.4 31.56 138.66 31.93C138.93 32.31 139.28 32.59 139.69 32.76C140.1 32.93 140.55 33.02 141.05 33.02C141.46 33.02 141.88 32.93 142.3 32.76C142.72 32.59 143.06 32.32 143.32 31.97C143.62 31.55 143.85 31.04 144.01 30.45C144.17 29.86 144.25 29.06 144.25 28.01Z" fill="white"/>
<rect width="50" height="50" rx="25" fill="url(#paint0_linear_3442_139)"/>
<path d="M29.6351 0.401929C28.7439 0.221061 27.8424 0.0803859 26.9205 0C16.2976 1.24598 8 11.9574 8 25C8 38.0426 16.2976 48.754 26.9205 50C27.8424 49.9096 28.7439 49.7789 29.6351 49.5981C41.262 47.2166 50 37.1081 50 25C50 12.8919 41.262 2.78336 29.6351 0.401929Z" fill="#44C486" fill-opacity="0.8"/>
<path d="M30.12 0.530029C22.63 2.89003 17 12.95 17 25C17 37.05 22.63 47.11 30.12 49.47C41.47 47.11 50 37.05 50 25C50 12.95 41.47 2.89003 30.12 0.530029Z" fill="url(#paint1_linear_3442_139)" fill-opacity="0.6"/>
<defs>
<linearGradient id="paint0_linear_3442_139" x1="1.86265e-07" y1="25" x2="50" y2="25" gradientUnits="userSpaceOnUse">
<stop stop-color="#4BFABB"/>
<stop offset="1" stop-color="#79FA4B"/>
</linearGradient>
<linearGradient id="paint1_linear_3442_139" x1="16.9996" y1="16.2865" x2="47.7556" y2="20.8481" gradientUnits="userSpaceOnUse">
<stop stop-color="white"/>
<stop offset="1" stop-color="#5ECC62"/>
</linearGradient>
</defs>
</svg>
