<svg width="136" height="40" viewBox="0 0 136 40" fill="none" xmlns="http://www.w3.org/2000/svg">
<path d="M55.5294 31.6C53.8594 31.6 52.3894 31.44 51.1294 31.12C49.8694 30.8 48.6894 30.4 47.6094 29.92V24.73H48.1094C49.1994 25.66 50.4094 26.37 51.7294 26.87C53.0494 27.37 54.3294 27.62 55.5694 27.62C55.8794 27.62 56.2994 27.59 56.8094 27.52C57.3194 27.45 57.7394 27.34 58.0494 27.2C58.4294 27.03 58.7494 26.8 59.0194 26.5C59.2894 26.2 59.4194 25.81 59.4194 25.32C59.4194 24.77 59.2094 24.33 58.7794 23.99C58.3494 23.65 57.8394 23.4 57.2394 23.24C56.4994 23.04 55.6994 22.86 54.8594 22.68C54.0194 22.5 53.2294 22.29 52.4894 22.04C50.7994 21.44 49.5894 20.64 48.8594 19.64C48.1294 18.64 47.7594 17.37 47.7594 15.86C47.7594 13.82 48.6194 12.17 50.3494 10.9C52.0794 9.63 54.2394 9 56.8194 9C58.1194 9 59.4094 9.13 60.6894 9.4C61.9694 9.66 63.1194 10.02 64.1394 10.47V15.45H63.6594C62.8494 14.76 61.8594 14.17 60.6894 13.69C59.5194 13.21 58.3194 12.97 57.0894 12.97C56.6094 12.97 56.1794 13 55.7994 13.07C55.4194 13.14 55.0194 13.27 54.5994 13.47C54.2594 13.63 53.9594 13.86 53.7094 14.17C53.4594 14.48 53.3394 14.82 53.3394 15.2C53.3394 15.76 53.5394 16.2 53.9294 16.53C54.3194 16.86 55.0894 17.15 56.2194 17.42C56.9494 17.59 57.6594 17.75 58.3394 17.9C59.0194 18.05 59.7394 18.27 60.5194 18.54C62.0294 19.09 63.1594 19.82 63.8994 20.74C64.6394 21.66 65.0094 22.88 65.0094 24.39C65.0094 26.56 64.1594 28.3 62.4494 29.62C60.7394 30.94 58.4294 31.6 55.5294 31.6Z" fill="white"/>
<path d="M75.5398 31.52C73.4498 31.52 71.9299 31.09 70.9799 30.23C70.0299 29.37 69.5499 27.96 69.5499 26.01V18.32H67.5898V14.75H69.5499V10.05H74.6798V14.75H79.6199V18.32H74.6798V24.15C74.6798 24.73 74.6798 25.23 74.6898 25.66C74.6999 26.09 74.7798 26.48 74.9198 26.82C75.0598 27.16 75.2998 27.43 75.6498 27.63C75.9998 27.83 76.4998 27.93 77.1698 27.93C77.4398 27.93 77.7998 27.8701 78.2498 27.75C78.6998 27.63 78.9998 27.53 79.1798 27.43H79.6199V31.05C79.0598 31.2 78.4698 31.31 77.8498 31.39C77.2298 31.47 76.4498 31.52 75.5398 31.52Z" fill="white"/>
<path d="M92.5302 29.46C92.1802 29.75 91.8602 30.02 91.5902 30.25C91.3202 30.48 90.9402 30.72 90.4702 30.95C90.0102 31.17 89.5602 31.35 89.1302 31.46C88.7002 31.57 88.0902 31.64 87.3102 31.64C85.8502 31.64 84.6502 31.15 83.6802 30.18C82.7102 29.21 82.2402 27.97 82.2402 26.49C82.2402 25.27 82.4802 24.28 82.9702 23.53C83.4602 22.78 84.1602 22.18 85.0802 21.74C86.0102 21.29 87.1202 20.98 88.4102 20.8C89.7002 20.62 91.0902 20.49 92.5702 20.39V20.3C92.5702 19.39 92.2402 18.76 91.5702 18.42C90.9002 18.08 89.9002 17.9 88.5602 17.9C87.9502 17.9 87.2502 18.01 86.4402 18.23C85.6302 18.45 84.8402 18.73 84.0702 19.07H83.6302V15.1C84.1402 14.95 84.9602 14.78 86.0902 14.58C87.2202 14.38 88.3702 14.28 89.5202 14.28C92.3502 14.28 94.4202 14.75 95.7102 15.69C97.0002 16.63 97.6502 18.07 97.6502 20V31.19H92.5502V29.46H92.5302ZM92.5302 26.91V23.48C91.6602 23.57 90.9602 23.64 90.4202 23.71C89.8802 23.78 89.3602 23.9 88.8402 24.08C88.3902 24.24 88.0402 24.47 87.7902 24.79C87.5402 25.11 87.4202 25.53 87.4202 26.06C87.4202 26.83 87.6302 27.36 88.0402 27.65C88.4502 27.94 89.0702 28.08 89.8802 28.08C90.3302 28.08 90.7902 27.98 91.2602 27.77C91.7302 27.56 92.1502 27.28 92.5302 26.91Z" fill="white"/>
<path d="M110.219 31.64C108.859 31.64 107.619 31.47 106.489 31.13C105.359 30.79 104.379 30.26 103.549 29.55C102.729 28.84 102.089 27.94 101.629 26.86C101.169 25.78 100.939 24.51 100.939 23.04C100.939 21.47 101.189 20.13 101.689 19.03C102.189 17.93 102.859 17.02 103.709 16.31C104.529 15.63 105.489 15.12 106.599 14.79C107.709 14.46 108.859 14.3 110.059 14.3C110.969 14.3 111.879 14.4 112.779 14.61C113.679 14.82 114.599 15.15 115.519 15.61V20H114.859C114.649 19.8 114.399 19.59 114.109 19.36C113.819 19.13 113.489 18.91 113.139 18.72C112.769 18.51 112.349 18.34 111.879 18.2C111.409 18.06 110.889 17.99 110.309 17.99C108.999 17.99 107.989 18.45 107.269 19.36C106.549 20.27 106.189 21.5 106.189 23.04C106.189 24.69 106.569 25.92 107.339 26.73C108.109 27.54 109.119 27.95 110.389 27.95C111.029 27.95 111.599 27.88 112.089 27.73C112.579 27.58 112.999 27.41 113.349 27.2C113.689 26.99 113.979 26.78 114.229 26.56C114.479 26.34 114.679 26.14 114.859 25.97H115.519V30.36C115.229 30.49 114.889 30.63 114.499 30.8C114.109 30.97 113.719 31.1 113.319 31.21C112.819 31.35 112.359 31.45 111.919 31.52C111.479 31.59 110.929 31.64 110.219 31.64Z" fill="white"/>
<path d="M135.51 22.98C135.51 25.69 134.77 27.82 133.29 29.37C131.81 30.92 129.72 31.71 127.01 31.71C124.32 31.71 122.24 30.93 120.75 29.37C119.26 27.81 118.52 25.68 118.52 22.98C118.52 20.25 119.26 18.1 120.75 16.56C122.24 15.02 124.33 14.24 127.01 14.24C129.71 14.24 131.8 15.02 133.28 16.58C134.76 18.14 135.51 20.27 135.51 22.98ZM130.25 23.01C130.25 22.03 130.17 21.22 130.01 20.57C129.85 19.92 129.63 19.4 129.34 19.01C129.04 18.6 128.7 18.31 128.31 18.15C127.92 17.99 127.49 17.91 127.01 17.91C126.55 17.91 126.14 17.98 125.76 18.12C125.38 18.26 125.05 18.53 124.73 18.93C124.44 19.31 124.2 19.83 124.03 20.5C123.86 21.17 123.77 22 123.77 23C123.77 24 123.85 24.82 124.02 25.44C124.19 26.06 124.4 26.56 124.66 26.93C124.93 27.31 125.28 27.59 125.69 27.76C126.1 27.93 126.55 28.02 127.05 28.02C127.46 28.02 127.88 27.93 128.3 27.76C128.72 27.59 129.06 27.32 129.32 26.97C129.62 26.55 129.85 26.04 130.01 25.45C130.17 24.86 130.25 24.06 130.25 23.01Z" fill="white"/>
<path d="M32.1896 0.264049L4.2988 8.61184C-0.158585 9.94621 -1.48258 15.5467 1.91617 18.6931L23.1805 38.3789C26.5793 41.5254 32.1508 39.8576 33.2103 35.3768L39.8359 7.34324C40.8945 2.86246 36.647 -1.07032 32.1896 0.264049Z" fill="url(#paint0_linear_1_615)"/>
<path d="M32.1901 0.264049L18.2521 4.43612C7.59355 7.62637 4.4278 21.0185 12.5539 28.5424L23.1801 38.3799C26.5788 41.5263 32.1503 39.8585 33.2099 35.3778L39.8363 7.34324C40.895 2.86246 36.6475 -1.07032 32.1901 0.264049Z" fill="url(#paint1_linear_1_615)" fill-opacity="0.6"/>
<path d="M32.1893 0.264049C15.3361 5.30835 10.3305 26.4838 23.1793 38.3789C26.5781 41.5254 32.1496 39.8576 33.2091 35.3768L39.8356 7.34324C40.8942 2.86246 36.6467 -1.07032 32.1893 0.264049Z" fill="url(#paint2_linear_1_615)" fill-opacity="0.6"/>
<defs>
<linearGradient id="paint0_linear_1_615" x1="-0.000479111" y1="12.878" x2="36.341" y2="20.8716" gradientUnits="userSpaceOnUse">
<stop offset="0.369792" stop-color="#F7578C"/>
<stop offset="1" stop-color="#0095FF"/>
</linearGradient>
<linearGradient id="paint1_linear_1_615" x1="7.97227" y1="12.8783" x2="37.5608" y2="18.0893" gradientUnits="userSpaceOnUse">
<stop stop-color="white"/>
<stop offset="1" stop-color="#0095FF"/>
</linearGradient>
<linearGradient id="paint2_linear_1_615" x1="15.9353" y1="12.878" x2="38.4617" y2="15.8588" gradientUnits="userSpaceOnUse">
<stop stop-color="white"/>
<stop offset="1" stop-color="#0095FF"/>
</linearGradient>
</defs>
</svg>
