<svg width="136" height="40" viewBox="0 0 136 40" fill="none" xmlns="http://www.w3.org/2000/svg">
<path d="M55.5291 31.6C53.8591 31.6 52.3891 31.44 51.1291 31.12C49.8691 30.8 48.6891 30.4 47.6091 29.92V24.73H48.1091C49.1991 25.66 50.4091 26.37 51.7291 26.87C53.0491 27.37 54.3291 27.62 55.5691 27.62C55.8791 27.62 56.2991 27.59 56.8091 27.52C57.3191 27.45 57.7391 27.34 58.0491 27.2C58.4291 27.03 58.7491 26.8 59.0191 26.5C59.2891 26.2 59.4191 25.81 59.4191 25.32C59.4191 24.77 59.2091 24.33 58.7791 23.99C58.3491 23.65 57.8391 23.4 57.2391 23.24C56.4991 23.04 55.6991 22.86 54.8591 22.68C54.0191 22.5 53.2291 22.29 52.4891 22.04C50.7991 21.44 49.5891 20.64 48.8591 19.64C48.1291 18.64 47.7591 17.37 47.7591 15.86C47.7591 13.82 48.6191 12.17 50.3491 10.9C52.0791 9.63 54.2391 9 56.8191 9C58.1191 9 59.4091 9.13 60.6891 9.4C61.9691 9.66 63.1191 10.02 64.1391 10.47V15.45H63.6591C62.8491 14.76 61.8591 14.17 60.6891 13.69C59.5191 13.21 58.3191 12.97 57.0891 12.97C56.6091 12.97 56.1791 13 55.7991 13.07C55.4191 13.14 55.0191 13.27 54.5991 13.47C54.2591 13.63 53.9591 13.86 53.7091 14.17C53.4591 14.48 53.3391 14.82 53.3391 15.2C53.3391 15.76 53.5391 16.2 53.9291 16.53C54.3191 16.86 55.0891 17.15 56.2191 17.42C56.9491 17.59 57.6591 17.75 58.3391 17.9C59.0191 18.05 59.7391 18.27 60.5191 18.54C62.0291 19.09 63.1591 19.82 63.8991 20.74C64.6391 21.66 65.0091 22.88 65.0091 24.39C65.0091 26.56 64.1591 28.3 62.4491 29.62C60.7391 30.94 58.4291 31.6 55.5291 31.6Z" fill="#111111"/>
<path d="M75.5396 31.52C73.4496 31.52 71.9296 31.09 70.9796 30.23C70.0296 29.37 69.5496 27.96 69.5496 26.01V18.32H67.5896V14.75H69.5496V10.05H74.6796V14.75H79.6196V18.32H74.6796V24.15C74.6796 24.73 74.6796 25.23 74.6896 25.66C74.6996 26.09 74.7796 26.48 74.9196 26.82C75.0596 27.16 75.2996 27.43 75.6496 27.63C75.9996 27.83 76.4996 27.93 77.1696 27.93C77.4396 27.93 77.7996 27.8701 78.2496 27.75C78.6996 27.63 78.9996 27.53 79.1796 27.43H79.6196V31.05C79.0596 31.2 78.4696 31.31 77.8496 31.39C77.2296 31.47 76.4496 31.52 75.5396 31.52Z" fill="#111111"/>
<path d="M92.53 29.46C92.18 29.75 91.86 30.02 91.59 30.25C91.32 30.48 90.94 30.72 90.47 30.95C90.01 31.17 89.56 31.35 89.13 31.46C88.7 31.57 88.09 31.64 87.31 31.64C85.85 31.64 84.65 31.15 83.68 30.18C82.71 29.21 82.24 27.97 82.24 26.49C82.24 25.27 82.48 24.28 82.97 23.53C83.46 22.78 84.16 22.18 85.08 21.74C86.01 21.29 87.12 20.98 88.41 20.8C89.7 20.62 91.09 20.49 92.57 20.39V20.3C92.57 19.39 92.24 18.76 91.57 18.42C90.9 18.08 89.9 17.9 88.56 17.9C87.95 17.9 87.25 18.01 86.44 18.23C85.63 18.45 84.84 18.73 84.07 19.07H83.63V15.1C84.14 14.95 84.96 14.78 86.09 14.58C87.22 14.38 88.37 14.28 89.52 14.28C92.35 14.28 94.42 14.75 95.71 15.69C97 16.63 97.65 18.07 97.65 20V31.19H92.55V29.46H92.53ZM92.53 26.91V23.48C91.66 23.57 90.96 23.64 90.42 23.71C89.88 23.78 89.36 23.9 88.84 24.08C88.39 24.24 88.04 24.47 87.79 24.79C87.54 25.11 87.42 25.53 87.42 26.06C87.42 26.83 87.63 27.36 88.04 27.65C88.45 27.94 89.07 28.08 89.88 28.08C90.33 28.08 90.79 27.98 91.26 27.77C91.73 27.56 92.15 27.28 92.53 26.91Z" fill="#111111"/>
<path d="M110.219 31.64C108.859 31.64 107.619 31.47 106.489 31.13C105.359 30.79 104.379 30.26 103.549 29.55C102.729 28.84 102.089 27.94 101.629 26.86C101.169 25.78 100.939 24.51 100.939 23.04C100.939 21.47 101.189 20.13 101.689 19.03C102.189 17.93 102.859 17.02 103.709 16.31C104.529 15.63 105.489 15.12 106.599 14.79C107.709 14.46 108.859 14.3 110.059 14.3C110.969 14.3 111.879 14.4 112.779 14.61C113.679 14.82 114.599 15.15 115.519 15.61V20H114.859C114.649 19.8 114.399 19.59 114.109 19.36C113.819 19.13 113.489 18.91 113.139 18.72C112.769 18.51 112.349 18.34 111.879 18.2C111.409 18.06 110.889 17.99 110.309 17.99C108.999 17.99 107.989 18.45 107.269 19.36C106.549 20.27 106.189 21.5 106.189 23.04C106.189 24.69 106.569 25.92 107.339 26.73C108.109 27.54 109.119 27.95 110.389 27.95C111.029 27.95 111.599 27.88 112.089 27.73C112.579 27.58 112.999 27.41 113.349 27.2C113.689 26.99 113.979 26.78 114.229 26.56C114.479 26.34 114.679 26.14 114.859 25.97H115.519V30.36C115.229 30.49 114.889 30.63 114.499 30.8C114.109 30.97 113.719 31.1 113.319 31.21C112.819 31.35 112.359 31.45 111.919 31.52C111.479 31.59 110.929 31.64 110.219 31.64Z" fill="#111111"/>
<path d="M135.509 22.98C135.509 25.69 134.769 27.82 133.289 29.37C131.809 30.92 129.719 31.71 127.009 31.71C124.319 31.71 122.239 30.93 120.749 29.37C119.259 27.81 118.519 25.68 118.519 22.98C118.519 20.25 119.259 18.1 120.749 16.56C122.239 15.02 124.329 14.24 127.009 14.24C129.709 14.24 131.799 15.02 133.279 16.58C134.759 18.14 135.509 20.27 135.509 22.98ZM130.249 23.01C130.249 22.03 130.169 21.22 130.009 20.57C129.849 19.92 129.629 19.4 129.339 19.01C129.039 18.6 128.699 18.31 128.309 18.15C127.919 17.99 127.489 17.91 127.009 17.91C126.549 17.91 126.139 17.98 125.759 18.12C125.379 18.26 125.049 18.53 124.729 18.93C124.439 19.31 124.199 19.83 124.029 20.5C123.859 21.17 123.769 22 123.769 23C123.769 24 123.849 24.82 124.019 25.44C124.189 26.06 124.399 26.56 124.659 26.93C124.929 27.31 125.279 27.59 125.689 27.76C126.099 27.93 126.549 28.02 127.049 28.02C127.459 28.02 127.879 27.93 128.299 27.76C128.719 27.59 129.059 27.32 129.319 26.97C129.619 26.55 129.849 26.04 130.009 25.45C130.169 24.86 130.249 24.06 130.249 23.01Z" fill="#111111"/>
<path d="M32.1894 0.264049L4.29856 8.61184C-0.158829 9.94621 -1.48282 15.5467 1.91592 18.6931L23.1803 38.3789C26.579 41.5254 32.1505 39.8576 33.2101 35.3768L39.8356 7.34324C40.8943 2.86246 36.6468 -1.07032 32.1894 0.264049Z" fill="url(#paint0_linear_1_1373)"/>
<path d="M32.1898 0.264049L18.2518 4.43612C7.59331 7.62637 4.42755 21.0185 12.5537 28.5424L23.1798 38.3799C26.5786 41.5263 32.1501 39.8585 33.2097 35.3778L39.8361 7.34324C40.8947 2.86246 36.6472 -1.07032 32.1898 0.264049Z" fill="url(#paint1_linear_1_1373)" fill-opacity="0.6"/>
<path d="M32.1891 0.264049C15.3359 5.30835 10.3302 26.4838 23.1791 38.3789C26.5778 41.5254 32.1493 39.8576 33.2089 35.3768L39.8353 7.34324C40.894 2.86246 36.6465 -1.07032 32.1891 0.264049Z" fill="url(#paint2_linear_1_1373)" fill-opacity="0.6"/>
<defs>
<linearGradient id="paint0_linear_1_1373" x1="-0.000723252" y1="12.878" x2="36.3408" y2="20.8716" gradientUnits="userSpaceOnUse">
<stop offset="0.369792" stop-color="#F7578C"/>
<stop offset="1" stop-color="#0095FF"/>
</linearGradient>
<linearGradient id="paint1_linear_1_1373" x1="7.97203" y1="12.8783" x2="37.5606" y2="18.0893" gradientUnits="userSpaceOnUse">
<stop stop-color="white"/>
<stop offset="1" stop-color="#0095FF"/>
</linearGradient>
<linearGradient id="paint2_linear_1_1373" x1="15.935" y1="12.878" x2="38.4614" y2="15.8588" gradientUnits="userSpaceOnUse">
<stop stop-color="white"/>
<stop offset="1" stop-color="#0095FF"/>
</linearGradient>
</defs>
</svg>
