<svg width="136" height="38" viewBox="0 0 136 38" fill="none" xmlns="http://www.w3.org/2000/svg">
<path d="M55.5294 29.5215C53.8594 29.5215 52.3894 29.3747 51.1294 29.0811C49.8694 28.7875 48.6894 28.4205 47.6094 27.98V23.2179H48.1094C49.1994 24.0712 50.4094 24.7227 51.7294 25.1815C53.0494 25.6403 54.3294 25.8696 55.5694 25.8696C55.8794 25.8696 56.2994 25.8421 56.8094 25.7779C57.3194 25.7137 57.7394 25.6127 58.0494 25.4843C58.4294 25.3283 58.7494 25.1172 59.0194 24.842C59.2894 24.5667 59.4194 24.2089 59.4194 23.7593C59.4194 23.2546 59.2094 22.8509 58.7794 22.5389C58.3494 22.2269 57.8394 21.9975 57.2394 21.8507C56.4994 21.6672 55.6994 21.5021 54.8594 21.3369C54.0194 21.1717 53.2294 20.979 52.4894 20.7497C50.7994 20.1991 49.5894 19.4651 48.8594 18.5475C48.1294 17.63 47.7594 16.4646 47.7594 15.0791C47.7594 13.2073 48.6194 11.6933 50.3494 10.528C52.0794 9.36273 54.2394 8.78467 56.8194 8.78467C58.1194 8.78467 59.4094 8.90395 60.6894 9.15169C61.9694 9.39026 63.1194 9.72058 64.1394 10.1335V14.7029H63.6594C62.8494 14.0698 61.8594 13.5285 60.6894 13.088C59.5194 12.6476 58.3194 12.4274 57.0894 12.4274C56.6094 12.4274 56.1794 12.4549 55.7994 12.5191C55.4194 12.5834 55.0194 12.7027 54.5994 12.8862C54.2594 13.033 53.9594 13.244 53.7094 13.5285C53.4594 13.8129 53.3394 14.1249 53.3394 14.4735C53.3394 14.9874 53.5394 15.3911 53.9294 15.6939C54.3194 15.9967 55.0894 16.2628 56.2194 16.5105C56.9494 16.6665 57.6594 16.8133 58.3394 16.951C59.0194 17.0886 59.7394 17.2905 60.5194 17.5382C62.0294 18.0429 63.1594 18.7127 63.8994 19.5568C64.6394 20.401 65.0094 21.5204 65.0094 22.9059C65.0094 24.897 64.1594 26.4936 62.4494 27.7048C60.7394 28.9159 58.4294 29.5215 55.5294 29.5215Z" fill="white"/>
<path d="M75.5398 29.4481C73.4498 29.4481 71.9299 29.0535 70.9799 28.2644C70.0299 27.4753 69.5499 26.1816 69.5499 24.3923V17.3363H67.5898V14.0606H69.5499V9.74805H74.6798V14.0606H79.6199V17.3363H74.6798V22.6857C74.6798 23.2178 74.6798 23.6766 74.6898 24.0712C74.6999 24.4657 74.7798 24.8236 74.9198 25.1355C75.0598 25.4475 75.2998 25.6952 75.6498 25.8788C75.9998 26.0623 76.4998 26.154 77.1698 26.154C77.4398 26.154 77.7998 26.099 78.2498 25.9889C78.6998 25.8788 78.9998 25.787 79.1798 25.6952H79.6199V29.0168C79.0598 29.1545 78.4698 29.2554 77.8498 29.3288C77.2298 29.4022 76.4498 29.4481 75.5398 29.4481Z" fill="white"/>
<path d="M92.5322 27.558C92.1822 27.8241 91.8622 28.0718 91.5922 28.2828C91.3222 28.4939 90.9422 28.7141 90.4722 28.9251C90.0122 29.127 89.5622 29.2922 89.1322 29.3931C88.7022 29.494 88.0922 29.5582 87.3122 29.5582C85.8522 29.5582 84.6522 29.1086 83.6822 28.2186C82.7122 27.3286 82.2422 26.1908 82.2422 24.8328C82.2422 23.7134 82.4822 22.805 82.9722 22.1168C83.4622 21.4287 84.1622 20.8781 85.0822 20.4744C86.0122 20.0615 87.1222 19.7771 88.4122 19.6119C89.7022 19.4467 91.0922 19.3274 92.5722 19.2357V19.1531C92.5722 18.3181 92.2422 17.7401 91.5722 17.4281C90.9022 17.1161 89.9022 16.951 88.5622 16.951C87.9522 16.951 87.2522 17.0519 86.4422 17.2538C85.6322 17.4556 84.8422 17.7125 84.0722 18.0245H83.6322V14.3818C84.1422 14.2442 84.9622 14.0882 86.0922 13.9047C87.2222 13.7212 88.3722 13.6294 89.5222 13.6294C92.3522 13.6294 94.4222 14.0606 95.7122 14.9232C97.0022 15.7857 97.6522 17.107 97.6522 18.8778V29.1453H92.5522V27.558H92.5322ZM92.5322 25.2182V22.071C91.6622 22.1535 90.9622 22.2178 90.4222 22.282C89.8822 22.3462 89.3622 22.4563 88.8422 22.6215C88.3922 22.7683 88.0422 22.9793 87.7922 23.273C87.5422 23.5666 87.4222 23.952 87.4222 24.4383C87.4222 25.1448 87.6322 25.6311 88.0422 25.8972C88.4522 26.1633 89.0722 26.2917 89.8822 26.2917C90.3322 26.2917 90.7922 26.2 91.2622 26.0073C91.7322 25.8146 92.1522 25.5577 92.5322 25.2182Z" fill="white"/>
<path d="M110.217 29.5582C108.857 29.5582 107.618 29.4022 106.488 29.0902C105.358 28.7783 104.378 28.292 103.548 27.6405C102.728 26.989 102.087 26.1632 101.627 25.1723C101.167 24.1813 100.938 23.016 100.938 21.6672C100.938 20.2266 101.188 18.9971 101.688 17.9878C102.188 16.9784 102.858 16.1435 103.708 15.492C104.528 14.8681 105.488 14.4001 106.598 14.0973C107.708 13.7945 108.857 13.6477 110.057 13.6477C110.967 13.6477 111.877 13.7395 112.777 13.9321C113.677 14.1248 114.598 14.4276 115.518 14.8497V18.8778H114.857C114.647 18.6943 114.397 18.5016 114.107 18.2906C113.817 18.0795 113.487 17.8777 113.137 17.7033C112.767 17.5106 112.348 17.3546 111.878 17.2262C111.408 17.0977 110.887 17.0335 110.307 17.0335C108.997 17.0335 107.988 17.4556 107.268 18.2906C106.548 19.1255 106.188 20.2541 106.188 21.6672C106.188 23.1812 106.567 24.3098 107.337 25.053C108.107 25.7962 109.117 26.1724 110.387 26.1724C111.027 26.1724 111.597 26.1082 112.087 25.9705C112.577 25.8329 112.998 25.6769 113.348 25.4842C113.688 25.2915 113.977 25.0989 114.227 24.897C114.477 24.6951 114.677 24.5116 114.857 24.3556H115.518V28.3837C115.228 28.503 114.887 28.6315 114.497 28.7875C114.107 28.9434 113.718 29.0627 113.318 29.1637C112.818 29.2921 112.357 29.3839 111.917 29.4481C111.477 29.5123 110.927 29.5582 110.217 29.5582Z" fill="white"/>
<path d="M135.51 21.6123C135.51 24.0988 134.77 26.0532 133.29 27.4755C131.81 28.8977 129.72 29.6226 127.01 29.6226C124.32 29.6226 122.24 28.9069 120.75 27.4755C119.26 26.0441 118.52 24.0897 118.52 21.6123C118.52 19.1073 119.26 17.1346 120.75 15.7215C122.24 14.3085 124.33 13.5928 127.01 13.5928C129.71 13.5928 131.8 14.3085 133.28 15.7399C134.76 17.1713 135.51 19.1257 135.51 21.6123ZM130.25 21.6398C130.25 20.7406 130.17 19.9973 130.01 19.4009C129.85 18.8045 129.63 18.3274 129.34 17.9695C129.04 17.5933 128.7 17.3272 128.31 17.1804C127.92 17.0336 127.49 16.9602 127.01 16.9602C126.55 16.9602 126.14 17.0244 125.76 17.1529C125.38 17.2814 125.05 17.5291 124.73 17.8961C124.44 18.2448 124.2 18.7219 124.03 19.3367C123.86 19.9515 123.77 20.713 123.77 21.6306C123.77 22.5482 123.85 23.3006 124.02 23.8695C124.19 24.4383 124.4 24.8971 124.66 25.2366C124.93 25.5853 125.28 25.8422 125.69 25.9982C126.1 26.1542 126.55 26.2368 127.05 26.2368C127.46 26.2368 127.88 26.1542 128.3 25.9982C128.72 25.8422 129.06 25.5945 129.32 25.2733C129.62 24.8879 129.85 24.42 130.01 23.8786C130.17 23.3373 130.25 22.6032 130.25 21.6398Z" fill="white"/>
<path d="M32.1896 0.768893L4.2988 8.4285C-0.158585 9.65286 -1.48258 14.7917 1.91617 17.6787L23.1805 35.7416C26.5793 38.6286 32.1508 37.0984 33.2103 32.987L39.8359 7.26447C40.8945 3.15309 36.647 -0.455471 32.1896 0.768893Z" fill="url(#paint0_linear_3230_115)"/>
<path d="M32.1901 0.768893L18.2521 4.59702C7.59355 7.52426 4.4278 19.8123 12.5539 26.716L23.1801 35.7425C26.5788 38.6295 32.1503 37.0992 33.2099 32.9879L39.8363 7.26447C40.895 3.15309 36.6475 -0.455471 32.1901 0.768893Z" fill="url(#paint1_linear_3230_115)" fill-opacity="0.6"/>
<path d="M32.1913 0.768893C15.3381 5.39734 10.3324 24.8271 23.1813 35.7416C26.58 38.6286 32.1515 37.0984 33.2111 32.987L39.8375 7.26447C40.8962 3.15309 36.6487 -0.455471 32.1913 0.768893Z" fill="url(#paint2_linear_3230_115)" fill-opacity="0.6"/>
<defs>
<linearGradient id="paint0_linear_3230_115" x1="-0.000479111" y1="12.3429" x2="36.0288" y2="20.9799" gradientUnits="userSpaceOnUse">
<stop offset="0.369792" stop-color="#F7578C"/>
<stop offset="1" stop-color="#0555FF"/>
</linearGradient>
<linearGradient id="paint1_linear_3230_115" x1="7.97227" y1="12.3432" x2="37.3946" y2="17.9905" gradientUnits="userSpaceOnUse">
<stop stop-color="white"/>
<stop offset="1" stop-color="#0555FF"/>
</linearGradient>
<linearGradient id="paint2_linear_3230_115" x1="15.9372" y1="12.3429" x2="38.3911" y2="15.5812" gradientUnits="userSpaceOnUse">
<stop stop-color="white"/>
<stop offset="1" stop-color="#0555FF"/>
</linearGradient>
</defs>
</svg>
