<svg width="136" height="37" viewBox="0 0 136 37" fill="none" xmlns="http://www.w3.org/2000/svg">
<path d="M55.5294 28.9949C53.8594 28.9949 52.3894 28.8481 51.1294 28.5545C49.8694 28.2609 48.6894 27.8939 47.6094 27.4534V22.6913H48.1094C49.1994 23.5446 50.4094 24.1961 51.7294 24.6549C53.0494 25.1136 54.3294 25.343 55.5694 25.343C55.8794 25.343 56.2994 25.3155 56.8094 25.2513C57.3194 25.187 57.7394 25.0861 58.0494 24.9577C58.4294 24.8017 58.7494 24.5906 59.0194 24.3154C59.2894 24.0401 59.4194 23.6823 59.4194 23.2326C59.4194 22.728 59.2094 22.3243 58.7794 22.0123C58.3494 21.7003 57.8394 21.4709 57.2394 21.3241C56.4994 21.1406 55.6994 20.9754 54.8594 20.8103C54.0194 20.6451 53.2294 20.4524 52.4894 20.223C50.7994 19.6725 49.5894 18.9385 48.8594 18.0209C48.1294 17.1033 47.7594 15.938 47.7594 14.5525C47.7594 12.6807 48.6194 11.1667 50.3494 10.0014C52.0794 8.83612 54.2394 8.25806 56.8194 8.25806C58.1194 8.25806 59.4094 8.37734 60.6894 8.62508C61.9694 8.86365 63.1194 9.19397 64.1394 9.60687V14.1763H63.6594C62.8494 13.5432 61.8594 13.0018 60.6894 12.5614C59.5194 12.121 58.3194 11.9008 57.0894 11.9008C56.6094 11.9008 56.1794 11.9283 55.7994 11.9925C55.4194 12.0568 55.0194 12.176 54.5994 12.3596C54.2594 12.5064 53.9594 12.7174 53.7094 13.0018C53.4594 13.2863 53.3394 13.5983 53.3394 13.9469C53.3394 14.4608 53.5394 14.8645 53.9294 15.1673C54.3194 15.4701 55.0894 15.7362 56.2194 15.9839C56.9494 16.1399 57.6594 16.2867 58.3394 16.4243C59.0194 16.562 59.7394 16.7638 60.5194 17.0116C62.0294 17.5162 63.1594 18.1861 63.8994 19.0302C64.6394 19.8744 65.0094 20.9938 65.0094 22.3793C65.0094 24.3704 64.1594 25.967 62.4494 27.1782C60.7394 28.3893 58.4294 28.9949 55.5294 28.9949Z" fill="#111111"/>
<path d="M75.5398 28.9215C73.4498 28.9215 71.9299 28.5269 70.9799 27.7378C70.0299 26.9487 69.5499 25.6549 69.5499 23.8657V16.8097H67.5898V13.534H69.5499V9.22144H74.6798V13.534H79.6199V16.8097H74.6798V22.159C74.6798 22.6912 74.6798 23.15 74.6898 23.5446C74.6999 23.9391 74.7798 24.297 74.9198 24.6089C75.0598 24.9209 75.2998 25.1686 75.6498 25.3521C75.9998 25.5357 76.4998 25.6274 77.1698 25.6274C77.4398 25.6274 77.7998 25.5724 78.2498 25.4623C78.6998 25.3521 78.9998 25.2604 79.1798 25.1686H79.6199V28.4902C79.0598 28.6278 78.4698 28.7288 77.8498 28.8022C77.2298 28.8756 76.4498 28.9215 75.5398 28.9215Z" fill="#111111"/>
<path d="M92.5322 27.0314C92.1822 27.2974 91.8622 27.5452 91.5922 27.7562C91.3222 27.9673 90.9422 28.1875 90.4722 28.3985C90.0122 28.6004 89.5622 28.7655 89.1322 28.8665C88.7022 28.9674 88.0922 29.0316 87.3122 29.0316C85.8522 29.0316 84.6522 28.582 83.6822 27.692C82.7122 26.802 82.2422 25.6642 82.2422 24.3062C82.2422 23.1868 82.4822 22.2784 82.9722 21.5902C83.4622 20.902 84.1622 20.3515 85.0822 19.9478C86.0122 19.5349 87.1222 19.2504 88.4122 19.0853C89.7022 18.9201 91.0922 18.8008 92.5722 18.7091V18.6265C92.5722 17.7915 92.2422 17.2135 91.5722 16.9015C90.9022 16.5895 89.9022 16.4244 88.5622 16.4244C87.9522 16.4244 87.2522 16.5253 86.4422 16.7271C85.6322 16.929 84.8422 17.1859 84.0722 17.4979H83.6322V13.8552C84.1422 13.7175 84.9622 13.5616 86.0922 13.3781C87.2222 13.1945 88.3722 13.1028 89.5222 13.1028C92.3522 13.1028 94.4222 13.534 95.7122 14.3965C97.0022 15.2591 97.6522 16.5803 97.6522 18.3512V28.6187H92.5522V27.0314H92.5322ZM92.5322 24.6916V21.5443C91.6622 21.6269 90.9622 21.6912 90.4222 21.7554C89.8822 21.8196 89.3622 21.9297 88.8422 22.0949C88.3922 22.2417 88.0422 22.4527 87.7922 22.7463C87.5422 23.04 87.4222 23.4253 87.4222 23.9116C87.4222 24.6182 87.6322 25.1045 88.0422 25.3706C88.4522 25.6367 89.0722 25.7651 89.8822 25.7651C90.3322 25.7651 90.7922 25.6734 91.2622 25.4807C91.7322 25.288 92.1522 25.0311 92.5322 24.6916Z" fill="#111111"/>
<path d="M110.217 29.0316C108.857 29.0316 107.618 28.8756 106.488 28.5636C105.358 28.2517 104.378 27.7654 103.548 27.1139C102.728 26.4624 102.087 25.6366 101.627 24.6457C101.167 23.6547 100.938 22.4894 100.938 21.1406C100.938 19.7 101.188 18.4705 101.688 17.4612C102.188 16.4518 102.858 15.6169 103.708 14.9654C104.528 14.3414 105.488 13.8735 106.598 13.5707C107.708 13.2679 108.857 13.1211 110.057 13.1211C110.967 13.1211 111.877 13.2128 112.777 13.4055C113.677 13.5982 114.598 13.901 115.518 14.3231V18.3512H114.857C114.647 18.1677 114.397 17.975 114.107 17.7639C113.817 17.5529 113.487 17.351 113.137 17.1767C112.767 16.984 112.348 16.828 111.878 16.6996C111.408 16.5711 110.887 16.5069 110.307 16.5069C108.997 16.5069 107.988 16.929 107.268 17.7639C106.548 18.5989 106.188 19.7275 106.188 21.1406C106.188 22.6545 106.567 23.7831 107.337 24.5264C108.107 25.2696 109.117 25.6458 110.387 25.6458C111.027 25.6458 111.597 25.5816 112.087 25.4439C112.577 25.3063 112.998 25.1503 113.348 24.9576C113.688 24.7649 113.977 24.5723 114.227 24.3704C114.477 24.1685 114.677 23.985 114.857 23.829H115.518V27.8571C115.228 27.9764 114.887 28.1049 114.497 28.2608C114.107 28.4168 113.718 28.5361 113.318 28.637C112.818 28.7655 112.357 28.8573 111.917 28.9215C111.477 28.9857 110.927 29.0316 110.217 29.0316Z" fill="#111111"/>
<path d="M135.51 21.0856C135.51 23.5722 134.77 25.5266 133.29 26.9489C131.81 28.3711 129.72 29.0959 127.01 29.0959C124.32 29.0959 122.24 28.3802 120.75 26.9489C119.26 25.5175 118.52 23.5631 118.52 21.0856C118.52 18.5807 119.26 16.6079 120.75 15.1949C122.24 13.7819 124.33 13.0662 127.01 13.0662C129.71 13.0662 131.8 13.7819 133.28 15.2133C134.76 16.6446 135.51 18.5991 135.51 21.0856ZM130.25 21.1132C130.25 20.214 130.17 19.4707 130.01 18.8743C129.85 18.2779 129.63 17.8008 129.34 17.4429C129.04 17.0667 128.7 16.8006 128.31 16.6538C127.92 16.507 127.49 16.4336 127.01 16.4336C126.55 16.4336 126.14 16.4978 125.76 16.6263C125.38 16.7548 125.05 17.0025 124.73 17.3695C124.44 17.7182 124.2 18.1953 124.03 18.8101C123.86 19.4249 123.77 20.1864 123.77 21.104C123.77 22.0216 123.85 22.774 124.02 23.3428C124.19 23.9117 124.4 24.3705 124.66 24.71C124.93 25.0587 125.28 25.3156 125.69 25.4716C126.1 25.6276 126.55 25.7101 127.05 25.7101C127.46 25.7101 127.88 25.6276 128.3 25.4716C128.72 25.3156 129.06 25.0679 129.32 24.7467C129.62 24.3613 129.85 23.8934 130.01 23.352C130.17 22.8107 130.25 22.0766 130.25 21.1132Z" fill="#111111"/>
<path d="M32.1896 0.242281L4.2988 7.90189C-0.158585 9.12625 -1.48258 14.2651 1.91617 17.1521L23.1805 35.215C26.5793 38.102 32.1508 36.5718 33.2103 32.4604L39.8359 6.73786C40.8945 2.62648 36.647 -0.982083 32.1896 0.242281Z" fill="url(#paint0_linear_3596_86)"/>
<path d="M32.1901 0.242281L18.2521 4.07041C7.59355 6.99765 4.4278 19.2857 12.5539 26.1894L23.1801 35.2158C26.5788 38.1029 32.1503 36.5726 33.2099 32.4612L39.8363 6.73786C40.895 2.62648 36.6475 -0.982083 32.1901 0.242281Z" fill="url(#paint1_linear_3596_86)" fill-opacity="0.6"/>
<path d="M32.1913 0.242281C15.3381 4.87073 10.3324 24.3005 23.1813 35.215C26.58 38.102 32.1515 36.5718 33.2111 32.4604L39.8375 6.73786C40.8962 2.62648 36.6487 -0.982083 32.1913 0.242281Z" fill="url(#paint2_linear_3596_86)" fill-opacity="0.6"/>
<defs>
<linearGradient id="paint0_linear_3596_86" x1="-0.000479111" y1="11.8163" x2="36.0288" y2="20.4533" gradientUnits="userSpaceOnUse">
<stop offset="0.369792" stop-color="#F7578C"/>
<stop offset="1" stop-color="#0555FF"/>
</linearGradient>
<linearGradient id="paint1_linear_3596_86" x1="7.97227" y1="11.8166" x2="37.3946" y2="17.4639" gradientUnits="userSpaceOnUse">
<stop stop-color="white"/>
<stop offset="1" stop-color="#0555FF"/>
</linearGradient>
<linearGradient id="paint2_linear_3596_86" x1="15.9372" y1="11.8163" x2="38.3911" y2="15.0545" gradientUnits="userSpaceOnUse">
<stop stop-color="white"/>
<stop offset="1" stop-color="#0555FF"/>
</linearGradient>
</defs>
</svg>
