<svg width="150" height="50" viewBox="0 0 150 50" fill="none" xmlns="http://www.w3.org/2000/svg">
<path d="M69.5294 36.6C67.8594 36.6 66.3894 36.44 65.1294 36.12C63.8694 35.8 62.6894 35.4 61.6094 34.92V29.73H62.1094C63.1994 30.66 64.4094 31.37 65.7294 31.87C67.0494 32.37 68.3294 32.62 69.5694 32.62C69.8794 32.62 70.2994 32.59 70.8094 32.52C71.3194 32.45 71.7394 32.34 72.0494 32.2C72.4294 32.03 72.7494 31.8 73.0194 31.5C73.2894 31.2 73.4194 30.81 73.4194 30.32C73.4194 29.77 73.2094 29.33 72.7794 28.99C72.3494 28.65 71.8394 28.4 71.2394 28.24C70.4994 28.04 69.6994 27.86 68.8594 27.68C68.0194 27.5 67.2294 27.29 66.4894 27.04C64.7994 26.44 63.5894 25.64 62.8594 24.64C62.1294 23.64 61.7594 22.37 61.7594 20.86C61.7594 18.82 62.6194 17.17 64.3494 15.9C66.0794 14.63 68.2394 14 70.8194 14C72.1194 14 73.4094 14.13 74.6894 14.4C75.9694 14.66 77.1194 15.02 78.1394 15.47V20.45H77.6594C76.8494 19.76 75.8594 19.17 74.6894 18.69C73.5194 18.21 72.3194 17.97 71.0894 17.97C70.6094 17.97 70.1794 18 69.7994 18.07C69.4194 18.14 69.0194 18.27 68.5994 18.47C68.2594 18.63 67.9594 18.86 67.7094 19.17C67.4594 19.48 67.3394 19.82 67.3394 20.2C67.3394 20.76 67.5394 21.2 67.9294 21.53C68.3194 21.86 69.0894 22.15 70.2194 22.42C70.9494 22.59 71.6594 22.75 72.3394 22.9C73.0194 23.05 73.7394 23.27 74.5194 23.54C76.0294 24.09 77.1594 24.82 77.8994 25.74C78.6394 26.66 79.0094 27.88 79.0094 29.39C79.0094 31.56 78.1594 33.3 76.4494 34.62C74.7394 35.94 72.4294 36.6 69.5294 36.6Z" fill="#111111"/>
<path d="M89.5398 36.5198C87.4498 36.5198 85.9299 36.0898 84.9799 35.2298C84.0299 34.3698 83.5499 32.9598 83.5499 31.0098V23.3198H81.5898V19.7498H83.5499V15.0498H88.6798V19.7498H93.6199V23.3198H88.6798V29.1498C88.6798 29.7298 88.6798 30.2298 88.6898 30.6598C88.6998 31.0898 88.7798 31.4798 88.9198 31.8198C89.0598 32.1598 89.2998 32.4298 89.6498 32.6298C89.9998 32.8298 90.4998 32.9298 91.1698 32.9298C91.4398 32.9298 91.7998 32.8698 92.2498 32.7498C92.6998 32.6298 92.9998 32.5298 93.1798 32.4298H93.6199V36.0498C93.0599 36.1998 92.4698 36.3098 91.8498 36.3898C91.2298 36.4698 90.4498 36.5198 89.5398 36.5198Z" fill="#111111"/>
<path d="M106.532 34.4603C106.182 34.7503 105.862 35.0203 105.592 35.2503C105.322 35.4803 104.942 35.7203 104.472 35.9503C104.012 36.1703 103.562 36.3503 103.132 36.4603C102.702 36.5703 102.092 36.6403 101.312 36.6403C99.8522 36.6403 98.6522 36.1503 97.6822 35.1803C96.7122 34.2103 96.2422 32.9703 96.2422 31.4903C96.2422 30.2703 96.4822 29.2803 96.9722 28.5303C97.4622 27.7803 98.1622 27.1803 99.0822 26.7403C100.012 26.2903 101.122 25.9803 102.412 25.8003C103.702 25.6203 105.092 25.4903 106.572 25.3903V25.3003C106.572 24.3903 106.242 23.7603 105.572 23.4203C104.902 23.0803 103.902 22.9003 102.562 22.9003C101.952 22.9003 101.252 23.0103 100.442 23.2303C99.6322 23.4503 98.8422 23.7303 98.0722 24.0703H97.6322V20.1003C98.1422 19.9503 98.9622 19.7803 100.092 19.5803C101.222 19.3803 102.372 19.2803 103.522 19.2803C106.352 19.2803 108.422 19.7503 109.712 20.6903C111.002 21.6303 111.652 23.0703 111.652 25.0003V36.1903H106.552V34.4603H106.532ZM106.532 31.9103V28.4803C105.662 28.5703 104.962 28.6403 104.422 28.7103C103.882 28.7803 103.362 28.9003 102.842 29.0803C102.392 29.2403 102.042 29.4703 101.792 29.7903C101.542 30.1103 101.422 30.5303 101.422 31.0603C101.422 31.8303 101.632 32.3603 102.042 32.6503C102.452 32.9403 103.072 33.0803 103.882 33.0803C104.332 33.0803 104.792 32.9803 105.262 32.7703C105.732 32.5603 106.152 32.2803 106.532 31.9103Z" fill="#111111"/>
<path d="M124.217 36.6398C122.857 36.6398 121.618 36.4698 120.488 36.1298C119.358 35.7898 118.378 35.2598 117.548 34.5498C116.728 33.8398 116.087 32.9398 115.627 31.8598C115.167 30.7798 114.938 29.5098 114.938 28.0398C114.938 26.4698 115.188 25.1298 115.688 24.0298C116.188 22.9298 116.858 22.0198 117.708 21.3098C118.528 20.6298 119.488 20.1198 120.598 19.7898C121.708 19.4598 122.857 19.2998 124.057 19.2998C124.967 19.2998 125.877 19.3998 126.777 19.6098C127.677 19.8198 128.598 20.1498 129.518 20.6098V24.9998H128.857C128.647 24.7998 128.397 24.5898 128.107 24.3598C127.817 24.1298 127.487 23.9098 127.137 23.7198C126.767 23.5098 126.348 23.3398 125.878 23.1998C125.408 23.0598 124.887 22.9898 124.307 22.9898C122.997 22.9898 121.988 23.4498 121.268 24.3598C120.548 25.2698 120.188 26.4998 120.188 28.0398C120.188 29.6898 120.567 30.9198 121.337 31.7298C122.107 32.5398 123.117 32.9498 124.387 32.9498C125.027 32.9498 125.597 32.8798 126.087 32.7298C126.577 32.5798 126.998 32.4098 127.348 32.1998C127.688 31.9898 127.977 31.7798 128.227 31.5598C128.477 31.3398 128.677 31.1398 128.857 30.9698H129.518V35.3598C129.228 35.4898 128.887 35.6298 128.497 35.7998C128.107 35.9698 127.718 36.0998 127.318 36.2098C126.818 36.3498 126.357 36.4498 125.917 36.5198C125.477 36.5898 124.927 36.6398 124.217 36.6398Z" fill="#111111"/>
<path d="M149.51 27.9802C149.51 30.6902 148.77 32.8202 147.29 34.3702C145.81 35.9202 143.72 36.7102 141.01 36.7102C138.32 36.7102 136.24 35.9302 134.75 34.3702C133.26 32.8102 132.52 30.6802 132.52 27.9802C132.52 25.2502 133.26 23.1002 134.75 21.5602C136.24 20.0202 138.33 19.2402 141.01 19.2402C143.71 19.2402 145.8 20.0202 147.28 21.5802C148.76 23.1402 149.51 25.2702 149.51 27.9802ZM144.25 28.0102C144.25 27.0302 144.17 26.2202 144.01 25.5702C143.85 24.9202 143.63 24.4002 143.34 24.0102C143.04 23.6002 142.7 23.3102 142.31 23.1502C141.92 22.9902 141.49 22.9102 141.01 22.9102C140.55 22.9102 140.14 22.9802 139.76 23.1202C139.38 23.2602 139.05 23.5302 138.73 23.9302C138.44 24.3102 138.2 24.8302 138.03 25.5002C137.86 26.1702 137.77 27.0002 137.77 28.0002C137.77 29.0002 137.85 29.8202 138.02 30.4402C138.19 31.0602 138.4 31.5602 138.66 31.9302C138.93 32.3102 139.28 32.5902 139.69 32.7602C140.1 32.9302 140.55 33.0202 141.05 33.0202C141.46 33.0202 141.88 32.9302 142.3 32.7602C142.72 32.5902 143.06 32.3202 143.32 31.9702C143.62 31.5502 143.85 31.0402 144.01 30.4502C144.17 29.8602 144.25 29.0602 144.25 28.0102Z" fill="#111111"/>
<rect width="50" height="50" rx="25" fill="url(#paint0_linear_295_4817)"/>
<path d="M29.6351 0.401929C28.7439 0.221061 27.8424 0.0803859 26.9205 0C16.2976 1.24598 8 11.9574 8 25C8 38.0426 16.2976 48.754 26.9205 50C27.8424 49.9096 28.7439 49.7789 29.6351 49.5981C41.262 47.2166 50 37.1081 50 25C50 12.8919 41.262 2.78336 29.6351 0.401929Z" fill="#44C486" fill-opacity="0.8"/>
<path d="M30.12 0.530273C22.63 2.89027 17 12.9503 17 25.0003C17 37.0503 22.63 47.1103 30.12 49.4703C41.47 47.1103 50 37.0503 50 25.0003C50 12.9503 41.47 2.89027 30.12 0.530273Z" fill="url(#paint1_linear_295_4817)" fill-opacity="0.6"/>
<defs>
<linearGradient id="paint0_linear_295_4817" x1="1.86265e-07" y1="25" x2="50" y2="25" gradientUnits="userSpaceOnUse">
<stop stop-color="#4BFABB"/>
<stop offset="1" stop-color="#79FA4B"/>
</linearGradient>
<linearGradient id="paint1_linear_295_4817" x1="16.9996" y1="16.2867" x2="47.7556" y2="20.8483" gradientUnits="userSpaceOnUse">
<stop stop-color="white"/>
<stop offset="1" stop-color="#5ECC62"/>
</linearGradient>
</defs>
</svg>
