<svg width="60" height="60" viewBox="0 0 60 60" fill="none" xmlns="http://www.w3.org/2000/svg">
<circle cx="30" cy="30" r="30" fill="#E84142"/>
<path fill-rule="evenodd" clip-rule="evenodd" d="M31.7921 8.90505C30.7527 7.10977 29.0992 7.10977 28.0598 8.90505L9.18578 42.1413C8.14641 43.9602 8.99681 45.4011 11.0755 45.4011H20.548C22.4614 45.283 24.1858 44.2673 25.2252 42.661L36.6346 22.8893C37.4614 21.1885 37.4614 19.1806 36.6346 17.4799L33.233 11.5035L31.7921 8.90505ZM44.338 30.7804C43.2986 28.9852 41.6215 28.9852 40.5821 30.7804L33.9916 42.1426C32.9758 43.9379 33.8262 45.4025 35.8813 45.4025H48.9207C50.9994 45.4025 51.8498 43.9379 50.8105 42.1426L44.338 30.7804Z" fill="white"/>
</svg>
