<svg width="60" height="60" viewBox="0 0 60 60" fill="none" xmlns="http://www.w3.org/2000/svg">
<path d="M59.0957 37.2571C55.089 53.3287 38.8111 63.1096 22.7376 59.1018C6.67083 55.0951 -3.11002 38.8162 0.898456 22.7459C4.90341 6.67257 21.1813 -3.10901 37.2498 0.897703C53.3222 4.90442 63.1024 21.1851 59.0953 37.2574L59.0956 37.2571H59.0957Z" fill="#F3BA2F"/>
<path fill-rule="evenodd" clip-rule="evenodd" d="M29.9989 19.041L22.2306 26.8093L22.2308 26.809L17.7109 22.289L29.9989 10.001L42.2909 22.2927L37.7709 26.8127L29.9989 19.041ZM14.5202 25.4791L10 29.9999L14.5198 34.5191L19.04 29.9989L14.5202 25.4791ZM22.2291 33.1925L29.9974 40.9604L37.7693 33.1889L42.2917 37.7065L42.2894 37.7089L29.9974 50.0004L17.7094 37.7124L17.703 37.706L22.2291 33.1925ZM45.4811 25.4838L40.9609 30.0039L45.4809 34.5238L50.0009 30.0036L45.4811 25.4838Z" fill="white"/>
<path d="M34.5795 29.9967H34.5815L29.9952 25.4102L26.6053 28.7991L26.2158 29.1887L25.4126 29.9921L25.4062 29.9983L25.4126 30.0049L29.9952 34.5881L34.5818 30.0015L34.584 29.999L34.5799 29.9967" fill="white"/>
</svg>
