<svg width="60" height="60" viewBox="0 0 60 60" fill="none" xmlns="http://www.w3.org/2000/svg">
<path d="M59.0957 37.2571C55.089 53.3287 38.8111 63.1096 22.7376 59.1018C6.67083 55.0951 -3.11002 38.8162 0.898456 22.7459C4.90341 6.67257 21.1813 -3.10901 37.2498 0.897703C53.3222 4.90442 63.1024 21.1851 59.0953 37.2574L59.0956 37.2571H59.0957Z" fill="#F7931A"/>
<path fill-rule="evenodd" clip-rule="evenodd" d="M43.2217 25.7263C43.8189 21.734 40.7794 19.5879 36.6231 18.1563L37.9714 12.7483L34.6794 11.9281L33.3668 17.1937C32.5014 16.9778 31.6126 16.7744 30.7293 16.5728L32.0514 11.2724L28.7614 10.4521L27.4123 15.8584C26.6962 15.6953 25.9927 15.5342 25.3103 15.3644L25.3141 15.3473L20.7744 14.2137L19.8986 17.7298C19.8986 17.7298 22.341 18.2896 22.2896 18.3241C23.6226 18.6568 23.8637 19.5393 23.8237 20.2387L22.2878 26.3997C22.3796 26.423 22.4987 26.4567 22.6301 26.5095L22.5346 26.4857L22.5345 26.4857C22.4532 26.4653 22.3688 26.4442 22.2821 26.4234L20.1293 35.0541C19.9664 35.4591 19.5529 36.0669 18.6208 35.8361C18.6538 35.8839 16.2282 35.239 16.2282 35.239L14.5938 39.0073L18.8778 40.0752C19.3469 40.1929 19.8104 40.3137 20.2693 40.4333L20.2702 40.4336C20.5906 40.5171 20.9087 40.6 21.2248 40.6808L19.8626 46.1508L23.1508 46.9711L24.4998 41.5592C25.3981 41.803 26.2699 42.028 27.1233 42.24L25.7788 47.6265L29.071 48.4467L30.4331 42.987C36.0466 44.0494 40.2676 43.6211 42.0442 38.5436C43.4759 34.4556 41.973 32.0977 39.0197 30.5601C41.1707 30.064 42.7909 28.6492 43.2229 25.7268L43.2219 25.726L43.2217 25.7263ZM35.702 36.2732C34.7686 40.0238 28.8979 38.4732 26.2119 37.7638C25.9702 37.7 25.7544 37.6429 25.5702 37.5972L27.378 30.3504C27.6024 30.4064 27.8767 30.468 28.1874 30.5377C30.9658 31.1612 36.6583 32.4387 35.7021 36.2732H35.702ZM28.7432 27.1735C30.9825 27.7712 35.8677 29.0749 36.7185 25.6661H36.7188C37.5875 22.1798 32.84 21.1287 30.5213 20.6153C30.2604 20.5576 30.0303 20.5066 29.8424 20.4598L28.2034 27.0322C28.3582 27.0708 28.5397 27.1192 28.7432 27.1735Z" fill="white"/>
</svg>
