<svg width="60" height="60" viewBox="0 0 60 60" fill="none" xmlns="http://www.w3.org/2000/svg">
<circle cx="30" cy="30" r="30" fill="#EDF0F4"/>
<path d="M20.9654 29.8491C20.8801 31.3317 22.0214 32.601 23.504 32.6863C23.5573 32.6863 23.6106 32.6863 23.664 32.6863C25.1572 32.6863 26.3625 31.481 26.3519 29.9878C26.3519 28.4945 25.1466 27.2892 23.6533 27.2999C22.224 27.2999 21.0401 28.4198 20.9654 29.8491Z" fill="#0033AD"/>
<path d="M10.9182 29.1543C10.4382 29.1223 10.0222 29.4956 10.0009 29.9756C9.97956 30.4555 10.3422 30.8715 10.8222 30.8928C11.3022 30.9248 11.7075 30.5515 11.7395 30.0715C11.7715 29.5916 11.3982 29.1863 10.9182 29.1543Z" fill="#0033AD"/>
<path d="M20.7964 14.2126C21.223 13.9993 21.3937 13.4659 21.1804 13.0393C20.967 12.6127 20.4337 12.442 20.0071 12.6553C19.5804 12.8686 19.4098 13.3913 19.6231 13.8179C19.8364 14.2552 20.3591 14.4366 20.7964 14.2126C20.7964 14.2126 20.7857 14.2126 20.7964 14.2126Z" fill="#0033AD"/>
<path d="M23.5226 18.9793C24.1839 18.6487 24.4506 17.838 24.1199 17.1767C23.7893 16.5154 22.9786 16.2488 22.3173 16.5794C21.656 16.9101 21.3894 17.7207 21.72 18.382C22.0507 19.0433 22.8613 19.31 23.5226 18.9793Z" fill="#0033AD"/>
<path d="M14.332 22.2548C14.844 22.5855 15.5266 22.4468 15.8679 21.9348C16.1986 21.4228 16.0599 20.7402 15.5479 20.3989C15.0359 20.0682 14.3533 20.2069 14.012 20.7189C13.6707 21.2308 13.82 21.9242 14.332 22.2548Z" fill="#0033AD"/>
<path d="M15.9677 28.6741C15.2211 28.6315 14.5918 29.1968 14.5491 29.9434C14.5065 30.69 15.0718 31.3194 15.8184 31.362C16.565 31.4047 17.1944 30.8394 17.237 30.0927C17.2797 29.3568 16.7144 28.7168 15.9677 28.6741Z" fill="#0033AD"/>
<path d="M14.4849 37.7091C13.9409 37.9864 13.7169 38.6477 13.9942 39.2023C14.2715 39.7463 14.9328 39.9703 15.4875 39.693C16.0315 39.4157 16.2554 38.7543 15.9781 38.1997C15.7008 37.6557 15.0288 37.4317 14.4849 37.7091Z" fill="#0033AD"/>
<path d="M19.703 25.8906C20.439 26.3706 21.4203 26.1679 21.8896 25.4319C22.3696 24.696 22.1669 23.7147 21.431 23.2454C20.695 22.7654 19.7137 22.968 19.2444 23.704C18.7644 24.4293 18.9671 25.4106 19.703 25.8906Z" fill="#0033AD"/>
<path d="M36.291 18.8728C36.9096 19.2781 37.7522 19.1074 38.1575 18.4888C38.5629 17.8701 38.3922 17.0275 37.7736 16.6222C37.1549 16.2169 36.3123 16.3875 35.907 17.0062C35.491 17.6355 35.6617 18.4674 36.291 18.8728Z" fill="#0033AD"/>
<path d="M39.048 14.1255C39.4534 14.3921 39.9867 14.2748 40.2533 13.8695C40.52 13.4642 40.4026 12.9309 39.9973 12.6642C39.592 12.3976 39.0587 12.5149 38.7921 12.9095C38.5361 13.3149 38.6534 13.8588 39.048 14.1255Z" fill="#0033AD"/>
<path d="M36.4979 27.276C35.0153 27.1906 33.7354 28.3319 33.6607 29.8145C33.5754 31.2971 34.7167 32.5771 36.1993 32.6517C36.2526 32.6517 36.306 32.6517 36.3486 32.6517C37.8312 32.6517 39.0365 31.4465 39.0365 29.9532C39.0472 28.5346 37.9272 27.3506 36.4979 27.276Z" fill="#0033AD"/>
<path d="M24.4154 25.6982C24.8741 26.6048 25.802 27.1808 26.826 27.1808C28.3086 27.1808 29.5139 25.9755 29.5139 24.4822C29.5139 24.0663 29.4179 23.6503 29.2259 23.2663C28.5539 21.933 26.9327 21.3997 25.6101 22.0717C24.2768 22.7543 23.7435 24.3756 24.4154 25.6982Z" fill="#0033AD"/>
<path d="M45.5169 22.2529C46.0609 21.9756 46.2742 21.3036 45.9969 20.7596C45.7196 20.2157 45.0476 20.0023 44.5036 20.2796C43.9596 20.557 43.7463 21.2183 44.013 21.7623C44.301 22.3062 44.9623 22.5302 45.5169 22.2529Z" fill="#0033AD"/>
<path d="M38.6936 23.106C37.9149 23.5007 37.595 24.45 37.9896 25.2286C38.3843 26.0072 39.3335 26.3272 40.1122 25.9326C40.8908 25.5379 41.2108 24.5886 40.8161 23.81C40.4215 23.0314 39.4722 22.722 38.6936 23.106Z" fill="#0033AD"/>
<path d="M29.8906 13.7211C30.4986 13.7531 31.0212 13.2838 31.0639 12.6758C31.1065 12.0679 30.6265 11.5452 30.0186 11.5026C29.4106 11.4706 28.888 11.9292 28.8453 12.5372C28.8133 13.1558 29.2826 13.6785 29.8906 13.7211Z" fill="#0033AD"/>
<path d="M29.8858 20.6865C30.7605 20.7399 31.5071 20.0679 31.5498 19.1933C31.6031 18.3186 30.9311 17.572 30.0565 17.5293C29.1819 17.476 28.4352 18.148 28.3926 19.0226C28.3499 19.8972 29.0112 20.6439 29.8858 20.6865Z" fill="#0033AD"/>
<path d="M21.3075 36.8562C22.0861 36.4615 22.4061 35.5122 22.0115 34.7336C21.6168 33.955 20.6675 33.635 19.8889 34.0296C19.1103 34.4243 18.7903 35.3736 19.1849 36.1522C19.5796 36.9308 20.5289 37.2508 21.3075 36.8562Z" fill="#0033AD"/>
<path d="M30.9079 23.0001C30.0973 24.2481 30.4386 25.912 31.6866 26.7226C32.9345 27.5333 34.5984 27.1919 35.4091 25.944C36.2197 24.696 35.8784 23.0321 34.6304 22.2215C34.1931 21.9335 33.6811 21.7842 33.1585 21.7842C32.2519 21.7842 31.4092 22.2428 30.9079 23.0001Z" fill="#0033AD"/>
<path d="M35.5853 34.2634C34.9133 32.9301 33.292 32.3968 31.9694 33.0688C30.6362 33.7407 30.1028 35.362 30.7748 36.6846C31.4468 38.0179 33.068 38.5512 34.3907 37.8792C35.7133 37.2179 36.2572 35.618 35.5959 34.2847C35.5959 34.274 35.5959 34.274 35.5853 34.2634Z" fill="#0033AD"/>
<path d="M40.2903 34.0706C39.5544 33.5906 38.5731 33.7932 38.1038 34.5292C37.6238 35.2652 37.8264 36.2465 38.5624 36.7158C39.2984 37.1957 40.2797 36.9931 40.749 36.2571C41.229 35.5318 41.0263 34.5505 40.2903 34.0706Z" fill="#0033AD"/>
<path d="M45.4558 30.0283C45.4984 29.2817 44.9331 28.6524 44.1865 28.6097C43.4399 28.567 42.8106 29.1323 42.7679 29.879C42.7252 30.6256 43.2905 31.2549 44.0372 31.2976C44.7731 31.3402 45.4131 30.7643 45.4558 30.0283Z" fill="#0033AD"/>
<path d="M49.176 29.0693C48.696 29.0373 48.28 29.4106 48.2587 29.8906C48.2374 30.3706 48.6 30.7866 49.08 30.8079C49.56 30.8399 49.9653 30.4666 49.9973 29.9866C50.0186 29.5066 49.656 29.1013 49.176 29.0693Z" fill="#0033AD"/>
<path d="M45.6682 37.7094C45.1562 37.3788 44.4736 37.5174 44.1323 38.0294C43.8016 38.5414 43.9403 39.224 44.4523 39.5654C44.9642 39.896 45.6469 39.7573 45.9882 39.2454C46.3295 38.7334 46.1802 38.0401 45.6682 37.7094Z" fill="#0033AD"/>
<path d="M20.9427 45.8361C20.5374 45.5694 20.0041 45.6868 19.7375 46.0814C19.4708 46.4867 19.5881 47.02 19.9828 47.2867C20.3881 47.5533 20.9214 47.436 21.1881 47.0414C21.4654 46.6467 21.3481 46.1027 20.9427 45.8361Z" fill="#0033AD"/>
<path d="M39.2024 45.7515C38.7757 45.9649 38.6051 46.4982 38.8184 46.9248C39.0317 47.3515 39.565 47.5221 39.9917 47.3088C40.4183 47.0955 40.589 46.5728 40.3757 46.1462C40.1623 45.7089 39.6397 45.5275 39.2024 45.7515C39.2131 45.7515 39.2024 45.7515 39.2024 45.7515Z" fill="#0033AD"/>
<path d="M29.0963 36.9624C29.9069 35.7144 29.5656 34.0505 28.3177 33.2292C27.0697 32.4186 25.4058 32.7599 24.5845 34.0078C23.7632 35.2558 24.1152 36.9197 25.3631 37.741C25.8004 38.029 26.3124 38.1783 26.8351 38.1783C27.7524 38.189 28.595 37.7303 29.0963 36.9624Z" fill="#0033AD"/>
<path d="M23.7114 41.09C23.0928 40.6846 22.2502 40.8553 21.8448 41.4739C21.4395 42.0926 21.6102 42.9352 22.2288 43.3405C22.8475 43.7458 23.6901 43.5752 24.0954 42.9565C24.5114 42.3379 24.3407 41.4953 23.7114 41.09Z" fill="#0033AD"/>
<path d="M29.9884 46.2428C29.3804 46.2108 28.8578 46.6801 28.8151 47.288C28.7725 47.896 29.2525 48.4187 29.8604 48.4613C30.4684 48.4933 30.991 48.0347 31.0337 47.4267C31.0657 46.8081 30.5964 46.2854 29.9884 46.2428Z" fill="#0033AD"/>
<path d="M30.0028 39.2774C29.1282 39.2241 28.3816 39.896 28.3389 40.7706C28.2856 41.6453 28.9575 42.3919 29.8322 42.4346C30.7068 42.4772 31.4534 41.8159 31.4961 40.9413C31.5494 40.0773 30.8775 39.32 30.0028 39.2774Z" fill="#0033AD"/>
<path d="M36.4698 40.9825C35.8085 41.3238 35.5419 42.1345 35.8832 42.7958C36.2245 43.4571 37.0351 43.7237 37.6964 43.3824C38.3577 43.0518 38.6244 42.2411 38.2938 41.5798C37.9524 40.9185 37.1418 40.6412 36.4698 40.9825Z" fill="#0033AD"/>
</svg>
