<svg width="60" height="60" viewBox="0 0 60 60" fill="none" xmlns="http://www.w3.org/2000/svg">
<path d="M30 0C46.5701 0 60 13.4326 60 30C60 46.5701 46.5701 60 30 60C13.4326 60 0 46.5687 0 30C0 13.4326 13.4326 0 30 0Z" fill="#F5AC37"/>
<path fill-rule="evenodd" clip-rule="evenodd" d="M15.7185 46.536V46.648L15.7131 46.6521V46.671H28.7259C30.1987 46.6912 31.6662 46.5738 33.1134 46.3146C34.6376 46.0162 36.1226 45.5464 37.5388 44.9092C38.1528 44.6248 38.742 44.2811 39.3363 43.9343C39.4868 43.8465 39.6376 43.7585 39.7892 43.6712C40.4885 43.1731 41.1581 42.6331 41.7954 42.0593C43.5396 40.4825 44.8896 38.5155 45.7333 36.3218C45.7901 36.0761 46.0303 35.9181 46.2774 35.9654H49.8212C50.1033 35.9654 50.1965 35.8709 50.1965 35.5522V33.2829C50.2154 33.0655 50.2154 32.8455 50.1965 32.6281C50.1965 32.5713 50.2111 32.5147 50.2257 32.4581C50.2547 32.3453 50.2837 32.2329 50.1965 32.1205H47.2359C46.8782 32.1205 46.8782 32.0827 46.8782 31.7641C46.9808 30.622 46.9808 29.4758 46.8782 28.3337C46.8593 27.9962 46.9349 27.9962 47.1968 27.9962H49.7847C50.0858 27.9962 50.1978 27.9206 50.1978 27.6209V24.5456C50.1885 24.3419 50.1838 24.2386 50.1298 24.1863C50.0742 24.1325 49.9666 24.1325 49.7483 24.1325H46.3922C46.1303 24.177 45.8791 24.0002 45.8319 23.7383C45.4471 22.7325 44.9571 21.77 44.3671 20.8695C43.7731 19.9812 43.1035 19.1469 42.361 18.376C41.3742 17.3905 40.2658 16.5346 39.0616 15.8259C37.2458 14.7715 35.2599 14.033 33.1931 13.651C32.19 13.466 31.1762 13.354 30.1555 13.3135H16.0938C15.7185 13.3135 15.7185 13.3891 15.7185 13.6888V23.795C15.7185 24.1514 15.6429 24.1514 15.3621 24.1514H11.331C11.0312 24.1514 11.0312 24.2067 11.0312 24.4133V27.7127C11.0312 28.0124 11.1244 28.0124 11.3499 28.0124H15.4188C15.7185 28.0124 15.7185 28.0678 15.7185 28.2932V31.8181C15.7185 32.1367 15.624 32.1367 15.381 32.1367H11.0312V35.6994C11.0312 35.9991 11.1244 35.9991 11.3499 35.9991H15.4188C15.7185 35.9991 15.7185 36.0356 15.7185 36.2799V40.6863V42.1673V46.536ZM41.6127 23.8298C41.6451 23.9135 41.6451 24.0067 41.6127 24.0917H41.7032C41.6654 24.2038 41.4777 24.2416 41.4777 24.2416H19.8411C19.4847 24.2416 19.4847 24.166 19.4847 23.8852V17.2296C19.4847 16.9853 19.5225 16.8732 19.8033 16.8732H29.8717C30.9436 16.8638 32.0128 16.9758 33.0591 17.2107C35.1327 17.7021 37.0618 18.6795 38.6846 20.0606C39.0086 20.3022 39.2975 20.5871 39.5472 20.9043C40.0764 21.4295 40.5408 22.0141 40.935 22.6486C41.1969 23.0198 41.4224 23.4154 41.6127 23.8298ZM42.5091 32.1157H31.1096H19.9342C19.7062 32.1157 19.5939 32.1157 19.5385 32.0595C19.4847 32.0049 19.4847 31.8973 19.4847 31.685V28.3478C19.4847 28.0846 19.5603 27.9914 19.8411 27.9914H42.528C42.7724 27.9914 42.8845 28.0846 42.8845 28.31C42.9776 29.471 42.9776 30.6374 42.8845 31.7971C42.8669 32.1157 42.7522 32.1157 42.5091 32.1157ZM41.6114 36.0181C41.2928 35.983 40.9715 35.983 40.6529 36.0181H19.86C19.5792 36.0181 19.4847 36.0181 19.4847 36.3934V42.9005C19.4847 43.2002 19.4847 43.2758 19.86 43.2758H29.4599C29.9189 43.3109 30.3779 43.2785 30.8275 43.1826C32.2207 43.0827 33.591 42.7803 34.8978 42.2822C35.373 42.1175 35.832 41.9028 36.2653 41.645H36.3963C38.6468 40.4745 40.4747 38.6358 41.6276 36.3786C41.6276 36.3786 41.7585 36.0951 41.6114 36.0208V36.0181Z" fill="#FEFEFD"/>
</svg>
