<svg width="60" height="60" viewBox="0 0 60 60" fill="none" xmlns="http://www.w3.org/2000/svg">
<circle cx="30" cy="30" r="30" fill="#7866D5"/>
<path d="M42.1411 15.4007C43.1566 15.5277 44.2144 15.6123 45.2299 15.7815C47.2187 16.1623 47.8957 17.1779 47.5572 19.2089C47.4725 19.9705 46.8802 20.5629 46.1185 20.6899C45.6531 20.7745 45.1453 20.8168 44.6799 20.7745C38.079 20.7745 31.5205 20.8168 24.9196 20.8168C23.9464 20.8168 22.9309 20.9014 21.9577 21.0707C18.6996 21.5784 17.4302 22.9324 17.1763 26.2329C17.0494 27.7561 17.0494 27.7561 18.615 27.7561H44.8491C45.103 27.7561 45.3569 27.7561 45.6108 27.7561C46.0339 27.7561 46.4147 27.8831 46.7955 28.0946C47.9803 28.8563 47.6841 30.0834 47.6418 31.1835C47.5995 32.0721 47.0494 32.5798 46.1185 32.7491C45.7377 32.8337 45.3569 32.8337 44.9338 32.8337C35.9634 32.8337 26.993 32.8337 18.0226 32.8337C17.0494 32.8337 17.0494 32.8337 17.134 33.8069C17.1763 34.6955 17.261 35.5841 17.4725 36.4726C17.8957 38.0805 18.8689 39.0961 20.5191 39.5615C22.2962 40.0693 24.158 40.1539 25.9775 40.1962C32.3668 40.1962 38.7984 40.1962 45.2299 40.1962C46.0339 40.1962 46.7955 40.2808 47.3033 41.0425C48.1072 42.3119 47.6841 43.9621 46.4147 44.766C46.2455 44.893 46.0762 44.9776 45.8646 45.0199C44.4683 45.4853 43.0297 45.57 41.5487 45.6123C35.4979 45.7392 29.4895 45.7392 23.481 45.6123C21.6192 45.57 19.7574 45.3584 17.938 44.9776C13.6644 44.089 11.5064 41.8887 10.7871 37.5728C10.6178 36.5996 10.5332 35.5841 10.4062 34.5686V26.6983C10.4909 25.9367 10.5755 25.1327 10.6601 24.3711C11.2102 19.5051 13.4105 17.0932 18.1919 15.9931C19.8844 15.6123 21.6615 15.5277 23.3541 15.3584L42.1411 15.4007Z" fill="white"/>
<path fill-rule="evenodd" clip-rule="evenodd" d="M23.4347 46.3738C26.4389 46.4161 29.4432 46.4585 32.4897 46.4585C34.0183 46.4585 35.5469 46.4478 37.0702 46.4372C38.5828 46.4266 40.0902 46.4161 41.587 46.4161C42.941 46.3738 44.5489 46.2892 46.1145 45.7814C46.3684 45.6968 46.6223 45.5699 46.8339 45.4429C47.6378 44.9352 48.1879 44.1735 48.3994 43.285C48.611 42.3964 48.4841 41.4655 47.9763 40.6616C47.2147 39.4345 45.903 39.4345 45.2683 39.4345H41.037C36.0863 39.4345 31.0087 39.4345 26.0158 39.3922C24.4079 39.3922 22.5461 39.3075 20.7267 38.7998C19.3726 38.419 18.5687 37.615 18.2302 36.3033C18.0186 35.457 17.934 34.6108 17.8917 33.7222V33.6799V33.553H18.0609H44.9298C45.3529 33.553 45.776 33.553 46.2415 33.4683C47.5532 33.2145 48.2725 32.4105 48.3571 31.2257C48.3571 31.1623 48.3677 31.0882 48.3783 31.0142C48.3889 30.9401 48.3994 30.8661 48.3994 30.8026L48.4012 30.7816C48.4857 29.7679 48.6011 28.3844 47.1724 27.4599C46.7069 27.206 46.1568 27.0367 45.6068 27.0367H18.611H17.8917C17.8917 26.9358 17.9013 26.8252 17.9114 26.7095C17.9224 26.5829 17.934 26.4501 17.934 26.3174C18.1879 23.3555 19.1611 22.2977 22.0807 21.8322C23.0116 21.663 23.9848 21.5783 24.9157 21.5783C31.4742 21.5783 38.075 21.536 44.6336 21.4937C45.1836 21.4937 45.6914 21.4514 46.1992 21.3668C47.3416 21.1975 48.1879 20.3089 48.3148 19.2511C48.7379 16.797 47.8071 15.4429 45.3952 14.9775C44.829 14.8517 44.2862 14.796 43.7493 14.7409C43.564 14.7219 43.3795 14.703 43.1949 14.6813C42.8987 14.6813 42.5602 14.639 42.264 14.5967H42.2217H23.3924H23.3078L22.0384 14.7236C20.7267 14.8506 19.415 14.9775 18.0609 15.2737C12.941 16.4161 10.4869 19.0819 9.8945 24.2864C9.87457 24.5256 9.84524 24.7648 9.81537 25.0085C9.78184 25.282 9.74763 25.561 9.72525 25.852L9.64062 26.6136V34.5685V34.6531C9.68294 34.9916 9.72525 35.2878 9.76756 35.584C9.80988 36.261 9.8945 36.9803 10.0214 37.6996C10.7831 42.2695 13.1526 44.7236 17.7647 45.6968C19.6265 46.12 21.5306 46.3315 23.4347 46.3738ZM11.2486 35.4153C11.2486 35.1192 11.2063 34.823 11.164 34.5268V26.7835L11.2486 26.0641C11.271 25.7732 11.3052 25.4941 11.3387 25.2206C11.3686 24.977 11.3979 24.7378 11.4178 24.4986C11.9256 19.9287 13.872 17.7708 18.3149 16.6706C19.4037 16.4166 20.4613 16.3182 21.568 16.2152C21.7515 16.1981 21.9364 16.1809 22.1231 16.1629L23.3925 16.0359H42.0949C42.391 16.0359 42.7295 16.0783 43.0257 16.1206C43.7028 16.1629 44.3798 16.2475 45.0568 16.3744C46.6647 16.7129 47.0878 17.263 46.7916 18.9555C46.7493 19.3787 46.4108 19.7172 45.9877 19.7595C45.5645 19.8441 45.1414 19.8441 44.676 19.8441C41.3755 19.8441 38.0857 19.8547 34.7958 19.8653C31.506 19.8759 28.2162 19.8864 24.9157 19.8864C23.8579 19.9287 22.8424 20.0134 21.8269 20.1826C18.2303 20.7327 16.707 22.3829 16.4108 26.0218C16.4064 26.1151 16.4014 26.2051 16.3967 26.292C16.3563 27.0329 16.3283 27.5472 16.707 27.9259C17.1301 28.3491 17.6802 28.3491 18.6111 28.3491H45.6915C45.9453 28.3491 46.2415 28.4337 46.4531 28.5606C47.0455 28.9414 47.0455 29.4492 46.9609 30.507C46.9609 30.5916 46.9503 30.6657 46.9397 30.7397C46.9291 30.8138 46.9185 30.8878 46.9185 30.9725C46.8762 31.3956 46.707 31.6918 46.03 31.8187C45.6915 31.9034 45.3106 31.9034 44.9721 31.9034H18.061C17.4686 31.9034 17.0032 31.9034 16.6647 32.2842C16.3368 32.6531 16.3662 33.0617 16.4068 33.6254C16.4081 33.6436 16.4095 33.662 16.4108 33.6805V33.7228C16.4108 34.6537 16.5377 35.6269 16.7493 36.5578C17.2147 38.4619 18.3995 39.689 20.3036 40.1967C22.2923 40.7891 24.281 40.8737 25.9736 40.8737C30.9665 40.916 36.0864 40.916 40.9947 40.916H45.226C46.03 40.916 46.3685 41.043 46.6224 41.4238C46.9185 41.8893 47.0032 42.397 46.8762 42.9048C46.7493 43.4125 46.4108 43.8357 45.9877 44.1318C45.9242 44.153 45.8607 44.1847 45.7972 44.2165C45.7338 44.2482 45.6703 44.2799 45.6068 44.3011C44.2528 44.7242 42.7719 44.8089 41.5448 44.8512C35.5363 44.9781 29.4432 44.9781 23.4771 44.8512C21.6576 44.8089 19.8382 44.5973 18.061 44.2165C14.0836 43.3702 12.1795 41.4238 11.5025 37.4464L11.2486 35.4153Z" fill="white"/>
</svg>
