<svg width="60" height="60" viewBox="0 0 60 60" fill="none" xmlns="http://www.w3.org/2000/svg">
<circle cx="30" cy="30" r="30" fill="url(#paint0_linear_3298_207)"/>
<path fill-rule="evenodd" clip-rule="evenodd" d="M36.0542 14.3759C37.3984 14.58 38.5597 15.4461 39.1495 16.6841C39.23 16.853 39.3306 17.1125 39.3733 17.2607C39.5467 17.8615 39.5391 17.5473 39.5394 24.1494V30.226H35.4533H31.3672V24.1494C31.3675 18.9572 31.3738 18.0333 31.4114 17.8015C31.6983 16.0335 33.0716 14.6552 34.8224 14.3784C35.1658 14.3241 35.706 14.323 36.0542 14.3759ZM47.8598 19.3965C48.1275 19.4601 48.5577 19.6762 48.7828 19.8603C49.0433 20.073 49.2527 20.3401 49.408 20.6576C49.6649 21.1831 49.6445 20.7575 49.6547 25.7727L49.664 30.2269H47.3046H44.9454V25.858C44.9454 21.1286 44.9403 21.2861 45.108 20.8418C45.3141 20.2953 45.7323 19.8418 46.2824 19.5686C46.7626 19.3301 47.3226 19.269 47.8598 19.3965ZM20.6632 19.6969C21.1665 19.7992 21.5982 20.0378 21.9914 20.431C22.4432 20.8827 22.6956 21.3883 22.7709 21.9925C22.7918 22.1597 22.8027 23.6159 22.8027 26.2364V30.2256H20.1279H17.4532L17.4614 26.0419L17.4697 21.8581L17.5526 21.5938C17.8617 20.6081 18.614 19.9026 19.5728 19.6993C19.8547 19.6395 20.3754 19.6384 20.6632 19.6969ZM8.27932 25.09C9.19792 25.2527 9.94274 25.8578 10.2877 26.7216C10.4565 27.1442 10.4623 27.2081 10.4774 28.7915L10.4914 30.2562H7.87459H5.25781V28.8278C5.25781 27.6414 5.26589 27.3602 5.30543 27.1678C5.51854 26.1317 6.3136 25.3292 7.34594 25.1083C7.59655 25.0547 8.03178 25.0462 8.27932 25.09ZM17.428 32.3675C17.4279 34.6864 17.4194 34.8276 17.2494 35.3351C17.0746 35.8566 16.8421 36.2445 16.4696 36.6363C15.2158 37.955 13.2269 38.0929 11.8014 36.9602C11.2488 36.5209 10.8103 35.8461 10.6149 35.1344L10.5338 34.8387L10.5247 32.5478L10.5157 30.2568H13.972H17.4282L17.428 32.3675ZM31.3318 36.4987L31.3225 42.7406L31.254 43.041C31.072 43.8396 30.77 44.4474 30.2688 45.0237C29.6502 45.7352 28.7651 46.2375 27.8244 46.4112C27.4018 46.489 26.6762 46.4812 26.2654 46.3943C25.375 46.2057 24.6529 45.8073 24.0311 45.1616C23.4519 44.5604 23.116 43.9309 22.9075 43.056C22.857 42.8439 22.8533 42.459 22.8449 36.5438L22.8359 30.2568H27.0885H31.3412L31.3318 36.4987ZM44.9129 35.2218L44.9048 40.1867L44.8219 40.4505C44.4466 41.6475 43.4488 42.4041 42.2458 42.4041C41.0233 42.4041 40.012 41.6199 39.6568 40.3961L39.5874 40.1567L39.5787 35.2068L39.5703 30.2568H42.2458H44.921L44.9129 35.2218ZM54.7976 31.7215C54.7819 33.3211 54.7774 33.368 54.596 33.8214C54.4166 34.2697 54.0491 34.729 53.6507 35.0031C52.9988 35.4516 52.104 35.5757 51.3556 35.3209C50.4693 35.0196 49.8176 34.2751 49.6259 33.3452C49.5862 33.1526 49.5781 32.8729 49.5781 31.6852V30.2568H52.1951H54.812L54.7976 31.7215Z" fill="white"/>
<defs>
<linearGradient id="paint0_linear_3298_207" x1="19.5443" y1="-13.7006" x2="-12.4236" y2="41.8227" gradientUnits="userSpaceOnUse">
<stop stop-color="#6B6EEC"/>
<stop offset="1" stop-color="#7CEECA"/>
</linearGradient>
</defs>
</svg>
