<svg width="60" height="60" viewBox="0 0 60 60" fill="none" xmlns="http://www.w3.org/2000/svg">
<circle cx="30" cy="30" r="30" fill="#13B5EC"/>
<path fill-rule="evenodd" clip-rule="evenodd" d="M32.4921 24.001L39.2421 20.0437V27.9583L32.4921 24.001ZM39.2421 40.961L30.2421 46.2374L21.2421 40.961V31.7273L30.2421 37.0037L39.2421 31.7273V40.961ZM21.2421 20.0437L27.9921 24.001L21.2421 27.9583V20.0437ZM31.3671 25.8855L38.1171 29.8428L31.3671 33.8001V25.8855ZM29.1171 33.8001L22.3671 29.8428L29.1171 25.8855V33.8001ZM38.1171 18.1595L30.2421 22.6821L22.3671 18.1595L30.2421 13.4484L38.1171 18.1595ZM18.9922 17.4061V42.092L30.2422 48.499L41.4922 42.092V17.4061L30.2422 10.999L18.9922 17.4061Z" fill="white"/>
</svg>
