<svg width="60" height="60" viewBox="0 0 60 60" fill="none" xmlns="http://www.w3.org/2000/svg">
<circle cx="30" cy="30" r="30" fill="#00EF8B"/>
<rect x="34.6797" y="25.3203" width="8.46" height="8.46" fill="white"/>
<path d="M26.2184 36.9603C26.2184 38.7003 24.7784 40.1403 23.0384 40.1403C21.2984 40.1403 19.8584 38.7003 19.8584 36.9603C19.8584 35.2203 21.2984 33.7803 23.0384 33.7803H26.2184V25.3203H23.0384C16.6184 25.3203 11.3984 30.5403 11.3984 36.9603C11.3984 43.3803 16.6184 48.6003 23.0384 48.6003C29.4584 48.6003 34.6784 43.3803 34.6784 36.9603V33.7803H26.2184V36.9603Z" fill="white"/>
<path d="M37.8588 21.0596H47.3988V12.5996H37.8588C31.4388 12.5996 26.2188 17.8196 26.2188 24.2396V25.3196H34.6788V24.2396C34.6788 22.4996 36.1188 21.0596 37.8588 21.0596Z" fill="white"/>
<path d="M34.6788 25.3203H26.2188V33.7803H34.6788V25.3203Z" fill="#16FF99"/>
</svg>
