<svg width="60" height="60" viewBox="0 0 60 60" fill="none" xmlns="http://www.w3.org/2000/svg">
<circle cx="30" cy="30" r="30" fill="#7833F6"/>
<path fill-rule="evenodd" clip-rule="evenodd" d="M19.2499 30.1274C19.7311 30.6073 20.383 30.8769 21.0626 30.8769C21.7423 30.8769 22.3942 30.6073 22.8754 30.1274L30.1284 22.8744C30.6083 22.3932 30.8779 21.7413 30.8779 21.0617C30.8779 20.382 30.6083 19.7301 30.1284 19.2489C29.6471 18.7687 28.995 18.499 28.3152 18.499C27.6353 18.499 26.9832 18.7687 26.5019 19.2489L19.2499 26.5009C18.7697 26.9822 18.5 27.6343 18.5 28.3142C18.5 28.9941 18.7697 29.6462 19.2499 30.1274ZM29.3748 36.6238L36.6269 29.3717C37.1082 28.8915 37.7603 28.6219 38.4401 28.6219C39.1199 28.6219 39.7721 28.8915 40.2533 29.3717C40.7335 29.853 41.0032 30.5051 41.0032 31.185C41.0032 31.8649 40.7335 32.517 40.2533 32.9983L33.0013 40.2503C32.52 40.7305 31.8679 41.0002 31.188 41.0002C30.5082 41.0002 29.8561 40.7305 29.3748 40.2503C28.8946 39.7691 28.6249 39.1169 28.6249 38.4371C28.6249 37.7572 28.8946 37.1051 29.3748 36.6238ZM28.8442 33.2176C28.1644 33.2176 27.5123 32.9479 27.031 32.4677C26.5508 31.9864 26.2812 31.3343 26.2812 30.6545C26.2812 29.9746 26.5508 29.3225 27.031 28.8412L28.8442 27.028C29.3255 26.5478 29.9776 26.2781 30.6575 26.2781C31.3374 26.2781 31.9895 26.5478 32.4708 27.028C32.951 27.5092 33.2206 28.1614 33.2206 28.8412C33.2206 29.5211 32.951 30.1732 32.4708 30.6545L30.6575 32.4677C30.1762 32.9479 29.5241 33.2176 28.8442 33.2176Z" fill="white"/>
</svg>
