<svg width="60" height="60" viewBox="0 0 60 60" fill="none" xmlns="http://www.w3.org/2000/svg">
<circle cx="30.25" cy="29.75" r="26.75" fill="white"/>
<path fill-rule="evenodd" clip-rule="evenodd" d="M0 30C0 13.4315 13.4314 0 29.9999 0H30.1742C38.1076 0.0230845 45.7068 3.19677 51.3002 8.82287C56.8936 14.449 60.0229 22.0666 59.9997 30C59.9997 46.5685 46.5683 60 29.9999 60C13.4314 60 0 46.5685 0 30ZM27.385 41.55L30.5084 31.0173L35.3752 29.6371L36.3922 26.1505L31.598 27.6033L36.6827 10.3151V10.0391C36.6752 9.81557 36.579 9.60423 36.4155 9.45162C36.252 9.29903 36.0346 9.21769 35.8111 9.22553H29.3462C28.8426 9.21 28.3932 9.53957 28.2566 10.0246L22.2276 30.5088L17.4334 31.9616L16.3438 35.303L21.138 33.8502L16.8523 48.4507H42.4212C42.9265 48.4716 43.3789 48.1399 43.5108 47.6517L44.9636 42.6396V42.3635C44.956 42.14 44.8599 41.9287 44.6964 41.7761C44.5329 41.6235 44.3154 41.5421 44.0919 41.55H27.385Z" fill="#345D9D"/>
</svg>
