<svg width="60" height="60" viewBox="0 0 60 60" fill="none" xmlns="http://www.w3.org/2000/svg">
<circle cx="30" cy="30" r="30" fill="#EDF0F4"/>
<path d="M30.1291 10.001C21.7875 10.0345 15.0335 16.7885 15 25.13C15 26.8006 15.2696 28.46 15.7978 30.0443C16.1919 31.1229 17.3614 31.7037 18.4592 31.3703C19.5202 30.9634 20.0834 29.8034 19.7452 28.7184C19.2968 27.4835 19.0974 26.1735 19.1564 24.862C19.3383 18.8372 24.3691 14.1 30.3939 14.2819C36.4187 14.4637 41.1559 19.4945 40.974 25.5194C40.8033 31.1596 36.3613 35.7405 30.7274 36.0835C30.7274 36.0835 28.6037 36.2128 27.5474 36.342C27.1581 36.3978 26.772 36.4744 26.3907 36.5718C26.3364 36.6276 26.2487 36.6276 26.1928 36.5734L26.1912 36.5718C26.1529 36.5223 26.1529 36.4521 26.1912 36.4026L26.5199 34.6092L28.5144 25.639C28.7537 24.5189 28.0405 23.4164 26.9204 23.1771C25.8003 22.9377 24.6978 23.651 24.4585 24.771C24.4585 24.771 19.7149 46.7275 19.7149 46.9269C19.4436 47.9943 20.0882 49.0793 21.1557 49.3506C21.1668 49.3538 21.1796 49.3569 21.1908 49.3585H21.3008C22.3667 49.6346 23.4548 48.9932 23.7293 47.9273C23.7341 47.9098 23.7389 47.8922 23.742 47.8731C23.7389 47.8396 23.7389 47.8061 23.742 47.7742C23.8011 47.5157 24.3994 44.5942 24.3994 44.5942C24.8526 42.3892 26.63 40.6995 28.8542 40.358C29.3121 40.2878 31.2364 40.1586 31.2364 40.1586C39.546 39.3305 45.6107 31.9223 44.781 23.6127C44.0247 16.0338 37.7462 10.1988 30.1291 10.001Z" fill="#1E1E1E"/>
<path d="M31.0482 44.8845C29.684 44.6005 28.3501 45.4765 28.0661 46.8391C28.0629 46.8518 28.0613 46.8646 28.0581 46.8774C27.7629 48.232 28.6213 49.5707 29.9776 49.8658C29.9792 49.8658 29.9807 49.8658 29.9823 49.8674H30.0525C31.38 50.1881 32.7155 49.3712 33.0346 48.0453C33.0378 48.0357 33.0394 48.0246 33.0426 48.015V47.8762C33.2772 46.5072 32.4028 45.1941 31.0482 44.8845Z" fill="#E6007A"/>
</svg>
