<svg width="60" height="60" viewBox="0 0 60 60" fill="none" xmlns="http://www.w3.org/2000/svg">
<path d="M30 0C46.566 0 60 13.434 60 30C60 46.566 46.566 60 30 60C13.434 60 0 46.566 0 30C0 13.434 13.434 0 30 0Z" fill="#FFCCD5"/>
<path fill-rule="evenodd" clip-rule="evenodd" d="M35.448 15.0771C38.604 15.0771 41.22 16.1151 43.272 18.1911C45.336 20.2671 46.374 22.8951 46.374 26.0751C46.374 29.2671 45.336 31.8891 43.284 33.9651C41.232 36.0411 38.616 37.0791 35.46 37.0791H29.538V45.5151H22.5V40.9011C25.326 40.0071 27.372 37.3611 27.372 34.2411C27.372 31.1211 25.326 28.4751 22.5 27.5811V23.2311V15.0771H35.448ZM34.3537 31.3553C35.7817 31.3553 36.9457 30.8573 37.8577 29.8733C38.7697 28.8892 39.2317 27.6293 39.2257 26.0933C39.2257 24.5573 38.7697 23.2972 37.8577 22.3133C36.9397 21.3293 35.7697 20.8313 34.3537 20.8313H29.5237V31.3553H34.3537Z" fill="black"/>
<path d="M18.8656 39.3953C21.6856 39.3953 23.9656 37.1093 23.9656 34.2953C23.9656 31.4753 21.6796 29.1953 18.8656 29.1953C16.0516 29.1953 13.7656 31.4813 13.7656 34.2953C13.7656 37.1153 16.0516 39.3953 18.8656 39.3953Z" fill="#FF3465"/>
</svg>
