<svg width="60" height="60" viewBox="0 0 60 60" fill="none" xmlns="http://www.w3.org/2000/svg">
<circle cx="30" cy="30" r="30" fill="black"/>
<path d="M18.5975 37.1065C18.8054 36.8986 19.0913 36.7773 19.3944 36.7773H46.8882C47.3906 36.7773 47.6418 37.3837 47.2866 37.7388L41.8555 43.17C41.6476 43.3779 41.3617 43.4992 41.0585 43.4992H13.5648C13.0624 43.4992 12.8112 42.8928 13.1663 42.5377L18.5975 37.1065Z" fill="url(#paint0_linear_3298_232)"/>
<path d="M18.5975 16.8292C18.8141 16.6213 19.0999 16.5 19.3944 16.5H46.8882C47.3906 16.5 47.6418 17.1064 47.2866 17.4615L41.8555 22.8927C41.6476 23.1006 41.3617 23.2218 41.0585 23.2218H13.5648C13.0624 23.2218 12.8112 22.6155 13.1663 22.2603L18.5975 16.8292Z" fill="url(#paint1_linear_3298_232)"/>
<path d="M41.8555 26.9034C41.6476 26.6955 41.3617 26.5742 41.0585 26.5742H13.5648C13.0624 26.5742 12.8112 27.1806 13.1663 27.5357L18.5975 32.9669C18.8054 33.1748 19.0913 33.2961 19.3944 33.2961H46.8882C47.3906 33.2961 47.6418 32.6897 47.2866 32.3346L41.8555 26.9034Z" fill="url(#paint2_linear_3298_232)"/>
<defs>
<linearGradient id="paint0_linear_3298_232" x1="-49.1406" y1="11.3986" x2="-49.8722" y2="48.2082" gradientUnits="userSpaceOnUse">
<stop stop-color="#00FFA3"/>
<stop offset="1" stop-color="#DC1FFF"/>
</linearGradient>
<linearGradient id="paint1_linear_3298_232" x1="-57.4607" y1="7.05562" x2="-58.1922" y2="43.8652" gradientUnits="userSpaceOnUse">
<stop stop-color="#00FFA3"/>
<stop offset="1" stop-color="#DC1FFF"/>
</linearGradient>
<linearGradient id="paint2_linear_3298_232" x1="-53.3271" y1="9.21378" x2="-54.0587" y2="46.0234" gradientUnits="userSpaceOnUse">
<stop stop-color="#00FFA3"/>
<stop offset="1" stop-color="#DC1FFF"/>
</linearGradient>
</defs>
</svg>
