<svg width="60" height="60" viewBox="0 0 60 60" fill="none" xmlns="http://www.w3.org/2000/svg">
<path d="M59.0957 37.2571C55.089 53.3287 38.8111 63.1096 22.7376 59.1018C6.67083 55.0951 -3.11002 38.8162 0.898456 22.7459C4.90341 6.67257 21.1813 -3.10901 37.2498 0.897703C53.3222 4.90442 63.1024 21.1851 59.0953 37.2574L59.0956 37.2571H59.0957Z" fill="#50AF95"/>
<path fill-rule="evenodd" clip-rule="evenodd" d="M33.8032 33.4028C33.5911 33.4187 32.4951 33.4841 30.0503 33.4841C28.1058 33.4841 26.7252 33.4257 26.2409 33.4028C18.7263 33.0722 13.1173 31.7641 13.1173 30.1979C13.1173 28.6317 18.7263 27.3253 26.2409 26.9895V32.0999C26.7323 32.1353 28.1394 32.2184 30.0839 32.2184C32.4173 32.2184 33.5858 32.1212 33.7961 32.1017V26.993C41.2948 27.3271 46.8915 28.6352 46.8915 30.1979C46.8915 31.7605 41.2966 33.0687 33.7961 33.401L33.8032 33.4028ZM33.8002 26.4638V21.8907H44.2651V14.917H15.7729V21.8907H26.2361V26.462C17.7316 26.8527 11.3359 28.5373 11.3359 30.5561C11.3359 32.5748 17.7316 34.2577 26.2361 34.6501V49.3046H33.7984V34.6448C42.2835 34.2542 48.6685 32.5713 48.6685 30.5543C48.6685 28.5373 42.2888 26.8544 33.7984 26.462L33.8002 26.4638Z" fill="white"/>
</svg>
