<svg width="60" height="60" viewBox="0 0 60 60" fill="none" xmlns="http://www.w3.org/2000/svg">
<path d="M59.0957 37.2571C55.089 53.3287 38.8111 63.1096 22.7376 59.1018C6.67083 55.0951 -3.11002 38.8162 0.898456 22.7459C4.90341 6.67257 21.1813 -3.10901 37.2498 0.897703C53.3222 4.90442 63.1024 21.1851 59.0953 37.2574L59.0956 37.2571H59.0957Z" fill="#2C7DF7"/>
<path d="M34.475 50.0009C31.6207 50.0009 29.5373 49.3134 28.2249 47.9384C27.0091 46.7745 26.3036 45.1766 26.2626 43.494C26.2478 42.9828 26.3663 42.4766 26.6063 42.025C26.8302 41.6349 27.1537 41.3112 27.5437 41.0869C28.4626 40.6286 29.5435 40.6286 30.4624 41.0869C30.8517 41.3103 31.1737 41.6343 31.3945 42.025C31.6415 42.4744 31.7644 42.9814 31.7506 43.494C31.7761 44.1061 31.6005 44.7098 31.2506 45.2127C30.959 45.6233 30.5422 45.9283 30.0627 46.082C30.5316 46.6791 31.1951 47.0927 31.9376 47.2509C32.7684 47.4922 33.6288 47.6162 34.4938 47.6195C35.6391 47.6295 36.7608 47.2941 37.7126 46.657C38.7 45.9595 39.4364 44.9623 39.8126 43.8134C40.2894 42.4459 40.5222 41.0053 40.5001 39.5572C40.5386 38.0476 40.2838 36.5448 39.7501 35.1321C39.3486 34.0023 38.5865 33.0359 37.5813 32.3821C36.647 31.7909 35.5625 31.4807 34.4569 31.4885C33.4935 31.5701 32.5645 31.8854 31.7506 32.4072L29.7438 33.4134V32.4072L38.7625 20.3086H26.2626V32.8635C26.2273 33.7695 26.4669 34.665 26.9501 35.4322C27.4255 36.1122 28.2221 36.4939 29.05 36.4384C29.8021 36.4231 30.5294 36.1668 31.1248 35.7072C31.7998 35.2125 32.3871 34.6083 32.8624 33.9196C32.9052 33.7988 32.9841 33.6942 33.0884 33.6198C33.1721 33.5474 33.2791 33.5075 33.3897 33.5073C33.6069 33.5271 33.8124 33.6145 33.9773 33.7571C34.1862 33.9906 34.2999 34.2939 34.296 34.6071C34.2718 34.8176 34.2343 35.0264 34.1835 35.2321C33.7394 36.3069 32.9951 37.2309 32.0396 37.8937C31.1521 38.4942 30.104 38.8126 29.0324 38.8072C26.3261 38.8072 24.4512 38.2739 23.4078 37.2072C22.3244 36.0163 21.7658 34.4395 21.8578 32.8321V20.3086H15.5V17.9759H21.8874V12.6571L20.425 11.1937V10.001H24.6686L26.2626 10.8261V17.9759L42.7748 17.9256L44.4187 19.5756L34.2937 29.7499C34.9054 29.5038 35.5496 29.348 36.2061 29.2873C37.5054 29.3442 38.7731 29.7061 39.9067 30.3437C41.2194 30.9676 42.3257 31.9549 43.0944 33.1884C43.7832 34.2326 44.2708 35.3963 44.532 36.6196C44.7467 37.5846 44.8619 38.569 44.8757 39.5575C44.8824 41.4439 44.4547 43.3065 43.6258 45.0011C42.8396 46.6419 41.5165 47.9651 39.8756 48.7512C38.1959 49.5789 36.3475 50.0066 34.475 50.0009Z" fill="white"/>
</svg>
