<svg width="60" height="60" viewBox="0 0 60 60" fill="none" xmlns="http://www.w3.org/2000/svg">
<path fill-rule="evenodd" clip-rule="evenodd" d="M30 60C13.5 60 0 46.5003 0 29.8506C0.15 13.351 13.5 -0.148759 30.15 0.00123801C46.65 0.151235 60 13.501 60 30.3006C59.85 46.6503 46.5 60 30 60Z" fill="#FC070C"/>
<path fill-rule="evenodd" clip-rule="evenodd" d="M48.618 21.0143L48.6178 21.014L48.6177 21.014C47.2283 19.665 45.7603 18.2396 44.4646 17.0896L44.3333 16.9977C44.115 16.8223 43.8687 16.6848 43.6049 16.5908L42.605 16.4043C35.7052 15.1168 13.3394 10.9436 12.8794 10.9996C12.7433 11.0186 12.6132 11.068 12.4987 11.144L12.3741 11.2424C12.2205 11.3983 12.1039 11.5867 12.0328 11.7936L12 11.879V12.3449V12.4171C13.5184 16.6452 17.4628 26.0876 21.1049 34.8061L21.1049 34.8062L21.105 34.8063C24.1841 42.1773 27.0471 49.0309 28.0453 51.7788L28.0456 51.78C28.177 52.1872 28.4263 52.9601 28.8918 52.9994H28.9968C29.2462 52.9994 30.3093 51.5951 30.3093 51.5951C30.3093 51.5951 49.3143 28.5476 51.2371 26.0933C51.486 25.791 51.7057 25.4658 51.8933 25.122C51.9907 24.575 51.7939 24.0169 51.3749 23.652C50.5562 22.8962 49.6071 21.9746 48.618 21.0143ZM35.1873 26.3367L43.2985 19.6102L48.0563 23.9939L35.1873 26.3367ZM18.0703 14.4527L32.0353 25.8977L40.6649 18.6199L18.0703 14.4527ZM33.2973 28.8968L47.5904 26.5934L31.2498 46.2808L33.2973 28.8968ZM30.8653 28.0617L16.1719 15.593L28.739 46.2922L30.8653 28.0617Z" fill="white"/>
</svg>
