<svg width="60" height="60" viewBox="0 0 60 60" fill="none" xmlns="http://www.w3.org/2000/svg">
<path d="M30 60C46.6251 60 60 46.6251 60 30C60 13.3749 46.6251 0 30 0C13.3749 0 0 13.3749 0 30C0 46.6251 13.3749 60 30 60Z" fill="#2775CA"/>
<path d="M38.2499 34.75C38.2499 30.3751 35.6249 28.8751 30.3749 28.2502C26.6249 27.7501 25.8749 26.7502 25.8749 25C25.8749 23.2498 27.125 22.1251 29.6249 22.1251C31.8749 22.1251 33.125 22.8751 33.7499 24.7501C33.875 25.1251 34.25 25.375 34.625 25.375H36.6248C37.1249 25.375 37.4999 25 37.4999 24.5002V24.3751C36.9998 21.625 34.7498 19.5001 31.8749 19.2502V16.2502C31.8749 15.7501 31.4999 15.3751 30.875 15.25H29C28.4999 15.25 28.1249 15.625 27.9998 16.2502V19.1251C24.2498 19.6252 21.875 22.1251 21.875 25.2502C21.875 29.3752 24.3749 31 29.6249 31.6252C33.125 32.2501 34.25 33.0001 34.25 35.0002C34.25 37.0003 32.4998 38.3752 30.125 38.3752C26.8748 38.3752 25.7498 37 25.3748 35.125C25.25 34.6252 24.875 34.375 24.5 34.375H22.3748C21.875 34.375 21.5 34.75 21.5 35.2501V35.3752C21.9998 38.5 23.9999 40.75 28.1249 41.3752V44.3752C28.1249 44.875 28.4999 45.25 29.1248 45.3751H30.9998C31.4999 45.3751 31.8749 45.0001 32 44.3752V41.3752C35.75 40.75 38.2499 38.125 38.2499 34.75Z" fill="white"/>
<path fill-rule="evenodd" clip-rule="evenodd" d="M12.4986 23.8738C8.87343 33.499 13.8735 44.374 23.6235 47.8738C23.9985 48.124 24.3735 48.6238 24.3735 48.9988V50.749C24.3735 50.9989 24.3735 51.124 24.2484 51.2488C24.1236 51.7489 23.6235 51.9988 23.1234 51.7489C16.1235 49.4989 10.7484 44.1238 8.49843 37.1239C4.74843 25.249 11.2485 12.6238 23.1234 8.87382C23.2485 8.74902 23.4984 8.74902 23.6235 8.74902C24.1236 8.87382 24.3735 9.24882 24.3735 9.74892V11.4988C24.3735 12.124 24.1236 12.499 23.6235 12.7489C18.4986 14.6239 14.3736 18.6238 12.4986 23.8738ZM35.7502 9.3743C35.875 8.8742 36.3751 8.6243 36.8752 8.8742C43.75 11.1242 49.2502 16.4993 51.5002 23.6243C55.2502 35.4992 48.7501 48.1244 36.8752 51.8744C36.7501 51.9992 36.5002 51.9992 36.3751 51.9992C35.875 51.8744 35.6251 51.4994 35.6251 50.9993V49.2494C35.6251 48.6242 35.875 48.2492 36.3751 47.9993C41.5 46.1243 45.625 42.1244 47.5 36.8744C51.1252 27.2492 46.1251 16.3742 36.3751 12.8744C36.0001 12.6242 35.6251 12.1244 35.6251 11.6243V9.8744C35.6251 9.6242 35.6251 9.4994 35.7502 9.3743Z" fill="white"/>
</svg>
