<svg xmlns="http://www.w3.org/2000/svg" width="72" height="41" viewBox="0 0 72 41" fill="none">
  <path d="M23.0533 22.6874C22.8614 25.95 25.3564 28.6369 28.619 28.8288C31.8816 28.6369 34.3766 25.7581 34.1847 22.4954C34.3766 19.2328 31.8816 16.354 28.619 16.1621C25.3564 16.5459 22.8614 19.4247 23.0533 22.6874ZM30.1543 22.6874C30.1543 24.0308 29.3867 25.1823 28.4271 25.1823C27.4675 25.1823 26.6998 24.0308 26.6998 22.6874C26.6998 21.3439 27.6594 20.1924 28.619 20.1924C29.5786 20.1924 30.1543 21.3439 30.1543 22.6874Z" fill="white"/>
  <path d="M41.0956 16.3535C37.8329 16.5454 35.338 19.4242 35.5299 22.6868C35.338 25.9495 37.8329 28.6363 41.0956 29.0202C44.3582 28.8283 46.8531 25.9495 46.6612 22.6868C46.8531 19.4242 44.3582 16.5454 41.0956 16.3535ZM41.0956 24.9899C40.136 24.9899 39.3683 23.8384 39.3683 22.4949C39.3683 21.1515 40.136 20 41.0956 20C42.0552 20 42.8228 21.1515 42.8228 22.4949C42.8228 23.8384 42.0552 24.9899 41.0956 24.9899Z" fill="white"/>
  <path d="M55.2929 9.44382C55.101 9.2519 55.101 9.05999 55.101 9.05999C51.8384 5.02968 47.2323 2.15089 42.0505 0.999379C41.0909 0.615541 39.9394 1.38322 39.7475 2.34281C39.5556 3.30241 40.1313 4.45392 41.0909 4.64584C41.0909 4.64584 41.0909 4.64584 41.2828 4.64584C45.505 5.60544 49.3434 7.90847 52.0303 11.1711C54.5252 17.1206 56.0606 23.4539 56.0606 29.9792C53.3737 32.4741 50.1111 34.2014 46.4646 34.7772V34.0095C46.4646 34.0095 46.4646 34.0095 46.4646 33.8176C48.7677 32.858 51.0707 31.7064 52.9899 29.9792C53.7576 29.4034 53.9495 28.06 53.3737 27.2923C52.798 26.5246 51.4545 26.3327 50.6869 26.9085C46.2727 30.363 40.7071 32.0903 34.9495 31.8984C29.3838 32.0903 23.8182 30.363 19.404 26.9085C18.6364 26.3327 17.2929 26.3327 16.7172 27.2923C16.1414 28.2519 16.1414 29.4034 17.101 29.9792C19.0202 31.5145 21.3232 32.858 23.6263 33.8176V34.7772C19.9798 34.2014 16.7172 32.4741 14.0303 29.9792C14.0303 23.4539 15.3737 17.1206 18.0606 11.1711C20.5556 7.90847 24.3939 5.79736 28.6162 4.83776C29.5758 4.45392 30.1515 3.49433 29.9596 2.53473C29.7677 1.38322 28.8081 0.80746 27.6566 0.999379C22.4747 2.15089 17.8687 4.83776 14.6061 9.05999V9.2519V9.44382C10.7677 17.1206 10.3838 24.0297 10 30.7469C10 31.3226 10.1919 31.8984 10.5758 32.2822C14.4141 36.3125 19.596 38.6155 25.1616 39.1913C25.7374 39.1913 26.1212 38.9994 26.505 38.6155C26.8889 38.2317 27.0808 37.8479 27.0808 37.2721V35.3529C32.0707 36.5044 37.4444 36.5044 42.4343 35.3529V37.2721C42.4343 37.8479 42.6263 38.2317 43.0101 38.6155C43.3939 38.9994 43.7778 39.1913 44.3535 39.1913C49.9192 38.8075 55.2929 36.5044 59.1313 32.4741C59.5151 32.0903 59.7071 31.5145 59.7071 30.9388C59.3232 24.0297 58.9394 17.1206 55.2929 9.44382Z" fill="white"/>
  <path d="M49.1494 11.7469C49.7252 10.7873 49.3413 9.63579 48.3817 9.25195C44.1595 7.33276 39.5534 6.18124 34.7555 6.37316C30.1494 6.18124 25.3514 7.33276 21.1292 9.25195C20.3615 9.63579 19.9777 10.7873 20.3615 11.7469C20.9373 12.7065 22.0888 12.8984 23.0484 12.5146C26.6949 10.7873 30.7252 10.0196 34.7555 10.0196C38.7858 10.0196 43.008 10.7873 46.6544 12.5146C46.8464 12.7065 47.2302 12.7065 47.614 12.7065C48.1898 12.7065 48.7656 12.3227 49.1494 11.7469Z" fill="white"/>
</svg>