<svg width="92" height="80" viewBox="0 0 92 80" fill="none" xmlns="http://www.w3.org/2000/svg">
<g clip-path="url(#clip0_3123_200)">
<path d="M83.7203 19.29L88.9703 22.32C89.0803 22.39 89.2203 22.39 89.3403 22.32C89.4503 22.25 89.5203 22.13 89.5203 22V15.93C89.5203 15.8 89.4503 15.68 89.3403 15.61L84.0903 12.58C84.0303 12.55 83.9703 12.53 83.9103 12.53C83.8503 12.53 83.7803 12.55 83.7303 12.58C83.6203 12.65 83.5503 12.77 83.5503 12.9V18.97C83.5303 19.11 83.6003 19.23 83.7203 19.29ZM84.4503 18.87L88.7903 16.37V21.38L84.4503 18.87ZM88.6003 16.05L84.2603 18.55V13.54L88.6003 16.05Z" fill="#BFFF0A"/>
<path d="M0 38.89C0 38.91 0 38.93 0.01 38.95C0.01 38.97 0.02 38.98 0.02 39C0.02 39.02 0.03 39.03 0.04 39.05C0.05 39.07 0.05 39.08 0.06 39.1C0.07 39.12 0.08 39.13 0.09 39.15C0.1 39.17 0.11 39.18 0.12 39.2C0.13 39.21 0.14 39.23 0.15 39.24C0.16 39.25 0.17 39.27 0.19 39.28C0.2 39.29 0.22 39.3 0.23 39.31C0.25 39.32 0.26 39.34 0.28 39.35C0.29 39.35 0.29 39.36 0.29 39.36L4.46 41.77C4.47 41.77 4.47 41.77 4.48 41.78C4.5 41.79 4.52 41.8 4.53 41.8C4.55 41.81 4.56 41.81 4.58 41.82C4.6 41.83 4.61 41.83 4.63 41.83C4.65 41.83 4.67 41.84 4.68 41.84C4.7 41.84 4.72 41.84 4.73 41.84C4.75 41.84 4.77 41.84 4.78 41.84C4.8 41.84 4.82 41.83 4.83 41.83C4.85 41.83 4.86 41.82 4.88 41.82C4.9 41.81 4.91 41.81 4.93 41.8C4.95 41.79 4.96 41.79 4.98 41.78C4.99 41.78 4.99 41.78 5 41.77L12.22 37.6V45.94C12.22 45.95 12.22 45.95 12.22 45.96C12.22 45.98 12.22 46 12.23 46.02C12.23 46.04 12.24 46.05 12.24 46.07C12.24 46.09 12.25 46.1 12.26 46.12C12.27 46.14 12.27 46.15 12.28 46.17C12.29 46.19 12.3 46.2 12.31 46.22C12.32 46.24 12.33 46.25 12.34 46.27C12.35 46.28 12.36 46.3 12.37 46.31C12.38 46.32 12.39 46.34 12.41 46.35C12.42 46.36 12.44 46.37 12.45 46.38C12.47 46.39 12.48 46.4 12.5 46.42C12.51 46.42 12.51 46.43 12.51 46.43L16.68 48.84C16.69 48.84 16.69 48.84 16.7 48.85C16.72 48.86 16.74 48.87 16.75 48.87C16.77 48.88 16.78 48.88 16.8 48.89C16.82 48.9 16.83 48.9 16.85 48.9C16.87 48.9 16.88 48.91 16.9 48.91C16.92 48.91 16.94 48.91 16.95 48.91C16.97 48.91 16.99 48.91 17 48.91C17.02 48.91 17.04 48.9 17.05 48.9C17.07 48.9 17.09 48.89 17.1 48.89C17.12 48.88 17.13 48.88 17.15 48.87C17.17 48.86 17.19 48.85 17.2 48.85C17.21 48.85 17.21 48.85 17.22 48.84L24.44 44.67V53.01C24.44 53.02 24.44 53.03 24.44 53.03C24.44 53.04 24.44 53.06 24.44 53.07C24.44 53.09 24.45 53.12 24.45 53.14C24.45 53.15 24.46 53.16 24.46 53.16C24.47 53.19 24.48 53.21 24.49 53.24C24.49 53.25 24.5 53.25 24.5 53.26C24.51 53.29 24.53 53.31 24.55 53.33C24.55 53.34 24.56 53.34 24.56 53.34C24.58 53.36 24.6 53.39 24.62 53.41L24.63 53.42C24.65 53.44 24.68 53.46 24.71 53.48L28.85 55.87C28.08 57.11 27.65 58.44 27.65 59.83C27.65 59.86 27.65 59.88 27.66 59.91C27.66 59.94 27.65 59.96 27.65 59.99V68.55C27.65 74.87 36.38 80.02 47.11 80.02C57.84 80.02 66.57 74.88 66.57 68.55V59.99C66.57 59.96 66.57 59.94 66.56 59.91C66.56 59.88 66.57 59.86 66.57 59.83C66.57 58.44 66.14 57.1 65.37 55.86L69.51 53.47C69.51 53.47 69.52 53.47 69.52 53.46C69.54 53.45 69.56 53.43 69.58 53.41C69.59 53.4 69.6 53.4 69.61 53.39C69.63 53.38 69.64 53.36 69.65 53.34C69.66 53.33 69.67 53.32 69.68 53.31C69.69 53.29 69.7 53.28 69.71 53.26C69.72 53.24 69.73 53.23 69.73 53.21C69.74 53.2 69.74 53.18 69.75 53.16C69.76 53.14 69.76 53.12 69.77 53.1C69.77 53.09 69.77 53.07 69.78 53.06C69.78 53.04 69.79 53.01 69.79 52.99V52.98V47.17L74.82 50.08C74.83 50.08 74.83 50.08 74.84 50.09C74.86 50.1 74.88 50.11 74.9 50.12C74.92 50.13 74.93 50.13 74.95 50.14C74.97 50.15 74.98 50.15 75 50.15C75.02 50.15 75.03 50.16 75.05 50.16C75.07 50.16 75.09 50.16 75.1 50.16C75.12 50.16 75.14 50.16 75.15 50.16C75.17 50.16 75.19 50.15 75.2 50.15C75.22 50.15 75.24 50.14 75.25 50.14C75.27 50.14 75.28 50.13 75.3 50.12C75.32 50.11 75.34 50.11 75.35 50.1C75.36 50.1 75.36 50.1 75.37 50.09L80.88 46.91C80.89 46.91 80.89 46.9 80.89 46.9C80.91 46.89 80.92 46.88 80.94 46.86C80.95 46.85 80.97 46.84 80.98 46.83C80.99 46.82 81.01 46.8 81.02 46.79C81.03 46.78 81.04 46.76 81.05 46.75C81.06 46.74 81.07 46.72 81.08 46.7C81.09 46.69 81.1 46.67 81.1 46.65C81.11 46.63 81.11 46.62 81.12 46.6C81.13 46.58 81.13 46.57 81.14 46.55C81.14 46.53 81.15 46.52 81.15 46.5C81.15 46.48 81.16 46.46 81.16 46.44C81.16 46.43 81.16 46.43 81.16 46.42L81.17 32.14L91.54 26.15C91.71 26.05 91.82 25.87 91.82 25.67V14.71C91.82 14.51 91.71 14.33 91.54 14.23L82.05 8.75C81.88 8.65 81.67 8.65 81.5 8.75L71.12 14.74L58.76 7.62C58.73 7.6 58.7 7.59 58.67 7.58C58.61 7.56 58.55 7.54 58.49 7.54C58.43 7.54 58.37 7.55 58.31 7.57C58.28 7.58 58.25 7.59 58.22 7.61L52.71 10.79C52.7 10.79 52.7 10.8 52.69 10.8C52.67 10.81 52.66 10.82 52.64 10.83C52.63 10.84 52.61 10.85 52.6 10.86C52.59 10.87 52.58 10.89 52.56 10.9C52.55 10.91 52.54 10.93 52.52 10.94C52.51 10.95 52.5 10.97 52.49 10.98C52.48 11 52.47 11.01 52.46 11.03C52.45 11.05 52.45 11.06 52.44 11.08C52.43 11.1 52.43 11.11 52.42 11.13C52.42 11.15 52.41 11.16 52.41 11.18C52.41 11.2 52.4 11.22 52.4 11.24C52.4 11.25 52.4 11.25 52.4 11.26V17.07L47.37 14.17C47.28 14.12 47.19 14.09 47.09 14.09C47 14.09 46.9 14.11 46.82 14.16L39.6 18.33V9.99C39.6 9.98 39.6 9.98 39.6 9.97C39.6 9.95 39.6 9.93 39.59 9.91C39.59 9.89 39.58 9.88 39.58 9.86C39.58 9.84 39.57 9.83 39.56 9.81C39.55 9.79 39.55 9.78 39.54 9.76C39.53 9.74 39.52 9.73 39.51 9.71C39.5 9.69 39.49 9.68 39.48 9.66C39.47 9.65 39.46 9.63 39.45 9.62C39.44 9.61 39.43 9.59 39.41 9.58C39.4 9.57 39.38 9.56 39.37 9.55C39.35 9.54 39.34 9.53 39.32 9.51C39.31 9.51 39.31 9.5 39.31 9.5L35.14 7.09C35.11 7.07 35.07 7.06 35.04 7.05C34.98 7.03 34.93 7.02 34.87 7.02C34.81 7.02 34.76 7.03 34.7 7.05C34.66 7.06 34.63 7.07 34.59 7.09L27.4 11.3V2.96C27.4 2.95 27.4 2.95 27.4 2.94C27.4 2.92 27.4 2.9 27.39 2.88C27.39 2.86 27.38 2.85 27.38 2.83C27.38 2.81 27.37 2.8 27.36 2.78C27.35 2.76 27.35 2.75 27.34 2.73C27.33 2.71 27.32 2.7 27.31 2.68C27.3 2.66 27.29 2.65 27.28 2.63C27.27 2.62 27.26 2.6 27.25 2.59C27.24 2.58 27.23 2.56 27.21 2.55C27.2 2.54 27.18 2.53 27.17 2.52C27.15 2.51 27.14 2.5 27.12 2.48C27.11 2.48 27.11 2.47 27.11 2.47L22.94 0.06C22.91 0.04 22.87 0.03 22.84 0.02C22.79 0.01 22.73 0 22.67 0C22.61 0 22.56 0.01 22.5 0.03C22.46 0.04 22.43 0.05 22.4 0.07L0.28 12.85C0.1 12.95 0 13.13 0 13.32V38.87C0 38.88 0 38.88 0 38.89ZM4.72 40.64L4.2 40.34L25.41 28.1L25.93 28.4L4.72 40.64ZM3.28 39.81L24.49 27.57L25.05 27.89L3.84 40.13L3.28 39.81ZM2.35 39.28L23.56 27.04L24.12 27.36L2.91 39.6L2.35 39.28ZM26.3 27.76L25.78 27.46V2.98L26.3 3.28V27.76ZM25.41 27.26L24.85 26.94V2.45L25.41 2.77V27.26ZM24.49 26.72L23.93 26.4V1.91L24.49 2.23V26.72ZM23.56 26.19L23.04 25.89V1.4L23.56 1.7V26.19ZM22.67 26.52L23.19 26.82L1.99 39.06L1.47 38.76L22.67 26.52ZM16.95 47.7L16.43 47.4L37.64 35.16L38.16 35.46L16.95 47.7ZM15.5 46.87L36.71 34.63L37.27 34.95L16.06 47.19L15.5 46.87ZM14.58 46.33L35.79 34.09L36.35 34.41L15.15 46.65L14.58 46.33ZM38.52 34.82L38 34.52V10.04L38.52 10.34V34.82ZM37.64 34.31L37.08 33.99V9.5L37.64 9.82V34.31ZM36.71 33.78L36.15 33.46V8.97L36.71 9.29V33.78ZM35.78 33.24L35.26 32.94V8.46L35.78 8.76V33.24ZM34.9 33.58L35.42 33.88L14.21 46.12L13.69 45.82L34.9 33.58ZM65.48 68.53C65.48 74.25 57.24 78.9 47.12 78.9C37 78.9 28.76 74.25 28.76 68.53V67.06C30.02 61.94 37.77 57.98 47.12 57.98C56.47 57.98 64.22 61.94 65.48 67.06V68.53ZM65.49 59.89C65.49 59.92 65.48 59.94 65.48 59.97V65.09C62.99 60.54 55.7 57.24 47.12 57.24C38.54 57.24 31.25 60.54 28.76 65.09V59.97C28.76 59.94 28.76 59.92 28.75 59.89C28.75 59.86 28.76 59.84 28.76 59.81C28.76 58.51 29.19 57.27 29.96 56.13C30.03 56.08 30.09 56.03 30.13 55.95C30.16 55.9 30.17 55.86 30.18 55.81C32.96 52.08 39.5 49.45 47.11 49.45C57.23 49.45 65.47 54.1 65.47 59.82C65.48 59.84 65.48 59.87 65.49 59.89ZM47.12 48.35C39.34 48.35 32.62 51.06 29.5 54.95L25.91 52.87L47.11 40.63L68.32 52.87L64.73 54.94C61.62 51.05 54.9 48.35 47.12 48.35ZM79.17 46.62L57.97 34.38L58.49 34.08L79.7 46.31L79.17 46.62ZM78.09 47.24L56.89 35L57.6 34.59L78.8 46.83L78.09 47.24ZM77.02 47.86L55.81 35.61L56.52 35.2L77.73 47.44L77.02 47.86ZM75.95 48.48L54.75 36.24L55.46 35.83L76.66 48.07L75.95 48.48ZM75.1 48.97L53.9 36.72L54.38 36.44L75.59 48.68L75.1 48.97ZM62.85 31.55L63.8 31L72.55 36.05L71.6 36.6L62.85 31.55ZM79.85 31.84L71.1 26.79L72.12 26.2L80.69 31.15L80.35 31.34C80.21 31.42 80.12 31.55 80.09 31.7L79.85 31.84ZM75.69 34.24L66.94 29.19L67.96 28.6L76.71 33.65L75.69 34.24ZM72.92 35.84L64.17 30.79L65.19 30.2L73.94 35.25L72.92 35.84ZM62.49 20.81L63.44 20.26V30.37L62.49 30.92V20.81ZM81.78 20.62L90.35 25.57L89.36 26.14L80.79 21.19L81.78 20.62ZM73.5 25.4L82.07 30.35L81.05 30.94L72.48 25.99L73.5 25.4ZM73.87 25.19L74.89 24.6L83.46 29.55L82.44 30.14L73.87 25.19ZM75.25 24.39L76.27 23.8L84.84 28.75L83.82 29.34L75.25 24.39ZM76.64 23.59L77.66 23L86.23 27.95L85.21 28.54L76.64 23.59ZM78.03 22.79L79.05 22.2L87.62 27.15L86.6 27.74L78.03 22.79ZM79.41 21.99L80.43 21.4L89 26.35L87.98 26.94L79.41 21.99ZM79.04 21.36V11.46L80.06 10.87V20.77L79.04 21.36ZM78.68 21.57L77.66 22.16V12.26L78.68 11.67V21.57ZM77.29 22.37L76.27 22.96V13.06L77.29 12.47V22.37ZM75.91 23.17L74.89 23.76V13.87L75.91 13.28V23.17ZM74.52 23.97L73.5 24.56V14.67L74.52 14.08V23.97ZM73.13 24.77L72.11 25.36V15.47L73.13 14.88V24.77ZM64.82 19.46V29.57L63.8 30.16V20.05L64.82 19.46ZM65.19 29.36V19.25L66.21 18.66V28.77L65.19 29.36ZM66.57 28.56V18.45L67.59 17.86V27.97L66.57 28.56ZM65.1 18.45L62.48 16.97V16.12L65.81 18.04L65.1 18.45ZM64.73 18.66L63.97 19.1L62.48 18.24V17.39L64.73 18.66ZM62.49 18.66L63.61 19.31L62.85 19.75L62.49 19.54V18.66ZM74.31 35.05L65.56 30L66.58 29.41L75.33 34.46L74.31 35.05ZM90.72 15.04V24.94L82.15 19.99V10.09L90.72 15.04ZM81.42 19.99L80.43 20.56V10.67L81.42 10.1V19.99ZM71.41 15.87L71.75 15.67V25.56L70.73 26.15V16.05L70.96 15.92C71.11 15.96 71.27 15.95 71.41 15.87ZM70.36 26.37L69.34 26.96V16.85L70.36 16.26V26.37ZM68.98 27.17L67.96 27.76V17.65L68.98 17.06V27.17ZM66.18 17.83L62.49 15.7V15.03L66.76 17.5L66.18 17.83ZM72.36 37.02V37.04L72.34 37.03L72.36 37.02ZM72.73 36.8L73.49 36.36V37.69L72.72 37.25L72.73 36.8ZM73.86 36.15L74.59 35.73V38.33L73.86 37.91V36.15ZM74.96 35.52L75.69 35.1V38.97L74.96 38.55V35.52ZM76.06 34.88L76.61 34.56V39.5L76.06 39.18V34.88ZM77.08 33.44L68.33 28.39L69.35 27.8L78.1 32.85L77.08 33.44ZM78.46 32.64L69.71 27.59L70.73 27L79.48 32.05L78.46 32.64ZM67.49 17.07L62.3 14.07C62.24 14.04 62.18 14.02 62.12 14.02C62.06 14.02 61.99 14.04 61.94 14.07C61.83 14.14 61.76 14.26 61.76 14.39V20.5C61.74 20.57 61.74 20.64 61.76 20.71V31.55C61.76 31.68 61.83 31.8 61.94 31.87L71.33 37.29C71.38 37.34 71.44 37.38 71.51 37.4L76.8 40.45C76.91 40.52 77.05 40.52 77.17 40.45C77.28 40.38 77.35 40.26 77.35 40.13V34.13L80.07 32.56L80.06 45.67L58.86 33.43V8.95L70.22 15.5L67.49 17.07ZM58.12 33.43L57.56 33.75V9.27L58.12 8.95V33.43ZM57.19 33.97L56.48 34.38V9.89L57.19 9.48V33.97ZM56.12 34.59L55.41 35V10.51L56.12 10.1V34.59ZM55.04 35.21L54.33 35.62V11.13L55.04 10.72V35.21ZM53.97 35.83L53.53 36.08V11.59L53.97 11.34V35.83ZM52.43 19.58L49.97 18.16C49.94 18.14 49.91 18.14 49.88 18.14C49.82 18.14 49.75 18.17 49.72 18.23C49.67 18.32 49.7 18.43 49.79 18.48L52.43 20.01V21.22L49.97 19.8C49.94 19.78 49.91 19.78 49.88 19.78C49.82 19.78 49.75 19.81 49.72 19.87C49.67 19.96 49.7 20.07 49.79 20.12L52.44 21.65V22.87L49.97 21.45C49.94 21.43 49.91 21.43 49.88 21.43C49.82 21.43 49.75 21.46 49.72 21.52C49.67 21.61 49.7 21.72 49.79 21.77L52.44 23.3V24.51L49.97 23.08C49.94 23.06 49.91 23.06 49.88 23.06C49.82 23.06 49.75 23.09 49.72 23.15C49.67 23.24 49.7 23.35 49.79 23.4L52.44 24.93V26.15L49.97 24.72C49.94 24.7 49.91 24.7 49.88 24.7C49.82 24.7 49.75 24.73 49.72 24.79C49.67 24.88 49.7 24.99 49.79 25.04L52.45 26.57V27.79L49.97 26.36C49.94 26.34 49.91 26.34 49.88 26.34C49.82 26.34 49.75 26.37 49.72 26.43C49.67 26.52 49.7 26.63 49.79 26.68L52.45 28.22V29.43L49.97 28C49.94 27.98 49.91 27.98 49.88 27.98C49.82 27.98 49.75 28.01 49.72 28.07C49.67 28.16 49.7 28.27 49.79 28.32L52.45 29.86V31.08L49.97 29.65C49.94 29.63 49.91 29.63 49.88 29.63C49.82 29.63 49.75 29.66 49.72 29.72C49.67 29.81 49.7 29.92 49.79 29.97L52.46 31.51V32.73L49.97 31.3C49.94 31.28 49.91 31.28 49.88 31.28C49.82 31.28 49.75 31.31 49.72 31.37C49.67 31.46 49.7 31.57 49.79 31.62L52.46 33.16V34.38L49.97 32.94C49.94 32.92 49.91 32.92 49.88 32.92C49.82 32.92 49.75 32.95 49.72 33.01C49.67 33.1 49.7 33.21 49.79 33.26L52.46 34.8V36.01L49.97 34.57C49.94 34.55 49.91 34.55 49.88 34.55C49.82 34.55 49.75 34.58 49.72 34.64C49.67 34.73 49.7 34.84 49.79 34.89L52.47 36.43V36.86C52.47 37.06 52.57 37.24 52.75 37.34L68.74 46.57V47L49.93 36.17C49.9 36.15 49.87 36.15 49.84 36.15C49.78 36.15 49.71 36.18 49.68 36.24C49.63 36.33 49.66 36.44 49.75 36.49L68.64 47.4C68.66 47.41 68.67 47.41 68.69 47.42V48.65L49.93 37.81C49.9 37.79 49.87 37.79 49.84 37.79C49.78 37.79 49.71 37.82 49.68 37.88C49.63 37.97 49.66 38.08 49.75 38.13L68.64 49.04C68.66 49.05 68.68 49.05 68.69 49.06V52.25L47.49 40V15.51L52.43 18.36V19.58ZM40.02 19.4L40.03 40.27C40.03 40.37 40.11 40.45 40.21 40.45C40.31 40.45 40.39 40.37 40.39 40.27L40.38 19.19L41.37 18.62L41.38 39.5C41.38 39.6 41.46 39.68 41.56 39.68C41.66 39.68 41.74 39.6 41.74 39.5V18.4L42.73 17.83L42.74 38.71C42.74 38.81 42.82 38.89 42.92 38.89C43.02 38.89 43.1 38.81 43.1 38.71V17.62L46.75 15.51V40L25.55 52.24V44.01L26.5 43.46V48.05C26.5 48.15 26.58 48.23 26.68 48.23C26.78 48.23 26.86 48.15 26.86 48.05V43.25L27.85 42.68V47.27C27.85 47.37 27.93 47.45 28.03 47.45C28.13 47.45 28.21 47.37 28.21 47.27V42.46L29.2 41.89V46.49C29.2 46.59 29.28 46.67 29.38 46.67C29.48 46.67 29.56 46.59 29.56 46.49V41.68L30.53 41.12L30.54 45.71C30.54 45.81 30.62 45.88 30.72 45.89C30.82 45.89 30.9 45.81 30.9 45.71L30.89 40.91L31.89 40.33V44.93C31.89 45.03 31.97 45.11 32.07 45.11C32.17 45.11 32.25 45.03 32.25 44.93V40.12L33.05 39.66L33.23 44.17C33.23 44.27 33.32 44.36 33.42 44.35C33.52 44.35 33.6 44.26 33.6 44.16L33.41 39.46L34.59 38.78V43.39C34.59 43.49 34.67 43.57 34.77 43.57C34.87 43.57 34.95 43.49 34.95 43.39V38.57L35.94 38V42.61C35.94 42.71 36.02 42.79 36.12 42.79C36.22 42.79 36.3 42.71 36.3 42.61V37.78L37.29 37.21V41.83C37.29 41.93 37.37 42.01 37.47 42.01C37.57 42.01 37.65 41.93 37.65 41.83V37L38.64 36.43V41.05C38.64 41.15 38.72 41.23 38.82 41.23C38.92 41.23 39 41.15 39 41.05V36.22L39.3 36.05C39.47 35.95 39.58 35.77 39.58 35.57V19.63L40.02 19.4ZM27.8 12.34L27.81 33.21C27.81 33.31 27.89 33.39 27.99 33.39C28.09 33.39 28.17 33.31 28.17 33.21L28.16 12.13L29.15 11.56L29.16 32.44C29.16 32.54 29.24 32.62 29.34 32.62C29.44 32.62 29.52 32.54 29.52 32.44L29.51 11.35L30.5 10.78L30.51 31.66C30.51 31.76 30.59 31.84 30.69 31.84C30.79 31.84 30.87 31.76 30.87 31.66L30.86 10.57L34.51 8.46V32.95L13.32 45.19V36.96L14.27 36.41V41C14.27 41.1 14.35 41.18 14.45 41.18C14.55 41.18 14.63 41.1 14.63 41V36.2L15.62 35.63V40.22C15.62 40.32 15.7 40.4 15.8 40.4C15.9 40.4 15.98 40.32 15.98 40.22V35.41L16.97 34.84V39.44C16.97 39.54 17.05 39.62 17.15 39.62C17.25 39.62 17.33 39.54 17.33 39.44V34.63L18.3 34.07L18.31 38.66C18.31 38.76 18.39 38.84 18.49 38.84C18.59 38.84 18.67 38.76 18.67 38.66L18.66 33.86L19.66 33.28V37.88C19.66 37.98 19.74 38.06 19.84 38.06C19.94 38.06 20.02 37.98 20.02 37.88V33.06L20.82 32.6L21 37.11C21 37.21 21.09 37.3 21.19 37.29C21.29 37.29 21.37 37.2 21.37 37.1L21.18 32.4L22.36 31.72V36.33C22.36 36.43 22.44 36.51 22.54 36.51C22.64 36.51 22.72 36.43 22.72 36.33V31.5L23.71 30.93V35.54C23.71 35.64 23.79 35.72 23.89 35.72C23.99 35.72 24.07 35.64 24.07 35.54V30.71L25.06 30.14V34.76C25.06 34.86 25.14 34.94 25.24 34.94C25.34 34.94 25.42 34.86 25.42 34.76V29.93L26.41 29.36V33.98C26.41 34.08 26.49 34.16 26.59 34.16C26.69 34.16 26.77 34.08 26.77 33.98V29.15L27.07 28.98C27.24 28.88 27.35 28.7 27.35 28.5V12.57L27.8 12.34ZM22.31 1.4V25.89L1.1 38.13V13.64L22.31 1.4Z" fill="white"/>
<path d="M18.6503 10.8199C18.6203 10.8199 18.5903 10.8299 18.5603 10.8399L5.25034 18.5299C5.16034 18.5799 5.13034 18.6899 5.18034 18.7799C5.23034 18.8699 5.34034 18.8999 5.43034 18.8499L18.7403 11.1699C18.8303 11.1199 18.8603 11.0099 18.8103 10.9199C18.7703 10.8499 18.7103 10.8199 18.6503 10.8199Z" fill="#BFFF0A"/>
<path d="M5.43034 16.54L18.7403 8.86002C18.8303 8.81002 18.8603 8.70002 18.8103 8.61002C18.7803 8.55002 18.7103 8.52002 18.6503 8.52002C18.6203 8.52002 18.5903 8.53002 18.5603 8.54002L5.25034 16.22C5.16034 16.27 5.13034 16.38 5.18034 16.47C5.23034 16.56 5.34034 16.59 5.43034 16.54Z" fill="#BFFF0A"/>
<path d="M18.6503 9.67004C18.6203 9.67004 18.5903 9.68004 18.5603 9.69004L5.25034 17.38C5.16034 17.43 5.13034 17.54 5.18034 17.63C5.23034 17.72 5.34034 17.75 5.43034 17.7L18.7403 10.02C18.8303 9.97004 18.8603 9.86004 18.8103 9.77004C18.7703 9.70004 18.7103 9.67004 18.6503 9.67004Z" fill="#BFFF0A"/>
<path d="M18.6503 11.97C18.6203 11.97 18.5903 11.98 18.5603 11.99L5.25034 19.68C5.16034 19.73 5.13034 19.84 5.18034 19.93C5.23034 20.02 5.34034 20.05 5.43034 20L18.7403 12.32C18.8303 12.27 18.8603 12.16 18.8103 12.07C18.7803 12.01 18.7203 11.97 18.6503 11.97Z" fill="#BFFF0A"/>
<path d="M18.6485 13.13C18.6185 13.13 18.5885 13.14 18.5585 13.15L5.24851 20.83C5.16851 20.89 5.13851 21 5.18851 21.09C5.23851 21.18 5.34851 21.21 5.43851 21.16L18.7485 13.48C18.8385 13.43 18.8685 13.32 18.8185 13.23C18.7785 13.16 18.7185 13.13 18.6485 13.13Z" fill="#BFFF0A"/>
<path d="M18.6581 14.28C18.6281 14.28 18.5981 14.29 18.5681 14.3L5.25815 21.99C5.16815 22.04 5.13815 22.15 5.18815 22.24C5.23815 22.33 5.34815 22.36 5.43815 22.31L18.7481 14.63C18.8381 14.58 18.8681 14.47 18.8181 14.38C18.7781 14.31 18.7181 14.28 18.6581 14.28Z" fill="#BFFF0A"/>
<path d="M18.6581 15.4301C18.6281 15.4301 18.5981 15.4401 18.5681 15.4501L5.25815 23.1401C5.16815 23.1901 5.13815 23.3001 5.18815 23.3901C5.23815 23.4801 5.34815 23.5101 5.43815 23.4601L18.7481 15.7801C18.8381 15.7301 18.8681 15.6201 18.8181 15.5301C18.7781 15.4701 18.7181 15.4301 18.6581 15.4301Z" fill="#BFFF0A"/>
<path d="M18.6581 16.59C18.6281 16.59 18.5981 16.6 18.5681 16.61L5.25815 24.29C5.16815 24.34 5.13815 24.45 5.18815 24.54C5.23815 24.63 5.34815 24.66 5.43815 24.61L18.7481 16.93C18.8381 16.88 18.8681 16.77 18.8181 16.68C18.7881 16.62 18.7181 16.59 18.6581 16.59Z" fill="#BFFF0A"/>
<path d="M18.6602 17.74C18.6302 17.74 18.6002 17.75 18.5702 17.76L5.26023 25.45C5.18023 25.5 5.15023 25.61 5.20023 25.7C5.25023 25.79 5.36023 25.82 5.45023 25.77L18.7602 18.09C18.8502 18.04 18.8802 17.93 18.8302 17.84C18.7902 17.77 18.7302 17.74 18.6602 17.74Z" fill="#BFFF0A"/>
<path d="M18.6599 18.89C18.6299 18.89 18.5999 18.9 18.5699 18.91L5.26987 26.6C5.17987 26.65 5.14987 26.76 5.19987 26.85C5.24987 26.94 5.35987 26.97 5.44987 26.92L18.7599 19.24C18.8499 19.19 18.8799 19.08 18.8299 18.99C18.7899 18.93 18.7299 18.89 18.6599 18.89Z" fill="#BFFF0A"/>
<path d="M18.6699 20.05C18.6399 20.05 18.6099 20.06 18.5799 20.07L5.26987 27.75C5.17987 27.8 5.14987 27.92 5.19987 28C5.24987 28.09 5.35987 28.12 5.44987 28.07L18.7599 20.39C18.8499 20.34 18.8799 20.23 18.8299 20.14C18.7899 20.08 18.7299 20.05 18.6699 20.05Z" fill="#BFFF0A"/>
<path d="M18.6699 21.2C18.6399 21.2 18.6099 21.2099 18.5799 21.2199L5.26987 28.91C5.17987 28.96 5.14987 29.07 5.19987 29.16C5.24987 29.25 5.35987 29.28 5.44987 29.2299L18.7599 21.5499C18.8499 21.4999 18.8799 21.3899 18.8299 21.2999C18.7899 21.2299 18.7299 21.2 18.6699 21.2Z" fill="#BFFF0A"/>
<path d="M18.6699 22.35C18.6399 22.35 18.6099 22.36 18.5799 22.37L5.26987 30.06C5.17987 30.11 5.14987 30.22 5.19987 30.31C5.24987 30.4 5.35987 30.43 5.44987 30.38L18.7599 22.7C18.8499 22.65 18.8799 22.54 18.8299 22.45C18.7999 22.39 18.7399 22.35 18.6699 22.35Z" fill="#BFFF0A"/>
<path d="M58.0082 53.38C57.9382 53.38 57.8682 53.42 57.8382 53.49C57.7982 53.58 57.8482 53.69 57.9382 53.73C60.8882 54.94 63.1582 56.61 64.4882 58.53C64.5482 58.61 64.6582 58.63 64.7482 58.58C64.8282 58.52 64.8482 58.41 64.7982 58.32C63.4282 56.33 61.1082 54.62 58.0882 53.38C58.0482 53.38 58.0282 53.38 58.0082 53.38Z" fill="white"/>
<path d="M58.0782 55.29C58.0582 55.28 58.0282 55.28 58.0082 55.28C57.9382 55.28 57.8682 55.32 57.8382 55.39C57.7982 55.48 57.8482 55.59 57.9382 55.63C60.8882 56.84 63.1582 58.51 64.4882 60.43C64.5482 60.51 64.6582 60.53 64.7482 60.48C64.8282 60.42 64.8482 60.31 64.7982 60.22C63.4182 58.24 61.0982 56.53 58.0782 55.29Z" fill="white"/>
<path d="M58.0782 57.1901C58.0582 57.1801 58.0282 57.1801 58.0082 57.1801C57.9382 57.1801 57.8682 57.2201 57.8382 57.2901C57.7982 57.3801 57.8482 57.4901 57.9382 57.5301C60.8882 58.7401 63.1582 60.4101 64.4882 62.3401C64.5482 62.4201 64.6582 62.4401 64.7482 62.3901C64.8282 62.3301 64.8482 62.2201 64.7982 62.1301C63.4182 60.1401 61.0982 58.4301 58.0782 57.1901Z" fill="white"/>
<path d="M36.2518 53.38C36.2318 53.38 36.2018 53.38 36.1818 53.39C33.1618 54.63 30.8418 56.34 29.4718 58.33C29.4118 58.41 29.4318 58.53 29.5218 58.59C29.6018 58.65 29.7218 58.63 29.7818 58.54C31.1118 56.61 33.3718 54.95 36.3318 53.74C36.4218 53.7 36.4718 53.59 36.4318 53.5C36.3918 53.42 36.3318 53.38 36.2518 53.38Z" fill="white"/>
<path d="M36.2518 55.28C36.2318 55.28 36.2018 55.28 36.1818 55.29C33.1618 56.53 30.8418 58.24 29.4718 60.23C29.4118 60.31 29.4318 60.43 29.5218 60.49C29.6018 60.55 29.7218 60.53 29.7818 60.44C31.1118 58.51 33.3718 56.85 36.3318 55.64C36.4218 55.6 36.4718 55.49 36.4318 55.4C36.3918 55.32 36.3318 55.28 36.2518 55.28Z" fill="white"/>
<path d="M36.2518 57.1801C36.2318 57.1801 36.2018 57.1801 36.1818 57.1901C33.1618 58.4301 30.8418 60.1401 29.4718 62.1301C29.4118 62.2101 29.4318 62.3301 29.5218 62.3901C29.6018 62.4501 29.7218 62.4301 29.7818 62.3401C31.1118 60.4101 33.3718 58.7501 36.3318 57.5301C36.4218 57.4901 36.4718 57.3801 36.4318 57.2901C36.3918 57.2201 36.3318 57.1801 36.2518 57.1801Z" fill="white"/>
<path d="M56.15 64.95C56.14 64.94 56.14 64.93 56.13 64.92C56.09 64.88 56.04 64.84 55.99 64.82C55.02 64.01 53.73 63.33 52.24 62.86C52.23 62.84 52.23 62.83 52.22 62.81C52.12 62.63 51.93 62.53 51.74 62.53C51.65 62.53 51.55 62.55 51.47 62.6L51.43 62.62C50.11 62.28 48.65 62.09 47.12 62.09C45.53 62.09 44.02 62.3 42.65 62.66C42.6 62.67 42.55 62.68 42.5 62.7C40.26 63.33 38.44 64.39 37.35 65.7C37.34 65.71 37.33 65.71 37.32 65.72C37.29 65.74 37.27 65.78 37.26 65.81C36.61 66.63 36.25 67.55 36.25 68.52C36.25 72.07 41.13 74.95 47.12 74.95C53.11 74.95 57.99 72.06 57.99 68.52C58 67.21 57.31 65.97 56.15 64.95ZM42.44 63.69L46.84 66.23C47.01 66.33 47.22 66.33 47.39 66.23L52.02 63.56C52.03 63.56 52.03 63.55 52.04 63.55C53.31 63.95 54.42 64.49 55.28 65.15C53.36 66.61 50.35 67.48 47.13 67.48C43.9 67.48 40.9 66.61 38.98 65.15C39.85 64.49 40.98 63.93 42.28 63.53C42.31 63.6 42.37 63.65 42.44 63.69ZM50.51 63.16L47.12 65.12L43.73 63.16C44.79 62.95 45.93 62.83 47.12 62.83C48.31 62.83 49.45 62.95 50.51 63.16ZM47.12 74.23C41.67 74.23 37.21 71.8 36.99 68.76C38.04 70.19 39.74 71.42 41.93 72.32C42.02 72.36 42.13 72.31 42.17 72.22C42.21 72.13 42.16 72.02 42.07 71.98C39.85 71.07 38.15 69.82 37.16 68.37C37.12 68.32 37.07 68.29 37.01 68.29C37 68.29 37 68.29 36.99 68.3C37.01 68 37.07 67.7 37.17 67.42C38.23 68.75 39.86 69.89 41.93 70.74C42.02 70.78 42.13 70.73 42.17 70.64C42.21 70.55 42.16 70.44 42.07 70.4C39.98 69.54 38.35 68.38 37.34 67.03C37.44 66.83 37.56 66.63 37.7 66.43C38.75 67.5 40.2 68.44 41.94 69.15C42.03 69.19 42.14 69.14 42.18 69.05C42.22 68.96 42.17 68.85 42.08 68.81C40.37 68.11 38.95 67.19 37.93 66.13C38.07 65.96 38.23 65.79 38.4 65.63C40.44 67.25 43.67 68.21 47.12 68.21C50.57 68.21 53.8 67.25 55.84 65.63C56 65.78 56.15 65.94 56.28 66.1C55.26 67.17 53.83 68.1 52.1 68.81C52.01 68.85 51.96 68.96 52 69.05C52.04 69.14 52.15 69.19 52.24 69.15C54 68.43 55.46 67.48 56.51 66.39C56.65 66.58 56.77 66.78 56.87 66.98C55.86 68.35 54.22 69.53 52.1 70.4C52.01 70.44 51.96 70.55 52 70.64C52.04 70.73 52.15 70.78 52.24 70.74C54.34 69.88 55.98 68.72 57.04 67.36C57.16 67.67 57.22 67.99 57.25 68.32C57.22 68.31 57.2 68.29 57.17 68.29C57.11 68.29 57.05 68.32 57.02 68.37C56.02 69.82 54.33 71.06 52.11 71.98C52.02 72.02 51.97 72.13 52.01 72.22C52.05 72.31 52.16 72.36 52.25 72.32C54.49 71.4 56.22 70.14 57.26 68.67C57.12 71.75 52.63 74.23 47.12 74.23Z" fill="#BFFF0A"/>
<path d="M18.5 8.5L5 16.5V30.5L18.5 23V8.5Z" fill="#BFFF0A"/>
</g>
<defs>
<clipPath id="clip0_3123_200">
<rect width="91.82" height="80" fill="white"/>
</clipPath>
</defs>
</svg>
