<svg width="96" height="80" viewBox="0 0 96 80" fill="none" xmlns="http://www.w3.org/2000/svg">
<path d="M85.8679 13.3546L91.8455 16.8032C91.9754 16.8732 92.1353 16.8732 92.2653 16.8032C92.3952 16.7332 92.4752 16.5933 92.4752 16.4434V9.54616C92.4752 9.39622 92.3952 9.25628 92.2653 9.18631L86.2877 5.73771C86.2277 5.69773 86.1478 5.67773 86.0778 5.67773C86.0078 5.67773 85.9379 5.69773 85.8679 5.73771C85.7379 5.80768 85.668 5.94762 85.668 6.09756V12.9948C85.668 13.1447 85.7379 13.2746 85.8679 13.3546ZM86.7075 12.8748L91.6355 10.026V15.7237L86.7075 12.8748ZM91.4256 9.66611L86.4976 12.515V6.81727L91.4256 9.66611Z" fill="#BFFF0A"/>
<path d="M0.0912537 12.265L5.54904 21.4513V44.192C5.54904 44.202 5.54904 44.202 5.54904 44.212C5.54904 44.232 5.54904 44.252 5.55903 44.282C5.55903 44.302 5.55903 44.322 5.56903 44.342C5.56903 44.362 5.57902 44.382 5.58902 44.402C5.59902 44.422 5.59902 44.4419 5.60901 44.4619C5.61901 44.4819 5.629 44.5019 5.639 44.5119C5.649 44.5319 5.65899 44.5419 5.66899 44.5619C5.67898 44.5819 5.69898 44.5919 5.70897 44.6119C5.71897 44.6219 5.73896 44.6419 5.74896 44.6519C5.75895 44.6619 5.77894 44.6819 5.78894 44.6918C5.80893 44.7018 5.82892 44.7218 5.84892 44.7318C5.85891 44.7318 5.85891 44.7418 5.86891 44.7418L12.1364 48.3604C12.1464 48.3604 12.1464 48.3604 12.1564 48.3703C12.1763 48.3803 12.1963 48.3903 12.2263 48.4003C12.2463 48.4103 12.2563 48.4103 12.2763 48.4203C12.2963 48.4303 12.3163 48.4303 12.3363 48.4303C12.3563 48.4303 12.3763 48.4403 12.3963 48.4403C12.4162 48.4403 12.4362 48.4403 12.4562 48.4403C12.4762 48.4403 12.4962 48.4403 12.5162 48.4403C12.5362 48.4403 12.5562 48.4303 12.5762 48.4303C12.5962 48.4303 12.6162 48.4203 12.6362 48.4203C12.6561 48.4203 12.6661 48.4103 12.6861 48.4003C12.7061 48.3903 12.7261 48.3803 12.7561 48.3703C12.7661 48.3703 12.7661 48.3704 12.7761 48.3604L18.4938 45.0617V51.669C18.4938 51.679 18.4938 51.679 18.4938 51.689C18.4938 51.709 18.4938 51.729 18.5038 51.759C18.5038 51.779 18.5138 51.799 18.5138 51.819C18.5138 51.8389 18.5238 51.8589 18.5338 51.8789C18.5438 51.8989 18.5438 51.9189 18.5538 51.9389C18.5638 51.9589 18.5737 51.9789 18.5837 51.9889C18.5937 52.0089 18.6037 52.0189 18.6137 52.0389C18.6237 52.0589 18.6437 52.0689 18.6537 52.0888C18.6637 52.0988 18.6837 52.1188 18.6937 52.1288C18.7037 52.1388 18.7237 52.1588 18.7337 52.1688C18.7537 52.1788 18.7737 52.1988 18.7937 52.2088C18.8037 52.2088 18.8037 52.2188 18.8136 52.2188L23.0019 54.6378L18.8136 57.0568C18.8037 57.0568 18.8037 57.0668 18.7937 57.0668C18.7737 57.0768 18.7537 57.0968 18.7437 57.1068C18.7237 57.1168 18.7137 57.1268 18.6937 57.1468C18.6837 57.1568 18.6637 57.1768 18.6537 57.1868C18.6437 57.2068 18.6237 57.2168 18.6137 57.2367C18.6037 57.2567 18.5937 57.2667 18.5837 57.2867C18.5737 57.3067 18.5638 57.3267 18.5538 57.3367C18.5438 57.3567 18.5438 57.3767 18.5338 57.3967C18.5238 57.4167 18.5238 57.4367 18.5138 57.4567C18.5138 57.4767 18.5038 57.4966 18.5038 57.5166C18.5038 57.5366 18.4938 57.5566 18.4938 57.5866C18.4938 57.5966 18.4938 57.5966 18.4938 57.6066V64.8437C18.4938 64.8537 18.4938 64.8537 18.4938 64.8637C18.4938 64.8836 18.4938 64.9036 18.5038 64.9336C18.5038 64.9536 18.5138 64.9736 18.5138 64.9936C18.5138 65.0136 18.5238 65.0336 18.5338 65.0536C18.5438 65.0736 18.5438 65.0936 18.5538 65.1135C18.5638 65.1335 18.5737 65.1535 18.5837 65.1635C18.5937 65.1835 18.6037 65.1935 18.6137 65.2135C18.6237 65.2335 18.6437 65.2435 18.6537 65.2635C18.6637 65.2735 18.6837 65.2935 18.6937 65.3035C18.7037 65.3135 18.7237 65.3335 18.7337 65.3435C18.7537 65.3535 18.7737 65.3735 18.7937 65.3834C18.8037 65.3834 18.8037 65.3934 18.8136 65.3934L43.9734 79.9175C44.1634 80.0275 44.4033 80.0275 44.6032 79.9175L69.763 65.3934C69.7729 65.3934 69.7729 65.3834 69.7829 65.3834C69.8029 65.3735 69.8229 65.3535 69.8329 65.3435C69.8529 65.3335 69.8629 65.3235 69.8829 65.3035C69.8929 65.2935 69.9129 65.2735 69.9229 65.2635C69.9329 65.2435 69.9529 65.2335 69.9629 65.2135C69.9729 65.1935 69.9829 65.1835 69.9929 65.1635C70.0029 65.1435 70.0129 65.1236 70.0229 65.1135C70.0328 65.0936 70.0328 65.0736 70.0428 65.0536C70.0528 65.0336 70.0528 65.0136 70.0628 64.9936C70.0628 64.9736 70.0728 64.9536 70.0728 64.9336C70.0728 64.9136 70.0828 64.8936 70.0828 64.8637C70.0828 64.8537 70.0828 64.8537 70.0828 64.8437V57.5766C70.0828 57.5666 70.0828 57.5666 70.0828 57.5566C70.0828 57.5366 70.0828 57.5166 70.0728 57.4866C70.0728 57.4667 70.0728 57.4467 70.0628 57.4267C70.0628 57.4067 70.0528 57.3867 70.0428 57.3667C70.0328 57.3467 70.0328 57.3267 70.0229 57.3067C70.0129 57.2867 70.0029 57.2667 69.9929 57.2567C69.9829 57.2368 69.9729 57.2268 69.9629 57.2068C69.9529 57.1868 69.9329 57.1768 69.9229 57.1568C69.9129 57.1368 69.8929 57.1268 69.8829 57.1168C69.8729 57.1068 69.8529 57.0868 69.8329 57.0768C69.8129 57.0668 69.7929 57.0468 69.7829 57.0368C69.7729 57.0368 69.7729 57.0268 69.763 57.0268L65.5747 54.6078L69.763 52.1888C69.7729 52.1888 69.7729 52.1788 69.7829 52.1788C69.8029 52.1688 69.8129 52.1588 69.8329 52.1388C69.8529 52.1288 69.8629 52.1088 69.8829 52.0988C69.8929 52.0888 69.9029 52.0788 69.9229 52.0589C69.9429 52.0389 69.9529 52.0189 69.9629 52.0089C69.9729 51.9989 69.9829 51.9789 69.9929 51.9689C70.0029 51.9489 70.0129 51.9289 70.0229 51.9089C70.0328 51.8889 70.0328 51.8789 70.0428 51.8589C70.0528 51.8389 70.0628 51.819 70.0628 51.789C70.0628 51.769 70.0728 51.759 70.0728 51.739C70.0728 51.719 70.0828 51.689 70.0828 51.659C70.0828 51.649 70.0828 51.649 70.0828 51.639V45.0317L75.8105 48.3404C75.8205 48.3404 75.8205 48.3404 75.8305 48.3504C75.8505 48.3604 75.8705 48.3704 75.9005 48.3803C75.9204 48.3903 75.9305 48.3903 75.9504 48.4003C75.9704 48.4103 75.9904 48.4103 76.0104 48.4103C76.0304 48.4103 76.0504 48.4203 76.0704 48.4203C76.0904 48.4203 76.1104 48.4203 76.1304 48.4203C76.1504 48.4203 76.1703 48.4203 76.1903 48.4203C76.2103 48.4203 76.2303 48.4103 76.2503 48.4103C76.2703 48.4103 76.2903 48.4003 76.3103 48.4003C76.3303 48.4003 76.3403 48.3903 76.3603 48.3803C76.3803 48.3704 76.4102 48.3604 76.4302 48.3504C76.4402 48.3504 76.4402 48.3504 76.4502 48.3404L82.7177 44.7218C82.7277 44.7218 82.7277 44.7118 82.7377 44.7118C82.7577 44.7018 82.7777 44.6819 82.7977 44.6719C82.8176 44.6619 82.8277 44.6519 82.8376 44.6319C82.8476 44.6219 82.8676 44.6019 82.8776 44.5919C82.8876 44.5719 82.9076 44.5619 82.9176 44.5419C82.9276 44.5219 82.9376 44.5119 82.9476 44.4919C82.9576 44.4719 82.9676 44.4519 82.9776 44.4419C82.9876 44.422 82.9876 44.402 82.9976 44.382C83.0076 44.362 83.0076 44.342 83.0176 44.322C83.0176 44.302 83.0276 44.282 83.0276 44.262C83.0276 44.242 83.0376 44.222 83.0376 44.192C83.0376 44.1821 83.0376 44.1821 83.0376 44.1721L83.0476 27.9387L94.8428 21.1314C95.0327 21.0215 95.1526 20.8115 95.1526 20.5916V8.15669C95.1526 7.93678 95.0327 7.72686 94.8428 7.61691L83.9872 1.37944C83.7972 1.26948 83.5574 1.26948 83.3574 1.37944L71.5622 8.19667L57.4979 0.0799675C57.4679 0.0599756 57.428 0.0499797 57.388 0.0399838C57.318 0.0199919 57.248 0 57.1881 0C57.1281 0 57.0581 0.00999594 56.9981 0.0299878C56.9582 0.0399838 56.9182 0.0599756 56.8782 0.0799675L50.6007 3.6985C50.5907 3.6985 50.5907 3.70849 50.5807 3.70849C50.5607 3.71849 50.5408 3.73848 50.5308 3.74848C50.5108 3.75847 50.5008 3.76847 50.4808 3.78846C50.4708 3.79846 50.4508 3.81845 50.4408 3.82844C50.4308 3.84844 50.4108 3.85843 50.4008 3.87842C50.3908 3.89842 50.3808 3.90841 50.3708 3.9284C50.3608 3.9484 50.3508 3.96839 50.3408 3.97838C50.3308 3.99838 50.3308 4.01837 50.3209 4.03836C50.3109 4.05835 50.3109 4.07834 50.3009 4.09834C50.3009 4.11833 50.2909 4.13832 50.2909 4.15831C50.2909 4.1783 50.2809 4.19829 50.2809 4.22828C50.2809 4.23828 50.2809 4.23828 50.2809 4.24827V10.8556L44.5532 7.54693C44.5132 7.52694 44.4732 7.50695 44.4332 7.49695C44.3733 7.47696 44.3033 7.46697 44.2433 7.46697C44.1833 7.46697 44.1134 7.47696 44.0534 7.49695C44.0234 7.50695 43.9834 7.52694 43.9434 7.54693L38.2158 10.8556V4.24827C38.2158 4.23828 38.2158 4.23828 38.2158 4.22828C38.2158 4.20829 38.2158 4.1883 38.2058 4.15831C38.2058 4.13832 38.2058 4.11833 38.1958 4.09834C38.1958 4.07834 38.1858 4.05835 38.1758 4.03836C38.1758 4.01837 38.1658 3.99838 38.1658 3.98838C38.1558 3.96839 38.1458 3.9484 38.1358 3.9384C38.1258 3.91841 38.1158 3.90841 38.1058 3.88842C38.0958 3.86843 38.0758 3.85843 38.0658 3.83844C38.0558 3.81845 38.0358 3.80845 38.0258 3.79846C38.0159 3.78846 37.9959 3.76847 37.9759 3.75847C37.9559 3.74848 37.9359 3.72849 37.9259 3.71849C37.9159 3.71849 37.9159 3.70849 37.9059 3.70849L31.6384 0.0899635C31.5985 0.0699716 31.5585 0.0499797 31.5185 0.0399838C31.4585 0.00999594 31.3885 0 31.3286 0C31.2686 0 31.1986 0.00999594 31.1386 0.0299878C31.0987 0.0399838 31.0587 0.0599756 31.0187 0.0799675L11.3267 11.4454L0.631034 11.3254H0.621039C0.401128 11.3254 0.191213 11.4454 0.0812578 11.6353C-0.0286976 11.8352 -0.0286976 12.0751 0.0912537 12.265ZM44.2533 71.8608L25.9907 61.3251L30.6988 58.6062L44.1534 66.373C44.2133 66.413 44.2933 66.413 44.3633 66.373L57.8178 58.6062L62.5259 61.3251L44.2533 71.8608ZM43.8335 44.0221V50.0497L30.279 57.8765L25.0511 54.8577L43.8335 44.0221ZM44.2533 50.7794L57.388 58.3663L44.2533 65.9532L31.1187 58.3663L44.2533 50.7794ZM44.6731 50.0497V44.0221L63.4555 54.8677L58.2276 57.8865L44.6731 50.0497ZM19.7233 58.1864L24.7412 61.0852L19.7233 63.974V58.1864ZM19.9332 57.8265L24.6413 55.1076L29.8692 58.1264L25.1611 60.8453L19.9332 57.8265ZM58.6475 58.1164L63.8753 55.0976L68.5834 57.8165L63.3556 60.8353L58.6475 58.1164ZM68.7833 58.1864V63.974L63.7654 61.0752L68.7833 58.1864ZM64.2852 53.8981L44.5732 42.5127C44.4732 42.4528 44.3633 42.4328 44.2633 42.4328C44.1534 42.4328 44.0434 42.4627 43.9534 42.5127L24.2215 53.8981L20.1431 51.5391L44.2533 37.6147L68.3635 51.5391L64.2852 53.8981ZM43.8335 36.895L19.7233 50.8194V44.9417L21.1227 47.2908C21.1327 47.3108 21.1527 47.3308 21.1727 47.3508C21.1927 47.3708 21.2127 47.4007 21.2327 47.4107C21.2527 47.4307 21.2826 47.4307 21.3026 47.4507C21.3226 47.4607 21.3526 47.4807 21.3726 47.4807C21.3926 47.4907 21.4126 47.4807 21.4426 47.4807C21.4726 47.4807 21.5026 47.4907 21.5425 47.4907C21.5625 47.4907 21.5825 47.4807 21.6025 47.4707C21.6325 47.4607 21.6725 47.4607 21.7025 47.4407L41.7043 35.8954C41.7143 35.8854 41.7243 35.8854 41.7343 35.8754C41.7443 35.8654 41.7543 35.8554 41.7643 35.8554C41.8043 35.8254 41.8343 35.7855 41.8643 35.7455C41.8843 35.7055 41.9043 35.6555 41.9143 35.6055C41.9143 35.5955 41.9143 35.5756 41.9143 35.5656C41.9143 35.5556 41.9143 35.5456 41.9143 35.5356V12.4449C41.9143 12.415 41.9043 12.395 41.8943 12.375C41.8843 12.345 41.8843 12.315 41.8743 12.285C41.8643 12.255 41.8443 12.235 41.8243 12.215C41.8143 12.195 41.8043 12.1651 41.7843 12.1551C41.7643 12.1351 41.7343 12.1251 41.7143 12.1051C41.6944 12.0951 41.6744 12.0751 41.6544 12.0651C41.6244 12.0551 41.5944 12.0551 41.5744 12.0451C41.5444 12.0351 41.5244 12.0251 41.4944 12.0251L38.7555 11.9951L43.8435 9.05632V36.895H43.8335ZM12.4362 47.0909L11.9364 46.801L36.0466 32.8866L36.5464 33.1765L12.4362 47.0909ZM10.7169 46.1013L34.8271 32.1769L35.6368 32.6467L11.5166 46.5611L10.7169 46.1013ZM9.48744 45.3916L33.5976 31.4672L34.4073 31.937L10.2971 45.8514L9.48744 45.3916ZM8.26793 44.6819L32.3781 30.7575L33.1778 31.2173L9.0776 45.1517L8.26793 44.6819ZM6.60861 20.8015L6.09881 19.9419L9.86728 17.7628L10.9468 18.3825L6.60861 20.8015ZM3.87971 14.3042L4.95928 14.9239L3.58983 15.7136L3.04006 14.794L3.87971 14.3042ZM2.83014 14.4341L2.17041 13.3246L3.45989 14.0743L2.83014 14.4341ZM5.37911 15.1738L6.45867 15.7936L4.35952 17.0031L3.80974 16.0735L5.37911 15.1738ZM6.8685 16.0335L7.94806 16.6532L5.11921 18.2926L4.56944 17.3629L6.8685 16.0335ZM8.36789 16.9031L9.44745 17.5229L5.8789 19.582L5.32913 18.6524L8.36789 16.9031ZM11.3667 17.6628L10.2871 17.0431V12.6948L11.2867 12.7048L11.3667 17.6628ZM9.87728 16.8032L8.79772 16.1834V12.6749L9.87728 12.6848V16.8032ZM8.37789 15.9435L7.29833 15.3138V12.6549L8.37789 12.6649V15.9435ZM6.8785 15.0739L5.79894 14.4541V12.6449L6.8785 12.6549V15.0739ZM5.37911 14.2142L4.29954 13.5845V12.6149L5.37911 12.6249V14.2142ZM3.87971 13.3446L2.59024 12.5949L3.87971 12.6149V13.3446ZM6.79853 21.2914C6.79853 21.2514 6.78853 21.2214 6.78853 21.1814L11.3767 18.6324L12.4562 19.2522L7.21836 22.211L6.79853 21.5213V21.2914ZM12.8661 19.5021L13.9456 20.1218L7.99804 23.5604L7.41828 22.5808L12.8661 19.5021ZM14.3655 20.3617L15.445 20.9915L8.76773 24.8499L8.21795 23.9203L14.3655 20.3617ZM15.8648 21.2314L16.9444 21.8511L9.52742 26.1394L8.97764 25.2098L15.8648 21.2314ZM17.3642 22.091L18.4438 22.7108L10.2971 27.4189L9.74733 26.4892L17.3642 22.091ZM18.8636 22.9607L19.9432 23.5904L11.0968 28.7883L10.507 27.7887L18.8636 22.9607ZM25.271 25.6996L25.281 12.6649L26.3306 12.6749V26.3093L25.271 25.6996ZM21.4426 24.4501L11.8265 30.0078L11.3167 29.1382L20.363 23.8203L21.4426 24.4501ZM23.3618 12.6449V24.59L22.2822 23.9703V12.6349L23.3618 12.6449ZM24.8612 12.6549L24.8512 25.4497L23.7716 24.8299L23.7816 12.6449L24.8612 12.6549ZM21.8624 24.69L22.942 25.3097L12.5962 31.2873L12.0464 30.3577L21.8624 24.69ZM12.8061 31.6471L23.3518 25.5496L24.4314 26.1694L13.3559 32.5768L12.8061 31.6471ZM25.4909 11.8352L26.3306 11.3554V11.8552L25.4909 11.8352ZM26.3306 10.8656L24.6713 11.8252L23.4518 11.8152L26.3306 10.1859V10.8656ZM21.8624 12.6249V23.7304L20.7829 23.1106L20.8628 12.6149L21.8624 12.6249ZM11.5766 31.2173L11.6066 35.2957L11.1668 35.5556V30.5276L11.5766 31.2173ZM12.0264 35.0558L11.9964 31.927L12.6162 32.9766V34.7059L12.0264 35.0558ZM13.036 33.6763L13.3859 34.2661L13.036 34.466V33.6763ZM14.1056 33.8463L13.5658 32.9366L24.8512 26.4193L25.9108 27.029L14.1056 33.8463ZM26.3306 9.69606L22.6321 11.7952L21.9824 11.7852L26.3406 9.26624V9.69606H26.3306ZM20.443 12.6049L20.363 22.8607L19.2835 22.231V12.5849L20.443 12.6049ZM18.8636 21.9911L17.7841 21.3713V12.5749L18.8636 12.5849V21.9911ZM17.3642 21.1314L16.2847 20.5017V12.5549L17.3642 12.5649V21.1314ZM15.8648 20.2618L14.7853 19.642V12.5349L15.8648 12.5449V20.2618ZM14.3655 19.4021L13.2859 18.7724L13.2259 12.5149L14.3655 12.5249V19.4021ZM12.8161 12.5149L12.8661 18.5325L11.7865 17.9127L11.7065 12.6649C11.7365 12.6549 11.7665 12.6449 11.8065 12.6249L12.0164 12.5049L12.8161 12.5149ZM7.21836 44.0821L31.3286 30.1578L31.9683 30.5276L7.8481 44.4419L7.21836 44.0821ZM21.6325 46.5211L21.3826 46.1113L40.155 35.2657L40.6448 35.5456L21.6325 46.5211ZM37.8059 33.8962L38.3957 34.2361L20.483 44.5819L20.1831 44.0721L37.8059 33.8962ZM38.8055 34.476L39.7451 35.0158L21.1727 45.7414L20.6929 44.9417L38.8055 34.476ZM41.0646 34.8159L40.5748 34.536L40.5848 12.8448L41.0646 12.8548V34.8159ZM40.165 34.2961L39.2254 33.7563L39.2354 12.8348L40.175 12.8448L40.165 34.2961ZM38.8055 33.5164L38.2158 33.1765V12.8248L38.8155 12.8348L38.8055 33.5164ZM36.9663 32.4468L36.4265 32.1369V4.29825L36.9663 4.60813V32.4468ZM36.0067 31.897L35.197 31.4272V3.58854L35.9967 4.04836L36.0067 31.897ZM34.7872 31.1873L33.9775 30.7175V2.87883L34.7872 3.34864V31.1873ZM33.5577 30.4776L32.758 30.0178V2.17911L33.5577 2.63893V30.4776ZM32.3382 29.7779L31.7384 29.438V1.59935L32.3382 1.93921V29.7779ZM30.9087 29.428L6.79853 43.3524V23.1606L10.3271 29.1182V36.2753C10.3271 36.4252 10.4071 36.5651 10.537 36.6351C10.667 36.7051 10.8269 36.7051 10.9568 36.6351L26.9603 27.3989C26.9703 27.3889 26.9903 27.3789 27.0003 27.3689C27.0003 27.3689 27.0003 27.3689 27.0103 27.3689C27.1003 27.2989 27.1503 27.2089 27.1703 27.099C27.1703 27.089 27.1703 27.089 27.1703 27.079C27.1703 27.069 27.1803 27.049 27.1803 27.039V12.4649C27.2102 12.405 27.2402 12.345 27.2402 12.265C27.2402 12.1851 27.2202 12.1251 27.1803 12.0551V8.55653C27.1803 8.40659 27.1003 8.26664 26.9703 8.19667C26.9104 8.15669 26.8304 8.13669 26.7604 8.13669C26.6905 8.13669 26.6205 8.15669 26.5505 8.19667L20.353 11.7752L13.4358 11.6952L30.9187 1.59935L30.9087 29.428ZM20.1431 64.6937L25.5709 61.555L44.0434 72.2207V78.4981L20.1431 64.6937ZM44.4632 78.4981V72.2207L62.9357 61.555L68.3635 64.6937L44.4632 78.4981ZM80.6985 44.422L56.5883 30.4976L57.1881 30.1578L81.2983 44.0821L80.6985 44.422ZM79.479 45.1317L55.3688 31.2073L56.1785 30.7475L80.2887 44.6719L79.479 45.1317ZM78.2595 45.8314L54.1393 31.907L54.949 31.4472L79.0592 45.3716L78.2595 45.8314ZM77.03 46.5411L52.9198 32.6168L53.7295 32.1469L77.8397 46.0713L77.03 46.5411ZM76.0704 47.0909L51.9602 33.1765L52.5 32.8666L76.6202 46.781L76.0704 47.0909ZM62.146 27.2889L63.2256 26.6692L73.1816 32.4168L72.102 33.0366L62.146 27.2889ZM81.4782 27.6288L71.5222 21.8811L72.6818 21.2114L82.4278 26.8391L82.048 27.059C81.898 27.149 81.7881 27.2989 81.7481 27.4688L81.4782 27.6288ZM76.7501 30.3577L66.7942 24.61L67.9537 23.9403L77.9096 29.6879L76.7501 30.3577ZM73.5914 32.1769L63.6354 26.4293L64.795 25.7595L74.7509 31.5072L73.5914 32.1769ZM61.7262 15.0739L62.8058 14.4541V25.9495L61.7262 26.5692V15.0739ZM83.6673 14.864L93.4133 20.4917L92.2938 21.1414L82.5478 15.5137L83.6673 14.864ZM74.2511 20.3018L83.9972 25.9295L82.8376 26.5992L73.0916 20.9715L74.2511 20.3018ZM74.671 20.0619L75.8305 19.3921L85.5765 25.0198L84.417 25.6896L74.671 20.0619ZM76.2503 19.1522L77.4099 18.4825L87.1559 24.1102L85.9964 24.7799L76.2503 19.1522ZM77.8197 18.2426L78.9792 17.5729L88.7253 23.2006L87.5657 23.8703L77.8197 18.2426ZM79.399 17.333L80.5586 16.6632L90.3046 22.2909L89.1451 22.9607L79.399 17.333ZM80.9784 16.4233L82.1379 15.7536L91.884 21.3813L90.7244 22.051L80.9784 16.4233ZM80.5586 15.6936V4.44819L81.7181 3.77847V15.0339L80.5586 15.6936ZM80.1387 15.9435L78.9792 16.6133V5.35782L80.1387 4.6881V15.9435ZM78.5594 16.8532L77.3998 17.5229V6.26745L78.5594 5.59773V16.8532ZM76.99 17.7628L75.8305 18.4325V7.17708L76.99 6.50736V17.7628ZM75.4107 18.6724L74.2511 19.3421V8.08672L75.4107 7.41699V18.6724ZM73.8413 19.582L72.6818 20.2518V8.99635L73.8413 8.32662V19.582ZM64.3851 13.5445V25.0398L63.2256 25.7096V14.2142L64.3851 13.5445ZM64.805 24.7999V13.3046L65.9645 12.6349V24.1302L64.805 24.7999ZM66.3743 23.8903V12.395L67.5339 11.7252V23.2206L66.3743 23.8903ZM64.705 12.395L61.7262 10.7057V9.74604L65.5047 11.9252L64.705 12.395ZM64.2852 12.6349L63.4255 13.1347L61.7362 12.1551V11.1855L64.2852 12.6349ZM61.7262 12.6349L63.0057 13.3746L62.1361 13.8744L61.7262 13.6445V12.6349ZM75.1708 31.2673L65.2148 25.5196L66.3743 24.8499L76.3303 30.5976L75.1708 31.2673ZM93.8332 8.51654V19.772L84.0871 14.1443V2.88883L93.8332 8.51654ZM83.2575 14.1443L82.1379 14.794V3.53856L83.2575 2.88883V14.1443ZM71.8721 9.45616L72.2619 9.23625V20.4917L71.1024 21.1614V9.66607L71.3723 9.51614C71.5322 9.56611 71.7222 9.54612 71.8721 9.45616ZM70.6826 21.4013L69.5231 22.071V10.5757L70.6826 9.90598V21.4013ZM69.1132 22.3109L67.9537 22.9807V11.4853L69.1132 10.8156V22.3109ZM65.9245 11.6853L61.7262 9.26624V8.49655L66.5842 11.3054L65.9245 11.6853ZM72.9616 33.5064V33.5364L72.9417 33.5264L72.9616 33.5064ZM73.3715 33.2665L74.2411 32.7667V34.2761L73.3715 33.7763V33.2665ZM74.661 32.5268L75.5006 32.047V35.0058L74.661 34.526V32.5268ZM75.9105 35.2357V31.7971L76.7501 31.3173V35.7255L75.9105 35.2357ZM77.1699 31.0774L77.7997 30.7175V36.3352L77.1699 35.9754V31.0774ZM78.3195 29.448L68.3635 23.7004L69.5231 23.0306L79.479 28.7783L78.3195 29.448ZM79.8988 28.5384L69.9429 22.7907L71.1024 22.121L81.0584 27.8687L79.8988 28.5384ZM67.4239 10.8256L61.5163 7.41699C61.4563 7.377 61.3764 7.35701 61.3064 7.35701C61.2364 7.35701 61.1664 7.377 61.0965 7.41699C60.9765 7.48696 60.8966 7.6269 60.8966 7.77684V14.724C60.8666 14.804 60.8766 14.884 60.8966 14.9739V27.2989C60.8966 27.4489 60.9765 27.5888 61.1065 27.6588L71.7821 33.8263C71.8421 33.8862 71.9121 33.9262 71.992 33.9462L78.0096 37.4148C78.1395 37.4848 78.2995 37.4848 78.4294 37.4148C78.5594 37.3448 78.6393 37.2049 78.6393 37.0549V30.2377L81.7381 28.4484L81.7281 43.3624L57.5979 29.438V1.58935L70.5126 9.03633L67.4239 10.8256ZM56.7682 29.438L56.1285 29.8079V1.9592L56.7682 1.58935V29.438ZM55.7087 30.0378L54.909 30.4976V2.65892L55.7187 2.18911V30.0378H55.7087ZM54.4892 30.7475L53.6795 31.2173V3.36863L54.4792 2.90882L54.4892 30.7475ZM53.2697 31.4572L52.46 31.917V4.07834L53.2697 3.61853V31.4572ZM52.0402 32.1569L51.5404 32.4468V4.60813L52.0402 4.31825V32.1569ZM50.2909 13.6844L47.492 12.0651C47.462 12.0451 47.422 12.0351 47.392 12.0351C47.3221 12.0351 47.2521 12.0751 47.2121 12.1351C47.1521 12.235 47.1921 12.365 47.2921 12.425L50.3009 14.1642V15.5437L47.502 13.9243C47.472 13.9044 47.432 13.8944 47.402 13.8944C47.3321 13.8944 47.2621 13.9343 47.2221 13.9943C47.1621 14.0943 47.2021 14.2242 47.3021 14.2842L50.3109 16.0235V17.4029L47.482 15.7936C47.452 15.7736 47.412 15.7636 47.382 15.7636C47.3121 15.7636 47.2421 15.8036 47.2021 15.8636C47.1421 15.9635 47.1821 16.0935 47.2821 16.1534L50.2909 17.8927V19.2722L47.482 17.6528C47.452 17.6328 47.412 17.6228 47.382 17.6228C47.3121 17.6228 47.2421 17.6628 47.2021 17.7228C47.1421 17.8228 47.1821 17.9527 47.2821 18.0127L50.3009 19.752V21.1314L47.492 19.5121C47.462 19.4921 47.422 19.4821 47.392 19.4821C47.3221 19.4821 47.2521 19.5221 47.2121 19.582C47.1521 19.682 47.1921 19.812 47.2921 19.8719L50.3109 21.6212V23.0007L47.492 21.3713C47.462 21.3513 47.422 21.3413 47.392 21.3413C47.3221 21.3413 47.2521 21.3813 47.2121 21.4413C47.1521 21.5413 47.1921 21.6712 47.2921 21.7312L50.3209 23.4805V24.8599L47.502 23.2306C47.472 23.2106 47.432 23.2006 47.402 23.2006C47.3321 23.2006 47.2621 23.2406 47.2221 23.3005C47.1621 23.4005 47.2021 23.5304 47.3021 23.5904L50.3308 25.3397V26.7191L47.512 25.0898C47.482 25.0698 47.442 25.0598 47.412 25.0598C47.3421 25.0598 47.2721 25.0998 47.2321 25.1598C47.1721 25.2597 47.2121 25.3897 47.3121 25.4497L50.3408 27.199V28.5784L47.512 26.9491C47.482 26.9291 47.442 26.9191 47.412 26.9191C47.3421 26.9191 47.2721 26.959 47.2321 27.019C47.1721 27.119 47.2121 27.2489 47.3121 27.3089L50.3508 29.0582V30.4376L47.522 28.8083C47.492 28.7883 47.452 28.7783 47.422 28.7783C47.3521 28.7783 47.2821 28.8183 47.2421 28.8783C47.1821 28.9782 47.2221 29.1082 47.3221 29.1682L50.3608 30.9174V32.2969L47.532 30.6575C47.502 30.6376 47.462 30.6276 47.432 30.6276C47.3621 30.6276 47.2921 30.6675 47.2521 30.7275C47.1921 30.8275 47.2321 30.9574 47.3321 31.0174L50.3708 32.7767V33.2665C50.3708 33.4864 50.4908 33.6963 50.6807 33.8063L68.8633 44.302V44.8318L47.452 32.5468C47.422 32.5268 47.382 32.5168 47.3521 32.5168C47.2821 32.5168 47.2121 32.5568 47.1721 32.6168C47.1122 32.7167 47.1521 32.8467 47.2521 32.9066L68.7334 45.3116C68.7534 45.3216 68.7734 45.3216 68.7933 45.3316V46.731L47.452 34.406C47.422 34.386 47.382 34.376 47.3521 34.376C47.2821 34.376 47.2121 34.416 47.1721 34.476C47.1122 34.576 47.1521 34.7059 47.2521 34.7659L68.7334 47.1708C68.7534 47.1808 68.7734 47.1908 68.7933 47.1908V50.8194L44.6731 36.895V9.05632L50.2909 12.305V13.6844Z" fill="white"/>
<path d="M45 54L36 59L43 63L52 58L45 54Z" fill="#BFFF0A"/>
</svg>
