<svg width="92" height="80" viewBox="0 0 92 80" fill="none" xmlns="http://www.w3.org/2000/svg">
<g clip-path="url(#clip0_3123_155)">
<path d="M2.73125 16.22C2.85125 16.29 3.01125 16.29 3.13125 16.22L8.90125 12.89C9.02125 12.82 9.10125 12.68 9.10125 12.54V5.87998C9.10125 5.73998 9.02125 5.59998 8.90125 5.52998C8.83125 5.49998 8.77125 5.47998 8.70125 5.47998C8.63125 5.47998 8.56125 5.49998 8.50125 5.52998L2.73125 8.85998C2.61125 8.92998 2.53125 9.06998 2.53125 9.20998V15.87C2.53125 16.02 2.60125 16.15 2.73125 16.22ZM3.33125 9.67998L8.09125 12.43L3.33125 15.18V9.67998ZM8.29125 12.08L3.53125 9.32998L8.29125 6.57998V12.08Z" fill="#BFFF0A"/>
<path d="M0.3 20.42L11.69 27L11.7 42.68C11.7 42.69 11.7 42.69 11.7 42.7C11.7 42.72 11.7 42.74 11.71 42.76C11.71 42.78 11.71 42.8 11.72 42.82C11.72 42.84 11.73 42.86 11.74 42.88C11.75 42.9 11.75 42.92 11.76 42.94C11.77 42.96 11.78 42.97 11.79 42.99C11.8 43.01 11.81 43.02 11.82 43.04C11.83 43.05 11.84 43.07 11.86 43.08C11.87 43.09 11.89 43.11 11.9 43.12C11.91 43.13 11.93 43.14 11.94 43.15C11.96 43.16 11.98 43.18 11.99 43.19C12 43.19 12 43.2 12.01 43.2L18.06 46.69C18.07 46.69 18.07 46.69 18.08 46.7C18.1 46.71 18.12 46.72 18.14 46.73C18.16 46.74 18.17 46.74 18.19 46.75C18.21 46.76 18.23 46.76 18.25 46.76C18.27 46.76 18.29 46.77 18.31 46.77C18.33 46.77 18.35 46.77 18.37 46.77C18.39 46.77 18.41 46.77 18.43 46.77C18.45 46.77 18.47 46.76 18.49 46.76C18.51 46.76 18.53 46.75 18.55 46.75C18.57 46.74 18.59 46.74 18.6 46.73C18.62 46.72 18.64 46.71 18.66 46.7C18.67 46.7 18.67 46.7 18.68 46.69L24.21 43.5V49.88C24.21 49.89 24.21 49.89 24.21 49.9C24.21 49.92 24.21 49.94 24.22 49.96C24.22 49.98 24.23 50 24.23 50.02C24.23 50.04 24.24 50.06 24.25 50.07C24.26 50.09 24.26 50.11 24.27 50.13C24.28 50.15 24.29 50.16 24.3 50.18C24.31 50.2 24.32 50.21 24.33 50.23C24.34 50.24 24.35 50.26 24.37 50.27C24.38 50.29 24.4 50.3 24.41 50.31C24.42 50.32 24.44 50.33 24.45 50.34C24.47 50.35 24.49 50.37 24.5 50.38C24.51 50.38 24.51 50.39 24.52 50.39L32.45 54.97L24.52 59.55C24.51 59.55 24.51 59.56 24.5 59.56C24.48 59.57 24.46 59.59 24.45 59.6C24.44 59.61 24.42 59.62 24.41 59.63C24.4 59.64 24.38 59.66 24.37 59.67C24.36 59.68 24.35 59.7 24.33 59.71C24.32 59.73 24.31 59.74 24.3 59.76C24.29 59.78 24.28 59.79 24.27 59.81C24.26 59.83 24.26 59.85 24.25 59.87C24.24 59.89 24.24 59.91 24.23 59.92C24.23 59.94 24.22 59.96 24.22 59.98C24.22 60 24.21 60.02 24.21 60.04C24.21 60.05 24.21 60.05 24.21 60.06V65.35C24.21 65.36 24.21 65.36 24.21 65.37C24.21 65.39 24.21 65.41 24.22 65.43C24.22 65.45 24.23 65.47 24.23 65.49C24.23 65.51 24.24 65.53 24.25 65.54C24.26 65.56 24.26 65.58 24.27 65.6C24.28 65.62 24.29 65.63 24.3 65.65C24.31 65.67 24.32 65.68 24.33 65.7C24.34 65.71 24.35 65.73 24.37 65.74C24.38 65.76 24.4 65.77 24.41 65.78C24.42 65.79 24.44 65.8 24.45 65.81C24.47 65.82 24.49 65.84 24.5 65.85C24.51 65.85 24.51 65.86 24.52 65.86L48.81 79.88C49 79.99 49.23 79.99 49.41 79.88L73.66 65.9C73.67 65.9 73.67 65.89 73.68 65.89C73.7 65.88 73.72 65.86 73.73 65.85C73.74 65.84 73.76 65.83 73.77 65.82C73.78 65.81 73.8 65.79 73.81 65.78C73.82 65.77 73.84 65.75 73.85 65.74C73.86 65.72 73.87 65.71 73.88 65.69C73.89 65.67 73.9 65.66 73.91 65.64C73.92 65.62 73.92 65.6 73.93 65.58C73.94 65.56 73.94 65.54 73.95 65.53C73.95 65.51 73.96 65.49 73.96 65.47C73.96 65.45 73.97 65.43 73.97 65.41C73.97 65.4 73.97 65.4 73.97 65.39V60.1C73.97 60.09 73.97 60.09 73.97 60.08C73.97 60.06 73.97 60.04 73.96 60.02C73.96 60 73.96 59.98 73.95 59.96C73.95 59.94 73.94 59.92 73.93 59.91C73.92 59.89 73.92 59.87 73.91 59.85C73.9 59.83 73.89 59.82 73.88 59.8C73.87 59.78 73.86 59.76 73.85 59.75C73.84 59.73 73.83 59.72 73.81 59.71C73.8 59.7 73.78 59.68 73.77 59.67C73.76 59.66 73.74 59.65 73.73 59.64C73.71 59.63 73.69 59.61 73.68 59.6C73.67 59.6 73.67 59.59 73.66 59.59L65.73 55.01L73.66 50.43L73.67 50.42C73.69 50.41 73.72 50.39 73.74 50.37C73.75 50.36 73.76 50.36 73.77 50.35C73.79 50.33 73.81 50.31 73.83 50.29C73.84 50.28 73.85 50.27 73.85 50.26C73.87 50.24 73.88 50.21 73.89 50.19C73.9 50.18 73.9 50.17 73.91 50.16C73.92 50.14 73.93 50.11 73.94 50.08C73.94 50.07 73.95 50.06 73.95 50.05C73.96 50.03 73.96 50 73.96 49.98C73.96 49.97 73.96 49.95 73.96 49.94C73.96 49.93 73.96 49.92 73.96 49.91V31.11L91.79 11.86C91.97 11.66 92 11.37 91.87 11.15C91.74 10.92 91.47 10.8 91.21 10.87L65.86 16.8L49.38 7.29C49.31 7.25 49.24 7.23 49.16 7.22C49.13 7.22 49.11 7.21 49.08 7.21C49.04 7.21 49.01 7.22 48.97 7.22C48.9 7.23 48.84 7.25 48.78 7.29L43.25 10.48V4.1C43.25 4.09 43.25 4.09 43.25 4.08C43.25 4.06 43.25 4.04 43.24 4.02C43.24 4 43.24 3.98 43.23 3.97C43.23 3.95 43.22 3.93 43.21 3.91C43.2 3.89 43.2 3.87 43.19 3.86C43.18 3.84 43.17 3.83 43.16 3.81C43.15 3.79 43.14 3.78 43.13 3.76C43.12 3.74 43.11 3.73 43.09 3.72C43.08 3.71 43.06 3.69 43.05 3.68C43.04 3.67 43.02 3.66 43.01 3.65C43 3.61 42.98 3.6 42.96 3.59C42.95 3.59 42.95 3.58 42.94 3.58L36.9 0.08C36.86 0.06 36.82 0.04 36.77 0.03C36.71 0.01 36.65 0 36.59 0C36.53 0 36.47 0.01 36.41 0.03C36.37 0.04 36.33 0.06 36.29 0.08L22.71 7.91L11.32 1.33C11.13 1.22 10.9 1.22 10.72 1.33L0.3 7.35C0.11 7.46 0 7.66 0 7.87V19.9C0 20.11 0.12 20.31 0.3 20.42ZM18.36 45.47L17.88 45.19L41.16 31.75L41.64 32.03L18.36 45.47ZM16.69 44.51L39.97 31.07L40.75 31.52L17.47 44.96L16.69 44.51ZM15.51 43.83L38.79 30.39L39.57 30.84L16.29 44.27L15.51 43.83ZM14.33 43.14L37.61 29.7L38.39 30.15L15.11 43.59L14.33 43.14ZM22.19 31.9L21.15 31.3L30.76 25.75L31.8 26.35L22.19 31.9ZM11.02 14.35L12.1 14.98L2.7 20.41L1.62 19.78L11.02 14.35ZM32.2 13.13L31.77 13.37L30.93 12.89L32.19 12.16V13.13H32.2ZM19.63 30.42L29.24 24.87L30.36 25.52L20.75 31.07L19.63 30.42ZM16.59 28.66L26.2 23.11L27.32 23.76L17.71 29.31L16.59 28.66ZM15.15 16.73L5.74 22.16L4.62 21.51L14.03 16.08L15.15 16.73ZM15.55 16.97L16.67 17.62L7.26 23.05L6.14 22.4L15.55 16.97ZM17.07 17.84L18.19 18.48L8.78 23.91L7.66 23.26L17.07 17.84ZM18.59 18.72L19.71 19.37L10.3 24.8L9.18 24.15L18.59 18.72ZM20.11 19.6L21.23 20.24L11.82 25.67L10.7 25.02L20.11 19.6ZM30.76 13.72V24.82L29.64 24.18V13.08L30.76 13.72ZM29.24 12.84V23.94L28.12 23.3V12.2L29.24 12.84ZM27.72 23.99L28.84 24.64L19.23 30.19L18.11 29.54L27.72 23.99ZM32.2 25.65L31.16 25.05V13.95L32.2 14.55V25.65ZM32.2 11.7L30.53 12.66L29.72 12.19L32.19 10.76V11.7H32.2ZM32.2 10.3L29.32 11.96L28.51 11.49L32.19 9.36V10.3H32.2ZM27.72 11.96V23.06L26.6 22.41V11.31L27.72 11.96ZM20.51 18.9V8.04L21.63 8.69V19.55L20.51 18.9ZM20.11 18.67L18.99 18.02V7.16L20.11 7.81V18.67ZM18.59 17.79L17.47 17.15V6.29L18.59 6.94V17.79ZM17.07 16.91L15.95 16.26V5.4L17.07 6.05V16.91ZM15.55 16.03L14.43 15.39V4.53L15.55 5.18V16.03ZM14.03 15.16L12.91 14.51V3.65L14.03 4.29V15.16ZM13.62 15.85L4.21 21.28L3.1 20.64L12.51 15.21L13.62 15.85ZM12.6 26.12L12.23 25.9L21.64 20.47L22.76 21.12L13.15 26.67L12.89 26.52C12.85 26.36 12.75 26.21 12.6 26.12ZM23.15 21.36L24.27 22L14.66 27.55L13.54 26.9L23.15 21.36ZM24.68 22.23L25.8 22.88L16.19 28.43L15.07 27.78L24.68 22.23ZM16.69 29.65L17.33 30.02V34.7L16.69 35.07V29.65ZM17.74 30.25L18.52 30.7L18.55 34L17.75 34.46V30.25H17.74ZM18.94 33.77L18.92 30.93L19.75 31.41V33.3L18.94 33.77ZM20.15 31.65L20.99 32.13V32.58L20.15 33.07V31.65ZM32.18 13.61L32.2 13.6V13.62L32.18 13.61ZM32.2 8.91L28.11 11.27L27.5 10.92L32.19 8.21V8.91H32.2ZM26.2 11.09V22.19L25.08 21.54V10.44L26.2 11.09ZM24.68 21.3L23.56 20.65V9.55L24.68 10.2V21.3ZM23.15 9.33V20.43L22.03 19.78V8.92L22.4 9.13C22.55 9.22 22.73 9.23 22.89 9.18L23.15 9.33ZM12.51 14.28L11.43 13.65V2.79L12.51 3.42V14.28ZM10.62 13.65L1.21 19.08V8.22L10.62 2.79V13.65ZM13.31 42.56L36.59 29.12L37.21 29.48L13.93 42.91L13.31 42.56ZM42.04 31.33L41.52 31.03V4.15L42.04 4.45V31.33ZM41.11 30.79L40.33 30.34V3.46L41.11 3.91V30.79ZM39.93 30.11L39.15 29.66V2.78L39.93 3.23V30.11ZM38.75 29.43L37.97 28.98V2.1L38.75 2.55V29.43ZM37.57 28.75L37 28.42V1.54L37.58 1.87L37.57 28.75ZM36.19 28.42L12.91 41.86L12.9 27.46L15.89 29.18V35.76C15.89 35.9 15.97 36.04 16.09 36.11C16.21 36.18 16.37 36.18 16.49 36.11L22.3 32.76C22.38 32.74 22.45 32.7 22.5 32.64L32.81 26.69C32.93 26.62 33.01 26.48 33.01 26.34V14.44C33.03 14.36 33.03 14.28 33.01 14.2V7.5C33.01 7.36 32.93 7.22 32.81 7.15C32.75 7.11 32.68 7.1 32.61 7.1C32.54 7.1 32.47 7.12 32.41 7.15L26.71 10.44L23.72 8.71L36.19 1.52V28.42ZM72.76 60.43V61.08L49.48 47.64V46.99L72.76 60.43ZM25.39 62.73L48.67 49.29V50L25.39 63.43V62.73ZM49.48 49.28L72.76 62.72V63.43L49.48 49.99V49.28ZM72.76 62.26L49.48 48.82V48.11L72.76 61.55V62.26ZM48.67 48.82L25.39 62.26V61.55L48.67 48.11V48.82ZM25.39 63.9L48.67 50.46V51.12L25.39 64.56V63.9ZM49.48 50.46L72.76 63.9V64.56L49.48 51.12V50.46ZM48.67 47.64L25.39 61.09V60.44L48.67 47V47.64ZM49.08 78.7L25.79 65.26L49.07 51.82L72.35 65.26L49.08 78.7ZM63.49 53.68L67.85 51.16C67.95 51.1 67.98 50.98 67.92 50.88C67.88 50.82 67.81 50.78 67.75 50.78C67.72 50.78 67.68 50.79 67.65 50.81L63.08 53.45L62 52.82L66.37 50.3C66.47 50.24 66.5 50.12 66.44 50.02C66.4 49.96 66.33 49.92 66.27 49.92C66.24 49.92 66.2 49.93 66.17 49.95L61.6 52.59L60.52 51.96L64.89 49.44C64.99 49.38 65.02 49.26 64.96 49.16C64.92 49.1 64.85 49.06 64.79 49.06C64.76 49.06 64.72 49.07 64.69 49.09L60.12 51.73L59.05 51.11L63.41 48.58C63.51 48.52 63.54 48.4 63.48 48.3C63.44 48.24 63.38 48.2 63.31 48.2C63.28 48.2 63.24 48.21 63.21 48.23L58.65 50.88L57.55 50.25L61.93 47.72C62.03 47.66 62.06 47.54 62 47.44C61.96 47.38 61.89 47.34 61.83 47.34C61.8 47.34 61.76 47.35 61.73 47.37L57.15 50.01L56.27 49.5L60.46 46.85C60.55 46.79 60.58 46.67 60.52 46.57C60.48 46.51 60.42 46.48 60.35 46.48C60.31 46.48 60.28 46.49 60.24 46.51L55.88 49.27L54.59 48.52L58.95 46C59.05 45.94 59.08 45.82 59.02 45.72C58.98 45.66 58.91 45.62 58.85 45.62C58.82 45.62 58.78 45.63 58.75 45.65L54.16 48.3L53.08 47.67L57.47 45.14C57.57 45.08 57.6 44.96 57.54 44.86C57.5 44.8 57.43 44.76 57.37 44.76C57.34 44.76 57.3 44.77 57.27 44.79L52.68 47.44L51.6 46.81L55.99 44.28C56.09 44.22 56.12 44.1 56.06 44C56.02 43.94 55.95 43.9 55.89 43.9C55.86 43.9 55.82 43.91 55.79 43.93L51.2 46.58L50.12 45.95L54.51 43.41C54.61 43.35 54.64 43.23 54.58 43.13C54.54 43.07 54.47 43.03 54.41 43.03C54.38 43.03 54.34 43.04 54.31 43.06L49.72 45.71L49.39 45.52C49.3 45.47 49.19 45.44 49.09 45.44C48.99 45.44 48.88 45.47 48.79 45.52L33.64 54.27L33.2 54.01L53.04 42.55C53.14 42.49 53.17 42.37 53.11 42.27C53.07 42.21 53 42.17 52.94 42.17C52.91 42.17 52.87 42.18 52.84 42.2L32.78 53.79L31.7 53.17L51.54 41.7C51.64 41.64 51.67 41.52 51.61 41.42C51.57 41.36 51.5 41.32 51.44 41.32C51.41 41.32 51.37 41.33 51.34 41.35L31.29 52.94L30.21 52.31L50.06 40.84C50.16 40.78 50.19 40.66 50.13 40.56C50.09 40.5 50.02 40.46 49.96 40.46C49.93 40.46 49.89 40.47 49.86 40.49L29.81 52.08L25.8 49.76L49.08 36.32L72.36 49.76L64.53 54.28L63.49 53.68ZM53.46 15.41L59 18.61L58.09 18.82L53.47 16.15V15.41H53.46ZM65.27 38.76L55.1 32.89L55.95 32.4L65.87 38.13L65.27 38.76ZM60.46 19.1V28.86L59.61 29.35V19.3L60.46 19.1ZM65.86 18.04C65.87 18.04 65.88 18.04 65.89 18.04L66.7 17.85V25.25L65.85 25.74L65.86 18.04ZM68.45 25.17L74.55 28.69L73.96 29.33L67.6 25.66L68.45 25.17ZM68.85 24.94L69.7 24.45L75.42 27.75L74.83 28.39L68.85 24.94ZM70.1 24.22L70.95 23.73L76.29 26.82L75.7 27.46L70.1 24.22ZM71.36 23.5L72.21 23.01L77.17 25.88L76.58 26.52L71.36 23.5ZM72.61 22.77L73.46 22.28L78.05 24.92L77.45 25.56L72.61 22.77ZM73.86 22.05L74.71 21.56L78.92 23.99L78.34 24.62L73.86 22.05ZM75.11 21.33L75.96 20.84L79.79 23.05L79.2 23.69L75.11 21.33ZM76.36 20.61L77.21 20.12L80.66 22.11L80.07 22.75L76.36 20.61ZM77.61 19.88L78.46 19.39L81.53 21.16L80.94 21.8L77.61 19.88ZM78.86 19.16L79.71 18.67L82.4 20.22L81.81 20.86L78.86 19.16ZM80.11 18.44L80.96 17.95L83.27 19.28L82.68 19.92L80.11 18.44ZM81.36 17.72L82.21 17.23L84.14 18.34L83.55 18.98L81.36 17.72ZM82.62 17L83.47 16.51L85.03 17.39L84.42 18.05L82.62 17ZM83.87 16.27L84.71 15.78L85.88 16.46L85.31 17.08L83.87 16.27ZM85.12 15.55L85.97 15.06L86.76 15.52L86.17 16.16L85.12 15.55ZM86.37 14.83L88.58 13.55L87.04 15.21L86.37 14.83ZM85.88 14.18V13.35L88.29 12.79L85.88 14.18ZM85.48 14.41L84.63 14.9V13.64L85.48 13.44V14.41ZM84.23 15.13L83.39 15.62L83.41 13.93L84.23 13.74V15.13ZM82.98 15.85L82.13 16.34V14.23L83 14.03L82.98 15.85ZM81.73 16.58L80.88 17.07V14.53L81.73 14.33V16.58ZM80.48 17.3L79.63 17.79V14.82L80.48 14.62V17.3ZM79.22 18.02L78.37 18.51V15.11L79.22 14.91V18.02ZM77.97 18.74L77.12 19.23V15.4L77.97 15.2V18.74ZM76.72 19.47L75.87 19.96V15.7L76.72 15.5V19.47ZM75.47 20.19L74.62 20.68V15.99L75.47 15.79V20.19ZM74.22 20.91L73.37 21.4L73.38 16.28L74.22 16.08V20.91ZM72.97 21.63L72.12 22.12V16.57L72.98 16.37L72.97 21.63ZM71.72 22.36L70.87 22.85V16.87L71.72 16.67V22.36ZM70.47 23.08L69.62 23.57V17.16L70.47 16.96V23.08ZM69.22 23.8L68.37 24.29V17.46L69.22 17.26V23.8ZM67.96 24.52L67.11 25.01V17.75L67.96 17.55V24.52ZM55.45 20.26V31.74L54.6 32.23V20.46L55.45 20.26ZM56.66 19.98L56.7 31.02L55.85 31.51V20.16L56.66 19.98ZM57.11 30.79L57.07 19.88L57.96 19.67V30.29L57.11 30.79ZM59.21 19.39V29.58L58.36 30.07V19.59L59.21 19.39ZM56.37 19.22L53.47 17.55V16.62L57.52 18.96L56.37 19.22ZM55.79 19.36L54.64 19.63L53.46 18.95V18.02L55.79 19.36ZM54.07 19.76L53.47 19.9V19.41L54.07 19.76ZM53.46 20.73L54.2 20.56V32.47L53.46 32.9V20.73ZM66.14 37.82L56.34 32.16L57.19 31.67L66.71 37.22L66.14 37.82ZM66.99 36.92L57.59 31.44L58.44 30.95L67.61 36.25L66.99 36.92ZM67.9 35.95L58.85 30.72L59.7 30.23L68.5 35.31L67.9 35.95ZM69.09 34.67L68.77 35.01L60.1 30L60.95 29.51L69.38 34.38L69.09 34.67ZM67.2 25.9L73.68 29.64L73.09 30.28L66.35 26.39L67.2 25.9ZM65.46 17.97V25.97L64.61 26.46V18.13L65.41 17.94L65.46 17.97ZM64.21 18.22V26.69L63.36 27.18V18.42L64.21 18.22ZM62.96 27.41L62.11 27.9V18.71L62.96 18.51V27.41ZM61.71 18.8V28.13L60.86 28.62V19L61.71 18.8ZM54.69 33.12L64.98 39.06L64.43 39.65L53.9 33.57L54.69 33.12ZM65.55 39.64V40.3L65.15 40.07L65.55 39.64ZM65.95 39.21L66.76 38.35V41L65.95 40.53V39.21ZM67.16 37.92L67.97 37.06V41.7L67.16 41.23V37.92ZM68.37 36.63L68.98 35.98V42.28L68.37 41.93V36.63ZM69.66 34.07L61.35 29.27L62.2 28.78L70.26 33.43L69.66 34.07ZM70.53 33.13L62.59 28.55L63.44 28.06L71.12 32.5L70.53 33.13ZM71.41 32.2L63.85 27.83L64.7 27.34L72.01 31.56L71.41 32.2ZM72.29 31.26L65.1 27.11L65.95 26.62L72.84 30.6C72.82 30.64 72.8 30.69 72.79 30.73L72.29 31.26ZM60.15 18.34L53.26 14.37C53.2 14.33 53.13 14.32 53.06 14.32C52.99 14.32 52.92 14.34 52.86 14.37C52.74 14.44 52.66 14.58 52.66 14.72V33.56C52.66 33.7 52.74 33.84 52.86 33.91L69.18 43.33C69.3 43.4 69.46 43.4 69.58 43.33C69.7 43.26 69.78 43.12 69.78 42.98V35.12L72.76 31.94V49.07L49.48 35.62V8.74L64.39 17.35L60.15 18.34ZM43.69 11.62V35.4C43.69 35.51 43.78 35.6 43.89 35.6C44 35.6 44.09 35.51 44.09 35.4V11.45C44.09 11.43 44.08 11.41 44.08 11.39L45.25 10.72V34.51C45.25 34.62 45.34 34.71 45.45 34.71C45.56 34.71 45.65 34.62 45.65 34.51V10.56C45.65 10.54 45.64 10.52 45.64 10.5L48.67 8.75V35.63L25.39 49.07V42.8L26.55 42.13V45.25C26.55 45.36 26.64 45.45 26.75 45.45C26.86 45.45 26.95 45.36 26.95 45.25V41.9L28.11 41.23V44.35C28.11 44.46 28.2 44.55 28.31 44.55C28.42 44.55 28.51 44.46 28.51 44.35V41L29.66 40.33V43.46C29.66 43.57 29.75 43.66 29.86 43.66C29.97 43.66 30.06 43.57 30.06 43.46V40.1L31.21 39.43V42.56C31.21 42.67 31.3 42.76 31.41 42.76C31.52 42.76 31.61 42.67 31.61 42.56V39.2L32.76 38.53V41.67C32.76 41.78 32.85 41.87 32.96 41.87C33.07 41.87 33.16 41.78 33.16 41.67V38.3L34.32 37.63V40.77C34.32 40.88 34.41 40.97 34.52 40.97C34.63 40.97 34.72 40.88 34.72 40.77V37.4L35.88 36.73V39.87C35.88 39.98 35.97 40.07 36.08 40.07C36.19 40.07 36.28 39.98 36.28 39.87V36.5L37.43 35.83V38.98C37.43 39.09 37.52 39.18 37.63 39.18C37.74 39.18 37.83 39.09 37.83 38.98V35.6L38.99 34.93V38.08C38.99 38.19 39.08 38.28 39.19 38.28C39.3 38.28 39.39 38.19 39.39 38.08V34.7L40.55 34.03V37.19C40.55 37.3 40.64 37.39 40.75 37.39C40.86 37.39 40.95 37.3 40.95 37.19V33.8L42.1 33.13V36.29C42.1 36.4 42.19 36.49 42.3 36.49C42.41 36.49 42.5 36.4 42.5 36.29V32.9L42.91 32.66C43.1 32.55 43.21 32.35 43.21 32.14V11.87L43.69 11.62Z" fill="white"/>
<path d="M52.2406 71.96L37.6306 63.53C37.6006 63.51 37.5606 63.5 37.5306 63.5C37.4606 63.5 37.3906 63.54 37.3606 63.6C37.3006 63.7 37.3406 63.82 37.4306 63.88L52.0406 72.31C52.1406 72.37 52.2606 72.33 52.3206 72.24C52.3706 72.14 52.3306 72.02 52.2406 71.96Z" fill="#BFFF0A"/>
<path d="M50.0492 73.24L35.4392 64.8C35.4092 64.78 35.3692 64.77 35.3392 64.77C35.2692 64.77 35.1992 64.81 35.1692 64.87C35.1092 64.97 35.1492 65.09 35.2392 65.15L49.8492 73.58C49.9492 73.64 50.0692 73.6 50.1292 73.51C50.1792 73.41 50.1392 73.29 50.0492 73.24Z" fill="#BFFF0A"/>
<path d="M51.139 72.6L36.529 64.17C36.499 64.15 36.459 64.14 36.429 64.14C36.359 64.14 36.289 64.18 36.259 64.24C36.199 64.34 36.239 64.46 36.329 64.52L50.939 72.95C51.039 73.01 51.159 72.97 51.219 72.88C51.269 72.78 51.239 72.65 51.139 72.6Z" fill="#BFFF0A"/>
<path d="M53.3304 71.33L38.7204 62.9C38.6904 62.88 38.6504 62.87 38.6204 62.87C38.5504 62.87 38.4804 62.91 38.4504 62.97C38.3904 63.07 38.4304 63.19 38.5204 63.25L53.1304 71.68C53.2304 71.74 53.3504 71.7 53.4104 71.61C53.4604 71.51 53.4304 71.39 53.3304 71.33Z" fill="#BFFF0A"/>
<path d="M54.4281 70.69L39.8181 62.26C39.7881 62.24 39.7481 62.23 39.7181 62.23C39.6481 62.23 39.5781 62.27 39.5481 62.33C39.4881 62.43 39.5281 62.55 39.6181 62.61L54.2281 71.04C54.3281 71.1 54.4481 71.06 54.5081 70.97C54.5581 70.87 54.5181 70.75 54.4281 70.69Z" fill="#BFFF0A"/>
<path d="M55.5218 70.06L40.9118 61.63C40.8818 61.61 40.8418 61.6 40.8118 61.6C40.7418 61.6 40.6718 61.64 40.6418 61.7C40.5818 61.8 40.6218 61.92 40.7118 61.98L55.3218 70.41C55.4218 70.47 55.5418 70.43 55.6018 70.34C55.6518 70.24 55.6218 70.12 55.5218 70.06Z" fill="#BFFF0A"/>
<path d="M56.6195 69.42L42.0095 60.99C41.9795 60.97 41.9395 60.96 41.9095 60.96C41.8395 60.96 41.7695 61 41.7395 61.06C41.6795 61.16 41.7195 61.28 41.8095 61.34L56.4195 69.77C56.5195 69.83 56.6395 69.79 56.6995 69.7C56.7495 69.6 56.7095 69.48 56.6195 69.42Z" fill="#BFFF0A"/>
<path d="M57.7093 68.79L43.0993 60.36C43.0693 60.34 43.0293 60.33 42.9993 60.33C42.9293 60.33 42.8593 60.37 42.8293 60.43C42.7693 60.53 42.8093 60.65 42.8993 60.71L57.5093 69.14C57.6093 69.2 57.7293 69.16 57.7893 69.07C57.8393 68.97 57.8093 68.84 57.7093 68.79Z" fill="#BFFF0A"/>
<path d="M58.8109 68.1499L44.2009 59.7199C44.1709 59.6999 44.1309 59.6899 44.1009 59.6899C44.0309 59.6899 43.9609 59.7299 43.9309 59.7899C43.8709 59.8899 43.9109 60.0099 44.0009 60.0699L58.6109 68.4999C58.7109 68.5599 58.8309 68.5199 58.8909 68.4299C58.9409 68.3299 58.9009 68.2099 58.8109 68.1499Z" fill="#BFFF0A"/>
<path d="M59.9007 67.5201L45.2907 59.0901C45.2607 59.0701 45.2207 59.0601 45.1907 59.0601C45.1207 59.0601 45.0507 59.1001 45.0207 59.1601C44.9607 59.2601 45.0007 59.3801 45.0907 59.4401L59.7007 67.8701C59.8007 67.9301 59.9207 67.8901 59.9807 67.8001C60.0307 67.7001 60.0007 67.5701 59.9007 67.5201Z" fill="#BFFF0A"/>
<path d="M60.9984 66.88L46.3884 58.45C46.3584 58.43 46.3184 58.42 46.2884 58.42C46.2184 58.42 46.1484 58.46 46.1184 58.52C46.0584 58.62 46.0984 58.74 46.1884 58.8L60.7984 67.23C60.8984 67.29 61.0184 67.25 61.0784 67.16C61.1284 67.06 61.0884 66.94 60.9984 66.88Z" fill="#BFFF0A"/>
<path d="M62.0882 66.25L47.4782 57.82C47.4482 57.8 47.4082 57.79 47.3782 57.79C47.3082 57.79 47.2382 57.83 47.2082 57.89C47.1482 57.99 47.1882 58.11 47.2782 58.17L61.8882 66.6C61.9882 66.66 62.1082 66.62 62.1682 66.53C62.2182 66.43 62.1882 66.3 62.0882 66.25Z" fill="#BFFF0A"/>
<path d="M63.1898 65.61L48.5798 57.18C48.5498 57.16 48.5098 57.15 48.4798 57.15C48.4098 57.15 48.3398 57.19 48.3098 57.25C48.2498 57.35 48.2898 57.47 48.3798 57.53L62.9898 65.96C63.0898 66.02 63.2098 65.98 63.2698 65.89C63.3198 65.79 63.2798 65.67 63.1898 65.61Z" fill="#BFFF0A"/>
<path d="M49 57L35 65L50 74L63.5 65.5L49 57Z" fill="#BFFF0A"/>
</g>
<defs>
<clipPath id="clip0_3123_155">
<rect width="91.95" height="80" fill="white"/>
</clipPath>
</defs>
</svg>
