<svg width="72" height="40" viewBox="0 0 72 40" fill="none" xmlns="http://www.w3.org/2000/svg">
<path d="M31.4895 35.4557C31.4894 35.1891 31.4307 34.9258 31.3176 34.6844C31.2045 34.443 31.0396 34.2295 30.8347 34.0589C30.6299 33.8884 30.39 33.7649 30.1321 33.6974C29.8742 33.6299 29.6047 33.6199 29.3425 33.6681C26.963 34.1048 23.9586 34.1705 23.1598 31.9268C22.4633 30.1891 21.3096 28.6722 19.8209 27.5371C19.7147 27.4793 19.6135 27.4128 19.5183 27.3382C19.388 26.9946 19.1566 26.6985 18.8546 26.489C18.5525 26.2795 18.1941 26.1665 17.8266 26.1649H17.8177C17.3371 26.1647 16.876 26.355 16.5354 26.694C16.1947 27.033 16.0022 27.4931 16 27.9737C15.9929 29.4559 17.4742 30.4056 18.0751 30.7269C18.7837 31.4389 19.3532 32.2769 19.7543 33.1978C20.4165 35.0581 22.3406 37.8805 27.8718 37.5167C27.8736 37.5806 27.8754 37.6409 27.8763 37.6959L27.8842 38.1823C27.8842 38.6644 28.0757 39.1267 28.4166 39.4676C28.7575 39.8085 29.2199 40 29.7019 40C30.184 40 30.6464 39.8085 30.9872 39.4676C31.3281 39.1267 31.5196 38.6644 31.5196 38.1823L31.5108 37.6036C31.5019 37.2592 31.4895 36.7603 31.4895 35.4557ZM50.8788 7.96125C50.9365 7.73404 50.9933 7.48198 51.043 7.19797C51.337 5.17231 51.0807 3.10487 50.301 1.21231C50.2026 0.965578 50.0514 0.743355 49.8581 0.561214C49.6648 0.379074 49.4339 0.241425 49.1818 0.157917C48.5347 -0.0604239 46.1455 -0.489999 41.5764 2.43003C37.7784 1.53626 33.8248 1.53626 30.0268 2.43003C25.4763 -0.447228 23.0995 -0.0567885 22.4587 0.14912C22.2003 0.229244 21.9632 0.366164 21.7646 0.549844C21.566 0.733524 21.4111 0.959309 21.3111 1.21065C20.5155 3.13955 20.262 5.24916 20.578 7.31163C20.6224 7.54416 20.6703 7.75896 20.72 7.95598C19.2142 9.9617 18.4121 12.4082 18.4381 14.9161C18.4332 15.4757 18.459 16.0351 18.5153 16.5918C19.1224 24.9578 24.5755 27.4695 28.3751 28.3323C28.2961 28.5595 28.2242 28.8026 28.1603 29.06C28.0464 29.5277 28.1226 30.0215 28.3722 30.4331C28.6218 30.8446 29.0245 31.1404 29.4919 31.2556C29.9592 31.3707 30.4532 31.2958 30.8655 31.0473C31.2777 30.7988 31.5745 30.3969 31.6909 29.9298C31.8066 29.3242 32.103 28.7678 32.5412 28.334C32.8061 28.1021 32.998 27.7981 33.0933 27.4592C33.1887 27.1202 33.1835 26.7608 33.0784 26.4247C32.9733 26.0887 32.7727 25.7904 32.5012 25.5662C32.2297 25.342 31.8988 25.2015 31.5489 25.1619C25.2704 24.4448 22.5448 21.8869 22.1347 16.2581C22.0893 15.8123 22.0689 15.3642 22.0735 14.9161C22.0443 13.1287 22.6349 11.3863 23.7447 9.98492C23.8563 9.83882 23.975 9.69841 24.1006 9.56422C24.3232 9.3152 24.4728 9.00968 24.5331 8.6812C24.5934 8.35271 24.562 8.01397 24.4424 7.70216C24.3197 7.37412 24.2253 7.03621 24.1601 6.69212C24.0121 5.71369 24.0606 4.71554 24.303 3.75611C25.8828 4.20231 27.3697 4.9286 28.6927 5.90041C28.9115 6.04614 29.1591 6.14312 29.4187 6.18477C29.6782 6.22643 29.9437 6.21178 30.1971 6.14183C33.8709 5.14483 37.744 5.14545 41.4175 6.14365C41.6723 6.21352 41.9391 6.22733 42.1998 6.18413C42.4604 6.14092 42.7086 6.04172 42.9272 5.89337C44.2441 4.91752 45.7247 4.18474 47.2992 3.72954C47.5405 4.66593 47.5945 5.64076 47.4581 6.59807C47.3923 6.97531 47.2894 7.34514 47.151 7.70219C47.0314 8.01401 47 8.35275 47.0603 8.68123C47.1206 9.00971 47.2702 9.31524 47.4927 9.56426C47.633 9.72223 47.7732 9.89264 47.8992 10.0524C49.0013 11.4301 49.5818 13.1524 49.5386 14.9161C49.5419 15.388 49.5191 15.8597 49.4702 16.3291C49.07 21.8833 46.3337 24.443 40.0259 25.1619C39.6759 25.2018 39.345 25.3425 39.0735 25.5669C38.802 25.7913 38.6015 26.0898 38.4965 26.426C38.3915 26.7622 38.3864 27.1217 38.4819 27.4608C38.5774 27.7998 38.7694 28.1038 39.0345 28.3358C39.4864 28.7812 39.7835 29.3598 39.8821 29.9866C40.0049 30.4732 40.0613 30.9742 40.0498 31.4759V35.7184C40.032 36.8953 40.032 37.7775 40.032 38.1822C40.032 38.6643 40.2235 39.1266 40.5644 39.4675C40.9053 39.8084 41.3677 39.9999 41.8497 39.9999C42.3318 39.9999 42.7942 39.8084 43.135 39.4675C43.4759 39.1266 43.6674 38.6643 43.6674 38.1822C43.6674 37.7881 43.6674 36.9237 43.6852 35.7468V31.4759C43.6998 30.6722 43.6052 29.8702 43.4038 29.092C43.3463 28.8365 43.2758 28.5841 43.1926 28.3358C45.9578 27.8764 48.4702 26.4508 50.2827 24.3125C52.0952 22.1743 53.0902 19.4623 53.0905 16.6593C53.1504 16.0802 53.1783 15.4982 53.174 14.9161C53.2143 12.4055 52.4056 9.95473 50.8788 7.96125Z" fill="white"/>
</svg>
