<svg width="82" height="82" viewBox="0 0 82 82" fill="none" xmlns="http://www.w3.org/2000/svg">
<path d="M81 46.6127V35.4127H69.3175C68.5556 31.6032 67.0825 28.073 64.9746 24.9492L73.2286 16.6952L65.3048 8.77143L57.0762 17C53.9524 14.9175 50.4222 13.419 46.6127 12.6571V1H35.4127V12.6825C31.6032 13.4444 28.073 14.9175 24.9492 17.0254L16.6698 8.74603L8.74603 16.6698L17 24.9238C14.9175 28.0476 13.419 31.5778 12.6571 35.3873H1V46.5873H12.6825C13.4444 50.3968 14.9175 53.927 17.0254 57.0508L8.77143 65.3048L16.6952 73.2286L24.9492 64.9746C28.073 67.0571 31.6032 68.5556 35.4127 69.3175V81H46.6127V69.3175C50.4222 68.5556 53.9524 67.0825 57.0762 64.9746L65.3302 73.2286L73.254 65.3048L65 57.0508C67.0825 53.927 68.581 50.3968 69.3429 46.5873H81V46.6127Z" fill="#FF7BCA" stroke="#111111" stroke-width="2" stroke-miterlimit="10" stroke-linecap="round" stroke-linejoin="round"/>
<path d="M81 46.6127V35.4127H69.3175C68.5556 31.6032 67.0825 28.073 64.9746 24.9492L73.2286 16.6952L65.3048 8.77143L57.0762 17C53.9524 14.9175 50.4222 13.419 46.6127 12.6571V1H35.4127V12.6825C31.6032 13.4444 28.073 14.9175 24.9492 17.0254L16.6698 8.74603L8.74603 16.6698L17 24.9238C14.9175 28.0476 13.419 31.5778 12.6571 35.3873H1V46.5873H12.6825C13.4444 50.3968 14.9175 53.927 17.0254 57.0508L8.77143 65.3048L16.6952 73.2286L24.9492 64.9746C28.073 67.0571 31.6032 68.5556 35.4127 69.3175V81H46.6127V69.3175C50.4222 68.5556 53.9524 67.0825 57.0762 64.9746L65.3302 73.2286L73.254 65.3048L65 57.0508C67.0825 53.927 68.581 50.3968 69.3429 46.5873H81V46.6127ZM41 54.0794C33.7873 54.0794 27.9206 48.2381 27.9206 41C27.9206 33.7873 33.7619 27.9206 41 27.9206C48.2127 27.9206 54.0794 33.7619 54.0794 41C54.0794 48.2127 48.2127 54.0794 41 54.0794Z" stroke="#111111" stroke-width="2" stroke-miterlimit="10" stroke-linecap="round" stroke-linejoin="round"/>
</svg>
