<svg width="72" height="40" viewBox="0 0 72 40" fill="none" xmlns="http://www.w3.org/2000/svg">
<path d="M54.4373 0.891365C53.4345 0.0891365 51.83 -0.311978 50.6267 0.289694L11.9192 15.9331C10.3147 16.5348 9.51249 18.3398 10.3147 19.9443C10.7158 20.7465 11.3175 21.3482 11.9192 21.5487L14.3259 22.5515C15.1281 22.9526 16.1309 22.5515 16.532 21.7493C16.9331 20.9471 16.532 19.9443 15.5292 19.5432L13.9247 18.7409L51.83 3.49861C52.0306 3.49861 52.0306 3.49861 52.2311 3.49861C52.4317 3.49861 52.4317 3.69916 52.4317 3.89972L45.6128 36.1894C45.6128 36.39 45.4122 36.5905 45.2117 36.7911C45.0111 36.7911 44.8105 36.7911 44.61 36.5905L30.9721 26.1616L44.2089 12.7242C44.8105 12.1226 44.8105 10.9192 44.2089 10.3175C43.6072 9.71588 42.805 9.71588 42.2033 10.117L22.7493 21.5487C21.947 21.9499 21.5459 22.9526 21.947 23.7549C22.3481 24.5571 23.3509 24.9582 24.1532 24.5571C24.3537 24.5571 24.3537 24.3565 24.3537 24.3565L32.5766 19.5432L28.5654 23.5543C27.1615 24.7577 27.1615 26.9638 28.3649 28.3677C28.5654 28.5682 28.766 28.5682 28.766 28.7688L42.2033 39.1978C43.0055 39.7994 43.8078 40 44.61 40C45.0111 40 45.6128 40 46.0139 39.7994C47.4178 39.3983 48.22 38.195 48.6211 36.7911L55.4401 4.50139C56.0417 3.29805 55.6406 1.89415 54.4373 0.891365Z" fill="white"/>
</svg>
