<svg width="72" height="40" viewBox="0 0 72 40" fill="none" xmlns="http://www.w3.org/2000/svg">
<path d="M58.1745 5.87253C57.9772 5.67527 57.9772 5.67526 57.78 5.47799C58.1745 4.68892 58.3718 3.89985 58.569 3.11077C58.7663 2.51897 58.3718 1.72989 57.78 1.33536C57.1882 0.94082 56.3991 0.94082 55.8073 1.33536C54.6237 2.12443 53.2428 2.71624 51.8619 2.9135C48.5083 -0.242793 43.5766 -0.834598 39.434 1.13809C35.0941 3.30804 32.9241 8.23976 34.1077 12.9742C34.305 13.9605 35.2914 14.5524 36.2777 14.3551C37.264 14.1578 37.8558 13.1715 37.6586 12.1851C36.8695 9.02883 38.2504 5.87254 41.2094 4.29439C44.1684 2.71624 47.9165 3.50531 50.0865 6.0698C50.481 6.46434 51.0728 6.66161 51.6646 6.46434H52.0592C51.4674 7.25341 51.4674 8.23976 52.0592 9.02883C52.2565 9.2261 52.4537 9.2261 52.651 9.42337C52.2565 9.8179 51.8619 10.4097 52.0592 11.0015C52.651 18.4977 49.4947 25.9939 43.5766 30.7284C37.4613 36.0546 28.9788 37.4355 21.4826 34.6737C24.4416 34.0819 27.2033 32.8983 29.3733 30.9256C29.7678 30.3338 29.9651 29.742 29.5706 28.953C29.176 28.3612 28.5842 27.9666 27.9924 27.9666C26.0197 27.9666 24.047 26.9803 22.6662 25.5994C23.258 25.4021 23.8498 25.2049 24.4416 25.0076C25.0334 24.6131 25.4279 24.0212 25.4279 23.2322C25.4279 22.4431 24.8361 21.8513 24.047 21.8513C21.6798 21.2595 19.7071 19.6813 18.7208 17.5114C19.1153 17.5114 19.5099 17.5114 20.1017 17.7086C20.8907 17.7086 21.4825 17.3141 21.8771 16.7223C22.0744 15.9332 21.8771 15.1442 21.2853 14.7496C18.3263 12.1851 17.7344 9.2261 18.129 7.25342C21.4826 10.8042 25.6252 13.1715 30.3596 14.1578C31.346 14.3551 32.3323 13.7633 32.5296 12.7769C32.7269 11.7906 32.1351 10.8042 31.1487 10.607C26.4143 9.42337 22.2716 6.85888 19.3126 2.9135C18.9181 2.51897 18.5235 2.3217 17.9317 2.3217C17.3399 2.3217 16.9454 2.51897 16.5508 2.9135C14.1836 5.87253 13.9863 10.2124 15.959 13.3687H15.7618C15.17 13.566 14.9727 14.1578 14.7754 14.7496C14.7754 17.7086 15.959 20.6677 18.129 22.6404C17.7344 23.0349 17.5372 23.824 17.7344 24.4158C18.7208 27.1775 20.6935 29.3475 23.258 30.7284C20.4962 31.7147 17.5372 32.3065 14.7754 32.3065C13.7891 32.3065 13 33.0956 13 34.0819C13 34.6737 13.3945 35.2656 13.7891 35.6601C18.3263 38.4218 23.4552 40 28.5842 40C34.6995 40 40.6176 37.6328 45.352 33.6874C51.8619 28.3612 55.61 20.4704 55.2155 11.9879C56.5964 11.0015 57.5827 9.62064 57.9772 8.04249C58.7663 6.85888 58.569 6.26707 58.1745 5.87253Z" fill="white"/>
</svg>
