<svg width="30" height="30" viewBox="0 0 30 30" fill="none" xmlns="http://www.w3.org/2000/svg">
<path opacity="0.4" d="M15 30C23.2843 30 30 23.2843 30 15C30 6.71573 23.2843 0 15 0C6.71573 0 0 6.71573 0 15C0 23.2843 6.71573 30 15 30Z" fill="#0555FF"/>
<path d="M19.9196 13.95H17.3696V8.01002C17.3696 6.63002 16.6196 6.34502 15.7046 7.38002L15.0446 8.13002L9.46463 14.475C8.69963 15.345 9.01463 16.05 10.1696 16.05H12.7196V21.99C12.7196 23.37 13.4696 23.655 14.3846 22.62L15.0446 21.87L20.6246 15.525C21.3896 14.655 21.0746 13.95 19.9196 13.95Z" fill="#0555FF"/>
</svg>
