<svg width="34" height="30" viewBox="0 0 34 30" fill="none" xmlns="http://www.w3.org/2000/svg">
<path d="M13.3426 16.9929H18.1536V28.2029C18.1536 29.8533 20.2087 30.6317 21.2986 29.3862L33.0847 15.9964C34.1123 14.8287 33.2871 13.0071 31.7301 13.0071H26.9192V1.7971C26.9192 0.146737 24.864 -0.631736 23.7741 0.613821L11.9881 14.0036C10.976 15.1713 11.8012 16.9929 13.3426 16.9929Z" fill="#0555FF"/>
<path opacity="0.4" d="M12.0663 3.71213H1.16771C0.529362 3.71213 0 3.18277 0 2.54442C0 1.90607 0.529362 1.37671 1.16771 1.37671H12.0663C12.7047 1.37671 13.234 1.90607 13.234 2.54442C13.234 3.18277 12.7047 3.71213 12.0663 3.71213Z" fill="#0555FF"/>
<path opacity="0.4" d="M10.5094 28.6233H1.16771C0.529362 28.6233 0 28.0939 0 27.4556C0 26.8172 0.529362 26.2878 1.16771 26.2878H10.5094C11.1477 26.2878 11.6771 26.8172 11.6771 27.4556C11.6771 28.0939 11.1477 28.6233 10.5094 28.6233Z" fill="#0555FF"/>
<path opacity="0.4" d="M5.83855 16.1677H1.16771C0.529362 16.1677 0 15.6383 0 15C0 14.3616 0.529362 13.8323 1.16771 13.8323H5.83855C6.47689 13.8323 7.00626 14.3616 7.00626 15C7.00626 15.6383 6.47689 16.1677 5.83855 16.1677Z" fill="#0555FF"/>
</svg>
