<svg width="41" height="40" viewBox="0 0 41 40" fill="none" xmlns="http://www.w3.org/2000/svg">
<path opacity="0.4" d="M14.0782 0C8.83815 0 4.57812 4.26003 4.57812 9.50006C4.57812 14.6401 8.59815 18.8001 13.8382 18.9801C13.9982 18.9601 14.1582 18.9601 14.2782 18.9801C14.3182 18.9801 14.3382 18.9801 14.3782 18.9801C14.3982 18.9801 14.3982 18.9801 14.4182 18.9801C19.5382 18.8001 23.5582 14.6401 23.5782 9.50006C23.5782 4.26003 19.3182 0 14.0782 0Z" fill="#111111"/>
<path d="M24.2401 24.3C18.6601 20.5799 9.56006 20.5799 3.94002 24.3C1.40001 26 0 28.3 0 30.76C0 33.22 1.40001 35.5 3.92002 37.18C6.72004 39.0601 10.4001 40.0001 14.0801 40.0001C17.7601 40.0001 21.4401 39.0601 24.2401 37.18C26.7602 35.48 28.1602 33.2 28.1602 30.72C28.1402 28.26 26.7602 25.98 24.2401 24.3Z" fill="#111111"/>
<path opacity="0.4" d="M36.0569 10.6802C36.3769 14.5603 33.6169 17.9603 29.7969 18.4203C29.7769 18.4203 29.7769 18.4203 29.7569 18.4203H29.6969C29.5769 18.4203 29.4569 18.4203 29.3569 18.4603C27.4169 18.5603 25.6369 17.9403 24.2969 16.8003C26.3569 14.9603 27.5369 12.2002 27.2969 9.20023C27.1569 7.58022 26.5969 6.10021 25.7569 4.8402C26.5169 4.4602 27.3969 4.2202 28.2969 4.1402C32.2169 3.8002 35.7169 6.72021 36.0569 10.6802Z" fill="#111111"/>
<path d="M40.0626 29.18C39.9026 31.1201 38.6626 32.8001 36.5826 33.9401C34.5826 35.0401 32.0625 35.5601 29.5625 35.5001C31.0025 34.2001 31.8425 32.5801 32.0025 30.8601C32.2025 28.38 31.0225 26 28.6625 24.1C27.3225 23.04 25.7625 22.2 24.0625 21.58C28.4825 20.3 34.0426 21.16 37.4626 23.92C39.3026 25.4 40.2426 27.26 40.0626 29.18Z" fill="#111111"/>
</svg>
