<svg width="117" height="102" viewBox="0 0 117 102" fill="none" xmlns="http://www.w3.org/2000/svg">
<path fill-rule="evenodd" clip-rule="evenodd" d="M54.7708 46.7537C54.7568 45.7787 55.4458 44.9807 56.6668 44.6947C57.0598 44.6317 57.6818 45.3177 57.7738 45.4137C57.8558 45.7857 57.9348 46.3237 57.9688 46.8297C57.9388 47.0697 57.3468 52.0997 56.9458 54.0337C56.8758 54.3817 56.7978 54.7327 56.6888 55.1037C56.6588 55.2417 56.5208 55.6047 56.4148 55.8777C56.3038 56.1677 56.1648 56.4447 56.0238 56.7187C55.7268 57.2597 55.3358 57.7207 54.8528 58.0767C54.3678 58.4527 53.7738 58.5337 53.1818 58.6667L52.1418 58.7507L51.5808 58.8137C50.7858 58.9077 49.9808 59.0307 49.1838 59.1727C48.7938 59.2437 48.3698 59.3247 48.0178 59.4007C47.9968 59.4077 48.0038 59.4097 47.9978 59.4147C47.9848 59.4297 48.0068 59.4417 48.0178 59.4407C48.0178 59.4407 47.9498 59.4457 47.8998 59.5137C47.8788 59.5427 47.8728 59.5747 47.8778 59.6087C47.8798 59.6257 47.9198 59.6627 47.9428 59.6887L47.9658 59.7117L48.0638 59.7727L48.2608 59.8947C48.7868 60.2187 49.3318 60.5217 49.8868 60.8047C50.4418 61.0877 51.0078 61.3517 51.5738 61.5897C51.7318 61.6607 52.4378 61.9477 52.9998 62.1277C53.6568 62.2397 54.1948 62.5437 54.5308 62.8737C54.6498 62.9807 54.7388 63.0947 54.8058 63.1687C54.8958 63.2817 54.9858 63.4647 55.0468 63.6057C55.1768 63.9067 55.2688 64.2297 55.3548 64.5697C55.4508 64.8347 55.3938 65.9017 55.0678 67.4027C55.0268 67.6057 54.9838 67.8217 54.9388 68.0487C54.9218 68.1457 54.9408 68.0867 54.9388 68.1117C54.9458 68.1227 54.9498 68.1287 54.9518 68.1347C54.9608 68.1497 54.9158 68.2087 54.8218 68.3557C54.7208 68.5077 54.6148 68.6827 54.5188 68.8787C54.4598 68.9917 54.4358 69.0507 54.4378 69.1077C54.4418 69.2107 54.5388 69.2347 54.7168 69.2127L54.8308 69.1927C54.9038 69.1747 54.9748 69.0547 55.0588 69.1937C55.2728 69.5017 55.6188 69.1657 56.0028 68.9177C56.8198 68.3657 57.6518 67.8357 58.5208 67.3657C58.9518 67.1337 59.4648 67.0287 59.9548 66.8927C60.3988 66.7687 60.5278 67.3637 60.4398 67.5007C60.1828 67.8987 60.6268 67.9087 60.7948 68.0757C60.8518 68.1317 60.9248 68.2067 60.9448 68.2697C60.9668 68.3397 59.9788 69.3827 58.9388 70.4637C58.6778 70.7327 58.4148 71.0057 58.1638 71.2647L57.9768 71.4567C57.9238 71.5137 57.8538 71.5817 57.7458 71.6797C57.5508 71.8587 57.3638 72.0297 57.1878 72.1907C56.5048 72.8107 55.7848 73.4547 55.5838 73.6037C55.5638 73.6197 55.4388 73.7187 55.0678 74.0117C54.6868 74.3407 54.0728 74.8257 53.0168 75.7687C52.7778 75.9827 52.4378 76.2867 52.0218 76.6587C51.9248 76.7377 51.7918 76.8827 51.7098 76.9187C51.6258 76.9567 51.5388 76.9967 51.4478 77.0387C51.2668 77.1197 51.0738 77.2067 50.8728 77.2977C50.7758 77.3387 50.6568 77.3997 50.5728 77.4257L50.3468 77.4717C50.1938 77.5007 50.0358 77.5297 49.8748 77.5607C49.6758 77.5277 49.4418 77.4807 49.3578 77.4067C49.2848 77.3647 49.2818 77.3527 49.2558 77.3267C49.1878 77.2767 49.0588 77.2437 48.9888 77.2017C48.8238 77.1177 48.6838 76.9927 48.5768 76.8257C48.4648 76.6667 48.4078 76.4437 48.3418 76.2777C48.2778 76.1117 48.1908 76.0157 48.1648 75.9327C47.9778 75.5707 48.0778 74.7697 48.3598 73.8397C48.4098 73.6247 49.1298 70.5197 49.8548 67.3957L49.9688 66.8537L50.0238 66.5537C50.0368 66.4747 50.0678 66.3147 50.0658 66.3037L50.0538 66.2897C50.0378 66.2727 50.0208 66.2657 50.0048 66.2647C49.9738 66.2617 49.9528 66.2787 49.9528 66.2787C49.9618 66.2727 49.9548 66.2757 49.9548 66.2757L49.9508 66.2797C49.9508 66.2797 49.9528 66.2807 49.9478 66.2797L49.7388 66.1897C49.0728 65.8957 48.4408 65.5577 47.8738 65.1017C47.6508 64.9227 47.3828 64.8117 47.1238 64.6927L46.2968 64.2897L45.8868 64.0757L45.3568 63.7847C44.4668 63.2857 43.4498 62.6717 42.6638 62.0497C41.8498 61.4217 41.2458 60.7447 40.9218 60.0937C40.7818 59.7667 40.6518 59.4477 40.6108 59.1097C40.5878 58.9397 40.5748 58.7627 40.5788 58.5677C40.5808 58.3717 40.7128 58.1587 40.7008 57.9787C40.8298 57.6057 40.9958 57.3327 41.2628 57.0707C41.3808 56.9387 41.5128 56.8077 41.6428 56.6757C41.7828 56.5467 41.8718 56.4017 42.0828 56.2957L42.6368 55.9537C42.8258 55.8397 43.0788 55.7547 43.2968 55.6537C43.7268 55.4447 44.2508 55.2967 44.7618 55.1427C45.1248 55.0217 45.5478 54.9877 45.9338 54.9147C46.3748 54.8397 46.8188 54.7657 47.2508 54.6927C48.0858 54.5107 48.9208 54.3727 49.7618 54.2627L51.0308 54.1117L51.6728 54.0497L51.9328 54.0337C51.9948 54.0267 52.0648 54.0427 52.1198 54.0077C52.1728 53.9707 52.2048 53.9117 52.2298 53.8537C52.2568 53.7947 52.2718 53.7347 52.2848 53.6707C52.3458 53.4717 52.4238 53.1967 52.4818 52.9407C52.6358 52.4287 53.7168 49.5647 53.8158 48.7947C53.8728 48.3787 54.7728 47.1537 54.7708 46.7537Z" fill="white"/>
<path fill-rule="evenodd" clip-rule="evenodd" d="M50.4182 78.6937C50.1752 78.7057 49.9292 78.7057 49.6892 78.6937C49.4522 78.6727 49.2362 78.5697 49.0082 78.5117C48.7862 78.4367 48.5892 78.2957 48.3792 78.1917C48.1932 78.0477 48.0482 77.8567 47.8982 77.6827C47.6442 77.2907 47.4862 76.8227 47.4172 76.3207C47.3702 76.0747 47.3702 75.8277 47.3442 75.5807L47.3392 75.0937C47.3702 73.8697 47.5372 72.7657 47.7212 71.6597C47.9122 70.5607 48.1382 69.4817 48.3852 68.4107L48.7712 66.8107L48.8542 66.4877L48.8762 66.4167L48.9252 66.2667C48.9162 66.2247 48.8482 66.2077 48.8072 66.1817L48.7332 66.1477C48.6822 66.1267 48.7442 66.1477 48.5872 66.0887L47.0132 65.4927C45.9452 65.0767 44.8702 64.6067 43.8302 64.0397C42.8432 63.5107 41.8812 62.8957 40.9942 62.1597C40.5372 61.8107 40.1322 61.3887 39.7172 60.9837L39.1402 60.3147C38.8712 60.0117 38.6102 59.5817 38.3472 59.2197C38.2032 58.8097 37.9512 58.4227 38.0082 57.9917C38.0892 57.1437 38.7502 56.5587 39.5432 56.1467C40.4932 55.6747 40.8812 55.6127 41.4582 55.4327C42.5392 55.1327 43.6012 54.9297 44.6672 54.7547C45.7312 54.5817 46.7942 54.4457 47.8632 54.3397C48.3972 54.2877 48.9322 54.2417 49.4702 54.2067L50.0652 54.1767H50.3552L52.2322 48.8987C52.9752 46.9087 53.6942 44.9397 54.6552 42.9577L54.8382 42.6057C54.9182 42.4467 55.0172 42.2997 55.1102 42.1497C55.2922 41.8397 55.5302 41.6047 55.8132 41.4137C56.3682 41.2187 56.9892 41.0897 57.5652 41.3337C57.8572 41.4017 58.1372 41.5687 58.3892 41.7307C58.6192 41.8597 58.7792 42.0117 58.9632 42.1577C59.6662 42.7507 60.2332 43.3877 60.7722 44.0307C61.8502 45.3167 62.8252 46.6247 63.8162 47.9027C64.4292 48.6987 65.0512 49.4827 65.6812 50.2587L66.6352 51.4117C66.8192 51.6167 66.9672 51.7957 67.1312 51.9637L67.5072 51.7807L68.3762 51.4107C69.0302 51.1437 69.6932 50.8957 70.3742 50.6807C71.7362 50.2617 73.1382 49.8887 74.7462 49.9857C75.1922 50.0337 75.5142 50.1427 75.7102 50.2987C75.8982 50.4367 75.9412 50.5597 75.8822 50.6667C75.7512 50.8957 75.2822 51.0057 74.7132 51.2897C73.5643 51.8267 71.7102 52.8797 69.2812 53.8927L68.8492 54.0747L68.2012 54.3617C67.6052 54.6287 67.0062 54.9267 66.4102 55.2127L65.2262 53.7987L64.6342 53.0907L64.3162 52.6967C63.8922 52.1737 63.4782 51.6467 63.0702 51.1167L60.6812 47.9407C59.8982 46.8967 59.1192 45.8527 58.3212 44.9447C57.9262 44.4787 57.5152 44.0947 57.1562 43.8107C57.0392 43.7427 57.0812 43.7557 57.0732 43.7477L57.0492 43.7307C57.0302 43.7197 57.0082 43.7157 56.9842 43.7197C56.9692 43.7247 56.9572 43.7367 56.9442 43.7497L56.9252 43.7707L56.7892 44.0267C56.5942 44.4047 56.4032 44.8187 56.2182 45.2357C55.8472 46.0737 55.4932 46.9417 55.1462 47.8147C54.4522 49.5627 53.7852 51.3397 53.1252 53.1227C52.9812 53.5227 52.8352 53.9227 52.6892 54.3277C52.4652 54.9937 52.2382 55.6667 52.0082 56.3507C49.7312 56.3857 49.1262 56.4667 47.9422 56.5847C46.8562 56.7037 45.7672 56.8617 44.6902 57.0607C43.6192 57.2637 42.5442 57.5027 41.5642 57.8307L41.2082 57.9587L41.0692 58.0157C40.9862 58.0517 40.9072 58.0957 40.8332 58.1477C40.7622 58.1987 40.6862 58.2717 40.6912 58.3657C40.7002 58.4577 40.7732 58.5247 40.8182 58.6007C40.8962 58.7107 40.8782 58.7077 41.0762 58.9317C41.2642 59.1447 41.4292 59.3757 41.6432 59.5677C42.8122 60.7737 44.2822 61.7187 45.8752 62.4757C46.6732 62.8537 47.4992 63.1917 48.3512 63.5117L49.7572 64.0427C50.4532 64.3087 51.0962 64.6367 51.6582 65.0167L51.2082 66.7097L50.9162 67.8807C50.7482 68.5757 50.5872 69.2727 50.4392 69.9687C50.1462 71.3617 49.8852 72.7657 49.7562 74.1397C49.7122 74.6027 49.6892 75.1347 49.7032 75.5007C49.7192 75.7397 49.7222 75.9937 49.8942 76.1717C50.0862 76.3317 50.3562 76.2977 50.5792 76.2307C50.6402 76.2097 50.6882 76.2077 50.7602 76.1697L51.0412 76.0437C51.2382 75.9657 51.4372 75.8247 51.6362 75.7197C53.2282 74.7307 54.6792 73.3267 56.0182 71.8727C56.7322 71.1017 57.4082 70.2877 58.0732 69.4657L59.0432 68.2117L60.3852 66.3667L62.2602 67.4937L63.5502 68.2477C64.4122 68.7467 65.2802 69.2307 66.1512 69.7047C67.0242 70.1717 67.8992 70.6337 68.7842 71.0557C69.2242 71.2737 69.6682 71.4697 70.1122 71.6657C70.3352 71.7667 70.5572 71.8457 70.7792 71.9377L71.1052 72.0657L71.3242 72.1357C71.5023 72.2007 71.6672 72.2387 71.8262 72.2667C71.9762 72.2797 72.1852 72.3387 72.2542 72.1557C72.4123 71.8647 72.4192 71.5077 72.3982 71.2147C72.3392 70.1787 72.0232 69.0787 71.6422 68.0347C71.2502 66.9837 70.7802 65.9517 70.2422 64.9497C69.9782 64.4467 69.6932 63.9517 69.4082 63.4577C69.3062 63.2847 68.9832 62.7637 68.7882 62.3917L68.6272 62.0867C68.5822 61.9847 68.4782 61.8817 68.5762 61.7797L68.8972 61.1697L69.2152 60.6397L69.4962 60.2147C69.6582 59.9897 69.8132 59.7597 69.9862 59.5457C70.3212 59.1057 70.6912 58.6937 71.0882 58.2957C72.5853 56.8417 73.8352 56.1767 74.7382 55.8527C75.6492 55.5337 76.2382 55.5307 76.7452 55.7057C76.9752 55.7827 77.2562 55.8427 77.3992 55.9487C77.9002 56.3747 76.4502 56.9837 74.3822 58.5107C73.6172 59.0857 72.9162 59.7507 72.2962 60.4857C71.9832 60.8507 71.6982 61.2377 71.4302 61.6307L71.3352 61.7797L71.3202 61.8127L71.2972 61.8727C71.2792 61.9117 71.2702 61.9477 71.3132 61.9807L71.3562 62.0307C71.3702 62.0457 71.3682 62.0347 71.4642 62.1957C71.6122 62.4317 71.7452 62.6777 71.8822 62.9217C72.1622 63.4047 72.4253 63.9027 72.6782 64.4107C73.1812 65.4267 73.6552 66.4737 74.0272 67.5967C74.2152 68.1577 74.3812 68.7357 74.5162 69.3367C74.5822 69.6377 74.6343 69.9497 74.6842 70.2637L74.7372 70.7507C74.7452 70.8327 74.7572 70.9107 74.7572 70.9987L74.7672 71.3427C74.7602 72.4347 74.5462 73.4967 73.9002 74.1627L73.6652 74.4297C73.6252 74.4737 73.5872 74.5247 73.5442 74.5627L73.3772 74.5997C73.1512 74.6357 72.9442 74.7267 72.7002 74.7187C72.2102 74.6757 71.7162 74.7357 71.2312 74.5417C70.0722 74.2307 69.7502 74.0537 69.1582 73.8157C68.6232 73.5827 68.0972 73.3427 67.5862 73.0927C66.5582 72.5947 65.5562 72.0737 64.5682 71.5357L62.1462 70.1837L61.0522 69.5477L61.0472 69.5397L59.7252 71.2367C58.9602 72.2007 58.1392 73.1287 57.2922 74.0387C56.4252 74.9387 55.5232 75.8127 54.5192 76.6277C54.0122 77.0327 53.4832 77.4247 52.8922 77.7867C52.5852 77.9637 52.2972 78.1457 51.9362 78.2977C51.7812 78.3587 51.5582 78.4977 51.2622 78.5487L50.4322 78.7527L50.4182 78.6937Z" fill="#221F1F"/>
<path fill-rule="evenodd" clip-rule="evenodd" d="M106.061 36.3407C106.015 36.5287 105.78 36.4867 105.429 36.3227C105.317 36.2697 105.066 36.0207 105.064 35.9497C105.061 35.8127 105.061 35.6757 105.082 35.5557C105.092 35.4827 105.645 34.6607 105.84 34.3807C106.02 34.1007 106.25 33.8747 106.486 33.6557C106.972 33.2187 107.454 32.7747 107.966 32.3687C108.079 32.2777 108.204 32.2017 108.342 32.1467C108.812 31.9537 109.216 31.6737 109.605 31.3627C109.67 31.3117 109.746 31.2747 109.776 31.1717C109.813 30.9847 110.961 30.2687 111.15 30.2487C111.601 30.1687 112.007 30.0127 112.459 29.9537C112.522 29.9437 112.573 29.8977 112.661 29.9487C112.865 30.0687 112.972 29.9907 113.101 29.9537C113.271 29.8867 113.478 29.8967 113.681 29.9037C113.782 29.9077 113.903 29.9607 114.011 29.9877C114.11 30.0147 114.143 30.1927 114.128 30.2257C114.081 30.3157 114.178 30.3717 114.216 30.4387C114.228 30.4617 114.246 30.4907 114.251 30.5127C114.257 30.5367 114.085 30.7787 113.934 31.0767C113.768 31.3477 113.579 31.5857 113.536 31.6197C113.527 31.6677 112.328 32.4897 112.211 32.6097C112.148 32.6697 112.051 32.6737 111.963 32.6927C111.923 32.7067 111.001 33.4047 110.964 33.4297C110.746 33.5297 110.584 33.7157 110.29 33.7027C110.233 33.7007 110.197 33.7347 110.158 33.7617C109.828 34.0057 109.449 34.1797 109.089 34.3837C108.902 34.4867 108.749 34.6317 108.577 34.7517C108.546 34.7737 108.5 34.7777 108.463 34.7917C108.416 34.8097 108.366 34.8227 108.329 34.8527C107.944 35.1667 107.497 35.4127 107.165 35.7887C107.085 35.8697 106.557 36.1057 106.477 36.2157C106.429 36.2727 106.078 36.2627 106.061 36.3407Z" fill="white"/>
<path fill-rule="evenodd" clip-rule="evenodd" d="M105.804 58.0995C105.616 58.2155 105.493 57.9625 105.357 57.4925C105.314 57.3415 105.326 56.8945 105.389 56.8355C105.51 56.7185 105.638 56.6065 105.77 56.5295C105.848 56.4575 107.097 56.3985 107.52 56.4325C107.941 56.4255 108.318 56.5455 108.704 56.6545C109.46 56.9185 110.211 57.1895 110.912 57.5355C111.071 57.6075 111.217 57.7055 111.346 57.8265C111.796 58.2345 112.297 58.5265 112.813 58.8035C112.898 58.8505 112.974 58.9155 113.096 58.9015C113.307 58.8635 114.605 59.7745 114.728 59.9495C115.059 60.3535 115.343 60.8095 115.637 61.2385C115.679 61.2995 115.751 61.3325 115.745 61.4415C115.729 61.6965 115.86 61.7765 115.96 61.8955C116.098 62.0605 116.227 62.2375 116.336 62.4325C116.39 62.5295 116.399 62.6745 116.423 62.8005C116.443 62.9155 116.245 63.0575 116.203 63.0565C116.081 63.0515 116.06 63.1875 115.999 63.2665C115.978 63.2945 115.951 63.3295 115.929 63.3475C115.895 63.3605 114.631 63.0345 114.523 62.9775C114.516 62.9735 114.417 62.9205 114.267 62.8395C114.117 62.7645 113.918 62.6625 113.713 62.5585C113.287 62.3765 112.915 62.1005 112.815 62.0775C112.722 62.0365 112.672 61.9365 112.61 61.8525C112.582 61.8045 111.382 61.2095 111.338 61.1865C111.122 61.0155 110.848 60.9465 110.715 60.6395C110.689 60.5785 110.636 60.5585 110.588 60.5325C110.169 60.3235 109.8 60.0275 109.405 59.7775C109.205 59.6415 108.978 59.5735 108.765 59.4715C108.727 59.4535 108.7 59.4095 108.666 59.3805C108.623 59.3445 108.585 59.2965 108.535 59.2775C108.016 59.0875 107.528 58.7935 106.984 58.7375C106.864 58.7155 106.333 58.3755 106.184 58.3945C106.107 58.3945 105.884 58.0445 105.804 58.0995Z" fill="white"/>
<path fill-rule="evenodd" clip-rule="evenodd" d="M4.26833 86.0017C4.16033 86.2257 3.89233 86.0537 3.50433 85.6507C3.38133 85.5227 3.14133 85.0607 3.16133 84.9687C3.19833 84.7887 3.24133 84.6117 3.30633 84.4687C3.34633 84.3707 4.29433 83.6517 4.61233 83.3967C4.91833 83.1497 5.26033 82.9797 5.60733 82.8277L7.71033 81.8987C7.86633 81.8327 8.03233 81.7897 8.20633 81.7697C8.80433 81.6977 9.34233 81.4867 9.86333 81.2307C9.95033 81.1887 10.0463 81.1657 10.1033 81.0577C10.1973 80.8787 11.6513 80.3017 11.8613 80.2837C12.3843 80.2387 12.8863 80.1397 13.3943 80.0597C13.4703 80.0577 13.5353 80.0137 13.6333 80.0807C13.8623 80.2347 13.9963 80.1567 14.1523 80.1287C14.3673 80.0867 14.5873 80.0567 14.8173 80.0507C14.9313 80.0477 15.0693 80.1027 15.1973 80.1327C15.3133 80.1607 15.3563 80.3837 15.3363 80.4227C15.2783 80.5297 15.3953 80.5997 15.4423 80.6817C15.4573 80.7097 15.4783 80.7477 15.4853 80.7737C15.4923 80.8077 14.6003 81.9137 14.4883 82.0047C14.4903 82.1007 12.8533 82.9167 12.6883 83.0517C12.5973 83.1147 12.4773 83.1097 12.3663 83.1227C12.3133 83.1287 11.0483 83.8657 10.9943 83.8837C10.7083 83.9797 10.4643 84.1727 10.1153 84.1067C10.0463 84.0937 9.99433 84.1277 9.94133 84.1537C9.48033 84.3857 8.97733 84.5147 8.48833 84.6717C8.23733 84.7507 8.00833 84.8807 7.76833 84.9837C7.72533 85.0017 7.66933 84.9927 7.62133 84.9997C7.56033 85.0077 7.49533 85.0057 7.44133 85.0317C6.88533 85.3017 6.27733 85.4517 5.76033 85.7937C5.64333 85.8737 4.93333 85.9387 4.80633 86.0427C4.73533 86.0997 4.31133 85.9107 4.26833 86.0017Z" fill="white"/>
<path fill-rule="evenodd" clip-rule="evenodd" d="M8.75505 57.1678C8.92405 57.0968 8.97905 57.3388 8.96705 57.7678C8.96305 57.9038 8.84705 58.2908 8.79305 58.3348C8.68605 58.4198 8.58005 58.5018 8.48105 58.5538C8.42005 58.5838 7.61405 58.5688 7.34305 58.5928C7.07805 58.6088 6.83305 58.5678 6.59005 58.5158C6.10005 58.4148 5.60905 58.3418 5.13205 58.2898C5.02605 58.2758 4.92205 58.2398 4.82305 58.1928C4.47905 58.0168 4.11105 57.9908 3.75505 58.0118C3.69605 58.0158 3.63505 58.0008 3.57705 58.0668C3.47605 58.1568 2.55505 58.1928 2.43105 58.1688C2.11805 58.0688 1.79705 58.0148 1.46505 57.9788C1.41805 57.9758 1.37905 58.0088 1.31805 57.9478C1.17805 57.8068 1.08905 57.8598 0.988047 57.8718C0.847047 57.8838 0.711047 57.9158 0.557047 57.9078C0.482047 57.9058 0.382047 57.8448 0.287047 57.8038C0.201047 57.7658 0.139047 57.5398 0.151047 57.5078C0.184047 57.4148 0.0880474 57.3328 0.0430474 57.2458C0.0280474 57.2158 0.00804739 57.1778 0.00104739 57.1518C-0.0309526 57.1008 0.680047 56.3248 0.798047 56.2938C0.804047 56.2568 2.14805 55.7108 2.32205 55.7048C2.40505 55.6758 2.49505 55.7098 2.58105 55.7278C2.61905 55.7118 3.75205 55.5078 3.79905 55.5268C4.03405 55.5418 4.27305 55.4938 4.48805 55.6828C4.53005 55.7198 4.57705 55.7148 4.62305 55.7158C5.01705 55.7318 5.39405 55.8538 5.76205 55.9648C5.95105 56.0198 6.14405 56.0398 6.33405 56.0798C6.36805 56.0868 6.39705 56.1188 6.42905 56.1368C6.46805 56.1598 6.50605 56.1918 6.54905 56.1998C6.99605 56.2838 7.40905 56.4818 7.85505 56.5298C7.96005 56.5408 8.37405 56.8588 8.49205 56.8658C8.55905 56.8698 8.68805 57.1968 8.75505 57.1678Z" fill="white"/>
<path fill-rule="evenodd" clip-rule="evenodd" d="M14.7163 42.6121C14.9453 42.6561 14.9103 42.9451 14.6913 43.3561C14.6213 43.4871 14.3053 43.7861 14.2263 43.7961C14.0713 43.8151 13.9233 43.8331 13.7993 43.8281C13.7403 43.8201 12.8673 43.3661 12.5533 43.2371C12.2423 43.1111 11.9853 42.9261 11.7183 42.7371C11.1883 42.3491 10.6263 41.9891 10.0753 41.6161C9.95328 41.5331 9.84128 41.4341 9.74228 41.3171C9.40228 40.9161 8.98128 40.6251 8.53428 40.3741C8.46028 40.3331 8.39428 40.2751 8.28628 40.2881C8.11228 40.3051 6.94428 39.5601 6.83328 39.4001C6.54028 39.0321 6.21428 38.7121 5.89928 38.3741C5.85428 38.3261 5.78328 38.3101 5.77828 38.2101C5.76628 37.9781 5.63428 37.9281 5.52628 37.8401C5.37528 37.7181 5.23028 37.5881 5.10228 37.4321C5.03828 37.3541 5.01528 37.2161 4.98028 37.0951C4.94828 36.9851 5.13228 36.7801 5.17328 36.7711C5.29228 36.7451 5.30128 36.5991 5.35528 36.4991C5.37328 36.4651 5.39728 36.4211 5.41628 36.3971C5.45828 36.3461 6.66528 36.5221 6.76928 36.5871C6.78128 36.5931 7.15428 36.7751 7.55128 36.9681C7.94528 37.1571 8.35828 37.3551 8.44828 37.3871C8.54228 37.4201 8.59928 37.5101 8.66428 37.5881C8.69528 37.6221 9.87428 38.2081 9.91528 38.2431C10.1283 38.4111 10.3943 38.5041 10.5213 38.7971C10.5463 38.8541 10.5973 38.8771 10.6443 38.9041C11.0453 39.1451 11.3923 39.4621 11.7503 39.7671C11.9333 39.9221 12.1423 40.0391 12.3363 40.1811C12.3713 40.2071 12.3903 40.2531 12.4193 40.2871C12.4553 40.3311 12.4853 40.3821 12.5303 40.4121C13.0033 40.7271 13.4033 41.1441 13.9063 41.4341C14.0233 41.5051 14.3923 42.0561 14.5283 42.1431C14.6063 42.1901 14.6253 42.5991 14.7163 42.6121Z" fill="white"/>
<path fill-rule="evenodd" clip-rule="evenodd" d="M37.1179 3.66196C37.9579 5.14096 38.8139 6.59296 39.7439 8.01196C40.6789 9.42596 41.6989 10.791 42.7579 12.121C43.8199 13.451 44.9279 14.742 46.0169 16.044C47.1209 17.334 48.2569 18.596 49.4239 19.811C50.0749 20.522 49.8749 21.401 49.3499 21.928C48.8289 22.451 47.9249 22.628 47.2089 21.896C46.0099 20.592 44.8759 19.244 43.7949 17.856C42.7029 16.477 41.7119 15.02 40.7709 13.533C39.8269 12.048 38.9319 10.53 38.1279 8.95696C37.3219 7.39096 36.5769 5.76396 36.1869 4.01296C36.1309 3.50296 36.7979 3.27596 37.1179 3.66196Z" fill="white"/>
<path fill-rule="evenodd" clip-rule="evenodd" d="M70.6828 2.76151C70.1218 3.94951 69.5578 5.16051 69.1348 6.45651C68.7048 7.74351 68.3338 9.06251 68.0238 10.3975C67.4018 13.0545 66.9168 15.7975 66.7188 18.4275C66.6428 19.1595 65.7048 19.4445 64.7808 19.3945C63.8698 19.3465 62.9668 18.8245 63.0988 17.9595C63.6638 15.0375 64.5148 12.3195 65.5358 9.62351C66.0478 8.28151 66.6158 6.95551 67.2838 5.66651C67.9718 4.39851 68.6318 3.05651 69.8188 2.04951C70.2138 1.82051 70.7548 2.35451 70.6828 2.76151Z" fill="white"/>
<path fill-rule="evenodd" clip-rule="evenodd" d="M88.265 5.61452C87.643 7.19352 87.133 8.85252 86.618 10.5125L85.069 15.5295C84.532 17.2065 83.973 18.8865 83.323 20.5615C82.662 22.2365 81.945 23.9075 80.925 25.5675C80.644 26.0395 80.14 26.2455 79.711 26.2435C79.267 26.2425 78.837 26.0365 78.486 25.7305C77.793 25.0895 77.36 24.1815 77.851 23.4845C78.772 22.2385 79.587 20.7565 80.35 19.2475C81.111 17.7295 81.816 16.1525 82.516 14.5665L84.606 9.76152C85.32 8.15552 86.039 6.54352 86.908 4.96352C87.173 4.52952 88.381 5.14352 88.265 5.61452Z" fill="white"/>
<path fill-rule="evenodd" clip-rule="evenodd" d="M23.2148 73.4012C27.7468 84.7442 37.8748 93.9222 49.7778 97.0912C54.1188 98.2442 58.6578 98.4562 63.1098 97.9232C70.9748 96.9893 78.5558 93.5662 84.6268 88.3832C90.7028 83.2142 95.2618 76.1742 96.9658 68.3282C98.4778 61.3772 98.2048 53.9402 96.0448 47.2192C94.6858 42.8942 92.5348 38.8312 89.7398 35.2882C86.9728 31.7082 83.4438 28.7912 79.6258 26.3682C77.2558 24.8512 77.8698 24.3382 80.3828 24.9652C81.0118 25.1232 81.7608 25.3532 82.6098 25.6582C83.4258 26.0122 84.3048 26.5012 85.2718 27.0462C85.7458 27.3292 86.2658 27.6002 86.7498 27.9522C87.2218 28.3172 87.7078 28.7042 88.2028 29.1122C88.6978 29.5212 89.2018 29.9502 89.7108 30.3982C90.1938 30.8722 90.6388 31.4062 91.1078 31.9382C94.4098 35.7192 96.9288 40.1652 98.5538 44.8892C100.184 49.6162 100.951 54.6092 100.9 59.5842C100.841 64.5572 99.9848 69.5352 98.1888 74.2272C96.3758 78.9053 93.6508 83.2022 90.2368 86.8252C86.1378 91.1322 81.2138 94.8112 75.6548 97.2933C70.1498 99.8643 64.0108 101.176 57.9288 101.107C54.5778 101.038 51.2598 100.459 48.0418 99.5822C44.8478 98.6042 41.7818 97.2702 38.8928 95.6232C36.0528 93.8972 33.3528 91.9422 30.9428 89.6592C28.5738 87.3452 26.3428 84.8682 24.5388 82.0822C22.2828 78.6852 20.5068 74.9642 19.3398 71.0522C18.1658 67.1382 17.6338 63.0492 17.7248 58.9832C17.7518 55.8962 18.2558 52.8242 19.0208 49.8402C19.3868 48.3392 19.9228 46.8922 20.4438 45.4422L21.3668 43.3222C21.6658 42.6122 22.0618 41.9492 22.4038 41.2602C23.8618 38.5512 25.6038 36.0032 27.5908 33.6702C29.6028 31.3592 31.8418 29.2602 34.2558 27.4012C38.0218 24.5352 42.1698 22.2142 46.6118 20.6782C51.0358 19.1092 55.7288 18.2452 60.4708 18.3062C60.9928 18.3102 61.5118 18.3142 62.0298 18.3182L63.5788 18.4372C64.0938 18.4842 64.6148 18.5042 65.1308 18.5782C65.6448 18.6602 66.1618 18.7432 66.6828 18.8262C67.6528 18.9602 68.5188 19.1882 69.3138 19.3912C70.1108 19.5862 70.8318 19.7732 71.4668 20.0182C72.1058 20.2492 72.6818 20.4582 73.2058 20.6482C73.7248 20.8482 74.1648 21.0922 74.5698 21.2902C76.1958 22.0812 76.9908 22.8072 77.5428 23.5242C77.7938 23.8522 78.1448 24.2302 78.2478 24.4832C78.4228 24.9112 77.7618 24.8852 76.4688 24.4782C76.1458 24.3762 75.7828 24.2502 75.3818 24.1012C74.9738 23.9712 74.5238 23.8292 74.0338 23.6732C73.5488 23.5092 73.0248 23.3322 72.4648 23.1432C71.8948 22.9812 71.2878 22.8092 70.6458 22.6272C63.0368 20.4422 54.6318 20.8522 46.9708 23.6482C43.1288 25.0192 39.5068 27.0562 36.2138 29.5252C34.5508 30.7452 33.0348 32.1522 31.5618 33.5972C30.1528 35.1052 28.7818 36.6572 27.6098 38.3582C25.8348 40.8562 24.3318 43.5532 23.2058 46.4052C22.0888 49.2592 21.3278 52.2492 20.9458 55.2902C20.5688 58.3302 20.5308 61.4272 20.9528 64.4812C21.3908 67.5112 22.0548 70.5272 23.2768 73.3592L23.2148 73.4012Z" fill="white"/>
<path fill-rule="evenodd" clip-rule="evenodd" d="M20.6941 6.40704C21.7831 8.16104 23.0071 9.83304 24.2041 11.513C25.4071 13.193 26.7011 14.808 27.9491 16.449C30.4761 19.708 33.1061 22.894 35.8561 25.916C37.3841 27.666 34.1331 30.543 32.5801 28.631C30.0251 25.24 27.6811 21.745 25.4671 18.166C24.3491 16.385 23.3371 14.535 22.3341 12.686C21.3251 10.84 20.4251 8.93004 19.5551 7.01304C19.3341 6.46404 20.3311 5.94304 20.6941 6.40704Z" fill="white"/>
<path fill-rule="evenodd" clip-rule="evenodd" d="M25.5436 18.2815C27.1236 20.0105 28.7336 21.7105 30.4176 23.2615C31.2556 24.0405 32.1396 24.7695 33.0436 25.5535C33.9456 26.3405 34.8246 27.1765 35.6636 28.0325C36.5956 29.0585 34.5976 30.7305 33.7546 29.7285C33.0366 28.8345 32.2996 27.9725 31.5176 27.1315C30.7346 26.2905 29.8956 25.4295 29.1126 24.5175C28.3186 23.6145 27.6206 22.6435 26.9246 21.6855C26.2226 20.7315 25.5896 19.7315 24.9316 18.7555C24.7606 18.4725 25.2936 18.0585 25.5436 18.2815Z" fill="white"/>
<path fill-rule="evenodd" clip-rule="evenodd" d="M70.4716 3.01842C70.3946 3.20542 70.1776 3.18342 69.8476 3.06342C69.7426 3.02442 69.5296 2.81042 69.5436 2.74042C69.5696 2.60342 69.6006 2.46442 69.6526 2.34042C69.6626 2.25242 70.5066 1.37742 70.8706 1.15942C71.1866 0.897423 71.5566 0.736423 71.9286 0.583423C72.6906 0.311423 73.4746 0.0924228 74.2626 0.0204228C74.4366 -0.00557715 74.6136 -0.00657715 74.7876 0.0164228C75.3876 0.0764228 75.9706 0.0854228 76.5546 0.101423C76.6516 0.103423 76.7496 0.119423 76.8476 0.0774228C77.0156 -0.0195772 78.5826 0.205423 78.7656 0.312423C79.2906 0.532423 79.7056 0.705423 80.1676 0.899423C80.2336 0.928423 80.3096 0.934423 80.3566 1.00742C80.4646 1.17742 80.6146 1.20242 80.7566 1.25742C80.9546 1.33142 81.1476 1.42142 81.3336 1.52742C81.4256 1.58042 81.5016 1.67642 81.5816 1.75942C81.6536 1.83342 81.5526 1.98242 81.5156 1.99142C81.4096 2.01642 81.4566 2.11742 81.4426 2.18842C81.4376 2.21242 81.4306 2.24442 81.4206 2.26142C81.3976 2.28642 80.1766 2.29042 80.0546 2.27742C80.0406 2.27542 79.6176 2.20842 79.1696 2.13742C78.7236 2.08242 78.2626 2.03242 78.1666 2.03842C78.0666 2.03742 77.9736 1.99342 77.8806 1.95742C77.8336 1.91842 76.5146 1.88142 76.4676 1.88842C76.1986 1.84542 75.9316 1.89342 75.6666 1.76842C75.6146 1.74342 75.5596 1.74842 75.5066 1.74942C75.0466 1.77442 74.5896 1.75042 74.1346 1.78342C73.8986 1.78542 73.6806 1.86842 73.4536 1.90542C73.4136 1.91342 73.3686 1.90342 73.3256 1.90342C73.2716 1.90242 73.2176 1.90142 73.1686 1.91842C72.6546 2.08042 72.1106 2.19242 71.6756 2.51142C71.5656 2.56142 71.0016 2.76942 70.8976 2.87842C70.8346 2.92342 70.5016 2.93542 70.4716 3.01842Z" fill="white"/>
<path fill-rule="evenodd" clip-rule="evenodd" d="M37.1838 4.34117C37.3498 4.44517 37.3218 4.66017 37.1568 4.89817C37.1048 4.97417 36.8718 5.09917 36.8148 5.08517C36.7038 5.05517 36.5978 5.02917 36.5108 4.99417C36.4698 4.94817 35.8828 4.49017 35.6258 4.46217C35.4168 4.36917 35.1808 4.31817 34.9688 4.22817C34.5078 4.08117 33.9838 4.04917 33.4548 4.03517C33.3338 4.04017 33.2138 4.02917 33.0928 4.00517C32.6778 3.91217 32.2418 3.93617 31.8128 4.01017C31.7418 4.02217 31.6668 4.02217 31.6028 4.07617C31.5008 4.15817 30.3208 4.34017 30.1568 4.34017C29.6928 4.32317 29.3428 4.31117 28.9428 4.29717C28.8848 4.29317 28.8278 4.31617 28.7658 4.27217C28.6228 4.17117 28.5048 4.20617 28.3798 4.21317C28.2078 4.22517 28.0318 4.22217 27.8538 4.20617C27.7668 4.19817 27.6728 4.15217 27.5828 4.12017C27.5018 4.09117 27.5208 3.94817 27.5438 3.92717C27.6128 3.86917 27.5398 3.81317 27.5238 3.75717C27.5178 3.73817 27.5108 3.71317 27.5118 3.69617C27.5128 3.67817 27.7408 3.55117 27.9748 3.41017C28.2098 3.27117 28.4578 3.12417 28.5088 3.11017C28.5148 3.10817 28.6038 3.07617 28.7378 3.02817C28.8708 2.97517 29.0508 2.92217 29.2348 2.86317C29.6038 2.74217 29.9948 2.63317 30.0768 2.61017C30.1598 2.58217 30.2518 2.59717 30.3408 2.60017C30.3768 2.59617 31.5328 2.30717 31.5888 2.31617C31.8388 2.30317 32.0828 2.22117 32.3448 2.32417C32.3958 2.34417 32.4468 2.33417 32.4968 2.32817C32.9288 2.27617 33.3738 2.32517 33.8178 2.39817C34.0448 2.43217 34.2738 2.43717 34.5068 2.48917C34.5488 2.49717 34.5868 2.52217 34.6268 2.53717C34.6778 2.55617 34.7268 2.58217 34.7788 2.59117C35.3268 2.70617 35.8498 2.95517 36.3638 3.24217C36.4228 3.27617 36.5688 3.41417 36.7098 3.54917C36.8348 3.70917 36.9548 3.86817 37.0148 3.91717C37.0938 3.96817 37.1298 4.29617 37.1838 4.34117Z" fill="white"/>
<path fill-rule="evenodd" clip-rule="evenodd" d="M28.9756 71.1688C32.7836 80.6908 41.2856 88.3928 51.2786 91.0518C54.9226 92.0188 58.7336 92.1978 62.4696 91.7498C69.0716 90.9638 75.4336 88.0888 80.5276 83.7378C85.6246 79.3988 89.4506 73.4898 90.8796 66.9048C92.1466 61.0718 91.9186 54.8328 90.1066 49.1918C88.9666 45.5618 87.1636 42.1518 84.8176 39.1778C82.4956 36.1728 79.5336 33.7248 76.3276 31.6938C74.3366 30.4228 74.8466 30.0068 76.9456 30.5458C77.4716 30.6818 78.0976 30.8778 78.8066 31.1358C79.4896 31.4358 80.2236 31.8468 81.0316 32.3058C81.4286 32.5438 81.8626 32.7728 82.2676 33.0678C82.6606 33.3828 83.0656 33.7078 83.4826 34.0418C83.8966 34.3848 84.3186 34.7448 84.7446 35.1208C85.1486 35.5178 85.5216 35.9648 85.9136 36.4098C91.4886 42.7628 94.2256 51.2588 94.1166 59.5668C94.0686 63.7328 93.3516 67.9048 91.8486 71.8348C90.3316 75.7538 88.0506 79.3548 85.1916 82.3918C81.7586 86.0018 77.6326 89.0848 72.9756 91.1648C68.3616 93.3198 63.2176 94.4188 58.1216 94.3608C55.3136 94.3038 52.5346 93.8188 49.8376 93.0848C47.1616 92.2658 44.5916 91.1478 42.1696 89.7678C39.7896 88.3218 37.5276 86.6838 35.5066 84.7708C33.5216 82.8318 31.6516 80.7558 30.1386 78.4208C26.3376 72.7508 24.2306 65.8908 24.4266 59.0638C24.4486 56.4768 24.8706 53.9018 25.5116 51.4018C26.1556 48.8978 27.1136 46.4758 28.3466 44.2098C29.5676 41.9398 31.0286 39.8038 32.6936 37.8478C34.3796 35.9108 36.2566 34.1508 38.2796 32.5938C41.4366 30.1908 44.9136 28.2478 48.6376 26.9608C52.3456 25.6478 56.2796 24.9248 60.2526 24.9768C60.6896 24.9808 61.1246 24.9848 61.5586 24.9888L62.8566 25.0878C63.7256 25.1328 64.5856 25.2618 65.4576 25.4158C68.6786 26.0138 70.7276 26.7778 72.0676 27.4768C73.4306 28.1368 74.0996 28.7408 74.5656 29.3348C74.7776 29.6068 75.0736 29.9208 75.1626 30.1298C75.3116 30.4828 74.7606 30.4568 73.6776 30.1108C73.1406 29.9288 72.4626 29.6798 71.6366 29.4298C71.2296 29.2918 70.7896 29.1428 70.3196 28.9828C69.8426 28.8468 69.3326 28.7018 68.7946 28.5478C62.4086 26.7088 55.3516 27.0498 48.9186 29.3948C45.6926 30.5458 42.6516 32.2548 39.8866 34.3278C37.1176 36.4008 34.6566 38.9068 32.6626 41.7438C31.1716 43.8408 29.9096 46.1068 28.9646 48.5008C28.0266 50.8978 27.3876 53.4078 27.0676 55.9618C26.4066 61.0748 27.0826 66.3638 29.0266 71.1338L28.9756 71.1688Z" fill="white"/>
</svg>
