<svg width="117" height="105" viewBox="0 0 117 105" fill="none" xmlns="http://www.w3.org/2000/svg">
<path fill-rule="evenodd" clip-rule="evenodd" d="M82.3095 2.34188C82.5075 1.70388 83.1845 1.34688 83.8225 1.54488C86.9825 2.52288 81.2815 5.66088 82.3095 2.34188Z" stroke="white"/>
<path fill-rule="evenodd" clip-rule="evenodd" d="M113.911 23.0676C114.108 22.4296 114.786 22.0736 115.423 22.2706C118.584 23.2486 112.882 26.3876 113.911 23.0676Z" stroke="white"/>
<path fill-rule="evenodd" clip-rule="evenodd" d="M53.2431 17.1466C53.4411 16.5086 54.1181 16.1516 54.7561 16.3496C57.9161 17.3276 52.2151 20.4666 53.2431 17.1466Z" stroke="white"/>
<path fill-rule="evenodd" clip-rule="evenodd" d="M21.4733 75.467C21.4753 73.252 21.4683 71.033 21.4303 68.811C21.4173 68 21.3293 67.193 21.3233 66.382C21.3003 63.52 21.3073 60.653 21.3323 57.785C21.3353 56.513 21.2863 55.236 21.2273 53.975L21.1133 51.54C21.1233 50.727 21.2013 49.912 21.3313 49.102C21.4193 48.596 21.8463 48.666 22.3123 49.091C22.7723 49.515 23.3253 50.292 23.4433 51.214C23.6113 54.488 23.7083 57.762 23.5893 61.091C23.4943 63.082 23.7263 65.143 23.7973 67.177L23.9753 73.9C24.0103 75.281 24.0183 76.664 24.0253 78.046C24.0413 80.139 24.0013 82.243 24.0373 84.321C24.0883 85.932 24.1383 87.524 24.1883 89.124C24.1973 89.477 24.2193 89.822 24.1833 90.177C24.0773 91.493 23.9013 91.905 23.4343 92.168C23.3283 92.227 23.2233 92.307 23.1213 92.34C22.7803 92.451 22.4963 91.904 22.3363 90.946C21.8813 88.103 21.7193 85.141 21.6213 82.153C21.5513 79.931 21.4803 77.7 21.4093 75.473L21.4733 75.467Z" fill="white"/>
<path fill-rule="evenodd" clip-rule="evenodd" d="M39.309 94.6403C41.362 95.3473 43.444 96.0133 45.54 96.6393C46.304 96.8713 47.095 97.0093 47.859 97.2433C50.558 98.0713 53.252 98.9683 55.962 99.8333C57.164 100.208 58.387 100.568 59.596 100.92C60.369 101.187 61.159 101.362 61.927 101.7C62.311 101.862 62.695 102.023 63.064 102.215C63.43 102.438 63.783 102.705 64.119 102.967C64.54 103.306 64.203 103.624 63.593 103.831C63.289 103.936 62.919 104.018 62.545 104.047C62.185 104.069 61.722 104.088 61.331 103.932C58.433 102.945 55.254 102.243 52.153 101.199C50.292 100.577 48.26 100.279 46.312 99.7673C44.168 99.2153 42.028 98.6153 39.892 97.9943L35.959 96.7933C33.976 96.1683 32.006 95.4653 30.047 94.7863C29.289 94.5103 28.52 94.2803 27.745 94.0623C26.977 93.8203 26.211 93.5583 25.441 93.2903C25.102 93.1733 24.757 93.0843 24.433 92.9133C23.231 92.2843 23.003 91.8063 23.155 91.0033C23.191 90.8163 23.209 90.6223 23.269 90.4533C23.47 89.8853 24.195 89.6883 25.119 89.8693C26.434 90.2283 27.772 90.6313 29.089 91.0983C30.439 91.5263 31.779 92.0083 33.156 92.4703C35.175 93.1983 37.239 93.9153 39.327 94.5653L39.309 94.6403Z" fill="white"/>
<path fill-rule="evenodd" clip-rule="evenodd" d="M85.1697 97.7212C90.6117 96.1352 96.0207 94.2812 101.408 92.3912C103.374 91.7002 105.311 90.9302 107.27 90.2242L112.441 88.3302L112.845 88.1832C112.906 88.1542 113 88.1472 113.038 88.0972C113.044 88.0272 113.055 87.9572 113.054 87.8822L113.077 87.3882L113.215 84.6312L113.766 73.6052C113.923 70.3432 114.023 67.0612 114.116 63.8232C114.231 59.6612 114.303 55.4832 114.602 51.3272C114.696 50.0322 115.003 50.2112 115.303 51.3142C115.599 52.4172 115.917 54.4462 115.914 56.8452C115.878 65.3512 115.815 73.8522 115.379 82.4182C115.311 83.6992 115.259 84.9932 115.217 86.2952C115.196 87.0412 115.175 87.7892 115.153 88.5392C115.163 88.8262 115.045 89.0262 114.997 89.2742L114.949 89.4512L114.946 89.4622L114.944 89.4682C114.973 89.4902 114.689 89.2912 114.808 89.3772L114.795 89.3922L114.767 89.4222L114.713 89.4832L114.48 89.7462L114.356 89.8852L114.169 89.9692L113.801 90.1282L113.237 90.3622C110.793 91.3582 108.337 92.3512 105.882 93.2872C100.485 95.3492 95.0367 97.2822 89.5277 99.0702C86.1287 100.153 82.7297 101.216 79.1797 101.974C78.7637 102.058 78.3457 102.138 77.9167 102.201C77.4877 102.263 77.1017 102.328 76.4257 102.346C75.8237 102.364 75.2357 102.298 74.7637 102.024C74.5237 101.897 74.3157 101.661 74.2517 101.413C74.1667 101.184 74.1647 100.866 74.1237 100.595C74.1127 98.6252 74.1027 96.6592 74.0917 94.6972C74.0977 92.8342 74.1037 90.9762 74.1097 89.1262C74.1187 84.9722 74.0237 80.8972 74.1257 76.7892C74.1487 75.8852 74.1417 74.9992 74.1857 74.0872C74.4257 70.7122 74.7167 69.6492 75.2227 68.9482C75.3387 68.7882 75.4537 68.5762 75.5587 68.4852C75.8977 68.1782 76.1717 69.5692 76.3307 72.0432C76.4647 73.8792 76.5017 75.7332 76.5487 77.6062C76.5847 79.4792 76.6647 81.3712 76.6677 83.2732C76.7027 87.0782 76.7387 90.9352 76.7747 94.8012C76.7817 96.4012 76.7877 98.0042 76.7947 99.6142C76.8007 99.6242 76.7727 99.6402 76.8407 99.6382C77.6807 99.5542 78.6127 99.3762 79.5367 99.1682C81.3937 98.7492 83.2737 98.2212 85.1437 97.6612L85.1697 97.7212Z" fill="white"/>
<path fill-rule="evenodd" clip-rule="evenodd" d="M40.6659 52.3048C43.2389 53.1608 45.8309 53.9848 48.4389 54.7578C49.3919 55.0388 50.3649 55.2318 51.3129 55.5298C54.6589 56.5688 58.0169 57.5858 61.3989 58.5098C62.8949 58.9428 64.4169 59.3018 65.9189 59.6528C66.8849 59.8728 67.8549 60.0948 68.8229 60.3158C69.7859 60.5678 70.7339 60.8718 71.6829 61.2078C72.2949 61.4408 72.1199 61.6548 71.5499 61.8368C70.9769 62.0128 69.9449 62.2348 68.7959 62.1368C64.7769 61.5448 60.7609 60.8928 56.8439 59.6628C54.4969 58.9528 51.9809 58.5158 49.5499 57.9038C46.8859 57.2008 44.2329 56.4428 41.5869 55.6588L36.7119 54.1698C34.2509 53.4128 31.8119 52.5428 29.3809 51.7218C27.4869 51.0868 25.5819 50.5738 23.7189 49.7418C23.3089 49.5458 22.8919 49.4128 22.4869 49.1678C20.9399 48.3608 20.8439 47.3518 20.9339 46.7998C20.9609 46.6578 20.9669 46.5098 21.0129 46.4098C21.0899 46.2408 21.3069 46.2248 21.6369 46.2528C21.9359 46.3028 22.4659 46.2728 22.9659 46.4408C24.4659 46.9758 26.1159 47.5098 27.8069 48.0068C29.4959 48.5678 31.2029 49.1358 32.9159 49.7048C35.4889 50.5228 38.0659 51.4398 40.6829 52.2318L40.6659 52.3048Z" fill="white"/>
<path fill-rule="evenodd" clip-rule="evenodd" d="M110.786 46.259C105.342 44.109 99.7513 42.137 94.1853 40.185L88.0583 38.127L77.2783 34.441L71.8743 32.645L71.0303 32.372C70.6813 32.255 70.3123 32.155 69.9853 32.026L70.0843 30.034C70.1373 29.093 70.1683 28.152 70.1843 27.211C70.2453 23.868 69.9883 20.512 69.6103 17.197C69.1353 12.94 68.4793 8.63697 68.4613 4.31497C68.4463 2.96797 68.8493 3.12897 69.3363 4.23197C69.8193 5.33597 70.4373 7.36597 70.6873 9.81397C71.1403 14.15 71.7773 18.51 71.9843 22.98C72.0893 25.209 72.0863 27.45 71.9813 29.683L71.9323 30.516C71.9233 30.552 71.9133 30.593 71.9083 30.635C71.8843 30.691 71.9573 30.679 71.9833 30.707C72.0153 30.718 71.9953 30.717 72.0713 30.744L72.4653 30.874L75.6133 31.936C80.6243 33.659 85.9033 35.25 91.0453 36.959C96.6973 38.845 102.337 40.77 107.951 42.802C109.303 43.295 110.642 43.79 111.998 44.323C112.9 44.698 114.119 45.112 114.684 45.634C114.948 45.876 115.256 46.153 115.039 46.482L114.334 47.354C113.404 48.045 112.254 48.705 111.68 49.045C106.761 51.786 101.604 53.951 96.5033 56.081C92.5333 57.723 88.6583 59.378 84.6503 60.848C83.7693 61.174 82.9103 61.508 81.9993 61.794C78.6273 62.839 77.3933 62.898 76.5023 62.277C76.3093 62.138 76.0773 62.004 75.9803 61.856C75.7153 61.327 76.8493 60.885 79.2203 60.054C82.7243 58.85 86.3403 57.474 89.9843 56.061C93.6303 54.641 97.3173 53.165 100.96 51.591C101.956 51.162 102.952 50.73 103.933 50.275C104.925 49.834 105.905 49.375 106.872 48.898C107.855 48.44 108.796 47.934 109.748 47.438C110.233 47.198 110.672 46.918 111.132 46.656L111.22 46.606C111.226 46.602 111.236 46.599 111.236 46.599C111.249 46.598 111.253 46.591 111.262 46.586C111.304 46.574 111.343 46.549 111.294 46.533L111.25 46.508C111.25 46.508 111.24 46.498 110.773 46.315L110.786 46.259Z" fill="white"/>
<path fill-rule="evenodd" clip-rule="evenodd" d="M28.6585 45.6072C27.4915 45.9922 26.3255 46.3792 25.1115 46.7332L24.6505 46.8632L24.0445 47.0222C23.5025 47.1582 22.9485 47.2712 22.4545 47.2622C21.9615 47.2382 21.5555 47.1392 21.1995 46.8122C21.0265 46.6762 21.0285 46.4192 20.9435 46.2212L20.7495 45.5882C20.7755 43.5422 20.7995 42.7282 20.8375 41.5312L20.9025 37.6172C21.0575 33.0282 21.1495 28.4502 20.8765 23.8792C20.7645 21.8522 20.5465 19.8202 20.2855 17.8232C19.9215 15.2592 19.4445 12.7082 19.0985 10.1352C18.9995 9.3312 19.3585 9.3622 19.8455 9.9632C20.3195 10.5652 20.9875 11.7332 21.2875 13.2202C21.8515 15.8462 22.2875 18.5032 22.5845 21.1792C22.8645 23.8572 22.9745 26.5552 22.9675 29.2572C22.9485 32.4872 23.0735 35.8392 23.0395 39.1232L22.9565 44.4602L22.9455 44.7152C22.9165 44.8092 22.9805 44.8952 23.0725 44.8882C23.2365 44.9022 23.4025 44.8662 23.5725 44.8332C23.6495 44.8242 24.1355 44.6882 24.5095 44.5742L25.6815 44.2042C27.7715 43.5172 29.8725 42.7762 31.9725 42.0532C35.1565 40.9502 38.3895 39.9232 41.5955 38.9362C44.0835 38.1582 46.5215 37.3512 49.0475 36.7502C49.6035 36.6162 50.1445 36.4692 50.7105 36.3582C51.7555 36.1202 52.4845 36.1872 52.9885 36.2152C53.4975 36.2702 53.8035 36.3942 54.0605 36.5922C54.1785 36.6822 54.3265 36.7632 54.3995 36.8512C54.6425 37.1432 53.8325 37.5572 52.3835 38.1062C50.2175 38.8182 47.9835 39.4172 45.7405 40.1442C43.4815 40.7982 41.1925 41.4892 38.9045 42.2212C35.5035 43.3052 32.1035 44.4672 28.6815 45.6592L28.6585 45.6072Z" fill="white"/>
<path fill-rule="evenodd" clip-rule="evenodd" d="M31.8653 5.03434C33.5383 4.72734 35.2133 4.41234 36.8833 4.06534C37.4923 3.93734 38.0863 3.74734 38.6963 3.62534C40.8563 3.21034 43.0203 2.79334 45.1783 2.37834C46.1373 2.18634 47.0853 1.93234 48.0263 1.69134C49.2263 1.35334 50.4483 1.04334 51.7253 1.00034C52.1223 0.987341 52.1323 1.34834 51.8833 1.78034C51.6313 2.21334 51.1433 2.72334 50.4693 2.95334C48.0753 3.70834 45.6153 4.30134 43.0903 4.74834C41.5773 5.00734 40.0653 5.52234 38.5363 5.87034C36.8573 6.26134 35.1693 6.62734 33.4783 6.97934L30.3533 7.62134C28.7763 7.94734 27.1783 8.21734 25.6123 8.55934C24.3893 8.80034 23.2113 9.16234 21.9883 9.41034C21.7193 9.46734 21.4623 9.55834 21.1803 9.55234C20.1443 9.56934 19.8023 9.42434 19.5463 8.98034C19.4873 8.87934 19.4143 8.78234 19.3783 8.68334C19.2553 8.35534 19.6363 8.00134 20.3273 7.70234C21.3423 7.20534 22.4183 6.99234 23.5013 6.69534C24.5863 6.41034 25.6983 6.17734 26.8223 5.96634C28.4933 5.63834 30.1743 5.30834 31.8503 4.97934L31.8653 5.03434Z" fill="white"/>
<path fill-rule="evenodd" clip-rule="evenodd" d="M22.6543 82.1413C22.0373 82.2893 6.86128 81.1003 0.68528 87.6793C-6.12472 94.9323 39.5353 101.489 61.6753 102.475L23.1903 90.5503L22.6543 82.1413Z" fill="white"/>
<path fill-rule="evenodd" clip-rule="evenodd" d="M94.7657 31.004C93.8777 32.812 93.0337 34.652 92.2597 36.525C91.9657 37.204 91.7647 37.917 91.4897 38.603C90.5037 41.018 89.5737 43.463 88.7337 45.94C88.3737 47.042 88.0787 48.169 87.8367 49.288C87.5297 50.712 87.2997 52.22 86.9927 53.511C86.8957 53.903 86.4277 53.928 85.9757 53.513C85.7587 53.318 85.5127 52.945 85.3937 52.581C85.2667 52.209 85.2027 51.773 85.2587 51.319C85.7557 48.218 86.5747 45.26 87.7117 42.372C88.4137 40.656 88.9117 38.799 89.5697 37.026C90.3007 35.082 91.0967 33.16 91.9387 31.259C92.4497 30.086 93.0247 28.938 93.5557 27.775L94.8787 25.177C95.3517 24.326 95.8277 23.478 96.2677 22.617C97.0307 21.314 97.6257 19.94 98.4797 18.653C98.6637 18.368 98.8097 18.069 99.0377 17.806C99.9057 16.841 100.33 16.668 100.986 16.978C101.136 17.048 101.296 17.106 101.426 17.196C101.861 17.504 101.841 18.181 101.422 18.894C100.237 21.062 98.8027 23.226 97.5587 25.631C96.6067 27.383 95.6747 29.184 94.8247 31.026L94.7657 31.004Z" fill="#221F1F"/>
<path fill-rule="evenodd" clip-rule="evenodd" d="M104.069 13.2013C104.064 13.1533 104.043 13.1133 104.001 13.0783C103.979 13.0633 103.954 13.0533 103.926 13.0463C103.907 13.0373 103.857 13.0383 103.706 13.0693C103.12 13.2123 102.466 13.4683 101.864 13.7653C101.415 13.9823 101.016 14.3023 100.577 14.5643C99.0309 15.5163 97.5429 16.7173 96.0849 17.9833C95.4359 18.5363 94.7929 19.1473 94.1799 19.7293C93.3949 20.4883 92.7199 21.2683 91.9389 21.9453C91.6989 22.1563 91.3409 21.8823 91.1459 21.3713C90.9499 20.8683 90.9479 20.0933 91.3849 19.5613C92.1569 18.6263 92.9789 17.8463 93.7469 17.0923C94.5239 16.3133 95.4149 15.6023 96.3479 14.9153C97.4709 14.1083 98.4979 13.0673 99.7349 12.2683C100.414 11.8343 101.136 11.4433 101.901 11.1263C102.287 10.9643 102.647 10.8263 103.104 10.7023C103.596 10.5573 104.268 10.4993 104.805 10.6813C105.493 10.9003 106.016 11.4863 106.323 12.0643C106.621 12.6553 106.702 13.2013 106.769 13.7203C106.858 14.5063 106.826 15.2433 106.809 15.9543C106.8 16.3073 106.791 16.6553 106.803 16.9743C106.817 17.3043 106.843 17.6743 106.872 18.0143C106.966 19.0923 107.24 20.1163 107.552 21.0573C107.619 21.2653 107.719 21.4563 107.783 21.6583C108.047 22.3893 107.9 22.6633 107.281 23.1113C107.138 23.2123 107.002 23.3293 106.856 23.4193C106.374 23.7273 105.751 23.5583 105.334 22.8973C104.782 21.9083 104.498 20.8123 104.345 19.7563C104.269 19.2263 104.223 18.7013 104.192 18.1883L104.152 17.4283C104.14 17.2063 104.131 16.8343 104.136 16.5763C104.15 15.7673 104.198 15.0693 104.186 14.4323C104.191 13.8093 104.048 13.2693 104.021 13.2433L104.069 13.2013Z" fill="#221F1F"/>
<path fill-rule="evenodd" clip-rule="evenodd" d="M66.9953 41.5963C67.3623 42.8843 67.6823 44.1833 67.9933 45.4813C68.1063 45.9543 68.2643 46.4153 68.3633 46.8923C68.7023 48.5773 68.9373 50.2803 69.1203 51.9833C69.2003 52.7403 69.3233 53.4923 69.4313 54.2403C69.5613 55.1993 69.7583 56.1743 69.5663 57.1673C69.5123 57.4753 69.0923 57.4263 68.6693 57.1823C68.2483 56.9363 67.8173 56.5183 67.7463 55.9983C67.5243 54.1483 67.1973 52.2843 67.0163 50.3583C66.9123 49.2023 66.5323 48.0543 66.2343 46.9123C65.9203 45.6513 65.5743 44.3933 65.1963 43.1443C64.9643 42.3753 64.7103 41.6113 64.4483 40.8513C64.0313 39.7073 63.6213 38.5503 63.0933 37.4603C62.6793 36.6153 62.1353 35.8513 61.6283 35.0703C61.5133 34.8993 61.3923 34.7363 61.2943 34.5553C60.9363 33.8833 60.9743 33.5923 61.4433 33.1633C61.5503 33.0653 61.6503 32.9573 61.7643 32.8733C62.1463 32.5903 62.6373 32.6913 63.0373 33.1323C63.6473 33.7773 64.1383 34.5163 64.5553 35.3063C64.9933 36.0863 65.3503 36.9183 65.6993 37.7553C66.2083 39.0033 66.6333 40.2903 67.0463 41.5753L66.9953 41.5963Z" fill="#221F1F"/>
<path fill-rule="evenodd" clip-rule="evenodd" d="M57.893 27.4479C58.106 26.6229 58.467 25.9559 58.958 25.4919C59.175 25.3109 59.412 25.1599 59.697 25.0779C59.992 24.9939 60.28 25.0159 60.537 25.0899C61.054 25.2279 61.581 25.6119 62.042 26.1449C62.292 26.4319 62.593 26.7789 62.789 27.0279C62.94 27.2129 63.085 27.3989 63.213 27.5939C64.11 28.9709 64.901 30.3439 65.829 31.6169C66.232 32.1869 66.691 32.7129 67.174 33.1879C67.806 33.7939 68.488 34.2939 69.094 34.8719C69.28 35.0539 69.083 35.3989 68.667 35.6249C68.252 35.8569 67.592 35.9299 67.101 35.5989C65.414 34.4059 64.161 32.9009 63.236 31.2299C62.673 30.2399 61.908 29.3519 61.247 28.4709L61.131 28.3189C61.102 28.2829 61.104 28.2739 61.087 28.2519L61.007 28.1309C60.95 28.0499 60.889 27.9629 60.814 27.8789C60.74 27.7979 60.655 27.7049 60.542 27.6659C60.421 27.6249 60.333 27.7179 60.267 27.7949C60.218 27.8489 60.178 27.9149 60.144 27.9849C60.073 28.1319 60.022 28.2999 59.983 28.4839C59.937 28.7189 59.904 29.1689 59.886 29.5199C59.854 30.0869 59.843 30.6919 59.758 31.3299C59.684 31.9059 59.621 32.4909 59.572 33.0809C59.494 33.9969 59.535 34.9329 59.403 35.9039C59.376 36.1169 59.363 36.3349 59.31 36.5489C59.116 37.3509 58.762 37.5159 58.113 37.3879C57.961 37.3579 57.807 37.3369 57.664 37.2909C57.181 37.1249 56.925 36.6939 56.918 36.2009C56.998 34.7699 57.151 33.2769 57.358 31.5929L57.471 30.7299L57.541 29.8499L57.622 28.8569L57.686 28.3259C57.718 28.0189 57.791 27.7259 57.839 27.4289L57.893 27.4479Z" fill="#221F1F"/>
<path fill-rule="evenodd" clip-rule="evenodd" d="M41.089 43.1319C39.613 43.5079 38.141 43.9039 36.672 44.3109L35.073 44.7869C33.18 45.3009 31.284 45.8159 29.399 46.3699C28.564 46.6309 27.731 46.8909 26.903 47.1509C25.83 47.4809 24.814 47.8939 23.611 47.9919C23.214 48.0069 23.297 47.7779 23.544 47.5109C23.777 47.2589 24.211 46.8839 24.802 46.6739C25.864 46.2949 26.922 45.9169 27.988 45.5359C29.065 45.1789 30.16 44.8629 31.269 44.5719C32.597 44.2279 33.93 43.7159 35.269 43.3009C36.739 42.8399 38.227 42.4289 39.712 42.0139L42.459 41.2639C43.844 40.8799 45.248 40.5419 46.617 40.1389C47.684 39.8379 48.708 39.4539 49.765 39.1589C49.998 39.0919 50.222 39.0139 50.459 38.9549C51.343 38.7679 51.668 38.8889 51.919 39.1089C51.977 39.1629 52.048 39.2109 52.087 39.2649C52.217 39.4419 51.907 39.7219 51.314 40.0629C50.417 40.4979 49.462 40.7929 48.504 41.1379C47.532 41.4279 46.541 41.6979 45.547 41.9719C44.069 42.3689 42.584 42.7679 41.101 43.1669L41.089 43.1319Z" fill="white"/>
<path fill-rule="evenodd" clip-rule="evenodd" d="M94.1805 56.4707C95.9265 55.9447 97.6685 55.4017 99.3925 54.8087L101.26 54.1137C103.474 53.3447 105.673 52.5307 107.817 51.5977C108.77 51.1857 109.691 50.6997 110.584 50.1997C111.711 49.5297 112.801 48.7927 113.85 48.0957C114.19 47.8887 114.371 48.1267 114.309 48.5917C114.277 48.8247 114.184 49.1177 114.018 49.4317C113.847 49.7397 113.582 49.9987 113.257 50.2417C110.916 51.8617 108.404 52.9887 105.809 53.9577C104.251 54.5167 102.698 55.2487 101.122 55.8497C99.3895 56.5057 97.6425 57.1227 95.8885 57.7137L92.6445 58.7837C91.0035 59.3117 89.3565 59.8417 87.7275 60.3657C86.4695 60.7987 85.2615 61.3057 84.0295 61.7827C83.7585 61.8867 83.4955 62.0017 83.2185 62.0957C82.1865 62.4287 81.8175 62.3947 81.4495 61.9467C81.3665 61.8447 81.2655 61.7467 81.2035 61.6377C80.9925 61.2707 81.3225 60.8207 82.0445 60.4867C84.1905 59.5117 86.5355 58.7857 88.8945 58.0567C90.6465 57.5157 92.4075 56.9727 94.1635 56.4297L94.1805 56.4707Z" fill="white"/>
<path fill-rule="evenodd" clip-rule="evenodd" d="M31.692 6.46516C33.012 6.22016 34.332 5.96216 35.649 5.68416C36.128 5.56916 36.601 5.45616 37.08 5.34116C38.777 4.99616 40.48 4.65116 42.175 4.30616C42.927 4.14316 43.674 3.94416 44.41 3.74316C45.353 3.47116 46.303 3.21416 47.285 3.09516C47.591 3.06116 47.607 3.28916 47.415 3.58316C47.223 3.87416 46.828 4.24816 46.293 4.42816C44.389 5.05116 42.446 5.52816 40.459 5.91016C39.269 6.13216 38.069 6.51516 36.863 6.79116C35.539 7.09816 34.208 7.38416 32.876 7.66616L30.414 8.17016C29.168 8.41816 27.918 8.66716 26.682 8.91216C25.721 9.10716 24.791 9.37116 23.837 9.57116C23.627 9.61616 23.425 9.68216 23.207 9.68916C22.402 9.73916 22.134 9.66016 21.929 9.38916C21.881 9.32716 21.823 9.26916 21.793 9.20816C21.692 9.00516 21.988 8.76516 22.538 8.54716C23.348 8.18616 24.205 8.01816 25.068 7.79016C25.932 7.57416 26.816 7.38516 27.705 7.22016C29.027 6.95816 30.357 6.69416 31.682 6.43016L31.692 6.46516Z" fill="white"/>
</svg>
