<svg width="30" height="30" viewBox="0 0 30 30" fill="none" xmlns="http://www.w3.org/2000/svg">
<path opacity="0.4" d="M28.1106 14.3966V22.9011C28.1106 26.8197 24.9303 30 21.0117 30H8.60282C4.68422 30 1.50391 26.8197 1.50391 22.9011V14.4959C2.58294 15.6602 4.11631 16.3275 5.77745 16.3275C7.56638 16.3275 9.28431 15.433 10.3633 13.999C11.3288 15.433 12.9757 16.3275 14.8073 16.3275C16.6246 16.3275 18.2431 15.4756 19.2228 14.0558C20.316 15.4614 22.0056 16.3275 23.7661 16.3275C25.484 16.3275 27.0458 15.6318 28.1106 14.3966Z" fill="#0555FF"/>
<path d="M19.0543 0H10.5356L9.48499 10.4496C9.3998 11.415 9.54178 12.3237 9.89673 13.1472C10.7202 15.0781 12.6511 16.3275 14.8092 16.3275C16.9956 16.3275 18.884 15.1065 19.7358 13.1614C19.9914 12.5509 20.1476 11.841 20.1618 11.1169V10.8471L19.0543 0Z" fill="#0555FF"/>
<path opacity="0.6" d="M29.5143 9.96687L29.1026 6.03408C28.5062 1.74633 26.5611 0 22.4012 0H16.9492L17.9999 10.6484C18.0141 10.7903 18.0283 10.9465 18.0283 11.2163C18.1134 11.9546 18.3406 12.6361 18.6814 13.2466C19.7036 15.1207 21.6913 16.3275 23.7642 16.3275C25.6525 16.3275 27.3562 15.4898 28.4211 14.0133C29.2729 12.8774 29.6563 11.4434 29.5143 9.96687Z" fill="#0555FF"/>
<path opacity="0.6" d="M7.12637 0C2.95221 0 1.0213 1.74633 0.410796 6.07667L0.027455 9.98107C-0.114523 11.5002 0.297214 12.9768 1.19168 14.1268C2.27071 15.5324 3.93186 16.3275 5.77757 16.3275C7.85046 16.3275 9.83815 15.1207 10.8462 13.275C11.2153 12.6361 11.4567 11.8978 11.5277 11.1311L12.6351 0.0141978H7.12637V0Z" fill="#0555FF"/>
<path d="M13.8849 21.8789C12.0817 22.0635 10.7188 23.5968 10.7188 25.4142V30H18.8825V25.9111C18.8967 22.9437 17.1504 21.5381 13.8849 21.8789Z" fill="#0555FF"/>
</svg>
