<svg width="33" height="30" viewBox="0 0 33 30" fill="none" xmlns="http://www.w3.org/2000/svg">
<path d="M28.3522 1.32586L28.8064 2.25029C29.0334 2.70441 29.601 3.1261 30.1038 3.22341L30.7201 3.32071C32.569 3.62886 33.0069 4.99121 31.677 6.33734L31.1093 6.90497C30.7363 7.29421 30.5255 8.04026 30.639 8.55925L30.7201 8.89985C31.2229 11.138 30.039 11.9975 28.0927 10.8298L27.6711 10.5866C27.1683 10.2946 26.3574 10.2946 25.8546 10.5866L25.4329 10.8298C23.4705 12.0138 22.2865 11.138 22.8055 8.89985L22.8866 8.55925C23.0001 8.04026 22.7893 7.29421 22.4163 6.90497L21.8486 6.33734C20.5187 4.99121 20.9566 3.62886 22.8055 3.32071L23.4218 3.22341C23.9084 3.14231 24.4922 2.70441 24.7193 2.25029L25.1734 1.32586C26.0492 -0.441952 27.4765 -0.441952 28.3522 1.32586Z" fill="#0555FF"/>
<path opacity="0.4" d="M32.4368 12.4355V21.8908C32.4368 27.5672 29.1931 30 24.3276 30H8.10921C3.24368 30 0 27.5672 0 21.8908V10.5379C0 4.86147 3.24368 2.42871 8.10921 2.42871H19.5432C19.2188 2.78552 18.9755 3.2072 18.8296 3.67754C18.3592 5.13719 18.8296 6.7266 20.1271 8.04029L20.4352 8.34842C19.7703 11.284 21.1488 12.6625 21.7813 13.1166C22.1381 13.3761 22.8679 13.7816 23.9059 13.7816C24.6682 13.7816 25.6089 13.5546 26.6955 12.9058L26.7604 12.8734L26.8253 12.9058C29.3878 14.4466 31.1231 13.5708 31.7394 13.1166C31.9341 12.9869 32.1935 12.7598 32.4368 12.4355Z" fill="#0555FF"/>
<path d="M16.2167 17.6255C14.8543 17.6255 13.4758 17.2038 12.4216 16.3442L7.34522 12.2896C6.82623 11.8679 6.72893 11.1057 7.15061 10.5867C7.57229 10.0677 8.33453 9.97039 8.85352 10.3921L13.9299 14.4467C15.1625 15.436 17.2547 15.436 18.4873 14.4467C19.0063 14.025 19.7685 14.1061 20.1902 14.6413C20.6119 15.1603 20.5308 15.9388 19.9956 16.3442C18.9576 17.2038 17.579 17.6255 16.2167 17.6255Z" fill="#0555FF"/>
</svg>
