<svg width="28" height="20" viewBox="0 0 28 20" fill="none" xmlns="http://www.w3.org/2000/svg">
<g clip-path="url(#clip0_2182_184)">
<path d="M7.80228 11.3004C7.70228 13.0004 9.00228 14.4004 10.7023 14.5004C12.4023 14.4004 13.7023 12.9004 13.6023 11.2004C13.7023 9.50039 12.4023 8.00039 10.7023 7.90039C9.00228 8.10039 7.70228 9.60039 7.80228 11.3004ZM11.5023 11.3004C11.5023 12.0004 11.1023 12.6004 10.6023 12.6004C10.1023 12.6004 9.70228 12.0004 9.70228 11.3004C9.70228 10.6004 10.2023 10.0004 10.7023 10.0004C11.2023 10.0004 11.5023 10.6004 11.5023 11.3004Z" fill="white"/>
<path d="M17.2023 8C15.5023 8.1 14.2023 9.6 14.3023 11.3C14.2023 13 15.5023 14.4 17.2023 14.6C18.9023 14.5 20.2023 13 20.1023 11.3C20.2023 9.6 18.9023 8.1 17.2023 8ZM17.2023 12.5C16.7023 12.5 16.3023 11.9 16.3023 11.2C16.3023 10.5 16.7023 9.9 17.2023 9.9C17.7023 9.9 18.1023 10.5 18.1023 11.2C18.1023 11.9 17.7023 12.5 17.2023 12.5Z" fill="white"/>
<path d="M24.6 4.39986C24.5 4.29986 24.5 4.19986 24.5 4.19986C22.8 2.09986 20.4 0.599862 17.7 -0.000138313C17.2 -0.200138 16.6 0.199862 16.5 0.699862C16.4 1.19986 16.7 1.79986 17.2 1.89986C17.2 1.89986 17.2 1.89986 17.3 1.89986C19.5 2.39986 21.5 3.59986 22.9 5.29986C24.2 8.39986 25 11.6999 25 15.0999C23.6 16.3999 21.9 17.2999 20 17.5999V17.1999C20 17.1999 20 17.1999 20 17.0999C21.2 16.5999 22.4 15.9999 23.4 15.0999C23.8 14.7999 23.9 14.0999 23.6 13.6999C23.3 13.2999 22.6 13.1999 22.2 13.4999C19.9 15.2999 17 16.1999 14 16.0999C11.1 16.1999 8.2 15.2999 5.9 13.4999C5.5 13.1999 4.8 13.1999 4.5 13.6999C4.2 14.1999 4.2 14.7999 4.7 15.0999C5.7 15.8999 6.9 16.5999 8.1 17.0999V17.5999C6.2 17.2999 4.5 16.3999 3.1 15.0999C3.1 11.6999 3.8 8.39986 5.2 5.29986C6.5 3.59986 8.5 2.49986 10.7 1.99986C11.2 1.79986 11.5 1.29986 11.4 0.799862C11.3 0.199862 10.8 -0.100138 10.2 -0.000138313C7.5 0.599862 5.1 1.99986 3.4 4.19986V4.29986V4.39986C1.4 8.39986 1.2 11.9999 1 15.4999C1 15.7999 1.1 16.0999 1.3 16.2999C3.3 18.3999 6 19.5999 8.9 19.8999C9.2 19.8999 9.4 19.7999 9.6 19.5999C9.8 19.3999 9.9 19.1999 9.9 18.8999V17.8999C12.5 18.4999 15.3 18.4999 17.9 17.8999V18.8999C17.9 19.1999 18 19.3999 18.2 19.5999C18.4 19.7999 18.6 19.8999 18.9 19.8999C21.8 19.6999 24.6 18.4999 26.6 16.3999C26.8 16.1999 26.9 15.8999 26.9 15.5999C26.7 11.9999 26.5 8.39986 24.6 4.39986Z" fill="white"/>
<path d="M21.3988 5.59989C21.6988 5.09989 21.4988 4.49989 20.9988 4.29989C18.7988 3.29989 16.3988 2.69989 13.8988 2.79989C11.4988 2.69989 8.99877 3.29989 6.79877 4.29989C6.39877 4.49989 6.19877 5.09989 6.39877 5.59989C6.69877 6.09989 7.29877 6.19989 7.79877 5.99989C9.69877 5.09989 11.7988 4.69989 13.8988 4.69989C15.9988 4.69989 18.1988 5.09989 20.0988 5.99989C20.1988 6.09989 20.3988 6.09989 20.5988 6.09989C20.8988 6.09989 21.1988 5.89989 21.3988 5.59989Z" fill="white"/>
</g>
<defs>
<clipPath id="clip0_2182_184">
<rect width="26" height="19.8" fill="white" transform="translate(1)"/>
</clipPath>
</defs>
</svg>
