<svg width="28" height="20" viewBox="0 0 28 20" fill="none" xmlns="http://www.w3.org/2000/svg">
<path d="M20.2 0H7.8C5.7 0 4 1.7 4 3.8V16.1C4 18.3 5.7 20 7.8 20H14C14.4 20 14.8 19.7 14.8 19.2V13C14.8 12.6 14.5 12.2 14 12.2H13.2V10.7H14C14.4 10.7 14.8 10.4 14.8 9.9V7.3C14.8 6.2 15.7 5.4 16.7 5.4H18.6V6.9H17.8C17 6.9 16.3 7.6 16.3 8.4V10C16.3 10.4 16.6 10.8 17.1 10.8H18.4L18 12.3H17.1C16.7 12.3 16.3 12.6 16.3 13.1V16.2C16.3 16.6 16.6 17 17.1 17C17.5 17 17.9 16.7 17.9 16.2V13.9H18.7C19.1 13.9 19.4 13.7 19.5 13.3L20.3 10.2C20.4 10 20.3 9.7 20.2 9.5C20 9.3 19.8 9.2 19.6 9.2H18.1V8.5H19.6C20 8.5 20.4 8.2 20.4 7.7V4.6C20.4 4.2 20.1 3.8 19.6 3.8H16.9C15 3.8 13.4 5.4 13.4 7.3V9.2H12.5C12 9.2 11.7 9.6 11.7 10V13.1C11.7 13.5 12 13.9 12.5 13.9H13.3V18.5H7.8C6.5 18.5 5.5 17.5 5.5 16.2V3.8C5.5 2.5 6.5 1.5 7.8 1.5H20.1C21.4 1.5 22.4 2.5 22.4 3.8V16.1C22.4 17.4 21.4 18.4 20.1 18.4H17C16.6 18.4 16.2 18.7 16.2 19.2C16.2 19.6 16.5 20 17 20H20.1C22.2 20 23.9 18.3 23.9 16.2V3.8C24 1.7 22.3 0 20.2 0Z" fill="white"/>
</svg>
