<svg width="28" height="20" viewBox="0 0 28 20" fill="none" xmlns="http://www.w3.org/2000/svg">
<g clip-path="url(#clip0_2182_200)">
<path d="M6.7 0C5.2 0 4 1.2 4 2.7C4 4.2 5.2 5.4 6.7 5.4C8.2 5.4 9.4 4.2 9.4 2.7C9.4 1.2 8.2 0 6.7 0ZM6.7 3.8C6.1 3.8 5.5 3.3 5.5 2.6C5.5 1.9 6 1.4 6.7 1.4C7.4 1.4 7.9 1.9 7.9 2.6C7.9 3.3 7.3 3.8 6.7 3.8Z" fill="white"/>
<path d="M8.6 6.2002H4.8C4.3 6.2002 4 6.5002 4 6.9002C4 7.3002 4.3 7.7002 4.8 7.7002H7.9V18.5002H5.5V10.0002C5.5 9.6002 5.2 9.2002 4.7 9.2002C4.2 9.2002 4 9.6002 4 10.0002V19.2002C4 19.7002 4.3 20.0002 4.8 20.0002H8.6C9 20.0002 9.4 19.7002 9.4 19.2002V6.9002C9.4 6.5002 9 6.2002 8.6 6.2002Z" fill="white"/>
<path d="M22.7016 7.39961C21.8016 6.49961 20.6016 6.09961 19.4016 6.09961H18.6016C17.5016 6.09961 16.5016 6.29961 15.5016 6.79961C15.5016 6.39961 15.1016 6.09961 14.7016 6.09961H10.9016C10.5016 6.09961 10.1016 6.39961 10.1016 6.89961V19.1996C10.1016 19.5996 10.4016 19.9996 10.9016 19.9996H14.7016C15.1016 19.9996 15.5016 19.6996 15.5016 19.1996V12.2996C15.5016 11.4996 16.2016 10.7996 17.0016 10.7996C17.8016 10.7996 18.5016 11.4996 18.5016 12.2996V19.1996C18.5016 19.5996 18.8016 19.9996 19.3016 19.9996H23.1016C23.5016 19.9996 23.9016 19.6996 23.9016 19.1996V10.6996C24.0016 9.49961 23.6016 8.29961 22.7016 7.39961ZM22.5016 18.4996H20.2016V12.2996C20.2016 10.5996 18.8016 9.19961 17.1016 9.19961C15.4016 9.19961 14.0016 10.5996 14.0016 12.2996V18.4996H11.7016V7.69961H14.0016V8.49961C14.0016 8.79961 14.2016 9.09961 14.5016 9.19961C14.8016 9.29961 15.1016 9.29961 15.3016 8.99961C16.0016 8.19961 16.6016 7.69961 18.6016 7.69961H19.4016C20.2016 7.69961 21.0016 7.99961 21.6016 8.49961C22.2016 9.09961 22.5016 9.89961 22.4016 10.6996V18.4996H22.5016Z" fill="white"/>
</g>
<defs>
<clipPath id="clip0_2182_200">
<rect width="20" height="20" fill="white" transform="translate(4)"/>
</clipPath>
</defs>
</svg>
