<svg width="28" height="20" viewBox="0 0 28 20" fill="none" xmlns="http://www.w3.org/2000/svg">
<path d="M18.4219 4.125C19.1467 4.125 19.7344 3.50939 19.7344 2.75C19.7344 1.99061 19.1467 1.375 18.4219 1.375C17.697 1.375 17.1094 1.99061 17.1094 2.75C17.1094 3.50939 17.697 4.125 18.4219 4.125Z" stroke="white" stroke-width="2" stroke-linecap="round" stroke-linejoin="round"/>
<path d="M16.207 15.125C15.3702 15.5779 14.4419 15.8142 13.5 15.8142C12.5581 15.8142 11.6298 15.5779 10.793 15.125" stroke="white" stroke-width="2" stroke-linecap="round" stroke-linejoin="round"/>
<path d="M13.5 6.1875L14.1562 2.0625L17.1258 2.54375" stroke="white" stroke-width="2" stroke-linecap="round" stroke-linejoin="round"/>
<path d="M7.87237 7.72578C9.37354 6.76328 11.3423 6.1875 13.4997 6.1875C15.6571 6.1875 17.6259 6.76328 19.1271 7.72578C19.2992 7.47826 19.5219 7.27401 19.7788 7.12787C20.0357 6.98174 20.3205 6.89738 20.6124 6.88092C20.9043 6.86446 21.1961 6.91633 21.4665 7.03274C21.7369 7.14915 21.9792 7.32719 22.1757 7.55393C22.3722 7.78067 22.5181 8.05041 22.6027 8.34358C22.6873 8.63674 22.7085 8.94597 22.6648 9.2488C22.6211 9.55162 22.5136 9.84045 22.35 10.0943C22.1864 10.3482 21.971 10.5607 21.7192 10.7164V10.7164C21.9255 11.2426 22.0314 11.8061 22.031 12.375C22.031 15.7953 18.2083 18.5625 13.4997 18.5625C8.79112 18.5625 4.96846 15.7953 4.96846 12.375C4.96802 11.8061 5.07391 11.2426 5.28018 10.7164V10.7164C5.02845 10.5607 4.81298 10.3482 4.64942 10.0943C4.48587 9.84045 4.37833 9.55162 4.33463 9.2488C4.29092 8.94597 4.31214 8.63674 4.39674 8.34358C4.48134 8.05041 4.6272 7.78067 4.82374 7.55393C5.02027 7.32719 5.26253 7.14915 5.53294 7.03274C5.80335 6.91633 6.09511 6.86446 6.38703 6.88092C6.67896 6.89738 6.96372 6.98174 7.22064 7.12787C7.47757 7.27401 7.7002 7.47826 7.87237 7.72578V7.72578Z" stroke="white" stroke-width="2" stroke-linecap="round" stroke-linejoin="round"/>
<path d="M10.2188 12.5469C10.853 12.5469 11.3672 12.0082 11.3672 11.3438C11.3672 10.6793 10.853 10.1406 10.2188 10.1406C9.58449 10.1406 9.07031 10.6793 9.07031 11.3438C9.07031 12.0082 9.58449 12.5469 10.2188 12.5469Z" fill="white"/>
<path d="M16.7812 12.5469C17.4155 12.5469 17.9297 12.0082 17.9297 11.3438C17.9297 10.6793 17.4155 10.1406 16.7812 10.1406C16.147 10.1406 15.6328 10.6793 15.6328 11.3438C15.6328 12.0082 16.147 12.5469 16.7812 12.5469Z" fill="white"/>
</svg>
