<svg width="28" height="20" viewBox="0 0 28 20" fill="none" xmlns="http://www.w3.org/2000/svg">
<path d="M24.6477 1.4234C24.1714 1.04234 23.4093 0.851811 22.8377 1.1376L4.45165 8.56825C3.68953 8.85404 3.30847 9.71142 3.68953 10.4735C3.88006 10.8546 4.16585 11.1404 4.45165 11.2357L5.59482 11.712C5.97588 11.9025 6.4522 11.712 6.64273 11.3309C6.83326 10.9499 6.64273 10.4735 6.16641 10.283L5.40429 9.90195L23.4093 2.66184C23.5046 2.66184 23.5046 2.66184 23.5998 2.66184C23.6951 2.66184 23.6951 2.7571 23.6951 2.85237L20.4561 18.19C20.4561 18.2852 20.3608 18.3805 20.2656 18.4758C20.1703 18.4758 20.075 18.4758 19.9798 18.3805L13.5018 13.4267L19.7892 7.04401C20.075 6.75822 20.075 6.18663 19.7892 5.90084C19.5035 5.61504 19.1224 5.61504 18.8366 5.80557L9.59594 11.2357C9.21488 11.4262 9.02435 11.9025 9.21488 12.2836C9.40541 12.6646 9.88173 12.8552 10.2628 12.6646C10.3581 12.6646 10.3581 12.5694 10.3581 12.5694L14.2639 10.283L12.3586 12.1883C11.6918 12.7599 11.6918 13.8078 12.2633 14.4747C12.3586 14.5699 12.4539 14.5699 12.4539 14.6652L18.8366 19.6189C19.2177 19.9047 19.5987 20 19.9798 20C20.1703 20 20.4561 20 20.6466 19.9047C21.3135 19.7142 21.6945 19.1426 21.8851 18.4758L25.1241 3.13816C25.4099 2.56657 25.2193 1.89972 24.6477 1.4234Z" fill="white"/>
</svg>
