<svg width="28" height="20" viewBox="0 0 28 20" fill="none" xmlns="http://www.w3.org/2000/svg">
<path d="M24.8045 3.49583C24.7181 3.41199 24.7181 3.41199 24.6316 3.32815C24.8045 2.99279 24.891 2.65744 24.9775 2.32208C25.064 2.07056 24.891 1.73521 24.6316 1.56753C24.3721 1.39985 24.0262 1.39985 23.7667 1.56753C23.2478 1.90288 22.6425 2.1544 22.0371 2.23824C20.5669 0.896813 18.4048 0.645296 16.5887 1.48369C14.6861 2.40592 13.7348 4.5019 14.2536 6.51404C14.3401 6.93323 14.7725 7.18475 15.205 7.10091C15.6374 7.01707 15.8968 6.59788 15.8103 6.17868C15.4644 4.83725 16.0698 3.49583 17.367 2.82511C18.6643 2.1544 20.3074 2.48976 21.2587 3.57967C21.4317 3.74734 21.6912 3.83118 21.9506 3.74734H22.1236C21.8641 4.0827 21.8641 4.5019 22.1236 4.83725C22.2101 4.92109 22.2965 4.92109 22.383 5.00493C22.2101 5.17261 22.0371 5.42413 22.1236 5.67565C22.383 8.86153 20.9993 12.0474 18.4048 14.0596C15.7239 16.3232 12.0051 16.9101 8.71876 15.7363C10.016 15.4848 11.2268 14.9818 12.1781 14.1434C12.351 13.8919 12.4375 13.6404 12.2645 13.305C12.0916 13.0535 11.8321 12.8858 11.5727 12.8858C10.7079 12.8858 9.84303 12.4666 9.23765 11.8797C9.4971 11.7959 9.75655 11.7121 10.016 11.6282C10.2754 11.4605 10.4484 11.209 10.4484 10.8737C10.4484 10.5383 10.189 10.2868 9.84303 10.2868C8.80524 10.0353 7.94041 9.36457 7.508 8.44234C7.68096 8.44234 7.85393 8.44234 8.11338 8.52618C8.45931 8.52618 8.71876 8.3585 8.89172 8.10698C8.9782 7.77162 8.89172 7.43627 8.63227 7.26859C7.33503 6.17868 7.07559 4.92109 7.24855 4.0827C8.71876 5.59181 10.5349 6.59788 12.6105 7.01707C13.0429 7.10091 13.4753 6.84939 13.5618 6.4302C13.6483 6.011 13.3888 5.59181 12.9564 5.50797C10.8808 5.00493 9.06469 3.91502 7.76745 2.23824C7.59448 2.07056 7.42152 1.98672 7.16207 1.98672C6.90262 1.98672 6.72965 2.07056 6.55669 2.23824C5.5189 3.49583 5.43241 5.34029 6.29724 6.68171H6.21076C5.95131 6.76555 5.86483 7.01707 5.77834 7.26859C5.77834 8.52618 6.29724 9.78376 7.24855 10.6222C7.07559 10.7898 6.9891 11.1252 7.07558 11.3767C7.508 12.5505 8.37283 13.4727 9.4971 14.0596C8.28634 14.4788 6.9891 14.7303 5.77834 14.7303C5.34593 14.7303 5 15.0656 5 15.4848C5 15.7363 5.17297 15.9879 5.34593 16.1555C7.33503 17.3293 9.58358 18 11.8321 18C14.5131 18 17.1076 16.9939 19.1832 15.3171C22.0371 13.0535 23.6803 9.69992 23.5073 6.09484C24.1127 5.67565 24.5451 5.08877 24.7181 4.41806C25.064 3.91502 24.9775 3.66351 24.8045 3.49583Z" fill="white"/>
</svg>
