<svg width="46" height="40" viewBox="0 0 46 40" fill="none" xmlns="http://www.w3.org/2000/svg">
<path d="M36.0335 0H34.0834C33.0001 0 32.1334 0.866701 32.1334 1.95008C32.1334 3.03345 33.0001 3.90015 34.0834 3.90015H36.0335C37.4419 3.90015 38.7636 4.44184 39.7603 5.43855C40.757 6.43526 41.2987 7.75697 41.2987 9.16536V30.8329C41.2987 33.7363 38.937 36.0981 36.0335 36.0981H32.285C31.2017 36.0981 30.335 36.9648 30.335 38.0482C30.335 39.1316 31.2017 39.9983 32.285 39.9983H36.0335C41.0821 39.9983 45.1989 35.8814 45.1989 30.8329V9.16536C45.1989 6.76027 44.2238 4.37684 42.5121 2.68677C40.822 0.975039 38.4603 0 36.0335 0Z" fill="#0099FF"/>
<g opacity="0.5">
<path d="M28.4499 18.0491H17.0311L26.0881 2.94678C26.6515 2.01508 26.3482 0.823366 25.4164 0.281678C25.1131 0.0866701 24.7664 0 24.4197 0C24.2681 0 24.0947 0.0216675 23.9431 0.0650026C23.4447 0.195008 23.0114 0.498353 22.7513 0.953371L13.5426 16.2723C12.8493 17.4424 12.8276 18.8724 13.4993 20.0641C14.171 21.2342 15.4277 21.9709 16.7711 21.9709H28.1899L19.1329 37.0515C18.8729 37.5065 18.7862 38.0265 18.9162 38.5249C19.0462 39.0232 19.3495 39.4566 19.8046 39.7166C20.7363 40.2799 21.928 39.9766 22.4697 39.0449L31.6567 23.7259C32.3501 22.5559 32.3717 21.1258 31.7 19.9341C31.05 18.7857 29.7933 18.0491 28.4499 18.0491Z" fill="#0099FF"/>
</g>
<path d="M11.1154 36.1198H9.16536C7.75697 36.1198 6.43526 35.5781 5.43855 34.5814C4.44184 33.5847 3.90016 32.2629 3.90016 30.8546V9.18703C3.90016 6.26192 6.26192 3.90015 9.16536 3.90015H12.9138C13.9972 3.90015 14.8639 3.03345 14.8639 1.95008C14.8639 0.866701 13.9972 0 12.9138 0H9.16536C4.11683 0 0 4.11683 0 9.16536V30.8329C0 33.238 0.975039 35.6214 2.68677 37.3115C4.39851 39.0232 6.76027 39.9983 9.16536 39.9983H11.1154C12.1988 39.9983 13.0655 39.1316 13.0655 38.0482C13.0655 36.9865 12.1988 36.1198 11.1154 36.1198Z" fill="#0099FF"/>
</svg>
