<svg width="45" height="40" viewBox="0 0 45 40" fill="none" xmlns="http://www.w3.org/2000/svg">
<g opacity="0.5">
<path fill-rule="evenodd" clip-rule="evenodd" d="M4.57219 30.8535C2.04905 30.8535 0.00585938 32.8967 0.00585938 35.4198C0.00585938 37.943 2.04905 39.9862 4.57219 39.9862C7.09534 39.9862 9.13853 37.943 9.13853 35.4198C9.13853 32.8967 7.09534 30.8535 4.57219 30.8535ZM4.57219 34.2817C5.20298 34.2817 5.71035 34.7891 5.71035 35.4198C5.71035 36.0506 5.20298 36.558 4.57219 36.558C3.94141 36.558 3.43404 36.0506 3.43404 35.4198C3.43404 34.7891 3.94141 34.2817 4.57219 34.2817Z" fill="#F7578C"/>
</g>
<g opacity="0.5">
<path fill-rule="evenodd" clip-rule="evenodd" d="M2.22729 27.7818C2.96778 27.5487 3.76311 27.4253 4.57216 27.4253C8.98766 27.4253 12.5667 31.0043 12.5667 35.4198C12.5667 36.2426 12.4433 37.0242 12.2101 37.7647C11.9359 38.6697 12.4433 39.6296 13.3483 39.9039C14.2533 40.1781 15.2132 39.6707 15.4875 38.7657C15.8166 37.6961 15.9949 36.5717 15.9949 35.4061C15.9949 29.0982 10.88 23.9834 4.57216 23.9834C3.40658 23.9834 2.26843 24.1617 1.21255 24.4908C0.307509 24.765 -0.199862 25.7249 0.0743923 26.63C0.362359 27.5487 1.32225 28.0561 2.22729 27.7818Z" fill="#F7578C"/>
</g>
<g opacity="0.5">
<path fill-rule="evenodd" clip-rule="evenodd" d="M2.02172 20.7885C2.85819 20.6513 3.70838 20.569 4.586 20.569C12.7862 20.569 19.4369 27.2197 19.4369 35.4199C19.4369 36.2975 19.3546 37.1477 19.2175 37.9842C19.0529 38.9167 19.6837 39.808 20.6162 39.9725C21.5486 40.1371 22.44 39.5063 22.6045 38.5738C22.7828 37.5454 22.8788 36.4895 22.8788 35.4199C22.8788 25.3274 14.6786 17.1409 4.59971 17.1409C3.53012 17.1409 2.47424 17.2369 1.44578 17.4151C0.513317 17.5797 -0.103755 18.4573 0.0470845 19.3898C0.197924 20.3222 1.08925 20.953 2.02172 20.7885Z" fill="#F7578C"/>
</g>
<path fill-rule="evenodd" clip-rule="evenodd" d="M26.8554 36.5718H33.7117C37.8118 36.5718 41.144 33.2533 41.144 29.1395V10.8605C41.144 6.76037 37.8118 3.42818 33.7117 3.42818H10.8663C6.76623 3.42818 3.43404 6.74666 3.43404 10.8605V13.1505C3.43404 14.0967 2.66613 14.8646 1.71995 14.8646C0.773772 14.8509 0.00585938 14.083 0.00585938 13.1368V10.8605C0.00585938 4.86801 4.87387 0 10.8663 0H33.7254C39.7179 0 44.5722 4.86801 44.5722 10.8605V29.1395C44.5722 35.132 39.7042 40 33.7117 40H26.8554C25.9092 40 25.1413 39.2321 25.1413 38.2859C25.1413 37.3397 25.9092 36.5718 26.8554 36.5718Z" fill="#F7578C"/>
</svg>
