<svg width="40" height="40" viewBox="0 0 40 40" fill="none" xmlns="http://www.w3.org/2000/svg">
<path d="M21.5449 13.3333H22.7268H25.1275C26.0755 13.3333 26.9866 12.9517 27.6637 12.2869C28.3408 11.6097 28.7225 10.6987 28.7225 9.75069V3.59495C28.7225 2.64697 28.3408 1.73592 27.6637 1.05879C26.9989 0.381656 26.0878 0 25.1399 0H14.8844C13.9364 0 13.0131 0.381656 12.3482 1.04648C11.6711 1.72361 11.3018 2.63466 11.3018 3.58264V9.73838C11.3018 10.6864 11.6834 11.5974 12.3482 12.2745C13.0254 12.9517 13.9364 13.321 14.8844 13.321H17.2851H18.467H21.5449V13.3333ZM14.8721 10.2555C14.7367 10.2555 14.6012 10.2062 14.5027 10.1077C14.4043 10.0092 14.355 9.88612 14.355 9.75069V3.59495C14.355 3.45953 14.4043 3.3241 14.5027 3.23792C14.6012 3.13943 14.7243 3.09018 14.8721 3.09018H25.1275C25.263 3.09018 25.3984 3.13943 25.4846 3.23792C25.5831 3.33641 25.6323 3.45953 25.6323 3.59495V9.75069C25.6323 9.88612 25.5831 10.0215 25.4846 10.1077C25.3861 10.2062 25.2507 10.2555 25.1275 10.2555H14.8721Z" fill="#00CEC9"/>
<g opacity="0.5">
<path d="M32.8347 25.1402C32.8347 22.0253 30.3108 19.5015 27.196 19.5015H24.1181C22.7023 19.5015 21.5573 18.3565 21.5573 16.9407V14.5769H18.4795V16.9407C18.4795 18.3565 17.3345 19.5015 15.9187 19.5015H12.8408C9.726 19.5015 7.20215 22.0253 7.20215 25.1402V25.4479H10.28V25.1402C10.28 23.7243 11.425 22.5794 12.8408 22.5794H15.9187C17.5315 22.5794 18.9965 21.9022 20.0184 20.8065C21.0526 21.9022 22.5053 22.5794 24.1181 22.5794H27.196C28.6118 22.5794 29.7568 23.7243 29.7568 25.1402V25.4479H32.8347V25.1402Z" fill="#00CEC9"/>
</g>
<path d="M7.17759 26.6791H3.59495C2.64697 26.6791 1.72361 27.0607 1.05879 27.7378C0.381656 28.4027 0 29.3137 0 30.2617V36.4174C0 37.3654 0.381656 38.2765 1.05879 38.9536C1.73592 39.6307 2.64697 40.0001 3.59495 40.0001H13.8504C14.7984 40.0001 15.7095 39.6184 16.3866 38.9536C17.0637 38.2765 17.4454 37.3654 17.4454 36.4174V30.2617C17.4454 29.3137 17.0637 28.4027 16.3866 27.7255C15.7095 27.0484 14.7984 26.6667 13.8504 26.6667H10.2555L7.17759 26.6791ZM13.8504 29.7569C13.9858 29.7569 14.1213 29.8062 14.2074 29.9047C14.3059 30.0032 14.3552 30.1386 14.3552 30.274V36.4298C14.3552 36.5652 14.3059 36.7006 14.2074 36.7868C14.109 36.8853 13.9858 36.9345 13.8504 36.9345H3.59495C3.45953 36.9345 3.3241 36.8853 3.23792 36.7868C3.13943 36.6883 3.09018 36.5652 3.09018 36.4298V30.274C3.09018 30.1386 3.13943 30.0032 3.23792 29.9047C3.33641 29.8062 3.45953 29.7569 3.59495 29.7569H13.8504Z" fill="#00CEC9"/>
<path d="M38.9536 27.7255C38.2764 27.0484 37.3654 26.6667 36.4174 26.6667H32.8225H29.7446H26.1496C25.2017 26.6667 24.2783 27.0484 23.6135 27.7255C22.9363 28.4027 22.5547 29.3137 22.5547 30.2617V36.4174C22.5547 37.3654 22.9363 38.2765 23.6135 38.9536C24.2906 39.6307 25.2017 40.0001 26.1496 40.0001H36.4051C37.3531 40.0001 38.2641 39.6184 38.9413 38.9536C39.6184 38.2765 40.0001 37.3654 40.0001 36.4174V30.2617C40.0124 29.3137 39.6307 28.4027 38.9536 27.7255ZM36.9345 36.4174C36.9345 36.5529 36.8853 36.6883 36.7868 36.7745C36.6883 36.873 36.5652 36.9222 36.4174 36.9222H26.162C26.0265 36.9222 25.8911 36.873 25.8049 36.7745C25.7064 36.676 25.6572 36.5529 25.6572 36.4174V30.2617C25.6572 30.1263 25.7064 29.9908 25.8049 29.8924C25.9034 29.7939 26.0265 29.7446 26.162 29.7446H36.4174C36.5528 29.7446 36.6883 29.7939 36.7868 29.8924C36.8853 29.9908 36.9345 30.1263 36.9345 30.2617V36.4174Z" fill="#00CEC9"/>
</svg>
