<svg width="390" height="260" viewBox="0 0 390 260" fill="none" xmlns="http://www.w3.org/2000/svg">
<path fill-rule="evenodd" clip-rule="evenodd" d="M355.674 258.871C355.361 258.871 356.196 258.768 356.404 258.768C357.448 258.768 358.7 258.665 358.595 258.768C357.656 258.768 356.613 258.871 355.674 258.871Z" fill="#00CEC9"/>
<path fill-rule="evenodd" clip-rule="evenodd" d="M389.687 186.797C389.687 183.409 389.791 183.306 389.791 180.431C389.791 177.762 389.791 178.173 389.791 176.838C389.895 161.027 389.791 145.729 389.687 132.69C389.687 132.998 389.687 131.664 389.687 130.534C389.791 130.637 389.791 131.766 389.895 133.409C389.895 149.22 390 163.696 390 178.994C389.791 177.659 389.791 187.31 389.687 186.797Z" fill="#00CEC9"/>
<path fill-rule="evenodd" clip-rule="evenodd" d="M387.808 21.9109C387.6 21.3976 387.287 20.4735 386.974 19.7549C386.661 19.0362 386.348 18.4202 386.348 18.4202C387.391 20.3709 387.704 21.6029 387.808 21.9109Z" fill="#00CEC9"/>
<path fill-rule="evenodd" clip-rule="evenodd" d="M376.749 12.0547C376.228 11.644 375.602 11.028 374.871 10.412C374.141 9.89866 373.306 9.28265 372.576 8.66664C371.741 8.1533 371.011 7.74262 370.385 7.33195C369.759 6.92127 369.237 6.71593 369.029 6.61327C368.194 6.20259 367.359 5.79192 366.42 5.48391C365.481 5.1759 364.542 4.76523 363.499 4.55989C362.977 4.45722 362.456 4.25188 361.934 4.14922C361.412 4.04655 360.786 3.94388 360.16 3.84121C358.908 3.63587 357.552 3.5332 355.987 3.5332C355.465 3.63587 354.735 3.63587 354.526 3.63587C355.465 3.63587 356.404 3.63587 357.552 3.63587C358.7 3.63587 359.847 3.84121 361.099 4.04655C361.725 4.14922 362.351 4.25188 362.977 4.45722C363.603 4.66256 364.229 4.76523 364.855 4.97057C366.107 5.38124 367.359 5.79191 368.507 6.40793C369.029 6.71593 369.655 6.92127 370.176 7.22928C370.698 7.53728 371.22 7.84529 371.741 8.1533C372.785 8.66664 373.515 9.38532 374.245 9.89866C374.976 10.412 375.497 11.028 375.915 11.336C376.436 11.644 376.645 11.952 376.749 12.0547Z" fill="#00CEC9"/>
<path fill-rule="evenodd" clip-rule="evenodd" d="M242.367 0.14502C245.497 0.247962 239.863 0.247962 242.367 0.14502C241.846 0.247962 238.298 0.247962 238.716 0.14502C239.863 0.247962 242.576 0.247962 242.367 0.14502Z" fill="#00CEC9"/>
<path fill-rule="evenodd" clip-rule="evenodd" d="M158.483 0.0426402C158.692 0.0426402 158.17 0.145583 156.292 0.145583C156.188 0.0426403 156.605 -0.0603024 158.483 0.0426402Z" fill="#00CEC9"/>
<path fill-rule="evenodd" clip-rule="evenodd" d="M39.1252 0.555679C34.8475 0.555679 35.3692 0.555679 32.5522 0.555679C28.4831 0.658348 23.7881 1.58237 19.6148 3.53307C15.3371 5.48378 11.4767 8.3585 8.76404 11.3359C6.05136 14.3133 4.06902 17.496 2.50401 21.2948C1.04334 24.9908 0.208668 29.2003 0.208668 33.4097C0.208668 37.5164 0.208668 41.6232 0.208668 45.8326C0.208668 54.1488 0.208668 62.4649 0.208668 70.4731C0.208668 79.6106 0.208668 89.0561 0.208668 96.7563C-0.104334 90.2881 2.33204e-08 74.3745 0.104334 64.005C0.104334 61.9516 0.104334 60.3089 0 58.9742C0 52.1981 0 45.9353 0 39.8778C0 38.3378 0 36.9004 0 35.4631C0 34.7444 0 34.0257 0 33.307C0 32.5883 0.104334 31.767 0.104334 31.0483V30.0216L0.313002 28.8923C0.417335 28.1736 0.521669 27.4549 0.626003 26.7362C0.834671 26.0175 0.939004 25.2988 1.14767 24.5802L1.46067 23.5535L1.87801 22.5268C2.08668 21.8081 2.39968 21.1921 2.60835 20.4734C2.92135 19.8574 3.23435 19.1387 3.54735 18.5227L4.06902 17.5987L4.59069 16.6747L5.63403 14.9293L6.88603 13.1839L7.51204 12.3626L8.24237 11.5412L9.70305 10.0012L11.2681 8.56384L12.1027 7.84516L12.9374 7.22915L14.7111 5.99712L16.5891 4.86777L17.5281 4.35442L18.4671 3.94375C19.0931 3.63574 19.8234 3.32774 20.4494 3.01973C21.1798 2.81439 21.8058 2.50639 22.5361 2.30105L23.5794 1.89037L24.6228 1.58237C25.3531 1.37703 26.0835 1.27436 26.8138 1.06902C27.8571 0.863685 28.7961 0.761017 29.7351 0.658348C30.4655 0.555679 31.5088 0.555679 32.4478 0.45301C34.4302 0.350342 36.2038 0.453011 38.3948 0.350342C39.0209 0.350342 39.6469 0.350342 39.8555 0.350342C40.8989 0.453011 39.7512 0.555679 39.1252 0.555679Z" fill="#00CEC9"/>
<path fill-rule="evenodd" clip-rule="evenodd" d="M0.625974 73.9641C0.625974 76.3255 0.625974 81.3563 0.625974 81.0483C0.625974 83.7177 0.625974 86.695 0.625974 90.2884C0.417306 110.206 0.52164 137.003 0.417306 162.157C0.312972 163.081 0.312972 160.617 0.312972 159.282C0.312972 149.22 0.208638 141.931 0.312972 132.28C0.208638 119.857 0.417306 105.586 0.417306 93.8819C0.52164 89.3644 0.52164 80.9456 0.52164 73.2454C0.417306 72.5268 0.52164 73.2454 0.625974 73.9641Z" fill="#00CEC9"/>
<path fill-rule="evenodd" clip-rule="evenodd" d="M0.625977 143.779C0.73031 149.836 0.73031 155.791 0.73031 161.541C0.625977 160.514 0.625977 156.92 0.625977 155.175C0.625977 150.658 0.625977 147.167 0.625977 143.779Z" fill="#00CEC9"/>
<path fill-rule="evenodd" clip-rule="evenodd" d="M0.312972 164.415C0.417306 163.902 0.417306 170.678 0.312972 172.218C0.208638 169.754 0.312972 167.187 0.312972 164.415Z" fill="#00CEC9"/>
<path fill-rule="evenodd" clip-rule="evenodd" d="M66.252 259.487C67.191 259.384 71.7816 259.281 74.9117 259.384C81.902 259.281 90.2487 259.281 99.5345 259.281C98.8041 259.384 103.499 259.384 104.647 259.281C104.334 259.178 101.83 259.281 102.456 259.281C108.403 259.281 114.35 259.281 118.419 259.281C118.628 259.281 117.689 259.281 117.689 259.281C117.793 259.281 119.045 259.281 119.88 259.281C119.671 259.281 113.515 259.281 116.228 259.281C114.976 259.281 114.663 259.281 113.307 259.281C116.019 259.281 112.472 259.384 116.958 259.384C116.854 259.384 116.332 259.384 115.811 259.384C115.498 259.384 115.289 259.384 115.08 259.384C114.872 259.384 114.767 259.384 114.767 259.384C113.515 259.384 113.411 259.281 112.576 259.281C110.385 259.281 101.725 259.281 103.916 259.384C100.995 259.487 94.4221 259.281 91.6051 259.384C82.528 259.281 77.7287 259.384 66.252 259.487Z" fill="#00CEC9"/>
<path fill-rule="evenodd" clip-rule="evenodd" d="M121.236 259.178C122.696 259.178 124.157 259.178 122.696 259.281C121.131 259.281 121.131 259.178 121.236 259.178Z" fill="#00CEC9"/>
<path fill-rule="evenodd" clip-rule="evenodd" d="M126.348 259.076C128.643 259.076 128.226 259.076 130 259.076C128.852 259.179 125.931 259.179 126.348 259.076Z" fill="#00CEC9"/>
<path fill-rule="evenodd" clip-rule="evenodd" d="M136.469 259.281C136.782 259.178 140.538 259.281 142.937 259.281C142.729 259.281 138.764 259.281 136.469 259.281Z" fill="#00CEC9"/>
<path fill-rule="evenodd" clip-rule="evenodd" d="M147.319 259.179C148.571 259.179 149.093 259.076 151.701 259.076C150.867 259.179 149.406 259.179 147.319 259.179Z" fill="#00CEC9"/>
<path fill-rule="evenodd" clip-rule="evenodd" d="M224.734 259.897C227.03 259.897 228.49 259.897 229.116 260C227.76 259.897 224.943 259.897 224.734 259.897Z" fill="#00CEC9"/>
<path fill-rule="evenodd" clip-rule="evenodd" d="M89.4139 256.817C83.1539 256.817 76.4765 256.714 70.6338 256.817C63.9565 256.817 56.4444 256.714 49.0367 256.714C45.2807 256.714 41.5247 256.714 37.873 256.714C36.934 256.714 36.0993 256.714 35.1603 256.714C34.2213 256.714 33.3866 256.714 32.552 256.714C31.7173 256.612 30.8826 256.714 30.048 256.612C29.2133 256.509 28.3786 256.406 27.6483 256.304C23.1619 255.482 18.3626 253.326 14.7109 250.451C12.5199 248.706 10.5375 246.755 8.97253 244.497L8.34652 243.675C8.13785 243.367 7.92919 243.059 7.82485 242.751L6.78152 241.006C6.15551 239.774 5.52951 238.542 5.11217 237.207C4.06884 234.64 3.54717 231.868 3.3385 229.096L3.23416 227.043C3.23416 226.324 3.23416 225.606 3.23416 224.887V220.472C3.12983 208.768 3.0255 197.064 3.0255 185.77V180.739C2.92116 173.861 2.92116 167.084 2.81683 159.384C2.71249 143.471 2.81683 124.682 2.81683 108.153C2.81683 108.05 2.92116 108.255 2.81683 106.715C2.92116 90.5962 3.12983 75.2985 3.12983 58.3582C3.12983 54.2514 3.0255 50.35 3.12983 46.2433C3.12983 44.0872 3.12983 41.6232 3.0255 39.0565C3.0255 37.8244 3.0255 36.4898 3.0255 35.1551V33.2044C3.0255 32.5883 3.12983 31.9723 3.12983 31.3563C3.12983 30.227 3.44283 28.9949 3.54717 27.6602C3.6515 27.0442 3.86017 26.3255 3.9645 25.7095C4.17317 25.0935 4.2775 24.3748 4.5905 23.7588C5.42517 21.0894 6.88585 18.4201 8.55519 16.0587C10.2245 13.5946 12.3112 11.6439 14.2936 9.89855C15.3369 9.0772 16.3802 8.25585 17.3192 7.74251C17.8409 7.4345 18.2582 7.12649 18.7799 6.81849C19.3016 6.51048 19.7189 6.30514 20.1362 6.09981C22.5359 4.86778 25.0399 4.1491 27.6483 3.63576C28.9003 3.43042 30.1523 3.12241 31.5086 3.12241C32.1346 3.12241 32.865 3.01974 33.491 3.01974C34.2213 3.01974 34.9517 3.01974 35.682 3.01974C67.9211 3.01974 110.489 3.01974 143.459 3.01974C146.485 2.91708 148.676 3.01974 152.119 2.91708C161.404 3.01974 178.932 2.91708 188.322 2.81441C193.643 2.91708 202.72 2.81441 210.754 2.91708C217.014 2.91708 222.648 3.01974 227.343 2.91708C241.428 2.91708 256.452 2.91708 272.207 3.01974C278.571 3.12241 285.04 3.12241 291.717 3.22508C300.794 3.22508 309.245 3.22508 318.531 3.22508C318.635 3.22508 318.427 3.22508 319.261 3.22508C324.687 3.22508 333.242 3.12241 340.232 3.22508C343.049 3.22508 345.762 3.12241 348.579 3.12241C349.936 3.12241 351.396 3.12241 352.857 3.12241C354.318 3.12241 355.883 3.01974 357.343 3.12241C358.804 3.12241 360.369 3.43042 361.934 3.63576C363.499 4.04643 365.168 4.35444 366.838 5.07312C370.176 6.30514 373.619 8.25585 376.958 11.3359C377.688 11.8493 378.314 12.5679 379.045 13.3893C379.879 14.108 380.505 15.1347 381.34 16.1613C382.801 18.3174 384.261 20.7814 385.2 23.5535C386.139 26.3255 386.765 29.3029 386.87 32.1777C386.974 33.615 386.974 35.0524 386.974 36.4898C386.974 37.9271 386.974 39.1591 386.974 40.4938C386.974 48.0913 386.87 60.6169 386.765 66.161C386.765 71.0891 386.765 75.6065 386.765 81.8693C386.765 83.7174 386.765 84.5387 386.661 86.9001C386.661 87.9268 386.661 89.3642 386.661 91.2122C386.557 101.684 386.557 118.522 386.661 131.048C386.557 132.485 386.661 135.873 386.661 137.413C386.765 158.46 386.974 181.458 386.765 202.916C386.557 206.407 386.452 212.361 386.244 213.593C386.244 215.339 386.244 218.419 386.139 219.24C386.035 218.932 386.035 220.267 386.035 220.677C386.035 222.217 386.035 224.271 385.931 226.324C385.931 226.632 385.931 226.838 385.931 227.146C385.931 227.454 385.931 227.659 385.931 227.967C385.931 228.48 385.826 228.994 385.826 229.61C385.826 230.123 385.722 230.739 385.618 231.252C385.513 231.766 385.409 232.382 385.305 232.895C384.47 237.31 382.383 241.417 380.61 244.086C380.192 244.805 379.671 245.421 379.253 246.139C378.836 246.755 378.419 247.269 378.106 247.577C377.584 248.193 378.001 248.09 379.775 246.037C379.671 246.447 381.027 245.01 381.131 245.113C381.131 245.215 380.923 245.626 379.984 246.961C379.462 247.577 378.836 248.398 377.793 249.322C377.271 249.835 376.749 250.349 376.019 250.862C375.393 251.478 374.558 251.991 373.724 252.607C372.68 253.429 371.428 254.147 370.698 254.661C369.968 255.071 369.55 255.38 370.281 255.174C370.802 254.969 371.22 254.763 371.637 254.455C372.054 254.25 372.472 254.045 372.889 253.737C373.724 253.326 374.35 252.813 375.184 252.299C375.602 251.991 376.019 251.786 376.436 251.478C376.854 251.17 377.271 250.759 377.688 250.451C378.627 249.733 379.462 248.706 380.61 247.577C379.671 248.603 380.61 247.679 380.714 247.679C381.653 246.447 382.801 245.01 383.635 243.675C384.47 242.341 384.992 241.211 385.096 241.109C384.366 242.854 383.427 244.086 382.801 245.113C382.07 246.139 381.444 246.961 380.818 247.679C380.192 248.398 379.566 249.117 378.836 249.835C378.106 250.554 377.271 251.375 376.123 252.299C373.619 254.353 372.68 254.866 372.054 255.379C371.428 255.893 370.907 256.201 368.82 257.33C367.881 257.638 367.359 257.844 366.838 258.049C366.316 258.254 365.69 258.46 364.647 258.768C363.499 259.178 366.212 258.562 362.56 259.486C363.916 259.178 365.794 258.87 368.298 257.844C369.342 257.536 371.637 256.612 374.245 254.969C376.749 253.326 379.566 251.067 381.757 248.603C388.017 241.109 389.895 232.587 389.687 225.195C389.687 217.905 389.791 210.924 389.791 203.121C389.895 202.71 389.895 196.961 389.791 193.881C389.791 192.546 389.895 193.368 389.895 191.006C389.895 189.055 389.791 191.622 389.791 191.725C389.791 189.055 389.687 182.998 389.791 181.047C389.791 176.222 389.687 167.187 389.687 161.13C389.791 158.871 389.791 155.38 389.791 150.452C389.687 150.349 389.687 149.323 389.687 148.296C389.582 134.641 389.791 127.352 389.687 114.107C389.687 110.514 389.791 104.97 389.687 99.1177C389.895 84.6414 389.895 62.9783 389.791 45.0113C389.895 42.5472 389.895 39.2618 389.895 35.8737C389.895 34.231 389.791 32.383 389.687 30.535C389.374 28.7896 389.165 27.0442 388.748 25.4015C388.122 22.8348 387.078 20.4734 385.931 18.112C385.618 17.496 385.305 16.9827 384.887 16.3667C384.574 15.8533 384.261 15.2373 383.844 14.724C383.009 13.6973 382.279 12.5679 381.34 11.6439C377.793 7.74251 373.306 4.45711 368.194 2.60907C367.046 2.19839 367.777 2.5064 366.733 2.09573C365.794 1.68505 364.751 1.58238 363.708 1.27438C362.664 0.966369 361.621 0.863701 360.473 0.658363C359.326 0.453026 358.178 0.453026 357.03 0.350357C355.883 0.247688 354.735 0.247688 353.587 0.247688C349.101 0.247688 344.51 0.247688 340.232 0.247688C334.181 0.247688 328.234 0.247688 322.183 0.247688C315.088 0.247688 309.767 0.350357 305.489 0.453026C299.96 0.453026 293.7 0.658363 288.17 0.555694C287.127 0.555694 287.335 0.658363 285.249 0.658363C283.788 0.658363 283.788 0.658363 283.058 0.658363C283.162 0.761032 283.892 0.658363 283.058 0.761032C287.127 0.761032 289.005 0.658363 292.448 0.658363C293.387 0.658363 293.804 0.658363 295.369 0.658363C303.298 0.555694 312.48 0.453026 322.809 0.350357C332.825 0.247688 343.363 0.350357 350.249 0.247688C351.918 0.247688 351.188 0.350357 352.44 0.350357C353.379 0.350357 354.318 0.350357 355.152 0.350357C356.091 0.350357 357.03 0.453026 358.074 0.453026C359.013 0.453026 360.056 0.658363 361.099 0.863701C361.621 0.966369 362.143 0.966369 362.664 1.17171C363.186 1.27438 363.708 1.47971 364.334 1.58238C366.003 1.89039 367.359 2.5064 368.924 3.01974C370.385 3.73843 371.95 4.25177 373.515 5.27846C376.749 7.33183 379.149 9.28254 381.34 11.7466C383.427 14.2106 385.409 16.9827 387.183 20.9868C387.496 21.8081 387.913 22.9375 388.33 24.2722C388.643 25.6069 389.061 26.9416 389.269 28.2763C389.374 28.8923 389.478 29.6109 389.582 30.1243C389.687 30.7403 389.687 31.2536 389.687 31.767C389.687 32.691 389.791 33.307 389.687 33.5124C389.582 32.691 389.582 31.3563 389.478 30.0216C389.269 28.6869 389.165 27.1469 388.748 26.1202C388.852 26.5309 388.956 26.8389 389.061 27.2496C389.061 27.6602 389.165 27.9682 389.165 28.2763C389.269 28.9949 389.374 29.5083 389.374 29.8163C389.165 28.8923 389.061 27.9682 388.956 27.1469C388.748 26.3255 388.539 25.6069 388.33 24.8882C388.226 24.5802 388.122 24.1695 388.017 23.8615C387.913 23.5535 387.704 23.2455 387.6 22.8348C387.287 22.2188 387.078 21.5001 386.765 20.8841C385.513 18.3174 383.948 15.5453 380.714 11.9519C378.001 8.97453 375.184 6.81849 372.576 5.38112C371.95 4.97045 371.22 4.66244 370.594 4.35444C369.968 4.04643 369.342 3.73843 368.716 3.53309C368.09 3.32775 367.464 3.12241 366.838 2.91708C366.212 2.71174 365.69 2.5064 365.064 2.40373C361.934 1.47971 358.491 1.17171 355.048 1.06904C351.605 1.06904 348.058 1.06904 344.51 1.06904C337.311 1.06904 329.695 1.06904 322.183 1.06904C306.846 0.555694 291.822 0.555694 279.302 0.658363C273.146 0.658363 267.929 0.555694 260.521 0.658363C251.862 0.453026 231.099 0.761032 222.857 0.555694C219.101 0.761032 207.207 0.658363 203.346 0.555694C201.886 0.658363 196.043 0.658363 192.496 0.555694C191.035 0.555694 191.035 0.555694 190.305 0.555694C188.948 0.555694 187.279 0.453026 186.653 0.453026C183.94 0.453026 183.523 0.453026 180.915 0.453026C181.645 0.453026 182.167 0.350357 183.836 0.350357C187.696 0.350357 188.218 0.350357 190.305 0.350357C190.2 0.350357 188.948 0.247688 191.035 0.247688C191.974 0.350357 195.73 0.247688 197.504 0.350357C196.147 0.350357 195.104 0.350357 194.582 0.350357C197.399 0.350357 200.842 0.350357 203.242 0.350357C202.512 0.350357 201.364 0.350357 202.512 0.350357C177.054 0.14502 154.623 0.247688 129.478 0.247688C128.122 0.247688 125.409 0.14502 123.009 0.14502C115.706 0.14502 110.489 0.14502 108.507 0.350357C117.271 0.350357 124.157 0.350357 138.138 0.350357C141.059 0.350357 143.25 0.453026 143.876 0.555694H109.863C108.298 0.555694 107.672 0.555694 106.212 0.555694C97.239 0.555694 92.7526 0.555694 86.7012 0.555694C74.9115 0.555694 62.2871 0.555694 50.4974 0.555694C48.0977 0.555694 45.5937 0.555694 42.7767 0.555694C49.1411 0.555694 56.2358 0.658363 60.8264 0.555694C67.5038 0.555694 78.8762 0.658363 86.9099 0.658363C102.769 0.761032 114.663 0.658363 133.964 0.761032C134.903 0.863701 137.303 0.863701 140.433 0.863701C140.224 0.966369 142.624 0.966369 146.172 0.966369C148.154 0.966369 144.92 0.863701 146.902 0.863701C148.989 0.863701 150.971 0.966369 151.284 0.966369C149.406 0.966369 147.111 0.966369 146.172 0.966369C146.485 0.966369 147.737 1.06904 148.989 1.06904C150.136 1.06904 151.284 1.06904 151.284 1.17171C136.886 1.17171 124.157 1.37704 110.072 1.27438C108.194 1.27438 107.255 1.17171 104.96 1.17171C103.395 1.27438 108.716 1.27438 109.342 1.37704C105.064 1.37704 98.5953 1.47971 94.8393 1.47971C94.0046 1.47971 94.2133 1.37704 91.9179 1.37704C78.3545 1.37704 69.2775 1.37704 58.6354 1.47971C50.6017 1.47971 42.9854 1.47971 35.056 1.47971C34.117 1.47971 33.0736 1.47971 32.1346 1.58238C31.0913 1.68505 30.1523 1.58238 29.109 1.78772C27.1266 1.99306 25.1443 2.5064 23.1619 3.12241C19.1972 4.35444 15.4412 6.51048 12.1025 9.38521C11.2679 10.1039 12.2069 9.17987 10.4332 10.8226C8.55519 12.7733 6.67718 15.032 5.21651 17.5987C4.79917 18.2147 4.48617 18.9334 4.17317 19.6521C3.86017 20.3708 3.44283 20.9868 3.23416 21.7055C2.92116 22.4241 2.7125 23.1428 2.39949 23.8615C2.19083 24.5802 1.98216 25.2989 1.87782 26.0175C1.77349 26.3255 1.66916 26.7362 1.56482 27.0442C1.46049 27.3522 1.46049 27.7629 1.35616 28.0709C1.25182 28.7896 1.14749 29.4056 1.04315 30.1243C0.93882 31.459 0.834486 32.7937 0.834486 33.923C0.834486 36.2844 0.730152 38.3378 0.730152 39.7752C0.730152 44.2926 0.730152 45.4219 0.625818 48.2967C0.625818 49.6314 0.625818 50.8634 0.625818 52.6087C0.521484 54.1488 0.625818 58.9742 0.625818 62.5676C0.625818 66.5717 0.521484 69.8571 0.521484 73.9638C0.521484 81.1507 0.521484 84.128 0.521484 87.5161C0.521484 91.6229 0.625818 97.6803 0.730152 100.35C0.730152 99.1177 0.834486 97.8857 0.834486 96.7563C0.93882 92.1362 0.834486 86.7974 0.834486 80.432C0.834486 76.4279 0.93882 73.8612 0.93882 69.7544C0.93882 58.8715 1.04315 50.7607 1.04315 42.8552C1.04315 40.9045 1.04315 38.8511 1.14749 36.9004C1.14749 35.8737 1.14749 34.8471 1.14749 33.8204C1.14749 32.7937 1.25182 31.767 1.35616 30.6376C1.46049 29.6109 1.66916 28.4816 1.87782 27.3522C2.08649 26.2229 2.39949 25.1962 2.71249 24.0668C3.12983 22.9375 3.54717 21.8081 4.06884 20.6788C4.5905 19.5494 5.11217 18.4201 5.84251 17.2907C7.19885 14.9293 9.07686 12.9786 10.8505 11.1306C11.7895 10.3092 12.7285 9.48787 13.6675 8.76919C14.6066 8.15318 15.5456 7.4345 16.4846 6.92116C15.6499 7.33183 15.0239 7.94784 14.3979 8.35852C13.7719 8.87186 13.1459 9.28254 12.6242 9.69321C12.1025 10.2066 11.5809 10.6172 11.1635 11.0279C10.7462 11.4386 10.3289 11.9519 9.91153 12.3626C8.24219 14.108 6.78152 16.0587 5.11217 19.2414C3.0255 23.1428 1.77349 27.9683 1.66916 33.1017C1.66916 38.3378 1.66916 43.6766 1.66916 49.2207C1.66916 60.2062 1.66916 71.4998 1.66916 81.7667C1.56482 97.0643 1.66916 110.206 1.66916 125.196C1.56482 127.352 1.56482 134.436 1.56482 139.466C1.56482 140.904 1.66916 139.672 1.66916 142.341C1.66916 153.019 1.35616 153.84 1.35616 161.54C1.35616 162.978 1.35616 165.339 1.35616 167.29C1.35616 169.959 1.35616 175.093 1.35616 177.249C1.35616 185.051 1.46049 192.238 1.46049 200.76C1.46049 206.817 1.46049 213.285 1.46049 219.856C1.46049 223.142 1.35616 226.53 1.56482 229.815C1.87782 233.1 2.81683 236.386 4.06884 239.363C5.11217 241.827 6.78151 244.497 8.86819 246.961C10.9549 249.527 13.7719 251.786 16.7976 253.634C19.9276 255.482 23.4749 256.817 27.1266 257.536C30.7783 258.254 34.43 258.152 37.9773 258.152C48.9324 258.049 66.7735 258.152 76.9982 258.049C78.8762 258.049 77.5199 258.152 79.9195 258.049C86.1796 257.946 93.2743 258.049 97.239 257.844C98.9083 257.844 99.9516 257.844 100.891 257.844C120.192 257.638 140.225 257.433 165.265 257.536C173.298 257.741 180.602 257.844 189.157 258.049C196.252 258.254 202.407 258.46 214.51 258.562C227.448 258.46 236.629 258.152 243.411 258.049C248.21 258.049 250.088 257.946 251.34 257.844C262.608 257.741 271.685 257.741 283.162 257.638C306.22 257.536 320.096 258.049 342.528 257.946C343.467 257.946 343.988 257.946 345.449 257.946C346.805 257.844 354.318 258.049 355.57 257.844C351.814 257.741 343.571 257.638 336.789 257.638C334.494 257.536 330.529 257.638 326.669 257.536C321.87 257.433 317.696 257.433 313.627 257.33C312.48 257.33 311.228 257.33 310.706 257.33C307.472 257.33 304.863 257.228 300.586 257.228C291.091 257.228 288.17 257.228 279.615 257.228C262.399 257.33 244.871 257.33 239.133 257.741C232.664 257.741 230.682 257.946 225.361 258.049C218.058 258.049 219.518 258.152 212.319 258.049C197.921 257.638 188.114 257.228 168.916 256.92C164.326 256.92 159.944 256.92 157.335 256.92C177.889 256.714 218.058 257.022 240.489 256.714C237.985 256.612 234.855 256.714 231.83 256.714H176.846C164.952 256.714 153.788 256.92 140.642 256.817C132.921 256.817 126.974 256.817 118.21 256.714C117.897 256.714 115.915 256.714 116.749 256.612C106.525 256.612 97.9693 256.304 88.5792 256.509C89.1009 256.817 90.8746 256.817 89.4139 256.817ZM381.027 245.626C381.444 245.113 381.549 244.907 381.027 245.626C381.131 245.523 381.862 244.702 382.279 243.983C382.279 244.189 380.714 246.139 380.61 246.242C380.923 245.831 381.34 245.318 381.862 244.702C382.279 244.189 382.696 243.47 383.114 242.751C382.175 244.497 381.027 245.729 380.61 246.345C380.088 246.961 380.088 246.858 381.027 245.626ZM388.017 201.684C388.226 201.068 388.226 210.924 388.226 213.08C388.226 215.339 388.122 219.035 388.122 216.673C387.913 214.004 388.017 205.893 388.017 201.684ZM387.809 181.766C387.809 181.971 387.704 181.663 387.704 181.047C387.809 177.146 387.704 168.214 387.913 165.442C387.809 172.218 387.809 174.169 387.809 181.766ZM388.017 158.974C388.017 159.487 388.017 157.536 387.913 157.536C387.913 156.612 387.913 154.456 388.017 153.943C388.017 156.509 388.017 156.818 388.017 158.974ZM387.6 156.92C387.6 148.912 387.704 139.877 387.704 130.534C387.704 122.526 387.6 114.929 387.6 108.461C387.704 115.545 387.704 126.736 387.809 132.69C387.809 139.672 387.704 148.091 387.809 153.327C387.704 153.943 387.704 157.228 387.6 156.92ZM388.017 151.889C387.913 148.912 387.913 143.573 388.017 143.368C388.122 146.859 388.122 148.193 388.017 151.889ZM388.122 142.649C388.122 142.136 388.122 141.931 388.017 141.931C388.017 138.748 388.122 139.466 388.122 142.649ZM388.435 141.931C388.539 141.007 388.435 138.44 388.435 136.9C388.435 134.025 388.539 132.177 388.539 129.816C388.539 125.298 388.539 123.553 388.435 117.701C388.435 115.853 388.33 116.571 388.33 115.545C388.226 88.6455 388.122 64.005 388.33 32.999C388.539 34.231 388.435 43.3686 388.748 42.2392C388.852 59.0769 388.643 71.7051 388.852 85.6681C388.852 95.4216 388.852 103.43 388.748 114.826C388.748 126.633 388.748 138.337 388.435 141.931ZM388.956 92.1362C388.956 89.7748 388.956 90.0828 389.061 88.5428C389.061 83.82 389.061 81.664 389.165 78.5839C389.165 71.0891 389.061 55.8941 389.165 50.8634C389.165 55.3808 389.269 58.1529 389.269 62.9783C389.478 69.5491 389.582 76.3252 389.478 90.6989C389.478 93.7789 389.374 96.9616 389.374 99.939C389.374 105.586 389.374 111.335 389.269 114.21C388.956 112.259 389.061 97.167 388.956 92.1362ZM387.6 106.304C387.6 104.662 387.6 103.532 387.6 100.555C387.704 100.863 387.6 104.559 387.6 106.304ZM371.637 6.20248C370.594 5.58646 369.55 5.07312 368.403 4.55978C367.359 4.04643 366.212 3.73843 365.064 3.32775C363.916 3.01974 362.769 2.71174 361.621 2.5064L359.847 2.19839C359.221 2.09573 358.7 1.99306 358.074 1.99306C355.674 1.78772 353.17 1.89039 350.666 1.89039C348.162 1.89039 345.554 1.89039 342.945 1.89039C333.138 1.89039 327.921 1.78772 315.505 1.78772C311.854 1.78772 309.454 1.78772 303.924 1.89039C297.664 1.89039 291.717 1.89039 287.335 1.99306C280.345 1.99306 273.667 1.89039 267.825 1.99306C269.598 1.89039 278.154 1.78772 283.788 1.68505C299.334 1.68505 314.566 1.68505 329.486 1.68505C336.894 1.68505 344.301 1.68505 351.501 1.78772C355.152 1.78772 358.7 1.78772 362.143 2.5064C365.481 3.22508 368.716 4.45711 371.637 6.20248ZM227.969 2.09573C227.865 2.09573 227.343 2.09573 226.822 2.09573C226.613 2.09573 226.3 2.09573 226.091 2.09573C225.883 2.09573 225.778 2.09573 225.778 2.09573C218.371 1.99306 212.528 2.09573 206.998 2.09573C204.39 2.09573 201.677 2.09573 198.338 2.09573C193.748 2.09573 187.801 2.19839 186.027 2.09573C181.749 2.09573 174.133 2.09573 169.438 2.19839C169.647 2.09573 176.846 2.09573 172.359 1.99306C170.481 1.99306 170.481 2.09573 168.708 2.09573C164.221 2.09573 161.196 2.09573 160.778 1.99306C166.83 1.89039 184.775 1.89039 192.6 1.89039C197.921 1.78772 202.303 1.89039 207.833 1.89039C208.146 1.89039 206.79 1.89039 205.642 1.89039C212.319 1.78772 219.414 2.09573 226.613 1.99306C227.761 1.99306 226.404 2.09573 227.969 2.09573ZM158.483 1.99306C157.022 1.99306 156.188 1.99306 154.831 1.99306C155.144 1.99306 156.396 1.89039 158.483 1.89039C160.57 1.89039 159.526 1.99306 158.483 1.99306ZM120.923 2.71174C110.489 2.71174 99.8473 2.71174 89.8313 2.81441C75.4332 2.81441 56.5488 2.81441 42.0464 2.91708C40.69 2.91708 38.9163 2.91708 36.934 2.91708C35.995 2.91708 34.9517 2.91708 33.9083 2.91708C32.865 2.91708 31.8216 3.01974 30.8826 3.01974C28.9003 3.22508 26.9179 3.53309 25.2486 4.04643C24.4139 4.25177 23.6836 4.55978 22.9533 4.76511C22.3273 5.07312 21.7013 5.17579 21.2839 5.38112C20.1362 5.99714 18.8842 6.40781 17.7366 7.12649C17.2149 7.4345 16.5889 7.74251 16.0672 8.15318L14.5022 9.28254C14.2936 9.48787 13.9806 9.69321 13.7719 9.89855L13.0415 10.5146L11.4765 11.8493L10.2245 13.2866L9.59853 14.0053L9.07686 14.724C5.94685 18.7281 3.9645 23.3482 3.23416 27.9682C3.12983 28.7896 2.92116 29.5083 2.92116 30.3296C2.92116 31.151 2.81683 31.9723 2.81683 32.7937C2.71249 34.4364 2.81683 36.1818 2.81683 37.9271C2.81683 41.4179 2.81683 44.9086 2.81683 48.502C2.81683 55.6888 2.81683 62.9783 2.81683 70.4731C2.81683 73.7585 2.71249 76.3252 2.71249 79.7133C2.71249 82.6907 2.71249 86.2841 2.71249 89.6722C2.71249 94.4976 2.60816 99.2204 2.60816 103.943V111.027C2.60816 112.362 2.60816 113.286 2.50383 114.621C2.50383 118.625 2.50383 123.348 2.39949 126.736C2.39949 138.44 2.39949 149.015 2.50383 163.08C2.39949 156.818 2.29516 149.939 2.08649 148.091V127.454C2.08649 122.423 2.08649 120.678 2.08649 112.465C2.08649 108.769 2.08649 105.278 2.08649 101.787C2.08649 92.5469 2.08649 83.1014 2.08649 74.0665C2.08649 66.3664 1.98216 58.6662 2.08649 52.7114C2.08649 46.5513 2.08649 39.5698 2.08649 32.8963C2.08649 29.6109 2.81683 26.4282 3.75583 23.4508C4.06883 22.7321 4.2775 22.0135 4.48617 21.2948C4.79917 20.5761 5.11217 19.9601 5.42517 19.3441C5.73818 18.7281 6.05118 18.112 6.46851 17.496C6.88585 16.88 7.09452 16.264 7.51185 15.7507C10.0159 12.2599 13.3545 9.17987 17.1106 6.92116C20.7622 4.66244 24.8313 3.32775 28.483 2.71174C30.2566 2.40373 32.1346 2.40373 34.2213 2.40373C36.308 2.40373 38.6033 2.5064 41.1073 2.5064C46.011 2.60907 51.6451 2.60907 58.1138 2.60907C68.5471 2.60907 74.5985 2.30106 82.7365 2.19839C87.1186 2.30106 90.3529 2.19839 95.0479 2.19839C102.143 2.19839 110.176 2.30106 120.401 2.30106C118.94 2.5064 119.045 2.60907 116.749 2.71174C117.271 2.71174 118.314 2.71174 119.253 2.81441C120.088 2.71174 120.923 2.71174 120.923 2.71174ZM2.29516 167.906C2.29516 168.111 2.39949 169.035 2.39949 168.624C2.29516 172.32 2.39949 176.838 2.50383 180.021C2.50383 190.596 2.60816 198.706 2.60816 209.179C2.60816 211.335 2.50383 212.875 2.50383 214.825C2.50383 218.419 2.50383 222.115 2.50383 225.708C2.50383 226.632 2.50383 227.454 2.60816 228.275C2.60816 229.096 2.71249 230.02 2.81683 230.842C2.92116 231.663 3.0255 232.484 3.23416 233.306C3.44283 234.127 3.6515 234.948 3.86017 235.667C4.90351 239.055 6.67718 242.341 8.86819 245.113C11.0592 247.987 13.7719 250.349 16.5889 252.197C19.7189 254.25 23.2663 255.688 26.8136 256.406C30.361 257.228 33.9083 257.125 37.247 257.022C45.072 257.022 55.9228 257.125 62.6001 257.125C69.1732 257.125 80.0239 257.228 88.6836 257.228C105.273 257.125 115.81 256.92 134.277 257.125C127.809 257.228 118.001 257.125 113.306 257.228C106.42 257.228 100.056 257.33 95.2566 257.33C91.0833 257.33 85.8666 257.33 81.4845 257.433C76.1635 257.433 73.1378 257.536 64.8955 257.536H54.7751C50.9147 257.536 46.8457 257.536 42.9854 257.536C41.003 257.536 39.125 257.536 37.3513 257.536C36.4123 257.536 35.5777 257.536 34.743 257.536C33.9083 257.536 33.0736 257.536 32.3433 257.433C31.5086 257.33 30.674 257.433 29.8393 257.33C29.0046 257.228 28.17 257.125 27.4396 257.022C23.6836 256.304 19.3016 254.558 15.8586 252.197C15.3369 251.786 13.5632 250.554 13.0415 250.143C11.4765 248.809 9.91153 247.166 8.76386 245.626C6.67718 242.957 4.90351 239.774 3.75583 236.18C3.44283 235.256 3.23416 234.332 3.0255 233.408C2.81683 232.484 2.7125 231.458 2.50383 230.534C2.19083 228.48 2.19083 226.427 2.19083 224.271C2.19083 215.852 2.19083 206.92 2.19083 198.501C2.19083 195.113 2.19083 191.93 2.19083 188.542C2.19083 186.283 2.19083 183.717 2.19083 181.458C2.19083 176.735 2.29516 172.731 2.29516 167.906ZM92.3353 256.92C94.3176 256.92 93.7959 256.92 95.2566 256.92C95.7783 257.022 91.7093 257.022 92.3353 256.92Z" fill="#00CEC9"/>
<path fill-rule="evenodd" clip-rule="evenodd" d="M264.799 0.247979C266.26 0.247979 267.094 0.247979 268.451 0.247979C271.79 0.350921 278.884 0.145036 281.493 0.247979C271.268 0.247979 263.547 0.247979 254.053 0.247979C254.783 0.247979 257.496 0.247979 260 0.247979C261.252 0.247979 262.504 0.247979 263.338 0.247979C264.173 0.247979 264.799 0.247979 264.799 0.247979Z" fill="#00CEC9"/>
<path fill-rule="evenodd" clip-rule="evenodd" d="M246.75 0.14502C249.359 0.14502 249.463 0.14502 251.863 0.14502C250.819 0.247962 247.585 0.247962 246.75 0.14502C244.872 0.247962 247.794 0.247962 246.75 0.14502Z" fill="#00CEC9"/>
<path fill-rule="evenodd" clip-rule="evenodd" d="M117.585 259.384C121.132 259.281 130.314 259.384 134.904 259.281C130.314 259.281 123.115 259.281 117.585 259.384Z" fill="#00CEC9"/>
</svg>
