<svg width="120" height="120" viewBox="0 0 120 120" fill="none" xmlns="http://www.w3.org/2000/svg">
<path d="M29.6994 99.2569C29.9372 99.4522 30.0666 99.6929 30.0945 99.972C30.1225 100.251 30.0456 100.499 29.8672 100.712C29.6819 100.931 29.4511 101.053 29.1678 101.081C28.8845 101.106 28.6257 101.022 28.3914 100.827C28.1536 100.631 28.0242 100.394 28.0033 100.115C27.9823 99.836 28.0627 99.5883 28.2446 99.3685C28.4229 99.1557 28.6502 99.0336 28.9265 99.0057C29.2063 98.9778 29.465 99.0615 29.6994 99.2569Z" fill="black"/>
<path d="M17.1672 83.8983C17.6603 84.7843 17.8911 85.6669 17.8561 86.553C17.8211 87.4391 17.5448 88.2658 17.0238 89.0368C16.5027 89.8077 15.7578 90.4601 14.7891 90.9973C13.8309 91.531 12.8797 91.8136 11.9355 91.845C10.9913 91.8764 10.117 91.6636 9.31264 91.2031C8.5083 90.7426 7.84385 90.038 7.31229 89.0891C6.71428 88.0147 6.47298 86.9786 6.59538 85.9739C6.71778 84.9692 7.1724 84.1076 7.96625 83.3855L8.86501 84.9936C8.44186 85.4157 8.20755 85.9146 8.15509 86.4972C8.10264 87.0763 8.2635 87.6972 8.6307 88.36C9.17975 89.3438 9.92813 89.9403 10.8793 90.1496C11.8306 90.3589 12.8657 90.1531 13.9848 89.5287C15.1039 88.9077 15.8243 88.1437 16.1425 87.2402C16.4607 86.3367 16.3628 85.4262 15.8487 84.5053C15.3312 83.5773 14.6737 83.0227 13.8834 82.8482C13.093 82.6738 12.2362 82.7889 11.313 83.1971L12.7363 85.7437L11.6347 86.3576L9.41056 82.3738L14.5198 79.5342L15.2472 80.8354L13.9288 81.7249C14.5968 81.7633 15.1983 81.9447 15.7298 82.2691C16.2649 82.5971 16.744 83.1378 17.1672 83.8983Z" fill="black"/>
<path d="M14.0831 78.1039L3.82256 81.3726L1.73828 74.8631L2.99724 74.4619L4.58493 79.4191L7.7813 78.4004L6.33699 73.8828L7.56797 73.4921L9.01228 78.0097L12.324 76.9562L10.7364 71.9991L11.9953 71.5979L14.0831 78.1039Z" fill="black"/>
<path d="M11.3341 67.628L1.97937 68.9362L2.42 72.0828L1.10859 72.2642L0 64.3768L1.31142 64.1919L1.74856 67.3245L11.1033 66.0164L11.3341 67.628Z" fill="black"/>
<path d="M10.5198 58.823L0.304688 53.5938L0.521509 51.8251L11.6878 49.2192L11.4815 50.9251L8.75721 51.5216L8.22565 55.8787L10.7261 57.1102L10.5198 58.823ZM6.99817 55.2717L7.41782 51.8286L2.33651 52.9589L6.99817 55.2717Z" fill="black"/>
<path d="M13.0718 44.6808L3.05957 40.7179L5.54952 34.4526L6.7805 34.9375L4.89206 39.6888L8.05345 40.9377L9.62016 36.9992L10.8372 37.4806L9.27045 41.4191L13.6768 43.1634L13.0718 44.6808Z" fill="black"/>
<path d="M16.0971 37.3726L6.91016 31.7596L8.84756 28.6061C9.29169 27.8805 9.78129 27.3607 10.3128 27.0432C10.8444 26.7258 11.3865 26.5827 11.9425 26.6072C12.4985 26.6351 13.0301 26.8025 13.5372 27.113C14.1072 27.4618 14.5304 27.9258 14.8101 28.5119C15.0899 29.0979 15.1319 29.7677 14.943 30.5282L20.0383 30.9573L19.0486 32.569L14.2541 32.0876L13.2504 33.7236L16.9504 35.9842L16.0971 37.3726ZM12.1978 33.0853L13.2329 31.3968C13.6176 30.7689 13.747 30.2142 13.6211 29.7363C13.4952 29.2584 13.1875 28.8677 12.6944 28.5677C12.2048 28.2677 11.7257 28.1735 11.2536 28.2816C10.785 28.3898 10.3513 28.77 9.95265 29.4154L8.92449 31.0899L12.1978 33.0853Z" fill="black"/>
<path d="M20.9018 29.8898L12.834 22.7699L17.3732 17.6558L18.3629 18.5314L14.9043 22.428L17.4152 24.6467L20.5661 21.0954L21.5348 21.9501L18.3839 25.5013L20.9893 27.8002L24.4479 23.9036L25.4376 24.7792L20.9018 29.8898Z" fill="black"/>
<path d="M26.5501 23.743L19.7832 15.3812L25.1128 11.0903L25.9451 12.1159L21.885 15.3846L23.9902 17.987L27.6902 15.0079L28.5015 16.0126L24.8016 18.9917L26.9873 21.6918L31.0474 18.4231L31.8797 19.4487L26.5501 23.743Z" fill="black"/>
<path d="M36.2333 16.686L31.9004 6.84846L35.1003 5.44609C36.2543 4.94027 37.2964 4.72398 38.2197 4.80073C39.1429 4.87747 39.9473 5.2019 40.6327 5.78099C41.3181 6.35659 41.8847 7.15196 42.3288 8.16362C42.7694 9.16481 42.9723 10.1137 42.9338 11.0067C42.8953 11.8998 42.5911 12.7091 42.021 13.4347C41.451 14.1603 40.5872 14.7778 39.4332 15.2836L36.2333 16.686ZM37.1705 14.7673L38.8177 14.0452C39.7094 13.6545 40.3529 13.201 40.7446 12.6812C41.1363 12.1614 41.3286 11.5823 41.3216 10.937C41.3111 10.2916 41.1398 9.5904 40.8075 8.8334C40.4718 8.0764 40.0697 7.46941 39.5975 7.01591C39.1254 6.5659 38.5624 6.30426 37.9119 6.23798C37.2615 6.1717 36.4886 6.33217 35.5968 6.72637L33.9497 7.44848L37.1705 14.7673Z" fill="black"/>
<path d="M45.8014 12.7754L43.4023 2.30296L50.0783 0.781982L50.3721 2.06923L45.2873 3.2274L46.0322 6.48913L50.6693 5.43212L50.9561 6.68797L46.3189 7.74498L47.0918 11.1253L52.1766 9.96713L52.4704 11.2544L45.8014 12.7754Z" fill="black"/>
<path d="M53.8555 10.881L53.7227 0.136539L55.6461 0.112119L59.381 7.22163L62.9236 0.0249076L64.847 0.000488281L64.9799 10.745L63.3502 10.7659L63.2523 2.82964L60.0384 9.26936L58.776 9.28332L55.3873 2.93778L55.4852 10.8566L53.8555 10.881Z" fill="black"/>
<path d="M71.3587 12.3078C70.3201 12.0636 69.4668 11.6205 68.7953 10.9787C68.1239 10.3368 67.6657 9.55886 67.4175 8.64488C67.1692 7.7309 67.1727 6.74017 67.4244 5.6727C67.6762 4.60871 68.1169 3.71915 68.7499 3.01099C69.3828 2.30283 70.1417 1.81096 71.0265 1.53537C71.9147 1.25978 72.8765 1.24582 73.9151 1.49002C74.9537 1.73421 75.807 2.17725 76.4785 2.81913C77.1499 3.461 77.6046 4.23893 77.8459 5.15291C78.0872 6.06689 78.0837 7.05762 77.8319 8.12161C77.5801 9.18559 77.1394 10.0752 76.5134 10.7833C75.8875 11.4915 75.1286 11.9833 74.2438 12.2589C73.3591 12.538 72.3973 12.552 71.3587 12.3078ZM71.6944 10.888C72.4113 11.0589 73.0758 11.0449 73.6878 10.8531C74.2963 10.6612 74.8243 10.3019 75.265 9.77514C75.7056 9.24838 76.0239 8.57162 76.2197 7.74485C76.4155 6.91808 76.433 6.17155 76.2756 5.50176C76.1183 4.83197 75.8105 4.27731 75.3524 3.83427C74.8943 3.39123 74.3033 3.08425 73.5864 2.91331C72.8695 2.74238 72.2015 2.75633 71.586 2.9482C70.9705 3.14006 70.446 3.49938 70.0088 4.02963C69.5717 4.55639 69.2569 5.23664 69.0611 6.06341C68.8653 6.89017 68.8443 7.63671 68.9982 8.30301C69.152 8.9693 69.4598 9.52746 69.9249 9.9705C70.3865 10.4135 70.9775 10.7205 71.6944 10.888Z" fill="black"/>
<path d="M88.0573 19.6336C87.8055 19.4592 87.6551 19.2324 87.6026 18.9533C87.5537 18.6777 87.6061 18.4231 87.7635 18.1963C87.9279 17.9626 88.1482 17.8196 88.428 17.7672C88.7077 17.7184 88.9735 17.7812 89.2253 17.9556C89.4771 18.13 89.6275 18.3568 89.6729 18.6324C89.7184 18.908 89.6589 19.1626 89.4946 19.3964C89.3372 19.6231 89.1204 19.7627 88.8476 19.815C88.5713 19.8708 88.3091 19.808 88.0573 19.6336Z" fill="black"/>
<path d="M102.591 35.5236C102.088 34.6445 101.846 33.762 101.867 32.8759C101.888 31.9898 102.158 31.1596 102.668 30.3816C103.179 29.6037 103.917 28.9409 104.878 28.3932C105.83 27.849 106.777 27.5525 107.722 27.5106C108.666 27.4653 109.544 27.6676 110.351 28.1211C111.159 28.5711 111.834 29.2688 112.376 30.2107C112.988 31.2747 113.24 32.3108 113.132 33.3154C113.023 34.3201 112.576 35.1888 111.792 35.9213L110.873 34.3236C111.289 33.8945 111.52 33.3922 111.565 32.8131C111.61 32.234 111.443 31.6131 111.065 30.9572C110.502 29.9805 109.746 29.3944 108.792 29.1956C107.837 28.9967 106.805 29.2165 105.693 29.8549C104.581 30.4898 103.871 31.2642 103.564 32.1712C103.256 33.0782 103.368 33.9887 103.892 34.9027C104.424 35.8271 105.085 36.3713 105.879 36.5353C106.673 36.7027 107.526 36.5737 108.446 36.1551L106.991 33.6259L108.085 33.0015L110.358 36.9574L105.288 39.8598L104.546 38.5691L105.851 37.6621C105.183 37.6307 104.581 37.4563 104.043 37.1388C103.511 36.8144 103.025 36.2806 102.591 35.5236Z" fill="black"/>
<path d="M105.749 41.2832L115.968 37.8889L118.129 44.3705L116.873 44.7891L115.226 39.8529L112.044 40.9099L113.544 45.4101L112.317 45.8182L110.816 41.3181L107.519 42.4135L109.166 47.3497L107.91 47.7683L105.749 41.2832Z" fill="black"/>
<path d="M108.627 51.7275L117.968 50.3077L117.489 47.1681L118.797 46.9692L120 54.8462L118.692 55.0451L118.213 51.9194L108.872 53.3392L108.627 51.7275Z" fill="black"/>
<path d="M109.551 60.5151L119.829 65.6153L119.637 67.3839L108.502 70.1259L108.687 68.4165L111.405 67.7851L111.88 63.421L109.366 62.221L109.551 60.5151ZM113.115 64.0211L112.737 67.4712L117.804 66.2781L113.115 64.0211Z" fill="black"/>
<path d="M107.169 74.6887L117.231 78.526L114.818 84.8192L113.583 84.3483L115.412 79.5726L112.237 78.3621L110.719 82.318L109.498 81.8506L111.016 77.8946L106.589 76.2062L107.169 74.6887Z" fill="black"/>
<path d="M104.238 82.032L113.492 87.5298L111.593 90.7078C111.155 91.4369 110.676 91.9637 110.148 92.2881C109.62 92.6125 109.078 92.7625 108.526 92.7451C107.97 92.7242 107.438 92.5637 106.927 92.2602C106.354 91.9183 105.924 91.4578 105.637 90.8788C105.35 90.2997 105.298 89.6264 105.48 88.8659L100.381 88.4996L101.35 86.8775L106.148 87.2996L107.13 85.6495L103.402 83.4344L104.238 82.032ZM108.19 86.2705L107.176 87.9729C106.798 88.6043 106.676 89.1624 106.809 89.6403C106.941 90.1183 107.253 90.502 107.749 90.795C108.246 91.0881 108.725 91.1788 109.194 91.0636C109.662 90.9485 110.089 90.5648 110.481 89.9159L111.488 88.2275L108.19 86.2705Z" fill="black"/>
<path d="M99.5275 89.574L107.679 96.5963L103.203 101.766L102.203 100.905L105.612 96.9661L103.074 94.7788L99.9681 98.3684L98.9889 97.5242L102.098 93.9346L99.4646 91.6671L96.0549 95.6055L95.0547 94.7439L99.5275 89.574Z" fill="black"/>
<path d="M93.9504 95.7939L100.819 104.072L95.5416 108.426L94.6988 107.407L98.717 104.09L96.5767 101.512L92.9153 104.536L92.0899 103.542L95.7549 100.517L93.5377 97.8452L89.5196 101.163L88.6768 100.144L93.9504 95.7939Z" fill="black"/>
<path d="M84.3541 102.966L88.8094 112.748L85.6305 114.189C84.48 114.709 83.4448 114.935 82.5216 114.872C81.5949 114.81 80.787 114.492 80.0946 113.924C79.4022 113.355 78.8251 112.567 78.367 111.562C77.9124 110.564 77.6991 109.619 77.727 108.726C77.755 107.833 78.0488 107.02 78.6118 106.287C79.1748 105.555 80.0281 104.93 81.1787 104.407L84.3541 102.966ZM83.4413 104.899L81.8012 105.642C80.9129 106.043 80.2764 106.507 79.8883 107.03C79.5001 107.554 79.3182 108.136 79.3322 108.782C79.3462 109.427 79.5281 110.125 79.8743 110.878C80.217 111.632 80.6296 112.232 81.1088 112.678C81.5879 113.125 82.1544 113.376 82.8049 113.435C83.4553 113.495 84.2282 113.324 85.113 112.919L86.7531 112.176L83.4413 104.899Z" fill="black"/>
<path d="M74.845 106.992L77.37 117.436L70.7149 119.038L70.4037 117.754L75.4745 116.533L74.6877 113.278L70.0645 114.391L69.7602 113.139L74.3834 112.026L73.5686 108.652L68.4978 109.873L68.1865 108.59L74.845 106.992Z" fill="black"/>
<path d="M66.8089 108.987L67.0747 119.728L65.1513 119.774L61.3289 112.713L57.8738 119.952L55.9504 119.997L55.6846 109.256L57.3142 109.218L57.5101 117.15L60.6435 110.672L61.9059 110.641L65.3716 116.945L65.1757 109.026L66.8089 108.987Z" fill="black"/>
<path d="M49.2922 107.777C50.3343 108.007 51.1946 108.44 51.873 109.075C52.5515 109.706 53.0201 110.48 53.2789 111.391C53.5377 112.301 53.5482 113.292 53.3069 114.363C53.069 115.431 52.6389 116.324 52.0164 117.039C51.3939 117.754 50.6421 118.256 49.7573 118.542C48.8725 118.828 47.9108 118.856 46.8687 118.622C45.8265 118.392 44.9662 117.96 44.2878 117.325C43.6094 116.693 43.1442 115.919 42.8889 115.008C42.6372 114.098 42.6267 113.107 42.868 112.04C43.1058 110.972 43.5359 110.079 44.1514 109.361C44.7669 108.642 45.5188 108.143 46.4035 107.857C47.2883 107.571 48.2535 107.547 49.2922 107.777ZM48.9739 109.2C48.2535 109.04 47.5891 109.061 46.9806 109.259C46.3721 109.458 45.851 109.825 45.4174 110.358C44.9837 110.892 44.6725 111.572 44.4871 112.399C44.3018 113.229 44.2913 113.976 44.4592 114.642C44.627 115.308 44.9418 115.86 45.4069 116.299C45.872 116.739 46.463 117.039 47.1834 117.199C47.9038 117.36 48.5718 117.339 49.1838 117.14C49.7958 116.941 50.3168 116.575 50.747 116.041C51.1771 115.507 51.4849 114.827 51.6702 113.997C51.8556 113.167 51.866 112.42 51.7052 111.757C51.5443 111.094 51.2296 110.54 50.761 110.1C50.2923 109.661 49.6978 109.361 48.9739 109.2Z" fill="black"/>
</svg>
