<svg width="25" height="25" viewBox="0 0 25 25" fill="none" xmlns="http://www.w3.org/2000/svg">
<path fill-rule="evenodd" clip-rule="evenodd" d="M12.5 0C5.55556 0 0 5.55556 0 12.5C0 19.3452 5.55556 25 12.5 25C19.4444 25 25 19.4444 25 12.5C25 5.55556 19.3452 0 12.5 0ZM12.5 1.88492C18.3532 1.88492 23.1151 6.64683 23.1151 12.5C23.1151 18.3532 18.3532 23.1151 12.5 23.1151C6.64683 23.1151 1.88492 18.3532 1.88492 12.5C1.88492 6.64683 6.64683 1.88492 12.5 1.88492Z" fill="#2BD9D9"/>
<path fill-rule="evenodd" clip-rule="evenodd" d="M11.5078 6.05163V11.9048C11.5078 12.5 11.7062 13.0953 12.2023 13.4921C13.1943 14.4842 15.6745 16.9643 15.6745 16.9643C16.0713 17.3612 16.6665 17.3612 17.0634 16.9643C17.4602 16.5675 17.4602 15.9723 17.0634 15.5754C17.0634 15.5754 14.5832 13.0953 13.5911 12.1032C13.4919 12.004 13.4919 12.004 13.4919 11.9048V6.05163C13.4919 5.5556 13.0951 5.05957 12.4999 5.05957C11.9046 5.05957 11.5078 5.5556 11.5078 6.05163Z" fill="#2BD9D9"/>
</svg>
