<svg width="24" height="25" viewBox="0 0 24 25" fill="none" xmlns="http://www.w3.org/2000/svg">
<path fill-rule="evenodd" clip-rule="evenodd" d="M12.0097 0.0484337C10.6536 -0.145301 9.20057 0.242168 8.13503 1.21084C7.06949 2.08265 6.48828 3.34192 6.48828 4.79493V20.1968C6.48828 21.6499 7.16635 23.006 8.23189 23.8778C9.29743 24.8465 10.7504 25.1371 12.2035 24.9433C14.3345 24.5559 16.8531 24.0715 18.8873 23.6841C21.7933 23.1997 23.9244 20.5843 23.9244 17.6783V7.02288C23.9244 4.02 21.6965 1.40458 18.6936 0.92024C16.6594 0.726505 14.1408 0.339036 12.0097 0.0484337ZM11.7191 1.88891C13.8502 2.17952 16.2719 2.56698 18.403 2.85759C20.4372 3.14819 21.9871 4.8918 21.9871 7.02288V17.6783C21.9871 19.7125 20.534 21.4561 18.4998 21.8436C16.4656 22.2311 13.9471 22.7154 11.816 23.1029C10.9442 23.2966 10.0724 23.006 9.3943 22.4248C8.71623 21.8436 8.32876 21.0686 8.32876 20.1968V4.79493C8.32876 3.92313 8.71623 3.14819 9.29743 2.56698C10.0724 2.08265 10.9442 1.79205 11.7191 1.88891Z" fill="#F9518C"/>
<path fill-rule="evenodd" clip-rule="evenodd" d="M11.3335 11.2852C12.0116 11.2852 12.5928 11.8664 12.5928 12.5444C12.5928 13.2225 12.0116 13.8037 11.3335 13.8037C10.6554 13.8037 10.0742 13.2225 10.0742 12.5444C10.0742 11.8664 10.5586 11.2852 11.3335 11.2852Z" fill="#F9518C"/>
<path fill-rule="evenodd" clip-rule="evenodd" d="M4.84337 23.2966C2.13108 23.2966 0 21.1655 0 18.4532V6.73228C0 5.47301 0.484337 4.21373 1.45301 3.34193C2.32482 2.37325 3.58409 1.88892 4.84337 1.88892C5.42457 1.88892 5.81204 2.27639 5.81204 2.85759C5.81204 3.43879 5.42457 3.82626 4.84337 3.82626C4.06843 3.82626 3.29349 4.11687 2.80915 4.69807C2.22795 5.27927 1.93735 5.95735 1.93735 6.73228V18.3564C1.93735 20.0031 3.19662 21.2624 4.84337 21.2624C5.42457 21.2624 5.81204 21.6499 5.81204 22.2311C5.81204 22.8123 5.42457 23.2966 4.84337 23.2966Z" fill="#F9518C"/>
</svg>
