<svg width="27" height="27" viewBox="0 0 27 27" fill="none" xmlns="http://www.w3.org/2000/svg">
<rect x="6" y="6" width="15" height="15" rx="3" fill="#0095FF"/>
<path d="M25.9928 14.7461V9.74749C25.9928 3.49928 23.4936 1 17.2453 1H9.74749C3.49928 1 1 3.49928 1 9.74749V17.2453C1 23.4936 3.49928 25.9928 9.74749 25.9928H14.7461" stroke="#111111" stroke-width="2" stroke-linecap="round" stroke-linejoin="round"/>
<path d="M7.65625 16.606L10.6304 12.7446C11.0553 12.1948 11.8426 12.0948 12.3924 12.5197L14.6793 14.3192C15.2291 14.7441 16.0164 14.6441 16.4412 14.1068L19.3279 10.3828" stroke="#111111" stroke-width="2" stroke-linecap="round" stroke-linejoin="round"/>
<path d="M22.8391 18.2716L23.189 18.9839C23.364 19.3338 23.8014 19.6587 24.1887 19.7337L24.6636 19.8086C26.0882 20.0461 26.4256 21.0958 25.4009 22.133L24.9635 22.5703C24.6761 22.8702 24.5137 23.4451 24.6011 23.845L24.6636 24.1074C25.051 25.8319 24.1388 26.4942 22.6392 25.5945L22.3143 25.407C21.9269 25.1821 21.3021 25.1821 20.9147 25.407L20.5898 25.5945C19.0777 26.5067 18.1655 25.8319 18.5654 24.1074L18.6278 23.845C18.7153 23.4451 18.5529 22.8702 18.2655 22.5703L17.8281 22.133C16.8034 21.0958 17.1408 20.0461 18.5654 19.8086L19.0402 19.7337C19.4151 19.6712 19.865 19.3338 20.0399 18.9839L20.3898 18.2716C21.0646 16.9095 22.1643 16.9095 22.8391 18.2716Z" stroke="#111111" stroke-width="2" stroke-linecap="round" stroke-linejoin="round"/>
</svg>
