<svg width="266" height="276" viewBox="0 0 266 276" fill="none" xmlns="http://www.w3.org/2000/svg">
<g clip-path="url(#clip0_759_10843)">
<path d="M216.411 56.1762L191.065 62.9677C183.362 65.0377 178.771 72.9826 180.84 80.6909L187.627 106.053C189.686 113.762 197.635 118.355 205.339 116.285L230.685 109.493C238.388 107.423 242.978 99.4786 240.91 91.7703L234.123 66.4079C232.054 58.6996 224.114 54.1062 216.411 56.1762Z" fill="#2BD9D9"/>
<path d="M110.863 40.269L117.651 65.6314C119.719 73.3397 127.659 77.9332 135.362 75.8632L160.708 69.0716C168.411 67.0016 173.002 59.0567 170.933 51.3484L164.146 25.986C162.077 18.2777 154.138 13.6843 146.434 15.7543L121.088 22.5459C113.385 24.6159 108.795 32.5607 110.863 40.269Z" fill="#009AFF"/>
<path d="M49.9507 37.5376C48.8966 37.8235 48.276 38.8979 48.5617 39.9526C48.8474 41.0074 49.9211 41.6284 50.9751 41.3425C52.0292 41.0566 52.6498 39.9822 52.3641 38.9275C52.0883 37.8826 51.0047 37.2518 49.9507 37.5376Z" fill="white" fill-opacity="0.1"/>
<path d="M107.559 24.1313C107.274 23.0766 106.2 22.4556 105.146 22.7414C104.092 23.0273 103.471 24.1017 103.757 25.1564C104.043 26.2111 105.116 26.8321 106.17 26.5463C107.215 26.2604 107.835 25.186 107.559 24.1313Z" fill="white" fill-opacity="0.1"/>
<path d="M162.747 9.33441C162.461 8.2797 161.387 7.6587 160.333 7.94456C159.279 8.23041 158.659 9.30484 158.945 10.3596C159.23 11.4143 160.304 12.0353 161.358 11.7494C162.402 11.4636 163.033 10.3891 162.747 9.33441Z" fill="white" fill-opacity="0.1"/>
<path d="M9.81003 108.506C8.756 108.792 8.1354 109.867 8.42107 110.921C8.70675 111.976 9.78048 112.597 10.8345 112.311C11.8885 112.025 12.5091 110.951 12.2235 109.896C11.9476 108.851 10.8641 108.221 9.81003 108.506Z" fill="white" fill-opacity="0.1"/>
<path d="M67.411 95.1C67.1253 94.0453 66.0516 93.4243 64.9975 93.7102C63.9435 93.996 63.3229 95.0705 63.6086 96.1252C63.8942 97.1799 64.968 97.8009 66.022 97.515C67.076 97.239 67.6966 96.1548 67.411 95.1Z" fill="white" fill-opacity="0.1"/>
<path d="M118.792 81.3283C119.078 82.383 120.151 83.004 121.205 82.7182C122.26 82.4323 122.88 81.3579 122.594 80.3032C122.309 79.2485 121.235 78.6274 120.181 78.9133C119.137 79.1893 118.516 80.2736 118.792 81.3283Z" fill="white" fill-opacity="0.1"/>
<path d="M177.786 65.5141C177.5 64.4594 176.427 63.8384 175.373 64.1242C174.319 64.4101 173.698 65.4845 173.984 66.5392C174.269 67.594 175.343 68.215 176.397 67.9291C177.441 67.6432 178.072 66.5688 177.786 65.5141Z" fill="white" fill-opacity="0.1"/>
<path d="M231.577 53.1322C232.631 52.8464 233.251 51.7719 232.966 50.7172C232.68 49.6625 231.606 49.0415 230.552 49.3274C229.498 49.6132 228.878 50.6877 229.163 51.7424C229.449 52.7872 230.523 53.4082 231.577 53.1322Z" fill="white" fill-opacity="0.1"/>
<path d="M24.3413 162.78C23.2873 163.066 22.6667 164.141 22.9523 165.195C23.238 166.25 24.3117 166.871 25.3658 166.585C26.4198 166.299 27.0404 165.225 26.7547 164.17C26.469 163.116 25.3953 162.495 24.3413 162.78Z" fill="white" fill-opacity="0.1"/>
<path d="M80.5454 151.788C81.5995 151.503 82.2201 150.428 81.9344 149.373C81.6487 148.319 80.575 147.698 79.521 147.984C78.4669 148.269 77.8463 149.344 78.132 150.399C78.4177 151.443 79.5013 152.074 80.5454 151.788Z" fill="white" fill-opacity="0.1"/>
<path d="M134.716 133.183C133.662 133.469 133.042 134.544 133.327 135.598C133.613 136.653 134.687 137.274 135.741 136.988C136.795 136.702 137.415 135.628 137.13 134.573C136.844 133.519 135.77 132.907 134.716 133.183Z" fill="white" fill-opacity="0.1"/>
<path d="M190.928 122.203C191.982 121.917 192.603 120.842 192.317 119.788C192.032 118.733 190.958 118.112 189.904 118.398C188.85 118.684 188.229 119.758 188.515 120.813C188.8 121.858 189.874 122.479 190.928 122.203Z" fill="white" fill-opacity="0.1"/>
<path d="M246.108 107.39C247.162 107.104 247.783 106.03 247.497 104.975C247.211 103.92 246.138 103.299 245.083 103.585C244.029 103.871 243.409 104.945 243.695 106C243.98 107.055 245.064 107.676 246.108 107.39Z" fill="white" fill-opacity="0.1"/>
<path d="M39.1382 217.999C38.0841 218.285 37.4635 219.36 37.7492 220.414C38.0349 221.469 39.1086 222.09 40.1626 221.804C41.2167 221.518 41.8373 220.444 41.5516 219.389C41.2659 218.334 40.1823 217.713 39.1382 217.999Z" fill="white" fill-opacity="0.1"/>
<path d="M94.3178 203.202C93.2638 203.488 92.6432 204.562 92.9289 205.617C93.2146 206.671 94.2883 207.292 95.3423 207.007C96.3964 206.721 97.017 205.646 96.7313 204.592C96.4456 203.547 95.3719 202.916 94.3178 203.202Z" fill="white" fill-opacity="0.1"/>
<path d="M151.919 189.803C151.633 188.748 150.559 188.127 149.505 188.413C148.451 188.699 147.831 189.774 148.116 190.828C148.402 191.883 149.476 192.504 150.53 192.218C151.584 191.942 152.204 190.858 151.919 189.803Z" fill="white" fill-opacity="0.1"/>
<path d="M204.701 173.616C203.647 173.902 203.026 174.977 203.312 176.031C203.597 177.086 204.671 177.707 205.725 177.421C206.779 177.135 207.4 176.061 207.114 175.006C206.828 173.952 205.745 173.331 204.701 173.616Z" fill="white" fill-opacity="0.1"/>
<path d="M259.88 158.808C258.826 159.094 258.206 160.168 258.491 161.223C258.777 162.277 259.851 162.898 260.905 162.613C261.959 162.327 262.579 161.252 262.294 160.198C262.008 159.153 260.934 158.532 259.88 158.808Z" fill="white" fill-opacity="0.1"/>
<path d="M56.5959 275.569C56.3102 274.514 55.2365 273.893 54.1824 274.179C53.3254 274.406 52.7639 275.165 52.7344 276.003H56.655C56.6451 275.865 56.6254 275.717 56.5959 275.569Z" fill="white" fill-opacity="0.1"/>
<path d="M107.976 261.797C108.261 262.852 109.335 263.473 110.389 263.187C111.443 262.901 112.064 261.827 111.778 260.772C111.492 259.717 110.419 259.096 109.365 259.382C108.311 259.658 107.69 260.742 107.976 261.797Z" fill="white" fill-opacity="0.1"/>
<path d="M163.155 247C163.441 248.055 164.515 248.676 165.569 248.39C166.623 248.104 167.244 247.03 166.958 245.975C166.672 244.92 165.598 244.299 164.544 244.585C163.49 244.871 162.87 245.945 163.155 247Z" fill="white" fill-opacity="0.1"/>
<path d="M219.74 229.788C218.686 230.074 218.065 231.149 218.351 232.203C218.636 233.258 219.71 233.879 220.764 233.593C221.818 233.307 222.439 232.233 222.153 231.178C221.867 230.123 220.784 229.502 219.74 229.788Z" fill="white" fill-opacity="0.1"/>
<path d="M225.2 246.369C223.131 238.661 227.722 230.706 235.425 228.646L260.771 221.855C262.524 221.382 264.298 221.273 266.002 221.451V219.479C265.962 219.479 265.923 219.469 265.884 219.459C265.923 219.43 265.962 219.4 266.002 219.371V216.867C264.396 218.277 262.455 219.351 260.259 219.942L234.913 226.734C227.209 228.804 219.26 224.211 217.201 216.502L210.414 191.14C208.345 183.432 212.936 175.477 220.639 173.417L245.985 166.625C253.688 164.555 261.638 169.149 263.697 176.857L266.002 185.472V177.852L265.598 176.344C264.8 173.358 265.007 170.331 266.002 167.631V163.392C264.435 165.699 263.441 168.39 263.204 171.228C260.416 167.217 255.964 164.644 251.098 164.23C255.107 161.44 257.678 156.985 258.092 152.115C260.052 154.935 262.84 157.024 266.002 158.168V156.078C262.012 154.402 258.801 150.982 257.599 146.487L250.812 121.125C248.743 113.416 253.334 105.462 261.037 103.401L266.002 102.071V100.03L260.525 101.499C252.821 103.569 244.872 98.9756 242.813 91.2673L236.026 65.9049C233.957 58.1966 238.548 50.2419 246.251 48.1817L266.002 42.8884V40.848L245.739 46.2793C238.035 48.3493 230.086 43.7559 228.027 36.0476L221.24 10.6851C220.235 6.93943 220.806 3.15429 222.53 0H220.343C219.536 1.73486 219.014 3.60771 218.846 5.55943C217.152 3.11486 214.827 1.21243 212.177 0H197.559L175.759 5.84529C169.671 7.47171 163.445 4.93843 160.077 0H156.629C156.57 6.33814 152.334 12.1243 145.921 13.8493L120.575 20.6409C112.872 22.7109 104.922 18.1174 102.863 10.4091L100.076 0H98.0364L100.962 10.9217C103.031 18.63 98.4403 26.5847 90.737 28.6449L65.391 35.4364C57.6877 37.5064 49.7382 32.913 47.6794 25.2047L40.9316 0H38.8728C38.9122 0.118286 38.9516 0.236571 38.991 0.354857L45.7782 25.7173C47.8468 33.4256 43.2564 41.3803 35.5531 43.4404L10.2071 50.232C6.67066 51.1783 3.08498 50.715 0.0411008 49.197V51.3557C1.63692 52.0359 3.33125 52.4794 5.09454 52.6273C2.95692 54.1157 1.25274 56.0773 0.0411008 58.3149V65.2149C0.42528 59.1921 4.57245 53.7904 10.7193 52.1443L36.0555 45.3429C43.7588 43.2729 51.7083 47.8663 53.7671 55.5746L60.5543 80.937C62.623 88.6453 58.0325 96.6 50.3292 98.6601L24.9832 105.452C17.2799 107.522 9.33037 102.928 7.27156 95.22L0.484385 69.8674C0.238116 68.9507 0.0903545 68.034 0.03125 67.1271V75.7916L5.37036 95.7424C6.94648 101.627 4.63155 107.65 0.03125 111.09V114.895C6.16827 115.171 11.6945 119.36 13.3692 125.61L20.1563 150.972C22.225 158.68 17.6346 166.635 9.93126 168.695L0.03125 171.347V173.387L10.4435 170.598C18.1468 168.528 26.0964 173.121 28.1552 180.829L34.9423 206.192C37.011 213.9 32.4205 221.855 24.7172 223.915L0.03125 230.539V232.579L25.2295 225.827C32.9328 223.757 40.8823 228.351 42.9412 236.059L49.7283 261.421C51.1961 266.902 49.285 272.491 45.3053 276.02H48.0635C50.3686 273.398 51.8167 270.086 52.1221 266.547C54.9098 270.559 59.3624 273.132 64.2286 273.546C63.1943 274.265 62.2585 275.103 61.4212 276.03H64.2385C65.8245 274.679 67.7158 273.634 69.8534 273.063L95.1994 266.271C102.745 264.25 110.498 268.617 112.763 276.03H114.832L114.822 275.99C112.753 268.282 117.344 260.327 125.047 258.267L150.393 251.475C158.097 249.405 166.046 253.999 168.105 261.707L171.937 276.039H173.976L170.006 261.204C167.937 253.496 172.528 245.541 180.231 243.481L205.577 236.69C213.28 234.62 221.23 239.213 223.289 246.921L230.076 272.284C230.411 273.546 230.559 274.797 230.549 276.049H233.918C233.061 274.768 232.391 273.339 231.977 271.781L225.2 246.369ZM208.02 186.024C205.232 182.012 200.78 179.439 195.914 179.025C199.923 176.236 202.494 171.78 202.908 166.911C205.695 170.923 210.148 173.496 215.014 173.91C211.005 176.699 208.434 181.155 208.02 186.024ZM92.0373 190.874L85.2502 165.511C83.1913 157.803 87.7719 149.848 95.4752 147.788L120.821 140.997C128.525 138.927 136.474 143.52 138.533 151.228L145.32 176.591C147.379 184.299 142.798 192.254 135.095 194.314L109.749 201.105C102.046 203.175 94.106 198.582 92.0373 190.874ZM104.636 203.501C100.627 206.29 98.0561 210.746 97.6424 215.615C94.8546 211.603 90.4021 209.031 85.5358 208.617C89.5451 205.827 92.1161 201.372 92.5299 196.502C95.3176 200.514 99.7702 203.087 104.636 203.501ZM178.931 81.2031L185.718 106.566C187.787 114.274 183.196 122.229 175.493 124.289L150.147 131.08C142.444 133.15 134.494 128.557 132.435 120.849L125.648 95.4861C123.589 87.7779 128.17 79.8231 135.873 77.763L161.219 70.9714C168.922 68.9113 176.872 73.4949 178.931 81.2031ZM166.342 68.5761C170.351 65.7866 172.922 61.3311 173.336 56.4617C176.123 60.4736 180.576 63.0463 185.442 63.4603C181.433 66.2499 178.862 70.7053 178.448 75.5747C175.66 71.5629 171.208 68.9901 166.342 68.5761ZM188.112 111.691C190.9 115.703 195.352 118.276 200.218 118.69C196.209 121.479 193.638 125.935 193.224 130.804C190.437 126.792 185.984 124.22 181.118 123.806C185.137 121.016 187.708 116.561 188.112 111.691ZM145.034 133.476C141.025 136.265 138.454 140.721 138.04 145.59C135.253 141.578 130.8 139.005 125.934 138.591C129.943 135.802 132.514 131.346 132.928 126.477C135.716 130.499 140.168 133.071 145.034 133.476ZM123.254 90.3703C120.467 86.3584 116.014 83.7857 111.148 83.3717C115.157 80.5821 117.728 76.1267 118.142 71.2573C120.93 75.2691 125.382 77.8419 130.248 78.2559C126.239 81.0454 123.668 85.5009 123.254 90.3703ZM123.747 95.9987L130.534 121.361C132.593 129.069 128.012 137.024 120.309 139.084L94.963 145.886C87.2597 147.956 79.3101 143.362 77.2513 135.654L70.4642 110.292C68.3955 102.583 72.986 94.6286 80.6893 92.5684L106.035 85.7769C113.739 83.7069 121.678 88.2904 123.747 95.9987ZM77.7439 141.282C80.5316 145.294 84.9842 147.867 89.8505 148.281C85.8412 151.071 83.2702 155.526 82.8564 160.395C80.0687 156.384 75.6161 153.811 70.7498 153.397C74.7591 150.607 77.3301 146.152 77.7439 141.282ZM147.714 181.707C150.502 185.718 154.954 188.291 159.82 188.705C155.811 191.495 153.24 195.95 152.826 200.82C150.039 196.808 145.586 194.235 140.72 193.821C144.739 191.031 147.31 186.576 147.714 181.707ZM147.231 176.078L140.444 150.716C138.375 143.007 142.966 135.053 150.669 132.993L176.015 126.201C183.718 124.131 191.668 128.724 193.727 136.433L200.514 161.795C202.583 169.503 197.992 177.458 190.289 179.518L164.943 186.31C157.239 188.38 149.29 183.786 147.231 176.078ZM255.698 146.99C257.757 154.698 253.176 162.653 245.473 164.713L220.127 171.514C212.423 173.584 204.474 168.991 202.415 161.283L195.628 135.92C193.559 128.212 198.15 120.257 205.853 118.197L231.199 111.405C238.902 109.335 246.852 113.929 248.911 121.637L255.698 146.99ZM243.306 96.8859C246.093 100.898 250.546 103.47 255.412 103.884C251.403 106.674 248.832 111.129 248.418 115.999C245.63 111.987 241.178 109.414 236.312 109C240.321 106.221 242.892 101.765 243.306 96.8859ZM240.912 91.77C242.971 99.4783 238.39 107.433 230.687 109.493L205.341 116.285C197.637 118.355 189.688 113.761 187.629 106.053L180.842 80.6906C178.773 72.9823 183.364 65.0276 191.067 62.9674L216.413 56.1759C224.116 54.1059 232.066 58.6993 234.125 66.4076L240.912 91.77ZM228.52 41.6661C231.307 45.678 235.76 48.2507 240.626 48.6647C236.617 51.4543 234.046 55.9097 233.632 60.7791C230.844 56.7673 226.392 54.1946 221.526 53.7806C225.535 50.991 228.106 46.5356 228.52 41.6661ZM176.271 7.74771L201.617 0.956143C209.32 -1.11386 217.27 3.47957 219.329 11.1879L226.116 36.5503C228.185 44.2586 223.594 52.2133 215.891 54.2734L190.545 61.065C182.842 63.135 174.892 58.5416 172.833 50.8333L166.046 25.4709C163.987 17.7626 168.578 9.81771 176.271 7.74771ZM158.54 1.242C161.328 5.25386 165.78 7.82657 170.646 8.24057C166.637 11.0301 164.066 15.4856 163.652 20.355C160.865 16.3431 156.412 13.7704 151.546 13.3564C155.565 10.5669 158.136 6.11143 158.54 1.242ZM121.087 22.5433L146.433 15.7517C154.136 13.6817 162.086 18.2751 164.145 25.9834L170.932 51.3459C172.991 59.0541 168.41 67.0089 160.707 69.069L135.361 75.8606C127.658 77.9306 119.708 73.3371 117.649 65.6289L110.862 40.2664C108.793 32.5581 113.384 24.6133 121.087 22.5433ZM103.356 16.0376C106.144 20.0494 110.596 22.6221 115.462 23.0361C111.453 25.8257 108.882 30.2811 108.468 35.1506C105.681 31.1387 101.228 28.566 96.3618 28.152C100.371 25.3624 102.942 20.907 103.356 16.0376ZM53.2844 49.9461C50.4967 45.9343 46.0441 43.3616 41.1779 42.9476C45.1871 40.158 47.7582 35.7026 48.1719 30.8331C50.9597 34.845 55.4122 37.4177 60.2785 37.8317C56.2594 40.6213 53.6883 45.0767 53.2844 49.9461ZM55.6782 55.062C53.6095 47.3537 58.2 39.399 65.9033 37.3389L91.2493 30.5473C98.9526 28.4773 106.902 33.0707 108.961 40.779L115.748 66.1414C117.817 73.8497 113.226 81.8044 105.523 83.8646L80.177 90.6561C72.4737 92.7261 64.5242 88.1327 62.4654 80.4244L55.6782 55.062ZM62.9579 86.0529C65.7457 90.0647 70.1982 92.6374 75.0645 93.0514C71.0552 95.841 68.4842 100.296 68.0704 105.166C65.2827 101.154 60.8301 98.5813 55.9639 98.1673C59.9731 95.3876 62.5442 90.9321 62.9579 86.0529ZM12.8865 119.971C10.0987 115.959 5.64618 113.387 0.779908 112.973C4.78917 110.183 7.36021 105.728 7.77395 100.858C10.5617 104.87 15.0143 107.443 19.8805 107.857C15.8614 110.637 13.2904 115.092 12.8865 119.971ZM15.2704 125.087C13.2116 117.379 17.7922 109.424 25.4955 107.364L50.8415 100.572C58.5448 98.5024 66.4943 103.096 68.5531 110.804L75.3403 136.167C77.409 143.875 72.8185 151.83 65.1152 153.89L39.7692 160.681C32.0659 162.751 24.1164 158.158 22.0575 150.45L15.2704 125.087ZM27.6725 175.191C24.8847 171.179 20.4322 168.606 15.5659 168.192C19.5752 165.403 22.1462 160.947 22.5599 156.078C25.3477 160.09 29.8002 162.663 34.6665 163.077C30.6474 165.866 28.0764 170.322 27.6725 175.191ZM30.0662 180.307C27.9976 172.599 32.588 164.644 40.2913 162.584L65.6373 155.792C73.3406 153.722 81.2902 158.316 83.349 166.024L90.1361 191.386C92.1949 199.095 87.6143 207.049 79.911 209.109L54.565 215.901C46.8618 217.971 38.9122 213.378 36.8534 205.669L30.0662 180.307ZM42.4585 230.411C39.6707 226.399 35.2182 223.826 30.3519 223.412C34.3611 220.623 36.9322 216.167 37.3459 211.298C40.1337 215.31 44.5862 217.882 49.4525 218.296C45.4432 221.086 42.8722 225.541 42.4585 230.411ZM94.697 264.329L69.351 271.121C61.6477 273.191 53.6982 268.597 51.6394 260.889L44.8522 235.527C42.7934 227.818 47.374 219.864 55.0773 217.803L80.4233 211.012C88.1266 208.942 96.0761 213.535 98.135 221.244L104.922 246.606C106.991 254.314 102.4 262.269 94.697 264.329ZM112.438 270.845C109.65 266.833 105.198 264.26 100.332 263.846C104.341 261.057 106.912 256.601 107.326 251.732C110.113 255.744 114.566 258.316 119.432 258.73C115.413 261.51 112.842 265.965 112.438 270.845ZM149.891 249.534L124.545 256.325C116.842 258.395 108.892 253.802 106.833 246.093L100.046 220.731C97.9773 213.023 102.568 205.068 110.271 203.008L135.617 196.216C143.32 194.146 151.27 198.74 153.329 206.448L160.116 231.81C162.175 239.519 157.584 247.473 149.891 249.534ZM167.622 256.039C164.834 252.027 160.382 249.455 155.516 249.041C159.525 246.251 162.096 241.796 162.51 236.926C165.297 240.938 169.75 243.511 174.616 243.925C170.597 246.714 168.026 251.17 167.622 256.039ZM205.075 234.738L179.729 241.53C172.025 243.6 164.076 239.006 162.017 231.298L155.23 205.935C153.161 198.227 157.752 190.272 165.455 188.212L190.801 181.421C198.504 179.351 206.454 183.944 208.513 191.652L215.3 217.015C217.369 224.723 212.778 232.678 205.075 234.738ZM222.806 241.244C220.018 237.232 215.566 234.659 210.7 234.245C214.709 231.456 217.28 227 217.694 222.131C220.481 226.143 224.934 228.715 229.8 229.129C225.791 231.919 223.22 236.374 222.806 241.244Z" fill="white" fill-opacity="0.06"/>
</g>
<rect width="266" height="276" rx="15" fill="url(#paint0_radial_759_10843)" fill-opacity="0.9"/>
<defs>
<radialGradient id="paint0_radial_759_10843" cx="0" cy="0" r="1" gradientUnits="userSpaceOnUse" gradientTransform="translate(133 138) rotate(90) scale(138 133)">
<stop stop-color="#242549" stop-opacity="0"/>
<stop offset="1" stop-color="#242549"/>
</radialGradient>
<clipPath id="clip0_759_10843">
<rect width="266" height="276" fill="white"/>
</clipPath>
</defs>
</svg>
