<svg width="22" height="22" viewBox="0 0 22 22" fill="none" xmlns="http://www.w3.org/2000/svg">
<path d="M1 8.98V8C1 3 3 1 8 1H14C19 1 21 3 21 8V14C21 19 19 21 14 21H13" stroke="#0095FF" stroke-width="1.5" stroke-linecap="round" stroke-linejoin="round"/>
<path d="M12 10.0005L17.01 4.98047H13" stroke="#0095FF" stroke-width="1.5" stroke-linecap="round" stroke-linejoin="round"/>
<path d="M17.0098 4.98047V8.99047" stroke="#0095FF" stroke-width="1.5" stroke-linecap="round" stroke-linejoin="round"/>
<path d="M10 15.15V17.85C10 20.1 9.1 21 6.85 21H4.15C1.9 21 1 20.1 1 17.85V15.15C1 12.9 1.9 12 4.15 12H6.85C9.1 12 10 12.9 10 15.15Z" stroke="#0095FF" stroke-width="1.5" stroke-linecap="round" stroke-linejoin="round"/>
</svg>
