<svg width="22" height="22" viewBox="0 0 22 22" fill="none" xmlns="http://www.w3.org/2000/svg">
<path d="M15.9102 5.03027C17.9102 6.42027 19.2902 8.63027 19.5702 11.1803" stroke="#0095FF" stroke-width="1.5" stroke-linecap="round" stroke-linejoin="round"/>
<path d="M2.44043 11.2301C2.70043 8.69008 4.06043 6.48008 6.04043 5.08008" stroke="#0095FF" stroke-width="1.5" stroke-linecap="round" stroke-linejoin="round"/>
<path d="M7.13965 19.7998C8.29965 20.3898 9.61965 20.7198 11.0096 20.7198C12.3496 20.7198 13.6096 20.4198 14.7396 19.8698" stroke="#0095FF" stroke-width="1.5" stroke-linecap="round" stroke-linejoin="round"/>
<path d="M11.0105 6.56C12.5458 6.56 13.7905 5.31535 13.7905 3.78C13.7905 2.24465 12.5458 1 11.0105 1C9.47512 1 8.23047 2.24465 8.23047 3.78C8.23047 5.31535 9.47512 6.56 11.0105 6.56Z" stroke="#0095FF" stroke-width="1.5" stroke-linecap="round" stroke-linejoin="round"/>
<path d="M3.78 18.7797C5.31535 18.7797 6.56 17.5351 6.56 15.9997C6.56 14.4644 5.31535 13.2197 3.78 13.2197C2.24465 13.2197 1 14.4644 1 15.9997C1 17.5351 2.24465 18.7797 3.78 18.7797Z" stroke="#0095FF" stroke-width="1.5" stroke-linecap="round" stroke-linejoin="round"/>
<path d="M18.1198 18.7797C19.6552 18.7797 20.8998 17.5351 20.8998 15.9997C20.8998 14.4644 19.6552 13.2197 18.1198 13.2197C16.5845 13.2197 15.3398 14.4644 15.3398 15.9997C15.3398 17.5351 16.5845 18.7797 18.1198 18.7797Z" stroke="#0095FF" stroke-width="1.5" stroke-linecap="round" stroke-linejoin="round"/>
</svg>
