<svg width="1919" height="523" viewBox="0 0 1919 523" fill="none" xmlns="http://www.w3.org/2000/svg">
<path d="M0.0615234 521.851C0.0615234 521.851 305.307 503.551 375.135 380.197C444.963 256.842 211.062 270.255 304.231 388.619C397.4 506.983 708.732 434.03 780.701 358.956C852.671 283.882 909.507 187.24 909.507 187.24C909.507 187.24 1103.85 309.764 1311.81 229.321C1519.78 148.878 1531.19 93.5891 1498.82 63.2807C1466.45 32.9724 1385.16 74.9922 1510.65 193.111C1636.15 311.229 1919.24 0.686493 1919.24 0.686493" stroke="#D1FDE9" stroke-width="2" stroke-miterlimit="10"/>
<path d="M337.175 319.409C351.125 319.409 359.305 325.856 359.305 336.922C359.305 350.872 344.872 353.664 344.872 363.766H328.803C328.803 349.431 339.388 347.891 339.388 340.481C339.388 337.691 338.04 336.439 335.155 336.439C331.596 336.439 329.958 338.843 329.958 344.04H313.409C313.409 328.55 322.165 319.409 337.175 319.409ZM346.411 378.68C346.411 384.548 342.369 388.591 336.5 388.591C330.728 388.591 326.685 384.548 326.685 378.68C326.685 372.907 330.728 368.865 336.5 368.865C342.372 368.865 346.411 372.907 346.411 378.68Z" stroke="#00CEC9" stroke-width="2" stroke-miterlimit="10"/>
<path d="M296.65 287.65C292.66 280.7 288.68 273.75 284.69 266.79C284.13 265.81 283.57 264.83 283 263.85C282.04 262.18 279.45 263.68 280.41 265.36C284.4 272.31 288.38 279.26 292.37 286.22C292.93 287.2 293.49 288.18 294.06 289.16C295.02 290.84 297.61 289.33 296.65 287.65Z" fill="#D1FDE9"/>
<path d="M306.021 282.97C305.541 276.99 305.061 271 304.581 265.02C304.511 264.16 304.441 263.3 304.371 262.44C304.221 260.53 301.221 260.51 301.371 262.44C301.851 268.42 302.331 274.4 302.811 280.39C302.881 281.25 302.951 282.11 303.021 282.97C303.181 284.88 306.181 284.9 306.021 282.97Z" fill="#D1FDE9"/>
<path d="M286.09 294.29C282.06 291.65 278.03 289.01 274 286.38C273.42 286 272.84 285.61 272.25 285.23C271.58 284.79 270.6 285.1 270.2 285.77C269.77 286.5 270.06 287.38 270.74 287.82C274.77 290.46 278.8 293.09 282.83 295.73C283.41 296.11 283.99 296.49 284.58 296.87C285.26 297.31 286.24 297.01 286.63 296.33C287.06 295.61 286.77 294.73 286.09 294.29Z" fill="#D1FDE9"/>
<path d="M1485.51 76.7537C1492.61 80.2639 1495.15 85.6033 1492.36 91.2344C1488.85 98.3349 1480.81 96.1251 1478.26 101.266L1470.08 97.2229C1473.69 89.9265 1479.47 91.8055 1481.33 88.0341C1482.03 86.613 1481.66 85.6372 1480.19 84.911C1478.38 84.0142 1476.94 84.8273 1475.64 87.4715L1467.21 83.3101C1471.11 75.4252 1477.87 72.9772 1485.51 76.7537ZM1475.29 109.242C1473.81 112.229 1470.74 113.27 1467.75 111.792C1464.82 110.34 1463.78 107.266 1465.25 104.28C1466.7 101.341 1469.78 100.301 1472.72 101.756C1475.71 103.23 1476.74 106.306 1475.29 109.242Z" stroke="#00CEC9" stroke-width="2" stroke-miterlimit="10"/>
<path d="M1513.77 44.79C1516.51 38.94 1519.24 33.09 1521.98 27.24C1522.32 26.51 1522.19 25.62 1521.44 25.19C1520.79 24.81 1519.73 24.99 1519.39 25.73C1516.65 31.58 1513.92 37.43 1511.18 43.28C1510.84 44.01 1510.97 44.9 1511.72 45.33C1512.37 45.71 1513.42 45.53 1513.77 44.79Z" fill="#D1FDE9"/>
<path d="M1519.29 53.02C1525.87 48.65 1532.46 44.29 1539.04 39.92C1539.99 39.29 1540.94 38.66 1541.89 38.03C1543.49 36.97 1541.99 34.37 1540.38 35.44C1533.8 39.81 1527.21 44.17 1520.63 48.54C1519.68 49.17 1518.73 49.8 1517.78 50.43C1516.18 51.49 1517.68 54.09 1519.29 53.02Z" fill="#D1FDE9"/>
<path d="M1523.91 61.66C1529.56 60.86 1535.22 60.06 1540.87 59.26C1541.67 59.15 1542.48 59.03 1543.28 58.92C1544.08 58.81 1544.52 57.78 1544.33 57.07C1544.09 56.21 1543.29 55.91 1542.48 56.02C1536.83 56.82 1531.17 57.62 1525.52 58.42C1524.72 58.53 1523.91 58.65 1523.11 58.76C1522.31 58.87 1521.87 59.9 1522.06 60.61C1522.3 61.47 1523.11 61.77 1523.91 61.66Z" fill="#D1FDE9"/>
</svg>
