<svg width="270" height="198" viewBox="0 0 270 198" fill="none" xmlns="http://www.w3.org/2000/svg">
<rect width="270" height="198" rx="15" fill="white"/>
<path d="M0 15C0 6.71573 6.71573 0 15 0H255C263.284 0 270 6.71573 270 15V183C270 191.284 263.284 198 255 198H15C6.71574 198 0 191.284 0 183V15Z" fill="#FEC458" fill-opacity="0.35"/>
<mask id="mask0_346_3759" style="mask-type:alpha" maskUnits="userSpaceOnUse" x="0" y="0" width="270" height="198">
<path d="M0 15C0 6.71573 6.71573 0 15 0H255C263.284 0 270 6.71573 270 15V183C270 191.284 263.284 198 255 198H15C6.71574 198 0 191.284 0 183V15Z" fill="#FEC458"/>
</mask>
<g mask="url(#mask0_346_3759)">
<circle cx="134.5" cy="238.5" r="167.5" fill="#FEC458"/>
<circle r="40.5" transform="matrix(-1 0 0 1 256.5 10.5)" fill="#FEC458"/>
</g>
<path d="M192.256 98.767L197.213 82.0942C197.213 82.0942 198.001 78.5796 202.511 76.0111L225.004 64.6992C225.004 64.6992 227.571 66.7286 224.45 68.8496C224.363 69.3074 219.823 71.3927 219.823 71.3927C219.823 71.3927 215.13 73.6866 213.89 75.2278C213.89 75.2278 216.981 74.5157 217.347 77.5471L217.383 79.2103C217.383 79.2103 220.87 79.5206 218.857 83.8693C218.857 83.8693 221.587 86.2853 219.462 88.1265L212.532 95.3185C212.532 95.3185 210.605 96.1323 210.783 93.0348C210.783 93.0348 209.685 97.5565 204.525 96.0967L202.892 105.247L191.26 103.024L192.256 98.767Z" fill="#F9518C"/>
<path d="M209.954 71.1079C209.954 71.1079 212.197 73.9002 209.283 76.774L205.013 80.5683C205.013 80.5683 207.682 91.6615 200.62 94.2758C200.62 94.2758 195.525 95.2524 194.712 90.5425C194.508 89.3574 194.946 87.7552 195.149 86.6006C195.607 84.0067 196.324 80.4564 198.189 78.427C199.125 77.4098 200.564 76.7028 201.733 75.9653C202.943 75.2074 204.163 74.4597 205.389 73.7222C205.684 73.5544 209.807 70.9248 209.954 71.1079Z" fill="#F9518C"/>
<path d="M219.416 71.3825C219.512 71.3825 219.609 71.3368 219.665 71.2503C219.757 71.113 219.721 70.9248 219.584 70.8332C219.258 70.6145 218.974 69.8058 218.877 69.348C218.841 69.1853 218.679 69.0836 218.521 69.1192C218.358 69.1548 218.257 69.3124 218.292 69.4752C218.323 69.6176 218.623 70.8994 219.253 71.3266C219.299 71.3673 219.355 71.3825 219.416 71.3825Z" fill="#1B1A20"/>
<path d="M209.055 85.5173L209.212 85.3698C210.29 84.3882 211.642 84.0016 213.076 83.5896C213.351 83.5083 213.63 83.432 213.905 83.3455L214.123 83.2794C215.323 82.9183 217.332 82.3181 217.51 80.8024C217.515 80.7668 217.688 79.2409 217.688 79.2409L217.093 79.1697C217.093 79.1697 216.915 80.6956 216.915 80.7312C216.788 81.8501 215.013 82.3842 213.956 82.6995L213.737 82.7657C213.468 82.847 213.193 82.9284 212.919 83.0047C211.556 83.3964 210.153 83.7982 209.004 84.7544C208.841 84.6069 208.607 84.3322 208.572 83.9101C208.526 83.3455 208.836 82.374 210.559 80.96L212.069 80.2988C212.222 80.2327 212.288 80.0547 212.222 79.9021C212.156 79.7495 211.978 79.6834 211.825 79.7495L210.209 80.4718C208.633 81.7586 207.885 82.9335 207.972 83.9711C208.058 84.9324 208.836 85.38 208.871 85.4004L209.055 85.5173Z" fill="#1B1A20"/>
<path d="M209.258 89.6577C209.426 89.6577 209.589 89.6373 209.731 89.617C213.382 89.1541 216.976 87.0128 219.106 84.0424C219.203 83.9102 219.173 83.722 219.035 83.6253C218.898 83.5287 218.715 83.5592 218.618 83.6966C216.58 86.5398 213.143 88.5845 209.65 89.027C209.411 89.0575 209.167 89.088 208.963 89.0219C208.831 88.9761 208.745 88.8896 208.694 88.7523C208.541 88.3149 208.801 87.5214 209.04 87.14C209.64 86.1837 210.707 85.4361 211.572 84.8918C211.714 84.8054 211.755 84.6172 211.663 84.4798C211.577 84.3374 211.389 84.2967 211.251 84.3883C210.336 84.9681 209.197 85.7667 208.531 86.8297C208.247 87.2875 207.881 88.2691 208.13 88.9608C208.241 89.2711 208.46 89.4898 208.77 89.5966C208.933 89.6424 209.101 89.6577 209.258 89.6577Z" fill="#1B1A20"/>
<path d="M211.612 95.527C211.704 95.527 211.79 95.4863 211.851 95.41C211.953 95.2777 211.928 95.0895 211.795 94.9878C211.18 94.5199 210.895 94.0062 210.911 93.4263C210.962 91.8394 213.28 90.283 213.305 90.2678C213.443 90.1762 213.483 89.988 213.392 89.8507C213.3 89.7134 213.112 89.6727 212.975 89.7642C212.868 89.8354 210.377 91.5088 210.311 93.4009C210.285 94.1791 210.662 94.8708 211.429 95.4608C211.485 95.5066 211.546 95.527 211.612 95.527Z" fill="#1B1A20"/>
<path d="M216.06 81.5044C216.081 81.5044 216.101 81.5044 216.121 81.4993C216.284 81.4637 216.386 81.306 216.35 81.1432C216.335 81.072 215.948 79.358 214.332 78.9155C214.174 78.8697 214.006 78.9663 213.965 79.124C213.92 79.2817 214.016 79.4495 214.174 79.4902C215.445 79.8361 215.76 81.25 215.765 81.2653C215.801 81.4077 215.923 81.5044 216.06 81.5044Z" fill="#1B1A20"/>
<path d="M213.88 87.0584C213.966 87.0584 214.058 87.0177 214.114 86.9465C214.215 86.8143 214.195 86.6261 214.063 86.5244C213.173 85.8174 213.738 84.383 213.748 84.3678C213.809 84.2152 213.738 84.0372 213.585 83.9761C213.432 83.9151 213.255 83.9863 213.194 84.1389C213.163 84.2152 212.456 86.0056 213.692 86.9872C213.748 87.0381 213.814 87.0584 213.88 87.0584Z" fill="#1B1A20"/>
<path d="M214.682 91.8241C214.779 91.8241 214.876 91.7783 214.932 91.6919C215.023 91.5545 214.988 91.3664 214.85 91.2748C214.342 90.934 214.698 90.1609 214.713 90.1253C214.784 89.9778 214.718 89.7947 214.571 89.7286C214.423 89.6574 214.245 89.7184 214.174 89.871C213.966 90.3084 213.767 91.2697 214.52 91.7733C214.566 91.8089 214.627 91.8241 214.682 91.8241Z" fill="#1B1A20"/>
<path d="M200.62 94.5759C200.635 94.5759 200.65 94.5759 200.666 94.5708C202.099 94.3368 203.503 92.6939 203.564 92.6227C206.843 89.2658 205.577 81.9161 205.338 80.6751L207.417 78.7525C209.558 77.3995 210.773 75.8788 211.037 74.2308C211.337 72.3235 210.229 70.9705 210.183 70.9146C210.076 70.7874 209.888 70.7721 209.761 70.879C209.634 70.9858 209.619 71.174 209.726 71.3011C209.741 71.3164 210.707 72.5116 210.448 74.1443C210.214 75.6194 209.08 77.0028 207.082 78.2591L207.036 78.2947L204.687 80.4666L204.723 80.6344C204.738 80.7158 206.426 88.8436 203.126 92.226C203.101 92.2565 201.789 93.7875 200.574 93.9859C200.411 94.0113 200.299 94.1639 200.325 94.3317C200.35 94.4741 200.477 94.5759 200.62 94.5759Z" fill="#1B1A20"/>
<path d="M210.971 104.998C211.317 105.42 211.434 106.015 211.398 106.539C211.373 106.89 211.2 109.056 210.463 108.772L188.631 100.384L190.268 97.2055C190.985 95.8271 196.074 98.3601 197.035 98.7568C201.316 100.506 205.511 102.439 209.766 104.245C210.117 104.392 210.473 104.55 210.768 104.789C210.844 104.85 210.91 104.921 210.971 104.998Z" fill="#F9B223"/>
<path d="M192.383 99.9775C192.515 99.9775 192.642 99.9063 192.713 99.7843L193.852 97.7345C193.954 97.5514 193.888 97.3225 193.705 97.2259C193.527 97.1241 193.298 97.1903 193.196 97.3734L192.058 99.4231C191.956 99.6062 192.022 99.8351 192.205 99.9318C192.261 99.9623 192.322 99.9775 192.383 99.9775Z" fill="#1B1A20"/>
<path d="M209.537 108.477L209.715 108.324C210.732 107.459 210.158 105.837 210.132 105.771C210.061 105.578 209.847 105.476 209.649 105.547C209.456 105.618 209.354 105.832 209.425 106.03C209.436 106.056 209.771 107.022 209.375 107.592C206.482 106.351 189.887 99.2858 187.736 99.8504C187.538 99.9013 187.416 100.11 187.467 100.308C187.517 100.507 187.726 100.629 187.924 100.578C189.409 100.186 201.835 105.16 209.319 108.385L209.537 108.477Z" fill="#1B1A20"/>
<path d="M180.455 168.784C182.478 168.784 184.527 168.271 186.403 167.187C192.118 163.892 194.08 156.588 190.786 150.876C168.527 112.23 145.495 92.7855 144.529 91.9768C139.465 87.7501 131.936 88.4317 127.711 93.5027C123.491 98.5635 124.167 106.081 129.216 110.313C129.551 110.598 150.188 128.237 170.093 162.803C172.31 166.638 176.326 168.784 180.455 168.784Z" fill="#FFA6BC"/>
<path d="M191.752 160.957L211.352 112.469C212.054 110.73 211.215 108.746 209.476 108.039L190.481 100.354C188.742 99.6519 186.76 100.491 186.053 102.231L166.453 150.718L191.752 160.957Z" fill="#FFA6BC"/>
<path d="M82.416 198H157.129L153.28 118.929C153.28 98.4769 140.559 81.9008 120.116 81.9008H111.93C95.6299 81.9008 82.4211 95.12 82.4211 111.421V198H82.416Z" fill="#FFA6BC"/>
<path d="M133.666 45.3153C133.666 45.3153 135.374 44.4608 134.433 42.3297C134.433 42.3297 137.504 37.5537 134.774 34.1408C134.474 33.7644 133.869 33.4796 133.437 33.3016C132.313 32.8387 131.093 33.3677 129.934 33.1591C128.81 32.9608 127.905 32.2436 127.178 31.3993C126.253 30.321 125.526 28.9833 124.367 28.1339C121.809 26.2622 118.743 26.5826 116.135 28.195C115.789 28.4086 115.454 28.6375 115.134 28.8816C113.501 30.1023 111.941 31.262 110.715 32.9252C109.241 34.919 107.939 37.0603 106.201 38.8405C105.321 39.7408 104.319 40.5698 103.196 41.1598C101.421 42.0906 100.288 43.2656 99.8503 45.2492C98.8182 49.9133 100.811 54.7046 103.023 58.6922C103.023 58.6922 108.143 67.9085 115.759 67.7915C115.754 67.7813 137.245 69.3733 133.666 45.3153Z" fill="#031044"/>
<path d="M126.817 83.3964C126.817 83.3709 126.746 80.6701 126.669 77.7404C126.578 74.2462 126.476 70.4264 126.476 70.4264L110.73 64.3788L109.591 63.9414L108.397 81.8603C107.751 91.5293 127.096 94.0368 126.817 83.3964Z" fill="#F9518C"/>
<path d="M110.73 64.3788C115.942 77.4403 123.487 78.1168 126.675 77.7404C126.583 74.2461 126.481 70.4264 126.481 70.4264L110.73 64.3788Z" fill="#1B1A20"/>
<path d="M101.879 61.6931C101.879 64.1447 103.867 66.1283 106.312 66.1283C107.502 66.1283 108.58 65.6604 109.373 64.8975C109.185 65.0806 111.427 67.5322 111.661 67.7661C112.515 68.6308 113.461 69.4497 114.406 70.2126C118.957 73.8849 125.205 75.5786 130.63 72.7507C133.483 71.2604 135.776 68.7681 136.98 65.7774C137.611 64.2108 137.931 62.5273 137.931 60.8335C137.931 58.0158 137.052 55.3963 135.542 53.2347C135.476 43.0621 128.932 34.8376 120.874 34.8376C112.769 34.8376 106.206 43.1435 106.206 53.3822C106.206 54.7097 106.312 56.0067 106.526 57.2579C106.46 57.2528 106.384 57.2528 106.317 57.2528C103.867 57.2579 101.879 59.2466 101.879 61.6931Z" fill="#F9518C"/>
<path d="M126.832 46.5513C126.837 46.8667 127.025 47.1769 127.331 47.3549C127.742 47.594 128.205 47.4923 128.652 47.3956C129.344 47.243 130.046 47.1261 130.757 47.0701C131.098 47.0447 131.444 47.0294 131.784 47.0243C132.12 47.0192 132.461 47.1159 132.791 47.0294C133.005 46.9735 133.152 46.8311 133.213 46.6479C133.269 46.4699 133.218 46.2716 133.076 46.1291C132.928 45.9816 132.669 45.9155 132.455 45.8545C130.945 45.412 129.369 45.2797 127.808 45.5798C127.503 45.6409 127.239 45.7477 127.051 45.9664C126.898 46.1495 126.827 46.3529 126.832 46.5513Z" fill="#031044"/>
<path d="M120.823 47.8178C120.955 48.1331 120.899 48.5247 120.671 48.835C120.36 49.2521 119.857 49.3487 119.369 49.4454C118.611 49.5929 117.859 49.781 117.127 50.0303C116.776 50.1523 116.425 50.2897 116.08 50.427C115.744 50.5643 115.439 50.8085 115.073 50.8695C114.834 50.9051 114.625 50.8288 114.488 50.6711C114.356 50.5135 114.32 50.2948 114.402 50.0964C114.488 49.8828 114.717 49.7048 114.9 49.5522C116.217 48.4586 117.737 47.6499 119.42 47.2786C119.745 47.2074 120.06 47.2023 120.345 47.3396C120.584 47.4465 120.742 47.6194 120.823 47.8178Z" fill="#031044"/>
<path d="M128.465 51.6276C128.465 52.594 129.009 53.3773 129.68 53.3773C130.351 53.3773 130.895 52.594 130.895 51.6276C130.895 50.6612 130.351 49.8779 129.68 49.8779C129.009 49.8779 128.465 50.6612 128.465 51.6276Z" fill="#1B1A20"/>
<path d="M118.738 54.1451C118.738 55.1115 119.282 55.8947 119.953 55.8947C120.625 55.8947 121.169 55.1115 121.169 54.1451C121.169 53.1787 120.625 52.3954 119.953 52.3954C119.282 52.3954 118.738 53.1787 118.738 54.1451Z" fill="#1B1A20"/>
<path d="M126.141 65.0042C128.571 65.0042 130.64 64.0022 131.169 62.5729C131.256 62.339 131.139 62.0796 130.905 61.9931C130.671 61.9066 130.412 62.0236 130.325 62.2576C129.934 63.3105 128.134 64.1039 126.141 64.1039C123.955 64.1039 122.043 63.1579 121.891 61.9982C121.855 61.7541 121.631 61.5811 121.382 61.6116C121.138 61.6472 120.965 61.871 120.996 62.1203C121.214 63.7631 123.426 65.0042 126.141 65.0042Z" fill="#1B1A20"/>
<path d="M125.134 35.7022C125.134 35.7022 125.531 42.1872 116.039 44.1759C114.834 44.4303 113.69 45.2797 113.11 46.358C111.961 48.4789 113.136 51.017 112.937 53.2702C112.82 54.613 112.358 56.1439 111.29 57.0696C109.892 58.2852 107.899 57.8326 106.318 57.2578C106.318 57.2578 101.655 55.4929 103.079 49.2368C103.079 49.2368 104.442 38.0877 116.273 32.3453C116.267 32.3453 125.078 28.3628 125.134 35.7022Z" fill="#031044"/>
<path d="M106.521 57.5628C106.536 57.5628 106.556 57.5628 106.576 57.5577C109.703 56.9932 111.62 54.7094 111.351 51.8662C111.279 51.144 111.106 50.4217 110.939 49.7249C110.608 48.3465 110.293 47.0393 110.715 45.7169C111.188 44.2368 112.378 43.8197 113.745 43.3365C114.015 43.2399 114.289 43.1483 114.559 43.0415C117.309 41.9734 120.08 40.6663 121.727 38.3978C122.348 37.5433 122.632 36.7854 122.592 36.0784C122.582 35.9106 122.439 35.7885 122.277 35.7936C122.109 35.8038 121.987 35.9462 121.992 36.109C122.022 36.6634 121.768 37.3093 121.239 38.0417C119.684 40.1881 117.004 41.4444 114.34 42.482C114.076 42.5838 113.811 42.6804 113.547 42.772C112.154 43.2602 110.71 43.7689 110.14 45.5338C109.663 47.019 110.013 48.4635 110.349 49.8673C110.512 50.5438 110.679 51.2457 110.746 51.9272C110.99 54.4805 109.307 56.4591 106.465 56.9677C106.302 56.9982 106.195 57.1508 106.221 57.3187C106.251 57.4611 106.378 57.5628 106.521 57.5628Z" fill="#6386FE"/>
<path d="M108.565 62.2882C108.651 62.2882 108.738 62.2627 108.814 62.2119C109.022 62.0745 109.073 61.7948 108.936 61.5863C108.89 61.515 107.772 59.8824 106.185 59.7349C105.357 59.6586 104.579 59.9942 103.862 60.7267C103.689 60.9047 103.694 61.1895 103.872 61.3625C104.05 61.5354 104.335 61.5303 104.508 61.3523C105.031 60.8182 105.555 60.5792 106.104 60.63C107.253 60.7318 108.183 62.0694 108.189 62.0847C108.28 62.2169 108.422 62.2882 108.565 62.2882Z" fill="#1B1A20"/>
<path d="M126.055 52.7056C126.055 49.7658 128.444 47.3752 131.383 47.3752C134.322 47.3752 136.711 49.7658 136.711 52.7056C136.711 55.6455 134.322 58.0361 131.383 58.0361C128.449 58.0361 126.055 55.6455 126.055 52.7056ZM127.082 52.7056C127.082 55.0809 129.014 57.0137 131.388 57.0137C133.762 57.0137 135.694 55.0809 135.694 52.7056C135.694 50.3304 133.762 48.3976 131.388 48.3976C129.014 48.3925 127.082 50.3253 127.082 52.7056Z" fill="white"/>
<path d="M113.659 55.1471C113.659 52.2072 116.049 49.8167 118.987 49.8167C121.926 49.8167 124.316 52.2072 124.316 55.1471C124.316 58.0869 121.926 60.4775 118.987 60.4775C116.054 60.4825 113.659 58.092 113.659 55.1471ZM114.686 55.1471C114.686 57.5223 116.618 59.4551 118.993 59.4551C121.367 59.4551 123.299 57.5223 123.299 55.1471C123.299 52.7718 121.367 50.839 118.993 50.839C116.618 50.839 114.686 52.7718 114.686 55.1471Z" fill="white"/>
<path d="M127.407 59.9436C127.448 59.9436 127.494 59.9386 127.534 59.9233C128.465 59.6486 129.11 58.784 129.11 57.8125C129.11 56.602 128.124 55.6152 126.914 55.6152C126.4 55.6152 125.902 55.7933 125.511 56.1239C125.318 56.2815 125.292 56.5664 125.45 56.7596C125.607 56.9529 125.892 56.9784 126.085 56.8207C126.319 56.6274 126.614 56.5206 126.914 56.5206C127.631 56.5206 128.21 57.1055 128.21 57.8176C128.21 58.3923 127.829 58.901 127.28 59.0637C127.041 59.1349 126.904 59.3842 126.975 59.6232C127.031 59.8165 127.214 59.9436 127.407 59.9436Z" fill="#1B1A20"/>
<path d="M123.924 55.0504C124.117 55.0504 124.305 54.9385 124.392 54.7503C124.621 54.2417 124.9 53.9517 125.22 53.8958C125.729 53.7992 126.344 54.2773 126.517 54.4502C126.715 54.6486 127.041 54.6486 127.239 54.4451C127.437 54.2468 127.437 53.9212 127.234 53.7229C127.127 53.6161 126.146 52.6853 125.032 52.8887C124.366 53.0108 123.838 53.494 123.461 54.3281C123.344 54.5875 123.456 54.8876 123.716 55.0046C123.782 55.0351 123.853 55.0504 123.924 55.0504Z" fill="white"/>
<path d="M119.226 90.8119C120.258 90.8119 121.229 90.6441 122.145 90.3084C126.202 88.8232 127.488 84.5914 127.539 84.4134C127.61 84.1743 127.473 83.9251 127.234 83.8539C126.995 83.7827 126.746 83.92 126.675 84.1591C126.664 84.1998 125.454 88.1416 121.824 89.4691C118.809 90.5678 114.986 89.6166 110.466 86.6412C110.258 86.5038 109.978 86.5598 109.841 86.7683C109.703 86.9769 109.759 87.2566 109.968 87.3939C113.43 89.6675 116.532 90.8119 119.226 90.8119Z" fill="#1B1A20"/>
<path d="M118.016 95.532C121.565 95.532 125.113 94.2503 127.391 92.1242C129.16 90.4712 130.137 88.3553 130.208 86.0054C130.213 85.7969 130.05 85.624 129.847 85.6189C129.633 85.6087 129.466 85.7766 129.46 85.98C129.394 88.1569 128.525 90.0388 126.883 91.5749C124.62 93.6857 121.016 94.9115 117.472 94.7691C113.46 94.6114 109.464 92.643 107.034 89.6319C106.053 88.4163 105.178 86.9667 104.426 85.3137L106.917 84.5558C107.115 84.4948 107.227 84.2863 107.166 84.0879C107.105 83.8895 106.897 83.7777 106.698 83.8387L103.394 84.8407L103.561 85.2272C104.38 87.1041 105.351 88.7418 106.444 90.0999C109.007 93.2737 113.216 95.3489 117.436 95.5167C117.635 95.532 117.828 95.532 118.016 95.532Z" fill="#1B1A20"/>
<path d="M129.409 88.3299C129.526 88.3299 129.643 88.2739 129.72 88.1671C129.837 87.9993 129.796 87.7653 129.628 87.6432L127.666 86.2801C127.498 86.1631 127.264 86.2038 127.142 86.3717C127.025 86.5395 127.066 86.7735 127.233 86.8956L129.196 88.2587C129.262 88.3095 129.338 88.3299 129.409 88.3299Z" fill="#1B1A20"/>
<path d="M117.457 95.5216C117.655 95.5216 117.818 95.369 117.833 95.1655L118.041 91.4729C118.051 91.2644 117.894 91.0864 117.69 91.0762C117.482 91.0609 117.304 91.2237 117.294 91.4271L117.085 95.1198C117.075 95.3283 117.233 95.5063 117.436 95.5165C117.446 95.5216 117.451 95.5216 117.457 95.5216Z" fill="#1B1A20"/>
<path d="M109.937 90.6899C110.049 90.6899 110.155 90.639 110.232 90.5475L111.94 88.3858C112.067 88.2231 112.042 87.9891 111.879 87.8569C111.716 87.7297 111.482 87.7551 111.35 87.9179L109.647 90.0796C109.52 90.2423 109.545 90.4763 109.708 90.6085C109.774 90.6645 109.855 90.6899 109.937 90.6899Z" fill="#1B1A20"/>
<path d="M107.095 90.3492C107.187 90.3492 107.283 90.3136 107.355 90.2475L109.627 88.0858C109.78 87.9434 109.785 87.7044 109.642 87.5569C109.5 87.4043 109.261 87.3992 109.114 87.5416L106.841 89.7033C106.688 89.8457 106.683 90.0847 106.826 90.2322C106.897 90.3136 106.994 90.3492 107.095 90.3492Z" fill="#1B1A20"/>
<path d="M155.308 161.226C155.314 161.226 155.319 161.226 155.324 161.226C155.532 161.221 155.695 161.048 155.685 160.84C154.785 134.503 151.846 113.456 151.816 113.247C151.785 113.044 151.597 112.902 151.394 112.927C151.19 112.958 151.048 113.146 151.073 113.349C151.104 113.558 154.037 134.569 154.937 160.865C154.942 161.063 155.11 161.226 155.308 161.226Z" fill="#1B1A20"/>
<path d="M152.34 126.787L151.781 134.538L138.856 138.379C138.856 138.379 141.765 131.141 152.34 126.787Z" fill="#E2407E"/>
<path d="M148.43 154.08C152.431 153.098 156.438 152.117 160.439 151.14C165.604 149.874 174.009 149.345 177.542 145.042C180.064 141.97 181.645 137.773 183.516 134.249C185.382 130.739 187.248 127.225 189.109 123.715C189.394 123.181 189.678 122.642 189.963 122.103C191.336 119.509 192.719 116.92 194.091 114.331C194.569 113.436 196.186 111.437 196.186 110.394C196.186 110.394 196.186 106.3 189.877 106.3C189.877 106.3 162.645 110.216 162.584 110.226C156.6 111.086 154.653 116.899 152.69 121.818C149.635 129.473 146.167 137.199 143.391 145.016C142.883 146.44 142.4 147.875 141.942 149.304C141.947 149.304 139.731 156.298 148.43 154.08Z" fill="white"/>
<path d="M145.302 152.351C145.455 152.351 145.602 152.254 145.653 152.102L152.207 133.72C152.69 132.362 153.152 130.922 153.595 129.529C154.764 125.877 155.969 122.103 157.84 118.919C159.06 116.839 160.87 115.297 163.072 114.458C166.402 113.187 170.037 112.897 173.55 112.612C175.274 112.475 177.059 112.332 178.792 112.073C178.996 112.042 179.138 111.849 179.108 111.646C179.077 111.442 178.884 111.3 178.68 111.33C176.977 111.584 175.203 111.727 173.489 111.864C169.925 112.149 166.234 112.444 162.802 113.756C160.443 114.657 158.501 116.31 157.194 118.537C155.283 121.793 154.063 125.607 152.883 129.3C152.42 130.75 151.983 132.123 151.5 133.471L144.947 151.852C144.875 152.046 144.977 152.264 145.175 152.331C145.216 152.346 145.262 152.351 145.302 152.351Z" fill="#9DBDFF"/>
<path d="M131.265 157.747L137.641 153.938L143.137 150.657L155.354 147.804C161.166 146.415 161.72 145.204 161.72 145.204L163.998 141.853C168.299 137.158 166.316 135.042 166.316 135.042C170.058 132.53 166.906 130.993 166.906 130.993C168.263 129.478 165.218 129.325 165.218 129.325C167.211 127.55 165.238 127.113 165.238 127.113C160.545 126.08 155.441 132.051 155.441 132.051L148.516 133.918C144.947 134.737 132.506 140.108 128.26 141.965C127.361 142.361 126.832 142.595 126.832 142.595C125.108 147.036 131.265 157.747 131.265 157.747Z" fill="#F9518C"/>
<path d="M131.265 157.747L137.641 153.938C132.923 150.86 129.75 145.159 128.26 141.965C127.361 142.361 126.832 142.595 126.832 142.595C125.108 147.036 131.265 157.747 131.265 157.747Z" fill="#1B1A20"/>
<path d="M150.906 138.17C150.931 138.17 150.951 138.165 150.977 138.16L154.622 137.265C157.347 136.71 159.111 135.007 159.188 134.935C161.526 132.652 165.36 129.595 165.396 129.564C165.523 129.463 165.548 129.274 165.441 129.142C165.34 129.01 165.152 128.989 165.019 129.096C164.979 129.127 161.125 132.204 158.766 134.508C158.751 134.523 157.042 136.161 154.49 136.685L150.834 137.58C150.672 137.621 150.575 137.784 150.616 137.941C150.646 138.079 150.768 138.17 150.906 138.17Z" fill="#1B1A20"/>
<path d="M151.735 141.568C151.76 141.568 151.785 141.563 151.811 141.558C152.34 141.415 152.874 141.288 153.402 141.161C154.846 140.81 156.341 140.449 157.759 139.849C160.82 138.547 163.113 135.856 165.33 133.252C165.945 132.529 166.525 131.848 167.12 131.197C167.231 131.075 167.221 130.887 167.099 130.775C166.977 130.663 166.789 130.673 166.677 130.795C166.077 131.456 165.493 132.138 164.872 132.865C162.701 135.413 160.454 138.053 157.526 139.299C156.158 139.884 154.689 140.235 153.265 140.581C152.731 140.708 152.192 140.84 151.658 140.983C151.501 141.024 151.404 141.191 151.445 141.349C151.48 141.481 151.602 141.568 151.735 141.568Z" fill="#1B1A20"/>
<path d="M153.61 144.594C153.63 144.594 153.651 144.594 153.671 144.589L157.693 143.77C161.099 143.114 162.375 141.034 162.508 140.8L166.555 135.215C166.651 135.083 166.621 134.895 166.489 134.798C166.356 134.701 166.168 134.732 166.072 134.864L161.994 140.5C161.984 140.52 160.825 142.56 157.576 143.185L153.554 144.004C153.392 144.035 153.285 144.197 153.32 144.36C153.346 144.498 153.468 144.594 153.61 144.594Z" fill="#1B1A20"/>
<path d="M70.452 180.518C76.304 180.518 81.6679 176.627 83.2796 170.702C90.4534 144.365 109.474 109.865 109.667 109.519C113.226 103.09 110.902 94.9877 104.476 91.4274C98.0493 87.867 89.9501 90.1914 86.3911 96.6204C85.5471 98.1463 65.6169 134.31 57.6093 163.708C55.6773 170.799 59.8565 178.118 66.949 180.05C68.1133 180.366 69.2928 180.518 70.452 180.518Z" fill="#FFA6BC"/>
<path d="M69.0086 180.676C70.1678 180.747 71.3626 180.783 72.593 180.783C82.8479 180.783 95.5534 178.311 110.425 173.403C121.488 169.756 130.045 165.972 131.509 165.31L121.605 141.71C121.442 141.776 121.285 141.842 121.122 141.914C115.356 144.533 102.107 149.797 89.2947 152.854C83.4173 154.253 77.6264 155.189 72.6997 155.189C71.9727 155.189 71.266 155.168 70.5745 155.128C64.204 154.731 58.6266 159.085 57.2945 165.138C57.1521 165.778 57.0606 166.44 57.0199 167.116C56.5929 174.171 61.9517 180.244 69.0086 180.676Z" fill="#FFA6BC"/>
<path d="M131.514 165.316C131.514 165.316 137 163.81 135.638 159.258L127.335 142.082C127.335 142.082 126.237 140.098 121.61 141.715L131.514 165.316Z" fill="#FFA6BC"/>
<path d="M77.1836 155.311C77.1988 155.311 77.209 155.311 77.2242 155.311C97.1799 153.169 121.045 142.371 121.284 142.264C121.472 142.178 121.554 141.954 121.472 141.766C121.386 141.578 121.162 141.496 120.974 141.578C120.735 141.685 96.9816 152.432 77.1429 154.563C76.9344 154.583 76.787 154.772 76.8124 154.975C76.8328 155.168 76.9955 155.311 77.1836 155.311Z" fill="#1B1A20"/>
<path d="M89.239 179.313C89.2593 179.313 89.2745 179.313 89.2949 179.308C105.061 176.994 130.498 166.668 131.86 166.109C134.234 165.921 135.78 165.153 136.456 163.82C137.544 161.669 135.912 158.892 135.739 158.617L127.681 141.929C127.589 141.664 126.796 139.569 125.118 139.269C123.934 139.06 122.658 139.798 121.315 141.471C121.188 141.634 121.214 141.868 121.371 142C121.534 142.132 121.768 142.102 121.9 141.944C123.054 140.505 124.091 139.854 124.986 140.011C126.079 140.205 126.796 141.654 126.974 142.193L126.989 142.239L135.084 158.998C135.099 159.024 136.705 161.648 135.775 163.484C135.221 164.573 133.863 165.209 131.733 165.366L131.672 165.371L131.616 165.392C131.352 165.499 105.203 176.21 89.1729 178.565C88.9695 178.596 88.8271 178.784 88.8576 178.992C88.8983 179.181 89.0559 179.313 89.239 179.313Z" fill="#1B1A20"/>
<path d="M85.4864 152.808C85.6237 152.808 85.761 152.732 85.8271 152.595C95.1465 133.242 96.1989 118.486 95.4414 109.514C94.6177 99.7536 91.6231 94.6622 91.496 94.4486C91.3892 94.2706 91.1604 94.2146 90.9825 94.3214C90.8045 94.4283 90.7486 94.6571 90.8554 94.8351C90.8859 94.886 93.9059 100.028 94.7041 109.631C95.4414 118.502 94.3838 133.099 85.1559 152.269C85.0644 152.457 85.1458 152.681 85.3288 152.768C85.3746 152.793 85.4305 152.808 85.4864 152.808Z" fill="#1B1A20"/>
<path d="M131.514 165.687C131.565 165.687 131.61 165.677 131.661 165.656C131.849 165.575 131.941 165.356 131.86 165.163L122.84 144.019L126.424 142.89C126.623 142.829 126.73 142.616 126.669 142.422C126.608 142.224 126.394 142.117 126.201 142.178L121.823 143.552L131.168 165.458C131.229 165.601 131.371 165.687 131.514 165.687Z" fill="#1B1A20"/>
<path d="M129.836 158.383C129.846 158.383 129.856 158.383 129.861 158.383C133.258 158.139 134.137 155.616 134.173 155.509C134.239 155.311 134.132 155.102 133.934 155.036C133.741 154.97 133.527 155.077 133.461 155.27C133.431 155.362 132.688 157.427 129.811 157.63C129.602 157.645 129.45 157.823 129.465 158.032C129.475 158.23 129.643 158.383 129.836 158.383Z" fill="#1B1A20"/>
<path d="M129.837 161.109C129.857 161.109 129.877 161.109 129.903 161.104C130.62 160.982 134.194 160.28 134.194 158.571C134.194 158.363 134.026 158.195 133.818 158.195C133.609 158.195 133.441 158.363 133.441 158.571C133.441 159.365 131.25 160.107 129.771 160.362C129.567 160.397 129.43 160.59 129.466 160.794C129.501 160.982 129.659 161.109 129.837 161.109Z" fill="#1B1A20"/>
<path d="M105.986 140.093C110.181 140.093 113.577 136.695 113.577 132.499V119.499H98.3955V132.499C98.3955 136.695 101.792 140.093 105.986 140.093Z" fill="#FFEAC5"/>
<path d="M105.148 116.574H113.547C113.755 116.574 113.923 116.406 113.923 116.198C113.923 115.989 113.755 115.821 113.547 115.821H105.148C104.939 115.821 104.771 115.989 104.771 116.198C104.771 116.406 104.939 116.574 105.148 116.574Z" fill="#1B1A20"/>
<path d="M98.3958 119.87L111.605 119.814L111.706 117.667C111.717 117.459 111.559 117.286 111.35 117.276C111.137 117.266 110.969 117.423 110.959 117.632L110.893 119.066L98.4009 119.122C98.1924 119.122 98.0247 119.29 98.0297 119.499C98.0196 119.707 98.1873 119.87 98.3958 119.87Z" fill="#1B1A20"/>
<path d="M113.404 119.219C113.607 119.219 113.775 119.056 113.78 118.853L113.851 116.406C113.856 116.198 113.693 116.025 113.485 116.02C113.48 116.02 113.48 116.02 113.475 116.02C113.272 116.02 113.104 116.182 113.099 116.386L113.027 118.832C113.022 119.041 113.185 119.214 113.394 119.219C113.399 119.219 113.399 119.219 113.404 119.219Z" fill="#1B1A20"/>
<path d="M100.581 119.87C100.785 119.87 100.952 119.707 100.957 119.503L100.988 118.054C100.993 117.845 100.825 117.677 100.622 117.672C100.408 117.672 100.246 117.835 100.241 118.039L100.21 119.488C100.205 119.697 100.373 119.865 100.576 119.87H100.581Z" fill="#1B1A20"/>
<path d="M98.507 119.87C98.7104 119.87 98.8781 119.707 98.8832 119.503L98.9392 116.431C98.9442 116.223 98.7765 116.055 98.5731 116.05C98.3646 116.05 98.1969 116.213 98.1918 116.416L98.1359 119.488C98.1308 119.697 98.2985 119.864 98.5019 119.87H98.507Z" fill="#1B1A20"/>
<path d="M184.934 122.169C185.549 122.169 186.144 121.833 186.449 121.248L190.715 113.059C191.152 112.225 190.827 111.193 189.988 110.755C189.154 110.318 188.122 110.643 187.685 111.483L183.419 119.671C182.982 120.506 183.307 121.538 184.146 121.976C184.395 122.108 184.665 122.169 184.934 122.169Z" fill="#9DBDFF"/>
<path d="M196.483 49.7832C199.834 38.6178 193.502 26.8495 182.341 23.498C171.18 20.1465 159.416 26.481 156.066 37.6464C152.716 48.8118 159.048 60.5801 170.209 63.9316C181.37 67.2831 193.133 60.9486 196.483 49.7832Z" fill="#FEC458"/>
<path d="M187.66 55.1122C193.948 48.8212 193.948 38.6214 187.66 32.3305C181.371 26.0395 171.176 26.0395 164.887 32.3305C158.599 38.6214 158.599 48.8212 164.887 55.1122C171.176 61.4032 181.371 61.4032 187.66 55.1122Z" fill="white"/>
<path d="M180.718 54.3473C186.58 51.8888 189.34 45.1417 186.883 39.2772C184.425 33.4127 177.681 30.6516 171.818 33.11C165.956 35.5685 163.196 42.3156 165.654 48.1801C168.111 54.0446 174.856 56.8057 180.718 54.3473Z" fill="#FEC458"/>
<path d="M176.273 50.0884C179.788 50.0884 182.637 47.2384 182.637 43.7227C182.637 40.207 179.788 37.3569 176.273 37.3569C172.759 37.3569 169.91 40.207 169.91 43.7227C169.91 47.2384 172.759 50.0884 176.273 50.0884Z" fill="white"/>
<path d="M179.145 43.7228C179.145 45.3092 177.86 46.6014 176.267 46.6014C174.675 46.6014 173.39 45.316 173.39 43.7228C173.39 42.1365 174.675 40.8442 176.267 40.8442C177.86 40.8442 179.145 42.1297 179.145 43.7228Z" fill="#FEC458"/>
<path d="M205.091 14.2434L177.824 41.5215L178.477 42.1742L205.744 14.8961L205.091 14.2434Z" fill="#455A64"/>
<path d="M179.834 42.7655L176.273 43.7228L177.223 40.1536L179.834 42.7655Z" fill="#263238"/>
<path d="M209.976 12.7897L204.864 17.9042L200.852 19.1281L202.075 15.1145L207.187 10L205.964 14.0136L209.976 12.7897Z" fill="#263238"/>
<path d="M37.1481 96.6646C23.8115 93.091 15.8969 79.3826 19.4705 66.0459L20.2469 63.1482C23.8205 49.8115 37.5289 41.897 50.8656 45.4705L53.7633 46.247C67.1 49.8205 75.0145 63.5289 71.441 76.8656L64.1941 103.912L37.1481 96.6646Z" fill="white"/>
<path d="M39.8914 92.2233C28.4219 89.1501 21.6154 77.3608 24.6886 65.8913C27.7619 54.4218 39.5511 47.6152 51.0206 50.6885C62.4902 53.7617 69.2967 65.551 66.2234 77.0205C63.1502 88.49 51.3609 95.2966 39.8914 92.2233Z" fill="#F9518C"/>
</svg>
