<svg width="182" height="142" viewBox="0 0 182 142" fill="none" xmlns="http://www.w3.org/2000/svg">
<path d="M161 122H22V40.5039C22 35.8268 25.8691 32 30.5979 32H152.259C156.988 32 160.857 35.8268 160.857 40.5039V122H161Z" fill="#0C1949"/>
<path d="M115.482 95.1232C118.265 83.2985 110.966 71.4493 99.1786 68.6572C87.391 65.865 75.579 73.1873 72.7956 85.012C70.0122 96.8366 77.3116 108.686 89.0991 111.478C100.887 114.27 112.699 106.948 115.482 95.1232Z" fill="#25BAB1"/>
<path d="M121.332 45.7142L127.171 57.5714C127.598 58.5714 128.595 59.2856 129.734 59.4285L142.694 61.2856C145.399 61.7142 146.539 64.9999 144.545 66.9999L135.146 76.1428C134.291 76.8571 134.007 77.9999 134.149 79.1428L136.428 92.1428C136.855 94.8571 134.007 96.9999 131.586 95.7142L119.908 89.5714C118.911 88.9999 117.772 88.9999 116.775 89.5714L105.24 95.7142C102.819 96.9999 99.9708 94.8571 100.398 92.1428L102.677 79.1428C102.819 77.9999 102.534 76.9999 101.68 76.1428L92.2807 66.9999C90.287 64.9999 91.4262 61.7142 94.132 61.2856L107.091 59.4285C108.231 59.2856 109.085 58.5714 109.655 57.5714L115.351 45.7142C116.633 43.1428 120.193 43.1428 121.332 45.7142Z" stroke="white" stroke-width="3" stroke-miterlimit="10"/>
<path d="M60.2387 58.2857C61.8052 57.4285 63.5141 57.1428 65.5078 57.1428C65.6502 57.1428 65.935 57.1428 66.0775 57.1428C66.5047 57.1428 66.7895 57.4285 66.7895 57.7143C66.7895 58.1428 66.6471 58.5714 66.2199 58.5714C65.7926 58.7143 65.5078 58.7142 65.0806 58.7142C63.7989 58.8571 62.6596 59.2857 61.5204 59.8571C58.245 61.7143 56.1088 64.4285 55.3968 68.2857C55.2544 69 55.3968 69 55.9664 69C56.8209 69 57.6753 69.1428 58.6722 69.2857C60.6659 69.5714 62.2324 70.5714 63.6565 71.8571C65.223 73.2857 65.7926 75.1428 65.223 77.2857C65.0806 78 64.7958 78.5714 64.3685 79.1428C63.5141 80.4285 62.3748 81 60.8083 81.1428C57.9601 81.2857 55.824 79.8571 53.9727 77.8571C52.9758 76.7143 52.5486 75.2857 52.1214 73.8571C51.9789 73.4285 51.8365 73.4285 51.5517 73.5714C49.8428 74.5714 48.5611 76 47.7067 77.7143C46.5674 79.8571 45.8554 82 45.5705 84.2857C45.5705 84.8571 45.5705 85.2857 45.5705 85.8571C45.5705 86.4285 45.7129 86.4285 46.1402 86.4285C47.5643 86.1428 49.1308 86.2857 50.5549 86.5714C52.691 87.1428 54.5423 88.1428 55.9664 89.8571C57.9601 92.4285 57.1057 95.8571 54.6847 97.4285C53.5455 98.1428 52.1214 98.4285 50.6973 98.2857C48.7035 98.1428 47.137 97.1428 45.7129 95.8571C44.5737 94.7142 43.7192 93.4285 43.0072 92C42.8648 91.7143 42.7224 91.7143 42.5799 92C42.0103 92.7143 41.4407 93.5714 41.0134 94.4285C40.3014 96 40.0166 97.7142 39.8742 99.4285C39.7318 100.571 39.7318 101.571 39.5894 102.714C39.5894 103.286 39.3045 103.857 38.8773 104.286C38.4501 104.857 37.5956 105.143 36.8836 104.857C36.3139 104.714 35.8867 104 35.8867 103.286C35.8867 102.571 35.8867 102 35.8867 101.286C36.0291 99.1428 36.3139 97 37.026 94.8571C37.8804 92.2857 39.3045 90.1428 41.4407 88.4285C41.8679 88.1428 42.0103 87.7143 42.0103 87.1428C42.0103 84.7143 42.4375 82.2857 43.292 79.8571C43.8616 78.2857 44.5737 76.8571 45.4281 75.4285C46.8522 73.2857 48.7035 71.5714 50.9821 70.2857C51.6941 70 51.9789 69.4285 52.1214 68.7142C52.691 66 53.8303 63.5714 55.5392 61.4285C56.536 60.5714 58.245 59.2857 60.2387 58.2857ZM46.5674 91.2857C47.2794 92.7143 47.9915 93.4285 49.2732 94.2857C50.27 95 51.4093 95.2857 52.691 95C53.1182 94.8571 53.403 94.5714 53.403 94.1428C53.403 93.4285 53.2606 92.7143 52.8334 92.1428C51.9789 91.1428 50.8397 90.5714 49.7004 90.1428C48.7035 89.8571 47.7067 89.7143 46.7098 89.8571C46.2826 89.8571 46.1402 90.1428 46.2826 90.5714C46.2826 90.8571 46.425 91 46.5674 91.2857ZM55.824 74C56.6785 75.7143 57.9601 76.8571 59.8115 77.4285C61.2355 77.8571 61.6628 77.2857 61.378 75.8571C61.378 75.5714 61.2355 75.2857 60.9507 75.1428C59.8115 73.8571 58.5298 73 56.8209 72.7143C56.3936 72.5714 55.824 72.4285 55.3968 72.7143C55.3968 73.1428 55.6816 73.5714 55.824 74Z" fill="#F54F59"/>
<path d="M23 132.667V122H160V132.667C160 137.326 156.5 141 152.393 141H30.4634C26.5105 141 23 137.337 23 132.667Z" fill="white" stroke="#0C1949" stroke-width="2"/>
<path opacity="0.4" d="M91.5317 136.055C94.0485 136.055 96.0888 134.009 96.0888 131.484C96.0888 128.959 94.0485 126.913 91.5317 126.913C89.0149 126.913 86.9746 128.959 86.9746 131.484C86.9746 134.009 89.0149 136.055 91.5317 136.055Z" fill="#F54F59"/>
<path d="M4.6995 41.7143H4.67166L4.64386 41.7158C2.69001 41.8247 1 40.1771 1 38.1429V4.71429C1 2.69218 2.69138 1 4.6995 1H88.7209C90.729 1 92.4204 2.69218 92.4204 4.71429V38C92.4204 40.0221 90.729 41.7143 88.7209 41.7143H4.6995Z" fill="white" stroke="#0C1949" stroke-width="2"/>
<path d="M13.6701 36.7143C12.5308 36.7143 11.534 36 10.9643 34.8571C10.9643 34.8571 10.8219 34.7143 10.8219 34.5714C10.6795 34.2857 10.5371 33.7143 10.5371 33.2857V9.57143C10.5371 7.57143 11.8188 6 13.5277 6H38.1645C38.8765 6 39.4462 6.28571 39.8734 6.71429C40.0158 6.85714 40.3006 7.14286 40.443 7.28571C40.8703 7.85714 41.1551 8.71429 41.1551 9.42857V33.1429C41.1551 35.1429 39.8734 36.7143 38.1645 36.7143H13.6701Z" fill="#FEC458"/>
<path d="M38.3075 7.14289C38.7347 7.14289 39.0195 7.28575 39.3044 7.57146C39.4468 7.71432 39.5892 7.85718 39.7316 8.00003C40.0164 8.42861 40.1588 9.00003 40.1588 9.57146V33.2857C40.1588 34.5715 39.3044 35.5715 38.3075 35.5715H13.6707C12.9587 35.5715 12.389 35.1429 12.1042 34.4286V34.2857C11.9618 34 11.9618 33.7143 11.9618 33.2857V9.57146C11.8194 8.28575 12.6738 7.14289 13.6707 7.14289H38.3075ZM38.3075 4.85718H13.6707C11.3922 4.85718 9.39844 7.00003 9.39844 9.57146V33.2857C9.39844 33.8572 9.54085 34.5715 9.68326 35C9.68326 35.1429 9.82567 35.2857 9.82567 35.4286C10.5377 37 11.9618 38 13.5283 38H38.1651C40.4436 38 42.2949 35.8572 42.2949 33.2857V9.57146C42.2949 8.57146 42.0101 7.57146 41.4405 6.71432C41.2981 6.28575 41.0133 6.00003 40.7284 5.71432C40.1588 5.14289 39.1619 4.85718 38.3075 4.85718Z" fill="white"/>
<path opacity="0.1" d="M40.1601 9.57153V33.2858C40.1601 34.5715 39.3056 35.5715 38.3087 35.5715H13.672C12.9599 35.5715 12.3903 35.143 12.1055 34.4287V34.2858C23.4982 27.7144 32.47 17.7144 39.3056 7.57153C39.448 7.71439 39.5904 7.85725 39.7328 8.0001C39.8752 8.42868 40.1601 8.85725 40.1601 9.57153Z" fill="black"/>
<path d="M23.6 29H28.4C32.4 29 34 27.4 34 23.4V18.6C34 14.6 32.4 13 28.4 13H23.6C19.6 13 18 14.6 18 18.6V23.4C18 27.4 19.6 29 23.6 29Z" stroke="#0C1949" stroke-width="1.5" stroke-linecap="round" stroke-linejoin="round"/>
<path d="M18 21.56L22.8 21.544C23.4 21.544 24.072 22 24.296 22.56L25.208 24.864C25.416 25.384 25.744 25.384 25.952 24.864L27.784 20.216C27.96 19.768 28.288 19.752 28.512 20.176L29.344 21.752C29.592 22.224 30.232 22.608 30.76 22.608H34.008" stroke="#0C1949" stroke-width="1.5" stroke-linecap="round" stroke-linejoin="round"/>
<path d="M54.8273 36.7143C53.6881 36.7143 52.6912 36 52.1216 34.8571C52.1216 34.8571 51.9792 34.7143 51.9792 34.5714C51.8367 34.2857 51.6943 33.7143 51.6943 33.2857V9.57143C51.6943 7.57143 52.976 6 54.6849 6H79.3217C80.0338 6 80.6034 6.28571 81.0306 6.71429C81.173 6.85714 81.4578 7.14286 81.6003 7.28571C82.0275 7.85714 82.3123 8.71429 82.3123 9.42857V33.1429C82.3123 35.1429 81.0306 36.7143 79.3217 36.7143H54.8273Z" fill="#FF7458"/>
<path d="M79.4639 7.14289C79.8911 7.14289 80.176 7.28575 80.4608 7.57146C80.6032 7.71432 80.7456 7.85718 80.888 8.00003C81.1728 8.42861 81.3152 9.00003 81.3152 9.57146V33.2857C81.3152 34.5715 80.4608 35.5715 79.4639 35.5715H54.8271C54.1151 35.5715 53.5455 35.1429 53.2606 34.4286V34.2857C53.1182 34 53.1182 33.7143 53.1182 33.2857V9.57146C53.1182 8.28575 53.9727 7.28575 54.9695 7.28575H79.4639M79.4639 4.85718H54.8271C52.5486 4.85718 50.6973 7.00003 50.6973 9.57146V33.2857C50.6973 33.8572 50.8397 34.5715 50.9821 35C50.9821 35.1429 51.1245 35.2857 51.1245 35.4286C51.8365 37 53.2606 38 54.8271 38H79.4639C81.7425 38 83.5938 35.8572 83.5938 33.2857V9.57146C83.5938 8.57146 83.309 7.57146 82.7393 6.71432C82.4545 6.42861 82.3121 6.14289 81.8849 5.85718C81.3152 5.14289 80.3184 4.85718 79.4639 4.85718Z" fill="white"/>
<path opacity="0.1" d="M81.3163 9.57153V33.2858C81.3163 34.5715 80.4619 35.5715 79.465 35.5715H54.8282C54.1162 35.5715 53.5465 35.143 53.2617 34.4287V34.2858C64.6544 27.7144 73.6262 17.7144 80.4619 7.57153C80.6043 7.71439 80.7467 7.85725 80.8891 8.0001C81.0315 8.42868 81.3163 8.85725 81.3163 9.57153Z" fill="black"/>
<path d="M62.9043 26.9202V25.2642" stroke="#0C1949" stroke-width="1.5" stroke-linecap="round"/>
<path d="M67 26.9199V23.6079" stroke="#0C1949" stroke-width="1.5" stroke-linecap="round"/>
<path d="M71.0957 26.9198V21.9438" stroke="#0C1949" stroke-width="1.5" stroke-linecap="round"/>
<path d="M71.0963 17.0801L70.7283 17.5121C68.6883 19.8961 65.9523 21.5841 62.9043 22.3441" stroke="#0C1949" stroke-width="1.5" stroke-linecap="round"/>
<path d="M68.752 17.0801H71.096V19.4161" stroke="#0C1949" stroke-width="1.5" stroke-linecap="round" stroke-linejoin="round"/>
<path d="M64.6 30H69.4C73.4 30 75 28.4 75 24.4V19.6C75 15.6 73.4 14 69.4 14H64.6C60.6 14 59 15.6 59 19.6V24.4C59 28.4 60.6 30 64.6 30Z" stroke="#0C1949" stroke-width="1.5" stroke-linecap="round" stroke-linejoin="round"/>
<g clip-path="url(#clip0_346_2086)">
<path d="M180.016 34.4814H167.907" stroke="#F7578C" stroke-width="3" stroke-miterlimit="10" stroke-linecap="round"/>
<path d="M153.685 9.89355V21.9016" stroke="#2BD9D9" stroke-width="3" stroke-miterlimit="10" stroke-linecap="round"/>
<path d="M176.171 12.562L163.198 25.809" stroke="#0095FF" stroke-width="3" stroke-miterlimit="10" stroke-linecap="round"/>
</g>
<defs>
<clipPath id="clip0_346_2086">
<rect width="30.175" height="28.4" fill="white" transform="matrix(-1 0 0 1 181.938 7.98755)"/>
</clipPath>
</defs>
</svg>
