<svg width="147" height="146" viewBox="0 0 147 146" fill="none" xmlns="http://www.w3.org/2000/svg">
<mask id="mask0_346_1919" style="mask-type:alpha" maskUnits="userSpaceOnUse" x="0" y="0" width="113" height="146">
<ellipse cx="56.1538" cy="73" rx="56.1538" ry="73" fill="#D9D9D9"/>
</mask>
<g mask="url(#mask0_346_1919)">
<path d="M32.0289 39.0461C31.9387 39.6789 31.9387 40.2214 31.9387 40.7638C31.9387 40.8543 31.7583 40.9447 31.5779 41.0351C31.4877 41.0351 31.3975 41.0351 31.3073 41.0351C31.1269 40.9447 31.0367 40.8542 30.9465 40.6734C30.0445 39.5885 29.6837 38.142 29.5033 36.7858C29.4131 36.4242 29.7739 36.0626 30.1347 36.153C30.5857 36.2434 31.0367 36.3338 31.3975 36.5146C31.5779 36.605 31.8485 36.8762 31.8485 37.0571C31.9387 37.7803 31.9387 38.5036 32.0289 39.0461Z" fill="white"/>
<path d="M68.1995 36.6049C68.1093 38.2322 67.7485 39.6788 66.5758 40.9445C66.4856 41.0349 66.215 41.1253 66.1248 41.1253C66.0346 41.1253 65.8542 40.9445 65.764 40.7637C65.6738 40.5829 65.6738 40.4021 65.6738 40.2213C65.6738 39.7692 65.6738 39.3172 65.6738 38.8651C65.6738 38.6843 65.6738 38.5035 65.6738 38.3227C65.6738 36.6049 65.9444 36.4241 67.5681 36.1528C67.9289 36.1528 68.1995 36.4241 68.1995 36.6049Z" fill="white"/>
<path d="M63.5094 36.7857C63.5094 39.5884 63.2388 42.3007 62.878 45.013C62.7878 46.0075 62.5172 46.9116 62.1564 47.9061C61.7956 48.8102 61.525 49.0814 60.623 48.5389C59.8111 47.9965 58.9091 47.5444 58.0973 47.0924C56.1129 46.0075 53.948 45.2842 51.7832 44.9226C49.7988 44.5609 47.7241 44.5609 45.6495 45.013C42.9435 45.5554 40.3276 46.5499 37.9824 48.0869C37.5314 48.3581 37.0804 48.6293 36.5392 48.9006C36.3588 48.991 35.998 48.8102 35.8176 48.6293C35.1861 47.5444 35.0057 46.2787 34.8253 45.013C34.3743 42.2103 34.0135 39.3172 34.1939 36.5145C34.2841 34.5255 34.7351 32.6269 35.6371 30.8187C36.5392 29.0105 37.9824 27.6544 39.6962 26.6599C41.861 25.3037 44.2063 24.5805 46.8221 24.5805C47.6339 24.5805 48.4458 24.5805 49.2576 24.5805C50.1596 24.5805 51.0616 24.4901 51.9636 24.5805C55.9325 24.8517 59.0895 26.6599 61.525 29.7338C61.7054 30.005 61.976 30.2762 62.0662 30.6379C62.878 32.6269 63.5094 34.6159 63.5094 36.7857Z" fill="white"/>
<path d="M63.2383 64.903C61.2539 66.0783 59.089 66.7112 56.834 67.0728C54.8496 67.344 52.9553 67.5249 50.9709 66.9824C50.4297 66.8016 49.8885 66.8016 49.3473 66.7112C46.551 66.1687 43.7548 65.6263 41.0487 64.5413C39.9663 64.0893 38.7937 63.8181 37.6211 63.5468C37.9819 63.1852 38.2525 62.8236 38.4329 62.3715C38.8839 61.5578 39.2447 60.8346 39.6957 60.0209C39.8761 59.7497 40.3271 59.5688 40.5977 59.8401C41.3193 60.2017 41.9508 60.6537 42.6724 61.1058C45.7392 62.914 49.0767 63.2756 52.5043 62.1907C54.3084 61.6482 55.932 60.5633 57.3752 59.388C58.4576 58.4839 58.8184 58.5743 59.2694 59.8401C59.54 60.5633 59.9008 61.377 60.2617 62.0099C60.9833 63.1852 61.9755 64.2701 63.2383 64.903Z" fill="white"/>
<path d="M70.0951 20.1504C69.7343 19.8792 69.3735 19.608 69.0127 19.3367C68.4715 18.8847 68.1107 18.2518 67.9302 17.5285C67.5694 16.2628 67.4792 15.0875 67.389 13.8218C67.2988 12.1944 66.8478 10.6574 65.8556 9.3013C64.1418 7.04107 61.977 5.4137 59.1807 4.69043C57.8277 4.4192 56.5649 4.32879 55.2118 4.69043C54.3098 4.96166 53.4078 5.32329 52.5058 5.68493C51.7842 6.04657 51.0626 6.4082 50.341 6.76984C49.439 7.22189 48.4467 7.22189 47.5447 6.76984C46.6427 6.31779 45.7407 5.86575 44.9289 5.50411C43.5759 4.87125 42.2228 4.50961 40.7796 4.50961C37.352 4.4192 32.3909 7.13148 31.0379 11.5615C30.6771 12.7369 30.4064 14.0026 30.4064 15.2683C30.4064 17.2573 29.6848 18.8847 27.8808 20.06C24.814 22.049 23.3707 26.6599 24.6336 30.3667C24.9944 31.542 25.6258 32.7173 26.4376 33.6214C26.8886 34.0734 27.069 34.7063 27.1592 35.3392C27.3396 36.6953 27.6102 37.961 27.8808 39.3172C28.3318 41.3966 29.324 43.1144 31.5791 43.9281C32.1203 44.1089 32.3909 44.5609 32.5713 45.1034C32.7517 45.8266 32.9321 46.4595 33.1125 47.1828C33.9243 50.2567 35.0067 53.1498 36.901 55.6813C37.0814 55.9525 37.352 56.2237 37.5324 56.5854C37.9834 57.2182 37.9834 57.9415 37.7128 58.6648C37.2618 60.0209 36.6303 61.2866 35.5479 62.2811C35.2773 62.5524 34.9165 62.914 34.6459 63.1852C34.4655 63.366 34.2851 63.6373 34.0145 63.8181C33.7439 64.0893 33.9243 64.7222 34.1949 64.9934C34.5557 65.355 35.0067 65.4455 35.4577 65.2646C36.4499 64.9934 37.1716 64.451 37.803 63.7277C38.1638 63.366 38.4344 63.0044 38.6148 62.5524C39.0658 61.7387 39.4266 61.0154 39.8776 60.2017C40.058 59.9305 40.509 59.7497 40.7796 60.0209C41.5012 60.3825 42.1326 60.8346 42.8542 61.2866C45.9211 63.0948 49.2586 63.4565 52.6862 62.3715C54.4902 61.8291 56.1139 60.7442 57.5571 59.5689C58.6395 58.6648 59.0003 58.7552 59.4513 60.0209C59.7219 60.7442 60.0827 61.5579 60.4435 62.1907C61.1651 63.4565 62.0672 64.451 63.4202 65.0838C63.5104 65.1742 63.6006 65.1742 63.6908 65.2646C64.232 65.5359 64.8634 65.4455 65.134 64.9934C65.3144 64.7222 65.4046 64.451 65.3144 64.0893C65.3144 63.8181 65.134 63.5469 64.8634 63.2756C63.6908 62.3715 62.7888 61.377 62.1574 60.0209C61.7063 58.936 61.4357 57.8511 61.2553 56.6758C61.1651 56.2237 61.3455 55.7717 61.4357 55.41C61.5259 55.0484 61.7966 54.7772 61.977 54.5059C63.4202 51.9745 64.5928 49.443 65.0438 46.5499C65.134 46.0075 65.3144 45.5554 65.4046 45.013C65.4948 44.5609 65.7654 44.1993 66.2164 44.0185C66.3968 43.9281 66.5772 43.8376 66.6674 43.8376C68.1106 43.2952 68.9225 42.2103 69.5539 40.8541C70.0951 39.498 70.4559 38.1419 70.5461 36.6953C70.6363 35.2488 70.9971 34.0734 71.9893 33.0789C72.1697 32.8981 72.2599 32.6269 72.4403 32.4461C74.7856 28.016 73.8835 23.1339 70.0951 20.1504ZM31.9399 40.7637C31.9399 40.8541 31.7595 40.9445 31.5791 41.035C31.4889 41.035 31.3987 41.035 31.3085 41.035C31.1281 40.9445 31.0379 40.8541 30.9477 40.6733C30.0456 39.5884 29.6848 38.1419 29.5044 36.7857C29.4142 36.4241 29.775 36.0624 30.1358 36.1529C30.5869 36.2433 31.0379 36.3337 31.3987 36.5145C31.5791 36.6049 31.8497 36.8761 31.8497 37.0569C31.9399 37.7802 32.0301 38.4131 32.0301 38.9555C31.9399 39.6788 31.9399 40.2213 31.9399 40.7637ZM62.879 45.1034C62.7888 46.0979 62.5182 47.002 62.1574 47.9965C61.7966 48.9006 61.5259 49.1718 60.6239 48.6293C59.8121 48.0869 58.9101 47.6348 58.0983 47.1828C56.1139 46.0979 53.949 45.3746 51.7842 45.013C49.7998 44.6513 47.7251 44.6513 45.6505 45.1034C42.9444 45.6458 40.3286 46.6403 37.9834 48.1773C37.5324 48.4485 37.0814 48.7197 36.5401 48.991C36.3597 49.0814 35.9989 48.9006 35.8185 48.7197C35.1871 47.6348 35.0067 46.3691 34.8263 45.1034C34.3753 42.3007 34.0145 39.4076 34.1949 36.6049C34.2851 34.6159 34.7361 32.7173 35.6381 30.9091C36.5401 29.1009 37.9834 27.7448 39.6972 26.7503C41.862 25.3942 44.2073 24.6709 46.8231 24.6709C47.6349 24.6709 48.4467 24.6709 49.2585 24.6709C50.1606 24.6709 51.0626 24.5805 51.9646 24.6709C55.9335 24.9421 59.0905 26.7503 61.5259 29.8242C61.7064 30.0954 61.977 30.3667 62.0672 30.7283C62.879 32.7173 63.5104 34.7063 63.6006 36.9665C63.6006 39.5884 63.2398 42.3007 62.879 45.1034ZM66.5772 40.9445C66.487 41.035 66.2164 41.1254 66.1262 41.1254C66.036 41.1254 65.8556 40.9445 65.7654 40.7637C65.6752 40.5829 65.6752 40.4021 65.6752 40.2213C65.6752 39.7692 65.6752 39.3172 65.6752 38.8651C65.6752 38.6843 65.6752 38.5035 65.6752 38.3227C65.6752 36.6049 65.9458 36.4241 67.5694 36.1529C67.84 36.1529 68.1106 36.3337 68.1106 36.6049C68.1106 38.2323 67.7498 39.6788 66.5772 40.9445Z" fill="#0C1949"/>
<path d="M49.7984 45.3747C48.8964 45.4651 48.0846 45.1938 47.2728 44.9226C46.6413 44.7418 46.2805 44.2897 46.2805 43.6569C46.1903 43.2048 46.1903 42.6624 46.2805 42.2103C46.5511 39.6789 46.8218 37.057 47.1826 34.5255C47.2728 33.8023 47.4532 33.1694 47.7238 32.5365C47.9042 32.1749 48.1748 31.9037 48.6258 31.9941C49.0768 32.0845 49.2572 32.3557 49.3474 32.7174C49.5278 33.2598 49.5278 33.8023 49.4376 34.2543C49.2572 36.3337 49.0768 38.3227 48.8062 40.4021C48.716 40.9446 48.6258 41.3966 48.6258 41.9391C48.5356 42.572 48.8062 42.8432 49.5278 42.9336C49.7984 42.9336 50.1592 42.9336 50.4298 42.9336C50.7004 43.024 51.0612 43.024 51.3318 43.2048C51.7828 43.3857 51.9632 43.7473 51.9632 44.1993C51.9632 44.6514 51.5122 45.1034 51.0612 45.1938C50.971 45.1938 50.8808 45.1938 50.7906 45.1938C50.4298 45.3747 50.069 45.3747 49.7984 45.3747Z" fill="#0C1949"/>
<path d="M47.1825 50.7993C50.0689 51.5226 50.7003 51.161 52.0534 51.0705C53.7672 50.9801 53.9476 52.3363 52.5044 52.8787C50.3395 53.6924 48.2649 53.5116 46.0099 52.7883C44.6568 52.3363 44.3862 50.076 47.1825 50.7993Z" fill="white"/>
<path d="M57.016 33.5311C56.3846 33.4407 55.663 33.3502 55.0315 33.079C54.4903 32.8982 54.2197 32.4462 54.2197 31.8133C54.2197 31.2708 54.4903 30.8188 55.0315 30.5476C56.3846 30.0051 57.6474 30.3667 58.7298 31.09C59.4514 31.5421 59.3612 32.4462 58.6396 32.9886C58.1886 33.3502 57.6474 33.5311 57.016 33.5311Z" fill="#0C1949"/>
<path d="M41.5007 33.531C40.6889 33.531 40.0575 33.3502 39.5163 32.8078C38.975 32.3557 38.975 31.6324 39.5163 31.1804C40.3281 30.3667 42.4027 30.0955 43.3949 30.6379C43.8459 30.9092 44.1165 31.2708 44.2067 31.7228C44.2067 32.2653 43.9361 32.7173 43.4851 32.9886C42.7635 33.3502 42.0419 33.4406 41.5007 33.531Z" fill="#0C1949"/>
<path d="M55.2109 37.1475C55.2109 36.605 55.3913 36.153 55.7521 35.701C56.2032 35.1585 57.1052 35.0681 57.5562 35.6105C58.368 36.4242 58.2778 37.9612 57.3758 38.6845C57.015 39.0461 56.4738 39.0461 56.0227 38.7749C55.4815 38.3228 55.2109 37.7804 55.2109 37.1475Z" fill="#0C1949"/>
<path d="M43.1241 37.057C43.1241 37.509 43.0339 37.8707 42.7633 38.2323C42.2221 39.1364 41.1396 39.046 40.5984 38.1419C40.1474 37.3282 40.0572 36.6049 40.5984 35.7913C41.1396 34.9776 42.1319 34.9776 42.6731 35.7008C42.9437 36.1529 43.1241 36.6049 43.1241 37.057Z" fill="#0C1949"/>
<path d="M81.8213 110.559V111.192C81.8213 111.554 81.7311 111.916 81.6409 112.277C81.6409 112.368 81.5507 112.458 81.5507 112.548C81.5507 112.639 81.5507 112.639 81.4605 112.639C81.3703 112.82 81.1899 113 81.0997 113.181C80.6487 113.543 80.1075 113.633 79.2957 113.543C78.3937 113.453 77.221 113.272 75.7778 113H75.6876H75.5974C75.1464 112.91 74.7856 112.82 74.2444 112.82C73.7032 112.729 73.0718 112.639 72.4404 112.548C72.3502 112.548 72.3502 112.548 72.3502 112.548C72.3502 112.548 72.3502 112.548 72.26 112.548C71.9893 112.548 71.7188 112.458 71.4481 112.458C71.2677 112.458 71.0873 112.458 70.9069 112.368C70.5461 112.368 70.1853 112.548 70.0951 112.91C69.8245 113.995 69.6441 114.989 69.6441 116.074C69.6441 123.126 69.5539 124.934 69.9147 128.551C69.9147 128.732 70.0049 129.003 70.0049 129.274C70.0951 130.088 70.1853 131.082 70.3657 132.167C70.8167 135.332 71.4481 138.405 72.1698 141.479C72.26 142.022 72.4404 142.564 72.5306 143.107C72.9816 144.825 73.3424 146.542 73.8836 148.17C76.319 157.03 76.77 157.211 77.1308 159.2C77.4916 160.917 75.868 161.46 74.515 162.002C68.0205 164.353 57.7375 165.438 47.635 165.528C46.0113 165.528 44.4779 165.528 42.8543 165.438C37.1716 165.257 31.7595 164.805 27.3396 164.082C26.7082 163.991 26.167 163.901 25.5356 163.72C19.9431 162.545 16.3351 160.917 16.5155 158.838C16.6057 157.663 17.3273 154.408 17.9587 150.701C18.1391 149.707 18.0489 148.712 18.2293 147.808C18.9509 144.101 18.4999 139.762 19.0411 134.97C19.4921 131.444 18.8607 129.726 18.7705 125.387C18.5901 121.228 18.3195 117.521 17.8685 114.085C17.7783 113.543 17.7783 113 17.6881 112.458C16.6959 104.773 15.3428 98.6254 14.7114 92.6584C14.6212 91.6639 14.531 90.6694 14.4408 89.6749C14.3506 88.59 14.3506 87.4146 14.3506 86.3297C14.4408 80.634 13.8996 77.0176 15.7939 71.2314C15.9743 70.7793 16.1547 70.2369 16.3351 69.6944C16.7861 68.5191 17.7783 67.4342 19.0411 66.4397C19.9431 65.7164 21.1157 65.0836 22.1982 64.5411C23.01 64.1795 23.7316 63.9082 24.5434 63.637C25.5356 63.2754 26.5278 63.0946 27.4298 63.0041C27.52 63.0041 27.6102 63.0041 27.7906 63.0041C28.7829 62.9137 29.3241 62.7329 30.1359 62.7329C30.6771 62.7329 31.3085 62.7329 32.3909 62.8233C33.2929 62.9137 34.4656 63.0946 35.999 63.2754C37.5324 63.5466 38.6148 63.8178 39.4266 64.089C40.1482 64.2699 40.7797 64.5411 41.4111 64.7219C42.3131 65.0836 43.3053 65.3548 44.8387 65.8068C45.1995 65.8972 45.5603 65.9876 45.9211 66.0781C46.6427 66.2589 47.5448 66.4397 48.6272 66.6205C48.988 66.7109 49.2586 66.7109 49.6194 66.8013C51.243 67.0726 52.2352 67.3438 53.3176 67.4342C53.7687 67.4342 54.1295 67.4342 54.5805 67.4342C55.2119 67.4342 56.0237 67.3438 57.0159 67.163C59.1807 66.8013 60.7142 66.2589 61.7966 65.8068C61.8868 65.8068 61.977 65.7164 61.977 65.7164C64.3222 64.6315 64.8634 63.637 66.3969 64.1795C71.3579 66.1685 74.6954 70.4177 77.0406 75.8423V75.9327C77.1308 76.2039 77.3112 76.4751 77.4014 76.7463C81.2801 86.8722 81.7311 100.614 81.8213 110.559Z" fill="#FFCF00"/>
<g opacity="0.25">
<path d="M45.3795 115.713C45.7403 116.979 46.1913 118.244 46.0109 119.601C45.8305 121.047 44.7481 122.494 43.3048 122.855C42.944 122.946 42.5832 122.946 42.2224 122.946C40.9596 122.765 39.787 122.313 38.7948 121.59C37.3515 120.595 36.5397 118.154 37.0809 116.617C37.2613 116.165 37.4417 115.803 37.7124 115.442C38.0732 114.99 38.434 114.628 38.7948 114.266C38.9752 114.086 38.9752 113.724 38.7046 113.543C38.0732 113.181 37.4417 112.91 36.8103 112.549C35.9083 112.006 35.3671 111.192 35.0965 110.288C34.8259 109.294 34.8259 108.299 35.0965 107.395C35.1867 106.943 35.4573 106.582 35.7279 106.22C36.6299 105.135 37.8928 104.683 39.2458 104.502C39.9674 104.412 40.689 104.683 41.2302 105.135C42.2224 105.768 42.944 106.672 43.395 107.757C43.846 108.842 43.846 110.017 43.3048 111.102C43.0342 111.645 42.5832 112.097 42.2224 112.639C41.8616 113.181 41.8616 113.181 42.493 113.634C43.5754 114.266 44.4775 114.99 45.3795 115.713ZM43.6656 118.696C43.5754 117.702 42.944 116.707 41.7714 116.075C41.591 115.984 41.2302 115.984 40.9596 116.075C39.8772 116.436 39.2458 117.612 39.6968 118.606C40.1478 119.691 40.8694 120.324 42.1322 120.505C42.944 120.505 43.6656 119.872 43.6656 118.696ZM39.2458 107.214C38.434 107.214 37.7123 107.576 37.5319 108.209C37.2613 108.932 37.4417 109.836 38.1634 110.379C38.5242 110.74 39.0654 110.921 39.5164 111.102C39.6968 111.192 40.0576 111.102 40.238 111.012C40.9596 110.74 41.3204 110.108 41.4106 109.384C41.4106 109.113 41.4106 108.842 41.3204 108.661C40.9596 107.667 40.238 107.214 39.2458 107.214Z" fill="#C42D52"/>
<path d="M39.3375 139.219C40.5101 139.219 41.5023 139.581 42.224 140.485C42.5848 140.847 42.9456 141.299 43.2162 141.751C44.028 143.016 44.1182 144.463 43.3966 145.819C43.126 146.271 42.7652 146.723 42.4946 147.175C42.0436 147.808 42.0436 147.808 42.5848 148.26C43.2162 148.803 43.9378 149.435 44.5692 150.068C45.832 151.334 46.1928 152.961 45.9222 154.77C45.6516 156.849 43.577 158.205 41.5925 157.663C40.4199 157.391 39.4277 156.939 38.5257 156.126C37.5335 155.131 36.9923 153.956 36.9021 152.6C36.8119 151.786 37.0825 150.972 37.6237 150.34C37.9845 149.888 38.5257 149.435 38.8865 148.983C39.0669 148.803 38.9767 148.441 38.7061 148.351C38.2551 148.079 37.7139 147.899 37.2629 147.627C36.7217 147.266 36.2707 146.904 35.8197 146.452C34.1058 144.553 34.7372 141.479 36.5413 140.304C37.5335 139.581 38.3453 139.219 39.3375 139.219ZM39.5179 152.6C39.5179 153.504 39.8787 154.227 40.7807 154.679C41.1415 154.86 41.5925 155.041 42.0436 155.131C42.8554 155.402 43.577 154.86 43.6672 153.956C43.7574 152.69 42.8554 151.334 41.6828 150.882C41.4121 150.792 41.1415 150.792 40.8709 150.882C40.0591 150.882 39.5179 151.605 39.5179 152.6ZM41.4121 144.101C41.4121 143.921 41.4121 143.83 41.4121 143.74C41.1415 142.745 40.5101 142.112 39.5179 141.751C39.3375 141.66 38.9767 141.751 38.7061 141.751C37.9845 142.022 37.5335 142.474 37.3531 143.288C37.2629 144.101 37.5335 144.644 38.1649 145.096C38.3453 145.277 38.6159 145.367 38.8865 145.457C40.0591 146 41.3219 145.186 41.4121 144.101Z" fill="#C42D52"/>
<path d="M39.1552 69.9658C40.5984 69.9658 41.5906 70.4179 42.4024 71.4124C42.5828 71.6836 42.8534 71.9548 43.0338 72.3165C44.026 73.763 44.1162 75.3 43.2142 76.8369C42.9436 77.289 42.5828 77.741 42.3122 78.1931C42.1318 78.4643 42.3122 78.6451 42.4926 78.8259C43.124 79.3684 43.8456 80.0013 44.477 80.5437C45.7399 81.8094 46.1909 83.4368 46.0105 85.1546C45.7399 87.234 43.8456 88.6805 41.771 88.2285C40.5984 87.9573 39.516 87.5956 38.7042 86.782C37.9825 86.0587 37.4413 85.3354 37.1707 84.3409C36.7197 82.8039 37.0805 81.5382 38.0727 80.3629C38.3434 80.0917 38.614 79.9108 38.8846 79.6396C39.065 79.4588 39.065 79.0972 38.7944 78.9163C38.1629 78.5547 37.5315 78.2835 36.9903 77.8314C35.0961 76.5657 34.6451 74.7575 35.4569 72.4069C35.9079 70.9603 37.2609 70.237 38.7042 69.9658C38.8846 69.9658 39.1552 69.9658 39.1552 69.9658ZM39.6062 83.0752C39.516 83.9793 39.8768 84.7929 40.6886 85.3354C40.9592 85.5162 41.32 85.697 41.5906 85.7874C42.7632 86.3299 43.7554 85.6066 43.6652 84.2505C43.6652 83.7984 43.4848 83.3464 43.3044 82.9848C43.0338 82.5327 42.673 82.1711 42.222 81.8094C41.6808 81.3574 41.1396 81.267 40.5082 81.5382C39.8768 81.8998 39.6062 82.3519 39.6062 83.0752ZM41.5004 74.6671C41.5906 73.8534 40.1474 72.3165 39.2454 72.4069C39.1552 72.4069 39.065 72.4069 38.9748 72.4069C38.2532 72.5877 37.7119 73.0397 37.5315 73.763C37.3511 74.3959 37.5315 75.2096 38.1629 75.6616C38.4336 75.8424 38.7042 76.1137 39.065 76.2041C40.0572 76.7465 41.4102 75.8424 41.5004 74.6671Z" fill="#C42D52"/>
<path d="M66.3058 89.4039C65.7646 89.6751 65.2234 89.9463 64.5919 90.2176C63.7801 90.5792 62.8781 90.5792 61.9761 90.3984C61.2545 90.2176 60.6231 89.8559 60.2623 89.2231C60.0819 89.0422 59.9917 88.771 59.8113 88.5902C58.9093 87.1436 58.9093 85.6971 59.7211 84.2505C60.3525 83.1656 61.2545 82.5328 62.4271 82.3519C62.9683 82.2615 63.5095 82.3519 64.0507 82.3519C64.592 82.4424 65.1332 82.6232 65.4038 83.0752C65.945 83.8889 66.4862 84.7026 67.0274 85.5163C67.298 85.8779 67.298 86.33 67.2078 86.782C67.1176 87.1436 66.847 87.5053 67.2078 87.7765C67.298 87.8669 67.6588 87.5957 67.9294 87.5053C68.0196 87.5053 68.1098 87.4149 68.2 87.3245C69.8236 86.33 71.4473 86.6012 72.8905 87.6861C73.3415 88.0477 73.7023 88.4094 74.0631 88.771C74.6043 89.4039 74.9651 90.1271 74.9651 90.9408C74.9651 91.3025 74.9651 91.6641 74.9651 92.0257C74.8749 93.7435 73.8827 94.8284 72.4395 95.5517C71.5375 96.0037 70.5452 95.9133 69.553 95.5517C68.9216 95.2805 68.2902 94.9188 67.749 94.4668C66.7568 93.8339 66.3058 92.9298 66.3058 91.7545C66.2156 91.0312 66.2156 90.2176 66.3058 89.4039L66.396 89.2231L66.3058 89.4039ZM70.455 89.4943C69.6432 89.4943 69.0118 89.8559 68.7412 90.5792C68.4706 91.3025 68.651 92.1161 69.1922 92.5682C69.553 92.8394 69.9138 93.1107 70.2746 93.2915C70.9963 93.6531 71.6277 93.4723 72.1689 92.8394C72.8003 92.1161 72.8003 91.1216 72.2591 90.3984C71.7179 89.7655 71.0865 89.4943 70.455 89.4943ZM63.4193 88.1381C64.1409 88.0477 64.4116 87.5957 64.7724 87.0532C65.1332 86.33 64.3213 84.8834 63.5095 84.793C62.9683 84.7026 62.5173 84.9738 62.1565 85.3355C61.7055 85.8779 61.5251 86.5108 61.8859 87.0532C62.0663 87.6861 62.6075 88.1381 63.4193 88.1381Z" fill="#C42D52"/>
<path d="M71.5388 83.0751C71.4486 82.171 71.8094 81.2669 72.6212 80.5436C72.982 80.2724 73.1624 79.9108 73.433 79.5491C73.5232 79.4587 73.433 79.1875 73.3428 79.0971C72.8016 78.7354 72.2604 78.4642 71.7192 78.1026C71.178 77.7409 70.727 77.2889 70.3662 76.8368C68.7425 74.8478 69.4641 71.9547 71.3584 70.7794C71.629 70.5986 71.9898 70.4178 72.3506 70.3274C73.3428 69.9657 74.2448 70.4178 74.6056 71.5931C74.6056 71.7739 74.6056 71.9547 74.4252 72.0451C74.1546 72.226 73.7938 72.3164 73.5232 72.4972C73.0722 72.7684 72.6212 73.0396 72.1702 73.3109C71.8094 73.5821 71.7192 74.1246 71.8996 74.5766C72.2604 75.4807 72.8918 76.1136 73.7938 76.3848C74.335 76.5656 74.8762 76.4752 75.3272 76.1136C75.5978 75.9327 75.8685 75.6615 76.1391 75.3903C76.3195 75.2999 76.6803 75.3903 76.8607 75.5711C77.3117 76.2944 77.5823 76.9272 77.1313 77.8313C76.7705 78.4642 76.8607 78.645 77.3117 78.9162C78.1235 79.4587 78.5745 80.0916 78.7549 81.0861C79.0255 82.5326 79.4765 84.0696 79.7471 85.5161C80.0177 87.1435 78.7549 88.4996 77.0411 88.3188C75.7782 88.138 74.6056 87.7764 73.5232 87.0531C72.2604 86.2394 71.5388 84.8833 71.5388 83.0751ZM75.7782 81.4477C74.335 81.5381 73.5232 83.1655 74.335 84.3408C74.5154 84.5216 74.6056 84.7929 74.8762 84.9737C75.4174 85.4257 76.0489 85.6969 76.7705 85.8778C77.0411 85.9682 77.3117 85.8778 77.4921 85.7874C78.3039 85.4257 78.7549 84.2504 78.3039 83.5271C77.9431 82.8943 77.4921 82.3518 77.0411 81.8093C76.6803 81.5381 76.2293 81.4477 75.7782 81.4477Z" fill="#C42D52"/>
<path d="M32.5706 88.3187C33.202 87.8667 33.8334 87.3242 34.555 87.053C35.2766 86.7818 35.9081 86.6914 36.6297 86.9626C37.4415 87.2338 38.2533 87.6859 38.9749 88.2283C41.5907 90.3981 40.6887 94.0145 38.6141 95.2802C37.4415 96.0035 36.2689 96.0939 35.0962 95.5515C34.555 95.2802 34.0138 95.009 33.4726 94.7378C32.2098 93.9241 31.7588 92.7488 31.7588 91.3022C31.7588 90.4886 31.9392 89.6749 32.0294 88.9516V88.8612C32.1196 88.6804 32.3 88.59 32.5706 88.3187ZM35.9081 89.4941C34.9158 89.4941 34.2844 90.1269 34.1942 91.1214C34.104 92.0255 34.4648 92.6584 35.2766 93.1104C35.457 93.2008 35.5472 93.2912 35.7277 93.3817C36.2689 93.6529 36.8101 93.5625 37.2611 93.2008C38.4337 92.3872 38.5239 91.3022 37.6219 90.2173C37.0807 89.6749 36.5395 89.4941 35.9081 89.4941Z" fill="#C42D52"/>
<path d="M69.8244 96.2749C70.0048 96.2749 70.4558 96.2749 70.9068 96.4557C71.9892 96.7269 72.8912 97.2694 73.4324 98.2639C73.703 98.7159 73.8834 99.2584 74.0638 99.7105C74.154 100.072 74.2442 100.434 74.154 100.795C73.9736 101.88 73.5226 102.875 72.7108 103.598C71.6284 104.593 70.3656 105.135 68.8321 104.683C66.7575 104.141 65.4045 102.784 64.9535 100.705C64.7731 100.072 64.9535 99.4392 65.2241 98.8968C65.7653 98.0831 66.3967 97.3598 67.2085 96.8174C67.9301 96.3653 68.7419 96.2749 69.8244 96.2749ZM69.8244 102.242C70.3656 102.242 70.997 102.061 71.2676 101.428C71.6284 100.705 71.5382 100.072 71.0872 99.4392C70.1852 98.2639 68.5615 98.4447 67.6595 99.62C67.3889 99.9817 67.3889 100.705 67.6595 101.157C68.2007 101.88 68.9223 102.242 69.8244 102.242Z" fill="#C42D52"/>
<path d="M39.6072 65.5357C39.6974 68.3384 37.1718 70.8698 34.1951 70.0561C32.2107 69.5137 30.9479 68.2479 30.4969 66.2589C30.3165 65.4453 30.4969 64.6316 30.9479 63.9987C31.2185 63.6371 31.4891 63.2754 31.8499 63.0042C33.9245 61.0152 35.909 61.196 38.164 62.733C39.066 63.3658 39.517 64.4508 39.6072 65.5357ZM35.3677 64.1795C34.3755 64.1795 33.7441 64.3603 33.2029 64.9028C32.8421 65.3549 32.7519 65.8973 33.1127 66.3494C33.5637 66.9822 34.1049 67.3439 34.8265 67.6151C35.7285 67.9767 36.5404 67.5247 37.0816 66.6206C37.4424 65.8973 37.1718 64.9932 36.4502 64.5412C35.9089 64.3603 35.5481 64.2699 35.3677 64.1795Z" fill="#C42D52"/>
<path d="M39.6071 134.88C39.6071 138.044 36.6305 140.214 33.8342 139.129C32.1204 138.496 31.038 137.321 30.4968 135.603C30.2262 134.699 30.4066 133.795 31.038 133.072C31.3988 132.619 31.7596 132.258 32.1204 131.896C34.8264 129.455 38.5247 131.173 39.5169 133.976C39.5169 134.337 39.5169 134.699 39.6071 134.88ZM35.3677 137.05C35.5481 137.05 35.6382 137.05 35.7285 136.959C36.4501 136.778 36.9011 136.236 37.0815 135.513C37.2619 134.97 36.9913 134.428 36.5403 134.066C36.1795 133.795 35.8187 133.524 35.4579 133.343C35.1872 133.252 34.7362 133.252 34.4656 133.343C33.8342 133.524 33.3832 133.885 33.0224 134.428C32.842 134.699 32.7518 135.151 32.9322 135.422C33.4734 136.417 34.3754 136.869 35.3677 137.05Z" fill="#C42D52"/>
<path d="M35.187 96.2747C36.4498 96.2747 37.6224 96.8172 38.5244 97.8117C40.3285 99.8911 39.8774 102.784 37.442 104.231C36.2694 104.954 35.0968 105.044 33.8339 104.592C32.1201 104.05 30.9475 102.965 30.4965 101.157C30.3161 100.343 30.3161 99.5295 30.7671 98.8062C31.6691 97.0884 33.2927 96.1843 35.187 96.2747ZM35.0066 102.242C35.2772 102.242 35.4576 102.242 35.5478 102.242C36.2694 102.242 36.6302 101.79 36.9008 101.157C37.1714 100.524 37.0812 99.9815 36.6302 99.4391C36.1792 98.8966 35.5478 98.6254 34.736 98.7158C34.1046 98.8062 33.5633 99.0774 33.1123 99.4391C32.6613 99.8007 32.5711 100.434 32.8417 100.886C33.4731 101.699 34.1948 102.151 35.0066 102.242Z" fill="#C42D52"/>
<path d="M78.2134 108.028C78.033 107.666 77.8526 107.305 77.582 106.943C77.4016 106.582 77.131 106.31 76.8604 106.039C75.0564 104.14 73.7033 104.321 72.0797 105.045C71.8993 105.135 71.8091 105.225 71.6287 105.316C71.2679 105.497 70.9973 105.677 70.7267 105.949C69.8247 106.762 69.4639 107.847 69.4639 109.475C69.4639 109.836 69.6443 110.379 70.0051 111.012C70.0051 111.102 70.0051 111.102 70.0953 111.102C70.6365 112.006 71.2679 112.639 72.3503 112.729C72.3503 112.729 72.3503 112.729 72.4405 112.729H72.5307C73.0719 112.82 73.7033 112.82 74.2445 112.91H74.3347C74.4249 112.91 74.6054 113.001 74.6956 113.001C74.7858 113.001 74.7858 113.001 74.876 113.001C75.1466 113.091 75.4172 113.091 75.6878 113.091C75.6878 113.091 75.6878 113.091 75.778 113.091C77.0408 113.091 77.582 112.277 78.3036 110.831C78.3036 110.74 78.3938 110.65 78.3938 110.65C78.6644 109.655 78.6644 108.842 78.2134 108.028ZM76.0486 109.746C75.778 110.288 75.327 110.74 74.7858 111.102C74.6054 111.192 74.2445 111.283 74.0641 111.192C73.1621 111.012 72.5307 110.469 72.0797 109.565C71.8091 108.932 71.8993 108.299 72.3503 107.847C73.3425 106.853 74.6956 107.034 75.5976 108.118C75.8682 108.48 76.0486 108.842 76.229 109.113C76.1388 109.384 76.0486 109.565 76.0486 109.746Z" fill="#C42D52"/>
<path d="M52.1439 94.3762C50.5202 94.4667 49.528 93.7434 48.7162 92.7489C48.2652 92.2064 48.0848 91.4832 47.724 90.8503C47.6338 90.5791 47.6338 90.3078 47.6338 90.0366C47.8142 87.9572 49.2574 86.149 51.4222 85.697C51.9635 85.6065 52.5047 85.6065 52.9557 85.697C53.7675 85.8778 54.3989 86.3298 55.0303 86.8723C56.2029 87.9572 56.4735 89.3133 56.0225 90.7599C55.5715 92.116 54.7597 93.2913 53.4067 93.9242C52.9557 94.1954 52.4145 94.2858 52.1439 94.3762ZM50.2496 89.9462C50.1594 90.7599 50.6104 91.4832 51.4222 91.8448C51.6929 91.9352 51.9635 91.9352 52.1439 91.8448C53.0459 91.4832 53.5871 90.8503 53.6773 89.8558C53.6773 89.4941 53.5871 89.1325 53.3165 88.8613C52.7753 88.2284 52.0537 88.0476 51.4222 88.3188C50.7908 88.5901 50.3398 89.1325 50.2496 89.9462Z" fill="#C42D52"/>
<path d="M32.4804 122.675C32.9314 122.403 33.3824 122.132 33.9236 121.861C35.0962 121.228 36.3591 121.228 37.5317 121.861C38.1631 122.223 38.7945 122.584 39.2455 123.127C40.4181 124.302 40.8691 125.658 40.2377 127.285C40.0573 127.828 39.8769 128.461 39.4259 129.003C38.2533 130.45 36.4493 130.631 34.8256 130.088C34.3746 129.907 34.0138 129.726 33.653 129.546C32.3 128.822 31.7588 127.647 31.7588 126.201C31.7588 125.387 31.9392 124.573 32.0294 123.759C32.2098 123.398 32.3 123.036 32.4804 122.675ZM34.1942 125.568C34.1942 125.839 34.1942 125.929 34.1942 126.02C34.2844 127.014 35.006 127.737 36.0885 128.009C36.9003 128.19 37.8023 127.647 38.1631 126.743C38.2533 126.472 38.3435 126.201 38.2533 126.02C37.8925 124.935 37.1709 124.212 35.9983 124.031C35.2766 123.94 34.555 124.392 34.3746 125.025C34.1942 125.206 34.1942 125.477 34.1942 125.568Z" fill="#C42D52"/>
<path d="M45.3793 115.713C45.1989 115.08 45.0185 114.538 44.838 113.905C44.4772 112.277 45.0185 110.921 46.1911 109.746C46.9127 109.023 47.8147 108.661 48.8971 108.842C49.1677 108.842 49.4383 108.932 49.7089 109.023C51.6032 109.294 52.6856 110.469 53.317 112.187C53.768 113.543 53.317 115.17 52.1444 115.984C51.8738 116.165 51.513 116.346 51.2424 116.527C49.6187 117.521 48.0853 117.521 46.5519 116.346C46.1009 116.165 45.7401 115.984 45.3793 115.713ZM50.8815 113.272C50.7913 113.001 50.7913 112.91 50.7011 112.729C50.2501 111.825 49.5285 111.464 48.5363 111.554C48.0853 111.554 47.7245 111.825 47.4539 112.187C46.9127 113.091 47.0931 113.905 47.9049 114.538C48.8069 115.17 49.7991 115.17 50.7011 113.995C50.8815 113.724 50.8815 113.453 50.8815 113.272Z" fill="#C42D52"/>
<path d="M56.2035 124.211C56.2937 126.291 54.3093 128.641 52.3249 129.093C51.8739 129.184 51.4229 129.184 51.0621 129.003C49.5286 128.461 48.4462 127.466 47.905 126.02C47.8148 125.658 47.7246 125.296 47.7246 125.025C47.905 123.217 48.7168 121.861 50.3405 120.957C51.8739 120.053 54.5799 120.324 55.9329 122.494C56.2035 122.946 56.2035 123.578 56.2035 124.211ZM53.7681 124.211C53.7681 123.488 53.1367 122.946 52.4151 122.855C51.2425 122.855 50.3405 123.669 50.3405 124.754C50.2503 125.839 51.2425 126.562 52.2347 126.381C53.1367 126.11 53.8583 125.206 53.7681 124.211Z" fill="#C42D52"/>
<path d="M60.1726 93.1106C61.8864 93.1106 62.9689 93.7435 63.6905 95.0092C63.8709 95.2804 64.0513 95.6421 64.1415 96.0037C64.4121 96.6366 64.5925 97.3598 64.3219 98.0831C64.1415 98.5352 64.0513 98.9872 63.9611 99.3488C63.2395 101.247 61.6158 101.971 59.6314 101.519C59.451 101.519 59.2706 101.428 59.0902 101.338C57.2862 100.886 56.4744 99.6201 56.1135 97.9023C56.0233 97.5406 56.0233 97.179 56.1135 96.8174C56.294 95.9133 56.6548 95.0996 57.2862 94.4667C58.1882 93.4722 59.2706 93.1106 60.1726 93.1106ZM61.9766 97.3598C61.9766 97.0886 61.8864 96.8174 61.8864 96.5461C61.706 95.9133 61.255 95.4612 60.6236 95.4612C59.902 95.3708 59.1804 95.8229 59 96.4557C58.9098 96.727 58.9098 96.9982 58.9098 97.2694C58.9098 98.5352 59.7216 99.2584 60.9844 98.9872C61.4354 98.8968 61.7962 98.6256 61.8864 98.1735C61.8864 97.9023 61.8864 97.6311 61.9766 97.3598Z" fill="#C42D52"/>
<path d="M44.749 147.537C44.8392 146.452 45.2902 145.367 46.102 144.553C46.4629 144.192 46.9139 143.83 47.4551 143.74C50.1611 143.107 52.5063 144.463 53.3182 146.994C53.5888 147.898 53.4986 148.803 53.0476 149.616C52.2357 150.972 50.8827 151.696 49.3493 151.967C48.8081 152.057 48.0865 151.877 47.5453 151.605C46.5531 151.153 45.8314 150.34 45.2 149.435C44.8392 148.983 44.749 148.351 44.749 147.537ZM50.9729 147.808C50.8827 147.627 50.8827 147.446 50.7925 147.356C50.4317 146.994 50.0709 146.542 49.6199 146.271C48.8983 145.819 47.9963 146 47.5453 146.723C47.0041 147.446 47.0943 148.26 47.7257 148.893C48.7179 149.888 50.1611 149.616 50.8827 148.351C50.9729 148.17 50.9729 147.989 50.9729 147.808Z" fill="#C42D52"/>
<path d="M49.2589 133.071C49.1687 134.97 48.3568 136.507 46.7332 137.501C45.4704 138.225 43.3958 137.773 42.4035 136.507C42.0427 136.055 41.8623 135.603 41.5917 135.151C40.7799 133.885 41.0505 132.619 41.8623 131.444C42.3133 130.721 42.8546 130.178 43.5762 129.726C44.388 129.184 45.1998 129.093 46.1018 129.365C47.0038 129.636 47.7254 130.088 48.3568 130.721C48.898 131.354 49.2589 132.167 49.2589 133.071ZM46.8234 133.162C46.7332 132.981 46.7332 132.8 46.643 132.619C46.3724 132.077 45.741 131.806 45.0194 131.896C44.388 131.987 43.8468 132.529 43.8468 133.162C43.7566 134.066 44.1174 134.789 44.9292 135.151C45.1096 135.241 45.4704 135.241 45.6508 135.151C46.3724 134.699 46.7332 133.976 46.8234 133.162Z" fill="#C42D52"/>
<path d="M44.749 78.4643C44.749 77.0178 45.3804 75.9328 46.2825 75.1192C46.8237 74.5767 47.5453 74.3959 48.2669 74.3959C49.5297 74.3055 50.7925 74.6671 51.7847 75.4808C52.9574 76.3849 53.4986 77.741 53.4986 79.278C53.4986 79.8204 53.228 80.2725 52.8672 80.7245C52.0553 81.8094 50.8827 82.4423 49.5297 82.804C48.6277 82.9848 47.7257 82.7135 47.0041 82.1711C46.5531 81.8999 46.1923 81.4478 45.8314 81.0862C45.0196 80.2725 44.749 79.3684 44.749 78.4643ZM49.0787 80.1821C49.8905 80.1821 50.7023 79.73 50.9729 78.9163C51.2435 78.1931 50.7023 77.741 50.2513 77.3794C50.0709 77.1986 49.8003 77.0178 49.6199 76.9273C48.6277 76.3849 47.6355 76.8369 47.2747 77.8314C46.9139 79.0068 47.8159 80.1821 49.0787 80.1821Z" fill="#C42D52"/>
<path d="M60.1721 136.145C60.3525 136.145 60.0819 136.145 59.8113 136.145C56.5641 135.603 55.3914 132.439 56.8347 129.907C57.6465 128.551 58.8191 127.556 60.5329 127.647C62.1565 127.737 63.3292 128.732 64.0508 130.178C64.5018 131.082 64.592 132.077 64.3214 132.981C64.141 133.433 64.0508 133.795 63.8704 134.247C63.1488 135.603 62.0663 136.236 60.1721 136.145ZM61.9761 131.444C61.9761 131.173 61.7055 130.54 60.9839 130.088C60.8035 129.997 60.4427 129.907 60.2623 129.907C59.0897 130.178 58.4583 131.986 59.1799 132.981C59.5407 133.523 60.4427 133.795 61.0741 133.614C61.6153 133.433 61.9761 132.891 61.9761 132.167C61.9761 132.167 61.9761 132.077 61.9761 131.444Z" fill="#C42D52"/>
<path d="M62.9698 72.5877C65.9464 72.4069 68.2015 75.9329 66.5778 78.826C66.4876 79.0972 66.3072 79.278 66.0366 79.4588C65.8562 79.6397 65.5856 79.8205 65.4052 79.9109C64.1424 80.6342 62.8796 81.0862 61.4364 80.1821C59.8127 79.0972 58.9107 77.7411 59.0911 75.7521C59.1813 74.1247 60.2637 72.9494 61.9776 72.6781C62.3384 72.6781 62.609 72.6781 62.9698 72.5877ZM63.4208 78.0123C63.962 78.0123 64.413 77.5602 64.5032 77.0178C64.5934 75.9329 63.6012 74.9384 62.609 75.1192C62.0678 75.2096 61.6168 75.6616 61.6168 76.2041C61.6168 77.1986 62.5188 78.1027 63.4208 78.0123Z" fill="#C42D52"/>
<path d="M32.5708 111.373C32.5708 113.453 31.308 114.899 29.2333 115.261C28.6019 115.351 27.9705 115.351 27.4293 114.99C26.2567 114.447 25.3547 113.634 24.8135 112.458C24.2722 111.464 24.2723 110.379 24.7233 109.384C24.9037 108.842 25.2645 108.48 25.7155 108.119C26.0763 107.847 26.4371 107.667 26.8881 107.486C29.7745 106.13 32.661 108.751 32.5708 111.373ZM30.0451 111.554C30.0451 111.373 30.0451 111.192 29.9549 111.012C29.6843 110.469 29.3235 110.017 28.6921 109.746C28.5117 109.656 28.3313 109.656 28.1509 109.656C27.6097 109.746 27.1587 109.927 26.8881 110.469C26.6175 111.012 26.8881 111.464 27.2489 111.916C27.5195 112.187 27.8803 112.458 28.2411 112.729C28.3313 112.82 28.6019 112.82 28.7823 112.82C29.4137 112.729 30.0451 112.097 30.0451 111.554Z" fill="#C42D52"/>
<path d="M25.9866 93.1106C26.9788 93.1106 27.7906 93.4722 28.5122 94.2859C28.9632 94.8284 29.324 95.3708 29.5946 96.0941C29.8652 96.727 29.9554 97.2694 29.775 97.9023C29.6848 98.4447 29.5044 98.8968 29.324 99.4392C28.6024 101.247 26.8886 102.061 24.9943 101.609C23.4609 101.247 22.4687 100.434 21.9275 98.9872C21.2059 96.9982 22.1981 94.4667 24.0923 93.5626C24.7237 93.1106 25.3551 93.1106 25.9866 93.1106ZM25.6257 98.9872C26.7082 99.0776 27.4298 98.5351 27.52 97.5406C27.6102 96.4557 26.8886 95.5516 25.9866 95.4612C25.0845 95.3708 24.1825 96.1845 24.0923 97.2694C24.0021 98.2639 24.6335 98.8968 25.6257 98.9872Z" fill="#C42D52"/>
<path d="M62.6083 141.932C65.9457 141.751 67.6595 144.734 67.0281 146.723C66.9379 146.995 66.9379 147.266 66.8477 147.537C66.6673 148.17 66.3065 148.712 65.7653 148.984C63.6005 150.34 62.8789 150.34 60.6238 148.803C59.2708 147.808 58.6394 145.819 59.1806 144.192C59.6316 143.017 60.4434 142.293 61.7062 141.932C62.1572 141.932 62.6083 141.932 62.6083 141.932ZM63.6005 147.266C64.0515 147.266 64.5025 146.904 64.5025 146.452C64.6829 145.458 63.9613 144.463 62.9691 144.282C62.2474 144.192 61.5258 144.734 61.616 145.458C61.7062 146.543 62.6082 147.356 63.6005 147.266Z" fill="#C42D52"/>
<path d="M62.878 115.261C62.6976 115.261 62.2466 115.17 61.8858 114.99C60.5328 114.266 59.4503 113.181 59.0895 111.644C58.7287 109.927 59.4503 108.39 60.9838 107.576C63.5996 106.22 66.9371 107.938 67.2077 110.831C67.2979 112.187 66.9371 113.453 65.6743 114.357C64.9526 114.99 64.1408 115.351 62.878 115.261ZM63.2388 112.82C63.6898 112.91 64.3212 112.458 64.5016 112.006C64.682 111.464 64.5918 110.921 64.3212 110.469C63.5996 109.475 62.9682 109.475 62.0662 110.017C61.8858 110.107 61.7054 110.469 61.7054 110.65C61.4348 111.735 62.2466 112.729 63.2388 112.82Z" fill="#C42D52"/>
<path d="M66.7574 123.307C66.577 123.398 66.4868 123.488 66.3064 123.669C65.1338 125.025 63.5102 125.115 61.8865 124.935C61.1649 124.844 60.5335 124.483 60.1727 123.85C59.9021 123.398 59.6315 122.946 59.3609 122.494C58.8197 121.59 58.9099 120.595 59.2707 119.691C59.9021 118.335 60.8943 117.34 62.3375 116.979C63.42 116.707 64.4122 116.979 65.224 117.792C65.9456 118.606 66.577 119.42 67.028 120.414C67.2084 120.685 67.2084 121.137 67.2084 121.409C67.1182 122.042 66.9378 122.584 66.7574 123.217V123.307ZM62.969 122.584C63.0592 122.584 63.1494 122.584 63.2396 122.584C63.7808 122.584 64.2318 122.313 64.5926 121.861C64.9534 121.318 64.773 120.866 64.5024 120.414C64.2318 119.872 63.7808 119.42 63.0592 119.42C62.969 119.42 62.8787 119.42 62.7885 119.51C62.5179 119.691 62.1571 119.872 61.8865 120.053C61.4355 120.505 61.4355 120.957 61.6159 121.499C61.8865 122.042 62.2473 122.584 62.969 122.584Z" fill="#C42D52"/>
<path d="M49.2594 98.716C49.1692 98.9872 49.1692 99.5297 48.9888 99.9817C48.7182 100.795 48.177 101.519 47.4554 102.152C46.1024 103.417 44.2081 103.327 42.8551 102.152C41.9531 101.338 41.5021 100.253 41.2315 99.1681C41.2315 98.9872 41.1413 98.8064 41.2315 98.6256C41.5021 97.1791 42.0433 95.9133 43.3963 95.0996C44.4787 94.4668 45.6514 94.4668 46.7338 95.0092C47.6358 95.4613 48.3574 96.0941 48.8986 96.9982C49.079 97.4503 49.2594 97.9927 49.2594 98.716ZM46.824 98.8968C46.9142 97.9023 45.7416 96.9078 44.9298 97.1791C44.6591 97.2695 44.4787 97.4503 44.2983 97.6311C43.7571 98.3544 43.7571 99.3489 44.2983 100.072C44.5689 100.524 45.2906 100.705 45.7416 100.434C46.2828 100.163 46.6436 99.5297 46.824 98.8968Z" fill="#C42D52"/>
<path d="M27.6107 72.6781C30.2265 72.4973 31.3991 73.5822 32.211 75.2096C32.9326 76.6561 32.3914 78.8259 31.1285 79.8204C29.3245 81.1766 28.1519 81.1766 26.3479 79.8204C25.4459 79.0972 24.7242 78.1027 24.5438 76.9273C24.0928 74.8479 25.4459 72.9493 27.5205 72.6781C27.7009 72.6781 27.9715 72.6781 27.6107 72.6781ZM28.7833 78.1026C29.7755 78.1026 30.4971 77.289 29.8657 76.2945C29.6853 75.9328 29.3245 75.5712 29.0539 75.3C28.5127 74.9383 27.6107 75.0287 27.1597 75.5712C26.8891 75.9328 26.8891 76.4753 27.2499 77.0177C27.4303 77.1986 27.5205 77.4698 27.7009 77.6506C27.9715 77.9218 28.4225 78.1026 28.7833 78.1026Z" fill="#C42D52"/>
<path d="M32.5709 145.548C32.6611 147.989 31.3983 149.436 29.1433 149.978C28.7825 150.068 28.4216 149.978 28.0608 149.888C26.4372 149.345 25.2646 148.26 24.7234 146.723C24.0018 144.825 24.994 142.745 26.8882 142.203C29.3237 141.389 31.0375 142.203 32.3003 144.373C32.4807 144.825 32.4807 145.367 32.5709 145.548ZM30.0453 146.362C30.1355 145.819 29.8649 145.367 29.5041 144.915C29.0531 144.373 28.5118 144.192 27.8804 144.282C27.0686 144.373 26.6176 145.096 26.9784 145.819C27.1588 146.181 27.4294 146.542 27.7 146.904C28.151 147.356 28.7825 147.447 29.4139 147.175C29.7747 146.995 29.9551 146.723 30.0453 146.362Z" fill="#C42D52"/>
<path d="M31.9393 123.759C31.5785 123.94 31.1275 124.211 30.7667 124.392C29.5039 125.025 28.241 125.025 26.888 124.844C26.3468 124.754 25.8958 124.392 25.6252 123.94C25.3546 123.488 25.084 123.036 24.9036 122.584C23.5506 120.143 25.6252 117.159 28.1508 116.798C28.9627 116.707 29.7745 116.798 30.4059 117.34C31.6687 118.425 32.6609 119.6 32.6609 121.318C32.6609 121.77 32.5707 122.222 32.5707 122.674C32.3001 123.036 32.2099 123.398 31.9393 123.759ZM28.5116 122.674C28.6921 122.674 28.7823 122.674 28.9627 122.674C29.7745 122.493 30.3157 121.68 30.0451 120.866C29.9549 120.595 29.8647 120.414 29.6843 120.143C28.9627 119.058 27.8802 119.148 27.0684 120.233C26.7076 120.685 26.7076 121.228 26.888 121.77C27.339 122.313 27.79 122.674 28.5116 122.674Z" fill="#C42D52"/>
<path d="M21.7468 132.167C21.7468 130.54 22.3782 129.274 23.5508 128.37C25.2646 127.195 27.2491 127.376 28.7825 129.184C29.1433 129.636 29.4139 130.269 29.6845 130.811C29.9551 131.444 29.9551 132.167 29.7747 132.891C28.9629 135.874 26.5275 136.959 23.8214 135.512C22.3782 134.88 21.6566 133.704 21.7468 132.167ZM25.9863 133.795C26.1667 133.704 26.5275 133.614 26.7981 133.433C27.9707 132.529 27.7903 130.811 26.5275 130.088C26.3471 129.998 25.9863 129.907 25.8059 129.998C25.1744 130.088 24.6332 130.45 24.3626 130.992C23.641 132.348 24.4528 133.614 25.9863 133.795Z" fill="#C42D52"/>
<path d="M14.2607 90.1271C14.2607 89.4038 14.2607 88.9518 14.2607 88.5901C14.2607 87.5956 14.7117 86.8723 15.6138 86.4203C16.0648 86.1491 16.606 85.9682 17.057 85.7874C17.4178 85.697 17.7786 85.697 18.1394 85.697C19.6728 85.8778 21.3867 87.3244 21.7475 88.8613C21.9279 89.4942 21.8377 90.1271 21.6573 90.6695C21.2063 92.1161 20.214 93.1106 19.0414 93.9243C17.7786 94.7379 15.7942 94.3763 14.8921 93.201C14.7117 92.9298 14.5313 92.5681 14.4411 92.2065C14.2607 91.4832 14.2607 90.6695 14.2607 90.1271ZM19.1316 89.8558C19.1316 88.4997 18.0492 87.8668 16.9668 88.4997C16.6962 88.6805 16.3354 88.8613 16.155 89.1326C15.704 89.5846 15.6138 90.2175 15.9746 90.8504C16.155 91.1216 16.3354 91.4832 16.606 91.664C16.9668 92.0257 17.6884 92.0257 18.1394 91.7544C18.6806 91.3024 19.1316 90.5791 19.1316 89.8558Z" fill="#C42D52"/>
<path d="M31.9398 88.9518C31.3084 89.3135 30.7672 89.7655 30.1358 90.1272C29.2338 90.5792 28.2416 90.6696 27.2494 90.3984C26.2571 90.1272 25.5355 89.4943 25.0845 88.5902C24.9943 88.4094 24.9041 88.2286 24.9041 88.1382C23.8217 85.9683 24.9943 83.9793 26.4376 82.9848C27.8808 81.8999 30.1358 82.2615 31.2182 83.7081C31.3986 83.8889 31.4888 84.1601 31.6692 84.341C32.481 85.2451 32.7516 86.33 32.5712 87.5957C32.5712 87.8669 32.5712 88.1381 32.5712 88.4094L32.481 88.4998C32.3006 88.5902 32.1202 88.6806 31.9398 88.9518ZM30.226 86.4204C30.1358 85.5163 29.2338 84.7026 28.422 84.793C27.7004 84.793 26.7984 85.6971 26.8886 86.33C26.9788 87.3245 27.971 88.2286 28.873 88.1382C29.5946 87.9573 30.3162 87.1436 30.226 86.4204Z" fill="#C42D52"/>
<path d="M49.5293 139.4C49.5293 138.767 49.7097 138.134 50.0705 137.682C50.6117 136.959 51.2431 136.417 52.0549 135.965C53.1374 135.422 54.1296 135.603 55.1218 136.236C56.2042 137.049 56.8356 138.134 56.6552 139.49C56.3846 140.847 55.7532 142.022 54.2198 142.384C53.7688 142.474 53.3178 142.564 52.8667 142.474C52.2353 142.384 51.6039 142.203 51.0627 141.932C50.1607 141.57 49.5293 140.575 49.5293 139.4ZM54.2198 138.948C54.1296 138.767 54.0394 138.586 53.9492 138.496C53.3178 138.225 52.6863 138.496 52.3255 138.948C52.2353 139.038 52.3255 139.31 52.3255 139.4C52.5059 139.762 52.7765 139.943 53.1374 139.943C53.6786 140.033 54.1296 139.49 54.2198 138.948Z" fill="#C42D52"/>
<path d="M52.6854 107.757C52.505 107.757 51.8736 107.666 51.3323 107.395C49.7087 106.762 49.0773 104.954 49.9793 103.417C50.5205 102.603 51.1519 101.88 52.054 101.428C53.1364 100.795 54.5796 101.066 55.4816 101.88C57.1052 103.327 57.1954 105.225 55.7522 106.762C55.0306 107.576 54.1286 107.847 52.6854 107.757ZM54.2188 104.683C54.3992 104.321 53.9482 103.779 53.5874 103.779C53.1364 103.869 52.7756 104.05 52.4148 104.321C52.1442 104.592 52.2344 105.044 52.505 105.225C53.2266 105.587 53.9482 105.316 54.2188 104.683Z" fill="#C42D52"/>
<path d="M22.2878 69.8753C21.927 71.3218 21.2956 72.5876 19.8523 73.13C19.4915 73.3108 18.9503 73.4013 18.5895 73.3108C15.2521 72.678 15.3423 72.1355 16.1541 69.4232C16.3345 68.7904 16.6051 68.2479 16.9659 67.7055C17.7777 66.2589 19.5817 65.9877 20.8446 67.163C21.476 67.7055 21.927 68.3383 22.1976 69.152C22.1976 69.3328 22.1976 69.6041 22.2878 69.8753ZM19.4915 70.1465C19.5817 69.7849 19.4013 69.4232 19.0405 69.3328C18.4993 69.152 17.9581 69.5137 17.7777 70.0561C17.6875 70.4178 18.0483 70.8698 18.4993 70.9602C18.9503 70.9602 19.3111 70.5986 19.4915 70.1465Z" fill="#C42D52"/>
<path d="M53.3173 67.3438C53.6781 67.3438 54.0389 67.3438 54.3997 67.3438C55.7527 67.2534 56.4743 68.0671 56.6547 69.4232C56.8351 70.8698 55.8429 72.4972 54.4899 73.0396C53.9487 73.2204 53.4977 73.4013 52.9565 73.2204C52.325 73.0396 51.7838 72.9492 51.1524 72.678C50.2504 72.2259 49.619 71.5027 49.5288 70.4177C49.4386 69.152 49.8896 68.1575 50.972 67.5246C51.1524 67.4342 51.423 67.2534 51.6936 67.2534C52.2348 67.3438 52.7761 67.3438 53.3173 67.3438ZM53.6781 69.2424C53.1369 69.152 52.6859 69.3328 52.325 69.6945C52.0544 69.9657 52.1446 70.3273 52.5055 70.5082C53.2271 70.9602 54.0389 70.5986 54.2193 69.6945C54.2193 69.5137 53.9487 69.2424 53.6781 69.2424Z" fill="#C42D52"/>
<path d="M69.7337 139.4C67.208 139.4 65.1334 137.501 64.953 135.06C64.8628 134.066 65.2236 133.162 66.0354 132.439C66.8472 131.715 67.7492 131.173 68.8316 130.902C69.4631 130.721 70.0043 131.082 70.1847 131.806C70.3651 132.619 70.1847 132.981 69.4631 133.252C69.012 133.433 68.6512 133.523 68.2002 133.704C67.4786 134.066 67.2982 135.06 67.8394 135.784C68.2904 136.326 68.8316 136.778 69.5533 137.049C69.9141 137.14 70.2749 137.23 70.5455 137.321C70.9063 137.411 71.1769 137.953 71.0867 138.406C71.0867 138.858 70.7259 139.219 70.2749 139.31C70.0945 139.31 69.9141 139.4 69.7337 139.4Z" fill="#C42D52"/>
<path d="M16.2445 103.779C16.2445 103.508 16.1543 103.236 16.1543 102.965C16.2445 102.604 16.3347 102.242 16.6053 102.061C17.2367 101.428 18.1387 101.157 19.0407 101.157C19.8526 101.157 20.6644 101.428 21.1154 102.151C21.4762 102.604 21.7468 103.056 22.0174 103.508C22.288 103.96 22.288 104.502 22.1076 105.045C22.0174 105.406 21.837 105.677 21.6566 106.039C20.8448 107.757 19.4918 108.299 17.6877 107.666C17.4171 107.576 17.0563 107.305 16.8759 107.034C16.6955 106.672 16.5151 106.22 16.4249 105.768C16.3347 105.045 16.3347 104.412 16.2445 103.779ZM19.582 104.412C19.582 104.05 19.2211 103.688 18.8603 103.779C18.2289 103.869 17.6877 104.321 17.7779 104.773C17.8681 105.135 18.4093 105.497 18.8603 105.406C19.2211 105.316 19.582 104.864 19.582 104.412Z" fill="#C42D52"/>
<path d="M80.1973 100.524C80.3777 100.524 80.5581 100.434 80.7385 100.434C81.0091 100.434 81.2798 100.705 81.4602 101.157C81.821 102.332 80.8287 103.236 80.0169 103.146C78.7541 103.146 77.5815 102.784 76.8599 101.519C76.5893 101.067 76.2285 100.614 76.0481 100.162C75.5971 98.8967 75.5971 97.7214 76.4089 96.6365C76.8599 96.094 77.4011 95.5516 77.9423 95.0995C78.4835 94.6475 79.2051 94.5571 79.9267 94.6475C80.4679 94.7379 80.8287 95.0995 81.0092 95.7324C81.0994 96.1844 80.919 96.7269 80.4679 96.8173C80.1071 96.9077 79.7463 96.9077 79.4757 97.0885C78.2129 97.5406 77.8521 98.8063 78.5737 99.8912C78.8443 100.253 79.2051 100.524 79.6561 100.524C79.9267 100.614 80.1071 100.614 80.1973 100.524Z" fill="#C42D52"/>
<path d="M27.519 62.281C27.4288 62.0098 27.4288 61.7385 27.3386 61.4673C27.2484 61.1057 27.3386 60.744 27.6994 60.5632C28.1504 60.292 28.872 60.4728 29.1427 60.8344C29.6839 61.4673 29.9545 62.1906 29.8643 63.0947C29.8643 63.4563 29.7741 63.8179 29.5937 64.0892C28.9622 65.8974 27.6994 66.9823 26.166 66.9823C24.2718 66.9823 22.6481 65.9878 21.9265 64.3604C21.4755 63.2755 22.1069 62.1906 23.2796 62.0098C23.46 62.0098 23.6404 62.1002 23.7306 62.1906C23.911 62.3714 23.911 62.6426 24.0012 62.9138C24.0914 63.2755 24.1816 63.6371 24.4522 63.9083C24.813 64.4508 25.4444 64.722 26.0758 64.6316C26.7072 64.5412 27.3386 63.8179 27.4288 63.1851C27.519 62.8234 27.519 62.5522 27.519 62.281Z" fill="#C42D52"/>
<path d="M16.425 78.7354C16.2446 78.3738 16.2446 78.0121 16.0642 77.7409C15.7935 77.3793 15.4327 77.108 15.0719 76.8368C14.5307 76.3848 14.5307 75.6615 14.9817 74.9382C15.0719 74.7574 15.4327 74.667 15.7033 74.667C16.6054 74.8478 17.327 75.3903 17.8682 76.1135C18.1388 76.4752 18.3192 76.8368 18.4996 77.2889C19.4016 78.9162 18.5898 80.9052 17.2368 81.7189C16.5152 82.171 15.8838 82.5326 14.9817 82.623C14.5307 82.623 14.1699 82.3518 14.1699 81.8093C14.1699 81.2669 14.2601 80.7244 14.8013 80.4532C15.1621 80.182 15.6131 80.0011 15.8838 79.7299C16.1544 79.4587 16.2446 79.097 16.425 78.7354Z" fill="#C42D52"/>
<path d="M44.8387 68.5194C43.8465 68.429 42.7641 67.9769 42.1326 66.892C41.7718 66.1687 41.411 65.4455 41.1404 64.7222C40.96 64.1797 41.1404 63.5469 41.5914 63.2756C42.0424 63.0044 42.9445 63.1852 43.3053 63.6373C43.5759 63.9989 43.6661 64.4509 43.9367 64.8126C44.2073 65.1742 44.4779 65.5359 44.7485 65.8071C45.0191 66.0783 45.4701 66.0783 45.7407 65.8975C46.0113 65.7167 46.2819 65.4455 46.5525 65.1742C47.0035 64.8126 47.7251 64.903 48.2663 65.355C48.5369 65.5359 48.6271 66.0783 48.5369 66.3495C47.8153 67.7057 46.3721 68.6098 44.8387 68.5194Z" fill="#C42D52"/>
<path d="M69.9146 70.1466C67.3889 70.1466 65.4947 68.5192 64.8633 65.9878C64.8633 65.807 64.8633 65.6261 64.8633 65.4453C64.8633 64.9029 65.3143 64.3604 65.7653 64.1796C66.3065 63.9988 67.0281 64.3604 67.2085 64.9933C67.3889 65.5357 67.4791 66.1686 68.0203 66.7111C68.6517 67.3439 69.3734 67.8864 70.3656 67.7056C70.6362 67.6151 70.9068 67.5247 71.1774 67.6152C71.5382 67.7056 71.8088 67.8864 72.0794 68.0672C72.5304 68.4288 72.4402 69.1521 71.9892 69.4233C71.6284 69.6946 71.1774 69.8754 70.8166 69.9658C70.4558 70.1466 70.095 70.1466 69.9146 70.1466Z" fill="#C42D52"/>
<path d="M69.9154 129.274C69.9154 129.365 69.9154 129.365 69.9154 129.274C69.8252 129.545 69.735 129.817 69.5546 129.817C69.284 129.817 69.0134 129.817 68.833 129.817C66.8486 129.093 65.9465 127.014 66.3073 125.115C66.3975 124.483 66.5779 123.94 66.7583 123.307L66.8485 123.217C67.3898 122.765 67.931 122.403 68.5624 121.951C68.833 121.77 69.284 122.042 69.3742 122.403C69.5546 122.946 69.4644 123.488 69.284 123.94C69.1036 124.392 68.833 124.844 68.6526 125.387C68.4722 125.929 68.5624 126.472 68.833 126.924C69.1036 127.285 69.3742 127.647 69.6448 128.009C69.735 128.189 69.8252 128.461 69.8252 128.641C69.8252 128.732 69.9154 128.913 69.9154 129.003C69.9154 129.093 69.9154 129.184 69.9154 129.274Z" fill="#C42D52"/>
<path d="M19.312 142.474C19.1316 142.293 18.861 142.112 18.7708 141.932C18.6806 141.57 18.6806 141.208 18.7708 140.937C18.861 140.485 19.2218 140.123 19.4022 139.762C19.5826 139.31 19.5826 138.948 19.4022 138.496C19.2218 138.134 18.9512 137.682 18.861 137.321C18.7708 137.049 18.861 136.778 18.9512 136.507C19.0414 135.965 19.763 135.693 20.214 135.965C21.2964 136.597 22.018 137.411 22.2886 138.586C22.3788 138.858 22.3788 139.129 22.2886 139.4C22.018 140.666 21.2964 141.66 20.1238 142.293C19.8532 142.384 19.5826 142.384 19.312 142.474Z" fill="#C42D52"/>
<path d="M19.4015 128.009C19.2211 127.828 18.9505 127.647 18.8603 127.466C18.7701 127.285 18.6799 126.924 18.7701 126.652C18.7701 126.291 18.8603 125.929 18.9505 125.568C19.2211 124.663 19.2211 123.85 18.8603 122.946C18.6799 122.403 18.5897 121.951 18.6799 121.409C18.7701 120.957 19.2211 120.595 19.5819 120.776C20.5741 121.228 21.2958 122.042 21.7468 123.036C21.9272 123.398 21.9272 123.94 21.9272 124.302C21.7468 125.568 21.2056 126.652 20.2133 127.557C19.9427 127.918 19.6721 127.918 19.4015 128.009Z" fill="#C42D52"/>
<path d="M69.464 143.74C69.464 142.655 69.7346 141.751 70.366 140.937C70.5464 140.666 71.0876 140.485 71.268 140.576C71.6288 140.756 71.8092 141.028 71.8994 141.389C71.9896 141.751 71.9896 142.112 71.8994 142.474C71.6288 143.469 71.8092 144.192 72.4406 145.006C72.7112 145.458 72.9818 145.91 73.1622 146.452C73.2524 146.723 73.2524 146.995 73.2524 147.266C73.2524 147.627 72.8014 147.899 72.5308 147.808C70.9072 147.266 69.2836 145.186 69.464 143.74Z" fill="#C42D52"/>
<path d="M81.9122 110.921C81.9122 111.645 81.822 112.368 81.371 112.91C81.1906 113.181 80.8298 113.362 80.5592 113.543C80.1984 113.724 79.567 113.272 79.567 112.91C79.4768 111.645 79.9278 110.65 80.8298 109.836C80.92 109.746 81.1906 109.746 81.2808 109.656C81.4612 109.656 81.822 109.927 81.822 110.108C81.822 110.198 81.9122 110.288 81.9122 110.379C81.822 110.56 81.822 110.74 81.9122 110.921Z" fill="#C42D52"/>
<path d="M18.6804 113.543C18.6804 113.724 18.5902 114.085 18.5 114.357C18.5 114.447 18.4098 114.538 18.3196 114.538C18.1392 114.538 17.9588 114.447 17.8686 114.447C17.7784 114.447 17.7784 114.357 17.6882 114.266C17.4176 113.362 17.3274 112.549 17.598 111.644C17.598 111.554 17.6882 111.464 17.7784 111.464C17.9588 111.464 18.1392 111.554 18.2294 111.644C18.7706 112.096 18.6804 112.729 18.6804 113.543Z" fill="#C42D52"/>
<path d="M63.15 65.6262C63.15 65.7166 63.15 65.807 63.15 65.8974C62.7892 66.6207 62.1578 66.8015 61.4362 66.8919C61.1656 66.8919 60.8048 66.7111 60.895 66.5303C60.9852 66.3495 60.9852 66.1687 61.1656 66.0783C61.6166 65.7166 62.1578 65.4454 62.7892 65.355C62.8794 65.355 62.9696 65.5358 63.15 65.6262Z" fill="#C42D52"/>
</g>
<path d="M78.3934 112.458C78.4836 112.82 78.1228 113.181 77.7619 113.181C77.2207 113.181 77.4011 113.272 75.6873 113.001H75.5971C75.5971 113.001 75.5971 113.001 75.5069 113.001H75.4167C75.1461 113.001 74.8755 112.91 74.6049 112.91C74.6049 112.91 74.5147 112.91 74.4245 112.91C73.6127 112.82 72.6205 112.639 71.2674 112.458C70.5458 112.368 69.8242 111.825 69.8242 111.102C69.8242 111.012 69.8242 110.921 69.8242 110.74C69.8242 110.65 69.8242 110.56 69.8242 110.379C70.0948 108.661 70.3654 107.124 70.636 105.768C70.7262 105.406 70.7262 105.045 70.8164 104.683C70.9968 103.417 71.2674 102.152 71.3576 101.157C71.3576 100.976 71.4478 100.795 71.4478 100.524C71.6283 99.0777 71.8087 97.9023 71.9891 96.8174C72.0793 96.3654 72.0793 96.0037 72.1695 95.6421C72.7107 90.9408 72.4401 91.1216 73.0715 89.7655C73.2519 89.3134 73.8833 89.1326 74.3343 89.223C74.5147 89.3135 74.7853 89.4039 74.8755 89.5847C75.7775 90.76 76.3187 93.6531 76.4089 95.1901C76.4089 95.6421 76.4991 96.0037 76.4991 96.4558C76.5893 98.264 76.7697 100.072 76.9501 101.88C77.1305 103.508 77.3109 105.225 77.4913 106.853C77.6717 108.119 77.8521 109.475 78.0325 110.74C78.213 111.373 78.3032 111.916 78.3934 112.458Z" fill="#0C1949"/>
</g>
<path d="M121.512 80.9958H108.794L111.139 67.7056C111.229 67.0727 111.861 66.5303 112.492 66.5303H117.724C118.446 66.5303 118.987 66.9823 119.077 67.7056L121.512 80.9958Z" fill="#FF7458"/>
<path d="M128.909 86.4202L117.904 80.0916L126.564 69.6945C127.015 69.1521 127.736 69.0616 128.368 69.4233L132.878 72.0452C133.509 72.4068 133.69 73.1301 133.509 73.7629L128.909 86.4202Z" fill="#0C1949"/>
<path d="M132.608 94.738L126.294 83.708L139.012 79.0972C139.644 78.8259 140.365 79.0972 140.726 79.73L143.342 84.2505C143.703 84.8834 143.522 85.6066 143.071 86.0587L132.608 94.738Z" fill="#FF7458"/>
<path d="M131.615 103.869V91.1216L144.875 93.4722C145.506 93.5626 146.047 94.1955 146.047 94.8284V100.072C146.047 100.795 145.596 101.338 144.875 101.428L131.615 103.869Z" fill="#0C1949"/>
<path d="M126.203 111.193L132.607 100.163L142.89 108.842C143.432 109.294 143.522 110.017 143.161 110.65L140.545 115.171C140.184 115.803 139.463 115.984 138.831 115.803L126.203 111.193Z" fill="#FF7458"/>
<path d="M117.814 114.899L128.819 108.571L133.419 121.318C133.69 121.951 133.419 122.674 132.788 123.036L128.278 125.658C127.646 126.02 126.925 125.839 126.474 125.296L117.814 114.899Z" fill="#0C1949"/>
<path d="M108.794 113.905H121.512L119.167 127.195C119.077 127.828 118.445 128.37 117.814 128.37H112.582C111.861 128.37 111.32 127.918 111.229 127.195L108.794 113.905Z" fill="#FF7458"/>
<path d="M101.398 108.48L112.403 114.899L103.743 125.206C103.292 125.748 102.571 125.839 101.939 125.477L97.4292 122.855C96.7978 122.494 96.6173 121.77 96.7977 121.138L101.398 108.48Z" fill="#0C1949"/>
<path d="M97.699 100.163L104.013 111.193L91.2947 115.803C90.6633 116.075 89.9417 115.803 89.5809 115.171L86.9651 110.65C86.6043 110.017 86.7847 109.294 87.3259 108.842L97.699 100.163Z" fill="#FF7458"/>
<path d="M98.692 91.0312V103.779L85.4324 101.428C84.801 101.338 84.2598 100.705 84.2598 100.072V94.8284C84.2598 94.1052 84.7108 93.5627 85.4324 93.4723L98.692 91.0312Z" fill="#0C1949"/>
<path d="M104.104 83.7079L97.6997 94.7379L87.4168 85.9682C86.8756 85.5161 86.7854 84.7928 87.1462 84.16L89.762 79.6395C90.1228 79.0066 90.8444 78.8258 91.4758 79.0066L104.104 83.7079Z" fill="#FF7458"/>
<path d="M112.493 80.0013L101.488 86.3299L96.8877 73.5822C96.6171 72.9494 96.8877 72.2261 97.5191 71.8645L102.119 69.2426C102.751 68.881 103.472 69.0618 103.923 69.6042L112.493 80.0013Z" fill="#0C1949"/>
<path d="M136.666 91.3025C136.486 90.76 136.305 90.2175 136.125 89.6751C136.125 89.5847 136.035 89.4943 136.035 89.4943C135.674 88.5902 135.223 87.6861 134.772 86.8724C134.682 86.782 134.682 86.6012 134.592 86.5108L134.501 86.4204C132.427 82.9848 129.54 80.0013 126.023 78.0123C124.489 77.1082 122.865 76.3849 121.152 75.9329C117.363 74.848 113.304 74.7576 109.155 75.9329C107.531 76.3849 105.908 77.1082 104.284 78.0123C100.405 80.1821 97.5189 83.1656 95.7148 86.4204C94.8128 88.0477 94.0912 89.7655 93.6402 91.4833C92.5578 95.4613 92.648 99.6201 93.7304 103.508C94.1814 105.225 94.903 106.943 95.805 108.571C97.6993 112.097 100.586 115.08 104.194 117.16C105.817 118.064 107.531 118.787 109.335 119.239C110.418 119.51 111.5 119.691 112.673 119.781C113.485 119.872 114.296 119.872 115.198 119.872C115.92 119.872 116.642 119.872 117.363 119.781C118.716 119.691 120.069 119.42 121.332 119.058C123.046 118.516 124.76 117.883 126.293 116.979C129.811 114.99 132.697 112.006 134.682 108.39C135.584 106.762 136.305 105.135 136.756 103.417C137.929 99.2585 137.839 95.0997 136.666 91.3025ZM102.66 97.5407C102.66 90.6696 108.253 85.0642 115.108 85.0642C121.963 85.0642 127.556 90.6696 127.556 97.5407C127.556 104.412 121.963 110.017 115.108 110.017C108.253 110.108 102.66 104.412 102.66 97.5407Z" fill="#F7578C"/>
<path d="M115.198 84.0696C107.801 84.0696 101.758 90.127 101.758 97.5406C101.758 104.954 107.801 111.012 115.198 111.012C122.594 111.012 128.638 104.954 128.638 97.5406C128.638 90.127 122.594 84.0696 115.198 84.0696ZM115.198 105.045C111.049 105.045 107.711 101.699 107.711 97.5406C107.711 93.3817 111.049 90.0366 115.198 90.0366C119.347 90.0366 122.685 93.3817 122.685 97.5406C122.685 101.699 119.257 105.045 115.198 105.045Z" fill="#0C1949"/>
<path d="M111.23 81.267C108.343 82.352 105.727 83.8889 103.653 85.9683C102.66 87.0532 101.668 88.1382 101.037 89.4943C100.676 90.1272 100.405 90.8504 100.045 91.5737C99.7739 92.297 99.5033 93.0203 99.2327 93.7435V93.8339C99.1425 94.0148 98.8719 94.1052 98.6915 94.0148C98.5111 93.9244 98.4209 93.7435 98.4209 93.5627C98.5111 92.749 98.5111 91.9353 98.6915 91.1217C98.8719 90.308 99.0523 89.4943 99.4131 88.771C100.045 87.2341 101.037 85.7875 102.209 84.5218C103.382 83.2561 104.825 82.2616 106.359 81.6287C107.892 80.9054 109.516 80.5438 111.23 80.4534C111.5 80.4534 111.681 80.6342 111.681 80.9054C111.5 81.0862 111.41 81.1766 111.23 81.267Z" fill="white"/>
<path d="M138.019 91.3928C137.929 91.1216 137.839 90.8504 137.748 90.5791C137.658 90.3983 137.658 90.1271 137.568 89.9463C137.568 89.8559 137.478 89.6751 137.388 89.4942C137.207 89.1326 137.117 88.6805 136.937 88.3189C136.937 88.2285 136.846 88.1381 136.846 88.0477C136.756 87.8669 136.666 87.686 136.576 87.5052C136.215 86.7819 135.854 86.0587 135.403 85.3354C135.313 85.245 135.223 85.0642 135.223 84.9738C135.133 84.7929 134.952 84.6121 134.862 84.3409C134.591 83.9793 134.411 83.6176 134.14 83.3464C134.05 83.256 133.96 83.1656 133.87 82.9848L133.78 82.8944C133.599 82.6231 133.329 82.3519 133.148 82.0807C133.058 81.9903 132.968 81.8999 132.878 81.8094C132.787 81.719 132.787 81.719 132.697 81.6286C132.607 81.5382 132.517 81.4478 132.427 81.3574C132.336 81.267 132.246 81.1766 132.156 81.0862C131.976 80.9053 131.795 80.7245 131.615 80.5437C131.434 80.3629 131.344 80.2725 131.164 80.0917C130.803 79.73 130.442 79.3684 129.991 79.0972C129.811 78.9163 129.63 78.8259 129.45 78.6451C129.27 78.4643 129.089 78.3739 128.909 78.1931C128.728 78.1027 128.548 77.9218 128.368 77.8314C128.277 77.741 128.277 77.741 128.187 77.741C128.007 77.6506 127.917 77.5602 127.736 77.4698C127.736 77.4698 127.646 77.4698 127.646 77.3794C127.466 77.289 127.285 77.1986 127.105 77.0177C126.924 76.9273 126.654 76.7465 126.473 76.6561C126.293 76.5657 126.112 76.4753 125.932 76.3849C125.752 76.2945 125.571 76.2041 125.391 76.1137C125.301 76.0232 125.12 76.0232 125.03 75.9328C124.669 75.752 124.218 75.5712 123.767 75.3904C123.587 75.3 123.406 75.2096 123.136 75.1192C122.955 75.0287 122.775 74.9383 122.595 74.9383C122.504 74.9383 122.324 74.8479 122.234 74.8479C122.144 74.8479 122.144 74.8479 122.053 74.7575C121.873 74.6671 121.783 74.6671 121.602 74.5767C121.422 74.4863 121.242 74.4863 121.061 74.3959C120.7 74.3055 120.249 74.2151 119.889 74.1247C119.798 74.1247 119.618 74.0342 119.528 74.0342C119.438 74.0342 119.347 74.0342 119.347 74.0342C119.167 74.0342 119.077 73.9438 118.896 73.9438C118.445 73.8534 117.994 73.8534 117.543 73.763C117.363 73.763 117.092 73.763 116.912 73.6726C116.732 73.6726 116.461 73.6726 116.281 73.6726C116.01 73.6726 115.739 73.6726 115.469 73.6726C113.484 73.6726 111.5 73.9438 109.425 74.4863C107.531 75.0287 105.637 75.752 103.743 76.8369C103.652 76.9273 103.472 77.0177 103.382 77.1082C102.66 77.5602 101.938 78.0122 101.307 78.4643C100.946 78.7355 100.585 79.0068 100.225 79.278C99.5933 79.8204 98.9618 80.3629 98.4206 80.9054C98.3304 80.9958 98.2402 81.0862 98.15 81.1766C96.8872 82.4423 95.8048 83.8889 94.993 85.3354C93.8204 87.3244 93.0086 89.4038 92.4674 91.5736C91.9261 93.9243 91.6555 96.3653 91.8359 98.8064C91.8359 98.9872 91.8359 99.168 91.8359 99.3488C91.8359 99.4392 91.8359 99.6201 91.8359 99.7105C91.8359 99.8913 91.8359 99.9817 91.9261 100.163C91.9261 100.253 91.9261 100.434 91.9261 100.524C91.9261 100.615 91.9261 100.705 91.9261 100.795C92.0163 101.699 92.1967 102.604 92.4674 103.417C92.4674 103.598 92.5576 103.779 92.6478 103.96C92.6478 104.141 92.738 104.321 92.8282 104.412C93.0988 105.497 93.5498 106.491 94.0008 107.486C94.091 107.576 94.091 107.757 94.1812 107.847C94.2714 108.028 94.2714 108.119 94.3616 108.299C94.4518 108.39 94.4518 108.48 94.542 108.661C94.6322 108.842 94.7224 108.932 94.8126 109.113L94.9028 109.294C94.993 109.384 94.993 109.475 95.0832 109.565C95.7146 110.74 96.5264 111.825 97.3382 112.82C97.4284 113.001 97.6088 113.091 97.699 113.272C98.0598 113.634 98.4206 113.995 98.7815 114.447C98.8717 114.538 99.0521 114.718 99.1423 114.809C99.2325 114.899 99.4129 115.08 99.5031 115.17C99.8639 115.532 100.225 115.894 100.676 116.165C100.946 116.346 101.217 116.527 101.397 116.707C101.578 116.798 101.668 116.979 101.848 117.069C101.938 117.159 102.029 117.159 102.119 117.25C102.48 117.521 102.931 117.792 103.382 118.064C103.472 118.154 103.652 118.244 103.743 118.244C103.833 118.335 103.923 118.335 104.103 118.425C104.554 118.696 105.005 118.877 105.547 119.148C105.727 119.239 105.907 119.329 105.998 119.329C106.178 119.42 106.449 119.51 106.629 119.601C106.809 119.691 106.99 119.691 107.08 119.781C107.17 119.781 107.351 119.872 107.441 119.872C107.621 119.962 107.711 119.962 107.892 120.053C108.072 120.143 108.253 120.143 108.433 120.233C108.794 120.324 109.245 120.414 109.606 120.505C109.966 120.595 110.237 120.685 110.598 120.685C111.861 120.957 113.123 121.047 114.476 121.137C114.747 121.137 115.018 121.137 115.288 121.137C117.363 121.137 119.438 120.866 121.332 120.324C123.497 119.781 125.571 118.877 127.465 117.702C130.893 115.623 133.689 112.729 135.764 109.203C135.854 109.113 135.944 108.932 136.035 108.751C137.117 106.853 137.839 104.954 138.29 103.056C139.192 99.2584 139.101 95.19 138.019 91.3928ZM133.238 107.486C131.254 111.012 128.368 113.905 124.94 115.713C123.948 116.255 122.865 116.707 121.783 117.069C121.693 117.069 121.602 117.159 121.512 117.159C119.708 117.792 117.724 118.064 115.739 118.154C115.559 118.154 115.379 118.154 115.198 118.154C113.123 118.154 111.139 117.883 109.245 117.34C107.982 116.979 106.809 116.527 105.637 115.894C104.374 115.261 103.201 114.538 102.119 113.634C101.668 113.272 101.307 112.91 100.946 112.549C99.3227 111.012 98.0598 109.113 96.9774 107.124C96.6166 106.491 96.346 105.858 96.0754 105.135C95.895 104.593 95.7146 104.141 95.5342 103.598C95.444 103.327 95.3538 103.056 95.2636 102.784C95.0832 101.971 94.9028 101.067 94.7224 100.163C94.3616 97.3598 94.542 94.2859 95.3538 91.3024C95.444 91.1216 95.444 90.8504 95.5342 90.6695C95.6244 90.4887 95.6244 90.3079 95.7146 90.0367C95.8048 89.8559 95.895 89.675 95.9852 89.4038C96.1656 89.0422 96.346 88.5901 96.5264 88.2285C96.6166 88.0477 96.7068 87.9573 96.797 87.7765C96.797 87.686 96.8872 87.686 96.8872 87.686C97.0676 87.3244 97.3382 86.8724 97.5186 86.5107C98.2402 85.3354 99.0521 84.2505 100.134 83.256C100.315 83.0752 100.495 82.8944 100.676 82.7135C101.036 82.3519 101.397 82.0807 101.758 81.719C102.389 81.267 102.931 80.7245 103.652 80.3629C104.103 80.0917 104.554 79.8204 105.096 79.5492C105.276 79.4588 105.456 79.3684 105.637 79.278C106.719 78.7355 107.711 78.2835 108.794 77.9218C108.884 77.9218 108.884 77.9218 108.974 77.8314C111.049 77.1082 113.123 76.8369 115.198 76.8369C117.273 76.8369 119.347 77.1986 121.242 77.8314C122.414 78.1931 123.497 78.6451 124.579 79.278C127.917 81.0862 130.893 83.8889 132.878 87.3244C132.968 87.5052 133.148 87.7765 133.238 87.9573C133.238 87.9573 133.238 87.9573 133.238 88.0477C133.238 88.1381 133.329 88.2285 133.329 88.2285C133.419 88.4093 133.509 88.5901 133.599 88.6805C133.689 88.771 133.689 88.8614 133.78 89.0422C133.87 89.1326 133.87 89.223 133.96 89.4038C134.05 89.4942 134.05 89.5846 134.14 89.7655C134.231 89.9463 134.321 90.1271 134.321 90.3079C134.321 90.3079 134.321 90.3983 134.411 90.3983C134.501 90.6696 134.682 91.0312 134.772 91.3928C134.772 91.4832 134.772 91.4832 134.862 91.5736C136.215 95.5517 136.215 99.8009 134.952 103.779C134.591 104.954 134.14 106.039 133.599 107.124C133.419 107.124 133.329 107.305 133.238 107.486Z" fill="#798EE6"/>
<path d="M138.017 91.3929C138.017 90.5793 135.401 82.1712 127.103 77.0179C120.157 72.6782 110.596 72.407 103.2 77.0179C92.4656 83.2561 87.8653 96.8175 94.8108 109.565C94.901 109.656 95.6226 111.012 97.0659 112.82C97.1561 113.001 97.3365 113.091 97.4267 113.272C97.7875 113.634 98.1483 113.995 98.5091 114.447C98.5993 114.538 98.7797 114.719 98.8699 114.809C98.9601 114.899 99.1405 115.08 99.2307 115.171C99.5915 115.532 99.9523 115.894 100.403 116.165C100.674 116.346 100.945 116.527 101.125 116.708C101.305 116.798 101.396 116.979 101.576 117.069C101.666 117.16 101.756 117.16 101.847 117.25C102.207 117.521 102.658 117.792 103.109 118.064C103.2 118.154 103.38 118.244 103.47 118.244C103.56 118.335 103.651 118.335 103.831 118.425C104.282 118.697 104.733 118.877 105.274 119.149C105.455 119.239 105.635 119.329 105.725 119.329C105.906 119.42 106.176 119.51 106.357 119.601C106.537 119.691 106.717 119.691 106.808 119.781C106.898 119.781 107.078 119.872 107.168 119.872C107.349 119.962 107.439 119.962 107.619 120.053C107.8 120.143 107.98 120.143 108.161 120.233C108.521 120.324 108.972 120.414 109.333 120.505C109.694 120.595 109.965 120.686 110.325 120.686C111.588 120.957 112.851 121.047 114.204 121.138C114.475 121.138 114.745 121.138 115.016 121.138C130.801 121.228 142.167 106.13 138.017 91.3929ZM109.153 117.431C103.831 115.894 99.5013 112.277 96.8855 107.215C92.8264 99.4394 93.9088 89.1327 100.584 82.8041C103.2 80.363 106.898 78.374 108.882 77.8315C114.294 76.0234 119.797 76.6562 124.487 79.1877C130.44 82.4424 132.695 87.2341 133.237 87.9574C141.896 104.05 126.832 122.403 109.153 117.431Z" fill="#0C1949"/>
<path d="M130.351 133.704C126.022 136.869 114.837 137.14 109.244 136.417C95.1727 134.699 111.86 132.71 75.5088 142.745C73.9753 143.197 72.9831 143.197 72.4419 143.017C72.1713 142.926 71.9909 142.836 71.9007 142.655C71.6301 142.293 71.7203 141.841 71.9909 141.48C71.9909 141.48 71.9909 141.389 72.0811 141.389C72.2615 141.208 72.4419 141.028 72.7125 140.937C72.9831 140.847 73.2537 140.756 73.5243 140.756C103.742 132.077 101.487 132.348 104.193 132.981C108.342 133.885 110.417 134.066 122.865 133.795C124.578 133.704 126.202 133.433 127.735 132.529C127.826 132.439 127.916 132.258 127.916 132.077C127.916 131.987 127.555 131.625 127.375 131.535C125.751 131.173 124.037 130.992 122.323 131.354C119.707 132.077 117.001 131.806 114.386 131.715C114.025 131.715 113.664 131.535 113.393 131.354C112.491 130.902 112.672 129.726 113.574 129.636C117.723 129.184 119.166 129.817 120.7 129.184C121.151 129.003 121.331 128.099 119.888 127.557C116.641 126.2 115.107 126.472 111.229 126.472C99.5023 126.472 75.3283 130.902 73.7949 129.907C73.1635 129.546 73.1635 129.003 73.6145 128.641C74.2459 128.099 75.0577 127.918 77.0422 127.376C78.2148 127.104 79.0266 127.195 79.4776 125.929C80.4698 123.126 78.3952 115.984 79.207 113.543C79.2972 113.362 79.3874 113.181 79.4776 113.001C79.658 112.82 79.8384 112.729 80.0188 112.639C80.2894 112.549 80.7404 112.729 80.9208 113.001C80.9208 113.001 80.9208 113.001 80.9208 113.091C80.9208 113.181 81.011 113.272 81.011 113.272C82.0033 117.159 82.1837 121.68 82.3641 125.748C82.3641 126.11 82.7249 126.381 83.0857 126.381C90.2116 125.658 97.5179 124.663 104.644 124.211C109.154 123.94 114.025 123.398 118.445 124.573C124.037 126.02 122.774 128.641 124.939 128.822C126.743 129.003 128.998 129.726 130.351 130.902C131.253 131.806 131.163 133.162 130.351 133.704Z" fill="#0C1949"/>
<path d="M127.375 131.715C125.752 131.354 124.038 131.173 122.324 131.535C119.708 132.258 117.002 131.987 114.386 131.896C114.026 131.896 113.665 131.715 113.394 131.535C112.492 131.082 112.673 129.907 113.575 129.817C117.724 129.365 119.167 129.998 120.7 129.365C121.151 129.184 121.332 128.28 119.889 127.737C116.641 126.381 115.108 126.652 111.229 126.652C99.5032 126.652 75.3292 131.082 73.7957 130.088C73.1643 129.726 73.1643 129.184 73.6153 128.822C74.2468 128.28 75.0586 128.099 77.043 127.557C78.2156 127.285 79.0274 127.376 79.4784 126.11C80.4707 123.307 78.396 116.165 79.2078 113.724C78.3058 113.633 77.1332 113.453 75.69 113.181H75.5998C75.5998 113.181 75.5998 113.181 75.5096 113.181H75.4194C75.1488 113.181 74.8782 113.181 74.6076 113.091C74.6076 113.091 74.5174 113.091 74.4272 113.091C73.6153 113.001 72.6231 112.82 71.2701 112.639C71.0897 112.639 70.9093 112.639 70.7289 112.549C70.3681 112.549 70.0073 112.729 69.9171 113.091C69.6465 114.176 69.4661 115.17 69.4661 116.255C69.4661 123.307 69.3759 125.115 69.7367 128.732C69.7367 128.822 69.8269 129.003 69.8269 129.093C69.8269 129.184 69.8269 129.274 69.8269 129.455C69.9171 130.269 70.0073 131.263 70.1877 132.348C70.6387 135.513 71.2701 138.586 71.9917 141.66C72.1721 141.48 72.3525 141.299 72.6231 141.208C72.8937 141.118 73.1643 141.028 73.4349 141.028C103.652 132.348 101.397 132.619 104.103 133.252C108.253 134.156 110.327 134.337 122.775 134.066C124.489 133.976 126.113 133.704 127.646 132.8C127.736 132.71 127.826 132.529 127.826 132.348C127.826 132.077 127.556 131.715 127.375 131.715ZM101.488 131.444C101.397 131.625 101.127 131.806 100.946 131.987C100.676 132.167 100.225 131.987 100.044 131.715C99.9542 131.535 99.7738 131.444 99.7738 131.263C99.2326 130.088 99.3228 127.918 100.495 127.828C100.856 127.828 101.217 128.099 101.397 128.28C101.758 128.913 101.758 129.636 101.758 130.54C101.668 130.721 101.668 131.082 101.488 131.444Z" fill="white"/>
<path d="M101.758 130.54C101.758 130.721 101.668 131.082 101.577 131.354C101.487 131.534 101.217 131.715 101.036 131.896C100.766 132.077 100.315 131.896 100.134 131.625C100.044 131.444 99.8636 131.354 99.8636 131.173C99.3224 129.998 99.4126 127.828 100.585 127.737C100.946 127.737 101.307 128.009 101.487 128.189C101.668 129.003 101.668 129.726 101.758 130.54Z" fill="#0C1949"/>
<path d="M51.3351 68.9714C51.3351 69.1523 51.3351 69.3331 51.3351 69.4235C51.3351 69.5139 51.3351 69.6947 51.3351 69.7851C51.3351 69.9659 51.2449 70.2372 51.2449 70.418C51.1547 70.7796 51.1547 71.2317 51.0645 71.6837C51.0645 71.9549 50.9743 72.2262 50.9743 72.4974C50.8841 73.2207 50.7939 73.9439 50.6135 74.6672C50.6135 74.848 50.5233 75.0289 50.5233 75.1193C50.4331 75.7521 50.2527 76.4754 50.1625 77.1083C49.9821 78.0124 49.8017 79.0069 49.5311 80.0014C49.5311 80.0918 49.5311 80.1822 49.4409 80.2726C49.3507 80.6342 49.2605 81.0863 49.1703 81.5383C49.0801 81.9 48.9899 82.2616 48.8997 82.6232C48.7193 83.4369 48.5389 84.1602 48.2682 84.9739C48.0878 85.5163 47.9976 86.0588 47.8172 86.6012C47.727 86.7821 47.6368 87.0533 47.6368 87.2341C47.0054 88.6807 45.923 89.4039 44.4798 89.7656C44.2092 89.856 43.8484 89.856 43.4876 89.856C42.5856 89.9464 41.5031 89.856 40.3305 89.856C39.2481 89.7656 38.0755 89.6752 36.9029 89.5847C36.4519 89.4943 35.9107 89.4943 35.4596 89.4039C34.0164 89.2231 32.8438 89.0423 32.032 88.8615H31.9418H31.8516C31.581 88.7711 31.4006 88.7711 31.13 88.6807C30.8594 88.5902 30.679 88.5902 30.4084 88.4998C30.1378 88.4094 29.8672 88.4094 29.6868 88.319C29.1455 88.2286 28.6945 88.0478 28.1533 87.867C27.8827 87.7766 27.7023 87.6862 27.4317 87.5957C27.1611 87.5053 26.9807 87.4149 26.7101 87.3245C26.4395 87.2341 26.1689 87.1437 25.8983 86.9629C25.7179 86.8725 25.4473 86.7821 25.2669 86.6916C25.0865 86.6012 24.9061 86.5108 24.6355 86.4204C22.0196 85.3355 19.6744 83.7986 17.9606 81.8096C17.7802 81.6287 17.69 81.4479 17.5096 81.2671C17.5096 81.1767 17.4194 81.1767 17.4194 81.0863C17.239 80.815 17.0586 80.5438 16.8782 80.2726C16.8782 80.1822 16.788 80.1822 16.788 80.0918C16.6075 79.8205 16.4271 79.4589 16.3369 79.1877C16.3369 79.0973 16.2467 79.0973 16.2467 79.0069C15.9761 78.374 15.7055 77.6507 15.6153 76.9275C15.5251 76.6562 15.5251 76.4754 15.5251 76.2042C15.5251 76.1138 15.5251 76.0234 15.4349 75.933C15.4349 75.6617 15.3447 75.4809 15.3447 75.2097C15.3447 75.1193 15.3447 74.9384 15.3447 74.848C15.3447 73.5823 15.4349 72.407 15.7055 71.2317C15.7957 71.0508 15.7957 70.7796 15.8859 70.5988C15.9761 70.1468 16.1565 69.7851 16.3369 69.3331C16.5173 68.9714 16.6977 68.5194 16.8782 68.1577C16.9684 67.9769 17.0586 67.7961 17.1488 67.6153C17.3292 67.2537 17.5998 66.892 17.8704 66.5304C19.7646 63.8181 22.5608 61.7387 25.9885 60.6538C33.2948 58.3936 40.4207 62.0099 47.1858 64.5414C48.6291 65.0838 49.9821 65.6263 50.7037 66.6208C50.8841 66.892 51.0645 67.0728 51.1547 67.3441C51.2449 67.4345 51.2449 67.5249 51.2449 67.6153C51.2449 67.7057 51.3351 67.7961 51.3351 67.8865V67.9769V68.0673V68.1577C51.3351 68.7002 51.3351 68.7906 51.3351 68.9714Z" fill="#FFCF00"/>
<g opacity="0.25">
<path d="M43.1274 76.8369C44.1196 75.3 44.0294 73.763 42.947 72.3165C42.7666 72.0452 42.496 71.774 42.3156 71.4124C41.594 70.4179 40.6018 69.9658 39.0684 69.9658C39.0684 69.9658 38.7076 69.9658 38.5272 69.9658C37.0839 70.237 35.7309 70.9603 35.2799 72.4069C34.4681 74.7575 35.0093 76.5657 36.8133 77.8314C37.3545 78.1931 38.0761 78.5547 38.6174 78.9163C38.888 79.0067 38.888 79.3684 38.7076 79.6396C38.4369 79.9108 38.1663 80.0917 37.8957 80.3629C36.8133 81.5382 36.5427 82.8039 36.9937 84.3409C37.2643 85.3354 37.8055 86.1491 38.5272 86.782C39.4292 87.5956 40.5116 87.9573 41.594 88.2285C43.5784 88.6805 45.5629 87.234 45.8335 85.1546C46.0139 83.3464 45.5629 81.8094 44.3 80.5437C43.6686 79.9108 42.947 79.3684 42.3156 78.8259C42.1352 78.6451 41.9548 78.4643 42.1352 78.1931C42.5862 77.741 42.8568 77.289 43.1274 76.8369ZM38.0761 75.6616C37.5349 75.2096 37.2643 74.4863 37.4447 73.763C37.7153 73.0397 38.1663 72.5877 38.888 72.4069C38.9782 72.4069 39.0684 72.4069 39.1586 72.4069C40.0606 72.3165 41.5038 73.8534 41.4136 74.6671C41.3234 75.8424 39.9704 76.7465 38.9782 76.2041C38.7076 76.1137 38.3468 75.9328 38.0761 75.6616ZM42.3156 81.8998C42.6764 82.2615 43.1274 82.6231 43.398 83.0752C43.5784 83.4368 43.7588 83.8889 43.7588 84.3409C43.849 85.6066 42.8568 86.3299 41.6842 85.8779C41.3234 85.697 41.0528 85.6066 40.7822 85.4258C39.9704 84.8834 39.6096 84.1601 39.6998 83.1656C39.6998 82.4423 40.0606 81.8998 40.692 81.6286C41.143 81.3574 41.7744 81.4478 42.3156 81.8998Z" fill="#C42D52"/>
<path d="M30.4077 66.2592C30.9489 68.2482 32.2117 69.5139 34.1059 70.0564C37.0826 70.8701 39.6082 68.3386 39.518 65.5359C39.4278 64.5414 38.9768 63.4565 37.9846 62.7332C35.8198 61.1963 33.8353 61.0155 31.6705 63.0045C31.3097 63.2757 31.0391 63.6373 30.7685 63.999C30.4077 64.6318 30.2273 65.3551 30.4077 66.2592ZM33.1137 64.9935C33.6549 64.451 34.2863 64.1798 35.2786 64.2702C35.459 64.3606 35.91 64.451 36.2708 64.6318C37.0826 65.0839 37.3532 65.988 36.9022 66.7112C36.4512 67.6153 35.5492 67.977 34.6472 67.7057C33.9255 67.4345 33.3843 67.0729 32.9333 66.44C32.7529 65.988 32.7529 65.3551 33.1137 64.9935Z" fill="#C42D52"/>
<path d="M50.5224 74.7575C50.5224 74.9383 50.4322 75.1192 50.4322 75.2096C50.342 75.8424 50.1616 76.5657 50.0714 77.1986C49.891 77.1082 49.8008 77.0178 49.6204 76.9274C48.6282 76.3849 47.636 76.8369 47.2752 77.8314C46.9144 78.9164 47.8164 80.1821 49.0792 80.1821C49.1694 80.1821 49.3498 80.1821 49.44 80.1821C49.44 80.2725 49.3498 80.3629 49.3498 80.4533C49.2596 80.815 49.1694 81.267 49.0792 81.719C48.989 82.0807 48.8988 82.4423 48.8086 82.804C48.1772 82.804 47.5458 82.5327 46.9144 82.0807C46.4633 81.8094 46.1025 81.3574 45.7417 80.9958C45.6515 80.9054 45.5613 80.8149 45.4711 80.7245C44.9299 80.0917 44.6593 79.278 44.7495 78.4643C44.7495 77.0178 45.3809 75.9329 46.2829 75.1192C46.4633 74.9383 46.6437 74.8479 46.8242 74.7575C47.2752 74.5767 47.7262 74.3959 48.2674 74.3959C49.0792 74.3055 49.8008 74.3959 50.5224 74.7575Z" fill="#C42D52"/>
<path d="M27.5224 72.678C25.4478 72.9493 24.0948 74.8479 24.5458 76.9273C24.8164 78.1026 25.4478 79.0067 26.3498 79.8204C28.1538 81.1765 29.3265 81.1765 31.1305 79.8204C32.3933 78.8259 32.9345 76.6561 32.2129 75.2095C31.4011 73.5821 30.1383 72.5876 27.6126 72.678C27.9734 72.678 27.7028 72.678 27.5224 72.678ZM29.0559 75.2999C29.4167 75.5711 29.6873 75.9328 29.8677 76.2944C30.4991 77.2889 29.7775 78.1026 28.7853 78.1026C28.4245 78.1026 27.9734 78.0122 27.7028 77.6506C27.5224 77.4697 27.342 77.2889 27.2518 77.0177C26.891 76.4752 26.891 75.8424 27.1616 75.5711C27.5224 75.0287 28.5147 74.8479 29.0559 75.2999Z" fill="#C42D52"/>
<path d="M31.8513 88.9518L31.9415 88.8614V88.9518C32.7533 89.1326 34.0161 89.3135 35.3692 89.4943C35.5496 89.4943 35.6398 89.4039 35.8202 89.4039C36.181 89.4039 36.4516 89.4943 36.8124 89.5847C37.985 89.6751 39.1576 89.7655 40.24 89.8559C39.9694 89.223 39.5184 88.5902 38.9772 88.0477C38.2556 87.5053 37.534 87.0532 36.632 86.782C35.9104 86.5108 35.279 86.6012 34.5573 86.8724C33.7455 87.1436 33.2043 87.6861 32.5729 88.1381C32.5729 87.8669 32.5729 87.5957 32.5729 87.3245C32.7533 86.0587 32.3925 85.0642 31.6709 84.0697C31.4905 83.8889 31.4003 83.6177 31.2199 83.4369C30.1375 81.9903 27.8824 81.6287 26.4392 82.7136C25.3568 83.5273 24.2744 84.9738 24.545 86.6012C26.8 87.7765 29.3257 88.4998 31.8513 88.9518C31.7611 88.9518 31.8513 88.9518 31.8513 88.9518ZM28.8747 88.0477C27.9726 88.1381 26.9804 87.234 26.8902 86.2395C26.8902 85.6067 27.702 84.7026 28.4236 84.7026C29.2355 84.7026 30.1375 85.4259 30.2277 86.33C30.3179 87.1436 29.5963 87.9573 28.8747 88.0477Z" fill="#C42D52"/>
<path d="M18.503 73.3109C18.954 73.4013 19.405 73.3109 19.7658 73.1301C21.2091 72.4972 21.9307 71.3219 22.2013 69.8754C22.1111 69.6041 22.1111 69.3329 22.0209 69.0617C21.7503 68.248 21.2993 67.6151 20.6678 67.0727C19.7658 66.259 18.503 66.1686 17.601 66.7111C16.6088 68.1576 15.8872 69.785 15.5264 71.5027C15.6166 72.4972 16.3382 72.8589 18.503 73.3109ZM17.7814 69.9658C17.9618 69.4233 18.503 69.1521 19.0442 69.2425C19.405 69.3329 19.5854 69.6946 19.4952 70.0562C19.3148 70.5987 18.954 70.8699 18.5932 70.7795C18.052 70.7795 17.6912 70.3274 17.7814 69.9658Z" fill="#C42D52"/>
<path d="M51.3355 68.9714C51.3355 69.1523 51.3355 69.3331 51.3355 69.4235C51.3355 69.5139 51.3355 69.6947 51.3355 69.7851C51.3355 69.966 51.2453 70.2372 51.2453 70.418C51.1551 70.7796 51.1551 71.2317 51.0649 71.6837C51.0649 71.955 50.9747 72.2262 50.9747 72.4974C50.2531 72.0454 49.8021 71.4125 49.7119 70.5084C49.6217 69.4235 49.8923 68.5194 50.7041 67.8865C50.7943 67.7961 50.9747 67.7057 51.1551 67.5249C51.2453 67.6153 51.2453 67.7057 51.2453 67.7961C51.2453 67.8865 51.3355 67.9769 51.3355 68.0674V68.1578V68.2482V68.3386C51.3355 68.7002 51.3355 68.7906 51.3355 68.9714Z" fill="#C42D52"/>
<path d="M21.9298 64.2701C22.6514 65.8974 24.275 66.9823 26.1693 66.8919C27.7027 66.8919 28.9655 65.807 29.5969 63.9988C29.6871 63.6372 29.7773 63.2756 29.8675 63.0043C29.9577 62.1907 29.6871 61.4674 29.1459 60.7441C28.8753 60.3825 28.1537 60.2016 27.7027 60.4729C27.3419 60.6537 27.2517 61.0153 27.3419 61.377C27.4321 61.6482 27.4321 61.9194 27.5223 62.1907C27.5223 62.4619 27.5223 62.7331 27.4321 62.9139C27.3419 63.5468 26.7105 64.2701 26.0791 64.3605C25.3575 64.4509 24.8162 64.1797 24.4554 63.6372C24.275 63.366 24.1848 63.0043 24.0044 62.6427C23.9142 62.3715 23.824 62.1002 23.7338 61.9194C23.6436 61.829 23.4632 61.7386 23.2828 61.7386C23.2828 61.7386 23.2828 61.7386 23.1926 61.7386C22.8318 61.9194 22.471 62.1002 22.1102 62.3715C21.7494 63.0043 21.6592 63.6372 21.9298 64.2701Z" fill="#C42D52"/>
<path d="M15.2549 75.4808C15.2549 76.1136 15.3451 76.6561 15.5255 77.1985C15.7059 77.3793 15.8863 77.4698 16.0667 77.741C16.2471 78.0122 16.3373 78.3738 16.4275 78.7355C16.3373 78.9163 16.2471 79.0971 16.1569 79.2779C16.5177 80.0916 16.9687 80.8149 17.5099 81.5382C18.6825 80.6341 19.4041 78.7355 18.5021 77.1985C18.3217 76.8369 18.0511 76.3848 17.8707 76.0232C17.3295 75.2999 16.6079 74.7575 15.7059 74.5767C15.6157 74.5767 15.4353 74.5767 15.2549 74.6671C15.2549 74.9383 15.2549 75.2095 15.2549 75.4808Z" fill="#C42D52"/>
<path d="M45.7417 65.8972C45.4711 66.0781 45.0201 66.0781 44.7495 65.8068C44.4789 65.4452 44.2083 65.174 43.9377 64.8123C43.6671 64.4507 43.5768 63.9987 43.3062 63.637C43.0356 63.185 42.0434 63.0042 41.5924 63.2754C41.2316 63.5466 40.961 64.1795 41.1414 64.7219C41.412 65.4452 41.7728 66.1685 42.1336 66.8918C42.765 67.9767 43.7573 68.4287 44.8397 68.5191C46.3731 68.6095 47.8163 67.7054 48.4477 66.3493C48.5379 66.0781 48.4477 65.626 48.1771 65.3548C47.6359 64.9027 47.0045 64.8123 46.4633 65.174C46.1927 65.4452 46.0123 65.7164 45.7417 65.8972Z" fill="#C42D52"/>
</g>
<path d="M41.053 91.6641C39.6097 91.7545 37.8057 91.3025 36.0919 91.0312C33.4761 90.5792 30.8602 89.9463 28.3346 89.1326C25.8991 88.319 23.5539 87.2341 21.2989 86.0587C20.3968 85.5163 19.4948 84.9738 18.5928 84.341C18.232 84.0697 18.0516 83.7081 17.781 83.3465C17.6006 83.0752 17.6006 82.6232 17.8712 82.352C18.1418 82.0807 18.5026 81.8999 18.8634 81.9903C19.2242 82.0807 19.585 82.1711 19.8556 82.352C25.2677 85.6067 31.1308 87.5957 37.2645 88.6806C39.1587 89.0422 41.1432 89.1326 43.1276 89.3135C43.4884 89.3135 43.8492 89.4943 44.1198 89.5847C44.4806 89.6751 44.8414 90.308 44.7512 90.6696C44.661 91.0312 44.3904 91.3025 44.1198 91.4833C43.8492 91.5737 43.5786 91.6641 43.3982 91.6641C42.6766 91.6641 42.0452 91.6641 41.053 91.6641Z" fill="#0C1949"/>
<path d="M47.6373 69.7851C47.5471 70.2371 47.4569 71.2316 47.2765 72.1357C46.8255 74.3959 46.4647 76.6562 45.9235 78.9164C45.2921 81.6287 44.4802 84.2505 43.7586 86.8724C43.6684 87.2341 43.3076 87.5957 43.037 87.9573C42.8566 88.1381 42.586 88.1381 42.3154 88.1381C42.0448 88.1381 41.5938 87.6861 41.5938 87.4149C41.5938 87.0532 41.5036 86.6916 41.5938 86.33C41.8644 85.3355 42.135 84.2505 42.4056 83.256C43.7586 79.0068 44.4802 74.6672 45.2019 70.2371C45.2921 69.4234 45.4725 68.7002 45.6529 67.8865C45.7431 67.6152 45.8333 67.344 46.0137 67.1632C46.1941 66.9824 46.4647 66.8016 46.7353 66.892C46.9157 66.892 47.1863 67.1632 47.3667 67.344C47.7275 67.9769 47.6373 68.6097 47.6373 69.7851Z" fill="#0C1949"/>
<path d="M129.809 63.5468C126.562 65.5358 124.397 64.5413 123.766 65.9879C123.225 67.344 122.052 67.9769 120.879 68.6097C117.813 70.2371 114.024 70.3275 110.597 70.1467C104.102 69.6946 105.275 68.2481 100.314 71.322C79.1162 84.2505 51.3342 89.4039 47.7261 87.4148C46.3731 86.6916 46.3731 85.245 48.2673 85.1546C48.3575 85.0642 58.1895 84.793 70.9079 81.267C94.4505 74.7575 100.133 65.4454 107.981 66.9824C110.867 67.5248 113.844 67.344 116.82 67.2536C117.993 67.2536 119.075 66.8919 120.158 66.4399C120.519 66.2591 120.97 65.9879 121.06 65.5358C121.601 64.0893 116.64 64.6317 114.385 64.6317C113.844 64.6317 113.393 64.3605 112.942 63.9988C112.581 63.6372 112.581 62.9139 113.032 62.6427C113.573 62.2811 114.114 62.1003 114.746 62.0098C117.271 61.829 119.707 61.6482 122.142 62.5523C123.405 63.0043 123.946 62.8235 127.374 62.1907C127.464 62.1907 127.645 61.9194 127.645 61.829C127.735 60.3825 118.624 59.5688 115.558 59.84H113.934C106.898 59.7496 102.478 61.6482 99.9527 62.0098C96.8859 62.4619 82.6341 63.6372 80.0182 64.0893C77.7632 64.4509 75.418 64.5413 73.1629 64.8125C56.8365 66.7111 52.2362 68.6097 51.0636 68.2481C50.793 68.1577 50.5224 68.0673 50.4322 67.8864C50.1616 67.6152 50.1616 67.1632 50.4322 66.8015C50.4322 66.7111 50.5224 66.7111 50.5224 66.6207C50.8832 66.1687 51.3342 65.8974 51.8754 65.807C53.4088 65.4454 54.9422 64.9934 56.5659 64.6317C66.488 62.6427 89.2188 60.0208 99.3213 59.7496C100.133 59.7496 100.945 59.5688 101.667 59.2976C114.836 54.4155 136.665 59.2072 129.809 63.5468Z" fill="#0C1949"/>
<path d="M115.739 59.9305H114.115C107.079 59.8401 102.659 61.7387 100.134 62.1003C97.0669 62.5524 82.8151 63.7277 80.1992 64.1797C77.9442 64.5414 75.599 64.6318 73.3439 64.903C57.0175 66.8016 52.4172 68.7002 51.2446 68.3386V68.429V68.5194C51.2446 68.6098 51.2446 68.7906 51.2446 68.9714C51.2446 69.1522 51.2446 69.3331 51.2446 69.4235C51.2446 69.5139 51.2446 69.6947 51.2446 69.7851C51.2446 69.9659 51.1544 70.2372 51.1544 70.418C51.0642 70.7796 51.0642 71.2317 50.974 71.6837C50.974 71.9549 50.8838 72.2262 50.8838 72.4974C50.7936 73.2207 50.7034 73.9439 50.523 74.6672C50.523 74.848 50.4328 75.0289 50.4328 75.1193C50.3426 75.7521 50.1622 76.4754 50.072 77.1083C49.8916 78.0124 49.7112 79.0069 49.4406 80.0014C49.4406 80.0918 49.3504 80.1822 49.3504 80.2726C49.2602 80.6342 49.17 81.0863 49.0797 81.5383C48.9895 81.9 48.8993 82.2616 48.8091 82.6232C48.6287 83.4369 48.4483 84.1602 48.1777 84.9739C48.2679 84.8835 58.0999 84.6122 70.8183 81.0863C94.3609 74.5768 100.044 65.2646 107.891 66.8016C110.778 67.3441 113.754 67.1632 116.731 67.0728C117.903 67.0728 118.986 66.7112 120.068 66.2592C120.429 66.0783 120.88 65.8071 120.97 65.3551C121.511 63.9085 116.55 64.451 114.295 64.451C113.754 64.451 113.303 64.1797 112.852 63.8181C112.491 63.4565 112.491 62.7332 112.942 62.462C113.484 62.1003 114.025 61.9195 114.656 61.8291C117.182 61.6483 119.617 61.4675 122.053 62.3716C123.316 62.8236 123.857 62.6428 127.284 62.0099C127.375 62.0099 127.555 61.7387 127.555 61.6483C127.916 60.5634 118.805 59.7497 115.739 59.9305ZM101.848 66.0783C101.487 66.1687 100.946 65.8975 100.765 65.5359C100.495 64.903 100.314 64.451 100.314 63.7277C100.314 63.5469 100.404 63.3661 100.404 63.1852C100.585 62.6428 101.306 62.462 101.667 62.8236C102.299 63.4565 102.479 64.1797 102.479 64.9934C102.569 65.5359 102.208 65.9879 101.848 66.0783Z" fill="white"/>
<path d="M102.569 65.0839C102.569 65.4455 102.208 65.988 101.847 66.0784C101.486 66.1688 100.945 65.8976 100.764 65.5359C100.494 64.9031 100.313 64.451 100.313 63.7277C100.313 63.5469 100.404 63.3661 100.404 63.1853C100.584 62.6428 101.306 62.462 101.666 62.8236C102.298 63.5469 102.569 64.2702 102.569 65.0839Z" fill="#0C1949"/>
</svg>
