<svg width="128" height="145" viewBox="0 0 128 145" fill="none" xmlns="http://www.w3.org/2000/svg">
<path d="M116.785 83.1141C111.943 83.4105 108.189 81.8297 104.533 79.9525C101.569 78.3717 98.9019 76.4946 96.5307 74.0246C95.2463 72.7402 93.962 71.357 92.6776 70.0726C92.0848 69.4798 91.492 68.7882 90.998 67.9978C89.2196 65.4291 87.54 62.8603 85.7616 60.1927C85.2676 59.5011 84.8724 58.7107 84.4772 57.9203C83.8845 56.9323 83.2917 55.8456 82.6989 54.8576C82.4025 54.2648 82.4025 53.7708 82.6989 53.178C83.4893 51.7948 84.3784 50.5104 85.564 49.5224C88.8244 46.8548 92.6776 45.4716 96.9259 45.2741C100.088 45.1753 102.854 46.3608 105.324 48.1392C107.003 49.4236 108.09 51.202 108.782 53.178C109.078 54.166 109.276 55.2528 109.572 56.3395C109.77 57.3275 109.869 58.3155 110.165 59.2047C110.461 59.9951 110.758 60.7855 111.153 61.5759C111.449 62.1687 111.943 62.6627 112.635 62.9591C113.425 63.3543 114.216 63.6507 115.105 63.9471C116.093 64.2435 117.18 64.4411 118.267 64.7375C119.847 65.1327 121.428 65.8243 122.811 66.7135C125.38 68.393 126.566 70.863 127.06 73.7282C127.158 74.1234 127.158 74.5186 127.06 74.9138C126.269 80.0513 122.218 82.7189 118.662 82.9165C117.871 83.1141 117.081 83.1141 116.785 83.1141Z" fill="#C42D52"/>
<g opacity="0.5">
<path d="M106.311 66.417C106.114 66.3182 105.817 66.3182 105.521 66.1206C104.533 65.5278 103.841 64.8362 103.446 63.7494C103.249 63.2554 103.15 62.8602 103.051 62.3662C102.952 61.8722 102.656 61.477 102.261 61.1806C101.964 60.983 101.668 60.6866 101.371 60.489C100.581 59.8962 99.9883 59.1058 99.7907 58.1178C99.5931 57.0311 99.0991 56.1419 98.2099 55.4503C97.7159 55.0551 97.7159 54.4623 97.9135 53.8695C98.1111 53.4743 98.3087 53.1779 98.5063 52.8815C99.3955 51.7947 100.779 51.5971 101.865 52.3875C102.557 52.8815 103.051 53.4743 103.249 54.1659C103.446 54.6599 103.545 55.0551 103.644 55.5491C103.743 56.5371 104.335 57.1299 105.126 57.6238C105.225 57.7226 105.323 57.7226 105.422 57.8214C106.509 58.4142 107.201 59.3034 107.299 60.5878C107.497 61.7734 108.287 62.6626 108.979 63.5518C109.374 64.0458 109.275 64.7374 108.781 65.1326C108.189 65.7254 107.596 66.1206 106.805 66.3182C106.805 66.417 106.608 66.417 106.311 66.417Z" fill="#C42DBA"/>
<path d="M112.733 65.2315C115.005 65.1327 117.278 67.5039 117.278 69.6775C117.278 72.1474 115.499 74.5186 112.436 74.4198C109.571 74.321 107.892 72.0486 107.99 69.5787C108.089 66.8123 110.065 65.2315 112.733 65.2315ZM112.733 68.4919C111.942 68.4919 111.35 69.0847 111.35 69.9739C111.35 70.5667 111.844 71.0606 112.436 71.1594C113.326 71.2582 114.017 70.6655 114.017 69.8751C114.017 69.1835 113.424 68.4919 112.733 68.4919Z" fill="#C42DBA"/>
<path d="M109.473 76.9884C109.473 77.8776 108.287 78.9644 107.2 78.7668C106.41 78.668 105.718 78.2728 105.027 77.8776C104.335 77.3836 103.644 77.2848 102.754 77.4824C102.458 77.5812 102.162 77.5812 101.865 77.68C101.371 77.7788 100.877 77.68 100.482 77.3836C98.9013 76.3956 97.5181 75.21 96.3325 73.728C96.1349 73.5304 96.0361 73.1352 96.2337 72.9376C96.4313 72.74 96.7277 72.5424 96.9253 72.5424C97.6169 72.4436 98.3085 72.5424 98.9013 72.8388C99.3953 73.1352 99.8893 73.4316 100.383 73.728C100.976 74.1232 101.668 74.222 102.359 74.1232C102.853 74.0244 103.347 73.9256 103.841 73.9256C104.335 73.9256 104.829 74.0244 105.224 74.222C106.41 74.9136 107.596 75.5064 108.88 76.0992C109.275 76.0992 109.572 76.5932 109.473 76.9884Z" fill="#C42DBA"/>
<path d="M116.489 80.0512C115.599 80.0512 115.007 79.7548 114.611 79.0632C114.513 78.7668 114.315 78.5692 114.315 78.2728C114.019 77.2848 114.414 76.198 115.303 75.8028C116.587 75.21 117.971 74.6172 119.354 74.1232C120.144 73.8269 121.132 74.2221 121.626 74.9136C121.725 75.1112 121.824 75.21 121.923 75.4076C122.713 76.7908 122.417 77.7788 120.935 78.4704C119.749 78.9644 118.662 79.4584 117.477 79.8536C117.081 80.0512 116.686 80.0512 116.489 80.0512Z" fill="#C42DBA"/>
<path d="M90.1078 58.9083C89.9102 58.0191 89.8114 57.2287 89.6138 56.3395C89.515 55.4503 89.515 54.5611 89.8114 53.7707C90.3054 52.2888 91.985 51.5972 93.3681 52.3876C93.6645 52.5852 94.0597 52.8816 94.1585 53.178C94.5537 54.4623 94.9489 55.7467 94.8501 57.1299C94.8501 57.5251 94.6525 57.9203 94.5537 58.2167C94.2573 58.8095 93.8621 59.1059 93.1705 59.1059C92.1826 59.1059 91.1946 59.0071 90.1078 58.9083Z" fill="#C42DBA"/>
<path d="M96.1356 68.4917C96.1356 69.4797 95.938 70.4677 95.2464 71.1593C94.95 71.4557 94.456 71.5545 94.1596 71.3569C93.468 70.8629 92.7764 70.2701 92.8752 69.2821C92.8752 69.1833 92.8752 69.0845 92.8752 68.9857C92.8752 67.4049 92.6776 67.1085 91.1956 66.9109C90.2076 66.8121 89.9112 66.2193 89.4172 65.5278C89.022 64.8362 89.3184 64.2434 90.01 63.8482C92.2824 62.6626 96.1356 64.8362 96.1356 67.8001C96.1356 68.0965 96.1356 68.2941 96.1356 68.4917Z" fill="#C42DBA"/>
<path d="M101.866 48.2379C101.767 48.5343 101.767 49.1271 101.57 49.6211C101.076 51.0043 99.1987 51.5971 97.9143 50.7079C97.7167 50.5103 97.4203 50.3127 97.3215 50.0163C96.9263 48.9295 96.6299 47.8427 96.6299 46.5583C96.6299 45.8667 97.2227 45.2739 97.9143 45.2739C98.6059 45.2739 99.2975 45.3727 99.8903 45.5703C101.273 45.9655 101.866 46.7559 101.866 48.2379Z" fill="#C42DBA"/>
<path d="M87.9352 50.9054C87.7376 52.9802 86.8485 54.5609 84.9713 55.3513C84.3785 55.6477 83.8845 55.5489 83.2917 55.1537C82.6001 54.6597 82.4025 53.7706 82.8965 53.1778C82.9953 53.079 83.1929 52.8814 83.2917 52.7826C84.0821 52.2886 84.5761 51.6958 84.8725 50.8066C85.0701 50.115 85.5641 49.7198 86.1569 49.3246C86.552 49.0282 87.2436 49.2258 87.4412 49.621C87.6388 50.0162 87.7376 50.5102 87.9352 50.9054Z" fill="#C42DBA"/>
<path d="M93.6658 48.6331C93.4682 49.8187 92.9742 50.7079 91.9862 51.2019C90.9982 51.6959 90.1091 51.3995 89.3187 50.7079C88.9235 50.3127 88.6271 49.8187 88.3307 49.3247C88.0343 48.8307 88.2319 48.0403 88.7259 47.7439C89.3187 47.4476 89.9115 47.1512 90.5043 46.8548C90.9982 46.6572 91.4922 46.6572 91.8874 46.9536C92.3814 47.25 92.8754 47.5463 93.2706 47.9415C93.567 48.0403 93.567 48.3367 93.6658 48.6331Z" fill="#C42DBA"/>
<path d="M90.2071 58.9083C90.3059 59.1059 90.4047 59.3035 90.4047 59.5011C90.5035 61.1806 89.1203 62.2674 87.6383 61.6746C87.2431 61.5758 86.9467 61.3782 86.6504 61.0818C85.7612 60.1927 85.1684 59.1059 84.7732 57.9203C84.6744 57.6239 85.0696 57.1299 85.4648 57.1299C86.0576 57.1299 86.5516 57.3275 87.0455 57.7227C87.9347 58.4143 88.9227 58.8095 90.2071 58.9083Z" fill="#C42DBA"/>
<path d="M100.187 62.1684C100.187 62.366 100.088 62.6624 99.989 62.9588C99.495 63.848 98.7046 64.342 97.7166 64.6384C97.4202 64.7372 97.1238 64.6384 96.9262 64.5396C96.1358 64.1444 95.7406 63.5516 95.6418 62.7612C95.4442 61.6744 96.6298 60.1925 97.8154 60.0937C98.8034 59.9949 100.088 61.0817 100.187 62.1684Z" fill="#C42DBA"/>
<path d="M104.336 69.5786C104.336 69.7762 104.336 70.0726 104.237 70.369C104.04 71.4558 103.249 72.0486 102.163 72.0486C101.076 71.9498 100.285 71.357 100.187 70.2702C100.187 69.875 100.187 69.4798 100.187 69.0846C100.285 68.393 100.779 67.8002 101.471 67.7014C101.767 67.6026 102.064 67.6026 102.36 67.6026C103.743 67.4051 104.435 68.0966 104.336 69.5786Z" fill="#C42DBA"/>
<path d="M107.101 55.5491C106.805 55.5491 106.509 55.4503 106.212 55.4503C105.422 55.2527 104.829 54.5611 105.027 53.7707C105.125 52.9803 105.323 52.2887 105.718 51.5971C106.212 50.8067 107.398 50.7079 107.991 51.3995C108.682 52.1899 109.077 53.1779 109.077 54.2647C109.077 54.7587 108.583 55.3515 107.991 55.4503C107.694 55.4503 107.398 55.4503 107.101 55.5491Z" fill="#C42DBA"/>
<path d="M126.368 72.0485C126.269 72.5425 125.874 72.9377 125.479 73.1353C124.985 73.4317 124.293 73.4317 123.898 72.9377C123.206 72.1473 122.811 71.2581 123.009 70.2702C123.108 69.7762 123.305 69.381 123.799 69.0846C124.194 68.7882 124.787 68.7882 125.182 69.1834C125.874 69.875 126.368 70.7641 126.467 71.7521C126.368 71.8509 126.368 71.9497 126.368 72.0485Z" fill="#C42DBA"/>
<path d="M109.869 80.5451C110.956 80.5451 111.845 80.7427 112.635 81.3355C112.833 81.5331 113.031 81.7307 113.228 81.9283C113.327 82.0271 113.327 82.3235 113.327 82.4223C113.228 82.5211 113.03 82.7187 112.932 82.7187C111.549 82.6199 110.264 82.3235 109.079 81.6319C108.881 81.5331 108.683 81.0391 108.782 80.9403C108.881 80.8415 108.98 80.6439 109.177 80.5451C109.276 80.4463 109.375 80.4463 109.474 80.4463C109.573 80.5451 109.77 80.5451 109.869 80.5451Z" fill="#C42DBA"/>
<path d="M122.119 81.4344C122.02 81.632 122.02 81.8296 121.922 81.9284C121.23 82.62 120.341 82.9164 119.353 82.9164C119.056 82.9164 118.562 82.62 118.464 82.3236C118.266 81.9284 118.464 81.5332 118.661 81.2368C118.859 81.0392 119.056 80.8416 119.353 80.7428C120.242 80.4464 121.032 80.4464 121.823 80.9404C121.922 81.138 122.02 81.3356 122.119 81.4344Z" fill="#C42DBA"/>
<path d="M126.467 76.7909C126.368 76.9885 126.269 77.1861 126.171 77.2849C126.072 77.3837 125.775 77.2849 125.677 77.1861C125.578 77.0873 125.677 76.7909 125.775 76.6921C125.874 76.5933 126.072 76.4946 126.269 76.3958C126.368 76.4946 126.368 76.6922 126.467 76.7909Z" fill="#C42DBA"/>
</g>
<path d="M124.096 73.0367C123.8 75.3091 123.207 77.285 121.231 78.5694C120.934 78.767 120.539 78.8658 120.144 78.8658C119.749 78.9646 119.354 78.6682 119.156 78.3718C118.958 78.0754 118.958 77.5814 119.156 77.2851C119.551 76.7911 119.946 76.3959 120.342 76.0007C120.934 75.4079 121.132 74.7163 121.33 73.9259C121.428 73.2343 121.527 72.5427 121.725 71.9499C121.824 71.5547 122.219 71.3571 122.614 71.2583C123.009 71.2583 123.404 71.3571 123.602 71.7523C123.8 72.1475 123.898 72.6415 124.096 73.0367Z" fill="#0C1949"/>
<path d="M73.4097 57.8215C72.9157 59.2047 72.0265 60.3903 70.8409 61.3783C68.9638 62.8603 66.7902 63.8483 64.5178 64.2435C64.0238 64.3422 63.5298 64.3422 63.0358 64.3422C62.1466 64.3422 61.2574 64.1447 60.467 63.9471C59.8742 63.8483 59.479 63.5519 59.0839 63.2555C58.9851 63.1567 58.8863 63.1567 58.7875 63.0579C57.9971 62.4651 57.6019 61.5759 57.3055 60.4891C57.3055 60.3903 57.2067 60.2915 57.2067 60.1927C57.3055 59.4023 57.2067 58.7107 56.9103 58.1179C56.7127 57.6239 56.3175 57.1299 55.8235 56.7347C55.6259 56.5371 55.3295 56.3395 55.1319 56.1419C54.8355 55.9443 54.5391 55.6479 54.2427 55.3515C52.6619 53.8695 51.4763 52.0912 50.5871 50.0164C48.9075 46.3608 47.9196 42.5077 47.722 38.4569C47.722 37.9629 47.722 37.4689 47.722 36.9749C47.722 35.6905 47.228 34.5049 47.4256 33.2205C47.6232 32.2325 47.6232 31.2446 47.722 30.2566C47.722 29.9602 47.722 29.6638 47.8208 29.4662C47.8208 29.1698 47.9196 28.8734 48.0184 28.577C48.216 28.3794 48.4136 28.1818 48.7099 28.083C49.0063 27.9842 49.5003 28.3794 49.5003 28.7746C49.5003 28.9722 49.5003 29.2686 49.5991 29.4662C49.5991 29.8614 49.6979 30.1578 49.6979 30.553C49.6979 32.4301 49.6979 34.3073 49.6979 36.0857C49.6979 38.7533 50.1919 41.3221 50.6859 43.8908C51.1799 46.262 52.1679 48.5344 53.3535 50.6092C53.8475 51.3996 54.4403 52.19 55.0331 52.9804C57.6019 55.8455 60.7634 57.3275 64.6166 57.2287C66.5926 57.2287 68.4698 57.1299 70.347 56.4383C70.8409 56.2407 71.3349 56.1419 71.7301 56.0431C72.2241 55.9443 72.7181 56.1419 73.0145 56.5371C73.6073 56.8335 73.6073 57.3275 73.4097 57.8215Z" fill="#0C1949"/>
<path d="M88.5258 35.6905C88.427 37.4689 87.6366 38.8521 85.8582 39.5437C85.5618 39.6425 85.2654 39.7413 85.0678 39.9389C84.3762 40.334 83.8822 40.9268 83.7834 41.816C83.1906 44.8788 83.0918 47.9416 83.5858 51.1031C83.5858 51.3995 83.6846 51.6959 83.6846 51.9923C83.6846 52.1899 83.6846 52.3875 83.6846 52.5851C83.6846 52.7827 83.6846 52.9803 83.6846 53.1779C83.6846 53.2767 83.6846 53.2767 83.6846 53.3755V53.4743C83.6846 53.6719 83.5858 53.8695 83.487 54.0671C83.3882 54.1659 83.2894 54.3635 83.0918 54.4623C82.993 54.5611 82.8942 54.5611 82.7954 54.5611C82.6966 54.5611 82.6966 54.5611 82.5978 54.5611C82.499 54.5611 82.4002 54.4623 82.4002 54.4623C82.3014 54.3635 82.2026 54.3635 82.2026 54.2647C81.6098 53.0791 81.4122 51.8935 81.3134 50.6092C81.3134 49.3248 81.3134 48.0404 81.3134 46.8548C81.3134 45.5704 81.2146 44.286 81.3134 43.1004C81.4122 42.31 81.511 41.5196 81.8074 40.828C82.2026 39.6425 82.8942 38.7533 83.981 38.2593C84.2774 38.0617 84.6726 37.9629 85.0678 37.7653C86.0558 37.2713 86.451 36.4809 86.451 35.3941C86.451 34.6037 86.3522 33.8133 86.1546 33.1217C86.0558 32.5289 85.8582 31.9361 85.8582 31.2445C85.8582 31.0469 85.8582 30.9481 85.8582 30.7505C85.8582 30.6517 85.8582 30.5529 85.8582 30.5529C85.8582 30.2565 86.2534 29.8613 86.5498 29.7625C86.8462 29.6637 87.439 29.9601 87.5378 30.1577C87.6366 30.2565 87.6366 30.3553 87.7354 30.4541C87.8342 30.5529 87.8342 30.6517 87.8342 30.6517C88.1306 31.2445 88.3282 31.8373 88.3282 32.5289C88.5258 33.3193 88.6246 34.5049 88.5258 35.6905Z" fill="#0C1949"/>
<path d="M83.5863 28.9722C83.5863 29.071 83.5863 29.1698 83.5863 29.2686C83.5863 29.4662 83.4875 29.6638 83.4875 29.8614C83.2899 31.1458 83.0923 32.3314 82.7959 33.6158C82.5983 34.4062 82.0055 34.9002 81.4127 34.8014C80.7211 34.7026 80.4247 34.2086 80.2271 33.7146C79.7331 32.4302 79.4367 31.1458 79.5355 29.8614V29.4662C79.5355 29.071 79.6343 28.8734 79.7331 28.577C79.8319 28.1819 80.1283 27.8855 80.5235 27.6879C80.6223 27.6879 80.7211 27.5891 80.7211 27.5891C81.6103 27.1939 82.4007 27.2927 83.0923 27.9843C83.2899 28.2807 83.5863 28.577 83.5863 28.9722Z" fill="#0C1949"/>
<path d="M86.1567 32.7266C86.0579 32.1338 85.8603 31.541 85.8603 30.8494C85.4651 30.7506 85.1687 30.6518 84.8723 30.4542C84.4771 30.2566 83.9832 30.059 83.588 29.8614C83.3904 31.1458 83.1928 32.3314 82.8964 33.6157C82.6988 34.4061 82.106 34.9001 81.5132 34.8013C80.8216 34.7025 80.5252 34.2085 80.3276 33.7145C79.8336 32.4302 79.5372 31.1458 79.636 29.8614V29.4662C79.636 29.071 79.7348 28.8734 79.8336 28.577C76.7708 27.6878 73.6092 27.1938 70.3489 26.6998C67.7801 26.3046 65.3101 26.3046 62.7413 26.2058C60.3702 26.2058 58.0978 26.601 55.8254 26.9962C54.2446 27.2926 52.8614 27.7866 51.4782 28.577C50.9843 28.8734 50.3915 29.1698 49.8975 29.3674C49.8975 29.7626 49.9963 30.059 49.9963 30.4542C49.9963 32.3314 49.9963 34.2085 49.9963 35.9869C49.9963 38.6545 50.4903 41.2233 50.9843 43.7921C51.4782 46.1632 52.4662 48.4356 53.6518 50.5104C54.1458 51.3008 54.7386 52.0912 55.3314 52.8816C57.9002 55.7467 61.0618 57.2287 64.9149 57.1299C66.8909 57.1299 68.7681 57.0311 70.6453 56.3395C71.1393 56.1419 71.6333 56.0431 72.0285 55.9443C72.5225 55.8455 73.0164 56.0431 73.3128 56.4383C73.708 56.8335 73.708 57.3275 73.5104 57.8215C73.0164 59.2047 72.1273 60.3903 70.9417 61.3783C69.0645 62.8603 66.8909 63.8483 64.6185 64.2435C64.1245 64.3423 63.6305 64.3423 63.1365 64.3423C62.2473 64.3423 61.3582 64.1447 60.5678 63.9471C59.975 63.8483 59.5798 63.5519 59.1846 63.2555C59.1846 63.6507 59.1846 64.0459 59.2834 64.4411C59.481 67.0098 60.6666 69.0846 62.8401 70.5666C64.6185 71.851 66.5945 72.6414 68.8669 72.4438C69.3609 72.4438 69.8549 72.4438 70.3489 72.4438C72.1273 72.4438 73.6092 71.9498 74.9924 71.0606C75.4864 70.6654 75.9804 70.2702 76.4744 69.875C76.7708 69.6774 76.9684 69.381 77.2648 69.0846C79.0432 67.1086 80.4264 64.8363 81.2168 62.2675C81.7108 60.7855 82.106 59.3035 82.0072 57.7227C82.0072 56.8335 82.106 55.9443 82.106 55.0552C82.106 54.7588 82.3036 54.4624 82.4024 54.166C82.3036 54.0672 82.2048 54.0672 82.2048 53.9684C81.612 52.7828 81.4144 51.5972 81.3156 50.3128C81.3156 49.0284 81.3156 47.744 81.3156 46.5584C81.3156 45.274 81.2168 43.9897 81.3156 42.8041C81.4144 42.0137 81.5132 41.2233 81.8096 40.5317C82.2048 39.3461 82.8964 38.4569 83.9832 37.9629C84.2795 37.7653 84.6747 37.6665 85.0699 37.4689C86.0579 36.9749 86.4531 36.1845 86.4531 35.0977C86.4531 34.2085 86.2555 33.4181 86.1567 32.7266ZM57.999 36.2833C57.9002 37.0737 57.3074 37.5677 56.517 37.6665C55.8254 37.6665 55.3314 37.1725 55.1338 36.3821C55.035 35.8881 55.035 35.2953 55.2326 34.8013C55.529 34.1097 56.023 33.7145 56.8134 33.8133C57.6038 33.9121 57.9002 34.4061 57.999 35.1965C57.999 35.4929 57.999 35.8881 57.999 36.2833ZM58.1966 31.8374C57.999 31.9362 57.7026 31.9362 57.4062 32.035C56.517 32.2326 55.7266 32.035 55.035 31.6398C54.4422 31.3434 53.9482 30.9482 54.047 30.2566C54.1458 29.565 54.6398 29.1698 55.2326 28.9722C55.4302 28.8734 55.7266 28.8734 56.023 28.8734C56.8134 28.9722 57.6038 29.1698 58.3942 29.6638C58.8882 29.9602 58.987 30.3554 58.987 30.8494C58.987 31.2446 58.5918 31.6398 58.1966 31.8374ZM59.2834 39.8401C59.5798 37.7653 59.8762 35.5917 60.1726 33.5169C60.2714 32.6278 60.5678 31.7386 60.7654 30.9482C60.8642 30.6518 60.963 30.3554 61.1606 30.059C61.5558 29.3674 62.4449 29.4662 62.8401 30.1578C63.0377 30.553 62.9389 30.9482 62.9389 31.3434C62.6425 34.0109 62.3461 36.5797 62.0497 39.2473C62.0497 39.4449 62.0497 39.6425 62.0497 39.8401C61.9509 40.3341 62.1485 40.5317 62.6425 40.6305C63.3341 40.7293 64.0257 41.0257 64.7173 41.3221C65.5077 41.7173 65.6065 42.5077 65.0137 43.1993C64.7173 43.4957 64.4209 43.7921 63.9269 43.6933C62.7413 43.4957 61.6546 43.2981 60.6666 42.7053C59.975 42.4089 59.481 41.8161 59.3822 40.7293C59.1846 40.6305 59.1846 40.2353 59.2834 39.8401ZM59.6786 48.5344C59.5798 47.0524 61.8521 47.25 62.5437 47.1512C64.7173 46.6572 64.6185 44.286 66.1005 44.78C67.5825 45.274 66.4957 48.732 62.7413 49.6212C61.457 49.9176 59.7774 49.9176 59.6786 48.5344ZM67.7801 49.8188C67.7801 49.8188 67.7801 49.9176 67.6813 49.9176C67.1873 51.0044 66.1993 51.4984 65.5077 51.9924C65.0137 52.0912 64.7173 51.8936 64.5197 51.696C64.3221 51.3996 64.3221 51.1032 64.4209 50.8068L64.5197 50.708C65.2113 50.0164 66.0017 49.4236 66.8909 48.9296C67.0885 48.8308 67.3849 48.9296 67.5825 49.0284C67.7801 49.3248 67.8789 49.5224 67.7801 49.8188ZM70.4477 36.7773C69.9537 37.5677 68.9657 37.5677 68.3729 36.8761C67.6813 36.0857 67.6813 34.6037 68.4717 33.9121C68.8669 33.5169 69.3609 33.4181 69.9537 33.6157C70.5465 33.7145 70.8429 34.1097 70.9417 34.6037C70.9417 35.3941 70.8429 36.1845 70.4477 36.7773ZM71.4357 31.541C71.2381 31.6398 70.9417 31.7386 70.8429 31.7386C69.5585 31.9362 68.7681 31.8374 67.7801 31.1458C66.9897 30.553 66.8909 29.7626 67.5825 29.071C68.0765 28.6758 68.5705 28.4782 69.1633 28.577C69.9537 28.6758 70.7441 28.9722 71.4357 29.3674C72.4237 29.8614 72.3249 31.047 71.4357 31.541Z" fill="white"/>
<path d="M64.8142 43.1993C64.5178 43.4957 64.2214 43.7921 63.7274 43.6933C62.5418 43.4957 61.455 43.2981 60.467 42.7053C59.7754 42.4089 59.2814 41.8161 59.1826 40.7293C59.1826 40.6305 59.1826 40.2353 59.2814 39.7413C59.5778 37.6665 59.8742 35.493 60.1706 33.4182C60.2694 32.529 60.5658 31.6398 60.7634 30.8494C60.8622 30.553 60.961 30.2566 61.1586 29.9602C61.5538 29.2686 62.443 29.3674 62.8382 30.059C63.0358 30.4542 62.937 30.8494 62.937 31.2446C62.6406 33.9122 62.3442 36.481 62.0478 39.1485C62.0478 39.3461 62.0478 39.5437 62.0478 39.7413C61.949 40.2353 62.1466 40.4329 62.6406 40.5317C63.3322 40.6305 64.0238 40.9269 64.7154 41.2233C65.2094 41.8161 65.407 42.6065 64.8142 43.1993Z" fill="#0C1949"/>
<path d="M62.8385 49.5223C61.4553 49.9175 59.7758 49.9175 59.677 48.5343C59.5782 47.0523 61.8505 47.2499 62.5421 47.1511C64.7157 46.6571 64.6169 44.2859 66.0989 44.7799C67.6797 45.1751 66.5929 48.6331 62.8385 49.5223Z" fill="#0C1949"/>
<path d="M71.4348 31.5409C71.2372 31.6397 70.9408 31.7385 70.842 31.7385C69.5576 31.9361 68.7672 31.8373 67.7792 31.1457C66.9888 30.5529 66.89 29.7625 67.5816 29.0709C68.0756 28.6757 68.5696 28.4781 69.1624 28.5769C69.9528 28.6757 70.7432 28.9721 71.4348 29.3673C72.4228 29.8613 72.324 31.0469 71.4348 31.5409Z" fill="#0C1949"/>
<path d="M58.9858 30.7505C58.9858 31.3433 58.6894 31.6397 58.1954 31.8373C57.9978 31.9361 57.7014 31.9361 57.405 32.0349C56.5158 32.2325 55.7254 32.0349 55.0338 31.6397C54.4411 31.3433 53.9471 30.9481 54.0459 30.2565C54.1447 29.5649 54.6386 29.1697 55.2314 28.9721C55.429 28.8733 55.7254 28.8733 56.0218 28.8733C56.8122 28.9721 57.6026 29.1697 58.393 29.6637C58.7882 29.8613 58.9858 30.2565 58.9858 30.7505Z" fill="#0C1949"/>
<path d="M70.446 36.7772C69.952 37.5676 68.964 37.5676 68.3712 36.876C67.6796 36.0856 67.6796 34.6036 68.47 33.912C68.8652 33.5168 69.3592 33.418 69.952 33.6156C70.5448 33.7144 70.8412 34.1096 70.94 34.6036C70.94 35.394 70.8412 36.1844 70.446 36.7772Z" fill="#0C1949"/>
<path d="M57.9975 36.2833C57.8987 37.0737 57.3059 37.5677 56.5155 37.6665C55.8239 37.6665 55.3299 37.1725 55.1323 36.3821C55.0335 35.8881 55.0335 35.2953 55.2311 34.8014C55.5275 34.1098 56.0215 33.7146 56.8119 33.8134C57.6023 33.9122 57.8987 34.4062 57.9975 35.1966C57.9975 35.4929 57.9975 35.8881 57.9975 36.2833Z" fill="#0C1949"/>
<path d="M67.7795 49.8188C67.7795 49.8188 67.7795 49.9176 67.6807 49.9176C67.1867 51.0044 66.1987 51.4984 65.5072 51.9924C65.0132 52.0912 64.7168 51.8936 64.5192 51.696C64.3216 51.3996 64.3216 51.1032 64.4204 50.8068L64.5192 50.708C65.2108 50.0164 66.0012 49.4236 66.8903 48.9296C67.0879 48.8308 67.3843 48.9296 67.5819 49.0284C67.7795 49.3248 67.8783 49.5224 67.7795 49.8188Z" fill="#0C1949"/>
<path d="M66.9888 0.0240311C73.5095 -0.371165 80.8207 4.17359 84.0811 8.81715C86.4522 12.1763 88.033 15.7331 88.8234 19.7838C89.4162 23.0442 89.3174 26.2058 88.4282 29.3674C88.3294 29.8614 88.033 30.2565 87.7366 30.6517C87.539 30.9481 86.9462 31.0469 86.6498 30.8493C85.7606 30.2565 84.8714 29.6638 83.8834 29.1698C81.3147 27.6878 78.4495 27.1938 75.4855 26.7986C72.818 26.5022 70.0516 26.107 67.384 25.8106C65.3092 25.5142 63.3332 25.3166 61.2585 25.0202C58.4921 24.625 55.6269 24.2298 52.8605 23.8346C51.3786 23.637 49.9954 23.143 48.711 22.5502C47.9206 22.2538 47.5254 21.4634 47.5254 20.673C47.723 16.4247 48.8098 12.3739 51.181 8.81715C54.1449 4.37119 58.1957 1.60482 63.432 0.419227C64.6176 0.0240307 65.8032 0.12283 66.9888 0.0240311Z" fill="#2759B9"/>
<path d="M67.5819 0.0239468C69.5578 -0.0748523 71.435 0.419143 73.3122 0.913138C73.7074 1.01194 74.0038 1.20954 74.399 1.40713C74.6954 1.50593 74.7942 2.19753 74.5966 2.49392C72.7194 5.5567 68.1747 6.54469 65.3095 3.87711C64.8155 3.38312 64.4203 2.88912 64.0251 2.29633C63.3335 1.30833 63.8275 0.320344 65.0131 0.221545C65.9023 0.122746 66.6927 0.122746 67.5819 0.0239468Z" fill="#0C1949"/>
<path d="M83.2908 19.5861C83.192 20.0801 83.1921 20.7717 82.9945 21.4633C82.9945 21.7597 82.5993 22.1549 82.2041 22.1549C81.9077 22.1549 81.4137 21.7597 81.4137 21.4633C81.2161 20.0801 81.0185 18.7957 80.8209 17.4126C80.4257 13.9546 79.0425 10.8918 77.1653 8.02664C76.8689 7.53264 76.5725 7.03865 76.3749 6.44585C76.2761 6.34705 76.3749 6.05065 76.4737 5.95186C76.6713 5.65546 76.9677 5.55666 77.2641 5.65546C77.5605 5.75426 77.8569 5.85306 78.0545 6.05065C78.4497 6.44585 78.9437 6.84105 79.2401 7.33504C81.6113 10.8918 83.0932 14.9426 83.2908 19.5861Z" fill="#0C1949"/>
<path d="M54.4418 15.9307C54.1454 15.8319 53.6514 15.4367 53.6514 15.1403C53.6514 14.6463 53.6514 14.1523 53.849 13.7571C55.0346 10.5955 56.7141 7.82916 59.2829 5.55678C59.9745 4.96399 60.6661 4.46999 61.4565 4.0748C61.7529 3.976 62.0493 3.8772 62.3457 3.8772C62.5433 3.8772 62.8397 4.17359 63.0373 4.37119C63.1361 4.46999 63.1361 4.76639 63.0373 4.86519C62.8397 5.16159 62.6421 5.55678 62.3457 5.75438C60.0733 7.53276 58.4925 9.90394 57.2081 12.3739C56.6153 13.3619 56.1213 14.4487 55.5286 15.4367C55.331 15.8319 54.837 15.9307 54.4418 15.9307Z" fill="#0C1949"/>
<path d="M66.0996 15.2389C66.5936 13.0653 66.5936 10.6941 67.5816 8.52056C67.878 7.92776 68.0756 7.23617 68.7672 6.93977C68.9648 6.84097 69.36 6.74217 69.5576 6.84097C69.7552 6.93977 69.9528 7.23617 69.9528 7.53257C70.0516 7.73017 69.9528 7.92776 69.854 8.12536C69.1624 10.3977 68.7672 12.8677 68.4708 15.2389C68.4708 15.6341 68.2732 16.0293 68.1744 16.3257C68.0756 16.7209 67.6804 16.9185 67.2852 17.0173C66.89 17.0173 66.2972 16.7209 66.1984 16.2269C66.1984 15.8317 66.1984 15.5353 66.0996 15.2389Z" fill="#0C1949"/>
<path d="M87.834 30.059C87.834 30.2566 87.7352 30.553 87.6364 30.6518C87.4388 30.7506 87.34 30.8494 87.1424 30.9482C87.0436 30.9482 86.9448 30.9482 86.846 31.047C86.5496 31.047 86.2532 31.047 85.9568 30.9482C85.9568 30.9482 85.9568 30.9482 85.858 30.9482C85.4628 30.8494 85.1664 30.7506 84.87 30.553C84.4748 30.3554 83.9808 30.1578 83.5856 29.9602C82.3012 29.4662 81.0168 28.9722 79.7324 28.6759C76.6697 27.7867 73.5081 27.2927 70.2477 26.7987C67.679 26.4035 65.209 26.4035 62.6402 26.3047C60.269 26.3047 57.9966 26.6999 55.7243 27.0951C54.1435 27.3915 52.7603 27.8855 51.3771 28.6759C50.8831 28.9722 50.2903 29.2686 49.7963 29.4662L49.0059 29.8614C48.6107 30.059 48.2155 30.2566 47.9191 30.2566C47.2275 30.4542 46.6348 30.4542 45.9432 30.2566C43.8684 29.8614 42.09 28.7747 41.0032 26.9963C40.5092 26.1071 40.3116 25.1191 40.608 24.1311C41.2008 22.3527 42.1888 20.7719 43.9672 19.8827C45.2516 19.1911 46.6348 18.4995 48.0179 18.0056C48.6107 17.808 49.3023 17.6104 49.8951 17.5116C51.9699 17.1164 54.1435 16.6224 56.4159 16.7212C57.9967 16.6224 59.775 17.0176 61.4546 17.2152C65.5054 17.808 69.4573 18.8947 73.3105 20.1791C77.6577 21.7599 81.5108 24.2299 85.2652 26.7987C86.0556 27.3915 86.6484 28.0831 87.34 28.7747C87.5376 28.9723 87.6364 29.2686 87.834 29.565C87.834 29.6638 87.834 29.8614 87.834 30.059Z" fill="#3F79CD"/>
<path d="M57.009 18.9934C61.7514 19.191 65.901 19.5862 69.9517 20.7718C70.7421 20.9694 71.4337 21.3646 72.1253 21.661C72.4217 21.7598 72.6193 21.9574 72.8169 22.2538C72.9157 22.3526 72.9157 22.649 73.0145 22.7478C73.0145 22.9454 72.7181 23.3406 72.4217 23.3406C71.8289 23.3406 71.2361 23.3406 70.6433 23.143C68.5685 22.5502 66.4938 22.155 64.3202 21.8586C63.1346 21.661 62.0478 21.4634 60.8622 21.4634C58.7874 21.4634 56.7126 21.3646 54.7367 21.4634C52.0691 21.5622 49.5003 22.0562 47.0303 23.2418C46.1411 23.637 45.3507 24.2298 45.0543 25.2178C44.9555 25.5142 44.7579 25.7118 44.6592 26.0082C44.4616 26.3046 43.9676 26.5022 43.6712 26.4034C43.276 26.3046 42.9796 26.0082 42.8808 25.613C42.782 25.2178 42.8808 24.8226 42.9796 24.4274C43.4736 22.9454 44.5604 21.9574 45.9435 21.2658C46.8327 20.8706 47.7219 20.4754 48.7099 20.2778C50.3895 19.685 55.6259 18.7958 57.009 18.9934Z" fill="#0C1949"/>
<path d="M124.886 118.583C124.886 119.472 124.886 120.263 124.787 121.152C124.787 121.349 124.787 121.646 124.787 121.843C124.689 125.005 123.898 127.969 122.317 130.834C121.626 132.118 120.638 133.205 119.452 134.094C118.069 135.082 116.686 135.873 115.105 136.466C115.105 136.466 115.006 136.466 115.006 136.564C114.907 136.564 114.908 136.564 114.809 136.663C114.611 136.762 114.512 136.762 114.315 136.861C112.339 137.454 110.363 137.849 108.288 137.849C105.126 137.849 102.064 137.948 98.902 137.75C96.6297 137.651 94.4561 137.355 92.1837 137.058C87.8365 136.367 83.4894 135.576 79.241 134.292C78.6482 134.094 78.0554 133.996 77.5614 133.699C77.3638 133.6 77.1662 133.6 77.0674 133.502C76.4747 133.205 75.9807 132.711 75.6843 132.118C75.5855 131.822 75.4867 131.526 75.3879 131.13C75.3879 131.13 75.3879 131.13 75.3879 131.032C75.3879 130.834 75.3879 130.636 75.3879 130.439C75.3879 130.34 75.3879 130.34 75.3879 130.241C75.4867 127.969 74.9927 125.795 74.6963 123.523C74.6963 122.93 74.4987 122.337 74.3011 121.843C74.2023 121.547 74.1035 121.251 74.0047 120.954C73.9059 120.658 73.5107 120.361 73.1155 120.361C71.6335 120.46 70.1515 120.559 68.7683 120.559C67.9779 120.559 67.0887 120.559 66.2983 120.559H65.9031C65.4092 120.559 64.9152 120.559 64.4212 120.559V120.757H58.8884C57.3076 120.757 55.7268 120.757 54.2449 121.053C53.5533 121.152 52.8617 121.152 52.1701 121.152C50.5893 121.152 48.9097 121.152 47.3289 121.251C46.7361 121.251 46.2421 121.251 45.6493 121.251H45.5505C43.377 121.251 41.1046 121.349 38.931 121.349C37.943 121.349 36.955 121.448 35.967 121.547C35.967 121.547 35.967 121.547 35.8682 121.547C34.979 121.646 34.0898 121.745 33.1018 121.745C32.2127 121.745 31.2247 121.745 30.3355 121.646C29.0511 121.646 28.1619 120.855 27.7667 119.571C27.5691 118.781 27.3715 118.089 27.1739 117.299C26.6799 114.532 26.1859 111.766 25.6919 108.901C25.6919 108.802 25.6919 108.703 25.6919 108.604C25.2967 103.763 24.6051 98.922 25.0991 93.982C25.0991 93.8832 25.0991 93.7844 25.0991 93.6856C25.0991 93.3892 25.0991 93.1916 25.1979 92.8952C25.6919 88.2517 26.4823 83.8057 28.1619 79.3598C29.9403 74.815 32.3115 70.7642 35.5718 67.2075C35.6706 67.2075 35.6706 67.1087 35.7694 67.0099C36.1646 66.5159 36.5598 66.1207 37.0538 65.7255C38.2394 64.5399 39.425 63.3543 40.7094 62.2675C41.895 61.2795 43.0806 60.3903 44.3649 59.5999C44.4637 59.5011 44.5625 59.4023 44.7601 59.4023C46.7361 58.1179 48.8109 57.0312 50.9845 56.142C51.9725 55.7468 52.9605 55.4504 54.0473 55.2528C54.1461 55.2528 54.2449 55.154 54.3437 55.154C54.4425 55.154 54.5413 55.0552 54.7388 55.0552C54.8376 55.0552 54.8377 55.0552 54.9365 55.0552C55.134 55.0552 55.4304 54.9564 55.7268 55.0552C57.0112 55.154 58.2956 56.2408 58.592 57.4263C58.8884 58.6119 59.1848 59.8963 59.1848 61.1807C59.1848 61.8723 59.1848 62.5639 59.1848 63.1567C59.1848 63.5519 59.1848 63.9471 59.2836 64.3423C59.4812 66.9111 60.6668 68.9858 62.8404 70.4678C64.6188 71.7522 66.5947 72.5426 68.8671 72.345C69.3611 72.345 69.8551 72.345 70.3491 72.345C72.1275 72.345 73.6095 71.851 74.9927 70.9618C75.4867 70.6654 75.9807 70.2702 76.4746 69.7762C76.771 69.5786 76.9686 69.2822 77.265 68.9858C79.0434 67.0099 80.4266 64.7375 81.217 62.1687C81.711 60.6867 82.1062 59.2047 82.0074 57.624C82.0074 56.7348 82.1062 55.8456 82.1062 54.9564C82.1062 54.66 82.3038 54.3636 82.4026 54.0672C82.5014 53.9684 82.5014 53.8696 82.6002 53.7708C82.8966 53.4744 83.2918 53.178 83.687 53.0792C83.7858 53.0792 83.8846 52.9804 83.9834 52.9804C84.3786 52.8816 84.675 52.8816 85.0702 52.8816C85.169 52.8816 85.2678 52.8816 85.3666 52.8816C85.7618 52.8816 86.157 52.8816 86.5522 53.0792C86.651 53.0792 86.651 53.0792 86.7498 53.0792C86.8486 53.0792 87.0462 53.178 87.145 53.178C88.0341 53.3756 88.9233 53.5732 89.7137 53.7708C90.5041 53.9684 91.3933 54.2648 92.1837 54.4624C93.0729 54.66 93.8633 55.0552 94.6537 55.4504C95.1477 55.7468 95.6417 56.0432 96.1357 56.3396C97.4201 57.13 98.7044 58.0191 99.9888 58.9083C100.779 59.4023 101.471 59.8963 102.261 60.4891C103.249 61.1807 104.237 62.0699 105.126 62.9591C106.114 63.8483 107.102 64.8363 107.992 65.7255C108.288 66.0219 108.584 66.4171 108.881 66.7135C109.77 67.7015 110.56 68.6894 111.351 69.7762C111.647 70.1714 111.944 70.5666 112.141 70.9618C112.833 71.9498 113.426 72.9378 114.117 73.9258L114.216 74.0246C114.315 74.2222 114.512 74.5186 114.611 74.7162C114.809 75.0126 115.006 75.309 115.105 75.7042C115.401 76.1982 115.698 76.6922 115.895 77.1862C115.895 77.285 115.994 77.3838 115.994 77.3838C116.389 78.1742 116.785 78.9646 117.081 79.7549C117.575 80.7429 117.97 81.8297 118.365 82.9165C118.662 83.6081 118.958 84.3985 119.255 85.0901C120.144 87.4613 120.835 89.7337 121.527 92.1048C121.626 92.4012 121.725 92.6976 121.823 93.0928C122.317 94.8712 122.713 96.7484 123.108 98.6256C123.503 100.602 123.799 102.676 124.096 104.652C125.084 109.395 125.084 113.939 124.886 118.583Z" fill="#F54F59"/>
<path d="M106.608 102.874C107.695 102.973 108.683 103.467 109.374 104.356C109.473 104.554 109.671 104.652 109.671 104.85C110.066 106.53 111.153 107.715 112.734 108.407C113.228 108.604 113.623 109.197 113.82 109.79C113.919 110.185 114.117 110.482 114.216 110.877C114.413 111.766 114.808 112.458 115.698 112.853C115.895 112.952 116.093 113.05 116.093 113.248C116.192 113.446 116.389 113.742 116.389 114.038C116.29 115.125 115.698 116.014 114.71 116.706C114.314 117.002 113.82 117.101 113.326 116.904C112.141 116.41 111.153 115.619 110.659 114.335C110.56 113.94 110.461 113.544 110.264 113.248C110.066 112.556 109.572 112.062 108.979 111.766C108.683 111.568 108.288 111.371 107.991 111.173C107.3 110.778 106.707 110.185 106.509 109.494C106.114 108.11 105.324 107.122 104.237 106.233C103.842 105.838 103.842 105.146 104.237 104.652C104.632 104.158 105.126 103.664 105.719 103.368C106.015 103.072 106.312 102.973 106.608 102.874Z" fill="#C42D52"/>
<path d="M87.4412 83.4106C88.3304 83.3118 89.3184 83.6082 90.01 84.2998C90.8991 85.0902 91.8871 85.3866 92.9739 84.9914C94.0607 84.5962 95.0487 84.7938 96.0367 85.4854C97.0247 86.177 98.1115 86.4734 99.2971 86.671C100.384 86.8686 100.878 87.7578 100.581 88.8446C100.483 89.3386 100.285 89.7338 99.9887 90.2278C99.6923 90.7217 99.1983 91.1169 98.6055 91.2157C97.6175 91.4133 96.6295 91.3145 95.7403 90.8205C95.5427 90.7217 95.4439 90.6229 95.2463 90.5241C94.4559 89.7338 93.5667 89.5362 92.5787 89.8326C91.3931 90.2278 90.3064 89.9314 89.3184 89.141C89.1208 89.0422 89.022 88.9434 88.8244 88.7458C88.1328 88.153 87.3424 87.8566 86.3544 88.153C85.3664 88.3506 84.8724 87.5602 84.7736 86.8686C84.7736 86.671 84.6748 86.4734 84.6748 86.2758C84.7736 84.2998 85.564 83.4106 87.4412 83.4106Z" fill="#C42D52"/>
<path d="M73.7082 104.06C73.7082 103.467 73.7082 102.874 73.7082 102.281C73.7082 101.392 74.2023 100.799 74.795 100.305C75.8818 99.6136 77.0673 99.1196 78.3517 99.6136C79.0433 99.91 79.7349 99.7124 80.3277 99.3172C80.6241 99.1196 81.0193 98.922 81.3157 98.7244C82.2049 98.2304 83.0941 98.0328 84.0821 98.428C85.1689 98.8232 86.1569 98.6256 87.1448 98.0328C87.6388 97.7364 88.3304 97.934 88.7256 98.428C88.9232 98.7244 89.2196 99.0208 89.3184 99.416C90.01 101.096 89.4172 102.38 87.8364 102.973C87.1448 103.17 86.5521 103.368 85.8605 103.269C85.3665 103.17 84.8725 103.17 84.3785 103.072C83.6869 102.973 82.9953 103.072 82.4025 103.467C82.0073 103.763 81.6121 104.06 81.1181 104.257C80.6241 104.554 80.0313 104.751 79.4385 104.554C78.0553 104.158 76.7709 104.356 75.3878 104.751C74.9926 104.85 74.5974 104.751 74.2023 104.751L74.1034 104.652C73.9058 104.455 73.807 104.356 73.6094 104.158L73.7082 104.06Z" fill="#C42D52"/>
<path d="M62.3463 89.4373C62.5439 89.5361 62.8403 89.5361 63.1367 89.6349C64.3223 90.1289 65.2115 91.018 65.3103 92.2036C65.5079 93.982 66.1995 95.2664 67.4839 96.452C68.0767 96.946 68.2743 97.7364 68.1755 98.6256C67.9779 99.6136 68.2743 100.305 68.9659 100.997C69.1635 101.194 69.4599 101.392 69.4599 101.688C69.5587 102.084 69.6575 102.479 69.5587 102.775C69.2623 103.664 68.5707 104.257 67.7803 104.554C66.9899 104.85 65.9031 104.554 65.4091 103.961C64.9151 103.368 64.5199 102.676 64.3223 101.886C64.2235 101.392 64.2235 100.898 64.2235 100.404C64.2235 99.7124 63.8283 99.1196 63.3343 98.6256C63.1367 98.428 62.9391 98.2304 62.7415 98.0328C61.8523 97.3412 61.3583 96.452 61.3583 95.2664C61.3583 93.982 60.6667 93.0928 60.0739 92.1048C59.7776 91.6108 59.8764 90.9192 60.3703 90.524C60.7655 89.9312 61.4571 89.6349 62.3463 89.4373Z" fill="#C42D52"/>
<path d="M91.7881 129.846C91.8869 129.846 91.9857 129.846 92.0845 129.846C92.9737 129.747 93.7641 130.439 94.6533 130.143C95.3449 129.846 96.0365 129.352 96.7281 129.056C97.1233 128.858 97.7161 128.759 98.1113 128.759C99.6921 128.759 101.273 128.858 102.755 128.364C103.051 128.265 103.743 128.661 103.94 129.056C104.434 129.846 104.533 130.735 104.237 131.625C104.039 132.02 103.743 132.514 103.348 132.81C102.36 133.502 101.273 133.897 99.9885 133.502C99.0005 133.205 98.3089 133.304 97.5185 133.897C97.3209 133.996 97.2221 134.095 97.0245 134.193C95.9377 134.786 94.8509 135.083 93.6653 134.589C92.7761 134.292 91.9857 134.391 91.1953 134.885C90.3061 135.379 89.5158 135.181 88.923 134.292C88.6266 133.897 88.429 133.403 88.3302 133.008C88.1326 132.119 88.5278 131.229 89.2194 130.735C90.1085 130.143 90.8989 129.846 91.7881 129.846Z" fill="#C42D52"/>
<path d="M47.6252 102.973C47.8228 103.072 48.218 103.17 48.6132 103.368C49.7 103.961 50.3916 104.85 50.688 106.036C50.9844 106.925 51.4784 107.616 52.3676 107.913C52.664 108.012 52.8616 108.209 53.158 108.308C53.8495 108.703 54.3435 109.296 54.5411 110.086C54.8375 111.371 55.4303 112.458 56.7147 113.05C57.0111 113.248 57.1099 113.742 57.0111 114.137C56.8135 114.928 56.4183 115.619 55.9243 116.113C55.4303 116.706 54.4423 116.805 53.7507 116.508C52.7628 116.113 51.9724 115.422 51.4784 114.335C51.3796 113.94 51.182 113.643 51.0832 113.248C50.7868 112.26 50.0952 111.568 49.1072 111.173C48.0204 110.778 47.23 109.988 47.0324 108.901C46.736 107.616 45.748 106.727 44.9576 105.838C44.6612 105.542 44.5624 105.146 44.76 104.751C45.254 103.862 45.9456 103.17 46.9336 102.874C47.0324 102.973 47.23 102.973 47.6252 102.973Z" fill="#C42D52"/>
<path d="M92.7763 70.5668C93.0727 70.5668 93.3691 70.5668 93.6655 70.6656C94.3571 70.6656 95.0487 70.5668 95.6415 70.1716C96.0367 69.8752 96.4319 69.6776 96.9259 69.3812C97.4199 69.0848 98.0127 68.8872 98.6055 69.0848C99.9887 69.48 101.273 69.3812 102.656 68.986C103.249 68.7884 103.842 69.1836 104.138 69.7764C104.533 70.468 104.533 71.2583 104.435 72.0487C104.336 72.5427 104.138 73.0367 103.644 73.2343C102.656 73.8271 101.569 74.4199 100.384 74.0247C99.3959 73.7283 98.5067 73.9259 97.6175 74.4199C97.2223 74.7163 96.7283 74.9139 96.3331 75.1115C95.7403 75.4079 95.0487 75.5067 94.3571 75.3091C94.1595 75.2103 93.9619 75.2103 93.7643 75.1115C92.8751 74.8151 92.0847 74.9139 91.2944 75.5067C90.504 76.0007 89.8124 76.0007 89.1208 74.8151C89.022 74.5187 88.8244 74.3211 88.7256 74.0247C88.2316 72.8391 88.6268 71.6535 89.8124 71.0608C90.2076 70.8632 90.7016 70.6656 91.1956 70.6656C91.5908 70.468 92.1835 70.5668 92.7763 70.5668Z" fill="#C42D52"/>
<path d="M38.1404 91.2158C37.844 91.117 37.2512 91.0182 36.7572 90.8206C36.362 90.7218 36.0656 90.5242 35.7692 90.2278C34.9788 89.5362 33.9908 89.4374 33.0028 89.7338C32.8052 89.8326 32.6076 89.8326 32.41 89.8326C31.8172 89.9314 31.2244 89.7338 30.7304 89.4374C30.434 89.2398 30.0389 89.0423 29.8413 88.7459C29.0509 88.0543 28.2605 87.7579 27.1737 87.8567C26.5809 87.9555 26.0869 87.3627 26.2845 86.6711C26.3833 85.8807 26.5809 85.1891 26.7785 84.3987C26.9761 83.7071 27.5689 83.2131 28.3593 83.3119C28.9521 83.4107 29.5449 83.5095 30.0389 83.7071C30.5328 83.9047 31.0268 84.2999 31.5208 84.5963C32.0148 84.8927 32.6076 84.9915 33.2004 84.8927C33.5956 84.7939 33.9908 84.7939 34.386 84.6951C34.9788 84.5963 35.5716 84.5963 36.0656 84.9915C37.35 85.7819 38.6344 86.3747 40.1164 86.5723C41.1044 86.6711 41.4995 87.5603 41.3019 88.5483C40.9067 90.4254 40.0176 91.2158 38.1404 91.2158Z" fill="#C42D52"/>
<path d="M92.3808 97.045C92.1832 93.8835 94.1592 92.2039 96.6292 91.9075C96.9256 91.9075 97.222 91.9075 97.5184 92.0063C98.21 92.3027 99.0004 92.5991 99.5932 92.9943C100.087 93.2907 100.482 93.7847 100.779 94.2787C102.162 96.8474 101.372 99.6138 98.704 100.898C96.0364 102.281 92.6772 100.404 92.3808 97.4402C92.3808 97.1438 92.3808 96.8474 92.3808 97.045ZM98.0124 97.3414C98.0124 97.2426 97.9136 97.1438 97.9136 97.1438C97.4196 97.1438 96.6292 97.6378 96.6292 98.033L96.8268 98.1318C97.5184 98.033 97.8148 97.8354 98.0124 97.3414Z" fill="#C42D52"/>
<path d="M42.0925 96.8475C41.9937 99.3175 39.7214 101.392 37.1526 101.195C34.1886 100.997 32.7066 98.8235 32.8054 96.2547C32.8054 93.9823 35.2754 91.8087 37.5478 91.9075C39.919 92.1051 42.1913 94.3775 42.0925 96.8475ZM38.6346 97.0451C38.0418 97.1439 37.449 97.5391 36.955 97.9343C37.0538 98.0331 37.0538 98.1319 37.1526 98.1319C38.0418 98.1319 38.5358 97.9343 38.7334 97.3415C38.7334 97.2427 38.6346 97.1439 38.6346 97.0451Z" fill="#C42D52"/>
<path d="M98.4068 64.2434C98.4068 66.8122 96.3321 68.887 93.7633 68.887C90.8981 68.887 89.3173 66.7134 89.1197 64.2434C88.9221 61.9711 91.5897 59.3035 93.8621 59.5011C96.4309 59.8963 98.4068 61.4771 98.4068 64.2434ZM92.4789 64.1446C93.2693 64.1446 94.0597 64.2434 94.7513 64.2434C94.8501 64.2434 94.9489 64.1446 94.9489 64.0458C94.9489 63.8482 94.9489 63.6506 94.8501 63.5518C94.4549 63.0578 93.8621 62.959 93.2693 63.0578C92.8741 63.2554 92.6765 63.7494 92.4789 64.1446L92.3801 64.2434L92.4789 64.1446Z" fill="#C42D52"/>
<path d="M81.4145 88.5482C81.5133 90.623 80.8217 91.7097 79.8338 92.4013C78.747 93.1917 77.5614 93.7845 76.5734 94.7725C76.0794 95.2665 74.795 94.8713 74.5974 94.1797C74.2023 93.0929 73.5106 92.1049 73.0166 91.117C71.6334 88.153 72.819 84.7938 76.3758 84.2998C78.6482 83.9046 80.9205 85.2878 81.4145 88.0542C81.5133 88.4494 81.4145 88.8446 81.4145 88.5482ZM78.253 88.9434C78.1542 88.153 77.4626 87.4614 76.771 87.5602C76.0794 87.659 75.5854 88.2518 75.6842 89.0422C75.6842 89.9314 76.3758 90.5242 77.1662 90.4254C77.759 90.2278 78.3518 89.635 78.253 88.9434Z" fill="#C42D52"/>
<path d="M93.6663 119.176C96.2351 119.176 98.4087 121.152 98.4087 123.622C98.4087 126.092 96.3339 128.166 93.7651 128.265C91.4927 128.265 89.1216 126.586 89.0228 123.721C88.924 121.349 91.0976 119.275 93.6663 119.176ZM92.4807 123.424C92.5795 123.523 92.7771 123.721 92.8759 123.721C93.5675 123.622 94.1603 123.523 94.8519 123.523C94.9507 123.523 95.0495 123.227 95.1483 123.128C95.1483 123.029 95.0495 122.93 95.0495 122.93C94.3579 122.239 93.4687 122.239 92.7771 122.93C92.5795 123.029 92.5795 123.227 92.4807 123.424Z" fill="#C42D52"/>
<path d="M39.3262 69.1835C40.907 69.5787 41.895 69.1835 42.9818 68.9859C43.6734 68.7883 44.365 69.1835 44.6614 69.8751C44.859 70.2703 44.9578 70.5667 45.0566 70.9619C45.1554 71.5547 45.0566 72.1475 44.6614 72.6415C43.6734 73.7283 42.4878 74.3211 41.0058 74.1235C40.7094 74.1235 40.413 74.0247 40.1166 73.9259C39.5238 73.7283 38.931 73.9259 38.437 74.2223C37.943 74.5187 37.449 74.8151 36.9551 75.1115C36.3623 75.4079 35.6707 75.6055 34.9791 75.3091C33.6947 74.8151 32.5091 74.9139 31.4223 75.7043C31.2247 75.9019 30.7307 75.7043 30.6319 75.5067C30.5331 75.3091 30.4343 75.1115 30.5331 75.0127C31.2247 73.8271 31.8175 72.6415 32.6079 71.4559C32.9043 71.0607 33.3983 70.7643 33.8923 70.7643C35.0779 70.7643 36.1647 70.5667 37.1527 69.7763C37.8442 69.0847 38.8322 68.9859 39.3262 69.1835Z" fill="#C42D52"/>
<path d="M106.41 112.754C108.584 112.655 110.955 114.928 110.856 117.299C110.758 120.46 108.485 121.844 106.312 122.14C103.249 121.844 101.471 119.769 101.569 117.2C101.668 114.829 103.348 112.754 106.41 112.754ZM107.596 117.496C107.695 116.805 107.201 116.212 106.509 116.113C105.719 116.014 105.027 116.607 105.027 117.496C105.027 118.089 105.423 118.682 106.015 118.682C106.806 118.781 107.497 118.188 107.596 117.496Z" fill="#C42D52"/>
<path d="M90.2068 109.889C89.9104 112.754 88.3296 114.137 85.8597 114.631C85.4645 114.73 85.0693 114.631 84.6741 114.532C83.2909 114.137 82.2041 113.347 81.5125 112.161C80.5245 110.482 80.6233 108.802 81.8089 107.221C82.8957 105.739 84.9705 104.949 86.7488 105.443C88.7248 105.937 90.2068 107.814 90.2068 109.889ZM85.5633 111.371C86.2549 111.272 87.0452 110.482 86.9464 109.79C86.8477 109 85.9585 108.308 85.2669 108.506C84.6741 108.604 84.0813 109.296 83.9825 109.889C83.9825 110.58 84.8717 111.47 85.5633 111.371Z" fill="#C42D52"/>
<path d="M114.215 84.1021C114.018 84.9913 113.82 85.8805 113.524 86.6709C112.437 89.5361 108.485 90.5241 106.213 88.3505C104.731 86.8685 104.335 85.1889 104.928 83.3117C105.225 82.225 106.015 81.5334 107.003 80.9406C109.374 79.4586 112.042 80.6442 113.227 82.4225C113.623 82.9165 113.919 83.6081 114.215 84.1021C114.215 84.2009 114.215 84.1021 114.215 84.1021ZM109.374 86.2757C110.165 86.1769 110.659 85.4853 110.56 84.5961C110.461 84.0033 109.967 83.6081 109.374 83.6081C108.485 83.6081 107.892 84.2997 107.991 85.0901C108.09 85.8805 108.683 86.3745 109.374 86.2757Z" fill="#C42D52"/>
<path d="M54.4422 87.0662C53.8494 87.5602 53.2566 88.0542 52.6638 88.5481C51.7746 89.2397 50.7866 89.5361 49.6998 89.5361C48.0202 89.4373 46.8347 88.647 45.9455 87.2638C44.1671 84.2998 46.4395 80.9406 49.0082 80.4466C51.6758 79.9526 54.4422 81.8298 54.6398 84.5962C54.541 85.3866 54.4422 86.177 54.4422 87.0662ZM51.2806 85.0902C51.2806 84.2998 50.6878 83.707 49.7986 83.707C49.2058 83.707 48.7118 84.1022 48.613 84.7938C48.5142 85.683 49.107 86.3746 49.8974 86.3746C50.589 86.2758 51.1818 85.7818 51.2806 85.0902Z" fill="#C42D52"/>
<path d="M61.5553 74.0248C61.5553 76.5936 59.6782 78.7672 57.1094 78.866C54.7382 78.9648 52.4658 76.7912 52.4658 74.3212C52.4658 71.7524 54.343 69.5788 56.813 69.48C59.283 69.3812 61.5553 71.5548 61.5553 74.0248ZM56.9118 75.5068C57.6034 75.6056 58.1962 75.0128 58.3938 74.42C58.5914 73.432 57.8998 72.6416 57.0106 72.6416C56.319 72.6416 55.825 73.2344 55.7262 73.926C55.5286 74.7164 56.1214 75.5068 56.9118 75.5068Z" fill="#C42D52"/>
<path d="M82.1061 71.2582C81.3157 70.0726 80.2289 69.2822 78.8457 68.9858C78.2529 68.887 77.6601 68.887 77.1661 69.2822C76.8697 69.4798 76.5733 69.7762 76.2769 69.9738C75.783 70.369 75.289 70.7642 74.795 71.1594C74.5974 71.2582 74.3998 71.4558 74.2023 71.6534C73.807 71.9498 73.6094 72.4438 73.6094 72.9378C73.6094 73.1354 73.6094 73.2342 73.6094 73.333C73.6094 73.7282 73.6094 74.1234 73.7082 74.4197C73.807 75.3089 74.2023 76.0005 74.6962 76.5933C75.6842 77.7789 77.1661 78.2729 78.3517 78.1741C79.5373 78.0753 80.6241 77.5813 81.4145 76.6921C82.6989 75.4077 83.0941 72.7402 82.1061 71.2582ZM77.7589 74.6173C77.1661 74.5185 76.7709 74.0246 76.7709 73.4318C76.8697 72.5426 77.4625 71.9498 78.2529 72.0486C78.9445 72.1474 79.4385 72.7402 79.3397 73.4318C79.3397 74.2221 78.5493 74.8149 77.7589 74.6173Z" fill="#C42D52"/>
<path d="M46.8346 121.152C46.0442 121.152 45.5502 121.152 45.0562 121.152C44.2658 121.152 43.5743 120.658 43.0803 120.065C41.2031 117.793 42.5863 114.631 44.167 113.643C46.4394 112.161 49.4034 112.853 50.7866 115.125C51.7746 116.805 51.6758 118.781 50.2926 120.263C49.8974 120.757 49.4034 121.053 48.8106 121.053C48.0202 121.152 47.2298 121.152 46.8346 121.152ZM48.3166 117.398C48.3166 116.607 47.625 115.916 46.8346 116.014C46.0442 116.014 45.4514 116.706 45.3526 117.496C45.3526 118.089 45.9454 118.682 46.7358 118.682C47.0322 118.682 47.3286 118.583 47.5262 118.484C48.0202 118.287 48.2178 117.892 48.3166 117.398Z" fill="#C42D52"/>
<path d="M102.359 122.239C103.249 122.239 104.039 122.535 104.731 123.029C105.521 123.523 106.41 123.622 107.299 123.325C107.695 123.227 108.09 123.029 108.386 123.029C108.88 123.029 109.374 123.029 109.769 123.128C110.856 123.523 111.943 124.116 113.03 124.313C113.623 124.412 114.117 125.005 114.117 125.499C114.117 126.19 113.721 126.882 113.129 127.178C112.536 127.475 111.844 127.574 111.153 127.376C110.757 127.277 110.362 127.178 110.066 126.981C109.177 126.487 108.189 126.487 107.201 126.783C106.707 126.981 106.213 126.981 105.719 126.981C105.225 126.981 104.731 126.981 104.335 126.684C103.249 125.993 102.063 125.696 100.779 125.598C100.285 125.598 99.8895 125.301 99.5931 124.807C99.0991 124.017 99.3955 122.93 100.186 122.535C100.976 122.239 101.668 122.239 102.359 122.239Z" fill="#C42D52"/>
<path d="M63.136 77.5816C64.4204 77.4828 65.3096 77.6804 66.0012 78.1744C66.9892 78.7672 67.9772 78.9648 69.064 78.4708C70.052 78.0756 71.04 78.1744 71.8303 78.6684C72.8183 79.2612 73.9051 79.36 74.8931 79.6564C75.6835 79.9528 75.9799 80.7432 75.4859 81.5335C74.9919 82.3239 73.9051 82.9167 73.0159 82.6203C72.4231 82.5215 71.9291 82.2251 71.3364 82.0275C70.546 81.7311 69.8544 81.6324 69.064 81.8299C68.57 81.9287 68.076 82.1263 67.6808 82.2251C66.8904 82.4227 66.1 82.3239 65.4084 81.8299C64.3216 81.0396 63.2348 80.6444 61.8516 80.6444C61.3576 80.6444 60.9625 80.2492 60.8637 79.7552C60.6661 79.1624 60.8637 78.4708 61.2588 78.1744C61.5552 77.9768 61.9504 77.7792 62.2468 77.6804C62.7408 77.6804 63.136 77.5816 63.136 77.5816Z" fill="#C42D52"/>
<path d="M87.7386 126.487C87.8374 127.376 86.8494 128.266 86.059 128.167C85.6638 128.167 85.2686 128.068 84.9722 127.87C84.3794 127.574 83.7866 127.179 83.2926 126.784C82.6998 126.29 82.0082 125.894 81.2178 125.796C80.8226 125.796 80.4274 125.697 80.0322 125.598C79.0442 125.4 78.155 124.906 77.661 124.116C77.0683 123.128 76.2779 122.436 75.1911 122.14C75.0923 122.14 74.9935 122.041 74.9935 121.942C74.4995 121.646 74.3019 120.954 74.4007 120.362C74.4995 119.868 75.0923 119.275 75.5863 119.275C76.0803 119.275 76.5743 119.176 77.0683 119.275C78.155 119.472 79.0442 120.065 79.7358 120.954C80.3286 121.745 80.9214 122.14 81.9094 122.239C83.2926 122.338 84.4782 123.029 85.3674 124.116C85.9602 124.709 86.7506 125.203 87.3434 125.796C87.6398 125.993 87.7386 126.29 87.7386 126.487Z" fill="#C42D52"/>
<path d="M101.866 113.248C101.965 114.434 100.977 115.323 99.9886 115.026C98.7042 114.631 97.5186 113.94 97.1234 112.655C96.5306 110.976 95.6414 109.79 93.9618 109.197C93.369 109 92.9738 108.506 92.7762 107.913C92.381 106.727 91.7883 105.542 90.9979 104.554C90.8003 104.356 90.9979 103.664 91.1955 103.467C92.0847 102.676 93.0726 102.676 93.863 103.368C94.4558 103.862 95.0486 104.455 95.2462 105.146C95.5426 106.134 96.333 106.727 97.2222 107.122C97.6174 107.32 97.9138 107.518 98.2102 107.715C98.803 108.11 99.297 108.604 99.4946 109.296C99.791 110.58 100.483 111.568 101.471 112.458C101.767 112.853 101.866 113.149 101.866 113.248Z" fill="#C42D52"/>
<path d="M41.2028 115.125C41.0052 115.125 40.7088 115.125 40.4124 115.026C39.2268 114.631 38.3376 113.841 37.8437 112.754C37.5473 112.26 37.4485 111.667 37.1521 111.173C36.9545 110.877 36.6581 110.58 36.3617 110.284C36.2629 110.185 36.0653 110.086 35.8677 110.086C34.4845 109.592 33.4965 108.703 33.1013 107.32C32.9037 106.53 32.3109 106.036 31.8169 105.344C31.4217 104.751 31.4217 104.158 31.7181 103.763C32.2121 103.17 32.9037 102.973 33.5953 103.269C34.3857 103.566 35.0773 103.961 35.3737 104.652C36.0653 106.332 37.2509 107.32 38.8316 108.012C39.4244 108.308 40.0172 108.901 40.116 109.494C40.3136 110.976 41.2028 111.964 42.1908 112.952C42.7836 113.544 42.2896 114.829 41.4992 115.125C41.4004 115.026 41.3016 115.026 41.2028 115.125Z" fill="#C42D52"/>
<path d="M54.3426 64.7375C54.4414 65.0339 54.639 65.2315 54.7378 65.5279C55.2317 66.6147 54.3426 67.6027 53.4534 67.7015C52.7618 67.8003 52.0702 67.8991 51.4774 67.6027C49.8966 67.0099 48.4146 67.0099 46.9326 67.5039C46.1422 67.8003 45.3518 67.6027 44.6602 67.1087C43.5735 66.3183 42.4867 65.9231 41.1035 65.9231C40.9059 65.9231 40.7083 65.8243 40.6095 65.7255C40.0167 65.5279 39.7203 64.5399 40.1155 63.9471C40.4119 63.4531 40.9059 63.0579 41.4987 62.9591C42.7831 62.6627 44.0675 62.6627 45.1542 63.3543C46.1422 64.0459 47.1302 64.0459 48.217 63.6507C49.3038 63.2555 50.2918 63.3543 51.2798 63.9471C52.2678 64.6387 53.3546 64.8363 54.3426 64.7375Z" fill="#C42D52"/>
<path d="M78.4509 114.73C76.5737 114.829 75.3881 114.434 74.4989 113.446C73.8073 112.655 72.9181 112.359 71.9301 112.458C71.4361 112.458 70.9421 112.458 70.4482 112.359C69.9542 112.26 69.4602 112.161 69.065 111.865C68.077 111.075 67.1878 110.185 66.0022 109.79C65.607 109.593 65.607 108.901 65.8046 108.506C66.101 107.913 66.595 107.617 67.1878 107.518C68.077 107.419 68.9662 107.518 69.6578 108.111C70.7446 109.099 72.0289 109.395 73.4121 109.296C73.6097 109.296 73.8073 109.296 74.0049 109.296C74.6965 109.296 75.2893 109.593 75.8821 110.087C76.0797 110.284 76.2773 110.482 76.4749 110.679C77.0677 111.272 77.6605 111.667 78.4509 111.766C78.6485 111.766 78.8461 111.865 79.0437 111.964C79.6365 112.26 80.0317 112.952 79.9329 113.643C79.8341 114.137 79.3401 114.631 78.7473 114.73C78.4509 114.73 78.1545 114.829 78.4509 114.73Z" fill="#C42D52"/>
<path d="M111.745 133.502C111.943 131.723 112.536 130.34 114.116 129.55C114.215 129.55 114.314 129.451 114.413 129.451C116.685 128.265 119.451 129.155 120.538 131.526C120.835 132.119 120.736 132.613 120.439 133.205C120.044 133.798 119.451 134.193 118.859 134.49C118.661 134.589 118.266 134.49 118.167 134.193C118.068 133.798 117.969 133.403 117.772 133.107C117.475 132.514 116.784 132.217 115.993 132.514C115.203 132.711 114.808 133.699 115.203 134.391C115.401 134.687 115.697 134.984 115.993 135.28C116.29 135.577 116.191 136.071 115.895 136.268C115.598 136.367 115.401 136.565 115.104 136.663C113.622 137.157 112.931 137.157 112.239 135.28C111.943 134.49 111.844 133.897 111.745 133.502Z" fill="#C42D52"/>
<path d="M45.8461 95.8593C45.5497 95.8593 45.3521 95.7605 45.0557 95.7605C44.0677 95.5629 43.3761 94.6737 43.2773 93.6858C43.2773 92.599 43.9689 91.4134 45.0557 91.3146C46.4389 91.117 47.7233 90.9194 49.1065 90.7218C49.6993 90.623 50.2921 90.9194 50.6873 91.3146C51.3789 92.105 51.6753 92.9942 51.4777 93.9822C51.3789 94.5749 50.9837 95.0689 50.2921 95.1677C48.8101 95.4641 47.3281 95.6617 45.8461 95.8593Z" fill="#C42D52"/>
<path d="M88.3302 80.0514C88.2314 80.249 88.0338 80.6442 87.7374 80.8418C86.2555 81.8298 84.7735 82.6202 83.0939 83.213C82.1059 83.5094 81.1179 83.0154 80.7227 82.0274C80.6239 81.731 80.5251 81.4346 80.4263 81.237C80.2287 80.4466 80.5251 79.6562 81.2167 79.1622C82.5011 78.3719 83.8843 77.5815 85.2675 76.8899C85.8603 76.5935 86.4531 76.6923 86.9471 77.0875C87.6386 77.6803 88.1326 78.3719 88.3302 79.261C88.429 79.4586 88.3302 79.6562 88.3302 80.0514Z" fill="#C42D52"/>
<path d="M118.365 91.3145C118.365 91.8085 118.365 92.3025 118.365 92.7965C118.365 93.8833 117.674 94.5749 116.587 94.7725C116.291 94.7725 115.994 94.8713 115.698 94.8713C114.611 94.8713 113.821 94.2785 113.722 93.1917C113.623 91.8085 113.623 90.5241 113.623 89.141C113.623 88.647 113.821 88.2518 114.018 87.7578C114.315 87.165 115.006 86.7698 115.698 86.7698C115.797 86.7698 115.895 86.7698 115.994 86.7698C117.476 87.0662 118.069 87.659 118.267 89.0422C118.267 89.3385 118.365 89.6349 118.365 89.9313C118.267 90.3265 118.267 90.8205 118.365 91.3145C118.267 91.3145 118.365 91.3145 118.365 91.3145Z" fill="#C42D52"/>
<path d="M61.1598 103.961C61.1598 104.158 61.1598 104.356 61.061 104.554C60.1718 105.838 59.1838 107.024 58.2946 108.209C57.9982 108.604 57.603 108.901 57.109 109.098C56.8126 109.197 56.3186 109.296 56.0222 109.197C54.3426 108.506 53.8486 106.826 54.8366 105.344C55.5282 104.356 56.2198 103.467 56.9114 102.578C57.603 101.688 58.4922 101.491 59.4802 101.985C59.8754 102.182 60.3694 102.479 60.6658 102.775C60.9622 103.072 61.1598 103.467 61.1598 103.961Z" fill="#C42D52"/>
<path d="M110.757 94.1797C110.757 94.3773 110.164 95.0689 109.472 95.2665C108.188 95.4641 107.002 95.6617 105.718 95.8593C105.224 95.9581 104.73 95.7605 104.335 95.6617C103.347 95.3653 102.754 94.4761 102.754 93.4881C102.853 92.3026 103.544 91.4134 104.631 91.2158C105.817 91.117 106.903 91.0182 108.089 90.7218C109.275 90.4254 110.164 91.0182 110.559 92.2038C110.658 92.5002 110.757 92.7966 110.757 93.093C110.757 93.1918 110.757 93.3893 110.757 94.1797Z" fill="#C42D52"/>
<path d="M120.638 103.763C120.638 103.961 120.638 104.257 120.44 104.553C119.65 105.739 118.86 107.023 117.97 108.11C117.773 108.407 117.378 108.604 117.081 108.901C116.291 109.395 115.402 109.395 114.71 108.703C114.414 108.407 114.117 108.011 113.821 107.517C113.525 107.122 113.525 106.529 113.821 106.134C114.71 104.85 115.501 103.565 116.489 102.281C116.884 101.787 117.477 101.589 118.069 101.688C119.057 101.787 119.946 102.281 120.44 103.17C120.539 103.269 120.539 103.467 120.638 103.763Z" fill="#C42D52"/>
<path d="M86.6506 119.868C86.6506 119.868 86.5518 120.164 86.453 120.46C86.1566 120.954 85.6626 121.35 85.1686 121.547C84.3782 121.844 83.5879 121.745 82.9951 121.152C82.0071 120.263 81.1179 119.275 80.1299 118.287C79.5371 117.595 79.4383 116.607 80.0311 115.916C80.3275 115.52 80.6239 115.125 81.0191 114.829C81.7107 114.236 82.5011 114.137 83.0939 114.73C84.1806 115.817 85.2674 116.904 86.2554 118.089C86.5518 118.484 86.7494 119.077 86.6506 119.868Z" fill="#C42D52"/>
<path d="M54.3426 87.0662C54.8366 86.9674 55.2318 86.7698 55.7258 86.7698C56.2198 86.7698 56.7138 86.8686 57.109 86.9674C57.8994 87.2638 58.3934 87.8566 58.4922 88.647C58.4922 88.7458 58.4922 88.8446 58.4922 88.9434C58.591 90.2277 58.6898 91.4133 58.6898 92.6977C58.6898 93.4881 58.2946 93.9821 57.7018 94.3773C57.0102 94.7725 56.2198 94.8713 55.4294 94.7725C54.8366 94.6737 54.2438 94.1797 54.2438 93.6857C54.0462 92.5001 53.9474 91.4133 53.8486 90.2277C53.8486 89.8325 53.8486 89.4373 53.9474 89.0422C54.145 88.4494 54.2438 87.7578 54.3426 87.0662Z" fill="#C42D52"/>
<path d="M115.599 117.496C116.587 117.496 117.377 117.99 117.575 118.88C117.871 119.966 118.069 121.152 118.266 122.337C118.266 122.634 118.266 122.93 118.168 123.227C118.069 123.523 117.97 123.819 117.772 124.017C116.784 125.005 114.216 125.104 113.623 123.128C113.326 122.14 113.129 121.053 113.03 119.966C112.832 118.682 113.623 117.694 115.006 117.595C115.302 117.496 115.401 117.496 115.599 117.496Z" fill="#C42D52"/>
<path d="M112.931 102.38C111.548 102.38 110.362 102.084 109.177 101.491C108.584 101.195 108.189 100.404 108.386 99.8113C108.485 99.3173 108.683 98.9221 108.88 98.4282C109.276 97.4402 110.165 96.9462 111.252 97.1438C112.141 97.3414 112.931 97.4402 113.82 97.7366C115.302 98.1318 115.796 99.1197 115.5 100.602C115.5 100.701 115.5 100.799 115.401 100.898C115.204 101.689 114.512 102.281 113.722 102.38C113.425 102.38 113.129 102.38 112.931 102.38Z" fill="#C42D52"/>
<path d="M104.335 79.9527C104.237 80.2491 104.237 80.5455 104.138 80.8419C103.545 81.9287 102.853 83.0155 101.865 83.8059C100.976 84.5963 99.8894 84.5963 99.0003 83.8059C98.8027 83.6083 98.6051 83.4107 98.4075 83.2131C97.9135 82.6203 97.8147 82.0275 98.1111 81.3359C98.2099 81.1383 98.2099 80.9407 98.3087 80.8419C99.0991 79.5575 99.9882 78.5695 101.174 77.6803C101.668 77.2851 102.359 77.2851 102.755 77.7791C103.249 78.2731 103.644 78.7671 104.039 79.2611C104.237 79.3599 104.237 79.7551 104.335 79.9527Z" fill="#C42D52"/>
<path d="M89.7143 94.3773C89.7143 94.4761 89.6155 94.8713 89.5167 95.2665C89.2203 96.0569 88.3311 96.6497 87.4419 96.5509C87.1455 96.5509 86.8491 96.4521 86.5527 96.3533C85.2684 95.8593 84.1816 95.1677 83.0948 94.2785C82.6008 93.7845 82.502 92.9941 82.8972 92.4013C83.2924 91.9074 83.7864 91.3146 84.2804 90.9194C84.7744 90.5242 85.3672 90.4254 85.96 90.623C87.1455 91.0182 88.2323 91.7098 89.2203 92.5001C89.5167 92.8953 89.7143 93.4881 89.7143 94.3773Z" fill="#C42D52"/>
<path d="M53.3557 102.38C52.0713 102.281 50.8857 101.985 49.7001 101.491C49.0085 101.195 48.7121 100.503 48.9097 99.8113C49.1073 99.2185 49.2061 98.7245 49.5025 98.2306C49.8977 97.539 50.6881 97.1438 51.4785 97.2426C52.3677 97.3414 53.1581 97.539 54.0473 97.7366C54.3437 97.8354 54.6401 97.9342 54.8377 98.033C55.7268 98.4282 56.3196 99.5149 56.122 100.404C55.9244 101.491 55.134 102.183 54.2449 102.38C53.9485 102.38 53.6521 102.38 53.3557 102.38Z" fill="#C42D52"/>
<path d="M54.4426 64.8362C54.245 64.0458 54.0474 63.3542 53.9486 62.5638C53.8498 61.6747 53.751 60.7855 53.751 59.9951C53.751 59.1059 54.3438 58.6119 55.0354 58.2167C56.221 57.6239 57.4065 58.0191 57.9993 59.2047C58.6909 60.5879 58.6909 62.0699 58.7897 63.453C58.7897 64.2434 58.0981 64.935 57.3077 64.935C56.3198 64.8362 55.3318 64.8362 54.4426 64.8362Z" fill="#C42D52"/>
<path d="M62.0496 108.703C62.346 108.703 62.7412 108.802 63.1364 108.901C63.6303 109 64.0256 109.296 64.2231 109.79C64.7171 111.074 65.1123 112.359 64.9147 113.742C64.7171 115.026 63.0376 116.113 61.7532 115.619C61.0616 115.421 60.5676 114.927 60.37 114.236C60.0736 113.05 59.876 111.766 59.6784 110.482C59.5796 109.691 60.2712 108.901 61.0616 108.802C61.358 108.703 61.6544 108.703 62.0496 108.703Z" fill="#C42D52"/>
<path d="M41.0054 84.201C39.9186 84.201 39.227 83.6082 38.733 82.719C38.3378 82.0274 38.4366 81.4346 38.8318 80.743C39.6222 79.5574 40.6102 78.4707 41.7958 77.5815C42.2898 77.1863 42.9814 77.2851 43.3766 77.5815C43.7718 77.8779 44.0682 78.2731 44.3646 78.5694C45.0562 79.4586 45.155 80.3478 44.4634 81.237C43.7718 82.0274 43.0802 82.8178 42.2898 83.6082C41.9934 84.0034 41.5982 84.201 41.0054 84.201Z" fill="#C42D52"/>
<path d="M124.293 112.457C124.293 113.05 124.293 113.347 124.293 113.643C124.194 114.73 123.601 115.421 122.514 115.619C121.526 115.817 120.439 115.323 120.044 114.532C119.945 114.236 119.748 114.038 119.748 113.742C119.353 112.556 119.353 111.272 119.451 109.988C119.55 109.395 120.044 108.901 120.538 108.802C120.933 108.703 121.329 108.703 121.724 108.703C123.107 108.703 123.799 109.296 124.095 110.778C124.293 111.371 124.293 112.062 124.293 112.457Z" fill="#C42D52"/>
<path d="M30.6315 110.086C30.4339 111.865 29.6435 113.149 28.0628 114.038C27.5688 114.335 26.8772 114.038 26.6796 113.446C26.482 112.853 26.2844 112.359 26.5808 111.766C26.7784 111.47 26.976 111.074 27.1736 110.778C27.47 110.086 27.3712 109.494 26.8772 108.901C26.6796 108.703 26.482 108.506 26.2844 108.308C25.6916 107.814 25.5928 107.122 25.6916 106.431C25.7904 105.739 26.482 105.245 27.1736 105.443C29.3471 105.937 30.7303 107.814 30.6315 110.086Z" fill="#C42D52"/>
<path d="M82.5997 133.205C82.5997 133.403 82.5009 133.601 82.4021 133.897C82.3033 134.193 81.8093 134.589 81.5129 134.589C80.6237 134.687 79.9321 134.193 79.6357 133.502C79.5369 133.205 79.5369 132.909 79.4381 132.613C79.0429 131.526 78.2526 131.131 77.1658 131.625C76.8694 131.723 76.6718 131.822 76.3754 131.921C76.1778 132.02 75.7826 131.723 75.6838 131.526C75.3874 130.834 75.3874 130.143 75.585 129.55C75.6838 129.253 75.9802 128.858 76.2766 128.661C77.9562 127.673 80.2285 128.167 81.5129 129.747C82.3033 130.735 82.6985 131.822 82.5997 133.205Z" fill="#C42D52"/>
<path d="M101.668 62.8606C102.261 62.8606 102.36 62.8606 102.458 62.8606C104.138 62.9594 106.806 64.3426 107.892 65.8246C108.288 66.3186 107.991 67.0102 107.398 67.2078C106.213 67.8006 104.928 67.8994 103.842 67.0102C102.854 66.3186 101.767 66.0222 100.581 65.9234C99.9885 65.9234 99.5933 65.3306 99.4945 64.7378C99.3957 64.145 99.6921 63.5522 100.186 63.2558C100.878 62.9594 101.47 62.8606 101.668 62.8606Z" fill="#C42D52"/>
<path d="M82.5001 62.9593C83.3893 63.0581 84.2785 63.3545 84.7725 64.046C85.4641 65.034 86.3532 65.7256 87.3412 66.3184C87.934 66.7136 87.934 67.6028 87.44 68.0968C86.946 68.5908 86.3532 68.8872 85.6617 68.6896C85.0689 68.492 84.2785 68.2944 83.8833 67.8004C83.0929 66.9112 82.1049 66.4172 80.9193 66.1208C80.7217 66.1208 80.5241 66.022 80.4253 65.8244C80.2277 65.6268 80.1289 65.3304 80.1289 65.1328C80.1289 64.7376 80.3265 64.4412 80.5241 64.046C80.9193 63.2557 81.5121 62.8605 82.5001 62.9593Z" fill="#C42D52"/>
<path d="M70.7435 87.165C70.5459 88.3505 70.1508 89.3385 69.1628 89.8325C68.8664 90.0301 68.3724 90.0301 68.076 89.9313C67.088 89.6349 66.1 89.2397 65.112 88.7457C64.618 88.5481 64.4204 88.0541 64.4204 87.5602C64.3216 86.5722 64.7168 85.683 65.3096 84.8926C65.5072 84.5962 65.9024 84.3986 66.2976 84.4974C67.7796 84.7938 69.064 85.2878 70.2496 86.177C70.4471 86.4734 70.5459 86.8686 70.7435 87.165Z" fill="#C42D52"/>
<path d="M46.2413 59.3036C47.2293 59.4024 48.0197 59.106 48.4149 58.118C48.8101 57.2288 49.4029 56.7348 50.3909 56.5372C50.6873 56.4384 51.2801 56.7348 51.3789 57.0312C51.4777 57.2288 51.4777 57.4264 51.5765 57.624C51.5765 57.8216 51.5765 58.0192 51.5765 58.2168C51.0825 61.9711 47.0317 63.5519 44.3641 61.6748C44.1665 61.576 44.0677 61.3784 43.9689 61.2796C43.6725 61.082 43.6725 60.4892 43.8701 60.1928C44.3641 59.5012 45.1545 59.106 46.2413 59.3036Z" fill="#C42D52"/>
<path d="M83.0938 54.7588C83.5878 55.3516 84.0818 55.9444 84.5758 56.5372C85.2674 57.4264 85.8602 58.2168 86.453 59.106C86.947 59.8963 86.7494 60.8843 86.0578 61.4771C85.6626 61.7735 85.2674 62.0699 84.8722 62.2675C84.3782 62.4651 83.8842 62.3663 83.489 62.1687C82.5998 61.6747 82.007 60.8843 81.9082 59.8963C81.9082 58.612 82.007 57.4264 82.1058 56.142C82.1058 55.4504 82.5998 55.154 83.0938 54.7588Z" fill="#C42D52"/>
<path d="M25.0986 93.3894C25.1974 92.9942 25.395 92.2038 25.5926 91.3146C25.6914 91.0182 26.1854 90.7219 26.4818 90.8206C27.5686 91.2158 28.6554 91.7098 29.5446 92.5002C30.335 93.1918 30.5326 94.1798 30.0386 95.1678C29.4458 96.2546 28.4578 96.7486 27.371 96.4522C26.9758 96.3534 26.6794 96.1558 26.2842 96.057C25.4938 95.563 25.0986 94.7726 25.0986 93.3894Z" fill="#C42D52"/>
<path d="M27.2722 103.072C25.9878 103.072 25.2962 102.578 25.1974 101.59C25.0986 101.096 25.0986 100.602 25.0986 100.108C25.0986 99.6137 25.395 99.2185 25.889 98.9221C26.5806 98.6257 27.2722 98.3293 27.9638 97.9341C28.5566 97.7365 29.1494 97.9341 29.5446 98.4281C29.7422 98.6257 29.841 98.9221 30.0386 99.1197C31.1254 100.997 29.9398 102.38 28.2602 102.874C27.7662 103.072 27.371 103.072 27.2722 103.072Z" fill="#C42D52"/>
<path d="M93.962 118.188C92.974 117.99 91.986 117.595 91.2944 116.706C90.998 116.311 90.8992 115.817 90.998 115.323C91.1956 114.532 91.6896 113.939 92.2824 113.445C92.6776 113.05 93.3692 112.951 93.8632 113.149C94.0608 113.248 94.1596 113.347 94.3572 113.445C96.7283 114.532 96.3331 116.212 94.456 117.99C94.456 118.089 94.2584 118.089 93.962 118.188Z" fill="#C42D52"/>
<path d="M64.4208 120.559C63.9268 120.559 63.0376 120.559 62.1484 119.966C61.6544 119.67 61.358 118.978 61.6544 118.484C61.9508 117.892 62.346 117.299 62.7412 116.805C63.2352 116.311 63.9268 116.212 64.6184 116.41C65.9028 116.805 66.7919 117.595 67.1871 118.88C67.3847 119.571 66.9895 120.263 66.298 120.46C66.1004 120.46 65.9028 120.559 65.7052 120.559C65.5076 120.559 65.2112 120.559 64.4208 120.559Z" fill="#C42D52"/>
<path d="M36.7565 114.927C36.7565 115.125 36.7565 115.323 36.7565 115.52C36.4601 116.212 36.0649 116.903 35.7685 117.595C35.4721 118.089 34.7805 118.287 34.2866 118.089C33.4962 117.793 32.7058 117.397 32.113 116.706C31.7178 116.311 31.619 115.52 31.8166 115.125C32.113 114.433 32.607 113.742 33.2986 113.347C33.4962 113.248 33.8914 113.05 34.089 113.149C35.0769 113.347 35.8673 113.742 36.6577 114.433C36.5589 114.532 36.6577 114.73 36.7565 114.927Z" fill="#C42D52"/>
<path d="M124.985 120.164C124.886 120.855 124.787 121.745 124.688 122.733C124.688 122.831 124.392 123.029 124.293 123.029C124.095 123.029 123.997 122.93 123.799 122.831C123.7 122.733 123.7 122.634 123.7 122.535C123.601 121.448 122.91 120.855 122.119 120.263C121.23 119.571 121.131 118.682 121.724 117.694C122.021 117.2 122.416 116.805 123.009 116.508C123.898 116.113 124.886 116.607 124.985 117.496C124.886 118.287 124.985 119.077 124.985 120.164Z" fill="#C42D52"/>
<path d="M34.9787 77.384C35.5715 77.384 35.9667 77.6803 36.1643 78.0755C36.7571 79.1623 36.6583 80.2491 35.9667 81.3359C35.8679 81.5335 35.6703 81.6323 35.4727 81.6323C34.3859 82.1263 33.0027 81.6323 32.6075 80.5455C32.5087 80.1503 32.3111 79.8539 32.3111 79.4587C32.1136 78.6683 32.6075 77.8779 33.3979 77.5815C33.7931 77.4827 34.0895 77.384 34.4847 77.2852C34.5835 77.384 34.7811 77.384 34.9787 77.384Z" fill="#C42D52"/>
<path d="M71.9296 95.1677C72.1272 95.1677 72.4236 95.1677 72.72 95.2665C73.214 95.3653 73.6092 95.6617 73.8068 96.1557C74.0044 96.6497 74.1032 97.2425 74.1032 97.8353C74.1032 98.6257 73.5104 99.3173 72.72 99.4161C72.4236 99.4161 72.1272 99.4161 71.8308 99.5149C70.25 99.6137 69.7561 98.2305 69.8549 97.2425C69.8549 97.0449 69.9536 96.8473 69.9536 96.6497C70.25 95.5629 70.744 95.1677 71.9296 95.1677Z" fill="#C42D52"/>
<path d="M91.7881 79.4587C91.7881 78.2731 92.2821 77.7791 93.2701 77.4827C93.3689 77.4827 93.4677 77.4827 93.5665 77.3839C94.9497 77.0875 96.1353 78.0755 95.9377 79.5575C95.8389 80.1503 95.6413 80.6442 95.3449 81.1382C95.2461 81.3358 94.9497 81.5334 94.6533 81.6322C93.3689 82.225 91.9857 81.4346 91.7881 80.1503C91.7881 79.9527 91.7881 79.6563 91.7881 79.4587Z" fill="#C42D52"/>
<path d="M68.8672 117.2C68.8672 116.805 68.966 116.508 68.966 116.212C69.1636 115.125 70.2504 114.434 71.3372 114.73C72.5228 115.125 73.3131 116.904 72.8192 118.089C72.3252 119.077 70.8432 119.571 69.8552 118.978C69.5588 118.781 69.2624 118.484 69.0648 118.188C68.966 117.892 68.966 117.496 68.8672 117.2Z" fill="#C42D52"/>
<path d="M111.845 73.8273C111.944 73.6297 112.042 73.3333 112.141 72.9381C112.24 72.6417 112.833 72.5429 113.129 72.7405C113.228 72.8393 113.327 72.8393 113.327 72.9381C114.512 74.3213 115.303 76.0009 116.093 77.5817C116.192 77.7793 116.093 78.2733 115.895 78.372C115.698 78.4708 115.5 78.5696 115.401 78.5696C114.414 78.4708 113.524 78.0757 112.932 77.2853C112.24 76.2973 111.845 75.2105 111.845 73.8273Z" fill="#C42D52"/>
<path d="M69.7566 74.2224C69.7566 74.42 69.7566 74.6176 69.7566 74.7164C69.559 76.1984 68.4722 76.89 66.9903 76.396C66.6939 76.2972 66.2987 76.0008 66.1011 75.7044C65.8047 75.2104 65.6071 74.6176 65.6071 74.1236C65.5083 73.2344 66.1999 72.444 67.0891 72.3452C67.4843 72.3452 67.8795 72.3452 68.2746 72.3452C69.2626 72.5428 69.7566 73.1356 69.7566 74.2224Z" fill="#C42D52"/>
<path d="M121.724 129.154C120.538 129.056 119.55 127.574 120.044 126.388C120.242 125.993 120.439 125.697 120.637 125.4C121.625 124.215 122.811 124.313 123.799 125.598C123.897 125.697 123.897 125.795 123.897 125.894C124.293 127.08 123.305 128.858 122.119 129.154C122.02 129.253 121.921 129.154 121.724 129.154Z" fill="#C42D52"/>
<path d="M95.641 56.8338C95.5422 57.6242 95.2458 58.217 94.653 58.6122C94.4554 58.711 94.2578 58.8098 94.0602 58.8098C92.9734 58.6122 92.0842 58.1182 91.195 57.4266C90.7998 57.0314 90.701 56.3398 90.8986 55.8458C91.195 55.1542 91.8866 54.759 92.5782 54.9566C93.5662 55.1542 94.4554 55.5494 95.147 56.241C95.5422 56.241 95.5422 56.6362 95.641 56.8338Z" fill="#C42D52"/>
<path d="M122.91 97.44C122.91 97.6376 122.416 97.934 122.219 97.8352C122.021 97.7364 121.725 97.5388 121.527 97.3413C121.033 96.7485 120.737 96.0569 120.638 95.2665C120.638 94.0809 120.144 92.9941 119.452 92.0061C119.057 91.4133 119.255 90.7217 119.946 90.3265C120.342 90.0301 120.934 90.2277 121.132 90.7217C121.922 92.7965 122.318 94.9701 122.812 97.1437C122.91 97.2425 122.91 97.3412 122.91 97.44Z" fill="#C42D52"/>
<path d="M33.5951 121.744C32.9035 121.646 32.3107 121.547 31.6191 121.448C31.3227 121.349 31.1251 120.756 31.3227 120.46C31.7179 119.966 32.1131 119.571 32.7059 119.472C33.9903 119.077 35.1759 119.077 36.4603 119.571C36.7567 119.67 36.9543 119.867 37.1519 120.065C37.3495 120.262 37.4482 120.559 37.4482 120.855C37.4482 120.954 37.2506 121.152 37.0531 121.25C35.9663 121.547 34.7807 121.744 33.5951 121.744Z" fill="#C42D52"/>
<path d="M56.0235 120.757C55.5295 120.757 55.2331 120.855 54.9367 120.855C54.1463 120.855 53.6523 120.361 53.6523 119.571C53.6523 118.583 54.2451 117.892 55.0355 117.694C55.3319 117.595 55.6283 117.595 55.9247 117.595C57.0115 117.496 57.7031 117.99 58.0983 119.077C58.3947 119.966 58.0983 120.658 57.2091 120.757C56.8139 120.658 56.3199 120.658 56.0235 120.757Z" fill="#C42D52"/>
<path d="M56.4169 85.2878C56.2193 85.189 56.0217 85.189 55.9229 85.0902C54.9349 84.3986 54.8361 83.4106 55.3301 82.6202C55.7253 82.0274 56.2193 81.6322 56.9109 81.3358C57.4049 81.1382 58.0965 81.3358 58.4917 81.731C58.8869 82.225 59.0845 82.719 58.8869 83.3118C58.4917 84.201 57.8001 84.8926 56.8121 85.189C56.6145 85.189 56.5157 85.189 56.4169 85.2878Z" fill="#C42D52"/>
<path d="M107.398 132.81C108.288 132.81 108.782 133.008 109.177 133.6C109.77 134.49 109.473 136.07 108.584 136.762C107.892 137.355 106.41 136.861 106.114 135.972C105.818 135.082 105.916 134.292 106.41 133.502C106.707 133.008 107.102 132.81 107.398 132.81Z" fill="#C42D52"/>
<path d="M106.015 75.803C106.015 75.1114 106.113 74.4198 106.607 73.9258C107.101 73.1354 108.188 73.1354 108.88 73.827C109.275 74.321 109.571 74.815 109.473 75.4078C109.374 75.803 109.275 76.1982 109.176 76.4946C108.88 77.285 108.188 77.6802 107.398 77.5814C106.706 77.3838 106.212 76.8898 106.113 76.1982C106.015 76.0006 106.015 75.9018 106.015 75.803Z" fill="#C42D52"/>
<path d="M105.028 101.293C105.028 101.491 105.028 101.787 104.83 101.985C104.435 102.479 103.941 102.973 103.447 103.467C102.755 104.06 101.57 103.566 101.372 102.677C101.174 102.084 101.174 101.491 101.57 100.997C101.866 100.602 102.162 100.207 102.558 100.009C103.743 99.0211 104.83 100.009 105.028 101.293Z" fill="#C42D52"/>
<path d="M74.3988 104.751C74.2012 105.838 73.5096 106.628 72.6204 107.221C72.1264 107.616 71.4348 107.616 71.0396 107.32C70.4468 106.925 70.1504 106.233 70.2492 105.542C70.5456 104.554 71.1384 103.862 72.1264 103.566C72.7192 103.368 73.2132 103.763 73.7072 104.06L73.806 104.158C74.0036 104.356 74.1024 104.455 74.3988 104.751Z" fill="#C42D52"/>
<path d="M49.7985 75.408C49.6997 75.7044 49.6997 76.1983 49.5021 76.5935C49.3045 77.0875 48.7117 77.4827 48.1189 77.4827C47.5261 77.3839 47.0321 77.0875 46.7357 76.4947C46.4393 75.8032 46.5381 75.1116 46.6369 74.5188C46.7357 73.7284 47.4273 73.2344 48.0201 73.2344C48.8105 73.2344 49.6009 73.926 49.6997 74.6176C49.7985 74.8152 49.7985 75.0128 49.7985 75.408Z" fill="#C42D52"/>
<path d="M45.5506 101.392C45.5506 101.59 45.5506 101.787 45.4518 101.985C45.1554 102.676 44.5626 103.269 43.7723 103.566C43.1795 103.763 42.6855 103.664 42.1915 103.269C41.7963 102.874 41.5987 102.281 41.7963 101.688C41.9939 100.997 42.4879 100.503 43.0807 100.108C43.4759 99.8113 43.9698 99.6136 44.4638 99.91C45.0566 100.108 45.4518 100.7 45.5506 101.392Z" fill="#C42D52"/>
<path d="M114.216 84.2012C114.216 82.9168 114.907 82.0276 115.994 81.4348C116.686 81.0396 117.575 81.336 117.97 82.0276C118.267 82.5216 118.267 82.9168 118.069 83.4108C117.674 84.1024 117.18 84.6952 116.488 84.9916C116.093 85.1892 115.698 85.1892 115.401 84.9916C115.006 84.6952 114.611 84.3988 114.216 84.2012Z" fill="#C42D52"/>
<path d="M83.1934 54.8577C83.1934 54.6601 83.1934 54.4625 83.1934 54.2649C83.1934 53.6721 83.4898 53.3757 83.9838 53.1781C85.2681 52.8817 86.4537 52.8817 87.6393 53.4745C87.7381 53.5733 87.9357 53.7709 87.9357 53.8697C87.9357 54.0673 87.8369 54.2649 87.6393 54.3637C87.2441 54.5613 86.7501 54.7589 86.2561 54.7589C85.2681 54.9565 84.1814 54.8577 83.1934 54.8577Z" fill="#C42D52"/>
<path d="M38.6346 65.1327C38.6346 65.2315 38.7334 65.3303 38.7334 65.4291C38.437 66.911 37.6466 68.0966 36.0658 68.5906C35.8682 68.6894 35.6706 68.5906 35.5718 68.5906C35.473 68.4918 35.2754 68.1954 35.2754 68.0966C35.8682 66.7134 36.955 65.8243 38.1406 64.9351C38.2394 64.9351 38.437 65.1327 38.6346 65.1327Z" fill="#C42D52"/>
<path d="M55.6276 55.0552C55.8252 55.154 56.1216 55.2528 56.1216 55.3516C56.2204 55.5492 56.3192 55.9444 56.2204 56.142C55.43 57.4264 54.0468 57.624 53.0588 56.636C52.7624 56.4384 52.8612 55.7468 53.1576 55.648C53.948 55.154 54.8372 55.0552 55.6276 55.0552Z" fill="#C42D52"/>
<path d="M102.064 136.96C102.162 137.058 102.36 137.157 102.459 137.256C102.36 137.355 102.162 137.454 102.064 137.552C101.965 137.552 101.866 137.552 101.767 137.552C101.57 137.454 101.471 137.355 101.372 137.256C101.471 137.157 101.668 137.058 101.767 136.96C101.866 136.861 101.965 136.96 102.064 136.96Z" fill="#C42D52"/>
<path d="M28.6561 80.0513C28.5573 80.2489 28.4585 80.3477 28.2609 80.2489C28.1621 80.2489 28.1621 80.0513 28.1621 80.0513C28.2609 79.8537 28.3597 79.7549 28.5573 79.8537C28.6561 79.8537 28.6561 79.9525 28.6561 80.0513Z" fill="#C42D52"/>
<path d="M77.8578 120.46C77.759 120.164 77.6602 119.867 77.6602 119.571C77.6602 119.275 77.8578 118.978 78.0554 118.781C78.6481 118.484 79.2409 118.188 79.9325 117.99C81.6121 117.595 83.3905 117.2 85.0701 116.904C87.5401 116.508 90.1088 116.014 92.5788 115.718C94.8512 115.422 97.0248 115.224 99.2972 115.026C99.6924 115.026 100.088 114.928 100.483 114.829C100.977 114.73 101.372 114.236 101.273 113.742C101.174 113.05 101.076 112.359 100.878 111.766C99.9888 108.012 99.0008 104.158 98.1116 100.404C97.2224 96.5509 96.432 92.5989 95.6416 88.647C95.5428 88.0542 95.444 87.4614 95.7404 86.9674C95.8392 86.7698 96.1356 86.4734 96.432 86.4734C96.7284 86.4734 97.0248 86.5722 97.2224 86.7698C97.5188 87.165 97.8152 87.5602 97.914 88.0542C98.5068 90.4254 99.0996 92.7965 99.6924 95.1677C101.174 101.096 102.558 106.925 104.04 112.853C104.138 113.149 104.237 113.446 104.336 113.643C104.534 114.038 105.028 114.434 105.521 114.434C105.62 114.434 105.719 114.434 105.818 114.434C108.09 114.137 110.264 113.94 112.536 113.643C113.425 113.544 114.315 113.643 115.105 114.137C115.5 114.434 115.5 115.125 115.105 115.422C114.907 115.619 114.611 115.817 114.315 115.817C113.327 116.014 112.437 116.311 111.449 116.41C110.165 116.607 108.979 116.706 107.695 116.904C105.324 117.2 103.052 117.398 100.68 117.694C98.0128 117.99 95.2464 118.287 92.5788 118.682C90.8004 118.879 89.1208 119.077 87.3425 119.373C84.6749 119.867 81.9085 120.164 79.2409 120.559C78.6481 120.559 78.2529 120.559 77.8578 120.46Z" fill="#0C1949"/>
<path d="M82.3038 104.85C82.4026 103.664 82.4026 102.479 82.1062 101.392C81.6122 99.7125 80.723 98.4281 79.3398 97.3413C78.4506 96.6497 77.5614 96.0569 76.771 95.3653C75.9806 94.7725 75.1902 94.1797 74.4986 93.4882C71.9299 91.117 70.6455 88.153 70.6455 84.5962C70.6455 84.0034 70.6455 83.4106 70.6455 82.8179C70.5467 79.9527 71.5347 77.4827 72.9178 75.0127C73.1154 74.6175 73.5106 74.2223 73.9058 74.0247C74.1034 73.9259 74.4986 73.8271 74.6962 73.9259C74.8938 74.0247 75.0914 74.3211 75.0914 74.6175C75.0914 74.9139 74.9926 75.2103 74.8938 75.5067C74.6962 76.0007 74.5974 76.3959 74.301 76.8899C72.9179 79.7551 72.8191 82.7191 73.1155 85.7818C73.313 87.7578 74.1034 89.5362 75.5854 91.0182C76.6722 92.105 77.8578 93.093 79.241 93.9821C80.4266 94.7725 81.4146 95.5629 82.4026 96.5509C83.7857 98.0329 84.5761 99.8113 84.8725 101.787C85.0701 103.17 84.8725 104.554 84.7737 105.838C84.7737 106.332 84.3785 106.727 84.1809 107.122C83.9833 107.518 83.2918 107.616 82.7978 107.419C82.4026 107.221 82.1062 106.925 82.1062 106.53C82.205 106.036 82.3038 105.443 82.3038 104.85Z" fill="#0C1949"/>
<path d="M36.6592 96.2545C36.6592 93.8833 36.6592 91.6109 36.6592 89.2397C36.6592 88.1529 36.758 87.0662 37.1532 86.0782C37.252 85.7818 37.3508 85.4854 37.5484 85.2878C37.746 85.0902 38.0424 84.8926 38.24 84.8926C38.4376 84.8926 38.734 85.0902 38.9316 85.3866C39.1292 85.5842 39.1292 85.9794 39.1292 86.177C39.1292 87.0662 39.1292 87.9553 39.1292 88.8445C39.1292 92.3025 39.1292 95.6617 39.228 99.1196C39.228 100.898 39.5244 102.578 39.722 104.356C39.8207 106.134 39.8207 107.814 40.2159 109.592C40.5123 111.371 40.7099 113.248 40.9075 115.125C40.9075 115.619 40.8087 116.113 40.8087 116.607C40.7099 117.101 40.2159 117.496 39.722 117.496C39.3268 117.496 38.9316 117.299 38.734 117.002C38.24 116.311 38.0424 115.619 38.0424 114.829C37.6472 111.371 37.1532 107.913 36.8568 104.356C36.6592 102.182 36.758 100.108 36.6592 97.9341C36.6592 97.2425 36.6592 96.7485 36.6592 96.2545Z" fill="#0C1949"/>
<path d="M50.7871 97.8353C50.5895 94.4762 51.6763 91.9074 53.751 89.8326C55.1342 88.4494 56.5174 87.0662 57.8018 85.5843C58.4934 84.8927 59.0862 84.1023 59.7778 83.4107C60.8646 82.2251 61.4574 80.7431 61.655 79.1623C61.7538 78.5695 61.7538 77.9767 61.655 77.3839C61.5562 76.5935 61.4574 75.8031 61.3586 75.1115C61.3586 74.8152 61.4574 74.5188 61.4574 74.2224C61.5562 73.926 62.149 73.6296 62.4454 73.8272C62.643 74.0248 62.9394 74.2224 63.0382 74.42C64.8165 77.4827 64.619 80.6443 62.7418 83.5095C61.9514 84.7939 60.8646 85.9795 59.7778 87.165C58.691 88.3506 57.5054 89.5362 56.3198 90.7218C54.3438 92.6978 53.3559 95.069 53.3559 97.8353C53.3559 98.4281 53.2571 99.0209 53.1583 99.6137C53.1583 99.9101 52.9607 100.207 52.7631 100.404C52.5655 100.602 52.2691 100.701 52.0715 100.799C51.7751 100.898 51.1823 100.602 51.0835 100.305C50.9847 99.9101 50.7871 99.6137 50.7871 99.2185C50.6883 98.6257 50.7871 98.0329 50.7871 97.8353Z" fill="#0C1949"/>
<path d="M46.0438 127.08L86.6502 135.181C87.737 135.379 88.4286 136.268 88.5274 137.355C88.5274 138.541 87.737 139.528 86.5514 139.726L55.7261 144.864C55.4297 144.864 55.1333 144.864 54.9357 144.864L17.6884 137.454C15.2184 136.96 15.2184 133.403 17.6884 132.909L45.1546 127.08C45.3522 127.08 45.7474 126.981 46.0438 127.08Z" fill="#BDC7F2"/>
<path d="M88.4287 137.355C88.4287 138.54 87.6383 139.528 86.5515 139.726L55.7262 144.863C55.4298 144.863 55.1334 144.863 54.9358 144.863L24.6045 138.837L39.9184 140.813C40.3135 140.813 40.7087 140.813 41.1039 140.813L85.7611 135.28C85.9587 135.28 86.1563 135.181 86.3539 135.181L86.7491 135.28C87.6383 135.379 88.4287 136.268 88.4287 137.355Z" fill="#2E3C7A"/>
<path d="M75.0904 132.119C72.6204 135.181 67.1864 133.996 63.7285 132.02C62.9381 131.526 62.3453 130.933 61.4561 131.526C60.2705 132.415 59.3813 133.502 57.9981 134.193C56.7137 134.885 53.7498 134.786 53.9474 132.613C54.0462 131.723 54.4414 131.229 54.9354 130.143C55.133 129.649 54.639 129.945 54.4414 130.044C53.2558 130.439 52.2678 131.229 51.0822 131.526C49.7978 131.921 48.0194 132.02 46.735 131.723C42.8819 130.933 46.8338 126.685 48.3158 125.499C51.4774 122.832 56.0221 121.35 60.1717 121.152C64.9141 120.954 69.7552 121.35 74.4976 121.745" fill="white"/>
<path d="M75.0904 132.119C72.6204 135.181 67.1864 133.996 63.7285 132.02C62.9381 131.526 62.3453 130.933 61.4561 131.526C60.2705 132.415 59.3813 133.502 57.9981 134.193C56.7137 134.885 53.7498 134.786 53.9474 132.613C54.0462 131.723 54.4414 131.229 54.9354 130.143C55.133 129.649 54.639 129.945 54.4414 130.044C53.2558 130.439 52.2678 131.229 51.0822 131.526C49.7978 131.921 48.0194 132.02 46.735 131.723C42.8819 130.933 46.8338 126.685 48.3158 125.499C51.4774 122.832 56.0221 121.35 60.1717 121.152C64.9141 120.954 69.7552 121.35 74.4976 121.745" stroke="#0C1949" stroke-width="2" stroke-miterlimit="10" stroke-linecap="round"/>
<path d="M0.00438943 86.177L1.38758 131.526C1.38758 132.119 1.58517 132.711 1.88157 133.205C2.57317 134.193 3.75875 134.786 5.04314 134.786L54.5415 144.962C56.5175 144.864 58.0982 143.382 58.0982 141.603L56.7151 96.2545C56.7151 95.4641 56.4187 94.7725 55.9247 94.2785C55.2331 93.4881 54.1463 93.0929 53.0595 93.0929L3.56116 82.719C1.48638 82.8178 -0.0944097 84.2998 0.00438943 86.177Z" fill="#0C1949"/>
<path d="M22.5297 119.769C23.1225 119.67 23.6165 119.571 24.2093 119.374C25.1973 118.978 25.9877 119.176 26.7781 119.868C27.1733 120.164 27.5685 120.46 27.9637 120.757C28.3589 121.053 28.7541 121.251 29.1493 121.448C29.8409 121.844 30.4337 121.448 30.6313 120.757C30.6313 120.559 30.6313 120.362 30.6313 120.164C30.7301 119.275 30.8289 118.287 30.9277 117.398C30.9277 116.904 31.1253 116.607 31.5205 116.311C32.1132 115.817 32.8048 115.422 33.3976 114.928C33.7928 114.631 34.0892 114.335 34.3856 114.038C34.682 113.643 34.682 113.149 34.2868 112.853C34.0892 112.655 33.7928 112.458 33.4964 112.359C32.706 111.964 31.9156 111.568 31.0265 111.272C30.4337 111.074 30.1373 110.679 29.9397 110.086C29.7421 109.395 29.4457 108.703 29.2481 108.012C29.1493 107.616 28.9517 107.221 28.7541 106.925C28.3589 106.332 27.7661 106.233 27.2721 106.628C26.9757 106.925 26.6793 107.221 26.2841 107.616C25.6913 108.209 25.1973 108.802 24.7033 109.395C24.5057 109.691 24.2093 109.79 23.8141 109.79C22.8261 109.691 21.8381 109.889 20.7513 109.889C19.2694 109.889 18.8742 110.679 19.6646 111.865C20.1586 112.655 20.5537 113.446 21.0477 114.137C21.3441 114.631 21.4429 115.125 21.2453 115.718C20.9489 116.607 20.7513 117.398 20.455 118.287C20.3562 118.484 20.3562 118.682 20.2574 118.88C20.1586 119.571 20.5537 120.065 21.2453 120.065C21.8381 119.868 22.1345 119.769 22.5297 119.769Z" fill="#FFCF00"/>
<path d="M29.3463 114.631C28.9511 113.742 28.4571 112.655 27.6667 111.865C27.5679 111.766 27.3703 111.568 27.1727 111.568C26.6787 111.371 26.0859 111.865 26.1847 112.458C26.1847 112.655 26.2835 112.754 26.3823 112.952C26.7775 113.742 27.1727 114.434 27.5679 115.224C27.6667 115.52 27.8643 115.718 28.1607 115.817C28.4571 116.014 28.9511 115.916 29.1487 115.718C29.3463 115.422 29.4451 115.125 29.3463 114.631Z" fill="#0C1949"/>
<path d="M24.1104 114.829C24.2092 115.224 24.4067 115.619 24.6043 115.817C24.9007 116.212 25.3947 116.311 25.6911 116.113C25.9875 115.915 26.1851 115.421 26.0863 115.026C25.9875 114.631 25.6911 114.236 25.3947 113.939C25.1971 113.742 24.9007 113.643 24.6043 113.742C24.3079 113.841 24.1104 114.038 24.1104 114.433C24.1104 114.631 24.1104 114.73 24.1104 114.829Z" fill="#0C1949"/>
<path d="M31.9173 94.2783C32.0161 93.6855 32.7077 93.2903 33.4981 93.4879H33.6957L34.98 93.7843C35.6716 93.9819 36.1656 94.5747 36.0668 95.1675C35.968 95.7603 35.2764 96.1555 34.486 95.9579H34.2884L33.0041 95.6615C32.2137 95.4639 31.8185 94.8711 31.9173 94.2783Z" fill="white"/>
<path d="M6.22879 88.8445C6.32759 88.2517 7.01918 87.8565 7.80957 88.0541H8.00717L27.1742 92.0061C27.8658 92.2036 28.3598 92.7964 28.261 93.3892C28.1622 93.982 27.4706 94.3772 26.6802 94.1796H26.4826L7.31558 90.2277C6.52519 90.0301 6.12999 89.4373 6.22879 88.8445Z" fill="white"/>
</svg>
