<svg width="27" height="23" viewBox="0 0 27 23" fill="none" xmlns="http://www.w3.org/2000/svg">
<path d="M24.6396 2.90718C23.7904 3.38301 22.8716 3.73443 21.892 3.95063C22.8483 3.24459 23.5393 2.19036 23.8056 0.982552C22.9041 1.64364 21.8914 2.15384 20.7943 2.48071C19.8133 1.56271 18.4875 1.06637 17.0788 1.18962C14.3683 1.42675 12.3697 3.87024 12.6129 6.64963C12.6477 7.04811 12.7197 7.42326 12.8394 7.7842C8.74078 7.93198 4.9516 6.24581 2.26587 3.4091C1.91349 4.19279 1.74644 5.08073 1.82662 5.99723C1.97914 7.74057 2.97887 9.20902 4.37855 9.99001C3.57046 10.0406 2.79265 9.8778 2.09891 9.55704C2.10065 9.57697 2.10239 9.59689 2.10414 9.61681C2.31767 12.0575 4.18588 13.9418 6.47014 14.2037C6.07257 14.359 5.64062 14.457 5.19373 14.4961C4.87314 14.5242 4.56935 14.5206 4.26296 14.4872C5.0599 16.4351 7.00386 17.7307 9.15437 17.5827C7.59133 19.0746 5.54405 20.0668 3.24159 20.2682C2.84327 20.3031 2.45293 20.3171 2.06969 20.3005C4.36077 21.5355 7.01817 22.1462 9.78696 21.904C18.8122 21.1144 23.0772 13.0218 22.495 6.36727C22.4758 6.1481 22.4567 5.92894 22.4287 5.72059C23.3188 4.93 24.0671 3.97114 24.6396 2.90718Z" fill="#2CAAE1"/>
</svg>
