<svg width="22" height="22" viewBox="0 0 22 22" fill="none" xmlns="http://www.w3.org/2000/svg">
<path d="M14.7158 15.5416C15.3623 16.883 15.99 18.2028 16.628 19.5234C13.1151 21.6855 7.95691 21.5353 4.41429 18.3745C0.325249 14.7343 0.0936506 9.12276 2.77957 5.32239C5.87544 0.965634 10.9948 0.379589 14.1767 1.41083C14.068 1.59204 11.7894 5.33771 11.7894 5.33771C11.7894 5.33771 11.6349 5.33422 11.5427 5.32616C10.5865 5.28266 9.85029 5.43909 9.04802 5.76039C7.27175 6.47831 5.97216 8.00084 5.59406 9.8449C5.40032 10.7615 5.45069 11.7195 5.73427 12.6076C5.97795 13.3617 6.36178 14.0478 6.89773 14.6468C7.72596 15.5625 8.74511 16.1837 9.95953 16.4605C11.1134 16.7221 12.2541 16.6613 13.3545 16.2356C13.7706 16.0813 14.1278 15.8917 14.5423 15.6368C14.6064 15.6123 14.6509 15.5761 14.7158 15.5416Z" fill="#FF492C"/>
<path d="M15.7022 4.3851C15.5233 4.18876 15.3639 4.00417 15.2046 3.81958C15.1109 3.711 15.018 3.59246 14.9141 3.48298C14.8766 3.43955 14.8391 3.39612 14.8391 3.39612C14.8391 3.39612 14.887 3.32001 14.8999 3.29102C15.1396 2.91046 15.4936 2.64028 15.8935 2.43436C16.3362 2.21209 16.8503 2.11654 17.3505 2.18037C17.995 2.2468 18.5752 2.45817 19.0405 2.92048C19.3823 3.26157 19.5429 3.66711 19.5327 4.13801C19.515 4.92949 19.1341 5.50849 18.4214 5.86774C18.0103 6.08273 17.5635 6.23437 17.1235 6.42675C16.8766 6.53564 16.6724 6.62819 16.4176 6.82674C16.1927 7.03794 16.1641 7.24625 16.1641 7.24625L19.2065 7.51242L19.0897 8.84732L14.3981 8.43686C14.3981 8.43686 14.4059 8.3472 14.4094 8.30736C14.4456 7.65804 14.5807 7.05753 14.9394 6.49666C15.2631 5.98291 15.7384 5.62297 16.287 5.36982C16.7065 5.17565 17.1542 5.01405 17.5746 4.80991C17.8327 4.69195 18.026 4.48803 18.0521 4.18917C18.0748 3.93016 17.9011 3.67404 17.6306 3.58011C16.9898 3.3534 16.2902 3.56323 15.8905 4.12051C15.8314 4.20569 15.7733 4.2809 15.7022 4.3851Z" fill="#FF492C"/>
<path d="M20.7186 14.6514L18.5334 10.1337L13.473 9.69099L10.5116 13.8086L15.6129 14.2549L17.7581 18.759L20.7186 14.6514Z" fill="#FF492C"/>
</svg>
