<svg width="67" height="77" viewBox="0 0 67 77" fill="none" xmlns="http://www.w3.org/2000/svg">
<path d="M37.5 16C26.3 21.6 23.5 32.3333 23.5 37C19.5 28.2 11.5 21.6667 8 19.5C20 15.1 24.3333 5.33333 25 1C25.4 11.4 33.5 15.3333 37.5 16Z" stroke="#0095FF" stroke-width="2" stroke-linecap="round"/>
<path d="M63.1806 42.0833C52.2917 47.5278 49.5694 57.963 49.5694 62.5C45.6806 53.9444 37.9028 47.5926 34.5 45.4861C46.1667 41.2083 50.3796 31.713 51.0278 27.5C51.4167 37.6111 59.2917 41.4352 63.1806 42.0833Z" fill="#F7578C" stroke="#F8F0E6" stroke-width="2" stroke-linecap="round"/>
<path d="M21.5455 62C14.5045 65.7333 12.7442 72.8889 12.7442 76C10.2296 70.1333 5.20031 65.7778 3 64.3333C10.5439 61.4 13.2681 54.8889 13.6872 52C13.9387 58.9333 19.0308 61.5556 21.5455 62Z" stroke="#00CEC9" stroke-width="2" stroke-linecap="round"/>
</svg>
