<svg width="160" height="50" viewBox="0 0 160 50" fill="none" xmlns="http://www.w3.org/2000/svg">
<rect width="160" height="50" rx="8" fill="#111111"/>
<path d="M40.6429 24.2559C40.6514 23.3213 40.9003 22.4042 41.3658 21.592C41.8314 20.7798 42.4982 20.0994 43.3029 19.6154C42.7999 18.8887 42.1302 18.2913 41.3491 17.8725C40.568 17.4537 39.6978 17.2256 38.8105 17.207C36.8401 16.9916 35.0865 18.3231 34.1211 18.3231C33.1556 18.3231 31.6384 17.207 30.0621 17.207C29.0231 17.241 28.0115 17.5468 27.1294 18.0934C26.2473 18.64 25.5258 19.4081 25.0378 20.3203C22.8507 24.0601 24.4861 29.5622 26.5746 32.5776C27.6189 34.0657 28.8208 35.7105 30.5153 35.6517C32.2098 35.593 32.6433 34.6727 34.456 34.6727C36.2687 34.6727 36.8795 35.6517 38.5149 35.6126C40.1503 35.5734 41.2537 34.1245 42.2389 32.6364C42.9849 31.5748 43.563 30.406 43.9531 29.1706C42.9713 28.7726 42.1316 28.092 41.5418 27.2163C40.952 26.3406 40.6389 25.3097 40.6429 24.2559ZM37.5692 15.249C38.4793 14.1526 38.9308 12.7506 38.8302 11.3329C37.4237 11.5132 36.1368 12.212 35.2244 13.2909C34.7704 13.8016 34.4233 14.3971 34.2034 15.0426C33.9835 15.688 33.8952 16.3706 33.9437 17.0504C34.6465 17.0459 35.3388 16.8811 35.9673 16.5688C36.5959 16.2565 37.1439 15.8049 37.5692 15.249ZM60.366 31.8923H55.0658L53.7654 35.6517H51.4995L56.5633 21.7692H58.908L64.0112 35.6517H61.6665L60.366 31.8923ZM55.5781 30.1692H59.7946L57.7258 24.0797L55.5781 30.1692ZM74.8481 30.5804C74.8481 33.7329 73.1536 35.7692 70.5724 35.7692C69.9253 35.8023 69.282 35.6525 68.7171 35.3372C68.1521 35.0218 67.6887 34.5538 67.3805 33.9874V39H65.2328V25.5483H67.2031V27.2126C67.5266 26.6506 67.9988 26.1874 68.5685 25.8733C69.1381 25.5592 69.7835 25.4061 70.4345 25.4308C73.0354 25.4308 74.7496 27.3888 74.7496 30.5804H74.8481ZM72.6807 30.5804C72.6807 28.6224 71.6167 27.193 70.001 27.193C68.3853 27.193 67.3214 28.5832 67.3214 30.5804C67.3214 32.5776 68.405 33.9874 70.001 33.9874C71.597 33.9874 72.6807 32.6559 72.6807 30.5804ZM86.0593 30.5804C86.0593 33.7329 84.3648 35.7692 81.7837 35.7692C81.1337 35.8038 80.4871 35.6548 79.9188 35.3394C79.3505 35.0241 78.8835 34.5554 78.572 33.9874V39H76.4441V25.5483H78.4144V27.2126C78.7507 26.6398 79.2395 26.1704 79.827 25.856C80.4145 25.5416 81.078 25.3945 81.7443 25.4308C84.3451 25.4308 86.0593 27.4476 86.0593 30.5804ZM83.892 30.5804C83.892 28.6224 82.8083 27.193 81.2123 27.193C79.6163 27.193 78.5326 28.5832 78.5326 30.5804C78.5326 32.5776 79.5966 33.9874 81.2123 33.9874C82.828 33.9874 83.892 32.6559 83.892 30.5804ZM93.4481 31.7944C93.6058 33.1846 94.9456 34.0657 96.778 34.0657C98.6104 34.0657 99.8123 33.1455 99.8123 31.9315C99.8123 30.7175 99.0439 30.1888 97.2312 29.758L95.4185 29.3077C92.8373 28.6811 91.6551 27.5063 91.6551 25.5678C91.596 23.0811 93.7634 21.5147 96.7386 21.5147C97.3398 21.4386 97.9502 21.4842 98.5332 21.6486C99.1161 21.8131 99.6596 22.0931 100.131 22.4718C100.602 22.8504 100.991 23.3199 101.275 23.852C101.559 24.3841 101.732 24.9677 101.783 25.5678H99.6744C99.5562 24.1776 98.3937 23.3552 96.6992 23.3552C95.0047 23.3552 93.8619 24.1776 93.8619 25.3133C93.8619 26.449 94.5909 26.8797 96.3839 27.2713L97.9405 27.6434C100.817 28.3091 101.999 29.4643 101.999 31.5594C101.999 34.1441 99.9109 35.7888 96.6007 35.7888C93.2905 35.7888 91.4187 34.2028 91.2807 31.6769H93.4481V31.7944ZM106.551 23.0811V25.4895H108.521V27.1343H106.551V32.6951C106.551 33.5566 106.945 33.9874 107.773 33.9874H108.462V35.6322C108.079 35.7036 107.689 35.7364 107.3 35.7301C105.329 35.7301 104.443 34.986 104.443 32.9888V27.1147H102.965V25.4699H104.443V23.0811H106.551ZM109.605 30.5217C109.563 29.8646 109.657 29.2059 109.881 28.5863C110.104 27.9666 110.454 27.3992 110.907 26.9191C111.361 26.4389 111.908 26.0562 112.516 25.7946C113.124 25.5329 113.78 25.3979 114.442 25.3979C115.105 25.3979 115.76 25.5329 116.368 25.7946C116.976 26.0562 117.524 26.4389 117.977 26.9191C118.43 27.3992 118.78 27.9666 119.004 28.5863C119.228 29.2059 119.322 29.8646 119.279 30.5217C119.322 31.1787 119.228 31.8374 119.004 32.4571C118.78 33.0767 118.43 33.6441 117.977 34.1243C117.524 34.6045 116.976 34.9872 116.368 35.2488C115.76 35.5104 115.105 35.6454 114.442 35.6454C113.78 35.6454 113.124 35.5104 112.516 35.2488C111.908 34.9872 111.361 34.6045 110.907 34.1243C110.454 33.6441 110.104 33.0767 109.881 32.4571C109.657 31.8374 109.563 31.1787 109.605 30.5217ZM117.112 30.5217C117.112 28.3287 116.127 27.0559 114.413 27.0559C112.698 27.0559 111.694 28.3678 111.694 30.5217C111.694 32.6755 112.698 34.007 114.413 34.007C116.127 34.007 117.21 32.8713 117.21 30.5804L117.112 30.5217ZM121.053 25.4895H123.023V27.2126C123.161 26.6765 123.478 26.2027 123.921 25.8685C124.365 25.5342 124.91 25.3592 125.466 25.372C125.702 25.3528 125.939 25.3528 126.176 25.372V27.3301C125.868 27.2429 125.549 27.2033 125.23 27.2126C124.68 27.191 124.144 27.3837 123.735 27.7495C123.327 28.1153 123.078 28.6253 123.043 29.1706V35.4951H121.072L121.053 25.4895ZM135.889 32.6168C135.657 33.5744 135.084 34.4164 134.277 34.9883C133.47 35.5602 132.482 35.8236 131.495 35.7301C130.823 35.7601 130.151 35.6445 129.528 35.3912C128.904 35.138 128.344 34.7532 127.885 34.2635C127.426 33.7738 127.079 33.1908 126.869 32.5549C126.659 31.9189 126.59 31.2453 126.668 30.5804C126.59 29.9214 126.654 29.2535 126.855 28.6208C127.056 27.9882 127.391 27.4053 127.836 26.9109C128.281 26.4165 128.827 26.0218 129.438 25.7532C130.049 25.4845 130.71 25.3479 131.377 25.3524C132.023 25.3338 132.665 25.4538 133.26 25.7042C133.855 25.9546 134.388 26.3296 134.824 26.8035C135.26 27.2774 135.588 27.8392 135.785 28.4504C135.982 29.0617 136.045 29.708 135.968 30.3455V31.0504H128.717V31.1874C128.688 31.5322 128.727 31.8794 128.833 32.2091C128.939 32.5387 129.109 32.8443 129.335 33.1082C129.56 33.3721 129.835 33.5891 130.145 33.7467C130.455 33.9043 130.794 33.9994 131.141 34.0266H131.476C131.969 34.0851 132.467 33.9781 132.892 33.7226C133.317 33.4672 133.644 33.0779 133.82 32.6168H135.889ZM128.816 29.621H133.919C133.938 29.3005 133.892 28.9794 133.785 28.6765C133.678 28.3736 133.511 28.0948 133.295 27.8563C133.079 27.6177 132.817 27.4242 132.525 27.2868C132.233 27.1494 131.917 27.0709 131.594 27.0559H131.417C131.075 27.0507 130.736 27.1133 130.42 27.2402C130.103 27.367 129.815 27.5554 129.573 27.7944C129.331 28.0333 129.139 28.318 129.009 28.6317C128.879 28.9454 128.813 29.2817 128.816 29.621ZM55.322 11.3329C56.1072 11.2787 56.8822 11.5339 57.4796 12.0432C58.0769 12.5525 58.4485 13.2751 58.5139 14.0545C58.5436 14.2492 58.5436 14.4473 58.5139 14.642C58.5735 15.077 58.5348 15.5198 58.4006 15.9382C58.2665 16.3566 58.0403 16.74 57.7384 17.0606C57.4365 17.3813 57.0665 17.631 56.6554 17.7918C56.2442 17.9526 55.8022 18.0204 55.3614 17.9902H52.8984V11.3329H55.322ZM53.9624 17.0504H55.2234C55.7783 17.0774 56.3218 16.8877 56.7379 16.5218C57.1539 16.156 57.4094 15.6429 57.4499 15.0923C57.4602 14.9489 57.4602 14.8049 57.4499 14.6615C57.5177 14.1098 57.3662 13.5536 57.0277 13.1111C56.6892 12.6687 56.1903 12.3749 55.6372 12.2923C55.5065 12.2738 55.3738 12.2738 55.2431 12.2923H53.9624V17.0504ZM59.6567 15.4839C59.6269 15.1715 59.6592 14.8563 59.752 14.5563C59.8448 14.2563 59.9961 13.9774 60.1974 13.7355C60.3987 13.4937 60.6459 13.2936 60.9251 13.1468C61.2042 12.9999 61.5097 12.9092 61.8241 12.8797C62.1374 12.8501 62.4536 12.8825 62.7542 12.9749C63.0549 13.0673 63.3342 13.218 63.576 13.4182C63.8178 13.6185 64.0173 13.8643 64.163 14.1415C64.3087 14.4188 64.3978 14.722 64.4249 15.0336C64.4448 15.183 64.4448 15.3344 64.4249 15.4839C64.4877 16.1149 64.2956 16.7447 63.891 17.235C63.4864 17.7252 62.9023 18.0356 62.2674 18.0979C61.953 18.1288 61.6356 18.0978 61.3333 18.0067C61.031 17.9157 60.7496 17.7663 60.5054 17.5672C60.0121 17.1652 59.6997 16.5848 59.637 15.9538C59.6534 15.7978 59.66 15.6408 59.6567 15.4839ZM63.4201 15.4839C63.4201 14.3874 62.9275 13.7608 62.0605 13.7608C61.1936 13.7608 60.6813 14.3874 60.6813 15.4839C60.6813 16.5804 61.1936 17.207 62.0605 17.207C62.9275 17.207 63.4201 16.5804 63.4201 15.4839ZM70.7892 17.9902H69.7646L68.7203 14.2699L67.6563 17.9902H66.6317L65.2328 12.9385H66.2574L67.1637 16.8545L68.208 12.9385H69.1538L70.2178 16.8545L71.1044 12.9385H72.1093L70.7892 17.9902ZM73.3703 12.958H74.3358V13.7804C74.4612 13.495 74.6725 13.2551 74.9406 13.0938C75.2088 12.9325 75.5206 12.8577 75.8332 12.8797C76.0513 12.861 76.2708 12.886 76.4789 12.9532C76.6871 13.0204 76.8795 13.1283 77.0449 13.2708C77.2102 13.4132 77.3451 13.5871 77.4416 13.7823C77.5381 13.9775 77.5942 14.1899 77.6066 14.407V18.049H76.6017V14.9748C76.6017 14.172 76.2667 13.7804 75.4983 13.7804C75.1932 13.7698 74.8961 13.8788 74.6712 14.0839C74.4464 14.2891 74.3117 14.5739 74.2964 14.8769V18.0098H73.2915V12.958H73.3703ZM79.2813 11H80.2862V18.0098H79.2813V11ZM81.7443 15.4839C81.6842 14.8582 81.8767 14.2343 82.2795 13.7496C82.6822 13.2649 83.2623 12.959 83.892 12.8993C84.5217 12.8396 85.1494 13.0309 85.6372 13.4311C86.1249 13.8314 86.4327 14.4078 86.4928 15.0336C86.5321 15.1811 86.5321 15.3363 86.4928 15.4839C86.5254 15.7953 86.4956 16.1101 86.4051 16.41C86.3146 16.7099 86.1652 16.989 85.9655 17.2311C85.7658 17.4733 85.5198 17.6737 85.2416 17.8208C84.9635 17.9679 84.6588 18.0587 84.3451 18.0881C83.7111 18.1485 83.0787 17.9584 82.5846 17.559C82.0905 17.1596 81.7745 16.583 81.7049 15.9538C81.6989 15.7962 81.7121 15.6384 81.7443 15.4839ZM85.4682 15.4839C85.4682 14.3874 84.9756 13.7608 84.1087 13.7608C83.2417 13.7608 82.7295 14.3874 82.7295 15.4839C82.7295 16.5804 83.2417 17.207 84.1087 17.207C84.9756 17.207 85.3894 16.5804 85.3894 15.4839H85.4682ZM87.5568 16.5804C87.5568 15.6601 88.2267 15.1315 89.5271 15.0923H90.8867V14.5636C90.8867 14.035 90.5517 13.7217 89.8621 13.7217C89.1725 13.7217 88.9163 13.9371 88.8178 14.2699H87.6553C87.7735 13.4084 88.5814 12.8601 89.7439 12.8601C90.9064 12.8601 91.7142 13.4867 91.7142 14.5636V18.0098H90.7487V17.3049C90.5883 17.5619 90.3605 17.7706 90.0897 17.9086C89.819 18.0466 89.5155 18.1086 89.2119 18.0881C88.8101 18.1266 88.4093 18.0064 88.0959 17.7536C87.7825 17.5008 87.5818 17.1357 87.5371 16.7371L87.5568 16.5804ZM90.8079 16.1301V15.7189H89.5666C88.8572 15.7189 88.542 15.993 88.542 16.4434C88.542 16.8937 88.936 17.1483 89.4877 17.1483C89.6457 17.1645 89.8054 17.1494 89.9574 17.1039C90.1095 17.0585 90.251 16.9835 90.3738 16.8834C90.4965 16.7832 90.5981 16.6599 90.6726 16.5205C90.7471 16.3811 90.7931 16.2285 90.8079 16.0713V16.1301ZM93.1329 15.4839C93.1329 13.8783 93.9407 12.8797 95.2411 12.8797C95.5571 12.8683 95.8698 12.947 96.1422 13.1066C96.4145 13.2663 96.6352 13.5001 96.778 13.7804V11H97.7829V18.0098H96.8371V17.207C96.6807 17.4845 96.4515 17.7148 96.174 17.8734C95.8965 18.032 95.5809 18.1129 95.2608 18.1077C93.9407 18.1077 93.1329 17.0504 93.1329 15.4643V15.4839ZM94.1574 15.4839C94.1574 16.5413 94.65 17.1678 95.4973 17.1678C96.3445 17.1678 96.8568 16.5217 96.8568 15.4839C96.8568 14.4462 96.3445 13.7804 95.4973 13.7804C94.65 13.7804 94.0786 14.407 94.0786 15.4839H94.1574ZM102.039 15.4839C102.009 15.1741 102.041 14.8614 102.133 14.5639C102.225 14.2663 102.375 13.9896 102.574 13.7496C102.773 13.5096 103.018 13.311 103.295 13.1651C103.572 13.0192 103.875 12.9289 104.187 12.8993C104.498 12.8697 104.813 12.9015 105.112 12.9927C105.412 13.084 105.69 13.233 105.932 13.4311C106.173 13.6293 106.373 13.8728 106.52 14.1478C106.667 14.4227 106.758 14.7237 106.787 15.0336C106.827 15.1811 106.827 15.3363 106.787 15.4839C106.82 15.7953 106.79 16.1101 106.7 16.41C106.609 16.7099 106.46 16.989 106.26 17.2311C106.06 17.4733 105.814 17.6737 105.536 17.8208C105.258 17.9679 104.953 18.0587 104.64 18.0881C104.006 18.1485 103.373 17.9584 102.879 17.559C102.385 17.1596 102.069 16.583 101.999 15.9538C101.954 15.801 101.928 15.6432 101.921 15.4839H102.039ZM105.763 15.4839C105.763 14.3874 105.27 13.7608 104.403 13.7608C103.536 13.7608 103.024 14.3874 103.024 15.4839C103.024 16.5804 103.536 17.207 104.403 17.207C105.27 17.207 105.645 16.5804 105.645 15.4839H105.763ZM108.127 12.958H109.112V13.7804C109.235 13.4932 109.446 13.2516 109.715 13.09C109.984 12.9284 110.297 12.8548 110.61 12.8797C110.827 12.861 111.045 12.8861 111.252 12.9535C111.459 13.0209 111.65 13.1292 111.814 13.2718C111.978 13.4145 112.111 13.5886 112.206 13.7837C112.3 13.9787 112.354 14.1908 112.363 14.407V18.049H111.299V14.9748C111.299 14.172 110.945 13.7804 110.196 13.7804C109.89 13.7744 109.594 13.8845 109.367 14.0882C109.14 14.2919 108.999 14.574 108.974 14.8769V18.0098H107.97L108.127 12.958ZM118.097 11.7049V12.9972H119.181V13.8392H118.058V16.4238C118.058 16.9329 118.274 17.1678 118.787 17.1678H119.141V17.9902C118.958 18.0009 118.773 18.0009 118.59 17.9902C117.486 17.9902 117.033 17.579 117.033 16.6196V13.8392H116.245V12.9972H117.073V11.7049H118.097ZM120.56 11H121.545V13.7804C121.675 13.4812 121.898 13.2318 122.183 13.0694C122.467 12.907 122.796 12.8405 123.122 12.8797C123.566 12.8634 124 13.0198 124.331 13.3159C124.662 13.6119 124.864 14.0243 124.895 14.4657V18.0098H123.87V14.9748C123.87 14.172 123.496 13.7804 122.787 13.7804C122.471 13.7532 122.157 13.8511 121.913 14.0528C121.67 14.2545 121.516 14.5437 121.486 14.8573V17.9902H120.501L120.56 11ZM130.609 16.6196C130.492 17.0861 130.206 17.4936 129.807 17.7644C129.407 18.0352 128.921 18.1504 128.441 18.0881C127.831 18.1041 127.239 17.881 126.793 17.4671C126.347 17.0531 126.083 16.4815 126.057 15.8755C126.036 15.7525 126.036 15.6266 126.057 15.5035C125.973 14.8966 126.132 14.2809 126.501 13.7898C126.869 13.2987 127.418 12.9717 128.028 12.8797H128.382C129.801 12.8797 130.629 13.8587 130.629 15.4252V15.758H127.062C127.046 15.9305 127.064 16.1044 127.116 16.2697C127.168 16.4351 127.252 16.5886 127.364 16.7215C127.475 16.8544 127.612 16.964 127.767 17.0439C127.922 17.1239 128.09 17.1727 128.264 17.1874H128.402C128.64 17.2172 128.882 17.1754 129.097 17.0672C129.311 16.959 129.488 16.7894 129.604 16.5804L130.609 16.6196ZM127.062 15.014H129.604C129.62 14.8539 129.604 14.6923 129.555 14.5387C129.507 14.3852 129.428 14.2429 129.324 14.1204C129.219 13.9979 129.09 13.8977 128.945 13.8258C128.8 13.7539 128.642 13.7118 128.481 13.7021C128.307 13.6995 128.134 13.7316 127.973 13.7966C127.811 13.8616 127.665 13.9581 127.541 14.0805C127.418 14.2028 127.321 14.3485 127.256 14.5088C127.19 14.6692 127.158 14.841 127.161 15.014H127.062Z" fill="white"/>
</svg>
