<svg xmlns="http://www.w3.org/2000/svg" width="20" height="20" viewBox="0 0 20 20" fill="none">
  <path d="M12.6757 3.43243H18.5135M18.5135 3.43243L16.0811 5.86486M18.5135 3.43243L16.0811 1M2.94595 2.45946H6.83784L8.78378 7.32432L6.35135 8.78378C7.39336 10.8966 9.10338 12.6066 11.2162 13.6486L12.6757 11.2162L17.5405 13.1622V17.0541C17.5405 17.5702 17.3355 18.0651 16.9706 18.43C16.6057 18.795 16.1107 19 15.5946 19C7.74076 18.5232 1.47676 12.2592 1 4.40541C1 3.88931 1.20502 3.39435 1.56995 3.02941C1.93489 2.66448 2.42985 2.45946 2.94595 2.45946Z" stroke="#0099FF" stroke-width="2" stroke-linecap="round" stroke-linejoin="round"/>
</svg>