<svg width="30" height="30" viewBox="0 0 30 30" fill="none" xmlns="http://www.w3.org/2000/svg">
<path opacity="0.4" d="M30 9V21.285C30 26.745 26.745 30 21.285 30H8.715C3.255 30 0 26.745 0 21.285V9.015L30 9Z" fill="#0555FF"/>
<path d="M10.5014 23.6251C10.3364 23.6251 10.1564 23.5801 10.0064 23.5051C8.85141 22.9201 7.86141 22.0501 7.14141 20.9701C6.54141 20.0701 6.54141 18.9151 7.14141 18.0151C7.86141 16.9351 8.85141 16.0651 10.0064 15.4951C10.5614 15.2101 11.2364 15.4501 11.5214 16.0051C11.8064 16.5601 11.5814 17.2351 11.0114 17.5201C10.2014 17.9251 9.51141 18.5401 9.01641 19.2901C8.92641 19.4251 8.92641 19.6051 9.01641 19.7551C9.51141 20.5051 10.2014 21.1201 11.0114 21.5251C11.5664 21.8101 11.7914 22.4851 11.5214 23.0401C11.3114 23.4001 10.9064 23.6251 10.5014 23.6251Z" fill="#0555FF"/>
<path d="M19.8158 23.6251C19.3958 23.6251 19.0058 23.4001 18.8108 23.0101C18.5258 22.4551 18.7508 21.7801 19.3208 21.4951C20.1308 21.0901 20.8208 20.4751 21.3158 19.7251C21.4058 19.5901 21.4058 19.4101 21.3158 19.2601C20.8208 18.5101 20.1308 17.8951 19.3208 17.4901C18.7658 17.2051 18.5408 16.5301 18.8108 15.9751C19.0958 15.4201 19.7708 15.1951 20.3258 15.4651C21.4808 16.0501 22.4708 16.9201 23.1908 18.0001C23.7908 18.9001 23.7908 20.0551 23.1908 20.9551C22.4708 22.0351 21.4808 22.9051 20.3258 23.4751C20.1458 23.5801 19.9808 23.6251 19.8158 23.6251Z" fill="#0555FF"/>
<path d="M30 8.715V9L0 9.015V8.715C0 3.255 3.255 0 8.715 0H21.285C26.745 0 30 3.255 30 8.715Z" fill="#0555FF"/>
</svg>
