<svg width="30" height="30" viewBox="0 0 30 30" fill="none" xmlns="http://www.w3.org/2000/svg">
<path opacity="0.4" d="M30 21.7501V26.2501C30 28.5001 28.5 30.0001 26.25 30.0001H6C6.615 30.0001 7.245 29.9101 7.83 29.7151C7.995 29.6551 8.15998 29.5951 8.32498 29.5201C8.84998 29.3101 9.36001 29.0101 9.81001 28.6201C9.94501 28.5151 10.095 28.3801 10.23 28.2451L10.29 28.1851L20.49 18.0001H26.25C28.5 18.0001 30 19.5001 30 21.7501Z" fill="#0555FF"/>
<path opacity="0.6" d="M24.5541 13.9351L20.4891 18.0001L10.2891 28.1851C11.3391 27.1051 11.9991 25.6201 11.9991 24.0001V9.51006L16.0641 5.44506C17.6541 3.85506 19.7841 3.85506 21.3741 5.44506L24.5541 8.62507C26.1441 10.2151 26.1441 12.3451 24.5541 13.9351Z" fill="#0555FF"/>
<path d="M8.25 0.00012207H3.75C1.5 0.00012207 0 1.50012 0 3.75012V24.0001C0 24.4051 0.0449799 24.8101 0.11998 25.2001C0.16498 25.3951 0.209989 25.5901 0.269989 25.7851C0.344989 26.0101 0.419995 26.2351 0.509995 26.4451C0.524994 26.4601 0.525009 26.4751 0.525009 26.4751C0.540009 26.4751 0.540009 26.4751 0.525009 26.4901C0.735009 26.9101 0.974995 27.3151 1.25999 27.6901C1.42499 27.8851 1.59002 28.0651 1.75502 28.2451C1.92002 28.4251 2.1 28.5751 2.295 28.7251L2.31001 28.7401C2.68501 29.0251 3.08999 29.2651 3.50999 29.4751C3.52499 29.4601 3.52501 29.4601 3.52501 29.4751C3.75001 29.5801 3.975 29.6551 4.215 29.7301C4.41 29.7901 4.60502 29.8351 4.80002 29.8801C5.19002 29.9551 5.595 30.0001 6 30.0001C6.615 30.0001 7.245 29.9101 7.83 29.7151C7.995 29.6551 8.15998 29.5951 8.32498 29.5201C8.84998 29.3101 9.36001 29.0101 9.81001 28.6201C9.94501 28.5151 10.095 28.3801 10.23 28.2451L10.29 28.1851C11.34 27.1051 12 25.6201 12 24.0001V3.75012C12 1.50012 10.5 0.00012207 8.25 0.00012207ZM6 26.2501C4.755 26.2501 3.75 25.2451 3.75 24.0001C3.75 22.7551 4.755 21.7501 6 21.7501C7.245 21.7501 8.25 22.7551 8.25 24.0001C8.25 25.2451 7.245 26.2501 6 26.2501Z" fill="#0555FF"/>
</svg>
