<svg width="22" height="22" viewBox="0 0 22 22" fill="none" xmlns="http://www.w3.org/2000/svg">
<path d="M15.7813 17.995H6.38125C5.96125 17.995 5.49125 17.665 5.35125 17.265L1.21125 5.685C0.621254 4.025 1.31125 3.515 2.73125 4.535L6.63125 7.325C7.28125 7.775 8.02125 7.545 8.30125 6.815L10.0613 2.125C10.6213 0.625 11.5513 0.625 12.1113 2.125L13.8713 6.815C14.1513 7.545 14.8913 7.775 15.5313 7.325L19.1913 4.715C20.7513 3.595 21.5013 4.165 20.8613 5.975L16.8213 17.285C16.6713 17.665 16.2013 17.995 15.7813 17.995Z" stroke="#0099FF" stroke-width="1.5" stroke-linecap="round" stroke-linejoin="round"/>
<path d="M5.58105 21.015H16.5811" stroke="#0099FF" stroke-width="1.5" stroke-linecap="round" stroke-linejoin="round"/>
<path d="M8.58105 13.015H13.5811" stroke="#0099FF" stroke-width="1.5" stroke-linecap="round" stroke-linejoin="round"/>
</svg>
