<svg width="51" height="50" viewBox="0 0 51 50" fill="none" xmlns="http://www.w3.org/2000/svg">
<path d="M49.9532 26.3679C49.9532 26.3934 49.9532 26.4061 49.9532 26.4315C49.9532 26.546 49.9151 27.2331 49.7751 28.2509C49.7624 28.34 49.7496 28.4291 49.7369 28.5181C49.7242 28.6454 49.6988 28.7726 49.6733 28.9125C49.1517 32.1824 48.0066 35.2741 46.3144 38.0223C46.3144 38.035 46.3017 38.035 46.3017 38.0477C46.1236 38.3531 45.9327 38.6457 45.7292 38.9384C44.7876 40.3379 43.7189 41.6357 42.5102 42.8062C41.9504 43.366 41.2506 43.9894 40.6526 44.4602C40.2455 44.791 39.8256 45.0963 39.4058 45.4017C39.3803 45.4144 39.3676 45.4399 39.3422 45.4526L39.2913 45.4908C39.2149 45.5417 39.1513 45.5925 39.075 45.6434C38.7951 45.8343 38.5024 46.0251 38.1844 46.2287C38.1716 46.2414 38.1589 46.2414 38.1462 46.2541C37.9935 46.3559 37.8281 46.445 37.6627 46.5468C37.5864 46.5977 37.51 46.6358 37.4337 46.674C37.3701 46.7122 37.3065 46.7503 37.2428 46.7885C37.1919 46.814 37.1411 46.8394 37.0902 46.8776C36.1105 47.4119 35.0799 47.8954 34.0239 48.3026C33.744 48.4171 33.5404 48.4934 33.4132 48.5316L33.2223 48.5952L33.0315 48.6588C33.0188 48.6588 33.0188 48.6588 33.0061 48.6715L32.9679 48.6842C32.8788 48.7097 32.7516 48.7606 32.6625 48.786L32.6244 48.7988C32.6116 48.7988 32.5989 48.8115 32.5862 48.8115L32.3699 48.8751C32.2808 48.9005 32.1791 48.9387 32.09 48.9642L31.8228 49.0151C31.7719 49.0278 31.7337 49.0405 31.6828 49.0532C31.6701 49.0532 31.6574 49.0659 31.6447 49.0659C31.6319 49.0659 31.6065 49.0787 31.5938 49.0787C31.5683 49.0914 31.5429 49.0914 31.5174 49.1041L31.2503 49.1805C31.1866 49.1932 31.0976 49.2186 31.0212 49.2441C30.9449 49.2568 30.8813 49.2822 30.805 49.295H30.7922C30.7413 49.3077 30.7032 49.3204 30.6523 49.3331C30.5632 49.3586 30.4742 49.3713 30.3978 49.3968L30.2197 49.4349C30.1306 49.4476 30.0543 49.4731 29.9652 49.4858C29.9525 49.4858 29.9398 49.4858 29.9143 49.4985C29.8507 49.5113 29.7871 49.524 29.7235 49.5367L29.609 49.5621L29.469 49.5876C29.4563 49.5876 29.4563 49.5876 29.4436 49.5876L29.3927 49.6003C29.3672 49.6003 29.3418 49.613 29.3164 49.613C29.2527 49.6258 29.1764 49.6385 29.1128 49.6512C29.0619 49.6639 29.0237 49.6639 28.9855 49.6767C28.9092 49.6894 28.8329 49.7021 28.7565 49.7148L28.5657 49.7403C28.5275 49.7403 28.4893 49.753 28.4512 49.753C28.3876 49.7657 28.3367 49.7657 28.2731 49.7784C28.2094 49.7912 28.1585 49.7912 28.1076 49.8039C28.0186 49.8166 27.9168 49.8293 27.8277 49.8421L27.5733 49.8675C27.5478 49.8675 27.5224 49.8802 27.4842 49.8802H27.4715C27.3952 49.8929 27.3188 49.8929 27.2298 49.9057C27.1153 49.9184 27.0007 49.9311 26.8735 49.9311C26.7844 49.9438 26.7081 49.9438 26.6318 49.9566C26.5427 49.9566 26.4537 49.9693 26.3646 49.9693C26.2755 49.9693 26.1737 49.982 26.0847 49.982C26.0211 49.982 25.9702 49.982 25.9066 49.982L25.7539 49.9947C25.7157 49.9947 25.6775 49.9947 25.6394 49.9947C25.6012 49.9947 25.5503 49.9947 25.5121 49.9947C25.0159 50.0075 24.507 49.9947 24.0108 49.982C23.8963 49.982 23.7945 49.9693 23.6927 49.9693C23.5782 49.9693 23.4637 49.9566 23.3619 49.9566C23.2983 49.9566 23.222 49.9438 23.1584 49.9438C22.993 49.9311 22.8403 49.9184 22.6749 49.9057C22.624 49.9057 22.5604 49.893 22.5095 49.893C22.2805 49.8675 22.0515 49.8421 21.8479 49.8166C21.7461 49.8039 21.6443 49.7912 21.5425 49.7784C21.5553 49.7784 21.5553 49.7784 21.568 49.7784C21.5553 49.7784 21.5553 49.7784 21.5425 49.7784C21.5171 49.7784 21.5044 49.7784 21.4789 49.7657C21.3135 49.7403 21.1481 49.7148 21.0082 49.6894C20.8937 49.6639 20.7664 49.6512 20.6519 49.6258C20.3847 49.5749 20.1684 49.5367 20.0158 49.5113C19.2905 49.3586 18.578 49.1805 17.8656 48.9769C17.4457 48.8624 17.064 48.7351 16.606 48.5697C14.672 47.8827 12.8272 46.9539 11.0969 45.8088C10.9315 45.6943 10.7533 45.5798 10.5879 45.4526C10.5625 45.4399 10.5498 45.4271 10.5243 45.4017C10.2317 45.1981 9.93905 44.9818 9.65914 44.7528C9.6337 44.7401 9.60826 44.7146 9.59553 44.7019L9.57008 44.6892C9.55736 44.6892 9.55736 44.6765 9.54464 44.6765C9.53192 44.6637 9.5192 44.6638 9.50647 44.651C9.49375 44.6383 9.49374 44.6383 9.48102 44.6256C9.40468 44.562 9.32834 44.4984 9.25201 44.4347C9.09933 44.3075 8.94665 44.1803 8.79397 44.053C8.70491 43.9767 8.62858 43.9131 8.55224 43.8368C8.38684 43.6968 8.22144 43.5441 8.08148 43.4169C8.06876 43.4169 8.06876 43.4042 8.05604 43.4042L8.04331 43.3914C8.00515 43.3533 7.96697 43.3278 7.94153 43.2897C7.16542 42.5644 6.69466 42.0428 6.66922 42.0046C6.42748 41.7502 6.18574 41.4702 5.95673 41.1903C5.79133 40.9995 5.6132 40.7959 5.4478 40.5669C5.43508 40.5542 5.42235 40.5415 5.40963 40.5287L5.38418 40.4906C5.04066 40.058 4.67169 39.5618 4.26455 38.9638L4.25182 38.9511C4.25182 38.9511 4.25183 38.9384 4.23911 38.9384C4.23911 38.9256 4.22638 38.9256 4.22638 38.9129C4.04826 38.6457 3.85741 38.3404 3.66656 38.0096C3.50116 37.7297 3.33577 37.4625 3.19581 37.2335L2.72506 36.3174C2.57238 36.0248 2.4197 35.7321 2.29246 35.4649C2.038 34.956 1.77083 34.2817 1.51636 33.5565V33.5438C1.30007 32.9203 1.08377 32.2587 0.905651 31.6226L0.892925 31.5971C0.892925 31.5844 0.892932 31.5844 0.880209 31.5717C0.651193 30.7447 0.473061 29.9558 0.383999 29.3451C0.0531983 27.0295 0.0277579 26.8514 0.00231165 25.3119C-0.0231346 23.3907 0.167711 22.0166 0.269496 21.355C0.549404 19.4466 1.00744 17.9961 1.14739 17.5254C1.68176 15.8332 2.15251 14.8408 2.62327 13.8866C2.90318 13.2886 3.1322 12.8814 3.4121 12.4107C3.75563 11.8254 4.1246 11.2529 4.53173 10.6931C4.58263 10.6294 4.6208 10.5531 4.67169 10.4895C5.06611 9.90423 5.65137 9.15357 6.13485 8.63192C6.4911 8.25023 6.96185 7.71585 7.33082 7.34688C7.69979 6.97791 8.19599 6.49443 8.60313 6.15091C9.04844 5.76921 9.22657 5.60382 9.64643 5.29846C10.1554 4.90405 10.6643 4.52236 11.1859 4.17883C11.3513 4.06432 11.5294 3.96254 11.6948 3.84803C11.8984 3.7208 12.0893 3.60629 12.2674 3.50451C12.3564 3.45362 12.4964 3.37727 12.6491 3.28821C12.6745 3.27549 12.7 3.26276 12.7127 3.25004C12.8654 3.16098 13.0562 3.0592 13.2598 2.95741C13.3107 2.93197 13.3488 2.90652 13.3997 2.88107C14.0104 2.56299 14.7611 2.19403 15.6136 1.8505C15.7917 1.77416 16.0461 1.67238 16.3515 1.57059C16.4406 1.53242 16.5169 1.50697 16.606 1.4688L17.0513 1.31613C17.1403 1.29069 17.2676 1.23979 17.3566 1.21435L17.4711 1.17618C17.4839 1.17618 17.4839 1.17618 17.4966 1.16345L17.662 1.11256C17.751 1.08711 17.8528 1.04894 17.9419 1.0235L18.2218 0.947162C18.2345 0.947162 18.2345 0.947159 18.2472 0.934436C19.316 0.629081 20.3466 0.412793 21.3262 0.272839L21.4153 0.260113C21.5044 0.24739 21.5934 0.234668 21.6952 0.221945C21.7079 0.221945 21.7079 0.221945 21.7207 0.221945C21.8097 0.209222 21.8861 0.196501 21.9624 0.183777L22.5095 0.120158C22.7512 0.0947118 23.0947 0.0692617 23.3365 0.0565386C23.5655 0.0438155 23.8454 0.0310939 24.1126 0.0183708C24.2525 0.0183708 24.3798 0.00565471 24.4943 0.00565471C24.8378 -0.00706839 25.2958 0.00565471 25.6394 0.00565471C25.9956 0.00565471 26.4664 0.0438182 26.8099 0.0692644C27.5606 0.13288 28.553 0.260108 29.3036 0.374616C29.8889 0.463678 30.6523 0.629081 31.2248 0.794481C31.3648 0.83265 31.5174 0.883541 31.6701 0.92171C32.1154 1.04894 32.5735 1.1889 32.9679 1.30341L33.4132 1.4688C33.7694 1.59604 34.1384 1.73599 34.4819 1.87594L34.66 1.93956C35.0799 2.10496 35.5761 2.33398 36.0341 2.56299C36.225 2.65205 36.4158 2.75384 36.6067 2.85563C37.1156 3.12281 37.7645 3.46633 38.2225 3.78441C38.2352 3.79713 38.2607 3.80986 38.2734 3.82259C38.706 4.08977 39.1259 4.36968 39.533 4.67503C39.6221 4.73865 39.7111 4.80226 39.8002 4.85316L40.2455 5.2094C40.3727 5.29846 40.4872 5.40025 40.6017 5.50204L41.2888 6.04913C41.556 6.2527 42.014 6.65983 42.7138 7.37232C42.7265 7.38505 42.7392 7.39778 42.7519 7.4105L42.8156 7.48684C43.1718 7.85581 43.5789 8.30111 44.0497 8.83548C44.0624 8.84821 44.0751 8.86093 44.0751 8.87365C44.5332 9.40802 45.3093 10.3623 46.1617 11.7236C46.1745 11.7364 46.1745 11.7491 46.1872 11.7618C46.378 12.0672 46.5689 12.398 46.7724 12.7542C46.7724 12.7542 46.7724 12.7542 46.7724 12.7669C46.8615 12.9196 46.9378 13.0723 47.0269 13.225C47.1414 13.4413 47.2559 13.6448 47.345 13.8357C47.3704 13.8993 47.4086 13.9629 47.434 14.0265C47.5994 14.3573 47.7521 14.7008 47.9175 15.0571C48.1338 15.5406 48.3374 16.0495 48.4901 16.4821C48.7573 17.2073 48.999 17.9961 49.2153 18.8104C49.3552 19.3066 49.4697 19.8155 49.5461 20.2736C49.6479 20.7825 49.7242 21.3041 49.8005 21.8385C49.8133 21.9657 49.826 22.0802 49.8514 22.1947C49.9278 22.92 49.9787 23.6579 50.0041 24.4213C50.0041 24.4467 50.0041 24.4722 50.0041 24.4976V24.5485C49.9914 25.1211 49.9787 25.7318 49.9532 26.3679Z" fill="url(#paint0_radial_1_1014)"/>
<path d="M37.8401 29.5302C37.7765 28.9577 37.4202 27.5836 35.5245 27.291C35.3845 27.291 35.2446 27.2783 35.1046 27.2783C38.1836 27.0747 38.1327 23.6776 36.6568 22.5325C36.1861 22.1636 35.7026 22.1 35.3082 22.0363C35.1682 22.0363 35.0156 22.0236 34.8756 22.0236C37.5729 21.8455 37.7765 18.8556 36.1988 17.6978C35.7535 17.367 35.3082 17.3033 34.9519 17.2524C34.6975 17.2397 34.443 17.227 34.1758 17.227C35.4354 17.1507 36.097 16.5018 36.1861 15.2422C36.0334 14.0335 35.3845 13.3592 34.214 13.1938C29.2774 12.9902 24.2773 12.7739 20.1168 12.5703C19.6461 12.6085 19.3025 12.8757 19.0608 13.4101C17.8521 16.769 17.0887 20.5859 16.9233 24.6573C16.8597 26.0314 16.8724 27.38 16.9615 28.7032C17.0505 29.4539 19.7351 33.2072 24.5063 38.6782C24.659 39.4924 24.8244 40.2813 25.0025 41.0192C25.2569 41.7699 25.7277 42.177 26.4529 42.2915C27.3562 42.2406 28.5522 41.9226 28.6158 39.8232C28.5904 39.4924 28.5777 39.1489 28.5522 38.7927C28.3359 36.2099 27.8016 34.6068 26.402 32.1767C29.2774 32.3039 32.2547 32.4311 35.1682 32.5456C38.0182 32.3421 37.8401 29.5557 37.8401 29.5302Z" fill="white"/>
<path d="M18.7427 11.4635C19.0099 10.7765 18.9209 10.4202 18.4501 10.3312C18.1448 10.3185 17.8394 10.3057 17.5595 10.293C16.7325 10.2548 16.0073 10.2167 15.3839 10.1785C14.9767 10.2294 14.5696 10.5729 14.1243 11.2345C11.8341 14.9751 10.4091 19.4536 10.2055 24.3011C10.1419 25.6752 10.1928 27.0239 10.3328 28.3471C10.46 29.1868 10.7399 29.6448 11.1725 29.7594C11.9232 29.7975 12.7883 29.8484 13.7807 29.8993C14.1243 29.912 14.4805 29.9375 14.8495 29.9502C15.4475 29.8993 15.7274 29.4795 15.7274 28.627C15.6383 27.3038 15.6256 25.9551 15.6765 24.5811C15.8673 19.7336 16.987 15.2296 18.7427 11.4635Z" fill="#1278DA"/>
<defs>
<radialGradient id="paint0_radial_1_1014" cx="0" cy="0" r="1" gradientUnits="userSpaceOnUse" gradientTransform="translate(25.5413 21.0433) rotate(0.229182) scale(28.7268 28.7268)">
<stop stop-color="#4A90ED"/>
<stop offset="0.1964" stop-color="#4996EE"/>
<stop offset="0.4456" stop-color="#48A5F0"/>
<stop offset="0.6935" stop-color="#46BCF4"/>
<stop offset="0.805" stop-color="#55C7FA"/>
<stop offset="0.8796" stop-color="#62D0FF"/>
<stop offset="1" stop-color="#BBEAFF"/>
</radialGradient>
</defs>
</svg>
