<svg width="22" height="22" viewBox="0 0 22 22" fill="none" xmlns="http://www.w3.org/2000/svg">
<path d="M21 9V14C21 19 19 21 14 21H8C3 21 1 19 1 14V8C1 3 3 1 8 1H13" stroke="#0095FF" stroke-width="1.5" stroke-linecap="round" stroke-linejoin="round"/>
<path d="M21 9H17C14 9 13 8 13 5V1L21 9Z" stroke="#0095FF" stroke-width="1.5" stroke-linecap="round" stroke-linejoin="round"/>
<path d="M5.61978 14.73C5.28978 13.7 5.67978 12.43 6.74978 12.08C7.31978 11.9 8.01978 12.05 8.40978 12.6C8.77978 12.03 9.50978 11.9 10.0698 12.08C11.1498 12.43 11.5298 13.7 11.2098 14.73C10.6998 16.36 8.90978 17.21 8.40978 17.21C7.91978 17.2 6.14978 16.37 5.61978 14.73Z" stroke="#0095FF" stroke-width="1.5" stroke-linecap="round" stroke-linejoin="round"/>
</svg>
