<svg width="19" height="18" viewBox="0 0 19 18" fill="none" xmlns="http://www.w3.org/2000/svg">
<path d="M1.1665 9.1164C3.86623 9.15923 6.53621 8.54788 8.94832 7.33458C11.0533 6.28011 12.912 4.79315 14.4029 2.97095" stroke="#444444" stroke-width="2" stroke-linecap="round" stroke-linejoin="round"/>
<path d="M3.93726 15.0582C5.53222 13.0961 7.55129 11.521 9.84264 10.4516C12.134 9.3821 14.638 8.84604 17.1663 8.88369" stroke="#444444" stroke-width="2" stroke-linecap="round" stroke-linejoin="round"/>
<path d="M4.57739 2.45435C6.34331 3.77613 7.82696 5.43783 8.94103 7.34162C9.49192 8.26265 9.9476 9.23737 10.301 10.2507C11.0376 12.3278 11.3564 14.53 11.2392 16.7307" stroke="#444444" stroke-width="2" stroke-linecap="round" stroke-linejoin="round"/>
<path d="M9.1665 17C13.5848 17 17.1665 13.4183 17.1665 9C17.1665 4.58172 13.5848 1 9.1665 1C4.74823 1 1.1665 4.58172 1.1665 9C1.1665 13.4183 4.74823 17 9.1665 17Z" stroke="#444444" stroke-width="2" stroke-linecap="round" stroke-linejoin="round"/>
</svg>
