<svg width="18" height="19" viewBox="0 0 18 19" fill="none" xmlns="http://www.w3.org/2000/svg">
<path d="M1 9.12031C3.69973 9.16313 6.3697 8.55178 8.78182 7.33849C10.8868 6.28402 12.7455 4.79705 14.2364 2.97485" stroke="white" stroke-width="2" stroke-linecap="round" stroke-linejoin="round"/>
<path d="M3.77051 15.0621C5.36547 13.1 7.38454 11.5249 9.67589 10.4555C11.9672 9.386 14.4712 8.84994 16.9996 8.8876" stroke="white" stroke-width="2" stroke-linecap="round" stroke-linejoin="round"/>
<path d="M4.41113 2.4585C6.17705 3.78028 7.6607 5.44198 8.77477 7.34577C9.32566 8.2668 9.78134 9.24152 10.1348 10.2549C10.8713 12.332 11.1902 14.5341 11.073 16.7349" stroke="white" stroke-width="2" stroke-linecap="round" stroke-linejoin="round"/>
<path d="M9 17.0039C13.4183 17.0039 17 13.4222 17 9.00391C17 4.58563 13.4183 1.00391 9 1.00391C4.58172 1.00391 1 4.58563 1 9.00391C1 13.4222 4.58172 17.0039 9 17.0039Z" stroke="white" stroke-width="2" stroke-linecap="round" stroke-linejoin="round"/>
</svg>
