<svg width="130" height="130" viewBox="0 0 130 130" fill="none" xmlns="http://www.w3.org/2000/svg">
<path d="M129.909 61.4099C129.909 61.3512 129.909 61.3043 129.909 61.2456C129.897 60.9522 129.815 59.1568 129.463 56.5164C129.428 56.2817 129.392 56.047 129.369 55.8122C129.322 55.4837 129.263 55.1316 129.216 54.7796C127.867 46.2599 124.863 38.2448 120.487 31.0981C120.475 31.0863 120.463 31.0629 120.451 31.0511C119.97 30.2766 119.477 29.5021 118.973 28.751C118.973 28.751 118.973 28.7511 118.973 28.7393C116.532 25.1132 113.728 21.7334 110.607 18.6706C109.152 17.2154 107.345 15.6077 105.784 14.3755C104.728 13.5306 103.649 12.7209 102.534 11.9346C102.487 11.8994 102.417 11.8525 102.37 11.8055L102.229 11.7117C102.041 11.5826 101.854 11.4417 101.654 11.3127C100.938 10.8198 100.164 10.3152 99.3192 9.78709C99.284 9.76362 99.2606 9.75189 99.2254 9.72842C98.8147 9.48198 98.3923 9.2238 97.9581 8.96563C97.7587 8.84828 97.5592 8.74267 97.3597 8.62532C97.1837 8.53144 97.0312 8.43756 96.8552 8.33194C96.7144 8.26153 96.5853 8.17938 96.4445 8.10897C93.8983 6.70076 91.2348 5.45684 88.4657 4.38894C87.75 4.1073 87.1985 3.9078 86.8817 3.79045L86.3889 3.61442L85.8961 3.43839C85.8726 3.42665 85.8491 3.42666 85.8257 3.41492L85.7201 3.37972C85.4854 3.29757 85.1568 3.19196 84.9222 3.12154L84.8048 3.08634C84.7696 3.07461 84.7227 3.06287 84.6875 3.05114L84.136 2.87511C83.9131 2.8047 83.6198 2.72255 83.4085 2.65214L82.7749 2.46438C82.6576 2.42918 82.5403 2.39397 82.4229 2.3705C82.3877 2.35876 82.3525 2.34702 82.3173 2.34702C82.2704 2.33529 82.2352 2.32355 82.1883 2.31182C82.1179 2.28835 82.0475 2.27662 81.9888 2.25315L81.2848 2.06538C81.1088 2.01844 80.8858 1.95977 80.6981 1.91283C80.5104 1.86589 80.3226 1.81894 80.1349 1.772H80.1114C79.9941 1.74853 79.8768 1.71333 79.7594 1.68986C79.5482 1.64292 79.2901 1.58425 79.0789 1.5373L78.5978 1.43168C78.3866 1.38474 78.1637 1.33781 77.9525 1.29087C77.9173 1.27913 77.882 1.27913 77.8351 1.26739C77.6708 1.23219 77.5066 1.19698 77.3423 1.17351L77.049 1.11484L76.697 1.04442C76.6735 1.04442 76.6618 1.03269 76.6383 1.03269L76.521 1.00922C76.4623 0.997484 76.3919 0.98575 76.3215 0.974015C76.1455 0.93881 75.9695 0.915337 75.7935 0.880132C75.6761 0.856662 75.5588 0.844932 75.4532 0.821462H75.4415C75.242 0.786256 75.0543 0.762784 74.8548 0.727579L74.3503 0.645433C74.2564 0.633698 74.1508 0.621962 74.0452 0.598492C73.8927 0.575021 73.7401 0.551548 73.5876 0.539812C73.435 0.516342 73.2942 0.504612 73.1534 0.481142C72.907 0.445937 72.6724 0.422467 72.426 0.398997L71.7571 0.32858C71.6867 0.316845 71.6163 0.316849 71.5342 0.305114H71.4873C71.2995 0.281643 71.0883 0.269905 70.8771 0.246434C70.572 0.222964 70.267 0.199497 69.9619 0.176026C69.739 0.164291 69.5278 0.14082 69.34 0.129085C69.1054 0.11735 68.8707 0.105616 68.6478 0.093881C68.4014 0.0821459 68.155 0.0586771 67.9203 0.0586771C67.7677 0.0469419 67.6269 0.0469394 67.4744 0.0469394L67.0637 0.0234731C66.9581 0.0234731 66.8525 0.0234731 66.7587 0.0234731C66.6413 0.0234731 66.524 0.0117355 66.4184 0.0117355C65.116 -0.0117348 63.8018 -1.06232e-06 62.4994 0.0469394C62.206 0.0586745 61.9244 0.0704082 61.6663 0.0821434C61.373 0.0938785 61.0796 0.105615 60.798 0.129085C60.622 0.14082 60.4343 0.152554 60.2817 0.164289C59.8593 0.199494 59.4369 0.234704 59.0263 0.26991C58.8854 0.281645 58.7329 0.293378 58.5921 0.305114C57.9937 0.363789 57.4188 0.434198 56.8673 0.504608C56.5974 0.539814 56.3393 0.575024 56.0694 0.610229C56.0929 0.610229 56.1046 0.598492 56.1281 0.598492C56.1046 0.598492 56.0811 0.610229 56.0577 0.610229C55.999 0.621964 55.9521 0.62196 55.8934 0.633695C55.4593 0.692371 55.0486 0.762786 54.6614 0.821462C54.3563 0.868402 54.0395 0.927075 53.7344 0.974015C53.0304 1.1031 52.4672 1.20872 52.0917 1.27913C50.2144 1.66639 48.3487 2.13579 46.5183 2.6756C45.4153 2.98072 44.4532 3.29757 43.2446 3.7435C38.2344 5.52724 33.4237 7.93294 28.9297 10.9371C28.9297 10.9371 28.9297 10.9371 28.918 10.9371C28.4721 11.2305 28.0262 11.5356 27.5921 11.8525C27.5334 11.8877 27.4748 11.9346 27.4161 11.9816C26.6534 12.5214 25.9025 13.0847 25.1632 13.6597C25.1046 13.7066 25.0459 13.7536 24.9872 13.8005L24.9168 13.8474C24.8934 13.8592 24.8816 13.8827 24.8582 13.8944C24.823 13.9179 24.7995 13.9413 24.7643 13.9648C24.7408 13.9883 24.7174 14 24.6939 14.0235C24.4944 14.1878 24.2832 14.3521 24.0838 14.5046C23.6731 14.8332 23.2742 15.1618 22.8987 15.4904C22.6875 15.6781 22.4645 15.8542 22.2533 16.0419C21.8192 16.4174 21.4085 16.793 21.0213 17.145C20.9978 17.1567 20.9861 17.1802 20.9626 17.192L20.9157 17.2389C20.8218 17.321 20.728 17.4032 20.6458 17.4853C18.6277 19.363 17.3956 20.7242 17.3252 20.8181C16.7034 21.487 16.0815 22.2028 15.4713 22.9187C15.0372 23.4233 14.5913 23.9514 14.1337 24.5264C14.0985 24.5616 14.0633 24.6085 14.0398 24.6438L13.9695 24.7376C13.066 25.8759 12.1156 27.1551 11.0713 28.7158L11.0478 28.751C11.0361 28.7628 11.0361 28.7745 11.0243 28.7863C11.0126 28.8097 11.0009 28.8332 10.9774 28.8567C10.5081 29.5608 10.0152 30.3588 9.52244 31.192C9.0883 31.9078 8.67762 32.6119 8.30215 33.2221L7.08186 35.6161C6.68292 36.3906 6.29571 37.1417 5.95544 37.834C5.29836 39.1601 4.59435 40.8969 3.92554 42.7863V42.798L3.91381 42.8215C3.33886 44.4409 2.79912 46.1542 2.32978 47.8206L2.30631 47.8793C2.30631 47.9028 2.29458 47.9262 2.29458 47.9497C1.69617 50.109 1.22683 52.1509 0.992157 53.7351C0.123874 59.7435 0.0534686 60.2364 0.00653442 64.2146C-0.0638668 69.2255 0.452414 72.793 0.698818 74.518C1.41456 79.4702 2.59965 83.2372 2.98686 84.4811C4.37141 88.8936 5.61517 91.4635 6.81199 93.9514C7.55121 95.4887 8.12615 96.5683 8.86536 97.7888C9.74538 99.2909 10.7193 100.793 11.7635 102.26C11.8809 102.436 11.9982 102.612 12.1273 102.8C13.1481 104.337 14.6735 106.285 15.9407 107.635C16.8676 108.644 18.0879 110.005 19.0501 110.979C20.0122 111.941 21.3146 113.197 22.3707 114.077C23.5205 115.075 24.0016 115.485 25.0811 116.307C26.3953 117.351 27.7329 118.313 29.0822 119.217L29.094 119.229C29.5281 119.522 29.974 119.804 30.4199 120.074C30.9361 120.402 31.4642 120.707 31.9218 120.977C32.1682 121.118 32.5084 121.318 32.9074 121.529C32.9661 121.564 33.0247 121.599 33.0834 121.623C33.4941 121.846 33.9634 122.104 34.5031 122.386C34.6205 122.444 34.7378 122.503 34.8552 122.573C36.4275 123.395 38.4104 124.357 40.6046 125.237C41.0857 125.425 41.731 125.683 42.5172 125.977C42.7401 126.059 42.963 126.153 43.1742 126.223L44.3241 126.622C44.5588 126.704 44.8873 126.81 45.122 126.88L45.4036 126.974C45.4271 126.974 45.4388 126.986 45.4623 126.986L45.8964 127.127C46.1194 127.197 46.4127 127.279 46.6239 127.35L47.3396 127.561C47.3631 127.561 47.3866 127.573 47.3983 127.573C50.1909 128.371 52.8544 128.922 55.4241 129.298L55.6705 129.333C55.8817 129.368 56.1398 129.403 56.3979 129.427C56.4214 129.427 56.4449 129.438 56.4683 129.438C56.6913 129.462 56.9025 129.497 57.0902 129.521L58.5217 129.685C59.1671 129.744 60.0236 129.814 60.6689 129.861C61.2674 129.908 61.9948 129.943 62.6754 129.966H62.6871H62.6989C63.0509 129.978 63.3911 129.99 63.6845 129.99C64.5762 130.013 65.773 129.99 66.6648 129.978C67.58 129.978 68.8003 129.873 69.7155 129.826C71.6633 129.65 74.2564 129.333 76.1924 129.016C77.7061 128.77 79.7008 128.359 81.1792 127.936C81.5547 127.831 81.9419 127.713 82.3408 127.596C83.5024 127.256 84.6992 126.892 85.7083 126.599L86.8817 126.153C87.8204 125.824 88.7473 125.472 89.6743 125.096L90.1436 124.92C91.2348 124.51 92.5372 123.876 93.7106 123.289C94.2151 123.043 94.708 122.796 95.2008 122.526C96.5384 121.834 98.2046 120.93 99.4014 120.121C99.4366 120.097 99.4835 120.062 99.5304 120.039C100.645 119.334 101.736 118.595 102.816 117.821C103.05 117.656 103.285 117.492 103.508 117.351L104.681 116.424C104.998 116.178 105.303 115.931 105.62 115.685L107.392 114.277C108.072 113.737 109.293 112.681 111.076 110.85C111.111 110.826 111.135 110.791 111.17 110.768L111.346 110.58C112.273 109.618 113.341 108.479 114.573 107.071C114.596 107.036 114.632 107.001 114.655 106.977C115.852 105.604 117.882 103.093 120.064 99.5843C120.088 99.549 120.099 99.5256 120.123 99.4904C120.627 98.6806 121.132 97.824 121.636 96.9204L121.648 96.9086C121.648 96.9086 121.648 96.9204 121.636 96.9204C121.848 96.5331 122.071 96.1341 122.282 95.7351C122.587 95.1836 122.88 94.632 123.115 94.1274C123.185 93.9631 123.267 93.7988 123.35 93.6346C123.772 92.7662 124.183 91.8743 124.593 90.9355C125.156 89.6681 125.696 88.3655 126.072 87.2389V87.2272C126.764 85.3261 127.398 83.3076 127.949 81.1718C128.301 79.8692 128.606 78.5666 128.806 77.3579C129.064 76.0436 129.275 74.6941 129.463 73.2976C129.51 72.9807 129.545 72.6756 129.58 72.3705C129.791 70.5046 129.92 68.5566 129.967 66.5616C129.967 66.4912 129.979 66.4208 129.979 66.3504V66.2096C130.026 64.6605 129.991 63.0645 129.909 61.4099Z" fill="url(#paint0_radial_1_997)"/>
<path d="M26.9927 32.7648C17.9109 36.344 17.0661 50.344 23.8833 53.8059C30.8295 57.3381 38.867 46.976 35.9923 38.1981C34.5491 33.7975 30.7709 31.5209 26.9927 32.7648Z" fill="#412121"/>
<path d="M61.6785 22.5433C51.6228 25.7587 52.1156 38.2566 60.2353 42.0588C68.8125 46.0722 77.6361 38.3974 74.5502 29.6078C72.6845 24.327 66.9116 21.1585 61.6785 22.5433Z" fill="#412121"/>
<path d="M61.2673 89.7151C61.2321 89.7268 61.1969 89.7386 61.1734 89.7503C61.1969 89.7386 61.2321 89.7268 61.2673 89.7151ZM60.3872 89.9733C60.4224 89.9616 60.4577 89.9498 60.4929 89.9498C60.4577 89.9616 60.4224 89.9616 60.3872 89.9733ZM61.6193 89.5978C61.5723 89.6095 61.5371 89.6212 61.4902 89.6447C61.5371 89.633 61.5841 89.6095 61.6193 89.5978ZM60.0118 90.0672C60.0587 90.0554 60.1056 90.0437 60.1526 90.032C60.1056 90.0437 60.0587 90.0554 60.0118 90.0672ZM61.9595 89.4804C61.9126 89.4921 61.8657 89.5156 61.8188 89.5274C61.8657 89.5156 61.9126 89.5039 61.9595 89.4804ZM59.6715 90.1611C59.7184 90.1493 59.7771 90.1376 59.824 90.1258C59.7771 90.1376 59.7184 90.1493 59.6715 90.1611ZM62.2764 89.3748C62.2294 89.3865 62.1942 89.41 62.1473 89.4217C62.1825 89.3983 62.2294 89.3865 62.2764 89.3748ZM59.3312 90.2315C59.3782 90.2197 59.4368 90.208 59.4838 90.1963C59.4368 90.208 59.3899 90.2197 59.3312 90.2315ZM62.5814 89.2457C62.5345 89.2575 62.4993 89.2809 62.4524 89.2926C62.4993 89.2809 62.5462 89.2692 62.5814 89.2457ZM59.0027 90.3019C59.0614 90.2901 59.1083 90.2784 59.167 90.2667C59.1083 90.2901 59.0496 90.2901 59.0027 90.3019ZM62.8865 89.1284C62.8513 89.1401 62.8044 89.1636 62.7692 89.1753C62.8044 89.1636 62.8513 89.1518 62.8865 89.1284ZM58.6742 90.3723C58.7328 90.3606 58.7798 90.3488 58.8384 90.3371C58.7798 90.3488 58.7211 90.3606 58.6742 90.3723ZM63.1916 88.9993C63.1564 89.011 63.1094 89.0345 63.0742 89.0462C63.1094 89.0345 63.1564 89.0227 63.1916 88.9993ZM58.3339 90.431C58.3925 90.4192 58.4512 90.4075 58.5099 90.3958C58.4512 90.4075 58.3925 90.4192 58.3339 90.431ZM63.4849 88.8819C63.4497 88.8937 63.4145 88.9171 63.3793 88.9289C63.4145 88.9054 63.4497 88.8937 63.4849 88.8819ZM58.0171 90.4779C58.0757 90.4662 58.1227 90.4662 58.1813 90.4544C58.1344 90.4662 58.0757 90.4779 58.0171 90.4779ZM63.7665 88.7411C63.7313 88.7528 63.7078 88.7646 63.6726 88.788C63.7078 88.7763 63.743 88.7646 63.7665 88.7411ZM57.7003 90.5248C57.7589 90.5131 57.8176 90.5131 57.8645 90.5014C57.8059 90.5131 57.7472 90.5248 57.7003 90.5248ZM64.0481 88.612C64.0247 88.6238 64.0012 88.6355 63.9777 88.6472C64.0012 88.6355 64.0247 88.6238 64.0481 88.612ZM57.3835 90.5718C57.4421 90.5601 57.5008 90.56 57.5477 90.5483C57.4891 90.56 57.4421 90.5601 57.3835 90.5718ZM64.3297 88.4712C64.3063 88.4829 64.2828 88.4947 64.2711 88.5064C64.2945 88.4947 64.318 88.4829 64.3297 88.4712ZM57.0667 90.607C57.1253 90.5953 57.184 90.5953 57.2427 90.5835C57.184 90.5953 57.1253 90.5953 57.0667 90.607ZM56.7499 90.6305C56.8085 90.6305 56.8672 90.6187 56.9376 90.6187C56.8789 90.6187 56.8085 90.6305 56.7499 90.6305ZM56.4331 90.6539C56.4917 90.6539 56.5621 90.6422 56.6208 90.6422C56.5621 90.6539 56.5035 90.6539 56.4331 90.6539ZM55.6234 90.7009C55.8698 90.6891 56.1162 90.6891 56.3626 90.6657C56.128 90.6774 55.8698 90.6891 55.6234 90.7009ZM55.3418 90.7009C55.4122 90.7009 55.4709 90.7009 55.5413 90.7009C55.4709 90.7009 55.4005 90.7009 55.3418 90.7009ZM55.0485 90.7009C55.1072 90.7009 55.1776 90.7009 55.2362 90.7009C55.1776 90.7009 55.1072 90.7009 55.0485 90.7009ZM54.7552 90.6891C54.8138 90.6891 54.8725 90.6891 54.9312 90.6891C54.8725 90.7009 54.8138 90.7009 54.7552 90.6891ZM54.4735 90.6774C54.5322 90.6774 54.5909 90.6774 54.6378 90.6891C54.5791 90.6891 54.5205 90.6891 54.4735 90.6774ZM54.1802 90.6657C54.2389 90.6657 54.2858 90.6774 54.3445 90.6774C54.2858 90.6774 54.2271 90.6657 54.1802 90.6657ZM53.8751 90.6422C53.9338 90.6422 53.9807 90.6539 54.0394 90.6539C53.9925 90.6539 53.9338 90.6539 53.8751 90.6422ZM53.5935 90.6187C53.6522 90.6187 53.6991 90.6305 53.7578 90.6305C53.6991 90.6305 53.6405 90.6305 53.5935 90.6187ZM53.3002 90.5835C53.3471 90.5953 53.4058 90.5952 53.4527 90.5952C53.4058 90.5952 53.3589 90.5953 53.3002 90.5835ZM53.0186 90.5483C53.0655 90.56 53.1125 90.5601 53.1594 90.5718C53.1125 90.5601 53.0655 90.56 53.0186 90.5483ZM52.7252 90.5131C52.7722 90.5248 52.8191 90.5248 52.8661 90.5366C52.8191 90.5248 52.7722 90.5248 52.7252 90.5131ZM52.4436 90.4662C52.4906 90.4779 52.5258 90.4779 52.5727 90.4896C52.5375 90.4779 52.4906 90.4779 52.4436 90.4662ZM52.162 90.4192C52.1972 90.431 52.2324 90.431 52.2794 90.4427C52.2442 90.431 52.1972 90.4192 52.162 90.4192ZM51.8804 90.3605C51.9039 90.3605 51.9274 90.3723 51.9626 90.3723C51.9391 90.3723 51.9039 90.3605 51.8804 90.3605ZM51.2586 90.2197C51.2703 90.2197 51.2938 90.2315 51.3055 90.2315C51.2938 90.2315 51.282 90.2197 51.2586 90.2197ZM50.977 90.1493C51.0004 90.1493 51.0121 90.1611 51.0356 90.1611C51.0121 90.1611 51.0004 90.1493 50.977 90.1493ZM50.7071 90.0672C50.7188 90.0672 50.7423 90.0789 50.754 90.0789C50.7305 90.0789 50.7188 90.0789 50.7071 90.0672ZM50.4137 89.985C50.4372 89.985 50.4489 89.9968 50.4724 89.9968C50.4489 89.9968 50.4372 89.9968 50.4137 89.985ZM50.1439 89.9029C50.1673 89.9146 50.1791 89.9146 50.2025 89.9264C50.2025 89.9264 50.2025 89.9264 50.1908 89.9264C50.1908 89.9264 50.1908 89.9264 50.1791 89.9264C50.1791 89.9264 50.1791 89.9264 50.1673 89.9264C50.1673 89.9264 50.1673 89.9264 50.1556 89.9264C50.1556 89.9264 50.1556 89.9264 50.1439 89.9264C50.1439 89.9264 50.1439 89.9264 50.1321 89.9264C50.1556 89.9029 50.1439 89.9029 50.1439 89.9029ZM49.8623 89.809C49.874 89.8207 49.8975 89.8207 49.9092 89.8325C49.8975 89.8207 49.8857 89.8207 49.8623 89.809ZM49.5924 89.7151C49.6041 89.7151 49.6159 89.7269 49.6276 89.7269C49.6276 89.7269 49.6159 89.7268 49.5924 89.7151ZM49.3343 89.6212C49.346 89.6212 49.346 89.633 49.3577 89.633C49.346 89.6212 49.3343 89.6212 49.3343 89.6212ZM65.9372 54.322C65.5265 54.4511 65.3271 54.5332 64.9516 54.7445C65.0572 54.6858 65.2097 54.6154 65.3271 54.5567C68.0845 75.6095 49.7449 78.3321 41.9069 71.9012C38.4221 69.0378 36.7559 65.1066 35.9463 63.2055C36.0636 63.1937 36.2279 63.182 36.3452 63.1703C29.0587 63.3463 36.357 79.4469 42.5171 85.244C42.8104 85.5139 43.2093 85.8543 43.5027 86.1242C51.3994 80.8903 61.7483 77.8392 72.6605 77.5341C73.9982 71.3614 73.0712 52.5148 65.9372 54.322Z" fill="#412121"/>
<path d="M56.9835 79.9751C51.4688 81.6532 47.5615 83.4369 43.5017 86.1243C48.7583 90.5015 54.4374 91.7219 60.8321 89.8443C69.1512 87.3682 71.5684 81.6297 72.6713 77.5342C70.4302 77.6046 64.493 77.7689 56.9835 79.9751Z" fill="#FA4542"/>
<path d="M65.3268 54.5566C64.8457 54.7796 64.8457 54.7796 63.8483 55.5893C61.8536 57.2088 56.6557 61.14 51.3404 62.7125C47.3158 63.8978 42.4464 64.0738 36.8612 63.2171C36.474 63.1585 36.2628 63.1702 36.0046 63.2054C42.5168 80.456 59.8707 76.3136 64.2238 66.5265C66.2772 61.8794 65.6318 56.9389 65.3268 54.5566Z" fill="white"/>
<path d="M13.6878 61.9029C4.88763 65.9398 8.38422 79.6347 15.0019 82.0404C21.8895 84.5517 28.3664 75.4687 25.1984 67.7352C23.192 62.8417 18.0292 60.2248 13.6878 61.9029Z" fill="#FA4542"/>
<path d="M89.1342 39.6766C77.5298 42.9037 75.758 54.275 83.6664 58.7461C93.1823 64.1208 106.277 56.6573 103.965 47.1753C102.557 41.3547 96.0336 38.0571 89.1342 39.6766Z" fill="#FA4542"/>
<defs>
<radialGradient id="paint0_radial_1_997" cx="0" cy="0" r="1" gradientUnits="userSpaceOnUse" gradientTransform="translate(68.7311 75.4263) rotate(-0.229213) scale(74.695 74.7051)">
<stop stop-color="#F79F40"/>
<stop offset="0.1632" stop-color="#F7A542"/>
<stop offset="0.3708" stop-color="#F8B44A"/>
<stop offset="0.6014" stop-color="#FACE55"/>
<stop offset="0.7708" stop-color="#FBE660"/>
<stop offset="0.9104" stop-color="#FBF36F"/>
<stop offset="0.9318" stop-color="#FBF672"/>
<stop offset="0.9466" stop-color="#FBF676"/>
<stop offset="0.9621" stop-color="#FBF783"/>
<stop offset="0.9778" stop-color="#FCF897"/>
<stop offset="0.9936" stop-color="#FDFAB4"/>
<stop offset="1" stop-color="#FDFBC2"/>
</radialGradient>
</defs>
</svg>
