<svg xmlns="http://www.w3.org/2000/svg" width="18" height="18" viewBox="0 0 18 18" fill="none">
  <path d="M4.67742 10.2581H5.77419C5.87097 10.2581 5.96774 10.3548 5.96774 10.4516V17.3548C5.96774 17.7097 6.25806 18 6.6129 18H9.12903C9.48387 18 9.77419 17.7097 9.77419 17.3548V10.4516C9.77419 10.3548 9.87097 10.2581 9.96774 10.2581H11.7742C12.0968 10.2581 12.3871 10.0323 12.4194 9.70968L12.8387 7.19355C12.9032 6.80645 12.5806 6.41935 12.1935 6.41935H10.0645C9.90323 6.41935 9.77419 6.29032 9.77419 6.12903V4.51613C9.77419 4.09677 10 3.87097 10.4194 3.87097H12.3226C12.6774 3.87097 12.9677 3.58064 12.9677 3.22581V0.645161C12.9677 0.290323 12.6774 0 12.3226 0H10.0323C5.83871 0 5.93548 3.3871 5.93548 3.87097V6.22581C5.93548 6.32258 5.83871 6.41935 5.74194 6.41935H4.64516C4.29032 6.41935 4 6.70968 4 7.06452V9.58065C4.03226 9.96774 4.32258 10.2581 4.67742 10.2581Z" fill="white"/>
</svg>