<svg width="27" height="28" viewBox="0 0 27 28" fill="none" xmlns="http://www.w3.org/2000/svg">
<path d="M25.9928 14.7461V9.74749C25.9928 3.49928 23.4936 1 17.2453 1H9.74749C3.49928 1 1 3.49928 1 9.74749V17.2453C1 23.4936 3.49928 25.9928 9.74749 25.9928H14.7461" stroke="#111111" stroke-width="2" stroke-linecap="round" stroke-linejoin="round"/>
<path d="M7.66113 16.6078L10.6353 12.7463C11.0602 12.1965 11.8474 12.0965 12.3973 12.5214L14.6842 14.3209C15.234 14.7458 16.0212 14.6458 16.4461 14.1085L19.3328 10.3845" stroke="#111111" stroke-width="2" stroke-linecap="round" stroke-linejoin="round"/>
<path d="M22.844 18.2699L23.1939 18.9822C23.3689 19.3321 23.8062 19.657 24.1936 19.732L24.6685 19.8069C26.0931 20.0444 26.4305 21.0941 25.4058 22.1313L24.9684 22.5686C24.681 22.8685 24.5186 23.4434 24.606 23.8433L24.6685 24.1057C25.0559 25.8302 24.1437 26.4925 22.6441 25.5928L22.3192 25.4053C21.9318 25.1804 21.307 25.1804 20.9196 25.4053L20.5947 25.5928C19.0826 26.505 18.1704 25.8302 18.5702 24.1057L18.6327 23.8433C18.7202 23.4434 18.5578 22.8685 18.2703 22.5686L17.833 22.1313C16.8082 21.0941 17.1456 20.0444 18.5702 19.8069L19.0451 19.732C19.42 19.6695 19.8699 19.3321 20.0448 18.9822L20.3947 18.2699C21.0695 16.9078 22.1692 16.9078 22.844 18.2699Z" stroke="#111111" stroke-width="2" stroke-linecap="round" stroke-linejoin="round"/>
</svg>
