<svg width="25" height="25" viewBox="0 0 25 25" fill="none" xmlns="http://www.w3.org/2000/svg">
<path fill-rule="evenodd" clip-rule="evenodd" d="M12.5 0C5.55556 0 0 5.55556 0 12.5C0 19.3452 5.55556 25 12.5 25C19.4444 25 25 19.4444 25 12.5C25 5.55556 19.3452 0 12.5 0ZM12.5 1.88492C18.3532 1.88492 23.1151 6.64683 23.1151 12.5C23.1151 18.3532 18.3532 23.1151 12.5 23.1151C6.64683 23.1151 1.88492 18.3532 1.88492 12.5C1.88492 6.64683 6.64683 1.88492 12.5 1.88492Z" fill="#2BD9D9"/>
<path fill-rule="evenodd" clip-rule="evenodd" d="M11.5078 6.05157V11.9047C11.5078 12.5 11.7062 13.0952 12.2023 13.492C13.1943 14.4841 15.6745 16.9643 15.6745 16.9643C16.0713 17.3611 16.6665 17.3611 17.0634 16.9643C17.4602 16.5674 17.4602 15.9722 17.0634 15.5754C17.0634 15.5754 14.5832 13.0952 13.5911 12.1032C13.4919 12.0039 13.4919 12.0039 13.4919 11.9047V6.05157C13.4919 5.55553 13.0951 5.0595 12.4999 5.0595C11.9046 5.0595 11.5078 5.55553 11.5078 6.05157Z" fill="#2BD9D9"/>
</svg>
