<svg width="24" height="25" viewBox="0 0 24 25" fill="none" xmlns="http://www.w3.org/2000/svg">
<path fill-rule="evenodd" clip-rule="evenodd" d="M12.0117 0.0484337C10.6555 -0.145301 9.20252 0.242168 8.13698 1.21084C7.07144 2.08265 6.49023 3.34192 6.49023 4.79493V20.1968C6.49023 21.6499 7.16831 23.006 8.23385 23.8778C9.29939 24.8465 10.7524 25.1371 12.2054 24.9433C14.3365 24.5559 16.855 24.0715 18.8893 23.6841C21.7953 23.1997 23.9264 20.5843 23.9264 17.6783V7.02288C23.9264 4.02 21.6984 1.40458 18.6955 0.92024C16.6613 0.726505 14.1428 0.339036 12.0117 0.0484337ZM11.7211 1.88891C13.8522 2.17952 16.2738 2.56698 18.4049 2.85759C20.4391 3.14819 21.989 4.8918 21.989 7.02288V17.6783C21.989 19.7125 20.536 21.4561 18.5018 21.8436C16.4676 22.2311 13.949 22.7154 11.8179 23.1029C10.9461 23.2966 10.0743 23.006 9.39625 22.4248C8.71818 21.8436 8.33071 21.0686 8.33071 20.1968V4.79493C8.33071 3.92313 8.71818 3.14819 9.29939 2.56698C10.0743 2.08265 10.9461 1.79205 11.7211 1.88891Z" fill="#F282D9"/>
<path fill-rule="evenodd" clip-rule="evenodd" d="M11.3335 11.2851C12.0116 11.2851 12.5928 11.8663 12.5928 12.5443C12.5928 13.2224 12.0116 13.8036 11.3335 13.8036C10.6554 13.8036 10.0742 13.2224 10.0742 12.5443C10.0742 11.8663 10.5586 11.2851 11.3335 11.2851Z" fill="#F282D9"/>
<path fill-rule="evenodd" clip-rule="evenodd" d="M4.84337 23.2965C2.13108 23.2965 0 21.1655 0 18.4532V6.73223C0 5.47295 0.484337 4.21368 1.45301 3.34187C2.32482 2.3732 3.58409 1.88886 4.84337 1.88886C5.42457 1.88886 5.81204 2.27633 5.81204 2.85754C5.81204 3.43874 5.42457 3.82621 4.84337 3.82621C4.06843 3.82621 3.29349 4.11681 2.80915 4.69802C2.22795 5.27922 1.93735 5.95729 1.93735 6.73223V18.3563C1.93735 20.0031 3.19662 21.2623 4.84337 21.2623C5.42457 21.2623 5.81204 21.6498 5.81204 22.231C5.81204 22.8122 5.42457 23.2965 4.84337 23.2965Z" fill="#F282D9"/>
</svg>
