<svg width="26" height="25" viewBox="0 0 26 25" fill="none" xmlns="http://www.w3.org/2000/svg">
<path fill-rule="evenodd" clip-rule="evenodd" d="M14.8 0C14.1 0 13.5 0.6 13.5 1.3V9.3C13.5 9.9 13.7 10.5 14.2 10.9C14.6 11.3 15.2 11.6 15.8 11.6H23.8C24.5 11.6 25.1 11 25.1 10.3C25 4.6 20.4 0 14.8 0ZM15.4 1.9V9.3C15.4 9.4 15.4 9.5 15.5 9.5C15.6 9.6 15.6 9.6 15.7 9.6H23.1C22.8 5.5 19.5 2.2 15.4 1.9Z" fill="#FFAA00"/>
<path fill-rule="evenodd" clip-rule="evenodd" d="M10.3 3.8C4.6 3.8 0 8.4 0 14.1C0 17 1.1 19.8 3.2 21.8C5.2 23.8 8 25 10.9 25C16.6 25 21.2 20.4 21.2 14.7V14.4C21.2 13.9 20.8 13.4 20.2 13.4H13.2C12.8 13.4 12.4 13.2 12.1 12.9C11.8 12.6 11.6 12.2 11.6 11.8V4.8C11.6 4.3 11.2 3.8 10.6 3.8H10.3ZM9.6 5.8C5.3 6.1 1.9 9.7 1.9 14.1C1.9 16.5 2.8 18.8 4.5 20.4C6.2 22.1 8.5 23 10.8 23C15.2 23 18.8 19.6 19.1 15.3H13C12.1 15.3 11.2 14.9 10.5 14.3C9.8 13.6 9.5 12.7 9.5 11.8V5.8H9.6Z" fill="#FFAA00"/>
</svg>
