<svg width="26" height="25" viewBox="0 0 26 25" fill="none" xmlns="http://www.w3.org/2000/svg">
<path fill-rule="evenodd" clip-rule="evenodd" d="M9.44437 15.548L2.31086 12.6343C0.904248 12.0315 0 10.6249 0 9.11783C0.100472 7.61075 1.10519 6.30462 2.61227 5.80226L22.2043 0.075354C23.0081 -0.12559 23.8119 0.075354 24.4147 0.678186C25.0175 1.28102 25.2185 2.08479 25.0175 2.88857C23.8119 7.00792 21.0991 15.9499 19.1901 22.3801C18.7883 23.8872 17.4821 24.8919 15.8746 24.9924C14.3675 25.0929 12.9609 24.1886 12.3581 22.782L9.44437 15.548ZM11.4538 15.0457L14.267 21.9782C14.5684 22.5811 15.1713 23.0834 15.8746 22.983C16.5779 22.983 17.1807 22.4806 17.3817 21.7773C19.2906 15.3471 21.9029 6.40509 23.1086 2.28574C23.1086 2.18527 23.1086 2.08479 23.0081 1.98432C23.0081 1.98432 22.9076 1.88385 22.8071 1.98432L3.2151 7.71122C2.61227 7.91217 2.10991 8.515 2.10991 9.2183C2.10991 9.92161 2.5118 10.5244 3.11463 10.8259L10.0472 13.6391L14.7694 8.91689C15.1713 8.515 15.7741 8.515 16.176 8.91689C16.5779 9.31877 16.5779 9.92161 16.176 10.3235L11.4538 15.0457Z" fill="#009AFF"/>
</svg>
