<svg width="40" height="40" viewBox="0 0 40 40" fill="none" xmlns="http://www.w3.org/2000/svg">
<path d="M28.1882 28.5037C29.71 31.0636 31.1907 33.5835 32.6919 36.1034C26.07 41.0233 15.7671 41.6232 8.15812 35.9434C-0.623036 29.4037 -2.06257 18.2641 2.6262 10.2244C8.03473 1.00477 18.132 -1.05515 24.6511 0.444795C24.466 0.824781 20.5792 8.68448 20.5792 8.68448C20.5792 8.68448 20.2708 8.70448 20.0857 8.70448C18.1732 8.78448 16.7336 9.22446 15.1913 10.0044C11.7775 11.7444 9.4537 15.0042 9.02184 18.7441C8.79563 20.604 9.06297 22.504 9.78274 24.2239C10.3997 25.6838 11.284 26.9838 12.4562 28.0837C14.2659 29.7637 16.4046 30.8236 18.8724 31.1636C21.2168 31.4836 23.4789 31.1636 25.597 30.1237C26.3991 29.7437 27.0777 29.3037 27.8592 28.7237C27.9826 28.6637 28.0648 28.5837 28.1882 28.5037Z" fill="#FF492C"/>
<path d="M28.2094 6.10473C27.8187 5.74475 27.4691 5.40476 27.1195 5.06477C26.9138 4.86478 26.7082 4.64479 26.482 4.4448C26.3997 4.3648 26.3175 4.2848 26.3175 4.2848C26.3175 4.2848 26.3997 4.12481 26.4203 4.06481C26.8316 3.26484 27.4897 2.66487 28.2506 2.18488C29.0937 1.6649 30.1014 1.38491 31.1091 1.42491C32.4046 1.44491 33.5974 1.7649 34.6051 2.60487C35.3454 3.22484 35.7361 4.00481 35.7978 4.94478C35.9006 6.52472 35.2426 7.74467 33.8853 8.58464C33.1038 9.08462 32.2401 9.46461 31.397 9.92459C30.924 10.1846 30.5332 10.4046 30.0603 10.8446C29.649 11.3045 29.6284 11.7245 29.6284 11.7245H35.7361V14.4044H26.3175C26.3175 14.4044 26.3175 14.2244 26.3175 14.1444C26.2763 12.8445 26.4409 11.6245 27.0578 10.4446C27.613 9.36461 28.4973 8.56464 29.5461 7.96466C30.3482 7.50468 31.2119 7.1047 32.0139 6.62471C32.5075 6.34472 32.8571 5.90474 32.8571 5.30476C32.8571 4.78478 32.4663 4.3048 31.9111 4.16481C30.5949 3.82482 29.2377 4.3648 28.5385 5.54475C28.4356 5.72475 28.3328 5.88474 28.2094 6.10473Z" fill="#FF492C"/>
<path d="M39.9933 25.6838L34.8521 17.0641H24.6931L19.5107 25.7838H29.752L34.8109 34.3834L39.9933 25.6838Z" fill="#FF492C"/>
</svg>
