<svg width="27" height="27" viewBox="0 0 27 27" fill="none" xmlns="http://www.w3.org/2000/svg">
<path d="M25.9938 23.5819V13.7218C25.9938 6.72356 20.3702 1 13.4969 1C6.62359 1 1 6.72356 1 13.7218V23.5819C1 25.1565 1.93724 25.5813 3.08696 24.5316L4.33664 23.3944C4.79903 22.9695 5.54888 22.9695 6.01126 23.3944L8.51064 25.6813C8.97302 26.1062 9.72279 26.1062 10.1852 25.6813L12.6845 23.3944C13.1469 22.9695 13.8968 22.9695 14.3592 23.3944L16.8585 25.6813C17.3209 26.1062 18.0708 26.1062 18.5332 25.6813L21.0325 23.3944C21.4949 22.9695 22.2447 22.9695 22.7071 23.3944L23.9568 24.5316C25.0565 25.5813 25.9938 25.1565 25.9938 23.5819Z" stroke="#111111" stroke-width="2" stroke-linecap="round" stroke-linejoin="round"/>
<path d="M8.49805 15.9963C11.4598 18.2208 15.5338 18.2208 18.4955 15.9963" stroke="#111111" stroke-width="2" stroke-linecap="round" stroke-linejoin="round"/>
<path d="M13.4964 12.2473C14.8768 12.2473 15.9958 11.1283 15.9958 9.74791C15.9958 8.36754 14.8768 7.24854 13.4964 7.24854C12.1161 7.24854 10.9971 8.36754 10.9971 9.74791C10.9971 11.1283 12.1161 12.2473 13.4964 12.2473Z" stroke="#111111" stroke-width="2" stroke-linecap="round" stroke-linejoin="round"/>
</svg>
