<svg width="22" height="20" viewBox="0 0 22 20" fill="none" xmlns="http://www.w3.org/2000/svg">
<path fill-rule="evenodd" clip-rule="evenodd" d="M6.75789 7.83447C7.35456 7.83447 7.84097 8.32089 7.84097 8.91756C7.84097 9.51423 7.35456 10.0006 6.75789 10.0006C6.16122 10.0006 5.6748 9.51423 5.6748 8.91756C5.6748 8.32089 6.16122 7.83447 6.75789 7.83447Z" fill="#F9518C"/>
<path fill-rule="evenodd" clip-rule="evenodd" d="M10.5391 7.83447C11.1358 7.83447 11.6222 8.32089 11.6222 8.91756C11.6222 9.51423 11.1358 10.0006 10.5391 10.0006C9.94247 10.0006 9.45605 9.51423 9.45605 8.91756C9.45605 8.32089 9.94247 7.83447 10.5391 7.83447Z" fill="#F9518C"/>
<path fill-rule="evenodd" clip-rule="evenodd" d="M14.3201 7.83447C14.9168 7.83447 15.4032 8.32089 15.4032 8.91756C15.4032 9.51423 14.9168 10.0006 14.3201 10.0006C13.7235 10.0006 13.2371 9.51423 13.2371 8.91756C13.2371 8.32089 13.7235 7.83447 14.3201 7.83447Z" fill="#F9518C"/>
<path fill-rule="evenodd" clip-rule="evenodd" d="M21.078 5.13654C21.078 3.77458 20.5397 2.47099 19.5733 1.50464C18.6135 0.538299 17.3034 0 15.9414 0H5.13654C3.77458 0 2.47099 0.538299 1.50464 1.50464C0.538299 2.47099 0 3.77458 0 5.13654V19.1907C0 19.489 0.162138 19.7614 0.428045 19.9041C0.693952 20.0468 1.01174 20.0273 1.25819 19.8652C1.25819 19.8652 3.4503 18.4059 4.22857 17.8871C4.27397 17.8612 4.32585 17.8417 4.37774 17.8417H15.9414C17.3034 17.8417 18.607 17.3034 19.5733 16.3371C20.5397 15.3707 21.078 14.0671 21.078 12.7052V5.13654ZM1.62138 17.6731L3.33356 16.5316C3.64487 16.3241 4.00806 16.2138 4.38422 16.2138H15.9479C16.8818 16.2138 17.7769 15.8442 18.4319 15.1826C19.0934 14.5276 19.4631 13.6326 19.4631 12.6987V5.13654C19.4631 4.20263 19.0934 3.30762 18.4319 2.65258C17.7704 1.99106 16.8754 1.62138 15.9414 1.62138H5.13654C4.20263 1.62138 3.30762 1.99106 2.65258 2.65258C1.99106 3.30762 1.62138 4.20263 1.62138 5.13654V17.6731Z" fill="#F9518C"/>
</svg>
