<svg width="20" height="22" viewBox="0 0 20 22" fill="none" xmlns="http://www.w3.org/2000/svg">
<path d="M19.17 7.58003V14.42C19.17 15.54 18.57 16.58 17.6 17.15L11.66 20.58C10.69 21.14 9.49 21.14 8.51 20.58L2.57 17.15C1.6 16.59 1 15.55 1 14.42V7.58003C1 6.46003 1.6 5.41999 2.57 4.84999L8.51 1.42C9.48 0.86 10.68 0.86 11.66 1.42L17.6 4.84999C18.57 5.41999 19.17 6.45003 19.17 7.58003Z" stroke="#999999" stroke-width="1.5" stroke-linecap="round" stroke-linejoin="round"/>
<path d="M10.0898 10.0001C11.3766 10.0001 12.4198 8.95687 12.4198 7.67004C12.4198 6.38322 11.3766 5.34009 10.0898 5.34009C8.80294 5.34009 7.75977 6.38322 7.75977 7.67004C7.75977 8.95687 8.80294 10.0001 10.0898 10.0001Z" stroke="#999999" stroke-width="1.5" stroke-linecap="round" stroke-linejoin="round"/>
<path d="M14.0898 15.6601C14.0898 13.8601 12.2998 12.4001 10.0898 12.4001C7.87984 12.4001 6.08984 13.8601 6.08984 15.6601" stroke="#999999" stroke-width="1.5" stroke-linecap="round" stroke-linejoin="round"/>
</svg>
