<svg width="134" height="135" viewBox="0 0 134 135" fill="none" xmlns="http://www.w3.org/2000/svg">
<path d="M28.3528 78.0196C22.6351 56.681 35.2984 34.7475 56.637 29.0298C77.9757 23.3121 99.9092 35.9754 105.627 57.3141L115.98 95.9511L77.3426 106.304C56.0039 112.022 34.0704 99.3583 28.3528 78.0196Z" fill="#00CEC9" fill-opacity="0.4"/>
<circle cx="67.0789" cy="68.0788" r="33" transform="rotate(60 67.0789 68.0788)" fill="white"/>
<path d="M67.6362 78L60.0522 78C56.2602 78 55.0002 75.5059 55.0002 73L55.0002 63C55.0002 59.247 56.2602 58 60.0522 58L67.6362 58C71.4282 58 72.6882 59.247 72.6882 63L72.6882 73C72.6882 76.753 71.4162 78 67.6362 78Z" stroke="#00CEC9" stroke-width="2" stroke-linecap="round" stroke-linejoin="round"/>
<path d="M76.0242 74.057L72.6882 71.7411L72.6882 64.247L76.0242 61.9311C77.6562 60.8029 79.0002 61.4917 79.0002 63.4751L79.0002 72.5249C79.0002 74.5083 77.6562 75.1972 76.0242 74.057Z" stroke="#00CEC9" stroke-width="2" stroke-linecap="round" stroke-linejoin="round"/>
<path d="M66.4003 66.8122C67.3945 66.8122 68.2003 66.0146 68.2003 65.0307C68.2003 64.0469 67.3945 63.2493 66.4003 63.2493C65.4062 63.2493 64.6003 64.0469 64.6003 65.0307C64.6003 66.0146 65.4062 66.8122 66.4003 66.8122Z" stroke="#00CEC9" stroke-width="2" stroke-linecap="round" stroke-linejoin="round"/>
</svg>
