<svg width="180" height="180" viewBox="0 0 180 180" fill="none" xmlns="http://www.w3.org/2000/svg">
<path d="M90 30C123.137 30 150 56.8629 150 90C150 123.137 123.137 150 90 150L30 150L30 90C30 56.8629 56.8629 30 90 30Z" fill="#FEC458" fill-opacity="0.5"/>
<circle cx="90.2372" cy="90.237" r="50" transform="rotate(165 90.2372 90.237)" fill="white"/>
<path d="M104.955 99.495C104.955 100.035 104.835 100.59 104.58 101.13C104.325 101.67 103.995 102.18 103.56 102.66C102.825 103.47 102.015 104.055 101.1 104.43C100.2 104.805 99.225 105 98.175 105C96.645 105 95.01 104.64 93.285 103.905C91.56 103.17 89.835 102.18 88.125 100.935C86.4 99.675 84.765 98.28 83.205 96.735C81.66 95.175 80.265 93.54 79.02 91.83C77.79 90.12 76.8 88.41 76.08 86.715C75.36 85.005 75 83.37 75 81.81C75 80.79 75.18 79.815 75.54 78.915C75.9 78 76.47 77.16 77.265 76.41C78.225 75.465 79.275 75 80.385 75C80.805 75 81.225 75.09 81.6 75.27C81.99 75.45 82.335 75.72 82.605 76.11L86.085 81.015C86.355 81.39 86.55 81.735 86.685 82.065C86.82 82.38 86.895 82.695 86.895 82.98C86.895 83.34 86.79 83.7 86.58 84.045C86.385 84.39 86.1 84.75 85.74 85.11L84.6 86.295C84.435 86.46 84.36 86.655 84.36 86.895C84.36 87.015 84.375 87.12 84.405 87.24C84.45 87.36 84.495 87.45 84.525 87.54C84.795 88.035 85.26 88.68 85.92 89.46C86.595 90.24 87.315 91.035 88.095 91.83C88.905 92.625 89.685 93.36 90.48 94.035C91.26 94.695 91.905 95.145 92.415 95.415C92.49 95.445 92.58 95.49 92.685 95.535C92.805 95.58 92.925 95.595 93.06 95.595C93.315 95.595 93.51 95.505 93.675 95.34L94.815 94.215C95.19 93.84 95.55 93.555 95.895 93.375C96.24 93.165 96.585 93.06 96.96 93.06C97.245 93.06 97.545 93.12 97.875 93.255C98.205 93.39 98.55 93.585 98.925 93.84L103.89 97.365C104.28 97.635 104.55 97.95 104.715 98.325C104.865 98.7 104.955 99.075 104.955 99.495Z" stroke="#FEC458" stroke-width="2" stroke-miterlimit="10"/>
<path d="M99.75 85.5C99.75 84.6 99.045 83.22 97.995 82.095C97.035 81.06 95.76 80.25 94.5 80.25" stroke="#FEC458" stroke-width="2" stroke-linecap="round" stroke-linejoin="round"/>
<path d="M105 85.5C105 79.695 100.305 75 94.5 75" stroke="#FEC458" stroke-width="2" stroke-linecap="round" stroke-linejoin="round"/>
</svg>
