<svg width="20" height="22" viewBox="0 0 20 22" fill="none" xmlns="http://www.w3.org/2000/svg">
<path d="M5.75 4.5C5.34 4.5 5 4.16 5 3.75V0.75C5 0.34 5.34 0 5.75 0C6.16 0 6.5 0.34 6.5 0.75V3.75C6.5 4.16 6.16 4.5 5.75 4.5Z" fill="#999999"/>
<path d="M13.75 4.5C13.34 4.5 13 4.16 13 3.75V0.75C13 0.34 13.34 0 13.75 0C14.16 0 14.5 0.34 14.5 0.75V3.75C14.5 4.16 14.16 4.5 13.75 4.5Z" fill="#999999"/>
<path d="M6.25 13.2498C6.12 13.2498 5.99 13.2198 5.87 13.1698C5.74 13.1198 5.64 13.0498 5.54 12.9598C5.36 12.7698 5.25 12.5198 5.25 12.2498C5.25 12.1198 5.28 11.9898 5.33 11.8698C5.38 11.7498 5.45 11.6398 5.54 11.5398C5.64 11.4498 5.74 11.3798 5.87 11.3298C6.23 11.1798 6.68 11.2598 6.96 11.5398C7.14 11.7298 7.25 11.9898 7.25 12.2498C7.25 12.3098 7.24 12.3798 7.23 12.4498C7.22 12.5098 7.2 12.5698 7.17 12.6298C7.15 12.6898 7.12 12.7498 7.08 12.8098C7.05 12.8598 7 12.9098 6.96 12.9598C6.77 13.1398 6.51 13.2498 6.25 13.2498Z" fill="#999999"/>
<path d="M9.75 13.2499C9.62 13.2499 9.49 13.2199 9.37 13.1699C9.24 13.1199 9.14 13.0499 9.04 12.9599C8.86 12.7699 8.75 12.5199 8.75 12.2499C8.75 12.1199 8.78 11.9899 8.83 11.8699C8.88 11.7499 8.95 11.6399 9.04 11.5399C9.14 11.4499 9.24 11.3799 9.37 11.3299C9.73 11.1699 10.18 11.2599 10.46 11.5399C10.64 11.7299 10.75 11.9899 10.75 12.2499C10.75 12.3099 10.74 12.3799 10.73 12.4499C10.72 12.5099 10.7 12.5699 10.67 12.6299C10.65 12.6899 10.62 12.7499 10.58 12.8099C10.55 12.8599 10.5 12.9099 10.46 12.9599C10.27 13.1399 10.01 13.2499 9.75 13.2499Z" fill="#999999"/>
<path d="M13.25 13.2499C13.12 13.2499 12.99 13.2199 12.87 13.1699C12.74 13.1199 12.64 13.0499 12.54 12.9599C12.5 12.9099 12.46 12.8599 12.42 12.8099C12.38 12.7499 12.35 12.6899 12.33 12.6299C12.3 12.5699 12.28 12.5099 12.27 12.4499C12.26 12.3799 12.25 12.3099 12.25 12.2499C12.25 11.9899 12.36 11.7299 12.54 11.5399C12.64 11.4499 12.74 11.3799 12.87 11.3299C13.24 11.1699 13.68 11.2599 13.96 11.5399C14.14 11.7299 14.25 11.9899 14.25 12.2499C14.25 12.3099 14.24 12.3799 14.23 12.4499C14.22 12.5099 14.2 12.5699 14.17 12.6299C14.15 12.6899 14.12 12.7499 14.08 12.8099C14.05 12.8599 14 12.9099 13.96 12.9599C13.77 13.1399 13.51 13.2499 13.25 13.2499Z" fill="#999999"/>
<path d="M6.25 16.7502C6.12 16.7502 5.99 16.7202 5.87 16.6702C5.75 16.6202 5.64 16.5502 5.54 16.4602C5.36 16.2702 5.25 16.0102 5.25 15.7502C5.25 15.6202 5.28 15.4902 5.33 15.3702C5.38 15.2402 5.45 15.1302 5.54 15.0402C5.91 14.6702 6.59 14.6702 6.96 15.0402C7.14 15.2302 7.25 15.4902 7.25 15.7502C7.25 16.0102 7.14 16.2702 6.96 16.4602C6.77 16.6402 6.51 16.7502 6.25 16.7502Z" fill="#999999"/>
<path d="M9.75 16.7502C9.49 16.7502 9.23 16.6402 9.04 16.4602C8.86 16.2702 8.75 16.0102 8.75 15.7502C8.75 15.6202 8.78 15.4902 8.83 15.3702C8.88 15.2402 8.95 15.1302 9.04 15.0402C9.41 14.6702 10.09 14.6702 10.46 15.0402C10.55 15.1302 10.62 15.2402 10.67 15.3702C10.72 15.4902 10.75 15.6202 10.75 15.7502C10.75 16.0102 10.64 16.2702 10.46 16.4602C10.27 16.6402 10.01 16.7502 9.75 16.7502Z" fill="#999999"/>
<path d="M13.25 16.7499C12.99 16.7499 12.73 16.6399 12.54 16.4599C12.45 16.3699 12.38 16.2599 12.33 16.1299C12.28 16.0099 12.25 15.8799 12.25 15.7499C12.25 15.6199 12.28 15.4899 12.33 15.3699C12.38 15.2399 12.45 15.1299 12.54 15.0399C12.77 14.8099 13.12 14.6999 13.44 14.7699C13.51 14.7799 13.57 14.7999 13.63 14.8299C13.69 14.8499 13.75 14.8799 13.81 14.9199C13.86 14.9499 13.91 14.9999 13.96 15.0399C14.14 15.2299 14.25 15.4899 14.25 15.7499C14.25 16.0099 14.14 16.2699 13.96 16.4599C13.77 16.6399 13.51 16.7499 13.25 16.7499Z" fill="#999999"/>
<path d="M18.25 8.58984H1.25C0.84 8.58984 0.5 8.24984 0.5 7.83984C0.5 7.42984 0.84 7.08984 1.25 7.08984H18.25C18.66 7.08984 19 7.42984 19 7.83984C19 8.24984 18.66 8.58984 18.25 8.58984Z" fill="#999999"/>
<path d="M13.75 21.5H5.75C2.1 21.5 0 19.4 0 15.75V7.25C0 3.6 2.1 1.5 5.75 1.5H13.75C17.4 1.5 19.5 3.6 19.5 7.25V15.75C19.5 19.4 17.4 21.5 13.75 21.5ZM5.75 3C2.89 3 1.5 4.39 1.5 7.25V15.75C1.5 18.61 2.89 20 5.75 20H13.75C16.61 20 18 18.61 18 15.75V7.25C18 4.39 16.61 3 13.75 3H5.75Z" fill="#999999"/>
</svg>
