<svg width="25" height="18" viewBox="0 0 25 18" fill="none" xmlns="http://www.w3.org/2000/svg">
<path d="M13.3455 3.72363H11.4836C10.9698 3.72363 10.5527 4.14068 10.5527 4.65454C10.5527 5.1684 10.9698 5.58544 11.4836 5.58544H13.3455C13.8593 5.58544 14.2764 5.1684 14.2764 4.65454C14.2764 4.14068 13.8593 3.72363 13.3455 3.72363Z" fill="#0EC36B"/>
<path d="M22.8115 1.49679C21.9774 1.17656 21.0242 1.39998 20.421 2.06279L17.9932 4.7289V7.49928L21.7987 3.31392C21.8881 3.21711 22.0221 3.18732 22.1413 3.232C22.2604 3.27669 22.3424 3.39584 22.3424 3.52245V14.4773C22.3424 14.604 22.2604 14.7231 22.1413 14.7678C22.0221 14.8125 21.8881 14.7827 21.7987 14.6859L18.0006 10.5005V13.2709L20.4284 15.937C21.0316 16.5998 21.9849 16.8232 22.819 16.503C23.6531 16.1828 24.2042 15.371 24.2042 14.4773V3.52245C24.2042 2.62133 23.6531 1.81703 22.8115 1.49679Z" fill="#0EC36B"/>
<path d="M18 7.49938V4.729V4.65453C18 3.41829 17.5085 2.23417 16.6372 1.36285C15.7584 0.491518 14.5817 0 13.3455 0H4.65453C3.41829 0 2.23417 0.491518 1.36285 1.36285C0.491518 2.23417 0 3.41829 0 4.65453V13.3455C0 14.5817 0.491518 15.7658 1.36285 16.6372C2.23417 17.5085 3.41829 18 4.65453 18H13.3455C14.5817 18 15.7658 17.5085 16.6372 16.6372C17.5085 15.7658 18 14.5817 18 13.3455V13.271V10.5006V7.49938ZM16.1382 13.3455C16.1382 14.0827 15.8403 14.7977 15.319 15.319C14.7977 15.8403 14.0827 16.1382 13.3455 16.1382H4.65453C3.91725 16.1382 3.20232 15.8477 2.68101 15.319C2.1597 14.7977 1.86181 14.0827 1.86181 13.3455V4.65453C1.86181 3.91725 2.1597 3.20232 2.68101 2.68101C3.20232 2.1597 3.91725 1.86181 4.65453 1.86181H13.3455C14.0827 1.86181 14.7977 2.1597 15.319 2.68101C15.8403 3.20232 16.1382 3.91725 16.1382 4.65453V13.3455Z" fill="#0EC36B"/>
</svg>
