<svg width="23" height="20" viewBox="0 0 23 20" fill="none" xmlns="http://www.w3.org/2000/svg">
<path fill-rule="evenodd" clip-rule="evenodd" d="M22.2832 5.43024C22.2832 2.43401 19.8492 0 16.8529 0H5.43024C2.43401 0 0 2.43401 0 5.43024V14.5698C0 17.566 2.43401 20 5.43024 20H16.8598C19.856 20 22.29 17.5728 22.29 14.5698V5.43024H22.2832ZM20.5691 5.43024C20.5691 3.38018 18.903 1.71409 16.8529 1.71409H5.43024C3.38018 1.71409 1.71409 3.38018 1.71409 5.43024V14.5698C1.71409 16.6198 3.38018 18.2859 5.43024 18.2859H16.8598C18.9098 18.2859 20.5759 16.6198 20.5759 14.5698V5.43024H20.5691Z" fill="#00CEC9"/>
<path fill-rule="evenodd" clip-rule="evenodd" d="M3.66192 6.2529C3.66192 6.2529 6.3839 8.49493 8.42024 10.1747C10.0041 11.4774 12.2872 11.4774 13.871 10.1747C15.88 8.52236 18.5471 6.32147 18.5471 6.32147C18.9105 6.01979 18.9653 5.47813 18.6636 5.11475C18.362 4.75136 17.8203 4.69651 17.4569 4.99819C17.4569 4.99819 14.7898 7.19908 12.7809 8.85146C11.8347 9.63309 10.4634 9.63309 9.5104 8.85146C7.47406 7.17165 4.74523 4.92962 4.74523 4.92962C4.38184 4.62795 3.84019 4.6828 3.53851 5.04618C3.24369 5.40957 3.29168 5.95122 3.66192 6.2529Z" fill="#00CEC9"/>
</svg>
