<svg width="20" height="20" viewBox="0 0 20 20" fill="none" xmlns="http://www.w3.org/2000/svg">
<path fill-rule="evenodd" clip-rule="evenodd" d="M20 4.87385C20 2.18462 17.5728 0 14.5698 0H5.43024C2.43401 0 0 2.18462 0 4.87385V15.1323C0 17.8154 2.43401 20 5.43024 20H14.5698C17.566 20 20 17.8154 20 15.1262V4.87385ZM18.2859 4.87385V15.1323C18.2859 16.9723 16.6198 18.4677 14.5698 18.4677H5.43024C3.37333 18.4615 1.71409 16.9662 1.71409 15.1262V4.87385C1.71409 3.02769 3.37333 1.53846 5.43024 1.53846H14.5698C16.6198 1.53846 18.2859 3.02769 18.2859 4.87385Z" fill="#0095FF"/>
<g opacity="0.5">
<path fill-rule="evenodd" clip-rule="evenodd" d="M6.56115 7.18153H13.4175C13.8906 7.18153 14.2746 6.83691 14.2746 6.4123C14.2746 5.98768 13.8906 5.64307 13.4175 5.64307H6.56115C6.08806 5.64307 5.7041 5.98768 5.7041 6.4123C5.7041 6.83691 6.08806 7.18153 6.56115 7.18153Z" fill="#0095FF"/>
</g>
<g opacity="0.5">
<path fill-rule="evenodd" clip-rule="evenodd" d="M6.56823 10.7692H13.4246C13.8977 10.7692 14.2816 10.4246 14.2816 9.99994C14.2816 9.57533 13.8977 9.23071 13.4246 9.23071H6.56823C6.09514 9.23071 5.71118 9.57533 5.71118 9.99994C5.71118 10.4246 6.09514 10.7692 6.56823 10.7692Z" fill="#0095FF"/>
</g>
<g opacity="0.5">
<path fill-rule="evenodd" clip-rule="evenodd" d="M6.56823 14.3568H9.99641C10.4695 14.3568 10.8535 14.0122 10.8535 13.5876C10.8535 13.163 10.4695 12.8184 9.99641 12.8184H6.56823C6.09514 12.8184 5.71118 13.163 5.71118 13.5876C5.71118 14.0122 6.09514 14.3568 6.56823 14.3568Z" fill="#0095FF"/>
</g>
</svg>
