<svg width="20" height="20" viewBox="0 0 20 20" fill="none" xmlns="http://www.w3.org/2000/svg">
<g clip-path="url(#clip0_2850_1739)">
<path d="M2.7 0C1.2 0 0 1.2 0 2.7C0 4.2 1.2 5.4 2.7 5.4C4.2 5.4 5.4 4.2 5.4 2.7C5.4 1.2 4.2 0 2.7 0ZM2.7 3.8C2.1 3.8 1.5 3.3 1.5 2.6C1.5 1.9 2 1.4 2.7 1.4C3.4 1.4 3.9 1.9 3.9 2.6C3.9 3.3 3.3 3.8 2.7 3.8Z" fill="white"/>
<path d="M4.6 6.2002H0.8C0.3 6.2002 0 6.5002 0 6.9002C0 7.3002 0.3 7.7002 0.8 7.7002H3.9V18.5002H1.5V10.0002C1.5 9.6002 1.2 9.2002 0.7 9.2002C0.2 9.2002 0 9.6002 0 10.0002V19.2002C0 19.7002 0.3 20.0002 0.8 20.0002H4.6C5 20.0002 5.4 19.7002 5.4 19.2002V6.9002C5.4 6.5002 5 6.2002 4.6 6.2002Z" fill="white"/>
<path d="M18.7016 7.39961C17.8016 6.49961 16.6016 6.09961 15.4016 6.09961H14.6016C13.5016 6.09961 12.5016 6.29961 11.5016 6.79961C11.5016 6.39961 11.1016 6.09961 10.7016 6.09961H6.90156C6.50156 6.09961 6.10156 6.39961 6.10156 6.89961V19.1996C6.10156 19.5996 6.40156 19.9996 6.90156 19.9996H10.7016C11.1016 19.9996 11.5016 19.6996 11.5016 19.1996V12.2996C11.5016 11.4996 12.2016 10.7996 13.0016 10.7996C13.8016 10.7996 14.5016 11.4996 14.5016 12.2996V19.1996C14.5016 19.5996 14.8016 19.9996 15.3016 19.9996H19.1016C19.5016 19.9996 19.9016 19.6996 19.9016 19.1996V10.6996C20.0016 9.49961 19.6016 8.29961 18.7016 7.39961ZM18.5016 18.4996H16.2016V12.2996C16.2016 10.5996 14.8016 9.19961 13.1016 9.19961C11.4016 9.19961 10.0016 10.5996 10.0016 12.2996V18.4996H7.70156V7.69961H10.0016V8.49961C10.0016 8.79961 10.2016 9.09961 10.5016 9.19961C10.8016 9.29961 11.1016 9.29961 11.3016 8.99961C12.0016 8.19961 12.6016 7.69961 14.6016 7.69961H15.4016C16.2016 7.69961 17.0016 7.99961 17.6016 8.49961C18.2016 9.09961 18.5016 9.89961 18.4016 10.6996V18.4996H18.5016Z" fill="white"/>
</g>
<defs>
<clipPath id="clip0_2850_1739">
<rect width="20" height="20" fill="white"/>
</clipPath>
</defs>
</svg>
