<svg xmlns="http://www.w3.org/2000/svg" width="18" height="18" viewBox="0 0 18 18" fill="none">
  <path fill-rule="evenodd" clip-rule="evenodd" d="M14.8842 4.19583C14.8842 4.79236 14.4006 5.27583 13.8042 5.27583C13.2078 5.27583 12.7242 4.79236 12.7242 4.19583C12.7242 3.5993 13.2078 3.11583 13.8042 3.11583C14.4007 3.11583 14.8842 3.5993 14.8842 4.19583ZM9 12C7.34316 12 6.00005 10.6568 6.00005 9C6.00005 7.34316 7.34316 6.00005 9 6.00005C10.6568 6.00005 12 7.34316 12 9C12 10.6568 10.6568 12 9 12ZM9 4.37836C6.44752 4.37836 4.37836 6.44752 4.37836 9C4.37836 11.5525 6.44752 13.6216 9 13.6216C11.5525 13.6216 13.6216 11.5525 13.6216 9C13.6216 6.44752 11.5525 4.37836 9 4.37836ZM9 1.62169C11.4031 1.62169 11.6878 1.63083 12.6367 1.67414C13.5142 1.71422 13.9908 1.86075 14.3079 1.98408C14.7279 2.14734 15.0277 2.34239 15.3427 2.65739C15.6577 2.97225 15.8528 3.27206 16.0161 3.69225C16.1392 4.00936 16.2859 4.48594 16.326 5.36344C16.3693 6.31252 16.3785 6.59714 16.3785 9.00028C16.3785 11.4034 16.3693 11.688 16.326 12.637C16.2859 13.5145 16.1394 13.9911 16.0161 14.3082C15.8528 14.7282 15.6577 15.028 15.3427 15.343C15.0279 15.658 14.7281 15.8531 14.3079 16.0163C13.9908 16.1395 13.5142 16.2862 12.6367 16.3263C11.6878 16.3696 11.4031 16.3787 9 16.3787C6.59672 16.3787 6.31209 16.3696 5.36316 16.3263C4.48566 16.2862 4.00908 16.1397 3.69197 16.0163C3.27192 15.8531 2.97211 15.658 2.65711 15.343C2.34225 15.0282 2.14706 14.7284 1.9838 14.3082C1.86061 13.9911 1.71394 13.5145 1.67386 12.637C1.63055 11.6879 1.62141 11.4033 1.62141 9.00028C1.62141 6.59714 1.63055 6.31252 1.67386 5.36344C1.71394 4.48594 1.86047 4.00936 1.9838 3.69225C2.14706 3.2722 2.34211 2.97239 2.65711 2.65739C2.97197 2.34239 3.27178 2.14734 3.69197 1.98408C4.00908 1.86089 4.48566 1.71422 5.36316 1.67414C6.31223 1.63083 6.59686 1.62169 9 1.62169ZM9 0C6.5558 0 6.24923 0.0104063 5.28933 0.0541406C4.33139 0.097875 3.67706 0.250031 3.10472 0.4725C2.51283 0.702422 2.01094 1.01025 1.51059 1.51059C1.01025 2.01094 0.702422 2.51283 0.4725 3.10472C0.250031 3.6772 0.097875 4.33139 0.0541406 5.28933C0.0104063 6.24923 0 6.5558 0 9C0 11.4442 0.0104063 11.7508 0.0541406 12.7107C0.097875 13.6686 0.250031 14.3228 0.4725 14.8953C0.702422 15.4872 1.01025 15.9891 1.51059 16.4894C2.01094 16.9898 2.51283 17.2974 3.10472 17.5275C3.6772 17.75 4.33139 17.9021 5.28933 17.9459C6.24923 17.9896 6.5558 18 9 18C11.4442 18 11.7508 17.9896 12.7107 17.9459C13.6686 17.9021 14.3228 17.75 14.8953 17.5275C15.4872 17.2974 15.9891 16.9898 16.4894 16.4894C16.9898 15.9891 17.2974 15.4872 17.5275 14.8953C17.75 14.3228 17.9021 13.6686 17.9459 12.7107C17.9896 11.7508 18 11.4442 18 9C18 6.5558 17.9896 6.24923 17.9459 5.28933C17.9021 4.33139 17.75 3.6772 17.5275 3.10472C17.2974 2.51283 16.9898 2.01094 16.4894 1.51059C15.9891 1.01025 15.4872 0.702562 14.8953 0.4725C14.3228 0.250031 13.6686 0.097875 12.7107 0.0541406C11.7508 0.0104063 11.4442 0 9 0Z" fill="white"/>
</svg>