<svg width="22" height="22" viewBox="0 0 22 22" fill="none" xmlns="http://www.w3.org/2000/svg">
<path d="M15.91 5.03003C17.91 6.42003 19.29 8.63003 19.57 11.18" stroke="#0095FF" stroke-width="1.5" stroke-linecap="round" stroke-linejoin="round"/>
<path d="M2.44 11.23C2.7 8.68996 4.06 6.47996 6.04 5.07996" stroke="#0095FF" stroke-width="1.5" stroke-linecap="round" stroke-linejoin="round"/>
<path d="M7.14 19.8C8.3 20.39 9.62 20.72 11.01 20.72C12.35 20.72 13.61 20.42 14.74 19.87" stroke="#0095FF" stroke-width="1.5" stroke-linecap="round" stroke-linejoin="round"/>
<path d="M11.01 6.56C12.5453 6.56 13.79 5.31535 13.79 3.78C13.79 2.24465 12.5453 1 11.01 1C9.47464 1 8.23 2.24465 8.23 3.78C8.23 5.31535 9.47464 6.56 11.01 6.56Z" stroke="#0095FF" stroke-width="1.5" stroke-linecap="round" stroke-linejoin="round"/>
<path d="M3.78 18.78C5.31535 18.78 6.56 17.5353 6.56 16C6.56 14.4646 5.31535 13.22 3.78 13.22C2.24465 13.22 1 14.4646 1 16C1 17.5353 2.24465 18.78 3.78 18.78Z" stroke="#0095FF" stroke-width="1.5" stroke-linecap="round" stroke-linejoin="round"/>
<path d="M18.12 18.78C19.6553 18.78 20.9 17.5353 20.9 16C20.9 14.4646 19.6553 13.22 18.12 13.22C16.5846 13.22 15.34 14.4646 15.34 16C15.34 17.5353 16.5846 18.78 18.12 18.78Z" stroke="#0095FF" stroke-width="1.5" stroke-linecap="round" stroke-linejoin="round"/>
</svg>
