<svg width="116" height="151" viewBox="0 0 116 151" fill="none" xmlns="http://www.w3.org/2000/svg">
<path opacity="0.7" d="M71.9004 126.29L68.9004 128.18L64.1104 123.72L71.9004 126.29Z" fill="#8B7BC8"/>
<path d="M27.6305 21.0399L20.9705 10.5799C20.7605 10.2499 20.5905 9.91989 20.4305 9.57989C20.3605 9.43989 20.2905 9.29989 20.2305 9.15989C20.1205 8.88989 20.0205 8.62989 19.9305 8.35989C19.8905 8.23989 19.8505 8.11989 19.8105 7.99989C19.7005 7.61989 19.6205 7.22989 19.5605 6.85989C19.5605 6.84989 19.5605 6.83989 19.5605 6.82989C19.5105 6.46989 19.5005 6.10989 19.5005 5.76989C19.5005 5.65989 19.5205 5.54989 19.5205 5.43989C19.5405 5.19989 19.5605 4.96989 19.6105 4.74989C19.6305 4.62989 19.6605 4.50989 19.6905 4.39989C19.7505 4.15989 19.8305 3.91989 19.9305 3.69989C19.9505 3.65989 19.9605 3.60989 19.9805 3.56989C20.1105 3.30989 20.2705 3.06989 20.4405 2.84989C20.4805 2.79989 20.5205 2.75989 20.5605 2.70989C20.7505 2.49989 20.9705 2.29989 21.2105 2.13989L12.4205 7.63989C12.1705 7.79989 11.9605 7.99989 11.7705 8.20989C11.7305 8.25989 11.6905 8.29989 11.6505 8.34989C11.4705 8.56989 11.3105 8.80989 11.1905 9.06989C11.1705 9.10989 11.1605 9.15989 11.1405 9.19989C11.0805 9.32989 11.0205 9.45989 10.9705 9.59989C10.9405 9.68989 10.9305 9.79989 10.9005 9.89989C10.8705 10.0199 10.8405 10.1299 10.8205 10.2499C10.7805 10.4699 10.7505 10.7099 10.7305 10.9399C10.7205 11.0499 10.7105 11.1599 10.7105 11.2699C10.7005 11.6099 10.7205 11.9699 10.7705 12.3299C10.7705 12.3399 10.7705 12.3499 10.7705 12.3599C10.8205 12.6999 10.8805 13.0399 10.9805 13.3799C10.9905 13.4199 11.0105 13.4599 11.0205 13.4999C11.0505 13.6199 11.1005 13.7399 11.1405 13.8599C11.2305 14.1299 11.3205 14.3899 11.4405 14.6599C11.5005 14.7999 11.5705 14.9399 11.6405 15.0799C11.7005 15.1999 11.7505 15.3299 11.8105 15.4499C11.9205 15.6599 12.0505 15.8699 12.1805 16.0799L18.8405 26.5399L22.8705 72.8299L33.8405 71.8699L31.6605 67.3199L27.6305 21.0399Z" fill="url(#paint0_linear_1_987)"/>
<path d="M113.8 88.0799C111.04 83.7399 106.42 81.7699 103.47 83.6799L105.47 82.3799C108.66 80.3099 108.83 74.8199 105.85 70.1299C102.86 65.4299 97.8399 63.2999 94.6499 65.3599L95.7299 64.6599C99.0599 62.5099 99.2299 56.7799 96.1099 51.8799C92.9999 46.9999 87.7699 44.7799 84.4399 46.9299L85.4799 46.2599C88.9399 44.0199 89.1199 38.0799 85.8799 32.9899C82.6399 27.8999 77.2199 25.5899 73.7599 27.8299L51.2599 42.3999C49.7299 32.5799 45.8499 22.5199 40.0599 13.4199L37.1999 8.91991C32.9399 2.21991 25.7799 -0.830095 21.2199 2.11991C19.0199 3.54991 18.8999 7.32991 20.9599 10.5699L27.6199 21.0299L31.6499 67.3199C31.7199 68.1499 32.0299 69.0399 32.5299 69.8299L67.1599 124.27C68.4299 126.26 70.5399 127.16 71.8899 126.28L113.45 99.3699C116.41 97.4699 116.56 92.4199 113.8 88.0799Z" fill="url(#paint1_linear_1_987)"/>
<path d="M55.8903 145.05L47.1003 150.55C45.9003 151.33 44.2503 151.05 42.7803 150L51.5703 144.5C53.0403 145.55 54.6903 145.82 55.8903 145.05Z" fill="#003B64"/>
<path d="M51.57 144.5L42.78 150C42.04 149.47 41.36 148.75 40.79 147.87L49.58 142.37C50.15 143.25 50.83 143.97 51.57 144.5Z" fill="#003D68"/>
<path d="M70.1907 129.02L67.1707 124.28L32.5407 69.8399L30.5907 66.7699C28.9107 64.1299 26.0807 62.9199 24.2807 64.0899L10.1907 73.2099C8.39074 74.3699 8.30074 77.4699 9.98074 80.1099L49.5807 142.36C51.2607 145 54.0907 146.21 55.8907 145.04L69.9807 135.92C71.7807 134.76 71.8707 131.67 70.1907 129.02Z" fill="url(#paint2_linear_1_987)"/>
<path opacity="0.7" d="M113.8 88.0799C111.04 83.7399 106.42 81.7699 103.47 83.6799L105.47 82.3799C108.66 80.3099 108.83 74.8199 105.85 70.1299C102.86 65.4299 97.84 63.2999 94.65 65.3599L95.73 64.6599C99.06 62.5099 99.23 56.7799 96.11 51.8799C93 46.9999 87.77 44.7799 84.44 46.9299L84.61 47.1899C85.4 46.6799 86.32 46.4199 87.34 46.4199C90.33 46.4199 93.67 48.6299 95.85 52.0599C98.87 56.8099 98.74 62.3499 95.56 64.4099L94.48 65.1099L94.82 65.6299C95.58 65.1399 96.46 64.8899 97.44 64.8899C100.3 64.8899 103.5 67.0099 105.59 70.2999C108.48 74.8499 108.35 80.1499 105.31 82.1299L103.31 83.4299L103.65 83.9499C104.35 83.4999 105.15 83.2699 106.05 83.2699C108.68 83.2699 111.62 85.2299 113.55 88.2499C116.21 92.4299 116.1 97.3099 113.3 99.1199L71.74 126.03C71.45 126.22 71.11 126.31 70.73 126.31C69.58 126.31 68.03 125.61 67.18 124.27L69.94 129.18C71.53 131.68 71.48 134.58 69.82 135.65L55.73 144.77C55.33 145.03 54.86 145.16 54.33 145.16C52.76 145.16 51.01 143.99 49.85 142.18L10.25 79.9299C8.66 77.4299 8.71 74.5299 10.37 73.4599L24.46 64.3399C24.86 64.0799 25.33 63.9499 25.86 63.9499C27.43 63.9499 29.18 65.1199 30.34 66.9299L32.55 69.8299C32.07 69.0799 32.04 68.0799 31.98 67.2999L27.94 20.9299L21.24 10.3999C19.27 7.30991 19.35 3.70991 21.4 2.36991C22.5 1.65991 23.78 1.28991 25.2 1.28991C29.33 1.28991 33.94 4.33991 36.94 9.06991L39.8 13.5599C45.57 22.6399 49.43 32.6199 50.96 42.4199L51.03 42.8899L73.92 28.0999C74.75 27.5599 75.7 27.2899 76.77 27.2899C79.87 27.2899 83.35 29.5899 85.62 33.1599C88.76 38.0999 88.62 43.8599 85.31 45.9999L84.27 46.6699L84.44 46.9299L85.48 46.2599C88.94 44.0199 89.12 38.0799 85.88 32.9899C82.64 27.8999 77.22 25.5899 73.76 27.8299L51.26 42.3999C49.73 32.5799 45.85 22.5199 40.06 13.4199L37.2 8.91991C32.94 2.21991 25.78 -0.830094 21.22 2.11991C19.02 3.54991 18.9 7.32991 20.96 10.5699L27.62 21.0299L31.65 67.3199C31.72 68.1499 32.03 69.0399 32.53 69.8299L30.58 66.7599C28.9 64.1199 26.07 62.9099 24.27 64.0799L10.18 73.1999C8.38 74.3599 8.29 77.4599 9.97 80.0999L49.57 142.35C51.25 144.99 54.08 146.2 55.88 145.03L69.97 135.91C71.77 134.75 71.86 131.65 70.18 129.01L67.16 124.27C68.43 126.26 70.54 127.16 71.89 126.28L113.45 99.3699C116.41 97.4699 116.56 92.4199 113.8 88.0799Z" fill="url(#paint3_linear_1_987)"/>
<path d="M49.58 142.36L9.99 80.1099C9.82 79.8399 9.68 79.5699 9.55 79.2899C9.49 79.1799 9.44 79.0599 9.39 78.9499C9.3 78.7299 9.22 78.5199 9.15 78.2999C9.12 78.1999 9.08 78.0999 9.05 78.0099C8.96 77.6999 8.89 77.3899 8.85 77.0799C8.85 77.0699 8.85 77.0599 8.85 77.0499C8.81 76.7599 8.8 76.4699 8.8 76.1899C8.8 76.0999 8.81 76.0099 8.82 75.9199C8.83 75.7299 8.85 75.5399 8.89 75.3499C8.91 75.2499 8.93 75.1599 8.96 75.0599C9.01 74.8599 9.07 74.6699 9.15 74.4899C9.17 74.4599 9.18 74.4199 9.19 74.3899C9.29 74.1799 9.42 73.9799 9.57 73.7999C9.6 73.7599 9.64 73.7199 9.67 73.6799C9.83 73.5099 10 73.3399 10.2 73.2099L24.29 64.0899L15.5 69.5899L1.41 78.7199C1.21 78.8499 1.04 79.0099 0.88 79.1899C0.85 79.2299 0.81 79.2699 0.78 79.3099C0.63 79.4899 0.51 79.6799 0.4 79.8999C0.38 79.9299 0.37 79.9699 0.36 80.0099C0.31 80.1199 0.26 80.2199 0.22 80.3399C0.19 80.4199 0.18 80.4999 0.16 80.5799C0.13 80.6699 0.11 80.7699 0.09 80.8699C0.05 81.0499 0.03 81.2399 0.02 81.4399C0.01 81.5099 0 81.5999 0 81.6899C0 81.9699 0.01 82.2599 0.05 82.5599C0.05 82.5699 0.05 82.5799 0.05 82.5899C0.09 82.8699 0.14 83.1399 0.22 83.4299C0.23 83.4599 0.24 83.4899 0.25 83.5199C0.28 83.6199 0.32 83.7199 0.35 83.8099C0.42 84.0299 0.5 84.2499 0.59 84.4599C0.64 84.5799 0.69 84.6899 0.75 84.7999C0.8 84.8999 0.84 84.9999 0.89 85.0999C0.98 85.2699 1.08 85.4399 1.19 85.6099L40.79 147.86C42.47 150.5 45.3 151.71 47.1 150.54L55.89 145.04C54.09 146.21 51.27 145.01 49.58 142.36Z" fill="url(#paint4_linear_1_987)"/>
<defs>
<linearGradient id="paint0_linear_1_987" x1="7.46121" y1="10.1495" x2="77.0353" y2="140.518" gradientUnits="userSpaceOnUse">
<stop offset="0.00217948" stop-color="#E0D4FF"/>
<stop offset="0.0147" stop-color="#CEC0F7"/>
<stop offset="0.0292" stop-color="#C0B1F0"/>
<stop offset="0.0406" stop-color="#BBABEE"/>
<stop offset="0.0986" stop-color="#BAA9EC"/>
<stop offset="0.1195" stop-color="#B5A3E5"/>
<stop offset="0.1344" stop-color="#AC99DA"/>
<stop offset="0.1383" stop-color="#A995D5"/>
<stop offset="0.2654" stop-color="#A793D4"/>
<stop offset="0.33" stop-color="#9F8CD1"/>
<stop offset="0.3806" stop-color="#9281CB"/>
<stop offset="0.4236" stop-color="#7F70C3"/>
<stop offset="0.4561" stop-color="#6B5FBA"/>
<stop offset="0.6741" stop-color="#6D61BB"/>
<stop offset="0.7526" stop-color="#7468BF"/>
<stop offset="0.8086" stop-color="#7F73C6"/>
<stop offset="0.8539" stop-color="#9084D0"/>
<stop offset="0.8926" stop-color="#A69ADD"/>
<stop offset="0.9263" stop-color="#C1B5ED"/>
<stop offset="0.9563" stop-color="#E0D4FF"/>
</linearGradient>
<linearGradient id="paint1_linear_1_987" x1="81.9049" y1="29.3762" x2="10.4384" y2="134.695" gradientUnits="userSpaceOnUse">
<stop stop-color="#E8F4FE"/>
<stop offset="0.9569" stop-color="#D0BCFF"/>
<stop offset="1" stop-color="#CEB9FF"/>
</linearGradient>
<linearGradient id="paint2_linear_1_987" x1="-17.3642" y1="177.961" x2="54.9382" y2="85.5977" gradientUnits="userSpaceOnUse">
<stop offset="0.1295" stop-color="#0047A1"/>
<stop offset="0.2617" stop-color="#004AA7"/>
<stop offset="0.4295" stop-color="#0053B6"/>
<stop offset="0.5287" stop-color="#005BC3"/>
<stop offset="0.6256" stop-color="#0461C7"/>
<stop offset="0.7488" stop-color="#0E70D3"/>
<stop offset="0.8857" stop-color="#208AE7"/>
<stop offset="0.998" stop-color="#32A5FC"/>
</linearGradient>
<linearGradient id="paint3_linear_1_987" x1="79.2594" y1="17.7029" x2="35.3574" y2="140.813" gradientUnits="userSpaceOnUse">
<stop offset="0.0757" stop-color="white"/>
<stop offset="1" stop-color="white" stop-opacity="0"/>
</linearGradient>
<linearGradient id="paint4_linear_1_987" x1="9.7288" y1="70.9156" x2="60.2985" y2="148.651" gradientUnits="userSpaceOnUse">
<stop stop-color="#32A5FC"/>
<stop offset="0.0352" stop-color="#1E7FD7"/>
<stop offset="0.0704" stop-color="#0E61BA"/>
<stop offset="0.1003" stop-color="#044EA8"/>
<stop offset="0.1213" stop-color="#0047A1"/>
<stop offset="0.4074" stop-color="#003085"/>
<stop offset="0.6525" stop-color="#003287"/>
<stop offset="0.7767" stop-color="#00388F"/>
<stop offset="0.8736" stop-color="#00439C"/>
<stop offset="0.8986" stop-color="#0047A1"/>
<stop offset="0.9094" stop-color="#034DA6"/>
<stop offset="0.9231" stop-color="#0B5CB6"/>
<stop offset="0.9385" stop-color="#1976CF"/>
<stop offset="0.9548" stop-color="#2C9AF2"/>
<stop offset="0.9591" stop-color="#32A5FC"/>
</linearGradient>
</defs>
</svg>
