<svg xmlns="http://www.w3.org/2000/svg" width="19" height="18" viewBox="0 0 19 18" fill="none">
  <path d="M0.238808 5.85461H4.27473V18H0.238808V5.85461ZM2.28379 0C0.902457 0 0 0.906852 0 2.09712C0 3.26292 0.876047 4.19613 2.23097 4.19613H2.2567C3.66444 4.19613 4.54112 3.26287 4.54112 2.09712C4.51471 0.906852 3.66449 0 2.28379 0ZM14.1841 5.5693C12.0417 5.5693 11.082 6.74765 10.5466 7.57401V5.85461H6.50942C6.56287 6.99399 6.50942 18 6.50942 18H10.5466V11.2172C10.5466 10.8539 10.573 10.4919 10.6792 10.2317C10.9715 9.50649 11.6357 8.7555 12.7499 8.7555C14.2117 8.7555 14.7955 9.86977 14.7955 11.5017V18H18.832V11.0356C18.832 7.30507 16.8411 5.5693 14.1841 5.5693Z" fill="#333333"/>
</svg>