<svg xmlns="http://www.w3.org/2000/svg" width="19" height="18" viewBox="0 0 19 18" fill="none">
  <path d="M0.238808 5.85448H4.27473V17.9999H0.238808V5.85448ZM2.28379 -0.00012207C0.902457 -0.00012207 0 0.90673 0 2.097C0 3.26279 0.876047 4.19601 2.23097 4.19601H2.2567C3.66444 4.19601 4.54112 3.26275 4.54112 2.097C4.51471 0.90673 3.66449 -0.00012207 2.28379 -0.00012207ZM14.1841 5.56918C12.0417 5.56918 11.082 6.74752 10.5466 7.57389V5.85448H6.50942C6.56287 6.99387 6.50942 17.9999 6.50942 17.9999H10.5466V11.217C10.5466 10.8538 10.573 10.4918 10.6792 10.2316C10.9715 9.50637 11.6357 8.75538 12.7499 8.75538C14.2117 8.75538 14.7955 9.86965 14.7955 11.5016V17.9998H18.832V11.0354C18.832 7.30495 16.8411 5.56918 14.1841 5.56918Z" fill="white"/>
</svg>