<svg width="60" height="60" viewBox="0 0 60 60" fill="none" xmlns="http://www.w3.org/2000/svg">
<path d="M30 60C13.4315 60 -5.87108e-07 46.5685 -1.31134e-06 30C-2.03558e-06 13.4315 13.4315 2.98917e-06 30 2.26494e-06L60 9.53596e-07L60 30C60 46.5685 46.5685 60 30 60Z" fill="#00CEC9"/>
<path d="M30 53C17.2975 53 7 42.7026 7 30C7 17.2975 17.2974 7 30 7C42.7025 7 53 17.2975 53 30C53 42.7025 42.7026 53 30 53Z" fill="white"/>
<path d="M27.3 39H32.7C37.2 39 39 37.2 39 32.7V27.3C39 22.8 37.2 21 32.7 21H27.3C22.8 21 21 22.8 21 27.3V32.7C21 37.2 22.8 39 27.3 39Z" stroke="#111111" stroke-width="1.5" stroke-linecap="round" stroke-linejoin="round"/>
<path d="M30 21V39" stroke="#111111" stroke-width="1.5" stroke-linecap="round" stroke-linejoin="round"/>
<path d="M21 27.75H30" stroke="#111111" stroke-width="1.5" stroke-linecap="round" stroke-linejoin="round"/>
<path d="M30 32.25H39" stroke="#111111" stroke-width="1.5" stroke-linecap="round" stroke-linejoin="round"/>
</svg>
