<svg xmlns="http://www.w3.org/2000/svg" width="20" height="18" viewBox="0 0 20 18" fill="none">
  <path d="M1 3.28571C1 2.67951 1.21071 2.09812 1.58579 1.66947C1.96086 1.24082 2.46957 1 3 1H17C17.5304 1 18.0391 1.24082 18.4142 1.66947C18.7893 2.09812 19 2.67951 19 3.28571M1 3.28571V14.7143C1 15.3205 1.21071 15.9019 1.58579 16.3305C1.96086 16.7592 2.46957 17 3 17H17C17.5304 17 18.0391 16.7592 18.4142 16.3305C18.7893 15.9019 19 15.3205 19 14.7143V3.28571M1 3.28571L10 10.1429L19 3.28571" stroke="#0099FF" stroke-width="2" stroke-linecap="round" stroke-linejoin="round"/>
</svg>