<svg width="22" height="22" viewBox="0 0 22 22" fill="none" xmlns="http://www.w3.org/2000/svg">
<path d="M21 8.00002V14C21 16.5 20.5 18.25 19.38 19.38L13 13L20.73 5.27002C20.91 6.06002 21 6.96002 21 8.00002Z" stroke="#0095FF" stroke-width="1.5" stroke-linecap="round" stroke-linejoin="round"/>
<path d="M20.73 5.27L5.26999 20.73C2.25999 20.04 1 17.96 1 14V8C1 3 3 1 8 1H14C17.96 1 20.04 2.26 20.73 5.27Z" stroke="#0095FF" stroke-width="1.5" stroke-linecap="round" stroke-linejoin="round"/>
<path d="M19.38 19.38C18.25 20.5 16.5 21 14 21H8.00003C6.96003 21 6.06002 20.91 5.27002 20.73L13 13L19.38 19.38Z" stroke="#0095FF" stroke-width="1.5" stroke-linecap="round" stroke-linejoin="round"/>
<path d="M5.24002 6.97997C5.92002 4.04997 10.32 4.04997 11 6.97997C11.39 8.69997 10.31 10.16 9.36001 11.06C8.67001 11.72 7.58003 11.72 6.88003 11.06C5.93003 10.16 4.84002 8.69997 5.24002 6.97997Z" stroke="#0095FF" stroke-width="1.5"/>
<path d="M8.0946 7.69995H8.10359" stroke="#0095FF" stroke-width="2" stroke-linecap="round" stroke-linejoin="round"/>
</svg>
