<svg width="31" height="28" viewBox="0 0 31 28" fill="none" xmlns="http://www.w3.org/2000/svg">
<g clip-path="url(#clip0_434_37)">
<path d="M28.6527 0.107178L16.9258 8.78852L19.105 3.67081L28.6527 0.107178Z" fill="#E17726" stroke="#E17726" stroke-width="0.25" stroke-linecap="round" stroke-linejoin="round"/>
<path d="M1.59766 0.107178L13.2264 8.8689L11.1453 3.67081L1.59766 0.107178Z" fill="#E27625" stroke="#E27625" stroke-width="0.25" stroke-linecap="round" stroke-linejoin="round"/>
<path d="M24.4257 20.2386L21.3086 25.008L27.9893 26.8478L29.9006 20.3458L24.4257 20.2386Z" fill="#E27625" stroke="#E27625" stroke-width="0.25" stroke-linecap="round" stroke-linejoin="round"/>
<path d="M0.355469 20.3458L2.25786 26.8478L8.92963 25.008L5.8215 20.2386L0.355469 20.3458Z" fill="#E27625" stroke="#E27625" stroke-width="0.25" stroke-linecap="round" stroke-linejoin="round"/>
<path d="M8.57258 12.1825L6.71484 14.9869L13.3241 15.2906L13.1008 8.17224L8.57258 12.1825Z" fill="#E27625" stroke="#E27625" stroke-width="0.25" stroke-linecap="round" stroke-linejoin="round"/>
<path d="M21.6862 12.1825L17.0776 8.08295L16.9258 15.2817L23.535 14.978L21.6862 12.1825Z" fill="#E27625" stroke="#E27625" stroke-width="0.25" stroke-linecap="round" stroke-linejoin="round"/>
<path d="M8.92969 25.008L12.931 23.0788L9.48344 20.3904L8.92969 25.008Z" fill="#E27625" stroke="#E27625" stroke-width="0.25" stroke-linecap="round" stroke-linejoin="round"/>
<path d="M17.3164 23.0699L21.3088 25.008L20.7639 20.3904L17.3164 23.0699Z" fill="#E27625" stroke="#E27625" stroke-width="0.25" stroke-linecap="round" stroke-linejoin="round"/>
<path d="M21.3088 25.008L17.3164 23.0788L17.6379 25.6689L17.6022 26.7675L21.3088 25.008Z" fill="#D5BFB2" stroke="#D5BFB2" stroke-width="0.25" stroke-linecap="round" stroke-linejoin="round"/>
<path d="M8.92969 25.008L12.6452 26.7675L12.6184 25.6689L12.931 23.0788L8.92969 25.008Z" fill="#D5BFB2" stroke="#D5BFB2" stroke-width="0.25" stroke-linecap="round" stroke-linejoin="round"/>
<path d="M12.7092 18.6756L9.38672 17.7021L11.7268 16.6214L12.7092 18.6756Z" fill="#233447" stroke="#233447" stroke-width="0.25" stroke-linecap="round" stroke-linejoin="round"/>
<path d="M17.543 18.6756L18.5165 16.6303L20.8744 17.711L17.543 18.6756Z" fill="#233447" stroke="#233447" stroke-width="0.25" stroke-linecap="round" stroke-linejoin="round"/>
<path d="M8.93235 25.008L9.51289 20.2386L5.82422 20.3458L8.93235 25.008Z" fill="#CC6228" stroke="#CC6228" stroke-width="0.25" stroke-linecap="round" stroke-linejoin="round"/>
<path d="M20.7383 20.2386L21.3099 25.008L24.427 20.3458L20.7383 20.2386Z" fill="#CC6228" stroke="#CC6228" stroke-width="0.25" stroke-linecap="round" stroke-linejoin="round"/>
<path d="M23.535 14.9869L16.9258 15.2906L17.542 18.6845L18.5156 16.6392L20.8735 17.72L23.535 14.9869Z" fill="#CC6228" stroke="#CC6228" stroke-width="0.25" stroke-linecap="round" stroke-linejoin="round"/>
<path d="M9.39427 17.7021L11.7343 16.6214L12.7078 18.6667L13.3241 15.2727L6.71484 14.9691L9.39427 17.7021Z" fill="#CC6228" stroke="#CC6228" stroke-width="0.25" stroke-linecap="round" stroke-linejoin="round"/>
<path d="M6.71484 14.9869L9.48358 20.3904L9.39427 17.7021L6.71484 14.9869Z" fill="#E27525" stroke="#E27525" stroke-width="0.25" stroke-linecap="round" stroke-linejoin="round"/>
<path d="M20.8728 17.7021L20.7656 20.3904L23.5344 14.9869L20.8728 17.7021Z" fill="#E27525" stroke="#E27525" stroke-width="0.25" stroke-linecap="round" stroke-linejoin="round"/>
<path d="M13.3272 15.2816L12.7109 18.6756L13.488 22.6769L13.6577 17.3984L13.3272 15.2816Z" fill="#E27525" stroke="#E27525" stroke-width="0.25" stroke-linecap="round" stroke-linejoin="round"/>
<path d="M16.927 15.2816L16.6055 17.3895L16.7662 22.6769L17.5433 18.6756L16.927 15.2816Z" fill="#E27525" stroke="#E27525" stroke-width="0.25" stroke-linecap="round" stroke-linejoin="round"/>
<path d="M17.5427 18.6756L16.7656 22.6769L17.3194 23.0699L20.7669 20.3815L20.8741 17.6931L17.5427 18.6756Z" fill="#F5841F" stroke="#F5841F" stroke-width="0.25" stroke-linecap="round" stroke-linejoin="round"/>
<path d="M9.39453 17.7021L9.48384 20.3904L12.9314 23.0788L13.4851 22.6858L12.7081 18.6845L9.39453 17.7021Z" fill="#F5841F" stroke="#F5841F" stroke-width="0.25" stroke-linecap="round" stroke-linejoin="round"/>
<path d="M17.611 26.7675L17.6468 25.6689L17.3431 25.4099H12.9131L12.6273 25.6689L12.6541 26.7675L8.92969 25.008L10.2337 26.0708L12.8684 27.8839H17.3788L20.0225 26.0708L21.3086 25.008L17.611 26.7675Z" fill="#C0AC9D" stroke="#C0AC9D" stroke-width="0.25" stroke-linecap="round" stroke-linejoin="round"/>
<path d="M17.319 23.0699L16.7653 22.6769H13.4874L12.9337 23.0699L12.6211 25.66L12.9069 25.401H17.3369L17.6406 25.66L17.319 23.0699Z" fill="#161616" stroke="#161616" stroke-width="0.25" stroke-linecap="round" stroke-linejoin="round"/>
<path d="M29.1505 9.36014L30.133 4.5729L28.6504 0.116119L17.3164 8.50272L21.6749 12.1825L27.8376 13.9777L29.1952 12.3879L28.6057 11.9592L29.5435 11.1018L28.8201 10.548L29.7579 9.8335L29.1505 9.36014Z" fill="#763E1A" stroke="#763E1A" stroke-width="0.25" stroke-linecap="round" stroke-linejoin="round"/>
<path d="M0.105469 4.56396L1.10579 9.3512L0.471657 9.82456L1.42732 10.5391L0.703874 11.0928L1.64167 11.9502L1.0522 12.3789L2.40978 13.9687L8.57245 12.1735L12.931 8.49378L1.59702 0.107178L0.105469 4.56396Z" fill="#763E1A" stroke="#763E1A" stroke-width="0.25" stroke-linecap="round" stroke-linejoin="round"/>
<path d="M27.8393 13.9777L21.6766 12.1825L23.5344 14.9869L20.7656 20.3904L24.4364 20.3458H29.9114L27.8393 13.9777Z" fill="#F5841F" stroke="#F5841F" stroke-width="0.25" stroke-linecap="round" stroke-linejoin="round"/>
<path d="M8.57237 12.1825L2.40969 13.9777L0.355469 20.3458H5.8215L9.49231 20.3904L6.72357 14.9869L8.57237 12.1825Z" fill="#F5841F" stroke="#F5841F" stroke-width="0.25" stroke-linecap="round" stroke-linejoin="round"/>
<path d="M16.9232 15.2817L17.3161 8.50272L19.1024 3.67975H11.1445L12.9308 8.50272L13.3238 15.2817L13.4756 17.4073L13.4846 22.6769H16.7535L16.7624 17.4073L16.9232 15.2817Z" fill="#F5841F" stroke="#F5841F" stroke-width="0.25" stroke-linecap="round" stroke-linejoin="round"/>
</g>
<defs>
<clipPath id="clip0_434_37">
<rect width="30.2507" height="28" fill="white"/>
</clipPath>
</defs>
</svg>
