<svg width="14" height="18" viewBox="0 0 14 18" fill="none" xmlns="http://www.w3.org/2000/svg">
<path d="M7.11992 11.8C8.88792 11.8 10.3199 10.368 10.3199 8.6V4.2C10.3199 2.432 8.88792 1 7.11992 1C5.35192 1 3.91992 2.432 3.91992 4.2V8.6C3.91992 10.368 5.35192 11.8 7.11992 11.8Z" stroke="white" stroke-opacity="0.5" stroke-width="1.2" stroke-linecap="round" stroke-linejoin="round"/>
<path d="M1 7.11987V8.47987C1 11.8559 3.744 14.5999 7.12 14.5999C10.496 14.5999 13.24 11.8559 13.24 8.47987V7.11987" stroke="white" stroke-opacity="0.5" stroke-width="1.2" stroke-linecap="round" stroke-linejoin="round"/>
<path d="M6.00806 4.54419C6.72806 4.28019 7.51206 4.28019 8.23206 4.54419" stroke="white" stroke-opacity="0.5" stroke-width="1.2" stroke-linecap="round" stroke-linejoin="round"/>
<path d="M6.47998 6.24001C6.90398 6.12801 7.34398 6.12801 7.76798 6.24001" stroke="white" stroke-opacity="0.5" stroke-width="1.2" stroke-linecap="round" stroke-linejoin="round"/>
<path d="M7.12012 14.6001V17.0001" stroke="white" stroke-opacity="0.5" stroke-width="1.2" stroke-linecap="round" stroke-linejoin="round"/>
</svg>
