<svg width="15" height="18" viewBox="0 0 15 18" fill="none" xmlns="http://www.w3.org/2000/svg">
<path d="M10.5862 4.44V4.2C10.5862 2.432 9.15416 1 7.38616 1C5.61816 1 4.18616 2.432 4.18616 4.2V8.2" stroke="#F52E2F" stroke-width="1.5" stroke-linecap="round" stroke-linejoin="round"/>
<path d="M5.01819 10.752C5.60219 11.4 6.45019 11.8 7.38619 11.8C9.15419 11.8 10.5862 10.368 10.5862 8.59995V8.19995" stroke="#F52E2F" stroke-width="1.5" stroke-linecap="round" stroke-linejoin="round"/>
<path d="M3.21021 12.9599C4.30621 13.9759 5.7702 14.5999 7.3862 14.5999C10.7622 14.5999 13.5062 11.8559 13.5062 8.47987V7.11987" stroke="#F52E2F" stroke-width="1.5" stroke-linecap="round" stroke-linejoin="round"/>
<path d="M1.26611 7.11987V8.47987C1.26611 9.32787 1.43411 10.1279 1.74611 10.8639" stroke="#F52E2F" stroke-width="1.5" stroke-linecap="round" stroke-linejoin="round"/>
<path d="M13.8422 1.67212L0.930176 14.5921" stroke="#F52E2F" stroke-width="1.5" stroke-linecap="round" stroke-linejoin="round"/>
<path d="M6.58594 1.80005V4.20005" stroke="#F52E2F" stroke-width="1.5" stroke-linecap="round" stroke-linejoin="round"/>
<path d="M7.38623 14.6001V17.0001" stroke="#F52E2F" stroke-width="1.5" stroke-linecap="round" stroke-linejoin="round"/>
</svg>
