<svg width="22" height="22" viewBox="0 0 22 22" fill="none" xmlns="http://www.w3.org/2000/svg">
<path d="M21 10.89V11.78C21 15.34 20.11 16.22 16.56 16.22H5.44C1.89 16.22 1 15.33 1 11.78V5.44C1 1.89 1.89 1 5.44 1H7" stroke="#0095FF" stroke-width="1.5" stroke-linecap="round" stroke-linejoin="round"/>
<path d="M11 16.22V21" stroke="#0095FF" stroke-width="1.5" stroke-linecap="round" stroke-linejoin="round"/>
<path d="M1 12H21" stroke="#0095FF" stroke-width="1.5" stroke-linecap="round" stroke-linejoin="round"/>
<path d="M6.5 21H15.5" stroke="#0095FF" stroke-width="1.5" stroke-linecap="round" stroke-linejoin="round"/>
<path d="M16.8598 8.37001H12.0998C10.7198 8.37001 10.2598 7.45001 10.2598 6.53001V3.01001C10.2598 1.91001 11.1598 1.01001 12.2598 1.01001H16.8598C17.8798 1.01001 18.6998 1.83001 18.6998 2.85001V6.53001C18.6998 7.55001 17.8798 8.37001 16.8598 8.37001Z" stroke="#0095FF" stroke-width="1.5" stroke-linecap="round" stroke-linejoin="round"/>
<path d="M19.9102 6.91998L18.7002 6.06998V3.30998L19.9102 2.45998C20.5102 2.04998 21.0002 2.29998 21.0002 3.02998V6.35998C21.0002 7.08998 20.5102 7.33998 19.9102 6.91998Z" stroke="#0095FF" stroke-width="1.5" stroke-linecap="round" stroke-linejoin="round"/>
</svg>
