<svg width="15" height="3" viewBox="0 0 15 3" fill="none" xmlns="http://www.w3.org/2000/svg">
<path d="M1.5 0C0.675 0 0 0.675 0 1.5C0 2.325 0.675 3 1.5 3C2.325 3 3 2.325 3 1.5C3 0.675 2.325 0 1.5 0Z" fill="white" fill-opacity="0.5"/>
<path d="M13.5 0C12.675 0 12 0.675 12 1.5C12 2.325 12.675 3 13.5 3C14.325 3 15 2.325 15 1.5C15 0.675 14.325 0 13.5 0Z" fill="white" fill-opacity="0.5"/>
<path d="M7.5 0C6.675 0 6 0.675 6 1.5C6 2.325 6.675 3 7.5 3C8.325 3 9 2.325 9 1.5C9 0.675 8.325 0 7.5 0Z" fill="white" fill-opacity="0.5"/>
</svg>
