<svg width="19" height="18" viewBox="0 0 19 18" fill="none" xmlns="http://www.w3.org/2000/svg">
<path d="M5.52982 10.4979C5.30441 10.0312 5.19228 9.51788 5.20255 8.99969C5.24788 7.99255 5.69043 7.04441 6.43332 6.36286C7.1762 5.68132 8.15888 5.32191 9.16619 5.36333C9.91165 5.34384 10.6476 5.53389 11.2905 5.91187C11.9333 6.28985 12.4572 6.8406 12.8026 7.50151C13.028 7.96821 13.1401 8.48151 13.1298 8.99969C13.0845 10.0068 12.6419 10.955 11.8991 11.6365C11.1562 12.3181 10.1735 12.6775 9.16619 12.6361C8.56684 12.6391 7.97392 12.5126 7.42801 12.2651" stroke="#444444" stroke-width="2" stroke-linecap="round" stroke-linejoin="round"/>
<path d="M6.35938 16.4911L7.42847 12.2657L8.14847 9.42204L8.43937 8.27295" stroke="#444444" stroke-width="2" stroke-linecap="round" stroke-linejoin="round"/>
<path d="M9.1665 17C13.5848 17 17.1665 13.4183 17.1665 9C17.1665 4.58172 13.5848 1 9.1665 1C4.74823 1 1.1665 4.58172 1.1665 9C1.1665 13.4183 4.74823 17 9.1665 17Z" stroke="#444444" stroke-width="2" stroke-linecap="round" stroke-linejoin="round"/>
</svg>
