<svg width="18" height="19" viewBox="0 0 18 19" fill="none" xmlns="http://www.w3.org/2000/svg">
<path d="M5.36308 10.502C5.13766 10.0353 5.02553 9.52203 5.0358 9.00384C5.08113 7.9967 5.52368 7.04856 6.26657 6.36701C7.00945 5.68547 7.99213 5.32606 8.99944 5.36748C9.7449 5.34799 10.4809 5.53804 11.1237 5.91602C11.7665 6.294 12.2904 6.84475 12.6358 7.50566C12.8612 7.97236 12.9733 8.48566 12.9631 9.00384C12.9178 10.011 12.4752 10.9591 11.7323 11.6407C10.9894 12.3222 10.0067 12.6816 8.99944 12.6402C8.40009 12.6432 7.80717 12.5167 7.26126 12.2693" stroke="white" stroke-width="2" stroke-linecap="round" stroke-linejoin="round"/>
<path d="M6.19336 16.495L7.26245 12.2696L7.98245 9.42595L8.27336 8.27686" stroke="white" stroke-width="2" stroke-linecap="round" stroke-linejoin="round"/>
<path d="M9 17.0039C13.4183 17.0039 17 13.4222 17 9.00391C17 4.58563 13.4183 1.00391 9 1.00391C4.58172 1.00391 1 4.58563 1 9.00391C1 13.4222 4.58172 17.0039 9 17.0039Z" stroke="white" stroke-width="2" stroke-linecap="round" stroke-linejoin="round"/>
</svg>
