<svg width="160" height="50" viewBox="0 0 160 50" fill="none" xmlns="http://www.w3.org/2000/svg">
<rect width="160" height="50" rx="8" fill="#111111"/>
<path d="M59.1447 14.4774C59.1614 14.8472 59.1042 15.2167 58.9767 15.5639C58.8491 15.9111 58.6537 16.2291 58.402 16.4989C58.1112 16.8074 57.7585 17.0498 57.3674 17.2102C56.9762 17.3705 56.5556 17.4451 56.1336 17.4288C55.7197 17.4235 55.3109 17.3362 54.9305 17.1718C54.5502 17.0074 54.2057 16.7692 53.9167 16.4707C53.6278 16.1722 53.4001 15.8194 53.2466 15.4323C53.0931 15.0452 53.0168 14.6314 53.0221 14.2146C53.0168 13.7927 53.095 13.374 53.2523 12.9829C53.4095 12.5919 53.6426 12.2363 53.9379 11.937C54.2333 11.6377 54.5849 11.4008 54.9722 11.2399C55.3596 11.0791 55.7749 10.9977 56.1938 11.0004C56.6317 10.9928 57.0651 11.0898 57.4585 11.2834C57.825 11.4308 58.1542 11.6587 58.4221 11.9505L57.9001 12.4963C57.6988 12.2517 57.4429 12.0583 57.1535 11.9319C56.864 11.8054 56.549 11.7495 56.234 11.7686C55.9252 11.755 55.6171 11.8074 55.3299 11.9224C55.0427 12.0374 54.783 12.2123 54.5678 12.4357C54.336 12.668 54.1541 12.9457 54.0332 13.2517C53.9124 13.5577 53.8552 13.8855 53.8652 14.2146C53.8536 14.547 53.91 14.8782 54.0309 15.1877C54.1517 15.4972 54.3345 15.7784 54.5678 16.0137C54.783 16.2371 55.0427 16.4121 55.3299 16.527C55.6171 16.642 55.9252 16.6944 56.234 16.6808C56.5487 16.6939 56.8626 16.6414 57.1562 16.5266C57.4498 16.4118 57.7168 16.2372 57.9403 16.0137C58.2527 15.6691 58.4371 15.2263 58.4622 14.7604H56.1738V14.0327H59.0444V14.4774H59.1447ZM63.8421 11.8899H61.0518V13.9114H63.5611V14.6391H61.0518V16.6606H63.8421V17.4288H60.2689V11.3643H63.8421V11.8899ZM67.074 17.3075H66.2911V11.8899H64.6651V11.1419H68.8406V11.8899H67.074V17.3075ZM71.8115 17.3075V11.243H72.5744V17.3075H71.8115ZM76.0673 17.3075H75.3044V11.8899H73.5781V11.1419H77.7736V11.8899H76.0472V17.3075H76.0673ZM85.743 16.4989C85.4566 16.8006 85.1099 17.0376 84.7258 17.1944C84.3417 17.3512 83.9289 17.4242 83.5148 17.4086C83.1008 17.4229 82.6884 17.3494 82.3045 17.1926C81.9206 17.0359 81.5737 16.7995 81.2865 16.4989C80.7194 15.8793 80.4046 15.0674 80.4046 14.2247C80.4046 13.382 80.7194 12.5702 81.2865 11.9505C81.5737 11.6499 81.9206 11.4135 82.3045 11.2568C82.6884 11.1001 83.1008 11.0265 83.5148 11.0408C83.9298 11.0328 84.3419 11.1113 84.7254 11.2713C85.1088 11.4313 85.4553 11.6695 85.743 11.9707C86.0494 12.2593 86.2958 12.6063 86.4681 12.9914C86.6404 13.3766 86.7351 13.7923 86.7467 14.2146C86.7421 15.0673 86.4114 15.8854 85.8233 16.4989H85.743ZM81.7282 15.9733C81.9414 16.202 82.1998 16.3831 82.4868 16.5049C82.7738 16.6268 83.0829 16.6867 83.3943 16.6808C83.7054 16.6843 84.0138 16.6232 84.3004 16.5015C84.5871 16.3798 84.8458 16.2 85.0605 15.9733C85.3193 15.7593 85.5287 15.4911 85.6743 15.1874C85.8199 14.8837 85.8982 14.5518 85.9036 14.2146C85.9173 13.8916 85.8657 13.5691 85.7518 13.2667C85.6379 12.9644 85.4642 12.6885 85.2412 12.4559C85.0226 12.2357 84.7628 12.0615 84.4767 11.9435C84.1906 11.8255 83.8841 11.766 83.575 11.7686C83.2656 11.7638 82.9584 11.8222 82.672 11.9403C82.3856 12.0584 82.126 12.2338 81.9088 12.4559C81.6832 12.6875 81.5064 12.9628 81.3891 13.265C81.2718 13.5672 81.2164 13.8903 81.2263 14.2146C81.2176 14.5388 81.2734 14.8615 81.3907 15.1636C81.5079 15.4657 81.6841 15.741 81.9088 15.9733H81.7282ZM87.63 17.3075V11.243H88.5935L91.7653 15.9329V11.1419H92.5482V17.2064H91.7452L88.5935 12.1931V17.3075H87.63Z" fill="white" stroke="white" stroke-width="0.2" stroke-miterlimit="10"/>
<path d="M80.243 26.3442C79.3863 26.3482 78.55 26.6077 77.8396 27.0899C77.1292 27.5721 76.5765 28.2555 76.2514 29.0537C75.9263 29.8519 75.8433 30.7292 76.0129 31.5749C76.1824 32.4205 76.597 33.1967 77.2042 33.8053C77.8114 34.4139 78.584 34.8278 79.4246 34.9946C80.2651 35.1615 81.1359 35.0738 81.927 34.7428C82.7182 34.4117 83.3942 33.852 83.8698 33.1344C84.3453 32.4168 84.5991 31.5734 84.5991 30.7107C84.6073 30.1333 84.5001 29.5601 84.2838 29.0253C84.0675 28.4905 83.7466 28.005 83.3402 27.5976C82.9338 27.1902 82.4502 26.8693 81.9181 26.654C81.386 26.4387 80.8164 26.3333 80.243 26.3442ZM80.243 33.3588C79.7114 33.3995 79.1799 33.2777 78.7181 33.0094C78.2563 32.7411 77.8856 32.3387 77.6545 31.8549C77.4233 31.3711 77.3425 30.8283 77.4226 30.2975C77.5026 29.7666 77.7399 29.2725 78.1032 28.8796C78.4666 28.4867 78.9392 28.2133 79.4593 28.0951C79.9794 27.977 80.5228 28.0196 81.0185 28.2174C81.5141 28.4152 81.939 28.759 82.2376 29.2038C82.5362 29.6486 82.6946 30.1738 82.6921 30.7107C82.7029 31.3774 82.4515 32.0215 81.9927 32.5024C81.534 32.9833 80.9051 33.2621 80.243 33.278V33.3588ZM70.748 26.3442C69.8879 26.3484 69.0484 26.6101 68.3364 27.0959C67.6243 27.5818 67.0719 28.27 66.7493 29.0729C66.4267 29.8758 66.3485 30.7572 66.5247 31.605C66.7009 32.4528 67.1234 33.2287 67.7387 33.8339C68.3539 34.4392 69.134 34.8466 69.9798 35.0042C70.8255 35.1618 71.6987 35.0625 72.4883 34.719C73.2779 34.3755 73.9482 33.8033 74.414 33.0752C74.8798 32.347 75.12 31.4958 75.1041 30.6298C75.1015 30.0592 74.9863 29.4948 74.7653 28.9694C74.5442 28.444 74.2216 27.9681 73.8163 27.5693C73.411 27.1706 72.931 26.8569 72.4043 26.6466C71.8775 26.4363 71.3145 26.3335 70.748 26.3442ZM70.748 33.3588C70.2163 33.3995 69.6849 33.2777 69.223 33.0094C68.7612 32.7411 68.3905 32.3387 68.1594 31.8549C67.9283 31.3711 67.8474 30.8283 67.9275 30.2975C68.0076 29.7666 68.2448 29.2725 68.6081 28.8796C68.9715 28.4867 69.4441 28.2133 69.9642 28.0951C70.4843 27.977 71.0277 28.0196 71.5234 28.2174C72.0191 28.4152 72.444 28.759 72.7425 29.2038C73.0411 29.6486 73.1995 30.1738 73.197 30.7107C73.2078 31.3774 72.9564 32.0215 72.4977 32.5024C72.0389 32.9833 71.41 33.2621 70.748 33.278V33.3588ZM59.4663 27.6986V29.5382H63.8826C63.8158 30.4044 63.4624 31.223 62.8789 31.8629C62.4426 32.3144 61.9169 32.6683 61.3358 32.9017C60.7548 33.135 60.1315 33.2426 59.5064 33.2173C58.2642 33.1371 57.0988 32.5836 56.2473 31.6693C55.3957 30.755 54.9217 29.5485 54.9217 28.295C54.9217 27.0414 55.3957 25.8349 56.2473 24.9206C57.0988 24.0063 58.2642 23.4528 59.5064 23.3726C60.114 23.3627 60.7176 23.4736 61.2826 23.6991C61.8475 23.9246 62.3627 24.2602 62.7986 24.6866L64.0833 23.3928C63.4764 22.7875 62.7551 22.3111 61.962 21.9916C61.169 21.6721 60.3203 21.5162 59.4663 21.5331C58.5536 21.4828 57.6403 21.6204 56.7822 21.9375C55.9241 22.2546 55.1392 22.7446 54.4755 23.3774C53.8117 24.0102 53.2831 24.7727 52.9218 25.6182C52.5605 26.4637 52.3741 27.3745 52.3741 28.295C52.3741 29.2154 52.5605 30.1262 52.9218 30.9718C53.2831 31.8173 53.8117 32.5797 54.4755 33.2126C55.1392 33.8454 55.9241 34.3353 56.7822 34.6524C57.6403 34.9696 58.5536 35.1072 59.4663 35.0569C60.3393 35.1025 61.2117 34.9561 62.0228 34.628C62.834 34.2998 63.5645 33.7978 64.1636 33.1567C65.2373 31.9812 65.8072 30.4267 65.7495 28.8307C65.7605 28.444 65.7268 28.0573 65.6491 27.6784L59.4663 27.6986ZM105.637 29.1339C105.379 28.3363 104.881 27.6393 104.212 27.1394C103.543 26.6396 102.736 26.3617 101.903 26.3442C101.352 26.357 100.809 26.481 100.307 26.7091C99.8042 26.9371 99.3523 27.2644 98.9779 27.6717C98.6034 28.079 98.314 28.5578 98.1268 29.0798C97.9397 29.6019 97.8585 30.1565 97.8882 30.7107C97.8774 31.2827 97.981 31.8511 98.1928 32.382C98.4046 32.9129 98.7203 33.3955 99.1211 33.801C99.5219 34.2065 99.9996 34.5267 100.526 34.7424C101.052 34.9582 101.616 35.0651 102.184 35.0569C102.897 35.0641 103.601 34.8922 104.232 34.557C104.863 34.2217 105.401 33.7335 105.797 33.1365L104.312 32.1257C104.1 32.5045 103.79 32.8188 103.416 33.0357C103.041 33.2527 102.616 33.3643 102.184 33.3588C101.756 33.3608 101.337 33.2352 100.98 32.9978C100.623 32.7604 100.343 32.4218 100.177 32.0247L105.978 29.6191L105.637 29.1339ZM99.7551 30.5894C99.7362 30.2717 99.78 29.9535 99.884 29.653C99.9881 29.3525 100.15 29.0758 100.361 28.8389C100.572 28.602 100.828 28.4096 101.113 28.2729C101.398 28.1361 101.708 28.0578 102.024 28.0423C102.352 28.0251 102.678 28.1037 102.963 28.2687C103.248 28.4336 103.479 28.6779 103.629 28.9722L99.7551 30.5894ZM95.0377 34.8143H97.0451V21.9171H95.0377V34.8143ZM91.9061 27.3146C91.6045 26.9899 91.2365 26.735 90.8276 26.5674C90.4186 26.3999 89.9784 26.3238 89.5374 26.3442C88.3874 26.3442 87.2845 26.8043 86.4714 27.6231C85.6582 28.442 85.2014 29.5526 85.2014 30.7107C85.2014 31.8687 85.6582 32.9794 86.4714 33.7982C87.2845 34.6171 88.3874 35.0771 89.5374 35.0771C89.9675 35.09 90.3952 35.008 90.7905 34.8369C91.1858 34.6658 91.5392 34.4097 91.8258 34.0866V34.7132C91.8258 36.3911 90.9426 37.2806 89.5173 37.2806C89.047 37.2635 88.5917 37.1092 88.2068 36.8365C87.8219 36.5637 87.524 36.1843 87.3493 35.7442L85.6831 36.4315C85.9835 37.2038 86.5126 37.8644 87.1984 38.3237C87.8843 38.7829 88.6939 39.0186 89.5173 38.9988C90.0877 39.003 90.6523 38.8847 91.1737 38.6519C91.6951 38.4191 92.1613 38.0771 92.5411 37.6486C92.921 37.2202 93.2059 36.7152 93.3768 36.1672C93.5476 35.6192 93.6006 35.0409 93.5321 34.4707V26.5666H91.7255L91.9061 27.3146ZM89.7381 33.3791C89.0829 33.3212 88.473 33.0183 88.0287 32.5299C87.5844 32.0416 87.3379 31.4033 87.3379 30.741C87.3379 30.0787 87.5844 29.4404 88.0287 28.9521C88.473 28.4637 89.0829 28.1608 89.7381 28.1029C90.0635 28.1208 90.3821 28.204 90.6752 28.3474C90.9683 28.4909 91.23 28.6918 91.445 28.9385C91.66 29.1851 91.824 29.4725 91.9273 29.7837C92.0306 30.095 92.0712 30.4239 92.0467 30.7511C92.0574 31.0724 92.0051 31.3926 91.8928 31.6935C91.7806 31.9944 91.6105 32.2701 91.3924 32.5048C91.1743 32.7394 90.9124 32.9285 90.6216 33.0612C90.3309 33.1939 90.017 33.2675 89.698 33.278L89.7381 33.3791ZM114.53 21.9171H109.973V34.7335H111.98V29.8819H114.63C115.207 29.9837 115.799 29.957 116.365 29.8039C116.931 29.6507 117.457 29.3747 117.905 28.9952C118.354 28.6157 118.715 28.1419 118.962 27.6071C119.209 27.0723 119.338 26.4895 119.338 25.8995C119.338 25.3095 119.209 24.7267 118.962 24.1919C118.715 23.6571 118.354 23.1833 117.905 22.8038C117.457 22.4243 116.931 22.1483 116.365 21.9951C115.799 21.842 115.207 21.8153 114.63 21.9171H114.53ZM114.53 28.1029H111.86V23.7163H114.57C114.873 23.6869 115.18 23.7218 115.469 23.8186C115.759 23.9155 116.025 24.0722 116.251 24.2787C116.476 24.4852 116.657 24.737 116.78 25.0179C116.904 25.2987 116.967 25.6025 116.967 25.9096C116.967 26.2167 116.904 26.5205 116.78 26.8013C116.657 27.0822 116.476 27.334 116.251 27.5405C116.025 27.747 115.759 27.9038 115.469 28.0006C115.18 28.0975 114.873 28.1323 114.57 28.1029H114.53ZM126.313 26.3442C125.616 26.3104 124.924 26.484 124.325 26.8435C123.725 27.203 123.244 27.7325 122.941 28.3657L124.627 29.0733C124.832 28.7066 125.145 28.4135 125.524 28.2348C125.902 28.0561 126.326 28.0007 126.737 28.0764C127.148 28.1521 127.526 28.355 127.817 28.6569C128.108 28.9588 128.298 29.3446 128.361 29.7606V29.9021C127.739 29.5836 127.051 29.4174 126.353 29.4169C124.527 29.4169 122.68 30.4075 122.68 32.3077C122.695 32.7054 122.79 33.096 122.959 33.4556C123.129 33.8152 123.369 34.1362 123.666 34.3991C123.963 34.662 124.31 34.8613 124.685 34.9848C125.061 35.1084 125.458 35.1535 125.852 35.1176C126.326 35.1507 126.801 35.0536 127.225 34.8364C127.65 34.6193 128.007 34.2902 128.26 33.8844V34.875H130.087V29.8414C130.089 29.3555 129.99 28.8745 129.797 28.4292C129.604 27.9838 129.321 27.5839 128.966 27.2548C128.611 26.9258 128.192 26.6749 127.735 26.5181C127.278 26.3613 126.794 26.3021 126.313 26.3442ZM126.072 33.3588C125.45 33.3588 124.607 33.0354 124.607 32.2672C124.607 31.4991 125.671 30.8926 126.614 30.8926C127.223 30.8783 127.825 31.0247 128.361 31.3171C128.267 31.8618 127.987 32.3561 127.569 32.7143C127.151 33.0725 126.621 33.2719 126.072 33.278V33.3588ZM136.852 26.607L134.684 32.1662L132.416 26.607H130.408L133.781 34.3898L131.773 38.7158H133.781L139 26.5868L136.852 26.607ZM119.769 34.8143H121.776V21.9171H119.769V34.8143Z" fill="white"/>
<path d="M21.4852 11.7083C21.1459 12.1057 20.9732 12.6203 21.0034 13.1435V35.8248C20.9784 36.3411 21.1508 36.8475 21.4852 37.2398L34.1118 24.565V24.3224L21.5655 11.6072L21.4852 11.7083Z" fill="url(#paint0_linear_1_1818)"/>
<path d="M38.3881 28.8707L34.1926 24.6053V24.3223L38.4082 20.0771L43.3866 22.9275C43.6937 23.0312 43.9606 23.2295 44.1497 23.4943C44.3388 23.7591 44.4406 24.077 44.4406 24.4032C44.4406 24.7293 44.3388 25.0473 44.1497 25.312C43.9606 25.5768 43.6937 25.7751 43.3866 25.8789L38.3881 28.7696V28.8707Z" fill="url(#paint1_linear_1_1818)"/>
<path d="M38.4875 28.8104L34.1916 24.4844L21.5048 37.2401C21.8003 37.4975 22.1779 37.6392 22.5687 37.6392C22.9594 37.6392 23.3371 37.4975 23.6326 37.2401L38.4875 28.7497" fill="url(#paint2_linear_1_1818)"/>
<path d="M38.4877 20.1583L23.5926 11.6275C23.3022 11.4109 22.9503 11.2939 22.5889 11.2939C22.2275 11.2939 21.8756 11.4109 21.5852 11.6275L34.252 24.3832L38.4877 20.1583Z" fill="url(#paint3_linear_1_1818)"/>
<path opacity="0.2" d="M38.3873 28.7291L23.5926 37.1992C23.301 37.4128 22.9496 37.5279 22.5889 37.5279C22.2283 37.5279 21.8769 37.4128 21.5852 37.1992C21.8769 37.4128 22.2283 37.5279 22.5889 37.5279C22.9496 37.5279 23.301 37.4128 23.5926 37.1992L38.4877 28.6685L38.3873 28.7291Z" fill="#010101"/>
<path opacity="0.12" d="M21.4852 37.1188C21.1459 36.7213 20.9732 36.2067 21.0034 35.6835V35.8452C20.9732 36.3684 21.1459 36.883 21.4852 37.2805V37.1188ZM43.4664 25.7984L38.3876 28.7093V28.8104L43.366 25.9601C43.6554 25.8284 43.9058 25.6231 44.0924 25.3643C44.2789 25.1055 44.3953 24.8023 44.43 24.4844C44.3807 24.7633 44.2681 25.027 44.1009 25.255C43.9338 25.4829 43.7166 25.6688 43.4664 25.7984Z" fill="#010101"/>
<path opacity="0.25" d="M23.5934 11.7889L43.4669 23.1498C43.7303 23.2803 43.9621 23.4674 44.1459 23.6979C44.3297 23.9284 44.4611 24.1967 44.5308 24.484C44.5057 24.1606 44.3933 23.8504 44.2058 23.5867C44.0183 23.3231 43.7628 23.116 43.4669 22.988L23.5934 11.6272C22.1682 10.8186 21.0239 11.4857 21.0239 13.1433V13.305C21.0239 11.6474 22.1682 10.9803 23.5934 11.7889Z" fill="white"/>
<defs>
<linearGradient id="paint0_linear_1_1818" x1="33.068" y1="12.9009" x2="15.8453" y2="29.9835" gradientUnits="userSpaceOnUse">
<stop stop-color="#4997D2"/>
<stop offset="0.01" stop-color="#4A98D3"/>
<stop offset="0.26" stop-color="#45B9EA"/>
<stop offset="0.51" stop-color="#44C6F0"/>
<stop offset="0.76" stop-color="#57C8E8"/>
<stop offset="1" stop-color="#5DC9E6"/>
</linearGradient>
<linearGradient id="paint1_linear_1_1818" x1="45.3137" y1="24.4638" x2="20.6827" y2="24.4638" gradientUnits="userSpaceOnUse">
<stop stop-color="#FCDF00"/>
<stop offset="0.41" stop-color="#FBBC16"/>
<stop offset="0.78" stop-color="#F9A41B"/>
<stop offset="1" stop-color="#F89A1F"/>
</linearGradient>
<linearGradient id="paint2_linear_1_1818" x1="36.1388" y1="26.8293" x2="12.8111" y2="50.0146" gradientUnits="userSpaceOnUse">
<stop stop-color="#EE414A"/>
<stop offset="1" stop-color="#C21E63"/>
</linearGradient>
<linearGradient id="paint3_linear_1_1818" x1="18.293" y1="4.14797" x2="28.7236" y2="14.4858" gradientUnits="userSpaceOnUse">
<stop stop-color="#309F73"/>
<stop offset="0.07" stop-color="#2BA672"/>
<stop offset="0.48" stop-color="#4CB970"/>
<stop offset="0.8" stop-color="#60BC6B"/>
<stop offset="1" stop-color="#66BE6B"/>
</linearGradient>
</defs>
</svg>
