<svg width="24" height="35" viewBox="0 0 24 35" fill="none" xmlns="http://www.w3.org/2000/svg">
<g clip-path="url(#clip0_436_177)">
<path d="M0.347656 20.1239L1.18615 19.7625L11.5662 15.2375L22.7847 20.1239L18.5633 28.8269L8.25555 30.2871L0.506681 21.9166L0.347656 20.1239Z" fill="#133444"/>
<path d="M20.4566 14.746C18.6061 12.5052 15.975 11.0595 13.0981 10.6836C13.0402 10.6691 12.9824 10.6691 12.9246 10.6547C12.0283 10.5535 11.1175 10.5535 10.2212 10.6547C10.1633 10.6691 10.0911 10.6691 10.0332 10.6836C7.15631 11.0595 4.52517 12.5196 2.67469 14.746L2.21207 15.5266L1.43141 16.8133L0.867589 17.753C0.853132 17.7819 0.838676 17.8108 0.838676 17.8253L0.824219 17.8397L2.08196 18.5915L10.0332 23.3044L11.5656 24.2152V12.9678L10.0332 13.6617V11.9847L11.5656 11.2763L13.0981 11.9703L20.9192 15.5266L20.4566 14.746Z" fill="#C42370"/>
<path d="M23.1454 22.9141C23.1454 26.6584 21.3672 30.157 18.6059 32.4267C17.5217 33.323 16.2784 34.0025 14.9484 34.4506C13.8641 34.8121 12.722 35 11.5799 35C5.19 35 0 29.3185 0 22.9141C0 21.9744 0.115655 21.0347 0.332507 20.1095L11.5655 26.7596L22.7984 20.1239C23.0297 21.0347 23.1454 21.9888 23.1454 22.9141Z" fill="#1C4D6B"/>
<path d="M10.2192 10.6691L11.5637 11.2763L10.0312 11.9847V10.5824L10.2192 10.6691Z" fill="black"/>
<path d="M10.0312 13.6617L11.5637 12.9678V24.2297L10.0312 23.3189V13.6617Z" fill="black"/>
<path d="M11.5664 12.9678V24.2297L22.3223 17.8686L11.5664 12.9678Z" fill="#1D4259"/>
<path d="M11.5664 0V12.9678L22.3223 17.8542L11.5664 0Z" fill="#4B6B9A"/>
<path d="M11.5645 12.9678V24.2152L10.0321 23.3044L0.823051 17.8542L0.808594 17.8397L0.837507 17.8253C0.851964 17.7964 0.866421 17.7675 0.866421 17.753L2.21091 15.5122L10.0465 11.9703V13.6617L11.5645 12.9678Z" fill="#343535"/>
<path d="M11.5645 12.9678V24.2297L10.0321 23.3189L0.823051 17.8686L0.808594 17.8542L0.823051 17.8397L10.0321 13.6617L11.5645 12.9678Z" fill="#3E5578"/>
<path d="M11.5645 0V12.9678L0.808594 17.8542L11.5645 0Z" fill="#6DB2D8"/>
<path d="M7.21484 34.0748C7.37387 34.1471 7.53289 34.2193 7.69192 34.2772C7.54735 34.2193 7.37387 34.1471 7.21484 34.0748Z" fill="#335F8A"/>
<path d="M7.70703 34.2772C7.86606 34.335 8.03954 34.3928 8.21302 34.4506C8.03954 34.3928 7.86606 34.3494 7.70703 34.2772Z" fill="#335F8A"/>
<path d="M8.61719 34.5952C8.7473 34.6386 8.87741 34.6675 9.00752 34.6964C8.89187 34.653 8.7473 34.6241 8.61719 34.5952Z" fill="#335F8A"/>
<path d="M0.346964 20.1239L11.5655 26.7596C11.4064 27.7716 11.1462 28.7546 10.7559 29.7088C9.85956 31.8773 8.05246 34.176 4.52499 32.4267C1.77819 30.1714 0 26.6729 0 22.9141C0 21.9888 0.115655 21.0347 0.346964 20.1239Z" fill="#6DB2D8"/>
<path d="M18.5927 32.4267L18.5638 32.4556C18.5059 32.499 18.4481 32.5423 18.3903 32.6002L18.3758 32.6146C18.318 32.6724 18.2457 32.7158 18.1879 32.7592C18.1156 32.817 18.0433 32.8604 17.971 32.9182C17.8987 32.9616 17.8265 33.0194 17.7542 33.0772C17.6819 33.1351 17.6241 33.164 17.5662 33.2074L17.5229 33.2363C17.4506 33.2796 17.3783 33.323 17.3205 33.3664C17.306 33.3808 17.306 33.3808 17.2916 33.3808C17.2193 33.4242 17.147 33.4676 17.0892 33.5109C17.0169 33.5543 16.9301 33.5977 16.8579 33.6411C16.7856 33.6844 16.6988 33.7278 16.6265 33.7567L16.6121 33.7712C16.5398 33.8145 16.4531 33.8435 16.3808 33.8868C16.3085 33.9302 16.2218 33.9591 16.1495 34.0025C16.0627 34.0458 15.9904 34.0748 15.9182 34.1037C15.7591 34.176 15.6001 34.2482 15.4411 34.3061C15.2821 34.3639 15.1086 34.4362 14.9351 34.4796C14.8628 34.5085 14.805 34.5229 14.7327 34.5374C14.6604 34.5663 14.5737 34.5808 14.5158 34.6097C14.3857 34.6241 14.2556 34.653 14.1255 34.6964C14.0821 34.7109 14.0243 34.7253 13.9809 34.7398L13.8942 34.7542C13.8219 34.7687 13.7496 34.7831 13.6918 34.7976C13.6195 34.8121 13.5762 34.8265 13.5039 34.841C13.4316 34.8554 13.3882 34.8699 13.3304 34.8699C13.2726 34.8843 13.2003 34.8988 13.1425 34.8988C13.1135 34.9133 13.0846 34.9133 13.0557 34.9133L12.9111 34.9277L12.8244 34.9422C12.7666 34.9566 12.7232 34.9566 12.6654 34.9566C12.5931 34.9711 12.5353 34.9711 12.463 34.9711C12.4052 34.9711 12.3618 34.9855 12.304 34.9855C12.2461 34.9855 12.2172 35 12.1594 35H12.1449C12.0871 35 12.0437 35.0145 11.9859 35.0145C11.9136 35.0145 11.8413 35.0289 11.7691 35.0289C11.6968 35.0289 11.6245 35.0289 11.5522 35.0289C11.4799 35.0289 11.4076 35.0289 11.3353 35.0289C11.2631 35.0289 11.1908 35.0289 11.1185 35.0145C11.0607 35.0145 11.0173 35 10.9595 35H10.945C10.9016 35 10.8583 34.9855 10.8004 34.9855C10.7426 34.9855 10.6992 34.9711 10.6414 34.9711C10.5691 34.9566 10.5113 34.9566 10.439 34.9566C10.3812 34.9422 10.3378 34.9422 10.28 34.9422L10.2077 34.9277C10.1643 34.9133 10.1065 34.9133 10.0631 34.9133C10.0342 34.9133 10.0053 34.8988 9.9764 34.8988C9.91858 34.8843 9.84629 34.8843 9.78846 34.8699C9.73064 34.8554 9.67281 34.841 9.61498 34.841C9.55715 34.8265 9.49933 34.8121 9.42704 34.7976C9.36922 34.7831 9.28247 34.7687 9.22465 34.7542L9.13791 34.7398C9.09454 34.7253 9.03671 34.7109 8.99334 34.6964C8.86323 34.6675 8.73311 34.6241 8.603 34.5952L8.37169 34.5229C8.29941 34.494 8.24158 34.4796 8.1693 34.4651C7.99582 34.4073 7.83679 34.3494 7.66331 34.2916C7.48983 34.2338 7.3308 34.1615 7.18623 34.0892C7.11395 34.0458 7.02721 34.0169 6.95492 33.988C6.88264 33.9447 6.7959 33.9157 6.72361 33.8724C6.65133 33.829 6.56459 33.8001 6.49231 33.7567L6.47785 33.7423C6.40556 33.6989 6.31882 33.6555 6.24654 33.6266C6.17426 33.5832 6.08751 33.5399 6.01523 33.4965C5.94295 33.4531 5.87066 33.4097 5.81283 33.3664L5.78392 33.3519C5.71164 33.3086 5.63935 33.2652 5.58152 33.2218L5.53815 33.1929C5.48033 33.1495 5.40804 33.1062 5.35022 33.0628C5.29239 33.0194 5.20565 32.9616 5.13336 32.9038C5.06108 32.8459 4.98879 32.8026 4.91651 32.7447C4.84423 32.6869 4.7864 32.6435 4.72857 32.6002L4.71411 32.5857C4.65629 32.5423 4.59846 32.499 4.54063 32.4411L4.51172 32.4122C8.02473 34.1615 9.84629 31.8629 10.7426 29.6943C11.1329 28.7546 11.3932 27.7571 11.5522 26.7451C11.7112 27.7571 11.9714 28.7402 12.3618 29.6943C13.2726 31.8773 15.0941 34.176 18.5927 32.4267Z" fill="#529BBA"/>
<path d="M14.125 34.6964C14.2551 34.6675 14.3852 34.6241 14.5153 34.5952C14.3852 34.6241 14.2551 34.653 14.125 34.6964Z" fill="#335F8A"/>
<path d="M14.9492 34.4651C15.1227 34.4073 15.2817 34.3494 15.4552 34.2916C15.2817 34.3494 15.1082 34.3928 14.9492 34.4651Z" fill="#335F8A"/>
<path d="M15.4414 34.2772C15.6004 34.2193 15.7595 34.1471 15.9185 34.0748C15.7739 34.1471 15.6004 34.2193 15.4414 34.2772Z" fill="#335F8A"/>
<path d="M23.1463 22.9141C23.1463 26.6584 21.3681 30.157 18.6069 32.4267C15.0939 34.176 13.2723 31.8773 12.376 29.7088C12.0001 28.7691 11.7254 27.786 11.5664 26.7596L22.7849 20.1239C23.0307 21.0347 23.1463 21.9888 23.1463 22.9141Z" fill="#4B6B9A"/>
</g>
<defs>
<clipPath id="clip0_436_177">
<rect width="23.1454" height="35" fill="white"/>
</clipPath>
</defs>
</svg>
