<svg width="28" height="32" viewBox="0 0 28 32" fill="none" xmlns="http://www.w3.org/2000/svg">
<path d="M9.76855 15.805C9.76855 12.2557 12.6505 9.37378 16.1998 9.37378C19.7491 9.37378 22.631 12.2557 22.631 15.805C22.631 19.3543 19.7491 22.2362 16.1998 22.2362C12.6505 22.2665 9.76855 19.3846 9.76855 15.805Z" fill="#F1CA30"/>
<path d="M15.805 31.5796C7.09859 31.5796 0 24.5114 0 15.805C0 7.09859 7.09859 0 15.805 0C20.5374 0 24.9664 2.09317 28 5.73348L23.2676 9.6468C21.4171 7.40195 18.6869 6.12784 15.805 6.12784C10.4659 6.12784 6.12784 10.4659 6.12784 15.805C6.09751 21.1441 10.4659 25.4821 15.805 25.4821C18.5049 25.4821 21.0228 24.39 22.8732 22.4182L27.3023 26.6045C24.3294 29.7595 20.143 31.5796 15.805 31.5796Z" fill="#0099FF"/>
</svg>
