<svg width="28" height="26" viewBox="0 0 28 26" fill="none" xmlns="http://www.w3.org/2000/svg">
<path d="M16.2259 6.15063H16.4017C17.4561 6.15063 18.3347 5.27197 18.3347 4.21757V1.93305C18.3347 0.878661 17.4561 0 16.4017 0H1.93305C0.878661 0 0 0.878661 0 1.93305V24.0167C0 25.0711 0.878661 25.9498 1.93305 25.9498H16.4017C17.4561 25.9498 18.3347 25.0711 18.3347 24.0167V19.4477C18.3347 18.3933 17.4561 17.5146 16.4017 17.5146H16.2259C15.1715 17.5146 14.2929 16.636 14.2929 15.5816V8.08368C14.2929 7.02929 15.1715 6.15063 16.2259 6.15063Z" fill="#F9518C"/>
<path d="M25.7241 6.15063H22.268C21.2136 6.15063 20.335 7.0293 20.335 8.08369V15.5816C20.335 16.636 21.2136 17.5147 22.268 17.5147H25.7241C26.7785 17.5147 27.6571 16.636 27.6571 15.5816V8.08369C27.6571 7.0293 26.8371 6.15063 25.7241 6.15063Z" fill="#6BBDFD"/>
</svg>
