<svg width="18" height="18" viewBox="0 0 18 18" fill="none" xmlns="http://www.w3.org/2000/svg">
<path d="M9.93481 1C6.03097 1 2.87109 3.95187 2.87109 7.59173C2.87109 7.79972 2.8791 7.99972 2.9031 8.19971C3.61507 7.73573 4.47103 7.47176 5.399 7.47176C7.8309 7.47176 9.79882 9.31165 9.79882 11.5836C9.79882 12.5355 9.44684 13.4155 8.85486 14.1115C9.20685 14.1595 9.56683 14.1835 9.93481 14.1835L13.2867 16.1754C13.8547 16.5194 14.5666 16.0554 14.4866 15.3914L14.1746 12.8635C15.8866 11.6636 16.9985 9.75164 16.9985 7.59173C16.9985 5.13583 15.5586 2.99193 13.4147 1.85597" stroke="#111111" stroke-width="1.5" stroke-linecap="round" stroke-linejoin="round"/>
<path d="M2.90393 8.19987C3.6159 7.73589 4.47186 7.47192 5.39982 7.47192C7.83173 7.47192 9.79965 9.31181 9.79965 11.5837C9.79965 12.5357 9.44767 13.4157 8.85569 14.1116C8.06372 15.0716 6.80777 15.6876 5.39982 15.6876L3.31191 16.9275C2.95992 17.1435 2.51194 16.8475 2.55994 16.4395L2.75993 14.8636C1.68797 14.1197 1 12.9277 1 11.5837C1 11.3437 1.024 11.1117 1.064 10.8878" stroke="#111111" stroke-width="1.5" stroke-linecap="round" stroke-linejoin="round"/>
</svg>
