<svg width="29" height="30" viewBox="0 0 29 30" fill="none" xmlns="http://www.w3.org/2000/svg">
<path opacity="0.4" d="M28.9453 4.5V25.5C28.9453 27.99 26.9203 30 24.4453 30H18.4453C15.9553 30 13.9453 27.99 13.9453 25.5V4.5C13.9453 2.01 15.9553 0 18.4453 0H24.4453C26.9203 0 28.9453 2.01 28.9453 4.5Z" fill="#0555FF"/>
<path d="M22.5703 6C22.5703 6.615 22.0603 7.125 21.4453 7.125H13.9453V4.875H21.4453C22.0603 4.875 22.5703 5.385 22.5703 6Z" fill="#0555FF"/>
<path d="M20.9203 24C20.9203 24.615 20.4253 25.125 19.7953 25.125H13.9453V22.875H19.7953C20.4253 22.875 20.9203 23.385 20.9203 24Z" fill="#0555FF"/>
<path d="M22.5703 18.0148C22.5553 18.6298 22.0603 19.1248 21.4453 19.1248C21.4303 19.1248 21.4303 19.1248 21.4303 19.1248L13.9453 19.0498V16.7998L21.4453 16.8748C22.0753 16.8748 22.5703 17.3848 22.5703 18.0148Z" fill="#0555FF"/>
<path d="M19.2853 12C19.2853 12.615 18.7753 13.125 18.1603 13.125H13.9453V10.875H18.1603C18.7753 10.875 19.2853 11.385 19.2853 12Z" fill="#0555FF"/>
<path opacity="0.4" d="M9.39625 4.425V23.865C9.39625 24.54 9.11125 25.575 8.76625 26.145L7.53625 28.185C6.12625 30.555 3.81625 30.555 2.39125 28.185L1.17625 26.145C0.81625 25.575 0.53125 24.54 0.53125 23.865V4.425C0.53125 1.995 2.52625 0 4.97125 0C7.40125 0 9.39625 1.995 9.39625 4.425Z" fill="#0555FF"/>
<path d="M9.39625 6.375H0.53125V8.625H9.39625V6.375Z" fill="#0555FF"/>
</svg>
