<svg width="16" height="18" viewBox="0 0 16 18" fill="none" xmlns="http://www.w3.org/2000/svg">
<path d="M11.9094 6.09093C13.1143 6.09093 14.0912 5.1141 14.0912 3.90911C14.0912 2.70413 13.1143 1.72729 11.9094 1.72729C10.7044 1.72729 9.72754 2.70413 9.72754 3.90911C9.72754 5.1141 10.7044 6.09093 11.9094 6.09093Z" stroke="#444444" stroke-width="2" stroke-linecap="round" stroke-linejoin="round"/>
<path d="M3.18182 11.182C4.3868 11.182 5.36364 10.2052 5.36364 9.00018C5.36364 7.79519 4.3868 6.81836 3.18182 6.81836C1.97683 6.81836 1 7.79519 1 9.00018C1 10.2052 1.97683 11.182 3.18182 11.182Z" stroke="#444444" stroke-width="2" stroke-linecap="round" stroke-linejoin="round"/>
<path d="M11.9094 16.2726C13.1143 16.2726 14.0912 15.2957 14.0912 14.0908C14.0912 12.8858 13.1143 11.9089 11.9094 11.9089C10.7044 11.9089 9.72754 12.8858 9.72754 14.0908C9.72754 15.2957 10.7044 16.2726 11.9094 16.2726Z" stroke="#444444" stroke-width="2" stroke-linecap="round" stroke-linejoin="round"/>
<path d="M5.07227 10.0911L10.0177 13.0002" stroke="#444444" stroke-width="2" stroke-linecap="round" stroke-linejoin="round"/>
<path d="M10.0177 5L5.07227 7.90909" stroke="#444444" stroke-width="2" stroke-linecap="round" stroke-linejoin="round"/>
</svg>
