<svg width="24" height="27" viewBox="0 0 24 27" fill="none" xmlns="http://www.w3.org/2000/svg">
<path d="M22.4723 11.6893V7.40232C22.4723 5.86502 21.2975 4.16523 19.8601 3.6278L13.6234 1.29059C12.5861 0.903137 10.8863 0.903137 9.84889 1.29059L3.61217 3.6403C2.17485 4.17773 1 5.87751 1 7.40232V16.6887C1 18.1635 1.97488 20.1007 3.16223 20.9881L8.53656 25.0001C9.41145 25.675 10.5738 26 11.7362 26" stroke="#111111" stroke-width="2" stroke-linecap="round" stroke-linejoin="round"/>
<path d="M16.7357 23.5002C19.4968 23.5002 21.7351 21.2619 21.7351 18.5008C21.7351 15.7398 19.4968 13.5015 16.7357 13.5015C13.9746 13.5015 11.7363 15.7398 11.7363 18.5008C11.7363 21.2619 13.9746 23.5002 16.7357 23.5002Z" stroke="#111111" stroke-width="2" stroke-linecap="round" stroke-linejoin="round"/>
<path d="M22.9796 24.7502H22.9909" stroke="#111111" stroke-width="2" stroke-linecap="round" stroke-linejoin="round"/>
</svg>
