<svg width="14" height="14" viewBox="0 0 14 14" fill="none" xmlns="http://www.w3.org/2000/svg">
<path d="M13.9304 5.85058C13.9304 5.98988 13.8579 6.12925 13.7131 6.26856L10.6741 9.1939L11.3936 13.4426C11.3992 13.4426 11.402 13.5123 11.402 13.582C11.402 13.7213 11.3714 13.7909 11.3101 13.8605C11.2543 13.9302 11.1708 13.9999 11.0586 13.9999C10.9528 13.9999 10.8413 13.9999 10.7243 13.9303L6.96518 11.9103L3.20635 13.9303C3.08356 13.9999 2.9719 13.9999 2.87147 13.9999C2.75424 13.9999 2.66495 13.9302 2.60359 13.8605C2.54772 13.7909 2.51986 13.7213 2.51986 13.582C2.51986 13.582 2.52544 13.5123 2.53658 13.4426L3.25657 9.1939L0.209304 6.26856C0.0697911 6.12925 0 5.98988 0 5.85058C0 5.64162 0.156299 5.50232 0.468826 5.50232L4.67134 4.87552L6.55493 1.04467C6.6608 0.835715 6.79802 0.696411 6.96518 0.696411C7.13235 0.696411 7.26956 0.835715 7.37543 1.04467L9.25882 4.87552L13.4616 5.50232C13.7743 5.50232 13.9304 5.64162 13.9304 5.85058Z" fill="#E67E22"/>
<path d="M13.9304 5.15417C13.9304 5.29347 13.8579 5.43284 13.7131 5.57215L10.6741 8.49749L11.3936 12.7462C11.3992 12.7462 11.402 12.8159 11.402 12.8856C11.402 13.0249 11.3714 13.0945 11.3101 13.1641C11.2543 13.2338 11.1708 13.3035 11.0586 13.3035C10.9528 13.3035 10.8413 13.3035 10.7243 13.2338L6.96518 11.2139L3.20635 13.2338C3.08356 13.3035 2.9719 13.3035 2.87147 13.3035C2.75424 13.3035 2.66495 13.2338 2.60359 13.1641C2.54772 13.0945 2.51986 13.0249 2.51986 12.8856C2.51986 12.8856 2.52544 12.8159 2.53658 12.7462L3.25657 8.49749L0.209304 5.57215C0.0697911 5.43284 0 5.29347 0 5.15417C0 4.94521 0.156299 4.80591 0.468826 4.80591L4.67134 4.17911L6.55493 0.348259C6.6608 0.139304 6.79802 0 6.96518 0C7.13235 0 7.26956 0.139304 7.37543 0.348259L9.25882 4.17911L13.4616 4.80591C13.7743 4.80591 13.9304 4.94521 13.9304 5.15417Z" fill="#F1C40F"/>
</svg>
