<svg width="50" height="50" viewBox="0 0 50 50" fill="none" xmlns="http://www.w3.org/2000/svg">
<path d="M42.5042 4.96614C42.5042 4.95201 42.5042 4.94494 42.5042 4.93081C42.5042 4.91669 42.5042 4.89549 42.4971 4.88137C42.49 4.82485 42.483 4.7754 42.4759 4.72595C42.4688 4.67651 42.4547 4.63412 42.4406 4.58467C42.4406 4.57054 42.4335 4.55642 42.4265 4.54935C42.4265 4.54229 42.4194 4.53522 42.4194 4.52816C42.4123 4.50697 42.4053 4.47871 42.3982 4.45752C42.3841 4.41513 42.37 4.37981 42.3488 4.33743C42.3346 4.30211 42.3134 4.26679 42.2922 4.23146C42.2852 4.21734 42.2781 4.21027 42.2711 4.19614C42.2711 4.18908 42.264 4.18202 42.264 4.18202C42.2569 4.16789 42.2428 4.14669 42.2357 4.13257C42.2145 4.09725 42.1933 4.06899 42.1651 4.03367C42.1368 4.00541 42.1156 3.97009 42.0874 3.94183C42.0733 3.92771 42.0662 3.91358 42.0521 3.90651L38.5129 0.452148C38.5977 0.529854 38.6683 0.628752 38.7319 0.72765C38.7319 0.734714 38.739 0.741778 38.739 0.741778C38.7955 0.840676 38.8449 0.953703 38.8873 1.07379C38.8873 1.08086 38.8944 1.08792 38.8944 1.09499C38.9297 1.21508 38.958 1.34223 38.965 1.48351C38.965 1.49764 38.965 1.50471 38.965 1.51883C38.9721 1.66012 38.9721 1.81553 38.958 1.97094L37.75 13.5985L41.2891 17.0529L42.4971 5.4253C42.5042 5.38292 42.5042 5.33347 42.5112 5.29109C42.5183 5.21338 42.5183 5.13567 42.5112 5.06503C42.5112 5.02971 42.5112 5.00146 42.5042 4.96614Z" fill="url(#paint0_linear_1_1007)"/>
<path d="M14.2195 39.1848L2.28108 41.848C1.87136 41.9398 1.51109 41.9398 1.20026 41.8692C0.910633 41.7985 0.663388 41.6714 0.472656 41.4807L4.01179 44.935C4.20252 45.1187 4.4427 45.2529 4.7394 45.3236C5.05022 45.3942 5.41049 45.3942 5.82021 45.3024L17.7586 42.6392L14.2195 39.1848Z" fill="url(#paint1_linear_1_1007)"/>
<path d="M49.9428 23.6156C49.9498 23.5379 49.9498 23.4672 49.9428 23.3966C49.9428 23.3542 49.9357 23.3189 49.9357 23.2835C49.9357 23.2765 49.9357 23.2694 49.9357 23.2624C49.9357 23.2482 49.9357 23.2341 49.9357 23.22C49.9286 23.1635 49.9216 23.114 49.9145 23.0575C49.9074 23.008 49.8933 22.9657 49.8792 22.9162C49.8651 22.8738 49.8509 22.8314 49.8368 22.7891C49.8297 22.7608 49.8156 22.7325 49.8015 22.7043C49.8015 22.7043 49.8015 22.6972 49.7944 22.6972C49.7944 22.6902 49.7873 22.6831 49.7873 22.676C49.7732 22.6407 49.752 22.5983 49.7308 22.563C49.7096 22.5277 49.6884 22.4924 49.6673 22.4641C49.6461 22.4288 49.6249 22.4005 49.5966 22.3652C49.5684 22.3299 49.5472 22.3016 49.5118 22.2734C49.4977 22.2592 49.4907 22.2522 49.4765 22.2381L45.9374 18.7837C46.0716 18.9179 46.1776 19.0733 46.2553 19.2429C46.2553 19.2429 46.2553 19.2499 46.2623 19.2499C46.333 19.4195 46.3824 19.6102 46.3966 19.808C46.3966 19.8151 46.3966 19.8221 46.3966 19.8292C46.4107 20.027 46.4036 20.2389 46.3683 20.4579V20.465C46.333 20.6839 46.2694 20.91 46.1846 21.1361C46.1564 21.2067 46.1211 21.2773 46.0857 21.348C46.0151 21.5104 45.9445 21.6729 45.8526 21.8354C45.8456 21.8566 45.8314 21.8707 45.8173 21.8919C45.6901 22.1109 45.5418 22.3299 45.3723 22.5348C45.3652 22.5418 45.3652 22.5418 45.3581 22.5489C45.1815 22.7679 44.9837 22.9727 44.7718 23.1635C44.7647 23.1705 44.7647 23.1705 44.7577 23.1776C44.5387 23.3754 44.2985 23.5591 44.0442 23.7215L32.0352 31.4568L35.5743 34.9111L47.5763 27.1759C47.5904 27.1688 47.5975 27.1618 47.6116 27.1547C47.6681 27.1194 47.7246 27.077 47.7811 27.0417C47.8376 27.0064 47.8871 26.964 47.9436 26.9216C47.9931 26.8792 48.0425 26.8439 48.092 26.8015C48.1414 26.7591 48.1909 26.7167 48.2403 26.6814C48.2615 26.6673 48.2756 26.6461 48.2968 26.632C48.3039 26.6249 48.3039 26.6249 48.3109 26.6178C48.3321 26.5966 48.3604 26.5754 48.3816 26.5542C48.431 26.5119 48.4734 26.4624 48.5158 26.42C48.5653 26.3706 48.6076 26.3282 48.65 26.2787C48.6995 26.2293 48.7419 26.1798 48.7842 26.1233C48.8196 26.0809 48.8549 26.0386 48.8831 26.0032C48.8902 25.9962 48.8902 25.9962 48.8973 25.9891C48.9043 25.9821 48.9114 25.9679 48.9255 25.9609C48.975 25.8973 49.0244 25.8337 49.0739 25.7701C49.1304 25.6924 49.1798 25.6218 49.2293 25.5441C49.2717 25.4805 49.307 25.4169 49.3494 25.3463C49.3635 25.3251 49.3706 25.311 49.3847 25.2898C49.3988 25.2686 49.4059 25.2474 49.42 25.2333C49.4977 25.092 49.5542 24.9436 49.6178 24.8023C49.6461 24.7317 49.6884 24.6611 49.7167 24.5975C49.8015 24.3714 49.8651 24.1454 49.9004 23.9335V23.9264V23.9193C49.9216 23.8063 49.9357 23.7074 49.9428 23.6156Z" fill="url(#paint2_linear_1_1007)"/>
<path d="M32.0496 31.4496L25.5789 43.8118C25.4588 44.045 25.3175 44.2639 25.1692 44.4688C25.0208 44.6737 24.8583 44.8644 24.6888 45.041C24.6817 45.0481 24.6747 45.0551 24.6676 45.0622C24.4981 45.2388 24.3215 45.4013 24.1378 45.5496C24.1307 45.5567 24.1237 45.5567 24.1166 45.5637C23.9329 45.7121 23.7351 45.8463 23.5444 45.9664C23.3537 46.0794 23.1559 46.1783 22.9652 46.2631C22.9581 46.2702 22.944 46.2702 22.9369 46.2772C22.7886 46.3408 22.6473 46.3832 22.4989 46.4185C22.3435 46.4609 22.1952 46.4891 22.0468 46.5103C21.9762 46.5174 21.9055 46.5315 21.842 46.5386C21.63 46.5527 21.4252 46.5457 21.2415 46.4962C20.9589 46.4326 20.7117 46.3055 20.5068 46.1077L24.046 49.562C24.2508 49.7598 24.4981 49.887 24.7806 49.9506C24.9714 49.993 25.1692 50 25.3811 49.993C25.4517 49.9859 25.5153 49.9718 25.586 49.9647C25.7343 49.9435 25.8826 49.9153 26.0381 49.8729C26.0734 49.8658 26.1087 49.8658 26.144 49.8517C26.2429 49.8234 26.3418 49.781 26.4407 49.7457C26.4478 49.7386 26.4619 49.7386 26.469 49.7316C26.476 49.7245 26.4902 49.7245 26.4972 49.7175C26.5608 49.6892 26.6173 49.668 26.6809 49.6397C26.7515 49.6044 26.8222 49.5691 26.8928 49.5338C26.9564 49.4985 27.02 49.4631 27.0836 49.4278C27.1401 49.3925 27.1966 49.3572 27.2531 49.3219C27.3096 49.2865 27.3591 49.2512 27.4156 49.2088C27.465 49.1735 27.5215 49.1311 27.571 49.0958C27.5992 49.0746 27.6275 49.0464 27.6557 49.0252C27.6628 49.0181 27.6699 49.0181 27.6699 49.011C27.684 48.9969 27.6981 48.9899 27.7123 48.9757C27.7617 48.9333 27.8112 48.898 27.8535 48.8556C27.903 48.8132 27.9454 48.7709 27.9948 48.7285C28.0443 48.6861 28.0867 48.6366 28.1361 48.5943C28.1573 48.5731 28.1785 48.5519 28.1997 48.5307C28.2067 48.5236 28.2138 48.5166 28.2209 48.5095C28.2421 48.4883 28.2562 48.4742 28.2774 48.453C28.3268 48.4035 28.3692 48.3541 28.4116 48.3046C28.4611 48.2481 28.5034 48.1916 28.5529 48.1351C28.6023 48.0715 28.6518 48.0079 28.7012 47.9444C28.7578 47.8667 28.8072 47.796 28.8567 47.7183C28.9273 47.6123 28.9909 47.5064 29.0474 47.4004C29.0686 47.3651 29.0898 47.3298 29.111 47.2874L35.5817 34.9251L32.0496 31.4496Z" fill="url(#paint3_linear_1_1007)"/>
<path d="M45.6975 18.5787L37.7574 13.5985L38.9654 1.97092C39.0784 0.90423 38.5698 0.240201 37.7715 0.0565332C36.9733 -0.127134 35.8925 0.16956 34.854 1.02432L23.4737 10.2995L12.2135 10.8505C10.1437 10.9494 7.86196 13.436 8.0315 15.3999L8.93571 26.1162L0.762496 38.0828C-0.459601 39.87 -0.13465 41.5654 1.20754 41.8692C1.51836 41.9398 1.87863 41.9398 2.28835 41.848L14.2268 39.1848L20.4432 46.037C20.6551 46.2702 20.9306 46.4185 21.2344 46.4891C22.5695 46.8 24.604 45.6485 25.5718 43.8048L32.0425 31.4425L44.0516 23.7073C46.2556 22.2945 47.1527 19.49 45.6975 18.5787Z" fill="url(#paint4_linear_1_1007)"/>
<path opacity="0.7" d="M45.6975 18.5787L37.7574 13.5985L38.9654 1.97092C39.0784 0.90423 38.5698 0.240201 37.7715 0.0565332C36.9733 -0.127134 35.8925 0.16956 34.854 1.02432L23.4737 10.2995L12.2135 10.8505C10.1437 10.9494 7.86196 13.436 8.0315 15.3999L8.93571 26.1162L0.762496 38.0828C-0.459601 39.87 -0.13465 41.5654 1.20754 41.8692C1.51836 41.9398 1.87863 41.9398 2.28835 41.848L14.2268 39.1848L20.4432 46.037C20.6551 46.2702 20.9306 46.4185 21.2344 46.4891C22.5695 46.8 24.604 45.6485 25.5718 43.8048L32.0425 31.4425L44.0516 23.7073C46.2556 22.2945 47.1527 19.49 45.6975 18.5787ZM43.9032 23.4883L31.8377 31.2589L25.3316 43.6847C24.4486 45.3659 22.7956 46.2772 21.6936 46.2772C21.5523 46.2772 21.418 46.2631 21.2909 46.2348C21.0295 46.1713 20.8035 46.0512 20.641 45.8604L14.3186 38.8881L2.22477 41.5866C2.02698 41.629 1.84331 41.6502 1.66671 41.6502C1.52542 41.6502 1.3912 41.6361 1.26405 41.6078C0.840201 41.5089 0.536443 41.2476 0.381032 40.852C0.112595 40.1597 0.338647 39.1778 0.981484 38.2312L9.20415 26.1797L8.28581 15.3716C8.21517 14.5663 8.62489 13.5702 9.37369 12.7084C10.1931 11.7689 11.281 11.1543 12.2135 11.1119L23.5655 10.5609L35.0236 1.22918C35.7795 0.614601 36.5848 0.275522 37.2982 0.275522C37.4466 0.275522 37.5879 0.28965 37.715 0.317906C38.4285 0.480382 38.7888 1.07377 38.6969 1.94266L37.4748 13.7398L45.5633 18.8118C46.0437 19.1085 46.1426 19.6242 46.1426 19.9986C46.1426 21.0088 45.3796 22.5417 43.9032 23.4883Z" fill="url(#paint5_linear_1_1007)"/>
<defs>
<linearGradient id="paint0_linear_1_1007" x1="21.9544" y1="30.2173" x2="43.3478" y2="4.62903" gradientUnits="userSpaceOnUse">
<stop stop-color="#FFFF54"/>
<stop offset="0.0105" stop-color="#F7EE50"/>
<stop offset="0.0371" stop-color="#E6C748"/>
<stop offset="0.0658" stop-color="#D7A641"/>
<stop offset="0.0964" stop-color="#CB8C3B"/>
<stop offset="0.1297" stop-color="#C27737"/>
<stop offset="0.167" stop-color="#BB6833"/>
<stop offset="0.2116" stop-color="#B76032"/>
<stop offset="0.2826" stop-color="#B65D31"/>
<stop offset="0.2831" stop-color="#B75F31"/>
<stop offset="0.2937" stop-color="#C87E39"/>
<stop offset="0.3055" stop-color="#D7993F"/>
<stop offset="0.319" stop-color="#E3AF44"/>
<stop offset="0.3349" stop-color="#EDC048"/>
<stop offset="0.3544" stop-color="#F3CB4B"/>
<stop offset="0.3819" stop-color="#F7D24D"/>
<stop offset="0.4581" stop-color="#F8D44D"/>
<stop offset="0.477" stop-color="#EEC149"/>
<stop offset="0.5187" stop-color="#DA9D40"/>
<stop offset="0.5608" stop-color="#CA8139"/>
<stop offset="0.6028" stop-color="#BF6D35"/>
<stop offset="0.6448" stop-color="#B86132"/>
<stop offset="0.6867" stop-color="#B65D31"/>
<stop offset="0.6963" stop-color="#B86132"/>
<stop offset="0.7207" stop-color="#BC6733"/>
<stop offset="0.766" stop-color="#C97A38"/>
<stop offset="0.8235" stop-color="#D48C3C"/>
<stop offset="0.8859" stop-color="#DB963F"/>
<stop offset="0.9616" stop-color="#DD9940"/>
<stop offset="0.9762" stop-color="#E6AC44"/>
<stop offset="1" stop-color="#F8D44D"/>
</linearGradient>
<linearGradient id="paint1_linear_1_1007" x1="3.26441" y1="46.54" x2="49.5612" y2="11.1387" gradientUnits="userSpaceOnUse">
<stop offset="0.0119" stop-color="#FFFF54"/>
<stop offset="0.0212" stop-color="#F5E24E"/>
<stop offset="0.0323" stop-color="#ECC749"/>
<stop offset="0.0444" stop-color="#E6B345"/>
<stop offset="0.058" stop-color="#E1A442"/>
<stop offset="0.0742" stop-color="#DE9C41"/>
<stop offset="0.1001" stop-color="#DD9940"/>
<stop offset="0.1431" stop-color="#D0863B"/>
<stop offset="0.2147" stop-color="#B65D31"/>
<stop offset="0.2814" stop-color="#B65D31"/>
<stop offset="0.6867" stop-color="#B65D31"/>
<stop offset="0.6963" stop-color="#B86132"/>
<stop offset="0.7207" stop-color="#BC6733"/>
<stop offset="0.7476" stop-color="#C97E39"/>
<stop offset="0.7912" stop-color="#DA9D40"/>
<stop offset="0.8369" stop-color="#E7B546"/>
<stop offset="0.885" stop-color="#F1C74A"/>
<stop offset="0.937" stop-color="#F6D14C"/>
<stop offset="1" stop-color="#F8D44D"/>
</linearGradient>
<linearGradient id="paint2_linear_1_1007" x1="8.7473" y1="58.9792" x2="53.0724" y2="16.7516" gradientUnits="userSpaceOnUse">
<stop stop-color="#FFFF54"/>
<stop offset="0.0105" stop-color="#F7EE50"/>
<stop offset="0.0371" stop-color="#E6C748"/>
<stop offset="0.0658" stop-color="#D7A641"/>
<stop offset="0.0964" stop-color="#CB8C3B"/>
<stop offset="0.1297" stop-color="#C27737"/>
<stop offset="0.167" stop-color="#BB6833"/>
<stop offset="0.2116" stop-color="#B76032"/>
<stop offset="0.2826" stop-color="#B65D31"/>
<stop offset="0.2831" stop-color="#B75F31"/>
<stop offset="0.2937" stop-color="#C87E39"/>
<stop offset="0.3055" stop-color="#D7993F"/>
<stop offset="0.319" stop-color="#E3AF44"/>
<stop offset="0.3349" stop-color="#EDC048"/>
<stop offset="0.3544" stop-color="#F3CB4B"/>
<stop offset="0.3819" stop-color="#F7D24D"/>
<stop offset="0.4581" stop-color="#F8D44D"/>
<stop offset="0.4746" stop-color="#EEC149"/>
<stop offset="0.5111" stop-color="#DA9D40"/>
<stop offset="0.5478" stop-color="#CA8139"/>
<stop offset="0.5845" stop-color="#BF6D35"/>
<stop offset="0.6212" stop-color="#B86132"/>
<stop offset="0.6578" stop-color="#B65D31"/>
<stop offset="0.7046" stop-color="#B86132"/>
<stop offset="0.8242" stop-color="#BC6733"/>
<stop offset="0.9616" stop-color="#DD9940"/>
<stop offset="0.9762" stop-color="#E6AC44"/>
<stop offset="1" stop-color="#F8D44D"/>
</linearGradient>
<linearGradient id="paint3_linear_1_1007" x1="19.8092" y1="50.1704" x2="75.3203" y2="-4.64161" gradientUnits="userSpaceOnUse">
<stop stop-color="#FFFF54"/>
<stop offset="0.0105" stop-color="#F7EE50"/>
<stop offset="0.0371" stop-color="#E6C748"/>
<stop offset="0.0658" stop-color="#D7A641"/>
<stop offset="0.0964" stop-color="#CB8C3B"/>
<stop offset="0.1297" stop-color="#C27737"/>
<stop offset="0.167" stop-color="#BB6833"/>
<stop offset="0.2116" stop-color="#B76032"/>
<stop offset="0.2826" stop-color="#B65D31"/>
<stop offset="0.2831" stop-color="#B75F31"/>
<stop offset="0.2937" stop-color="#C87E39"/>
<stop offset="0.3055" stop-color="#D7993F"/>
<stop offset="0.319" stop-color="#E3AF44"/>
<stop offset="0.3349" stop-color="#EDC048"/>
<stop offset="0.3544" stop-color="#F3CB4B"/>
<stop offset="0.3819" stop-color="#F7D24D"/>
<stop offset="0.4581" stop-color="#F8D44D"/>
<stop offset="0.477" stop-color="#EEC149"/>
<stop offset="0.5187" stop-color="#DA9D40"/>
<stop offset="0.5608" stop-color="#CA8139"/>
<stop offset="0.6028" stop-color="#BF6D35"/>
<stop offset="0.6448" stop-color="#B86132"/>
<stop offset="0.6867" stop-color="#B65D31"/>
<stop offset="0.6963" stop-color="#B86132"/>
<stop offset="0.7207" stop-color="#BC6733"/>
<stop offset="0.766" stop-color="#C97A38"/>
<stop offset="0.8235" stop-color="#D48C3C"/>
<stop offset="0.8859" stop-color="#DB963F"/>
<stop offset="0.9616" stop-color="#DD9940"/>
<stop offset="0.9762" stop-color="#E6AC44"/>
<stop offset="1" stop-color="#F8D44D"/>
</linearGradient>
<linearGradient id="paint4_linear_1_1007" x1="11.6008" y1="8.91575" x2="34.38" y2="43.6839" gradientUnits="userSpaceOnUse">
<stop stop-color="#FFFF7C"/>
<stop offset="1" stop-color="#F1B747"/>
</linearGradient>
<linearGradient id="paint5_linear_1_1007" x1="9.50077" y1="11.1874" x2="37.0756" y2="38.1628" gradientUnits="userSpaceOnUse">
<stop offset="0.0757" stop-color="white"/>
<stop offset="1" stop-color="white" stop-opacity="0"/>
</linearGradient>
</defs>
</svg>
