<svg width="30" height="30" viewBox="0 0 30 30" fill="none" xmlns="http://www.w3.org/2000/svg">
<path d="M23.2516 23.7452H20.4766C19.8616 23.7452 19.3516 23.2352 19.3516 22.6202C19.3516 22.0052 19.8616 21.4952 20.4766 21.4952H23.2516C23.8666 21.4952 24.3766 22.0052 24.3766 22.6202C24.3766 23.2352 23.8666 23.7452 23.2516 23.7452Z" fill="#0555FF"/>
<path d="M16.455 23.7452H6.75C6.135 23.7452 5.625 23.2352 5.625 22.6202C5.625 22.0052 6.135 21.4952 6.75 21.4952H16.455C17.07 21.4952 17.58 22.0052 17.58 22.6202C17.58 23.2352 17.085 23.7452 16.455 23.7452Z" fill="#0555FF"/>
<path d="M23.252 18.1051H14.957C14.342 18.1051 13.832 17.5951 13.832 16.9801C13.832 16.3651 14.342 15.8551 14.957 15.8551H23.252C23.867 15.8551 24.377 16.3651 24.377 16.9801C24.377 17.5951 23.867 18.1051 23.252 18.1051Z" fill="#0555FF"/>
<path d="M10.905 18.1051H6.75C6.135 18.1051 5.625 17.5951 5.625 16.9801C5.625 16.3651 6.135 15.8551 6.75 15.8551H10.905C11.52 15.8551 12.03 16.3651 12.03 16.9801C12.03 17.5951 11.52 18.1051 10.905 18.1051Z" fill="#0555FF"/>
<path opacity="0.4" d="M21.285 0.00012207H8.715C3.255 0.00012207 0 3.25512 0 8.71512V21.2701C0 26.7451 3.255 30.0001 8.715 30.0001H21.27C26.73 30.0001 29.985 26.7451 29.985 21.2851V8.71512C30 3.25512 26.745 0.00012207 21.285 0.00012207Z" fill="#0555FF"/>
</svg>
