<svg width="24" height="21" viewBox="0 0 24 21" fill="none" xmlns="http://www.w3.org/2000/svg">
<path d="M22.9 2.97692C22.8 2.87692 22.8 2.87692 22.7 2.77692C22.9 2.37692 23 1.97692 23.1 1.57692C23.2 1.27692 23 0.876924 22.7 0.676924C22.4 0.476924 22 0.476924 21.7 0.676924C21.1 1.07692 20.4 1.37692 19.7 1.47692C18 -0.123077 15.5 -0.423077 13.4 0.576923C11.2 1.67692 10.1 4.17692 10.7 6.57692C10.8 7.07692 11.3 7.37692 11.8 7.27692C12.3 7.17692 12.6 6.67692 12.5 6.17692C12.1 4.57692 12.8 2.97692 14.3 2.17692C15.8 1.37692 17.7 1.77692 18.8 3.07692C19 3.27692 19.3 3.37692 19.6 3.27692H19.8C19.5 3.67692 19.5 4.17692 19.8 4.57692C19.9 4.67692 20 4.67692 20.1 4.77692C19.9 4.97692 19.7 5.27692 19.8 5.57692C20.1 9.37692 18.5 13.1769 15.5 15.5769C12.4 18.2769 8.1 18.9769 4.3 17.5769C5.8 17.2769 7.2 16.6769 8.3 15.6769C8.5 15.3769 8.6 15.0769 8.4 14.6769C8.2 14.3769 7.9 14.1769 7.6 14.1769C6.6 14.1769 5.6 13.6769 4.9 12.9769C5.2 12.8769 5.5 12.7769 5.8 12.6769C6.1 12.4769 6.3 12.1769 6.3 11.7769C6.3 11.3769 6 11.0769 5.6 11.0769C4.4 10.7769 3.4 9.97692 2.9 8.87692C3.1 8.87692 3.3 8.87692 3.6 8.97692C4 8.97692 4.3 8.77692 4.5 8.47692C4.6 8.07692 4.5 7.67692 4.2 7.47692C2.7 6.17692 2.4 4.67692 2.6 3.67692C4.3 5.47692 6.4 6.67692 8.8 7.17692C9.3 7.27692 9.8 6.97692 9.9 6.47692C10 5.97692 9.7 5.47692 9.2 5.37692C6.8 4.77692 4.7 3.47692 3.2 1.47692C3 1.27692 2.8 1.17692 2.5 1.17692C2.2 1.17692 2 1.27692 1.8 1.47692C0.600001 2.97692 0.5 5.17692 1.5 6.77692H1.4C1.1 6.87692 1 7.17692 0.9 7.47692C0.9 8.97692 1.5 10.4769 2.6 11.4769C2.4 11.6769 2.3 12.0769 2.4 12.3769C2.9 13.7769 3.9 14.8769 5.2 15.5769C3.8 16.0769 2.3 16.3769 0.9 16.3769C0.4 16.3769 0 16.7769 0 17.2769C0 17.5769 0.2 17.8769 0.4 18.0769C2.7 19.4769 5.3 20.2769 7.9 20.2769C11 20.2769 14 19.0769 16.4 17.0769C19.7 14.3769 21.6 10.3769 21.4 6.07692C22.1 5.57692 22.6 4.87692 22.8 4.07692C23.2 3.47692 23.1 3.17692 22.9 2.97692Z" fill="white"/>
</svg>
