<svg xmlns="http://www.w3.org/2000/svg" width="18" height="18" viewBox="0 0 18 18" fill="none">
  <path d="M5.26673 0C5.40364 5.72895e-05 5.53908 0.0282242 5.66465 0.0827561C5.79023 0.137288 5.90328 0.217023 5.99678 0.317023L6.07279 0.409029L10.3471 6.23745L16.2935 0.293021C16.4735 0.11366 16.715 0.00952721 16.969 0.00177205C17.2229 -0.0059831 17.4703 0.0832212 17.6609 0.251267C17.8515 0.419313 17.971 0.653599 17.995 0.90654C18.0191 1.15948 17.9461 1.41211 17.7906 1.61312L17.7076 1.70712L11.5442 7.86957L17.8066 16.4102C17.9103 16.5517 17.975 16.718 17.9941 16.8924C18.0132 17.0669 17.986 17.2432 17.9154 17.4038C17.8448 17.5644 17.7331 17.7036 17.5917 17.8075C17.4502 17.9113 17.284 17.9761 17.1096 17.9953L17.0006 18.0013H12.7333C12.5964 18.0012 12.4609 17.9731 12.3353 17.9185C12.2098 17.864 12.0967 17.7843 12.0032 17.6843L11.9272 17.5923L7.6509 11.7628L1.70647 17.7083C1.5265 17.8876 1.28501 17.9918 1.03104 17.9995C0.777073 18.0073 0.529676 17.9181 0.339096 17.75C0.148517 17.582 0.0290475 17.3477 0.0049521 17.0948C-0.0191433 16.8418 0.0539427 16.5892 0.209366 16.3882L0.292372 16.2942L6.45382 10.1307L0.193365 1.59111C0.0896665 1.44959 0.0250275 1.28327 0.00593756 1.10885C-0.0131524 0.934443 0.0139786 0.758078 0.0846063 0.597468C0.155234 0.436858 0.266873 0.297656 0.408314 0.193838C0.549755 0.0900194 0.71602 0.0252389 0.890415 0.00600047L0.999423 0H5.26673Z" fill="#333333"/>
</svg>