<svg width="17" height="14" viewBox="0 0 17 14" fill="none" xmlns="http://www.w3.org/2000/svg">
<path d="M8.8975 13H4.1575C1.7875 13 1 11.5036 1 10V4C1 1.74822 1.7875 1 4.1575 1H8.8975C11.2675 1 12.055 1.74822 12.055 4V10C12.055 12.2518 11.26 13 8.8975 13Z" stroke="white" stroke-width="1.2" stroke-linecap="round" stroke-linejoin="round"/>
<path d="M14.1399 10.6343L12.0549 9.24476V4.74832L14.1399 3.35877C15.1599 2.68181 15.9999 3.09511 15.9999 4.28514V9.71507C15.9999 10.9051 15.1599 11.3184 14.1399 10.6343Z" stroke="white" stroke-width="1.2" stroke-linecap="round" stroke-linejoin="round"/>
<path d="M8.125 6.28743C8.74632 6.28743 9.25 5.80887 9.25 5.21854C9.25 4.62821 8.74632 4.14966 8.125 4.14966C7.50368 4.14966 7 4.62821 7 5.21854C7 5.80887 7.50368 6.28743 8.125 6.28743Z" stroke="white" stroke-width="1.2" stroke-linecap="round" stroke-linejoin="round"/>
</svg>
