<svg width="36" height="22" viewBox="0 0 36 22" fill="none" xmlns="http://www.w3.org/2000/svg">
<g clip-path="url(#clip0_436_198)">
<path d="M7.34939 4.29909C13.2031 -1.43249 22.6939 -1.43249 28.5475 4.29909L29.2524 4.98846C29.5457 5.2745 29.5457 5.74007 29.2524 6.02611L26.842 8.38624C26.696 8.52986 26.4579 8.52986 26.3119 8.38624L25.3424 7.43716C21.2589 3.43858 14.638 3.43858 10.5533 7.43716L9.51444 8.45327C9.36843 8.59689 9.13026 8.59689 8.98425 8.45327L6.57624 6.09313C6.28302 5.80709 6.28302 5.34153 6.57624 5.05549L7.34939 4.29909ZM33.5323 9.17854L35.677 11.279C35.9702 11.565 35.9702 12.0306 35.677 12.3166L26.0055 21.7859C25.7122 22.0719 25.2383 22.0719 24.9451 21.7859L18.0813 15.0657C18.0083 14.9939 17.8898 14.9939 17.8168 15.0657L10.9518 21.7859C10.6586 22.0719 10.1847 22.0719 9.89144 21.7859L0.219916 12.3166C-0.0733054 12.0306 -0.0733054 11.565 0.219916 11.279L2.36462 9.17854C2.65784 8.8925 3.13179 8.8925 3.42501 9.17854L10.2888 15.8999C10.3618 15.9717 10.4803 15.9717 10.5533 15.8999L17.4171 9.17854C17.7103 8.8925 18.1842 8.8925 18.4775 9.17854L25.3412 15.8999C25.4142 15.9717 25.5327 15.9717 25.6057 15.8999L32.4695 9.17974C32.7651 8.8925 33.2391 8.8925 33.5323 9.17854Z" fill="#3B99FC"/>
</g>
<defs>
<clipPath id="clip0_436_198">
<rect width="35.8951" height="22" fill="white"/>
</clipPath>
</defs>
</svg>
