<svg xmlns="http://www.w3.org/2000/svg" width="19" height="18" viewBox="0 0 19 18" fill="none">
  <path d="M18.8099 6.02108C18.8099 6.02108 18.6246 4.6485 18.055 4.04417C17.3322 3.252 16.5227 3.24733 16.1515 3.20242C13.4924 3 9.50416 3 9.50416 3H9.49525C9.49525 3 5.50697 3 2.84852 3.20242C2.47731 3.24733 1.66837 3.252 0.944952 4.04417C0.375961 4.6485 0.190059 6.02108 0.190059 6.02108C0.190059 6.02108 0 7.63167 0 9.24225V10.7519C0 12.3637 0.190059 13.9737 0.190059 13.9737C0.190059 13.9737 0.375367 15.3457 0.944952 15.9488C1.66837 16.741 2.61688 16.7171 3.03976 16.7999C4.55964 16.9527 9.5 17 9.5 17C9.5 17 13.4924 16.993 16.1515 16.7929C16.5227 16.7462 17.3322 16.7416 18.055 15.9494C18.624 15.3462 18.8099 13.9742 18.8099 13.9742C18.8099 13.9742 19 12.3637 19 10.7525V9.24283C19 7.63167 18.8099 6.02108 18.8099 6.02108Z" fill="white"/>
  <path d="M7 6.5V13.5L12.8333 10L7 6.5Z" fill="black"/>
</svg>