<svg width="28" height="28" viewBox="0 0 28 28" fill="none" xmlns="http://www.w3.org/2000/svg">
<path d="M1.30859 5.6786C1.30859 3.2761 3.27427 1.31042 5.67677 1.31042H22.2758C24.6783 1.31042 26.644 3.2761 26.644 5.6786V22.2777C26.644 24.6802 24.6783 26.6458 22.2758 26.6458H5.67677C3.27427 26.6458 1.30859 24.6802 1.30859 22.2777V5.6786Z" fill="#57CEF3"/>
<path d="M9.26053 0C7.77535 0 6.63963 0 5.76599 0.0873635C4.80499 0.131045 4.0624 0.305772 3.31981 0.655226C2.18409 1.26677 1.26677 2.18409 0.655226 3.31981C0.305772 4.0624 0.131045 4.80499 0.0873635 5.76599C0 6.63963 0 7.77535 0 9.21685V18.7395C0 20.181 0 21.3167 0.0873635 22.234C0.174727 23.1513 0.305772 23.9376 0.698908 24.6365C1.26677 25.7722 2.18409 26.6895 3.31981 27.3011C4.01872 27.6505 4.80499 27.8253 5.72231 27.9126C6.63963 28 7.77535 28 9.21685 28H18.6958C19.22 28 19.6568 28 20.0936 28V26.6895H23.5881L26.6459 23.6318V8.73635H26.2091C26.2091 14.0655 22.8456 18.6958 17.9095 21.0546C16.3807 22.0593 13.6287 22.7145 10.4836 22.7145C5.67863 22.7145 1.79095 21.142 1.74727 19.2637C1.74727 19.0889 1.74727 18.9142 1.74727 18.6958V9.26053C1.74727 7.77535 1.74727 6.72699 1.83463 5.89704C1.922 5.06708 2.00936 4.5429 2.22777 4.14977C2.62091 3.31981 3.31981 2.6209 4.14977 2.22777C4.58658 2.00936 5.06708 1.87832 5.89704 1.83463C6.72699 1.74727 7.77535 1.74727 9.26053 1.74727V0Z" fill="#1D70F2"/>
<path fill-rule="evenodd" clip-rule="evenodd" d="M22.0612 1.83463C21.2313 1.74727 20.1829 1.74727 18.6977 1.74727H9.26246C9.08774 1.74727 8.91301 1.74727 8.73828 1.74727V0C8.91301 0 9.08774 0 9.26246 0H18.7414C20.1829 0 21.3186 0 22.2359 0.0873635C23.1533 0.174727 23.9395 0.305772 24.6384 0.698908C25.7742 1.26677 26.6915 2.18409 27.303 3.31981C27.6525 4.01872 27.8272 4.80499 27.9146 5.72231C28.0019 6.63963 28.0019 7.77535 28.0019 9.21685V18.7395C28.0019 20.181 28.0019 21.3167 27.9146 22.234C27.8272 23.1513 27.6962 23.9376 27.303 24.6365C26.7352 25.7722 25.7742 26.7332 24.6384 27.3011C23.9832 27.6505 23.2406 27.7816 22.4107 27.869C21.537 27.9563 20.4887 27.9563 19.2219 27.9563V26.209C20.5324 26.209 21.4497 26.209 22.2359 26.1217C22.9785 26.0343 23.459 25.947 23.8522 25.7286C24.6821 25.2917 25.3373 24.6365 25.7742 23.8066C25.9926 23.3697 26.1236 22.8892 26.1673 22.0593C26.2547 21.2293 26.2547 20.181 26.2547 18.6958V9.26053C26.2547 7.77535 26.2547 6.72699 26.1673 5.89704C26.0799 5.06708 25.9926 4.5429 25.7742 4.14977C25.3373 3.31981 24.6821 2.66459 23.8522 2.22777C23.4153 2.00936 22.8912 1.87832 22.0612 1.83463Z" fill="white"/>
<path d="M5.851 22.4965C5.23946 22.1034 5.06473 21.2734 5.45787 20.6619L6.59359 18.8709C7.55459 18.5652 8.60295 18.8272 9.30186 19.5262L7.64195 22.0597C7.24882 22.7149 6.46255 22.8896 5.851 22.4965ZM11.7917 15.7258L17.2519 7.25158C17.6451 6.64004 17.4703 5.85377 16.8588 5.41695C16.2473 5.02381 15.461 5.19854 15.0679 5.81009L13.9758 7.51367L12.8838 5.85377C12.4906 5.24222 11.6607 5.0675 11.0928 5.46063C10.5249 5.85377 10.3065 6.68372 10.6997 7.29526L12.4033 9.95985L8.64663 15.7258H4.80264C4.06005 15.7258 3.49219 16.2937 3.49219 17.0363C3.49219 17.7789 4.06005 18.3467 4.80264 18.3467H16.3783C16.5093 18.0847 16.5967 17.7789 16.5967 17.4731C16.5967 16.5121 15.8104 15.7258 14.8494 15.7258H11.7917ZM21.4017 19.002L20.9649 18.3467H22.2753C23.0179 18.3467 24.9399 16.8616 24.0226 16.0753C23.8042 15.8569 23.4984 15.7258 23.149 15.7258H19.305L15.8104 10.3093C14.8058 11.4013 14.5874 13.0613 15.3299 14.4154L19.305 20.5308C21.4454 23.8506 23.4984 22.2344 21.4017 19.002Z" fill="white"/>
<path d="M24.4632 17.036C24.4632 17.7786 23.8953 18.3465 23.1528 18.3465H21.886C22.6723 17.6476 23.3275 16.8176 23.8953 15.9877C24.2448 16.2061 24.4632 16.5992 24.4632 17.036ZM21.3181 18.8707C20.6629 19.4385 19.964 19.919 19.1777 20.3995L20.3134 22.1468C20.7066 22.7583 21.5365 22.9331 22.1044 22.5399C22.6723 22.1468 22.8907 21.3168 22.4975 20.7053L21.3181 18.8707ZM7.29628 22.4963C6.64106 22.4089 5.98583 22.2342 5.41797 22.1031C5.50533 22.2778 5.63638 22.4089 5.85479 22.5399C6.2916 22.802 6.85947 22.7583 7.29628 22.4963Z" fill="#ACBDC5"/>
</svg>
