<svg width="127" height="100" viewBox="0 0 127 100" fill="none" xmlns="http://www.w3.org/2000/svg">
<path d="M28.8173 37.4245L28.4409 36.7697L6.98377 49.1569C6.27794 48.1962 5.14469 47.5649 3.86636 47.5649C1.7332 47.5649 0 49.2981 0 51.4313C0 53.5644 1.7332 55.2976 3.86636 55.2976C5.99953 55.2976 7.73273 53.5644 7.73273 51.4313C7.73273 50.8509 7.5994 50.298 7.36805 49.8039L28.8173 37.4245ZM3.86244 54.7369C2.04298 54.7369 0.56074 53.2546 0.56074 51.4352C0.56074 49.6157 2.04298 48.1335 3.86244 48.1335C5.68191 48.1335 7.16414 49.6157 7.16414 51.4352C7.16414 53.2546 5.68191 54.7369 3.86244 54.7369ZM5.70936 51.4352C5.70936 52.4547 4.88197 53.2821 3.86244 53.2821C2.84291 53.2821 2.01553 52.4547 2.01553 51.4352C2.01553 50.4157 2.84291 49.5883 3.86244 49.5883C4.88197 49.5883 5.70936 50.4157 5.70936 51.4352ZM55.0702 10.3443L65.4655 16.3438V30.2329L52.1606 22.5512V8.66207L55.0702 10.3443ZM66.0301 15.3635L52.7253 7.68175L66.0301 0L79.335 7.68175L66.0301 15.3635ZM66.5948 16.3438L76.99 10.3443L79.9035 8.66207V22.5512L66.5987 30.2329V16.3438H66.5948ZM52.1567 43.6123L65.4615 51.294V65.1831L52.1567 57.5014V43.6123ZM66.0301 50.3176L52.7253 42.6359L66.0301 34.9541L79.335 42.6359L66.0301 50.3176ZM66.5948 65.187V51.2979L79.8996 43.6162V57.5053L66.5948 65.187ZM35.6756 34.0013V47.8904L22.3708 40.2086V26.3195L35.6756 34.0013ZM49.3687 25.2333L48.6197 24.802L58.6895 18.8377L59.0738 19.4847L49.3687 25.2333ZM74.1118 18.7358L74.4961 18.0888L84.5659 24.053L83.8169 24.4844L74.1118 18.7358ZM43.4593 71.4415L43.8436 70.7944L53.9134 76.7587L53.1645 77.19L43.4593 71.4415ZM79.1938 42.5496L78.4448 42.1183L88.5146 36.154L88.8989 36.801L79.1938 42.5496ZM49.4353 60.0855L48.6864 59.6541L58.7562 53.6899L59.1405 54.3369L49.4353 60.0855ZM78.8879 77.1861L78.139 76.7548L88.2088 70.7905L88.593 71.4375L78.8879 77.1861ZM49.5491 25.3392L36.2442 33.0209L22.9355 25.3392L36.2403 17.6574L48.6197 24.802L49.3687 25.2333L49.5491 25.3392ZM36.8089 47.8904V34.0013L50.1137 26.3195V40.2086L36.8089 47.8904ZM96.2905 33.3033V47.1924L82.9856 39.5106V25.6215L85.8991 27.3037L96.2905 33.3033ZM96.8551 32.323L83.5503 24.6412L96.8551 16.9595L110.16 24.6412L96.8551 32.323ZM97.4198 33.3033L107.815 27.3037L110.729 25.6215V39.5106L97.4237 47.1924V33.3033H97.4198ZM52.1567 78.4252L65.4615 86.107V99.9961L52.1567 92.3143V78.4252ZM66.0301 85.1306L52.7253 77.4488L66.0301 69.7671L79.335 77.4488L66.0301 85.1306ZM66.5948 100V86.1109L79.8996 78.4252V92.3143L66.5948 100ZM22.3708 61.1325L35.6756 68.8142V82.7033L22.3708 75.0216V61.1325ZM36.2442 67.8339L22.9355 60.1521L36.2403 52.4704L49.5451 60.1521L36.2442 67.8339ZM36.8089 82.7033V68.8142L50.1137 61.1325V75.0216L36.8089 82.7033ZM82.9817 60.4345L96.2866 68.1162V82.0053L82.9817 74.3236V60.4345ZM123.057 47.0551C120.924 47.0551 119.191 48.7883 119.191 50.9215C119.191 51.5018 119.324 52.0547 119.555 52.5488L108.878 58.713L109.631 59.1483L119.94 53.1958C120.645 54.1565 121.779 54.7879 123.057 54.7879C125.19 54.7879 126.923 53.0547 126.923 50.9215C126.923 48.7883 125.19 47.0551 123.057 47.0551ZM123.057 54.2232C121.238 54.2232 119.755 52.741 119.755 50.9215C119.755 49.102 121.238 47.6198 123.057 47.6198C124.876 47.6198 126.359 49.102 126.359 50.9215C126.359 52.741 124.876 54.2232 123.057 54.2232ZM124.904 50.9215C124.904 51.941 124.077 52.7684 123.057 52.7684C122.037 52.7684 121.21 51.941 121.21 50.9215C121.21 49.902 122.037 49.0746 123.057 49.0746C124.077 49.0746 124.904 49.902 124.904 50.9215ZM110.16 59.4542L96.8551 67.1359L83.5503 59.4542L96.8551 51.7724L108.878 58.713L109.631 59.1483L110.16 59.4542ZM97.4198 82.0053V68.1162L110.725 60.4345V74.3236L97.4198 82.0053Z" fill="url(#paint0_linear_2818_988)"/>
<defs>
<linearGradient id="paint0_linear_2818_988" x1="4.72826e-07" y1="50" x2="126.923" y2="50" gradientUnits="userSpaceOnUse">
<stop stop-color="#30D7F1"/>
<stop offset="0.515625" stop-color="#79FA4B"/>
<stop offset="1" stop-color="#FCE344"/>
</linearGradient>
</defs>
</svg>
