<svg width="492" height="300" viewBox="0 0 492 300" fill="none" xmlns="http://www.w3.org/2000/svg">
<g clip-path="url(#clip0_106_20786)">
<path d="M0 300H461.98C478.559 300 492 286.55 492 269.96V0C492 0 436.446 279.91 0 300Z" fill="url(#paint0_linear_106_20786)" fill-opacity="0.3"/>
<path d="M14.7207 300H461.97C478.549 300 491.99 286.55 491.99 269.96V49.48C492 49.48 427.742 269.19 14.7207 300Z" fill="url(#paint1_linear_106_20786)" fill-opacity="0.3"/>
<line x1="271.5" y1="219" x2="271.5" y2="300" stroke="white" stroke-opacity="0.1"/>
<line x1="331.5" y1="184" x2="331.5" y2="300" stroke="white" stroke-opacity="0.1"/>
<line x1="391.5" y1="135" x2="391.5" y2="300" stroke="white" stroke-opacity="0.1"/>
<line x1="451.5" y1="55" x2="451.5" y2="300" stroke="white" stroke-opacity="0.1"/>
</g>
<circle cx="391" cy="65" r="25" fill="url(#paint2_linear_106_20786)"/>
<path fill-rule="evenodd" clip-rule="evenodd" d="M396.045 51.9793C397.165 52.1494 398.133 52.8711 398.624 53.9028C398.691 54.0435 398.775 54.2597 398.811 54.3832C398.955 54.8839 398.949 54.6221 398.949 60.1238V65.1877H395.544H392.139V60.1238C392.139 55.797 392.144 55.0271 392.176 54.8339C392.415 53.3606 393.559 52.212 395.018 51.9813C395.304 51.9361 395.755 51.9352 396.045 51.9793ZM405.885 56.1624C406.108 56.2153 406.466 56.3954 406.654 56.5488C406.871 56.7261 407.045 56.9487 407.175 57.2132C407.389 57.6512 407.372 57.2965 407.38 61.4759L407.388 65.1877H405.422H403.456V61.5469C403.456 57.6058 403.452 57.737 403.591 57.3667C403.763 56.9114 404.112 56.5334 404.57 56.3057C404.97 56.107 405.437 56.0561 405.885 56.1624ZM383.22 56.4137C383.64 56.499 384 56.6978 384.327 57.0255C384.704 57.4019 384.914 57.8232 384.977 58.3268C384.994 58.4661 385.003 59.6796 385.003 61.8633V65.1877H382.774H380.545L380.552 61.7012L380.559 58.2147L380.628 57.9945C380.886 57.173 381.513 56.5851 382.312 56.4157C382.547 56.3659 382.981 56.365 383.22 56.4137ZM372.899 60.9076C373.665 61.0431 374.285 61.5474 374.573 62.2672C374.714 62.6194 374.718 62.6726 374.731 63.9922L374.743 65.2127H372.562H370.381V64.0224C370.381 63.0337 370.388 62.7994 370.421 62.6391C370.599 61.7757 371.261 61.1069 372.121 60.9228C372.33 60.8781 372.693 60.871 372.899 60.9076ZM380.521 66.9716C380.521 68.904 380.514 69.0217 380.373 69.4446C380.227 69.8792 380.033 70.2025 379.723 70.529C378.678 71.6279 377.02 71.7428 375.832 70.7989C375.372 70.4328 375.007 69.8705 374.844 69.2773L374.776 69.031L374.769 67.1218L374.761 65.2127H377.641H380.522L380.521 66.9716ZM392.107 70.4143L392.1 75.6158L392.043 75.8662C391.891 76.5317 391.639 77.0382 391.222 77.5184C390.706 78.1113 389.968 78.53 389.185 78.6747C388.832 78.7395 388.228 78.733 387.885 78.6607C387.143 78.5034 386.542 78.1714 386.023 77.6334C385.541 77.1324 385.261 76.6078 385.087 75.8787C385.045 75.702 385.042 75.3812 385.035 70.4518L385.028 65.2127H388.571H392.115L392.107 70.4143ZM403.425 69.3502L403.418 73.4876L403.349 73.7075C403.037 74.705 402.205 75.3354 401.203 75.3354C400.184 75.3354 399.341 74.6819 399.045 73.6622L398.987 73.4626L398.98 69.3377L398.973 65.2127H401.203H403.432L403.425 69.3502ZM411.661 66.4333C411.648 67.7663 411.645 67.8054 411.493 68.1832C411.344 68.5567 411.038 68.9396 410.706 69.1679C410.162 69.5417 409.417 69.6451 408.793 69.4328C408.054 69.1817 407.511 68.5613 407.352 67.7863C407.319 67.6259 407.312 67.3928 407.312 66.403V65.2127H409.493H411.673L411.661 66.4333Z" fill="white"/>
<circle cx="206" cy="260" r="20" fill="#2A5ADA"/>
<path fill-rule="evenodd" clip-rule="evenodd" d="M203.448 248.074L205.894 246.667L208.341 248.074L215.007 251.927L217.454 253.334V266.667L215.007 268.074L208.402 271.927L205.955 273.334L203.509 271.927L196.781 268.074L194.334 266.667V253.334L196.781 251.927L203.448 248.074ZM199.228 256.147V263.854L205.895 267.707L212.562 263.854V256.147L205.895 252.294L199.228 256.147Z" fill="white"/>
<path d="M345.548 147.629C343.544 155.664 335.406 160.555 327.369 158.551C319.335 156.548 314.445 148.408 316.449 140.373C318.452 132.336 326.591 127.445 334.625 129.449C342.661 131.452 347.551 139.593 345.548 147.629L345.548 147.629H345.548Z" fill="#F7931A"/>
<path fill-rule="evenodd" clip-rule="evenodd" d="M337.612 141.863C337.91 139.867 336.391 138.793 334.313 138.078L334.987 135.374L333.341 134.964L332.684 137.596C332.252 137.488 331.807 137.387 331.366 137.286L332.027 134.636L330.382 134.226L329.707 136.929C329.349 136.847 328.997 136.767 328.656 136.682L328.658 136.673L326.388 136.106L325.95 137.864C325.95 137.864 327.171 138.144 327.146 138.162C327.812 138.328 327.933 138.769 327.913 139.119L327.145 142.199C327.191 142.211 327.25 142.228 327.316 142.254L327.268 142.242L327.268 142.242C327.228 142.232 327.185 142.222 327.142 142.211L326.066 146.527C325.984 146.729 325.777 147.033 325.311 146.918C325.328 146.941 324.115 146.619 324.115 146.619L323.298 148.503L325.44 149.037C325.674 149.096 325.906 149.156 326.136 149.216L326.136 149.216C326.296 149.258 326.455 149.3 326.613 149.34L325.932 152.075L327.576 152.485L328.251 149.779C328.7 149.901 329.136 150.014 329.563 150.12L328.89 152.813L330.536 153.223L331.218 150.493C334.024 151.024 336.135 150.81 337.023 148.271C337.739 146.227 336.987 145.048 335.511 144.28C336.586 144.032 337.396 143.324 337.612 141.863L337.612 141.863L337.612 141.863ZM333.852 147.136C333.385 149.012 330.45 148.236 329.107 147.881L329.106 147.881C328.986 147.85 328.878 147.821 328.786 147.798L329.69 144.175C329.802 144.203 329.939 144.234 330.094 144.268L330.094 144.268C331.484 144.58 334.33 145.219 333.852 147.136H333.852ZM330.373 142.587C331.492 142.886 333.935 143.538 334.36 141.833H334.361C334.795 140.09 332.421 139.564 331.262 139.308C331.131 139.279 331.016 139.253 330.922 139.23L330.103 142.516C330.18 142.535 330.271 142.56 330.373 142.587Z" fill="white"/>
<circle cx="271" cy="89" r="20" fill="#13B5EC"/>
<path fill-rule="evenodd" clip-rule="evenodd" d="M272.667 85.0018L277.167 82.3636V87.64L272.667 85.0018ZM277.167 96.3084L271.167 99.826L265.167 96.3084V90.1526L271.167 93.6702L277.167 90.1526V96.3084ZM265.167 82.3636L269.667 85.0018L265.167 87.64V82.3636ZM271.917 86.2581L276.417 88.8963L271.917 91.5345V86.2581ZM270.417 91.5345L265.917 88.8963L270.417 86.2581V91.5345ZM276.417 81.1074L271.167 84.1225L265.917 81.1074L271.167 77.9667L276.417 81.1074ZM263.667 80.6049V97.0621L271.167 101.333L278.667 97.0621V80.6049L271.167 76.3335L263.667 80.6049Z" fill="white"/>
<defs>
<linearGradient id="paint0_linear_106_20786" x1="246" y1="0" x2="246" y2="300" gradientUnits="userSpaceOnUse">
<stop stop-color="#01FFB0"/>
<stop offset="1" stop-color="#01FFB0" stop-opacity="0"/>
</linearGradient>
<linearGradient id="paint1_linear_106_20786" x1="253.355" y1="49.48" x2="253.355" y2="300" gradientUnits="userSpaceOnUse">
<stop stop-color="#FCE344"/>
<stop offset="1" stop-color="#FCE344" stop-opacity="0"/>
</linearGradient>
<linearGradient id="paint2_linear_106_20786" x1="382.287" y1="28.5829" x2="355.647" y2="74.8523" gradientUnits="userSpaceOnUse">
<stop stop-color="#6B6EEC"/>
<stop offset="1" stop-color="#7CEECA"/>
</linearGradient>
<clipPath id="clip0_106_20786">
<rect width="492" height="300" fill="white"/>
</clipPath>
</defs>
</svg>
