<svg width="27" height="30" viewBox="0 0 27 30" fill="none" xmlns="http://www.w3.org/2000/svg">
<path d="M1.40625 1.40625V28.5938L16.875 15L1.40625 1.40625Z" fill="#57CEF3"/>
<path d="M15 15L18.75 10.3125L25.7812 15L18.75 19.6875L15 15Z" fill="#FFF200"/>
<path d="M15 15L1.40625 1.40625H3.28125L19.2188 10.7812L15 15Z" fill="#48FF48"/>
<path d="M15 15L1.40625 28.5938H3.28125L19.2188 19.2188L15 15Z" fill="#FF6C58"/>
<path d="M2.39063 30C1.5 30 0.703125 29.5313 0.28125 28.7813L1.875 27.2812V27.6094C1.875 27.75 1.92188 27.8906 2.01563 27.9844L9.375 20.625C12.8438 20.625 15.9844 20.0625 17.9531 19.1719L20.6719 17.5781V19.7344L3.60938 29.6719C3.28125 29.9062 2.85938 30 2.39063 30Z" fill="#FF3333"/>
<path d="M2.39063 1.875C2.10938 1.875 1.875 2.10938 1.875 2.39062V16.875C1.875 18.9375 5.25 20.625 9.375 20.625L0.703125 29.2969C0.28125 28.875 0 28.2656 0 27.6094V2.39062C0 1.07812 1.07813 0 2.39063 0V1.875Z" fill="#0779E4"/>
<path d="M2.01563 2.01562C2.10938 1.92188 2.25 1.875 2.39063 1.875C2.48438 1.875 2.57812 1.92187 2.67187 1.96875L24 14.4375C24.2344 14.5312 24.375 14.7656 24.375 15C24.375 15.2344 24.2344 15.4688 24.0469 15.6094L18.7031 18.7031L20.0625 20.0625L24.9375 17.2031C25.7344 16.7344 26.2031 15.8906 26.2031 15C26.2031 14.1094 25.7344 13.2188 24.9375 12.7969L3.60938 0.328125C3.28125 0.09375 2.85938 0 2.39063 0C1.73438 0 1.125 0.28125 0.703125 0.703125L2.01563 2.01562Z" fill="white"/>
</svg>
