<svg width="18" height="18" viewBox="0 0 18 18" fill="none" xmlns="http://www.w3.org/2000/svg">
<g clip-path="url(#clip0_3739_2549)">
<path d="M14.9579 0H3.04209C1.36197 0 0 1.3619 0 3.04193V14.9581C0 16.6381 1.36197 18 3.04209 18H8.87722V10.6681H6.95279V8.1934H8.87722C8.87722 8.1934 8.87722 6.5762 8.87722 6.21376C8.87722 5.85157 8.80413 3.42914 11.9043 3.42914C12.3198 3.42914 13.3714 3.42914 14.2007 3.42914C14.2007 4.48116 14.2007 5.61929 14.2007 5.94869C13.5792 5.94869 12.8009 5.94869 12.4828 5.94869C12.1646 5.94869 11.8425 6.28184 11.8425 6.52889C11.8425 6.77594 11.8425 8.18364 11.8425 8.18364C11.8425 8.18364 13.8305 8.18364 14.0888 8.18364C13.9989 9.45292 13.8137 10.6676 13.8137 10.6676H11.8312V17.9995H14.9579C16.638 17.9995 18 16.6376 18 14.9576V3.04193C18 1.3619 16.638 0 14.9579 0Z" fill="#37538D"/>
<path opacity="0.5" d="M14.9579 0H3.04209C1.36197 0 0 1.3619 0 3.04193V7.80344C1.98676 8.61317 4.36326 9.16233 6.95279 9.35631V8.19341H8.87722C8.87722 8.19341 8.87722 6.5762 8.87722 6.21376C8.87722 5.85158 8.80413 3.42915 11.9043 3.42915C12.3198 3.42915 13.3714 3.42915 14.2007 3.42915C14.2007 4.48117 14.2007 5.6193 14.2007 5.94869C13.5792 5.94869 12.8009 5.94869 12.4828 5.94869C12.1646 5.94869 11.8425 6.28185 11.8425 6.5289C11.8425 6.77594 11.8425 8.18365 11.8425 8.18365C11.8425 8.18365 13.8305 8.18365 14.0888 8.18365C14.0695 8.45473 14.046 8.72305 14.021 8.97761C15.4613 8.70478 16.8005 8.31731 18 7.83523V3.04193C18 1.3619 16.638 0 14.9579 0Z" fill="url(#paint0_linear_3739_2549)"/>
<path d="M15.8894 0.145176C15.5963 0.0510618 15.2837 0 14.9593 0H3.04346C2.71905 0 2.4064 0.0510618 2.11328 0.145176H15.8894Z" fill="#B9C4D9"/>
<g opacity="0.5">
<path opacity="0.5" d="M8.87697 14.614H0V14.9582C0 16.6382 1.36197 18.0001 3.04209 18.0001H8.87722V14.614H8.87697Z" fill="#687FAD"/>
<path opacity="0.5" d="M11.832 14.614V18.0004H14.9587C16.6389 18.0004 18.0008 16.6385 18.0008 14.9584V14.6143H11.832V14.614Z" fill="#687FAD"/>
</g>
</g>
<defs>
<linearGradient id="paint0_linear_3739_2549" x1="9" y1="0.805579" x2="9" y2="9.31587" gradientUnits="userSpaceOnUse">
<stop stop-color="#8799BF"/>
<stop offset="0.0811" stop-color="#8295BC"/>
<stop offset="0.2865" stop-color="#778BB5"/>
<stop offset="1" stop-color="#415C94"/>
</linearGradient>
<clipPath id="clip0_3739_2549">
<rect width="18" height="18" fill="white"/>
</clipPath>
</defs>
</svg>
