<svg width="18" height="19" viewBox="0 0 18 19" fill="none" xmlns="http://www.w3.org/2000/svg">
<g clip-path="url(#clip0_3739_2540)">
<path d="M18.0019 9.7156C18.0019 9.04678 17.9473 8.40057 17.8443 7.78345H9.18359V11.4426H14.1426C13.932 12.6348 13.2878 13.6494 12.3097 14.3295V16.7059H15.2704C17.0035 15.0516 18.0019 12.6057 18.0019 9.7156Z" fill="#4285F4"/>
<path d="M9.18022 19.0001C11.6589 19.0001 13.7446 18.1584 15.2671 16.7061L12.3063 14.3297C11.4827 14.9032 10.4219 15.2392 9.18022 15.2392C6.78573 15.2392 4.75315 13.5688 4.02466 11.3184H0.976562V13.7642C2.48813 16.8676 5.59395 19.0001 9.18022 19.0001Z" fill="#34A853"/>
<path d="M4.02773 11.3168C3.8421 10.7433 3.73915 10.131 3.73915 9.49932C3.73915 8.86765 3.84054 8.25538 4.02773 7.68187V5.23438H0.978074C0.352544 6.51709 0 7.96458 0 9.49932C0 11.0341 0.352544 12.4832 0.978074 13.7643L4.02773 11.3168Z" fill="#FABB05"/>
<path d="M9.18178 3.75929C10.5342 3.75929 11.7479 4.24071 12.7041 5.18417V5.18578L15.3248 2.47496C13.7336 0.941842 11.6589 0 9.18178 0C5.59395 0 2.48813 2.13086 0.976562 5.23425L4.02622 7.68175C4.75471 5.42973 6.78729 3.75929 9.18178 3.75929Z" fill="#E94235"/>
</g>
<defs>
<clipPath id="clip0_3739_2540">
<rect width="18" height="19" fill="white"/>
</clipPath>
</defs>
</svg>
