<svg xmlns="http://www.w3.org/2000/svg" width="275" height="202" fill="none"><path fill="#F9518C" d="M46.483 78.783c3.35-11.165-2.981-22.934-14.142-26.285S9.416 55.481 6.066 66.646C2.716 77.812 9.048 89.58 20.209 92.932c11.16 3.351 22.924-2.983 26.274-14.149"/><path fill="#fff" d="M37.66 84.112c6.288-6.29 6.288-16.49 0-22.782-6.289-6.29-16.484-6.29-22.773 0-6.288 6.291-6.288 16.491 0 22.782s16.484 6.291 22.773 0"/><path fill="#F9518C" d="M30.718 83.347c5.862-2.458 8.622-9.205 6.165-15.07-2.458-5.864-9.202-8.626-15.065-6.167s-8.622 9.206-6.164 15.07c2.457 5.865 9.202 8.626 15.064 6.167"/><path fill="#fff" d="M26.273 79.088a6.364 6.364 0 0 0 6.364-6.365 6.364 6.364 0 0 0-6.364-6.366 6.364 6.364 0 0 0-6.363 6.366 6.364 6.364 0 0 0 6.363 6.365"/><path fill="#F9518C" d="M29.145 72.723a2.878 2.878 0 1 1-2.878-2.879 2.874 2.874 0 0 1 2.878 2.879"/><path fill="#fff" d="M55.091 43.243 27.824 70.522l.653.652 27.267-27.278z"/><path fill="#fff" d="m29.835 71.766-3.561.957.95-3.57zM59.976 41.79l-5.112 5.114-4.012 1.224 1.223-4.014L57.187 39l-1.223 4.014z"/><path fill="#FFEAC5" d="M274.998 4c-109.357 0-198 88.65-198 198h198z"/><path fill="#F9518C" d="m125.734 102.767-4.957-16.673s-.788-3.515-5.298-6.083L92.986 68.699s-2.567 2.03.555 4.15c.086.458 4.626 2.543 4.626 2.543s4.693 2.294 5.934 3.835c0 0-3.092-.712-3.458 2.32l-.035 1.663s-3.488.31-1.475 4.659c0 0-2.73 2.416-.605 4.257l6.93 7.192s1.927.814 1.749-2.284c0 0 1.098 4.522 6.259 3.062l1.632 9.15 11.632-2.222z"/><path fill="#F9518C" d="M108.036 75.108s-2.242 2.792.671 5.666l4.271 3.794s-2.67 11.093 4.392 13.707c0 0 5.095.977 5.908-3.733.204-1.185-.234-2.787-.437-3.942-.458-2.594-1.174-6.144-3.04-8.173-.936-1.018-2.375-1.725-3.544-2.462q-1.816-1.137-3.656-2.243c-.295-.168-4.418-2.798-4.565-2.614"/><path fill="#1B1A20" d="M98.574 75.382a.3.3 0 0 1-.249-.132.3.3 0 0 1 .081-.417c.326-.219.61-1.028.707-1.485a.3.3 0 0 1 .356-.23.3.3 0 0 1 .229.357c-.03.142-.33 1.424-.961 1.851a.24.24 0 0 1-.163.056M108.936 89.517l-.158-.148c-1.078-.981-2.43-1.368-3.864-1.78-.275-.081-.554-.157-.829-.244l-.218-.066c-1.2-.361-3.209-.961-3.386-2.477-.006-.036-.178-1.562-.178-1.562l.594-.07s.178 1.525.178 1.56c.128 1.12 1.902 1.654 2.959 1.97l.219.065q.406.124.819.24c1.362.39 2.765.793 3.914 1.749.163-.148.397-.422.433-.844.045-.565-.265-1.536-1.988-2.95l-1.51-.662a.3.3 0 1 1 .244-.55l1.617.723c1.576 1.287 2.323 2.462 2.237 3.5-.087.961-.865 1.408-.9 1.429z"/><path fill="#1B1A20" d="M108.732 93.657c-.168 0-.331-.02-.473-.04-3.65-.463-7.245-2.605-9.375-5.575a.297.297 0 0 1 .07-.417.296.296 0 0 1 .418.071c2.039 2.843 5.475 4.888 8.968 5.33.239.031.483.062.687-.004a.42.42 0 0 0 .269-.27c.153-.437-.107-1.231-.346-1.612-.599-.957-1.667-1.704-2.531-2.249a.29.29 0 0 1-.092-.412.293.293 0 0 1 .412-.091c.915.58 2.054 1.378 2.72 2.441.285.458.651 1.44.402 2.131a1.01 1.01 0 0 1-.641.636 1.8 1.8 0 0 1-.488.061M106.378 99.527a.3.3 0 0 1-.183-.54c.615-.468.9-.981.884-1.561-.05-1.587-2.369-3.143-2.394-3.159a.304.304 0 0 1-.087-.417.303.303 0 0 1 .417-.086c.107.071 2.598 1.744 2.664 3.636.026.779-.35 1.47-1.118 2.06a.28.28 0 0 1-.183.067M101.93 85.504q-.03.001-.061-.005a.3.3 0 0 1-.229-.356c.015-.071.402-1.785 2.019-2.228a.296.296 0 0 1 .366.209.297.297 0 0 1-.209.366c-1.271.346-1.586 1.76-1.591 1.775a.31.31 0 0 1-.295.239"/><path fill="#1B1A20" d="M104.11 91.058a.3.3 0 0 1-.234-.112.3.3 0 0 1 .051-.422c.89-.707.326-2.141.315-2.157a.3.3 0 0 1 .163-.391.3.3 0 0 1 .392.162c.03.077.737 1.867-.499 2.849a.27.27 0 0 1-.188.071M103.308 95.824a.3.3 0 0 1-.249-.132.3.3 0 0 1 .081-.418c.508-.34.152-1.114.137-1.15a.3.3 0 0 1 .143-.396.294.294 0 0 1 .396.143c.209.437.407 1.398-.346 1.902a.27.27 0 0 1-.162.05M117.37 98.576q-.023.001-.045-.006c-1.434-.233-2.837-1.876-2.898-1.948-3.28-3.356-2.014-10.706-1.775-11.947l-2.079-1.923c-2.141-1.353-3.356-2.874-3.62-4.521-.3-1.908.808-3.26.854-3.317a.3.3 0 0 1 .458.387c-.016.015-.982 1.21-.722 2.843.233 1.475 1.367 2.858 3.365 4.115l.046.035 2.349 2.172-.036.168c-.015.081-1.703 8.21 1.597 11.592.025.03 1.337 1.561 2.552 1.76a.3.3 0 0 1 .249.345.3.3 0 0 1-.295.245"/><path fill="#F9B223" d="M107.019 108.997c-.346.422-.462 1.018-.427 1.541.026.351.198 2.518.936 2.233l21.831-8.387-1.637-3.179c-.717-1.378-5.806 1.155-6.767 1.551-4.281 1.75-8.475 3.683-12.731 5.488-.351.148-.707.306-1.001.545a1.3 1.3 0 0 0-.204.208"/><path fill="#1B1A20" d="M125.607 103.977a.38.38 0 0 1-.33-.193l-1.139-2.05a.37.37 0 0 1 .147-.509.374.374 0 0 1 .509.148l1.139 2.05a.37.37 0 0 1-.148.508.37.37 0 0 1-.178.046M108.453 112.476l-.178-.152c-1.017-.865-.442-2.488-.417-2.554a.376.376 0 0 1 .707.26c-.01.025-.346.992.051 1.561 2.893-1.241 19.488-8.306 21.638-7.741a.38.38 0 0 1 .27.458.38.38 0 0 1-.458.269c-1.485-.391-13.91 4.583-21.394 7.808z"/><path fill="#FFA6BC" d="M137.536 172.784c-2.024 0-4.073-.514-5.949-1.597-5.715-3.296-7.677-10.6-4.383-16.312 22.259-38.645 45.291-58.09 46.257-58.899 5.064-4.226 12.594-3.545 16.819 1.526 4.219 5.061 3.543 12.579-1.505 16.81-.336.285-20.973 17.924-40.878 52.491a11.95 11.95 0 0 1-10.361 5.981"/><path fill="#FFA6BC" d="m126.238 164.956-19.6-48.487a3.41 3.41 0 0 1 1.876-4.43l18.995-7.686a3.406 3.406 0 0 1 4.428 1.877l19.6 48.488zM235.574 201.999h-74.713l3.849-79.071c0-20.451 12.721-37.028 33.165-37.028h8.185c16.3 0 29.509 13.22 29.509 29.521v86.578z"/><path fill="#031044" d="M184.325 49.315s-1.709-.855-.768-2.986c0 0-3.071-4.776-.341-8.189.3-.376.905-.66 1.337-.839 1.124-.463 2.344.066 3.503-.142 1.124-.199 2.029-.916 2.756-1.76.925-1.078 1.653-2.416 2.812-3.266 2.557-1.871 5.623-1.55 8.231.061a13 13 0 0 1 1.002.687c1.632 1.22 3.193 2.38 4.418 4.044 1.474 1.994 2.776 4.135 4.515 5.915.879.9 1.881 1.73 3.004 2.32 1.775.93 2.909 2.105 3.346 4.089 1.032 4.664-.961 9.455-3.173 13.443 0 0-5.119 9.216-12.736 9.1.005-.011-21.486 1.58-17.906-22.477"/><path fill="#F9518C" d="m191.173 87.396.148-5.656c.091-3.494.193-7.314.193-7.314l15.746-6.048 1.139-.437 1.195 17.919c.645 9.669-18.7 12.176-18.421 1.536"/><path fill="#1B1A20" d="M207.26 68.378c-5.211 13.062-12.756 13.738-15.944 13.362.091-3.494.193-7.314.193-7.314z"/><path fill="#F9518C" d="M216.111 65.693a4.435 4.435 0 0 1-4.433 4.435 4.4 4.4 0 0 1-3.061-1.231c.188.183-2.054 2.635-2.288 2.869-.854.864-1.8 1.683-2.745 2.446-4.551 3.672-10.799 5.366-16.224 2.538-2.852-1.49-5.145-3.982-6.35-6.973a13.3 13.3 0 0 1-.951-4.944c0-2.818.88-5.437 2.39-7.599.066-10.172 6.609-18.397 14.668-18.397 8.104 0 14.668 8.306 14.668 18.545 0 1.327-.107 2.624-.321 3.875.066-.005.143-.005.209-.005a4.447 4.447 0 0 1 4.438 4.44"/><path fill="#031044" d="M191.158 50.55c-.005.316-.193.627-.498.805-.412.239-.875.137-1.322.04a15 15 0 0 0-2.105-.325c-.341-.026-.687-.041-1.027-.046-.336-.005-.676.091-1.007.005a.59.59 0 0 1-.422-.382.52.52 0 0 1 .137-.518c.148-.148.407-.214.621-.275 1.51-.443 3.086-.575 4.647-.275.305.061.569.168.757.387a.88.88 0 0 1 .219.585M197.167 51.817c-.132.316-.076.707.153 1.018.31.417.813.513 1.301.61.758.147 1.51.336 2.242.585.351.122.702.26 1.048.397.335.137.64.381 1.006.442a.63.63 0 0 0 .585-.198.56.56 0 0 0 .086-.575c-.086-.214-.315-.392-.498-.544-1.317-1.094-2.837-1.902-4.52-2.274-.325-.071-.64-.076-.925.061a.9.9 0 0 0-.478.478"/><path fill="#1B1A20" d="M189.525 55.627c0 .967-.544 1.75-1.215 1.75s-1.215-.783-1.215-1.75c0-.966.544-1.75 1.215-1.75s1.215.784 1.215 1.75M199.252 58.145c0 .966-.544 1.75-1.215 1.75s-1.215-.784-1.215-1.75c0-.967.544-1.75 1.215-1.75s1.215.783 1.215 1.75M191.849 69.004c-2.43 0-4.499-1.002-5.028-2.431a.451.451 0 0 1 .844-.316c.391 1.053 2.191 1.846 4.184 1.846 2.187 0 4.098-.945 4.251-2.105a.455.455 0 0 1 .508-.387c.244.036.417.26.387.509-.219 1.643-2.431 2.884-5.146 2.884"/><path fill="#031044" d="M192.856 39.702s-.397 6.485 9.096 8.474c1.205.254 2.349 1.103 2.928 2.182 1.149 2.12-.025 4.659.173 6.912.117 1.343.58 2.874 1.647 3.8 1.399 1.215 3.392.762 4.973.187 0 0 4.662-1.764 3.238-8.02 0 0-1.362-11.15-13.193-16.892.005 0-8.806-3.983-8.862 3.357"/><path fill="#6386FE" d="M211.47 61.562q-.025.001-.056-.005c-3.127-.564-5.044-2.848-4.774-5.691.071-.722.244-1.445.412-2.142.33-1.378.645-2.685.223-4.007-.473-1.48-1.662-1.898-3.03-2.38-.269-.098-.544-.19-.813-.296-2.751-1.068-5.522-2.375-7.169-4.644-.62-.854-.905-1.612-.865-2.319a.305.305 0 0 1 .316-.285c.167.01.289.153.284.316-.03.554.224 1.2.753 1.932 1.556 2.147 4.235 3.403 6.899 4.44q.397.153.793.29c1.393.489 2.837.997 3.407 2.762.478 1.486.127 2.93-.209 4.334-.162.676-.33 1.378-.396 2.06-.244 2.553 1.439 4.532 4.281 5.04.162.03.269.183.244.351a.31.31 0 0 1-.3.244"/><path fill="#1B1A20" d="M209.426 66.288a.45.45 0 0 1-.372-.702c.046-.071 1.165-1.704 2.751-1.852.829-.076 1.607.26 2.323.992a.45.45 0 0 1-.645.626c-.524-.534-1.048-.773-1.597-.722-1.149.101-2.079 1.439-2.084 1.454a.46.46 0 0 1-.376.204"/><path fill="#fff" d="M191.936 56.705c0-2.94-2.39-5.33-5.328-5.33a5.335 5.335 0 0 0-5.329 5.33c0 2.94 2.39 5.33 5.329 5.33a5.34 5.34 0 0 0 5.328-5.33m-1.027 0a4.31 4.31 0 0 1-4.307 4.308 4.31 4.31 0 0 1-4.306-4.308 4.306 4.306 0 1 1 8.613 0M204.331 59.147c0-2.94-2.389-5.33-5.328-5.33a5.334 5.334 0 0 0-5.328 5.33c0 2.94 2.389 5.33 5.328 5.33 2.933.005 5.328-2.385 5.328-5.33m-1.027 0a4.31 4.31 0 0 1-4.306 4.308 4.31 4.31 0 0 1-4.307-4.308 4.31 4.31 0 0 1 4.307-4.308 4.31 4.31 0 0 1 4.306 4.308"/><path fill="#1B1A20" d="M190.583 63.943a.4.4 0 0 1-.127-.02 2.21 2.21 0 0 1-1.576-2.11 2.2 2.2 0 0 1 2.196-2.198c.514 0 1.012.178 1.404.508a.453.453 0 0 1-.575.697 1.298 1.298 0 1 0-1.195 2.243.45.45 0 0 1-.127.88"/><path fill="#fff" d="M194.066 59.05a.52.52 0 0 1-.468-.3c-.228-.509-.508-.799-.828-.855-.509-.096-1.124.382-1.297.555a.51.51 0 0 1-.722-.005.51.51 0 0 1 .005-.723c.107-.106 1.088-1.037 2.202-.834.666.122 1.194.606 1.571 1.44a.508.508 0 0 1-.463.722"/><path fill="#1B1A20" d="M198.764 94.812a8.4 8.4 0 0 1-2.918-.504c-4.058-1.485-5.344-5.717-5.395-5.895a.45.45 0 1 1 .865-.254c.01.04 1.22 3.982 4.85 5.31 3.015 1.098 6.838.147 11.358-2.828a.45.45 0 0 1 .625.127.45.45 0 0 1-.127.626c-3.462 2.273-6.563 3.417-9.258 3.417"/><path fill="#1B1A20" d="M199.974 99.532c-3.548 0-7.097-1.282-9.375-3.408-1.769-1.653-2.745-3.77-2.817-6.119a.375.375 0 0 1 .748-.025c.066 2.176.935 4.058 2.578 5.594 2.262 2.111 5.867 3.337 9.41 3.195 4.012-.158 8.008-2.126 10.438-5.138.982-1.215 1.856-2.665 2.609-4.318l-2.492-.758a.374.374 0 1 1 .219-.717l3.305 1.002-.168.387c-.819 1.877-1.79 3.514-2.883 4.873-2.562 3.173-6.772 5.249-10.992 5.416-.198.016-.391.016-.58.016"/><path fill="#1B1A20" d="M188.581 92.33a.38.38 0 0 1-.311-.163.38.38 0 0 1 .092-.524l1.963-1.363a.38.38 0 0 1 .523.091.38.38 0 0 1-.091.524l-1.963 1.363a.35.35 0 0 1-.213.071M200.534 99.521a.38.38 0 0 1-.377-.356l-.208-3.693a.375.375 0 0 1 .351-.396.37.37 0 0 1 .396.35l.209 3.693a.376.376 0 0 1-.351.397q-.014.006-.02.005M208.053 94.69a.38.38 0 0 1-.295-.143l-1.708-2.162a.38.38 0 0 1 .061-.529.38.38 0 0 1 .529.061l1.703 2.162a.38.38 0 0 1-.061.53.35.35 0 0 1-.229.08M210.895 94.349a.4.4 0 0 1-.259-.102l-2.273-2.162a.37.37 0 0 1-.015-.529.37.37 0 0 1 .529-.015l2.272 2.162a.37.37 0 0 1 .015.529.35.35 0 0 1-.269.117M162.682 165.226h-.015a.367.367 0 0 1-.361-.387c.899-26.336 3.838-47.383 3.869-47.592a.38.38 0 0 1 .422-.32.38.38 0 0 1 .32.422c-.031.208-2.964 21.22-3.864 47.516a.375.375 0 0 1-.371.361"/><path fill="#E2407E" d="m165.651 130.786.559 7.752 12.924 3.84s-2.908-7.238-13.483-11.592"/><path fill="#fff" d="M169.561 158.08c-4.002-.982-8.008-1.964-12.009-2.94-5.166-1.267-13.57-1.796-17.104-6.099-2.522-3.072-4.103-7.268-5.974-10.793a8945 8945 0 0 1-5.592-10.533q-.428-.803-.855-1.613c-1.372-2.594-2.755-5.183-4.128-7.772-.478-.895-2.095-2.894-2.095-3.936 0 0 0-4.095 6.31-4.095 0 0 27.231 3.917 27.292 3.927 5.984.859 7.931 6.673 9.894 11.591 3.056 7.655 6.523 15.381 9.299 23.199.508 1.424.991 2.858 1.449 4.288-.005 0 2.212 6.993-6.487 4.776"/><path fill="#9DBDFF" d="M172.688 156.35a.37.37 0 0 1-.351-.249l-6.553-18.382a129 129 0 0 1-1.388-4.191c-1.17-3.652-2.375-7.426-4.246-10.61-1.22-2.08-3.03-3.621-5.231-4.46-3.331-1.272-6.966-1.562-10.479-1.847-1.724-.137-3.508-.279-5.242-.539a.377.377 0 0 1-.315-.427.377.377 0 0 1 .427-.315c1.703.254 3.478.396 5.191.534 3.564.285 7.255.58 10.687 1.892 2.359.9 4.301 2.553 5.608 4.781 1.912 3.255 3.132 7.07 4.311 10.762.463 1.45.9 2.823 1.383 4.171l6.554 18.382a.37.37 0 0 1-.356.498"/><path fill="#F9518C" d="m186.725 161.747-6.375-3.81-5.497-3.281-12.217-2.853c-5.811-1.388-6.365-2.599-6.365-2.599l-2.278-3.352c-4.301-4.694-2.319-6.81-2.319-6.81-3.742-2.513-.589-4.049-.589-4.049-1.358-1.516 1.688-1.668 1.688-1.668-1.993-1.775-.021-2.213-.021-2.213 4.693-1.032 9.798 4.939 9.798 4.939l6.924 1.867c3.57.818 16.011 6.19 20.256 8.046l1.429.631c1.723 4.44-4.434 15.152-4.434 15.152"/><path fill="#1B1A20" d="m186.725 161.747-6.375-3.81c4.718-3.077 7.89-8.779 9.38-11.973l1.429.631c1.723 4.44-4.434 15.152-4.434 15.152M167.085 142.17c-.026 0-.046-.005-.071-.01l-3.646-.896c-2.725-.554-4.489-2.258-4.565-2.329-2.339-2.284-6.173-5.341-6.208-5.371a.3.3 0 0 1-.046-.422.294.294 0 0 1 .422-.046c.041.03 3.894 3.108 6.254 5.412.015.015 1.723 1.653 4.275 2.177l3.656.895c.163.04.259.203.219.361a.295.295 0 0 1-.29.229M166.256 145.567q-.038-.001-.077-.01c-.528-.142-1.062-.269-1.591-.397-1.444-.351-2.939-.712-4.357-1.312-3.061-1.302-5.354-3.993-7.571-6.597-.615-.722-1.194-1.404-1.789-2.055a.298.298 0 1 1 .442-.401c.6.661 1.185 1.342 1.805 2.07 2.171 2.548 4.418 5.188 7.347 6.434 1.367.585 2.837.936 4.26 1.282.534.127 1.073.259 1.607.401a.303.303 0 0 1 .213.367.3.3 0 0 1-.289.218M164.38 148.594q-.03.001-.061-.005l-4.022-.819c-3.406-.656-4.682-2.737-4.814-2.971l-4.048-5.584a.3.3 0 0 1 .067-.417.3.3 0 0 1 .416.066l4.078 5.635c.01.021 1.169 2.06 4.418 2.686l4.022.819c.163.03.269.193.234.356a.29.29 0 0 1-.29.234"/><path fill="#FFA6BC" d="M247.538 184.518c-5.852 0-11.216-3.891-12.827-9.817-7.174-26.336-26.194-60.836-26.388-61.182-3.558-6.429-1.235-14.532 5.191-18.092s14.526-1.236 18.085 5.193c.844 1.526 20.774 37.689 28.782 67.088 1.932 7.09-2.247 14.409-9.34 16.342a13.4 13.4 0 0 1-3.503.468"/><path fill="#FFA6BC" d="M248.982 184.676q-1.74.106-3.585.106c-10.255 0-22.96-2.471-37.832-7.38-11.063-3.647-19.62-7.431-21.084-8.092l9.904-23.6c.163.066.321.132.483.203 5.766 2.62 19.015 7.884 31.828 10.941 5.877 1.398 11.668 2.334 16.595 2.334q1.089 0 2.125-.061c6.37-.396 11.948 3.957 13.28 10.01q.213.962.274 1.979c.427 7.054-4.931 13.127-11.988 13.56M186.476 169.315s-5.486-1.505-4.124-6.058l8.303-17.176s1.098-1.983 5.725-.366z"/><path fill="#1B1A20" d="M240.807 159.31h-.041c-19.956-2.141-43.821-12.939-44.06-13.046a.38.38 0 0 1-.188-.498c.086-.189.31-.27.498-.189.239.107 23.993 10.854 43.831 12.986.209.02.356.208.331.412a.374.374 0 0 1-.371.335"/><path fill="#1B1A20" d="M228.751 183.313c-.02 0-.035 0-.055-.006-15.767-2.314-41.203-12.639-42.566-13.198-2.374-.189-3.92-.957-4.596-2.289-1.088-2.152.544-4.929.717-5.203l8.059-16.689c.091-.264.884-2.36 2.562-2.66 1.185-.208 2.461.529 3.803 2.203a.383.383 0 0 1-.056.529.38.38 0 0 1-.529-.056c-1.154-1.44-2.191-2.091-3.086-1.933-1.093.193-1.81 1.643-1.988 2.182l-.015.046-8.094 16.759c-.015.025-1.622 2.65-.692 4.486.555 1.089 1.912 1.724 4.042 1.882l.061.005.056.02c.265.107 26.413 10.819 42.444 13.174.203.03.345.219.315.427a.4.4 0 0 1-.382.321M232.504 156.808a.38.38 0 0 1-.341-.214c-9.319-19.353-10.372-34.108-9.614-43.08.823-9.761 3.818-14.852 3.945-15.066a.373.373 0 1 1 .641.387c-.031.05-3.051 5.193-3.849 14.796-.737 8.87.32 23.468 9.548 42.638a.37.37 0 0 1-.173.498.3.3 0 0 1-.157.041"/><path fill="#1B1A20" d="M186.476 169.687a.377.377 0 0 1-.345-.524l9.019-21.144-3.584-1.129a.373.373 0 0 1 .223-.712l4.378 1.373-9.345 21.907a.38.38 0 0 1-.346.229"/><path fill="#1B1A20" d="M188.154 162.383h-.025c-3.397-.245-4.276-2.767-4.312-2.874a.37.37 0 0 1 .239-.473.375.375 0 0 1 .473.234c.031.091.773 2.156 3.651 2.36a.37.37 0 0 1 .345.402.373.373 0 0 1-.371.351M188.154 165.109q-.03.001-.067-.005c-.716-.122-4.291-.824-4.291-2.533a.376.376 0 1 1 .753 0c0 .793 2.191 1.536 3.671 1.79.203.036.34.229.305.432a.38.38 0 0 1-.371.316"/><path fill="#FFEAC5" d="M212.004 144.092a7.59 7.59 0 0 1-7.591-7.593v-13.001h15.182v13.001a7.59 7.59 0 0 1-7.591 7.593"/><path fill="#1B1A20" d="M212.843 120.574h-8.4a.376.376 0 1 1 0-.753h8.4a.376.376 0 1 1 0 .753M219.594 123.869l-13.208-.056-.102-2.146a.373.373 0 0 1 .356-.392.37.37 0 0 1 .391.356l.066 1.435 12.492.056c.209 0 .377.168.371.376a.355.355 0 0 1-.366.371"/><path fill="#1B1A20" d="M204.587 123.218a.376.376 0 0 1-.377-.366l-.071-2.446a.376.376 0 0 1 .366-.387h.01c.204 0 .372.163.377.366l.071 2.447a.376.376 0 0 1-.366.386zM217.409 123.869a.377.377 0 0 1-.376-.366l-.031-1.45a.375.375 0 0 1 .748-.015l.03 1.45a.375.375 0 0 1-.366.381zM219.483 123.869a.377.377 0 0 1-.376-.366l-.056-3.072a.375.375 0 0 1 .366-.382c.209 0 .376.163.381.367l.056 3.072a.374.374 0 0 1-.366.381z"/><path fill="#9DBDFF" d="M133.056 126.168c-.615 0-1.21-.335-1.515-.92l-4.266-8.189a1.707 1.707 0 0 1 .727-2.304 1.705 1.705 0 0 1 2.303.727l4.266 8.189a1.707 1.707 0 0 1-1.515 2.497"/><path fill="#fff" d="M106.765 28.98c4.288-16.003 20.738-25.501 36.742-21.213s25.502 20.739 21.213 36.743l-7.764 28.977-28.978-7.764c-16.004-4.288-25.502-20.739-21.213-36.742"/><path fill="#00CEC9" d="M113.526 30.792c3.287-12.27 15.899-19.55 28.169-16.263s19.551 15.9 16.263 28.169-15.899 19.551-28.169 16.263-19.551-15.899-16.263-28.169"/></svg>