<svg width="22" height="22" viewBox="0 0 22 22" fill="none" xmlns="http://www.w3.org/2000/svg">
<path d="M21 9V14C21 19 19 21 14 21H8C3 21 1 19 1 14V8C1 3 3 1 8 1H13" stroke="#444444" stroke-width="1.5" stroke-linecap="round" stroke-linejoin="round"/>
<path d="M21 9H17C14 9 13 8 13 5V1L21 9Z" stroke="#444444" stroke-width="1.5" stroke-linecap="round" stroke-linejoin="round"/>
<path d="M5.62003 14.7301C5.29003 13.7001 5.68003 12.4301 6.75003 12.0801C7.32003 11.9001 8.02003 12.0501 8.41003 12.6001C8.78003 12.0301 9.51003 11.9001 10.07 12.0801C11.15 12.4301 11.53 13.7001 11.21 14.7301C10.7 16.3601 8.91003 17.2101 8.41003 17.2101C7.92003 17.2001 6.15003 16.3701 5.62003 14.7301Z" stroke="#444444" stroke-width="1.5" stroke-linecap="round" stroke-linejoin="round"/>
</svg>
