<svg width="22" height="22" viewBox="0 0 22 22" fill="none" xmlns="http://www.w3.org/2000/svg">
<path d="M7.5 18H7C3 18 1 17 1 12V7C1 3 3 1 7 1H15C19 1 21 3 21 7V12C21 16 19 18 15 18H14.5C14.19 18 13.89 18.15 13.7 18.4L12.2 20.4C11.54 21.28 10.46 21.28 9.8 20.4L8.3 18.4C8.14 18.18 7.77 18 7.5 18Z" stroke="#444444" stroke-width="1.5" stroke-miterlimit="10" stroke-linecap="round" stroke-linejoin="round"/>
<path d="M14.9965 10H15.0054" stroke="#444444" stroke-width="2" stroke-linecap="round" stroke-linejoin="round"/>
<path d="M10.9955 10H11.0045" stroke="#444444" stroke-width="2" stroke-linecap="round" stroke-linejoin="round"/>
<path d="M6.99451 10H7.00349" stroke="#444444" stroke-width="2" stroke-linecap="round" stroke-linejoin="round"/>
</svg>
