<svg width="35" height="30" viewBox="0 0 35 30" fill="none" xmlns="http://www.w3.org/2000/svg">
<path d="M31.5827 24.5547V28.9109H2.54102V24.5547C2.54102 23.756 3.19445 23.1026 3.9931 23.1026H30.1306C30.9292 23.1026 31.5827 23.756 31.5827 24.5547Z" fill="#0DAC81" stroke="#0DAC81" stroke-width="1.5" stroke-miterlimit="10" stroke-linecap="round" stroke-linejoin="round"/>
<path opacity="0.6" d="M11.2536 12.938H5.44531V23.1026H11.2536V12.938Z" fill="#0DAC81"/>
<path opacity="0.4" d="M17.0622 12.938H11.2539V23.1026H17.0622V12.938Z" fill="#0DAC81"/>
<path opacity="0.6" d="M22.8708 12.938H17.0625V23.1026H22.8708V12.938Z" fill="#0DAC81"/>
<path opacity="0.4" d="M28.6794 12.938H22.8711V23.1026H28.6794V12.938Z" fill="#0DAC81"/>
<path d="M33.0349 30H1.08906C0.493708 30 0 29.5063 0 28.9109C0 28.3156 0.493708 27.8219 1.08906 27.8219H33.0349C33.6302 27.8219 34.124 28.3156 34.124 28.9109C34.124 29.5063 33.6302 30 33.0349 30Z" fill="#0DAC81"/>
<path d="M30.6679 5.31459L17.5991 0.087125C17.3087 -0.0290417 16.815 -0.0290417 16.5246 0.087125L3.45584 5.31459C2.94761 5.51788 2.54102 6.11322 2.54102 6.66502V11.4859C2.54102 12.2846 3.19445 12.938 3.9931 12.938H30.1306C30.9292 12.938 31.5827 12.2846 31.5827 11.4859V6.66502C31.5827 6.11322 31.1761 5.51788 30.6679 5.31459ZM17.0618 9.30782C15.8566 9.30782 14.8837 8.33492 14.8837 7.12969C14.8837 5.92446 15.8566 4.95157 17.0618 4.95157C18.2671 4.95157 19.24 5.92446 19.24 7.12969C19.24 8.33492 18.2671 9.30782 17.0618 9.30782Z" fill="#6ECDB3"/>
</svg>
