<svg width="50" height="50" viewBox="0 0 50 50" fill="none" xmlns="http://www.w3.org/2000/svg">
<path opacity="0.4" d="M35.4927 0H14.5322C5.4277 0 0 5.425 0 14.525V35.45C0 44.575 5.4277 50 14.5322 50H35.4677C44.5722 50 49.9999 44.575 49.9999 35.475V14.525C50.0249 5.425 44.5972 0 35.4927 0Z" fill="#0DAC81"/>
<path d="M12.235 34.3751C11.5346 34.3751 10.8843 34.0001 10.5591 33.3501C10.0839 32.4251 10.4591 31.3001 11.4096 30.8251C13.5857 29.7501 15.4366 28.1001 16.7622 26.1001C17.2125 25.4251 17.2125 24.5751 16.7622 23.9001C15.4116 21.9001 13.5606 20.2501 11.4096 19.1751C10.4591 18.7251 10.0839 17.6001 10.5591 16.6501C11.0094 15.7251 12.1349 15.3501 13.0604 15.8251C15.8118 17.2001 18.1629 19.2751 19.8638 21.8251C21.1394 23.7501 21.1394 26.2501 19.8638 28.1751C18.1629 30.7251 15.8118 32.8001 13.0604 34.1751C12.8103 34.3001 12.5101 34.3751 12.235 34.3751Z" fill="#0DAC81"/>
<path d="M37.5196 34.375H27.5146C26.4891 34.375 25.6387 33.525 25.6387 32.5C25.6387 31.475 26.4891 30.625 27.5146 30.625H37.5196C38.5451 30.625 39.3955 31.475 39.3955 32.5C39.3955 33.525 38.5451 34.375 37.5196 34.375Z" fill="#0DAC81"/>
</svg>
