<svg width="50" height="50" viewBox="0 0 50 50" fill="none" xmlns="http://www.w3.org/2000/svg">
<path opacity="0.4" d="M50 12.5V37.5C50 45 45.8333 50 36.1111 50H13.8889C4.16667 50 0 45 0 37.5V12.5C0 5 4.16667 0 13.8889 0H36.1111C45.8333 0 50 5 50 12.5Z" fill="#0DAC81"/>
<path d="M41.7017 18.4732H36.662C32.8318 18.4732 29.7324 15.6837 29.7324 12.2366V7.70089C29.7324 6.77107 30.5892 6 31.6223 6C32.6554 6 33.5122 6.77107 33.5122 7.70089V12.2366C33.5122 13.8014 34.9233 15.0714 36.662 15.0714H41.7017C42.7348 15.0714 43.5915 15.8425 43.5915 16.7723C43.5915 17.7021 42.7348 18.4732 41.7017 18.4732Z" fill="#0DAC81"/>
<path d="M25.3228 28.6786H15.2434C14.2103 28.6786 13.3535 27.9076 13.3535 26.9777C13.3535 26.0479 14.2103 25.2769 15.2434 25.2769H25.3228C26.3559 25.2769 27.2126 26.0479 27.2126 26.9777C27.2126 27.9076 26.3559 28.6786 25.3228 28.6786Z" fill="#0DAC81"/>
<path d="M35.4021 37.7499H15.2434C14.2103 37.7499 13.3535 36.9789 13.3535 36.049C13.3535 35.1192 14.2103 34.3481 15.2434 34.3481H35.4021C36.4353 34.3481 37.292 35.1192 37.292 36.049C37.292 36.9789 36.4353 37.7499 35.4021 37.7499Z" fill="#0DAC81"/>
</svg>
