<svg width="50" height="50" viewBox="0 0 50 50" fill="none" xmlns="http://www.w3.org/2000/svg">
<path opacity="0.4" d="M35.4677 0H14.5323C5.42771 0 0 5.42771 0 14.5323V35.4677C0 44.5723 5.42771 50 14.5323 50H35.4677C44.5723 50 50 44.5723 50 35.4677V14.5323C50 5.42771 44.5723 0 35.4677 0Z" fill="#0DAC81"/>
<path d="M16.8073 30.8851V20.9858C18.7457 20.2704 20.1533 18.4244 20.1533 16.2322C20.1533 13.44 17.8688 11.1555 15.0767 11.1555C12.2845 11.1555 10 13.44 10 16.2322C10 18.4244 11.4076 20.2704 13.346 20.9858V30.8851C11.5922 31.5774 10.3462 33.2851 10.3462 35.2696C10.3462 37.8771 12.4691 40 15.0767 40C17.6842 40 19.8071 37.8771 19.8071 35.2696C19.8071 33.2851 18.5611 31.5774 16.8073 30.8851Z" fill="#0DAC81"/>
<path d="M37.4578 30.8849V17.5011C37.4578 15.2858 35.6348 13.4629 33.4196 13.4629H30.812L31.2967 13.0706C32.0351 12.4475 32.1273 11.363 31.5274 10.6245C30.9043 9.88612 29.8198 9.79387 29.0814 10.3938L24.9278 13.8552C24.5355 14.1782 24.3047 14.6628 24.3047 15.1935C24.3047 15.7243 24.5355 16.1858 24.9278 16.5319L29.0814 19.9932C29.4044 20.2701 29.7967 20.3856 30.1889 20.3856C30.6735 20.3856 31.1812 20.1779 31.5274 19.7625C32.1504 19.0241 32.0351 17.9396 31.2967 17.3165L30.812 16.9242H33.4196C33.7426 16.9242 33.9965 17.178 33.9965 17.5011V30.8849C32.2427 31.5772 30.9967 33.2849 30.9967 35.2694C30.9967 37.8769 33.1196 39.9998 35.7271 39.9998C38.3347 39.9998 40.4576 37.8769 40.4576 35.2694C40.4576 33.2849 39.2116 31.5772 37.4578 30.8849Z" fill="#0DAC81"/>
</svg>
