<svg width="31" height="30" viewBox="0 0 31 30" fill="none" xmlns="http://www.w3.org/2000/svg">
<path opacity="0.4" d="M27.0781 7.22743L18.4371 1.18174C16.0818 -0.468442 12.4664 -0.378432 10.2012 1.37677L2.6853 7.24243C1.18513 8.41256 0 10.8128 0 12.703V23.0542C0 26.8797 3.10535 30 6.93078 30H23.1026C26.928 30 30.0334 26.8946 30.0334 23.0692V12.8981C30.0334 10.8728 28.7282 8.38256 27.0781 7.22743Z" fill="#0DAC81"/>
<path d="M22.2618 13.9032C22.1568 13.6481 21.9468 13.4381 21.6917 13.3331C21.5567 13.2731 21.4217 13.2581 21.2867 13.2581H18.4964C17.9113 13.2581 17.4463 13.7232 17.4463 14.3082C17.4463 14.8933 17.9113 15.3583 18.4964 15.3583H18.7664L15.601 18.5237L14.0709 16.2434C13.8909 15.9884 13.6208 15.8084 13.3058 15.7784C12.9758 15.7484 12.6907 15.8534 12.4657 16.0784L7.99519 20.5489C7.59014 20.954 7.59014 21.614 7.99519 22.0341C8.20521 22.2441 8.46024 22.3341 8.73027 22.3341C9.0003 22.3341 9.27033 22.2291 9.46536 22.0341L13.0358 18.4637L14.5659 20.7439C14.746 20.999 15.016 21.179 15.331 21.209C15.6611 21.239 15.9461 21.134 16.1711 20.909L20.2516 16.8285V17.0985C20.2516 17.6836 20.7166 18.1487 21.3017 18.1487C21.8868 18.1487 22.3518 17.6836 22.3518 17.0985V14.3082C22.3368 14.1582 22.3218 14.0232 22.2618 13.9032Z" fill="#0DAC81"/>
</svg>
