<svg width="30" height="30" viewBox="0 0 30 30" fill="none" xmlns="http://www.w3.org/2000/svg">
<path opacity="0.4" d="M28.5436 14.3966V22.9011C28.5436 26.8197 25.3143 30 21.3354 30H8.73552C4.75661 30 1.52734 26.8197 1.52734 22.9011V14.496C2.62299 15.6602 4.17995 16.3275 5.86666 16.3275C7.68312 16.3275 9.4275 15.433 10.5231 13.9991C11.5035 15.433 13.1758 16.3275 15.0355 16.3275C16.8808 16.3275 18.5242 15.4756 19.5189 14.0558C20.629 15.4614 22.3445 16.3275 24.1322 16.3275C25.8766 16.3275 27.4624 15.6318 28.5436 14.3966Z" fill="#0DAC81"/>
<path d="M19.3465 0H10.6967L9.62989 10.4496C9.54339 11.415 9.68756 12.3237 10.048 13.1472C10.8841 15.0781 12.8447 16.3275 15.036 16.3275C17.2561 16.3275 19.1735 15.1065 20.0385 13.1614C20.298 12.5509 20.4566 11.841 20.471 11.1169V10.8471L19.3465 0Z" fill="#0DAC81"/>
<path opacity="0.6" d="M29.9714 9.96687L29.5533 6.03408C28.9478 1.74633 26.9728 0 22.7488 0H17.2129L18.2797 10.6484C18.2941 10.7903 18.3085 10.9465 18.3085 11.2163C18.395 11.9546 18.6257 12.6361 18.9717 13.2466C20.0097 15.1207 22.0279 16.3275 24.1327 16.3275C26.0501 16.3275 27.7801 15.4898 28.8613 14.0133C29.7263 12.8774 30.1155 11.4434 29.9714 9.96687Z" fill="#0DAC81"/>
<path opacity="0.6" d="M7.23605 0C2.99765 0 1.03702 1.74633 0.417119 6.07667L0.0278775 9.98107C-0.116286 11.5002 0.301788 12.9768 1.21002 14.1268C2.30566 15.5324 3.99237 16.3275 5.8665 16.3275C7.97129 16.3275 9.98957 15.1207 11.0131 13.275C11.388 12.6361 11.633 11.8978 11.7051 11.1311L12.8296 0.0141978H7.23605V0Z" fill="#0DAC81"/>
<path d="M14.0957 21.8788C12.2648 22.0634 10.8809 23.5968 10.8809 25.4141V30H19.1703V25.911C19.1847 22.9437 17.4115 21.5381 14.0957 21.8788Z" fill="#0DAC81"/>
</svg>
