<svg width="33" height="31" viewBox="0 0 33 31" fill="none" xmlns="http://www.w3.org/2000/svg">
<path d="M26.0209 18.155C22.6382 18.155 19.8984 20.8948 19.8984 24.2775C19.8984 25.4254 20.2199 26.5122 20.7862 27.4305C21.8423 29.206 23.7862 30.3999 26.0209 30.3999C28.2556 30.3999 30.1994 29.206 31.2556 27.4305C31.8219 26.5122 32.1433 25.4254 32.1433 24.2775C32.1433 20.8948 29.4035 18.155 26.0209 18.155ZM29.1893 23.6193L25.9291 26.6346C25.7148 26.8336 25.4239 26.9407 25.1484 26.9407C24.8576 26.9407 24.5668 26.8336 24.3373 26.604L22.8219 25.0887C22.378 24.6448 22.378 23.9101 22.8219 23.4662C23.2657 23.0224 24.0004 23.0224 24.4443 23.4662L25.1791 24.2009L27.628 21.9356C28.0872 21.5071 28.8219 21.5377 29.2505 21.9968C29.679 22.456 29.6484 23.1754 29.1893 23.6193Z" fill="#0DAC81"/>
<path d="M30.6122 6.73664V8.97133H0V6.73664C0 3.23153 2.84698 0.399902 6.35208 0.399902H24.2602C27.7653 0.399902 30.6122 3.23153 30.6122 6.73664Z" fill="#0DAC81"/>
<path opacity="0.4" d="M0 8.97134V20.3897C0 23.8948 2.83166 26.7264 6.33676 26.7264H15.9184C16.8062 26.7264 17.5714 25.9764 17.4949 25.0887C17.2806 22.7469 18.0306 20.206 20.1123 18.1856C20.9694 17.3438 22.0255 16.7009 23.1735 16.3336C25.0868 15.7213 26.9388 15.7979 28.5765 16.3489C29.5714 16.6856 30.6122 15.9662 30.6122 14.9101V8.97134H0ZM9.18367 21.5989H6.12245C5.4949 21.5989 4.97449 21.0785 4.97449 20.4509C4.97449 19.8234 5.4949 19.303 6.12245 19.303H9.18367C9.81122 19.303 10.3316 19.8234 10.3316 20.4509C10.3316 21.0785 9.81122 21.5989 9.18367 21.5989Z" fill="#0DAC81"/>
<path d="M10.3318 20.4509C10.3318 21.0785 9.81134 21.5989 9.18379 21.5989H6.12257C5.49502 21.5989 4.97461 21.0785 4.97461 20.4509C4.97461 19.8234 5.49502 19.303 6.12257 19.303H9.18379C9.81134 19.303 10.3318 19.8234 10.3318 20.4509Z" fill="#0DAC81"/>
</svg>
