<svg width="93" height="112" viewBox="0 0 93 112" fill="none" xmlns="http://www.w3.org/2000/svg">
<path d="M18.2732 14.3706C26.319 14.4711 33.9624 18.4909 39.695 24.1185C45.4276 29.7462 49.5511 36.8812 52.9705 44.1168C56.8928 52.5583 60.0106 61.6027 59.91 70.8482C59.91 74.1645 59.3066 77.6817 57.094 80.0936C55.1831 82.1035 52.2665 83.0079 49.5511 83.7114C44.4219 85.1183 37.4824 85.6208 35.1693 80.7971C33.0573 76.4758 36.9796 71.4511 41.3042 69.3408C51.6631 64.3161 64.838 68.8383 72.3809 77.5813C79.9238 86.3242 82.6393 98.283 83.2427 109.739" stroke="black" stroke-width="2" stroke-miterlimit="10"/>
<path d="M38.5887 17.084C39.2927 17.4859 39.8962 16.28 39.8962 15.4761V0" stroke="black" stroke-width="2" stroke-miterlimit="10"/>
<path d="M86.2599 11.7576C84.0473 13.5665 82.9411 16.7823 83.5445 19.5961C83.6451 19.9981 83.7456 20.4001 84.1479 20.7016C84.4496 20.9026 84.9525 21.003 85.3548 21.003C87.4668 21.1035 89.7799 21.003 91.188 19.4956C92.8977 17.4858 91.6908 14.27 89.5788 12.863C87.4668 11.4561 84.6508 11.3556 82.1365 11.4561" stroke="black" stroke-width="2" stroke-miterlimit="10"/>
<path d="M3.08687 37.8863C2.48344 39.7957 1.77943 41.7051 1.176 43.514C0.974857 44.0164 0.874285 44.6194 1.27657 44.9209C1.57829 45.2224 1.98058 45.2224 2.38286 45.1219C6.00346 44.8204 9.62405 43.6145 12.7418 41.7051C9.52348 39.3937 6.40574 37.0824 3.18744 34.771C2.88572 37.0824 2.48344 39.2932 2.18172 41.6046" stroke="black" stroke-width="2" stroke-miterlimit="10"/>
<path d="M73.6884 103.911C76.6049 104.313 79.421 105.921 81.1307 108.333C81.6335 108.936 82.0358 109.74 82.8404 109.941C84.2484 110.343 85.2541 108.634 85.757 107.227C87.2656 102.906 88.7742 98.4843 90.3833 94.1631" stroke="black" stroke-width="2" stroke-miterlimit="10"/>
</svg>
