<svg width="50" height="50" viewBox="0 0 50 50" fill="none" xmlns="http://www.w3.org/2000/svg">
<circle cx="25" cy="25" r="25" fill="#F7578C" fill-opacity="0.2"/>
<path d="M20.27 15H29.74C30.39 15 30.97 15.02 31.49 15.09C34.26 15.4 35.01 16.7 35.01 20.26V26.58C35.01 30.14 34.26 31.44 31.49 31.75C30.97 31.82 30.4 31.84 29.74 31.84H20.27C19.62 31.84 19.04 31.82 18.52 31.75C15.75 31.44 15 30.14 15 26.58V20.26C15 16.7 15.75 15.4 18.52 15.09C19.04 15.02 19.62 15 20.27 15Z" stroke="#F7578C" stroke-width="1.5" stroke-linecap="round" stroke-linejoin="round"/>
<path d="M26.5938 21.3203H30.2737" stroke="#F7578C" stroke-width="1.5" stroke-linecap="round" stroke-linejoin="round"/>
<path d="M19.75 27.1094H19.77H30.28" stroke="#F7578C" stroke-width="1.5" stroke-linecap="round" stroke-linejoin="round"/>
<path d="M20.0078 35H30.0078" stroke="#F7578C" stroke-width="1.5" stroke-linecap="round" stroke-linejoin="round"/>
<path d="M20.2054 21.2969H20.2144" stroke="#F7578C" stroke-width="2" stroke-linecap="round" stroke-linejoin="round"/>
<path d="M23.5023 21.2969H23.5113" stroke="#F7578C" stroke-width="2" stroke-linecap="round" stroke-linejoin="round"/>
</svg>
