<svg width="102" height="70" viewBox="0 0 102 70" fill="none" xmlns="http://www.w3.org/2000/svg">
<rect y="10" width="102" height="50" rx="25" fill="#F7578C"/>
<path d="M26.49 45.36C24.41 45.36 22.61 44.91 21.09 44.01C19.59 43.09 18.43 41.82 17.61 40.2C16.79 38.56 16.38 36.67 16.38 34.53C16.38 32.37 16.79 30.48 17.61 28.86C18.43 27.22 19.59 25.94 21.09 25.02C22.61 24.1 24.41 23.64 26.49 23.64C28.95 23.64 30.96 24.24 32.52 25.44C34.08 26.64 35.07 28.32 35.49 30.48H31.95C31.67 29.26 31.07 28.29 30.15 27.57C29.23 26.85 28 26.49 26.46 26.49C24.36 26.49 22.7 27.21 21.48 28.65C20.26 30.07 19.65 32.03 19.65 34.53C19.65 37.01 20.26 38.96 21.48 40.38C22.7 41.8 24.36 42.51 26.46 42.51C28 42.51 29.23 42.17 30.15 41.49C31.07 40.81 31.67 39.88 31.95 38.7H35.49C35.07 40.78 34.08 42.41 32.52 43.59C30.96 44.77 28.95 45.36 26.49 45.36ZM38.8655 45V23.4H42.0455V32.52C42.5455 31.66 43.2355 30.99 44.1155 30.51C45.0155 30.01 46.0055 29.76 47.0855 29.76C48.8655 29.76 50.2655 30.32 51.2855 31.44C52.3055 32.56 52.8155 34.23 52.8155 36.45V45H49.6655V36.78C49.6655 33.9 48.5155 32.46 46.2155 32.46C45.0155 32.46 44.0155 32.88 43.2155 33.72C42.4355 34.56 42.0455 35.76 42.0455 37.32V45H38.8655ZM61.6008 45.36C60.3408 45.36 59.3008 45.15 58.4808 44.73C57.6608 44.31 57.0508 43.76 56.6508 43.08C56.2508 42.38 56.0508 41.62 56.0508 40.8C56.0508 39.36 56.6108 38.22 57.7308 37.38C58.8508 36.54 60.4508 36.12 62.5308 36.12H66.4308V35.85C66.4308 34.69 66.1108 33.82 65.4708 33.24C64.8508 32.66 64.0408 32.37 63.0408 32.37C62.1608 32.37 61.3908 32.59 60.7308 33.03C60.0908 33.45 59.7008 34.08 59.5608 34.92H56.3808C56.4808 33.84 56.8408 32.92 57.4608 32.16C58.1008 31.38 58.9008 30.79 59.8608 30.39C60.8408 29.97 61.9108 29.76 63.0708 29.76C65.1508 29.76 66.7608 30.31 67.9008 31.41C69.0408 32.49 69.6108 33.97 69.6108 35.85V45H66.8508L66.5808 42.45C66.1608 43.27 65.5508 43.96 64.7508 44.52C63.9508 45.08 62.9008 45.36 61.6008 45.36ZM62.2308 42.78C63.0908 42.78 63.8108 42.58 64.3908 42.18C64.9908 41.76 65.4508 41.21 65.7708 40.53C66.1108 39.85 66.3208 39.1 66.4008 38.28H62.8608C61.6008 38.28 60.7008 38.5 60.1608 38.94C59.6408 39.38 59.3808 39.93 59.3808 40.59C59.3808 41.27 59.6308 41.81 60.1308 42.21C60.6508 42.59 61.3508 42.78 62.2308 42.78ZM79.2656 45C77.8056 45 76.6456 44.65 75.7856 43.95C74.9256 43.23 74.4956 41.96 74.4956 40.14V32.79H71.9456V30.12H74.4956L74.8856 26.34H77.6756V30.12H81.8756V32.79H77.6756V40.14C77.6756 40.96 77.8456 41.53 78.1856 41.85C78.5456 42.15 79.1556 42.3 80.0156 42.3H81.7256V45H79.2656Z" fill="white"/>
</svg>
