<svg width="50" height="50" viewBox="0 0 50 50" fill="none" xmlns="http://www.w3.org/2000/svg">
<circle cx="25" cy="25" r="25" fill="#3629B7" fill-opacity="0.2"/>
<path d="M31.4738 29.83L31.8638 32.99C31.9638 33.82 31.0738 34.4 30.3638 33.97L26.1738 31.48C25.7138 31.48 25.2638 31.45 24.8238 31.39C25.5638 30.52 26.0038 29.42 26.0038 28.23C26.0038 25.39 23.5438 23.09 20.5038 23.09C19.3438 23.09 18.2738 23.42 17.3838 24C17.3538 23.75 17.3438 23.5 17.3438 23.24C17.3438 18.69 21.2938 15 26.1738 15C31.0538 15 35.0038 18.69 35.0038 23.24C35.0038 25.94 33.6138 28.33 31.4738 29.83Z" stroke="#3629B7" stroke-width="1.5" stroke-linecap="round" stroke-linejoin="round"/>
<path d="M26 28.2337C26 29.4237 25.56 30.5237 24.82 31.3937C23.83 32.5937 22.26 33.3637 20.5 33.3637L17.89 34.9137C17.45 35.1837 16.89 34.8137 16.95 34.3037L17.2 32.3337C15.86 31.4037 15 29.9137 15 28.2337C15 26.4737 15.94 24.9237 17.38 24.0037C18.27 23.4237 19.34 23.0938 20.5 23.0938C23.54 23.0938 26 25.3937 26 28.2337Z" stroke="#3629B7" stroke-width="1.5" stroke-linecap="round" stroke-linejoin="round"/>
</svg>
