<svg width="70" height="17" viewBox="0 0 70 17" fill="none" xmlns="http://www.w3.org/2000/svg">
<path d="M13.3025 3.79959L12.6957 4.39953L11.8362 5.19944H14.3643V6.19933H10.3699V5.64939L11.7351 3.99957L12.3418 3.34964L12.7969 2.7997C12.898 2.64972 13.4036 2.14977 13.353 1.49984C13.2013 0.999893 12.6452 0.64993 12.089 0.799914C11.6845 0.799914 11.2294 1.34985 11.1789 1.74981C10.8755 1.69982 10.6227 1.64982 10.3193 1.59983C10.471 0.999892 10.825 0.499946 11.3306 0.199979C11.6339 0.0499947 11.9373 0 12.2407 0C12.4935 0 12.7463 0.0499947 12.9991 0.0999893C13.2013 0.149984 13.4036 0.299968 13.6058 0.399957C13.7575 0.549941 14.0609 0.699925 14.1115 0.949898C14.2631 1.19987 14.3137 1.49984 14.3643 1.79981C14.4148 2.44974 13.8587 3.04967 13.7575 3.19966C13.6564 3.44963 13.5047 3.59961 13.3025 3.79959Z" fill="#FF492C"/>
<path d="M8.70106 16.9983C3.99882 17.0983 0.105578 13.3987 0.00445427 8.74922C-0.147231 4.09972 3.59433 0.250136 8.29656 0.150146C8.44825 0.150146 8.54937 0.150146 8.70106 0.150146V3.14982C5.66736 3.14982 3.18984 5.59956 3.18984 8.59924C3.18984 11.5989 5.66736 14.0487 8.70106 14.0487C11.0775 14.0487 13.1505 12.5488 13.9089 10.3491C12.4426 10.3491 10.319 10.3491 10.319 10.3491V7.19939H17.0943C17.8527 11.7989 14.7179 16.0984 10.0662 16.8484C9.61117 16.9483 9.15611 16.9983 8.70106 16.9983Z" fill="#FF492C"/>
<path opacity="0.4" d="M21.7462 0.99939H21.0889V15.8478H21.7462V0.99939Z" fill="#476574"/>
<path d="M32.2632 9.79892H29.7856V10.5488C29.7856 11.1488 29.7351 11.3488 29.5834 11.4987C29.3306 11.6987 29.0272 11.7987 28.7239 11.7487C28.2688 11.7487 27.9654 11.6487 27.8137 11.4987C27.6621 11.1988 27.5609 10.7988 27.6115 10.4488V5.54937C27.5609 5.19941 27.6621 4.79945 27.8137 4.49949C27.9654 4.3495 28.2688 4.24951 28.7239 4.24951C29.0272 4.19952 29.3306 4.29951 29.5328 4.44949C29.6845 4.74946 29.7856 5.14942 29.7351 5.49938V6.2493L32.2126 6.29929V5.49938C32.2126 4.49949 32.162 4.64947 32.0104 4.14952C31.7576 3.64958 31.3531 3.19963 30.8474 2.94965C30.1901 2.59969 29.4317 2.44971 28.6227 2.44971C28.016 2.44971 27.4598 2.5497 26.9036 2.74967C26.4486 2.89966 26.0441 3.19963 25.6902 3.59958C25.4373 3.89955 25.2351 4.29951 25.1845 4.69947C25.1845 5.2994 25.134 5.89934 25.134 6.49927V9.64893C25.0834 10.4488 25.1845 11.2488 25.3868 11.9987C25.589 12.5486 25.9935 12.9486 26.5497 13.1986C27.207 13.4985 27.9654 13.6485 28.7239 13.6485C29.4823 13.6985 30.1901 13.4985 30.8474 13.1486C31.3531 12.8986 31.7576 12.4486 32.0104 11.9487C32.2126 11.3488 32.2632 10.6988 32.2126 10.0489V9.79892H32.2632Z" fill="#476574"/>
<path d="M40.3525 5.64915C40.4031 4.94922 40.2514 4.2493 39.8469 3.64936C39.5435 3.24941 39.0885 2.99943 38.5828 2.89944C37.6222 2.74946 36.6109 2.69947 35.5997 2.74946H33.4256L33.375 13.4983H35.802V8.84881C36.8132 8.84881 37.3188 8.8988 37.5716 9.04878C37.8244 9.19877 37.9255 9.54873 37.9255 10.0987V13.4983L40.3525 13.4483V10.6486C40.3525 10.1987 40.3525 9.69871 40.2514 9.24876C40.1503 8.99879 40.0491 8.79881 39.8469 8.59883C39.493 8.29887 39.0885 8.09889 38.6334 8.04889C39.139 8.04889 39.5941 7.84891 39.948 7.49895C40.2514 6.89902 40.3525 6.29908 40.3525 5.64915ZM37.9255 5.29919V5.89912C37.9255 6.39907 37.7739 7.14899 37.4199 7.24898C36.9143 7.34897 36.3581 7.39896 35.802 7.39896V4.34929C36.3581 4.29929 36.9143 4.34929 37.4199 4.49927C37.7739 4.64926 37.9761 4.94922 37.9255 5.29919Z" fill="#476574"/>
<path d="M48.442 3.59988C48.0881 3.19992 47.6836 2.89996 47.178 2.74997C46.5713 2.54999 45.9645 2.5 45.3578 2.5C44.751 2.5 44.1443 2.54999 43.5376 2.74997C43.0319 2.94995 42.6274 3.19992 42.2735 3.59988C41.9701 3.94984 41.7679 4.3498 41.7173 4.84975C41.6668 5.59967 41.6162 6.39958 41.6162 7.1495V8.94931C41.6162 9.69923 41.6162 10.4991 41.7173 11.2491C41.7679 11.699 41.9701 12.149 42.2735 12.4989C42.6274 12.8989 43.0319 13.1989 43.5376 13.3488C44.0937 13.5488 44.7005 13.6488 45.3072 13.6488C45.914 13.6488 46.5713 13.5488 47.1274 13.3488C47.633 13.1989 48.0375 12.8989 48.3915 12.4989C48.6948 12.149 48.8971 11.749 48.9476 11.2991C48.9982 10.5491 49.0488 9.74922 49.0488 8.9993V7.1495C49.0488 6.39958 49.0488 5.59967 48.9476 4.84975C48.8971 4.3998 48.7454 3.94984 48.442 3.59988ZM46.5207 5.49968L46.4701 10.3992C46.5207 10.7991 46.4196 11.2491 46.2679 11.599C45.9645 11.799 45.56 11.899 45.2061 11.849C44.8522 11.899 44.4982 11.799 44.1949 11.649C43.9926 11.2991 43.942 10.8991 43.9926 10.4991V5.49968C43.9926 4.94974 44.0937 4.59977 44.3465 4.49979C44.6499 4.3998 45.0038 4.29981 45.3072 4.3498C45.6611 4.29981 46.0151 4.3498 46.3184 4.54978C46.4701 4.79975 46.5713 5.14972 46.5207 5.49968Z" fill="#476574"/>
<path d="M58.8076 10.7988L58.1503 6.24927C58.0492 5.0494 57.7964 3.84953 57.493 2.69965H54.8132C54.3582 5.74932 53.3975 8.99898 53.2964 10.8988L52.7908 6.44925L52.1335 2.69965H49.8076L51.8806 13.3985H54.5098C54.9649 10.5488 55.9256 6.49924 56.0267 5.59934C56.2795 7.69912 57.1391 11.7487 57.493 13.3985H60.0211L62.2963 2.64966H60.0211C59.6166 5.19938 59.0098 8.19906 58.8076 10.7988Z" fill="#476574"/>
<path d="M69.9822 10.249V6.49936C69.9822 5.79944 69.9316 5.09951 69.8305 4.44958C69.7799 4.09962 69.5777 3.74966 69.3249 3.49969C68.9709 3.19972 68.5664 2.99974 68.1114 2.89975C67.1507 2.74977 66.19 2.64978 65.2799 2.69977H62.9541V13.4486H66.8473C67.353 13.4486 67.8586 13.4486 68.3642 13.3486C68.7181 13.2986 69.0215 13.1487 69.2743 12.9487C69.5271 12.7487 69.6788 12.4987 69.7799 12.1988C69.9822 11.5488 70.0327 10.8989 69.9822 10.249ZM67.6058 10.099C67.6058 10.7989 67.5046 11.2489 67.2518 11.3988C66.6451 11.5988 66.0384 11.6988 65.3811 11.6488V4.49958C65.8867 4.49958 66.3923 4.49958 66.8979 4.59957C67.1002 4.59957 67.3024 4.69956 67.4541 4.89954C67.5552 5.1995 67.6058 5.49947 67.5552 5.84943V10.099H67.6058Z" fill="#476574"/>
</svg>
