<svg width="435" height="411" viewBox="0 0 435 411" fill="none" xmlns="http://www.w3.org/2000/svg">
<path d="M96.8544 98.2171C92.8692 90.9616 95.5172 81.8393 102.786 77.8541C110.041 73.8689 119.164 76.5301 123.149 83.7856C127.134 91.0411 124.473 100.163 117.217 104.149C109.962 108.134 100.84 105.473 96.8544 98.2171Z" fill="#F94343"/>
<path d="M110.716 76C113.152 77.324 115.244 79.3365 116.674 81.9447C120.659 89.2002 117.998 98.3225 110.743 102.308C108.227 103.698 105.473 104.28 102.799 104.148C107.142 106.518 112.557 106.69 117.204 104.135C124.459 100.15 127.121 91.0273 123.135 83.7718C120.54 79.0319 115.747 76.2516 110.716 76Z" fill="#E53939"/>
<path d="M99.3969 98.6267C95.703 91.8744 98.1656 83.4141 104.905 79.7202C108.85 77.5621 113.378 77.4959 117.191 79.1773C113.087 76.675 107.778 76.3705 103.25 78.8596C96.5106 82.5535 94.048 91.027 97.7552 97.7661C99.291 100.573 101.648 102.625 104.375 103.817C102.349 102.585 100.615 100.838 99.3969 98.6267Z" fill="#F76363"/>
<path d="M116.9 85.2279C116.886 85.2147 116.886 85.2014 116.886 85.1882C115.615 82.8712 112.782 81.6796 110.266 83.0566C108.267 84.1555 107.896 86.2209 108.241 87.7832C107.102 86.6578 105.156 85.8502 103.17 86.9491C100.654 88.326 100.151 91.358 101.409 93.675C101.422 93.6882 101.422 93.7014 101.435 93.7147C101.7 94.231 104.52 99.3416 114.543 99.2622C119.984 90.8416 117.191 85.7178 116.9 85.2279Z" fill="white"/>
<path d="M403.996 293.385C407.818 286.99 416.107 284.898 422.508 288.73C428.903 292.552 430.985 300.846 427.163 307.241C423.341 313.636 415.047 315.719 408.652 311.897C402.257 308.075 400.174 299.78 403.996 293.385Z" fill="#F94343"/>
<path d="M427.555 294.045C427.635 296.539 427.024 299.079 425.649 301.376C421.827 307.771 413.532 309.853 407.137 306.031C404.913 304.71 403.208 302.837 402.095 300.699C402.229 305.15 404.559 309.433 408.657 311.88C415.052 315.702 423.347 313.619 427.169 307.224C429.669 303.053 429.648 298.067 427.555 294.045Z" fill="#E53939"/>
<path d="M404.834 295.546C408.398 289.606 416.088 287.67 422.022 291.224C425.493 293.306 427.603 296.792 428.032 300.518C428.108 296.193 425.93 291.931 421.938 289.547C416.004 285.994 408.303 287.935 404.756 293.879C403.275 296.349 402.753 299.112 403.068 301.772C403.103 299.639 403.671 297.497 404.834 295.546Z" fill="#F76363"/>
<path d="M423.201 303.044C423.205 303.028 423.215 303.022 423.226 303.016C424.447 300.975 424.083 298.232 421.87 296.905C420.107 295.852 418.335 296.504 417.278 297.482C417.634 296.086 417.376 294.207 415.619 293.164C413.406 291.837 410.822 292.826 409.595 294.856C409.591 294.872 409.581 294.878 409.576 294.895C409.296 295.335 406.61 299.85 411.23 307.597C420.244 307.993 422.953 303.493 423.201 303.044Z" fill="white"/>
<path d="M27.0995 320.086C28.1607 311.862 35.6644 306.064 43.8881 307.125C52.1119 308.186 57.9102 315.69 56.849 323.914C55.7879 332.138 48.2842 337.936 40.0605 336.875C31.8557 335.814 26.0384 328.31 27.0995 320.086Z" fill="#FFD05D"/>
<path d="M51.392 310.29C52.5858 312.791 53.0785 315.652 52.6995 318.608C51.6384 326.832 44.1347 332.63 35.9109 331.569C33.0497 331.209 30.4916 330.053 28.4072 328.367C30.5295 332.839 34.7929 336.174 40.0607 336.837C48.2844 337.898 55.7881 332.081 56.8493 323.876C57.5504 318.532 55.3144 313.454 51.392 310.29Z" fill="#FDC453"/>
<path d="M28.919 321.905C29.9044 314.269 36.8775 308.887 44.5139 309.873C48.9668 310.441 52.6618 313.075 54.7651 316.675C52.9081 312.222 48.7963 308.868 43.6801 308.205C36.0438 307.22 29.0706 312.62 28.0853 320.238C27.6874 323.402 28.3695 326.472 29.8665 329.03C28.9569 326.851 28.5969 324.425 28.919 321.905Z" fill="#FFD77F"/>
<path d="M38.5261 318.381C38.2418 317.282 37.3133 316.467 36.1954 316.315C35.0774 316.164 33.9973 316.713 33.4478 317.68C33.3341 317.869 33.372 318.097 33.5425 318.229C33.6941 318.381 33.9405 318.381 34.111 318.248C35.0395 317.547 36.4228 317.073 37.7681 318.76C37.8439 318.854 37.9576 318.911 38.0523 318.93C38.1471 318.949 38.2229 318.93 38.3176 318.892C38.4882 318.798 38.5829 318.589 38.5261 318.381Z" fill="#303030"/>
<path d="M51.3161 320.029C51.0319 318.93 50.1034 318.116 48.9854 317.964C47.8674 317.812 46.7874 318.362 46.2378 319.328C46.1241 319.518 46.162 319.745 46.3326 319.878C46.4842 320.029 46.7305 320.029 46.901 319.897C47.8295 319.196 49.2128 318.722 50.5581 320.408C50.6339 320.503 50.7476 320.56 50.8424 320.579C50.9371 320.598 51.0129 320.579 51.1077 320.541C51.2782 320.446 51.3729 320.238 51.3161 320.029Z" fill="#303030"/>
<path d="M34.9635 323.952V323.933C35.153 322.455 34.2624 320.958 32.6328 320.749C31.3632 320.56 30.4916 321.394 30.1316 322.227C29.98 321.337 29.3547 320.314 28.0851 320.143C26.4745 319.935 25.2238 321.166 25.0344 322.644V322.663C24.9775 322.985 24.5606 326.264 29.1841 329.599C34.5087 327.552 34.9256 324.274 34.9635 323.952Z" fill="#EE5181"/>
<path d="M40.9137 330.262C39.5683 330.091 38.6019 328.84 38.7724 327.495C38.8482 326.908 39.1325 326.377 39.5493 325.979C39.2272 325.487 39.0946 324.899 39.1704 324.312C39.3409 322.966 40.5915 322 41.9369 322.171C42.7517 322.284 43.4717 322.777 43.8318 323.535C43.9265 323.743 43.8507 323.99 43.6423 324.103C43.4338 324.198 43.1875 324.122 43.0738 323.914C42.8275 323.421 42.3727 323.08 41.8232 323.023C40.9326 322.91 40.1178 323.535 40.0041 324.425C39.9473 324.918 40.0989 325.411 40.4399 325.752C40.5347 325.847 40.5726 325.979 40.5536 326.093C40.5347 326.226 40.4589 326.339 40.3452 326.396C39.9283 326.661 39.6441 327.078 39.5872 327.571C39.4736 328.461 40.0989 329.276 40.9895 329.39C41.52 329.466 42.0506 329.257 42.4106 328.859C42.5622 328.689 42.8275 328.67 43.017 328.822C43.1875 328.973 43.2065 329.238 43.0549 329.428C42.5432 330.072 41.7285 330.375 40.9137 330.262Z" fill="#5E4939"/>
<g opacity="0.5">
<path d="M350.97 374.277C351.965 366.562 359.005 361.122 366.72 362.118C374.436 363.113 379.876 370.153 378.88 377.868C377.884 385.583 370.845 391.023 363.129 390.028C355.432 389.032 349.974 381.992 350.97 374.277Z" fill="#FFD05D"/>
<path d="M373.76 365.086C374.88 367.433 375.342 370.117 374.987 372.89C373.991 380.606 366.951 386.046 359.236 385.05C356.552 384.712 354.152 383.628 352.196 382.046C354.187 386.241 358.187 389.37 363.129 389.992C370.845 390.988 377.884 385.53 378.88 377.832C379.538 372.819 377.44 368.055 373.76 365.086Z" fill="#FDC453"/>
<path d="M352.677 375.984C353.601 368.82 360.143 363.771 367.308 364.696C371.485 365.229 374.952 367.7 376.925 371.078C375.183 366.9 371.325 363.754 366.525 363.131C359.361 362.207 352.819 367.273 351.895 374.42C351.521 377.389 352.161 380.269 353.566 382.669C352.713 380.624 352.375 378.349 352.677 375.984Z" fill="#FFD77F"/>
<path d="M361.69 372.677C361.423 371.646 360.552 370.882 359.503 370.74C358.454 370.597 357.441 371.113 356.925 372.02C356.819 372.197 356.854 372.411 357.014 372.535C357.156 372.677 357.387 372.677 357.547 372.553C358.419 371.895 359.716 371.451 360.978 373.033C361.05 373.122 361.156 373.175 361.245 373.193C361.334 373.211 361.405 373.193 361.494 373.157C361.654 373.068 361.743 372.873 361.69 372.677Z" fill="#303030"/>
<path d="M373.69 374.224C373.423 373.193 372.552 372.428 371.503 372.286C370.454 372.144 369.441 372.659 368.925 373.566C368.819 373.744 368.854 373.957 369.014 374.082C369.156 374.224 369.387 374.224 369.547 374.099C370.419 373.442 371.716 372.997 372.978 374.579C373.05 374.668 373.156 374.722 373.245 374.739C373.334 374.757 373.405 374.739 373.494 374.704C373.654 374.615 373.743 374.419 373.69 374.224Z" fill="#303030"/>
<path d="M358.348 377.904V377.886C358.525 376.499 357.69 375.095 356.161 374.9C354.97 374.722 354.152 375.504 353.814 376.286C353.672 375.451 353.085 374.491 351.894 374.331C350.383 374.135 349.21 375.291 349.032 376.677V376.695C348.979 376.997 348.588 380.073 352.925 383.201C357.921 381.282 358.312 378.206 358.348 377.904Z" fill="#EE5181"/>
<path d="M363.929 383.823C362.667 383.663 361.761 382.49 361.921 381.228C361.992 380.677 362.258 380.179 362.65 379.806C362.347 379.344 362.223 378.792 362.294 378.241C362.454 376.979 363.627 376.073 364.889 376.233C365.654 376.339 366.329 376.801 366.667 377.513C366.756 377.708 366.685 377.939 366.489 378.046C366.294 378.135 366.063 378.064 365.956 377.868C365.725 377.406 365.298 377.086 364.783 377.033C363.947 376.926 363.183 377.513 363.076 378.348C363.023 378.81 363.165 379.272 363.485 379.592C363.574 379.681 363.609 379.806 363.592 379.912C363.574 380.037 363.503 380.144 363.396 380.197C363.005 380.446 362.738 380.837 362.685 381.299C362.578 382.135 363.165 382.899 364.001 383.006C364.498 383.077 364.996 382.881 365.334 382.508C365.476 382.348 365.725 382.33 365.903 382.472C366.063 382.615 366.081 382.863 365.938 383.041C365.458 383.646 364.694 383.93 363.929 383.823Z" fill="#5E4939"/>
</g>
<g opacity="0.5">
<path d="M135.174 336.071C132.651 331.476 134.328 325.699 138.931 323.175C143.526 320.651 149.303 322.336 151.827 326.931C154.351 331.526 152.666 337.304 148.071 339.828C143.476 342.351 137.698 340.666 135.174 336.071Z" fill="#F94343"/>
<path d="M143.954 322C145.497 322.839 146.821 324.113 147.727 325.765C150.251 330.36 148.566 336.137 143.971 338.661C142.377 339.542 140.633 339.911 138.939 339.827C141.69 341.328 145.119 341.437 148.062 339.818C152.657 337.294 154.343 331.517 151.819 326.922C150.176 323.92 147.14 322.159 143.954 322Z" fill="#E53939"/>
<path d="M136.784 336.33C134.445 332.054 136.004 326.695 140.272 324.356C142.771 322.989 145.639 322.947 148.054 324.012C145.454 322.427 142.092 322.235 139.224 323.811C134.956 326.15 133.397 331.517 135.744 335.785C136.717 337.563 138.21 338.862 139.937 339.617C138.654 338.837 137.556 337.73 136.784 336.33Z" fill="#F76363"/>
<path d="M147.869 327.844C147.861 327.836 147.861 327.827 147.861 327.819C147.056 326.352 145.261 325.597 143.668 326.469C142.402 327.165 142.167 328.473 142.385 329.463C141.664 328.75 140.431 328.238 139.174 328.934C137.58 329.806 137.262 331.727 138.058 333.194C138.067 333.202 138.067 333.211 138.075 333.219C138.243 333.546 140.029 336.783 146.376 336.732C149.823 331.4 148.053 328.154 147.869 327.844Z" fill="white"/>
</g>
<g opacity="0.6">
<path d="M217.267 9.94207C218.677 3.18953 225.296 -1.14403 232.058 0.26618C238.811 1.67639 243.144 8.29511 241.734 15.0579C240.324 21.8105 233.705 26.144 226.943 24.7338C220.18 23.3133 215.856 16.6946 217.267 9.94207Z" fill="#FFD05D"/>
<path d="M238.08 3.39539C238.904 5.54673 239.13 7.9554 238.626 10.3847C237.216 17.1372 230.597 21.4708 223.834 20.0606C221.487 19.5665 219.439 18.4548 217.812 16.921C219.274 20.7708 222.609 23.8177 226.943 24.7235C233.695 26.1337 240.314 21.8002 241.735 15.0476C242.651 10.6317 241.127 6.27756 238.08 3.39539Z" fill="#FDC453"/>
<path d="M218.656 11.5788C219.963 5.31002 226.119 1.28527 232.387 2.60283C236.052 3.36455 238.944 5.78352 240.457 8.92304C239.212 5.10415 236.011 2.04699 231.801 1.17204C225.532 -0.155823 219.387 3.86893 218.079 10.1377C217.534 12.7419 217.915 15.3256 218.985 17.549C218.368 15.6859 218.224 13.6375 218.656 11.5788Z" fill="#FFD77F"/>
<path d="M224.101 13.2977C223.854 12.9272 223.278 13.1639 223.35 13.5962C223.782 16.0461 225.656 18.1048 228.239 18.64C230.782 19.1753 233.273 18.0842 234.662 16.077C234.92 15.7064 234.477 15.2535 234.107 15.5005C231.955 16.8696 227.632 18.5371 224.101 13.2977Z" fill="#5E4939"/>
<path d="M226.706 10.0861C226.541 9.14942 225.831 8.41858 224.905 8.22301C223.989 8.02743 223.062 8.40829 222.527 9.17001C222.424 9.31412 222.444 9.50969 222.568 9.64351C222.692 9.77732 222.887 9.79791 223.031 9.70527C223.844 9.1906 225.028 8.88179 226.037 10.3743C226.088 10.4567 226.181 10.5082 226.274 10.5288C226.346 10.539 226.418 10.539 226.49 10.5082C226.644 10.4258 226.737 10.2611 226.706 10.0861Z" fill="#303030"/>
<path d="M237.216 12.2788C237.051 11.342 236.341 10.6112 235.414 10.4156C234.498 10.2201 233.572 10.6009 233.037 11.3626C232.934 11.5067 232.954 11.7023 233.078 11.8361C233.201 11.97 233.397 11.9905 233.541 11.8979C234.354 11.3832 235.538 11.0744 236.547 12.567C236.598 12.6493 236.691 12.7008 236.783 12.7214C236.855 12.7317 236.928 12.7317 237 12.7008C237.154 12.6287 237.247 12.4537 237.216 12.2788Z" fill="#303030"/>
<path d="M222.269 12.8551C222.022 14.0388 220.869 14.7903 219.685 14.5432C218.502 14.3065 217.75 13.1433 217.997 11.9699C218.244 10.7861 219.397 10.0347 220.581 10.2817C221.765 10.5288 222.506 11.6816 222.269 12.8551Z" fill="#F5A6AC"/>
<path d="M240.252 16.6226C240.005 17.8063 238.852 18.5578 237.669 18.3107C236.485 18.0637 235.734 16.9108 235.981 15.7271C236.228 14.5433 237.38 13.7919 238.564 14.0389C239.748 14.286 240.499 15.4388 240.252 16.6226Z" fill="#F5A6AC"/>
</g>
<path d="M374.483 82.2363C376.559 74.2281 384.755 69.4064 392.764 71.4819C400.772 73.5573 405.594 81.7542 403.518 89.7624C401.443 97.7706 393.246 102.592 385.238 100.496C377.208 98.4414 372.408 90.2445 374.483 82.2363Z" fill="#FFCB27"/>
<path d="M399.807 75.5908C400.667 78.2323 400.813 81.1253 400.059 83.9973C397.983 92.0055 389.786 96.8272 381.778 94.7518C378.99 94.0181 376.6 92.5716 374.734 90.6429C376.265 95.3388 380.08 99.1752 385.216 100.517C393.225 102.592 401.421 97.7916 403.497 89.7624C404.88 84.5214 403.308 79.2176 399.807 75.5908Z" fill="#F9C021"/>
<path d="M376.056 84.2696C377.984 76.8275 385.594 72.3622 393.036 74.2908C397.397 75.4229 400.709 78.4836 402.344 82.32C401.066 77.666 397.418 73.8296 392.408 72.5299C384.965 70.6012 377.355 75.0665 375.427 82.5087C374.651 85.6113 374.945 88.7349 376.098 91.4602C375.49 89.1752 375.427 86.7224 376.056 84.2696Z" fill="#FFD95F"/>
<path d="M398.613 86.0934C398.592 85.8209 398.424 85.5903 398.194 85.4854L392.953 83.2842L391.8 77.7288C391.737 77.4563 391.548 77.2676 391.297 77.1838C391.045 77.1209 390.773 77.2047 390.584 77.4144L386.873 81.691L381.234 81.0621C380.961 81.0411 380.71 81.1459 380.563 81.3765C380.416 81.6071 380.416 81.8797 380.563 82.1103L383.498 86.9739L381.15 92.1729C381.045 92.4245 381.087 92.697 381.255 92.9067C381.423 93.1163 381.695 93.2002 381.968 93.1373L387.502 91.8375L391.695 95.6529C391.779 95.7368 391.884 95.7787 391.988 95.8206C392.135 95.8626 392.282 95.8416 392.429 95.7997C392.68 95.6949 392.848 95.4643 392.869 95.2127L393.351 89.5524L398.278 86.7433C398.487 86.5965 398.634 86.345 398.613 86.0934Z" fill="white"/>
<path d="M217.579 219.768C214.952 209.046 221.51 198.209 232.231 195.581C242.952 192.953 253.79 199.488 256.418 210.232C259.046 220.954 252.511 231.791 241.766 234.419C231.045 237.047 220.207 230.512 217.579 219.768Z" fill="#4A85D3"/>
<path d="M243.092 195.93C245.767 198.465 247.767 201.791 248.72 205.628C251.348 216.349 244.813 227.187 234.069 229.815C230.348 230.722 226.603 230.536 223.208 229.443C227.976 233.978 234.906 236.071 241.767 234.373C252.488 231.745 259.046 220.907 256.418 210.186C254.697 203.209 249.488 197.977 243.092 195.93Z" fill="#407EC1"/>
<path d="M220.72 221.187C218.278 211.21 224.371 201.163 234.325 198.721C240.139 197.279 245.999 198.767 250.348 202.256C245.906 197.628 239.185 195.418 232.487 197.046C222.534 199.488 216.44 209.558 218.882 219.512C219.906 223.652 222.231 227.117 225.324 229.582C223.161 227.303 221.534 224.442 220.72 221.187Z" fill="#5B9ADD"/>
<path d="M247.068 207.651L243.975 208.418L242.72 208.72L240.324 209.302C240.161 209.348 239.975 209.209 239.998 209.046C240.045 208 239.789 206.953 239.557 205.953C239.417 205.395 239.301 204.767 239.091 204.185C238.882 203.581 238.58 203.046 238.115 202.651C237.58 202.232 236.905 201.999 236.231 202.162C234.696 202.534 234.812 204.116 234.975 205.372C235.161 206.837 235.463 208.325 235.138 209.79C234.929 210.814 234.487 211.767 233.603 212.395C232.929 212.883 232.417 213.255 231.673 213.604C231.556 213.651 231.487 213.79 231.533 213.907L233.975 223.884C234.022 224.023 234.161 224.116 234.301 224.07L237.068 223.395C237.161 223.372 237.231 223.395 237.301 223.442C238.022 224.047 238.998 224.302 239.998 224.047L244.278 223L247.394 222.233L248.627 221.93C249.883 221.628 250.673 220.325 250.348 219.07C250.278 218.744 250.115 218.465 249.906 218.209C249.813 218.116 249.813 217.977 249.906 217.884C250.278 217.395 250.371 216.465 250.208 215.837L250.138 215.581C250.069 215.256 249.906 214.976 249.696 214.721C249.627 214.628 249.603 214.488 249.696 214.395C250.069 213.907 250.231 213.255 250.069 212.628L249.999 212.372C249.929 212.046 249.766 211.767 249.557 211.511C249.464 211.418 249.464 211.279 249.557 211.186C249.929 210.697 250.092 210.046 249.929 209.418C249.603 208.116 248.324 207.348 247.068 207.651Z" fill="white"/>
<path d="M232.231 225.651L228.161 226.652C227.813 226.745 227.464 226.535 227.394 226.186L224.603 214.814C224.51 214.465 224.719 214.116 225.068 214.023L229.138 213.023C229.487 212.93 229.836 213.139 229.906 213.488L232.696 224.861C232.789 225.233 232.58 225.582 232.231 225.651Z" fill="white"/>
<path d="M174.333 402.241C172.822 396.077 176.593 389.845 182.758 388.334C188.923 386.823 195.154 390.581 196.665 396.759C198.176 402.923 194.419 409.155 188.241 410.666C182.076 412.177 175.844 408.419 174.333 402.241Z" fill="#4A85D3"/>
<path d="M189.003 388.535C190.541 389.992 191.691 391.905 192.239 394.111C193.75 400.276 189.992 406.507 183.814 408.018C181.675 408.54 179.522 408.433 177.569 407.804C180.311 410.412 184.296 411.616 188.241 410.639C194.405 409.128 198.176 402.897 196.665 396.732C195.676 392.72 192.68 389.711 189.003 388.535Z" fill="#407EC1"/>
<path d="M176.139 403.057C174.734 397.32 178.238 391.543 183.961 390.139C187.305 389.31 190.674 390.166 193.175 392.172C190.621 389.511 186.756 388.24 182.905 389.176C177.182 390.581 173.678 396.371 175.082 402.094C175.671 404.475 177.008 406.467 178.786 407.885C177.543 406.574 176.607 404.929 176.139 403.057Z" fill="#5B9ADD"/>
<path d="M191.29 395.274L189.511 395.716L188.789 395.889L187.412 396.224C187.318 396.251 187.211 396.17 187.225 396.077C187.251 395.475 187.104 394.873 186.971 394.298C186.89 393.977 186.823 393.616 186.703 393.282C186.583 392.934 186.409 392.627 186.141 392.399C185.834 392.159 185.446 392.025 185.058 392.118C184.176 392.332 184.243 393.242 184.336 393.964C184.443 394.806 184.617 395.662 184.43 396.505C184.309 397.093 184.055 397.641 183.547 398.002C183.159 398.283 182.865 398.497 182.437 398.698C182.37 398.724 182.33 398.805 182.357 398.872L183.761 404.608C183.788 404.689 183.868 404.742 183.948 404.715L185.54 404.328C185.593 404.314 185.633 404.328 185.673 404.354C186.088 404.702 186.65 404.849 187.225 404.702L189.685 404.1L191.477 403.659L192.186 403.485C192.908 403.311 193.363 402.562 193.175 401.84C193.135 401.653 193.042 401.493 192.921 401.345C192.868 401.292 192.868 401.212 192.921 401.158C193.135 400.877 193.189 400.343 193.095 399.981L193.055 399.834C193.015 399.647 192.921 399.487 192.801 399.34C192.761 399.286 192.747 399.206 192.801 399.152C193.015 398.872 193.108 398.497 193.015 398.136L192.975 397.989C192.935 397.802 192.841 397.641 192.721 397.494C192.667 397.441 192.667 397.36 192.721 397.307C192.935 397.026 193.028 396.652 192.935 396.291C192.747 395.542 192.012 395.101 191.29 395.274Z" fill="white"/>
<path d="M182.758 405.625L180.418 406.2C180.217 406.253 180.017 406.133 179.977 405.932L178.372 399.393C178.319 399.192 178.439 398.992 178.64 398.938L180.98 398.363C181.18 398.31 181.381 398.43 181.421 398.631L183.026 405.17C183.079 405.384 182.959 405.584 182.758 405.625Z" fill="white"/>
<g opacity="0.5">
<path d="M0.266618 141.942C1.67683 135.19 8.29555 130.856 15.0584 132.266C21.8109 133.676 26.1445 140.295 24.7343 147.058C23.3241 153.81 16.7053 158.144 9.9425 156.734C3.17968 155.313 -1.14359 148.695 0.266618 141.942Z" fill="#FFD05D"/>
<path d="M21.0804 135.395C21.9039 137.547 22.1303 139.955 21.6259 142.385C20.2157 149.137 13.597 153.471 6.8342 152.061C4.48728 151.566 2.43887 150.455 0.8125 148.921C2.27418 152.771 5.60927 155.818 9.94283 156.724C16.6954 158.134 23.3141 153.8 24.7346 147.048C25.6507 142.632 24.1273 138.278 21.0804 135.395Z" fill="#FDC453"/>
<path d="M1.65583 143.579C2.96311 137.31 9.11862 133.285 15.3874 134.603C19.0518 135.365 21.9443 137.784 23.4575 140.923C22.2119 137.104 19.0107 134.047 14.8006 133.172C8.53189 131.844 2.38667 135.869 1.0794 142.138C0.533842 144.742 0.914702 147.326 1.98523 149.549C1.36762 147.686 1.22351 145.637 1.65583 143.579Z" fill="#FFD77F"/>
<path d="M7.10136 145.298C6.85431 144.927 6.27788 145.164 6.34993 145.596C6.78226 148.046 8.65568 150.105 11.2393 150.64C13.7818 151.175 16.2729 150.084 17.6625 148.077C17.9198 147.706 17.4772 147.253 17.1066 147.501C14.9553 148.87 10.632 150.537 7.10136 145.298Z" fill="#5E4939"/>
<path d="M9.706 142.086C9.54131 141.149 8.83106 140.419 7.90464 140.223C6.98852 140.027 6.06211 140.408 5.52684 141.17C5.42391 141.314 5.4445 141.51 5.56802 141.644C5.69154 141.777 5.88712 141.798 6.03123 141.705C6.84441 141.191 8.02816 140.882 9.03693 142.374C9.08839 142.457 9.18104 142.508 9.27368 142.529C9.34573 142.539 9.41779 142.539 9.48984 142.508C9.64424 142.426 9.73688 142.261 9.706 142.086Z" fill="#303030"/>
<path d="M20.2158 144.279C20.0511 143.342 19.3408 142.611 18.4144 142.416C17.4983 142.22 16.5719 142.601 16.0366 143.363C15.9337 143.507 15.9543 143.702 16.0778 143.836C16.2013 143.97 16.3969 143.991 16.541 143.898C17.3542 143.383 18.5379 143.074 19.5467 144.567C19.5982 144.649 19.6908 144.701 19.7834 144.721C19.8555 144.732 19.9276 144.732 19.9996 144.701C20.154 144.629 20.2466 144.454 20.2158 144.279Z" fill="#303030"/>
<path d="M5.26897 144.855C5.02193 146.039 3.86906 146.79 2.6853 146.543C1.50155 146.306 0.750127 145.143 0.997171 143.97C1.24422 142.786 2.39709 142.035 3.58084 142.282C4.76459 142.529 5.50572 143.682 5.26897 144.855Z" fill="#F5A6AC"/>
<path d="M23.2524 148.623C23.0053 149.806 21.8525 150.558 20.6687 150.311C19.485 150.064 18.7335 148.911 18.9806 147.727C19.2276 146.543 20.3805 145.792 21.5642 146.039C22.748 146.286 23.4994 147.439 23.2524 148.623Z" fill="#F5A6AC"/>
</g>
</svg>
