<svg width="77" height="14" viewBox="0 0 77 14" fill="none" xmlns="http://www.w3.org/2000/svg">
<path d="M23.6621 4.34111C23.6621 3.74365 23.8115 3.14619 24.0106 2.59852C24.2098 2.10064 24.5085 1.60276 24.9566 1.20445C25.4047 0.806149 25.9026 0.507421 26.5 0.358056C27.1473 0.109116 27.8443 0.00953949 28.5413 0.00953949C29.3379 -0.0402486 30.0848 0.109116 30.8316 0.358056C31.3295 0.557209 31.8273 0.855938 32.2754 1.20445C32.5742 1.50318 32.8231 1.8517 33.0223 2.25C33.1716 2.54873 33.2214 2.84746 33.2712 3.14619C33.2712 3.29556 33.2214 3.34534 33.1218 3.44492C33.0223 3.5445 32.9227 3.59428 32.8231 3.59428H31.5286C31.429 3.59428 31.3295 3.5445 31.2299 3.49471C31.1801 3.44492 31.0805 3.34534 31.0805 3.34534C31.0805 3.34534 30.9809 3.19598 30.9312 3.0964C30.7818 2.94704 30.6822 2.79767 30.4831 2.64831C30.2839 2.49895 29.9852 2.29979 29.7362 2.20022C29.3379 2.05085 28.9396 2.05085 28.5413 2.05085C27.8443 1.95128 27.1473 2.20022 26.6494 2.64831C26.1515 3.0964 25.8528 3.74365 25.8528 4.39089C25.8528 4.7892 25.803 5.23729 25.803 5.68538C25.803 6.13348 25.803 6.58157 25.8528 6.97988C25.803 7.7267 26.1017 8.42373 26.6494 8.87182C27.197 9.31992 27.8443 9.51907 28.5413 9.46928C28.8898 9.46928 29.2881 9.41949 29.6367 9.31992C29.9354 9.22034 30.2341 9.12076 30.4831 8.87182C30.732 8.72246 30.9312 8.42373 31.0307 8.125C31.1801 7.77648 31.2299 7.32839 31.2299 6.93009V6.97988H29.0392C28.8898 6.97988 28.8401 6.93009 28.7405 6.83051C28.6409 6.73094 28.5911 6.68115 28.5911 6.53178V5.33687C28.5911 5.1875 28.6409 5.13772 28.7405 5.03814C28.8401 4.93856 28.8898 4.88877 29.0392 4.88877H32.9725C33.1218 4.88877 33.1716 4.93856 33.2712 5.03814C33.3708 5.13772 33.4206 5.1875 33.4206 5.33687V7.12924C33.4206 7.7267 33.321 8.32415 33.1218 8.92161C32.9227 9.41949 32.624 9.91737 32.2256 10.3157C31.7776 10.714 31.2797 11.0625 30.6822 11.2119C29.2882 11.66 27.7945 11.66 26.4004 11.2119C25.8528 11.0625 25.3549 10.714 24.9068 10.3157C24.5085 9.91737 24.2098 9.46928 24.0106 8.92161C23.8115 8.37394 23.6621 7.7267 23.6123 7.12924C23.6123 6.93009 23.6123 6.68115 23.6123 6.48199C23.6123 6.23305 23.6123 5.98411 23.6123 5.73517C23.6123 5.48623 23.6123 5.23729 23.6123 4.98835C23.6123 4.73941 23.6621 4.54026 23.6621 4.34111Z" fill="#444A51"/>
<path d="M34.1172 7.2289C34.1172 6.68124 34.2168 6.08378 34.3661 5.53611C34.5155 5.03823 34.8142 4.59013 35.1627 4.14204C35.5113 3.74374 35.9594 3.44501 36.4074 3.24586C36.9053 3.0467 37.5028 2.89734 38.0007 2.89734C38.5483 2.89734 39.1458 2.99691 39.5939 3.24586C40.0918 3.44501 40.4901 3.74374 40.8386 4.09225C41.1871 4.49056 41.436 4.93865 41.6352 5.38674C41.7846 5.88463 41.9339 6.43229 41.9339 6.93018V7.677C41.9339 7.92594 41.7846 8.12509 41.4858 8.12509H36.2083C36.2083 8.32424 36.2581 8.57318 36.3577 8.77234C36.4572 8.9217 36.6066 9.12085 36.756 9.27022C36.9053 9.41958 37.1543 9.46937 37.3534 9.56895C37.5526 9.61873 37.8015 9.66852 38.0504 9.66852C38.2994 9.66852 38.5981 9.61873 38.8968 9.56895C39.0462 9.51916 39.2454 9.41958 39.3947 9.32001C39.4943 9.22043 39.5441 9.17064 39.6935 9.17064C39.793 9.12085 39.8926 9.12085 39.9922 9.12085H41.2867C41.436 9.12085 41.4858 9.17064 41.5854 9.27022C41.685 9.36979 41.7348 9.41958 41.7348 9.56895C41.685 9.7681 41.5854 9.96725 41.4858 10.1166C41.3365 10.3656 41.0377 10.6145 40.7888 10.8136C40.4403 11.0626 40.042 11.2617 39.6437 11.4111C39.1458 11.5605 38.5981 11.66 38.1002 11.6103C37.5526 11.6103 36.9551 11.5107 36.507 11.3115C36.0091 11.1622 35.6108 10.8136 35.3121 10.4651C34.9636 10.0668 34.7146 9.61873 34.5155 9.12085C34.2168 8.47361 34.1172 7.82636 34.1172 7.2289ZM38.0504 4.83908C37.8015 4.83908 37.5526 4.88886 37.2538 4.98844C37.0547 5.08802 36.8555 5.18759 36.7062 5.33696C36.5568 5.48632 36.4572 5.63568 36.3577 5.83484C36.2581 5.9842 36.2083 6.18335 36.2083 6.33272H39.8428C39.8428 6.18335 39.793 5.9842 39.7432 5.83484C39.6935 5.68547 39.5939 5.48632 39.4445 5.33696C39.2952 5.18759 39.096 5.08802 38.9466 4.98844C38.6479 4.83908 38.3492 4.78929 38.0504 4.83908Z" fill="#444A51"/>
<path d="M45.3192 8.37406C45.3192 8.67279 45.4188 8.92173 45.5682 9.17067C45.8171 9.36982 46.2154 9.51918 46.564 9.4694H47.5099C47.7589 9.4694 47.958 9.61876 47.958 9.91749V10.963C47.958 11.1124 47.9082 11.1622 47.8087 11.2618C47.7091 11.3613 47.6593 11.4111 47.5099 11.4111H46.315C45.4686 11.4609 44.672 11.212 44.0248 10.6643C43.4771 10.0669 43.1784 9.27024 43.1784 8.42385V4.98847H42.5809C42.4315 4.98847 42.3818 4.93868 42.2822 4.8391C42.1826 4.73952 42.1328 4.68974 42.1328 4.54037V3.49482C42.1328 3.24588 42.2822 3.04673 42.5809 3.04673H43.2281V0.856052C43.2281 0.706688 43.2779 0.6569 43.3775 0.557323C43.4771 0.457747 43.5269 0.407959 43.6762 0.407959H44.8712C45.1201 0.407959 45.3192 0.557323 45.3192 0.856052V3.09652H47.4104C47.5597 3.09652 47.6095 3.14631 47.7091 3.24588C47.8087 3.34546 47.8584 3.39525 47.8584 3.54461V4.59016C47.8584 4.73952 47.8087 4.78931 47.7091 4.88889C47.6095 4.98847 47.5597 5.03825 47.4104 5.03825H45.3192V8.37406Z" fill="#444A51"/>
<path d="M54.6796 0.607056C54.829 0.607056 54.9285 0.656844 55.0779 0.75642C55.1775 0.905784 55.2273 1.00536 55.277 1.15473L59.1107 10.9132C59.1107 10.963 59.1107 11.0128 59.1107 11.0128C59.1107 11.2617 58.9614 11.4609 58.6626 11.4609H57.5175C57.3681 11.4609 57.2188 11.4111 57.0694 11.3115C56.9698 11.2119 56.9201 11.1621 56.9201 11.0626L56.2728 9.31998H51.3438L50.6965 11.0626C50.6467 11.1621 50.597 11.2119 50.5472 11.3115C50.3978 11.4111 50.2982 11.4609 50.0991 11.4609H48.954C48.8046 11.4609 48.7548 11.4111 48.6552 11.3115C48.5556 11.2119 48.5059 11.1621 48.5059 11.0128C48.5059 10.963 48.5059 10.9132 48.5059 10.9132L52.3395 1.15473C52.3893 1.00536 52.4889 0.855996 52.5387 0.75642C52.6383 0.656844 52.7379 0.607056 52.937 0.607056H54.6796ZM55.526 7.32845L53.7834 2.89731L52.0906 7.32845H55.526Z" fill="#444A51"/>
<path d="M64.3384 11.5605C64.0396 11.5605 63.7907 11.5107 63.492 11.4609C63.2928 11.4111 62.9941 11.3115 62.7949 11.2617C62.6456 11.1622 62.4464 11.1124 62.297 10.963C62.1477 10.8634 62.0979 10.7639 61.9485 10.6643V13.552C61.9485 13.8009 61.7992 14.0001 61.5004 14.0001H60.3055C60.1562 14.0001 60.1064 13.9503 60.0068 13.8507C59.9072 13.7511 59.8574 13.7014 59.8574 13.552V3.4948C59.8574 3.34543 59.9072 3.29564 60.0068 3.19607C60.1064 3.09649 60.1562 3.0467 60.3055 3.0467H61.5004C61.6498 3.0467 61.6996 3.09649 61.7992 3.19607C61.8987 3.29564 61.9485 3.34543 61.9485 3.4948V3.84331C62.0481 3.69395 62.1477 3.64416 62.297 3.54458C62.4464 3.39522 62.5958 3.34543 62.7949 3.24586C62.9941 3.14628 63.243 3.09649 63.492 2.99692C63.7907 2.94713 64.0396 2.89734 64.3384 2.89734C64.8362 2.89734 65.3341 2.99691 65.7822 3.19607C66.2303 3.39522 66.5788 3.69395 66.8775 4.04247C67.1763 4.39098 67.4252 4.78929 67.6244 5.23738C67.8235 5.68547 67.8733 6.13357 67.9231 6.68124C67.9231 6.8306 67.9231 7.02975 67.9231 7.22891C67.9231 7.42806 67.9231 7.62721 67.9231 7.77657C67.9231 8.27446 67.7737 8.72255 67.6244 9.22043C67.475 9.66852 67.2261 10.0668 66.8775 10.4153C66.5788 10.7639 66.1805 11.0626 65.7822 11.2617C65.3341 11.4609 64.8362 11.5605 64.3384 11.5605ZM65.832 7.677C65.8818 7.37827 65.8818 7.07954 65.832 6.78081C65.832 6.23314 65.6328 5.68547 65.1848 5.28717C64.8362 4.98844 64.3384 4.83908 63.8903 4.83908C63.4422 4.83908 62.9443 4.98844 62.546 5.33696C62.1477 5.68547 61.9485 6.18335 61.9485 6.68124C61.8987 6.88039 61.8987 7.07954 61.8987 7.27869C61.8987 7.47785 61.8987 7.677 61.9485 7.87615C61.9983 8.9217 62.8447 9.71831 63.8903 9.66852C64.3881 9.66852 64.8362 9.51916 65.1848 9.22043C65.5831 8.82212 65.832 8.22467 65.832 7.677Z" fill="#444A51"/>
<path d="M73.3002 11.5605C73.0015 11.5605 72.7028 11.5107 72.4041 11.4609C72.2049 11.4111 71.9062 11.3115 71.707 11.2617C71.5577 11.1622 71.3585 11.1124 71.2091 10.963C71.0598 10.8634 71.01 10.7639 70.8606 10.6643V13.552C70.8606 13.7014 70.8108 13.7511 70.7113 13.8507C70.6117 13.9503 70.5619 14.0001 70.4125 14.0001H69.2176C68.9687 14.0001 68.7695 13.8507 68.7695 13.552V3.4948C68.7695 3.24586 68.9189 3.0467 69.2176 3.0467H70.4125C70.5619 3.0467 70.6117 3.09649 70.7113 3.19607C70.8108 3.29564 70.8606 3.34543 70.8606 3.4948V3.84331C70.9602 3.69395 71.0598 3.64416 71.2091 3.54458C71.3585 3.39522 71.5079 3.34543 71.707 3.24586C71.9062 3.14628 72.1551 3.09649 72.4041 2.99692C72.7028 2.89734 73.0015 2.89734 73.3002 2.89734C73.7981 2.89734 74.296 2.99691 74.7441 3.19607C75.1922 3.39522 75.5407 3.69395 75.8394 4.04247C76.1382 4.39098 76.3871 4.78929 76.5863 5.23738C76.7854 5.68547 76.8352 6.13357 76.885 6.68124C76.885 6.8306 76.885 7.02975 76.885 7.22891C76.885 7.42806 76.885 7.62721 76.885 7.77657C76.885 8.27446 76.7356 8.72255 76.5863 9.22043C76.4369 9.66852 76.188 10.0668 75.8394 10.4153C75.5407 10.7639 75.1424 11.0626 74.7441 11.2617C74.296 11.4609 73.7981 11.5605 73.3002 11.5605ZM74.7939 7.677C74.8437 7.37827 74.8437 7.07954 74.7939 6.78081C74.7939 6.23314 74.5947 5.68547 74.1466 5.28717C73.7483 4.98844 73.3002 4.83908 72.8024 4.83908C72.3045 4.83908 71.8564 4.98844 71.5079 5.33696C71.1096 5.68547 70.9104 6.18335 70.9104 6.68124C70.8606 6.88039 70.8606 7.07954 70.8606 7.27869C70.8606 7.47785 70.8606 7.677 70.9104 7.87615C70.9602 8.37403 71.1594 8.82212 71.5079 9.17064C71.8564 9.46937 72.3543 9.66852 72.8024 9.66852C73.2505 9.66852 73.7483 9.51916 74.1466 9.17064C74.4952 8.82212 74.7939 8.22467 74.7939 7.677Z" fill="#444A51"/>
<path d="M19.8775 5.78504L14.5004 0.407922C14.351 0.258557 14.0523 0.258557 13.9029 0.407922L12.8574 1.45347L17.189 5.78504C17.3383 5.9344 17.3383 6.23313 17.2387 6.3825C17.2387 6.3825 17.2387 6.3825 17.189 6.43228L12.7578 10.8136L13.8034 11.8592C13.9527 12.0086 14.2515 12.0086 14.4008 11.909C14.4008 11.909 14.4008 11.909 14.4506 11.8592L19.9273 6.3825C20.0269 6.23313 20.0269 5.9344 19.8775 5.78504Z" fill="#2CB5B4"/>
<path d="M10.7669 0.806066L10.3686 0.407761C10.2192 0.258396 9.92048 0.258397 9.77112 0.357973C9.77112 0.357973 9.77112 0.357973 9.72133 0.407761L8.67578 1.45331L9.37281 2.15035L10.7171 3.49462L12.0614 2.15035L10.7669 0.806066Z" fill="#8CBF44"/>
<path d="M10.6673 8.72241L9.32301 10.0667L8.62598 10.7637L9.67153 11.8093C9.82089 11.9586 10.1196 11.9586 10.269 11.8093L10.6673 11.411L12.0116 10.0667L10.6673 8.72241Z" fill="#8CBF44"/>
<path d="M13.007 5.78505C13.1564 5.93441 13.1564 6.28293 13.007 6.43229L10.667 8.72254L12.0113 10.0668L15.6956 6.3825C15.845 6.23314 15.845 5.88462 15.6956 5.73526L12.1108 2.15051L10.7666 3.49479L13.007 5.78505Z" fill="#B8CE2C"/>
<path d="M4.24444 5.88461L7.97855 2.15051L6.58448 0.756439L6.23596 0.407922C6.0866 0.258557 5.73808 0.258557 5.58872 0.407922L0.112023 5.88461C-0.0373411 6.03398 -0.0373411 6.33271 0.112023 6.48207L5.43935 11.8094C5.58872 11.9588 5.88744 11.9588 6.03681 11.8094L6.43511 11.4111L7.77939 10.0668L4.19465 6.48207C3.9955 6.33271 3.89592 6.13355 4.04528 5.9344C4.14486 5.88461 4.19465 5.88461 4.24444 5.88461Z" fill="#87EFEF"/>
<path d="M8.42705 5.88462L10.0701 4.24161L8.676 2.89733L7.97896 2.15051L4.29464 5.83483C4.14528 5.9842 4.14528 6.28293 4.29464 6.43229L7.87938 10.017L8.57642 9.32L9.9207 7.97572L8.42705 6.48208C8.2279 6.3825 8.2279 6.08377 8.42705 5.88462Z" fill="#8CBF44"/>
<path d="M8.42671 6.4819L9.97014 8.02534L11.6131 6.38233C11.7625 6.23296 11.7625 5.88445 11.6131 5.73508L10.0697 4.19165L8.42671 5.88445C8.22756 6.0836 8.22756 6.33254 8.42671 6.4819Z" fill="#B8CE2C"/>
<path d="M10.7669 0.806066L10.3686 0.407761C10.2192 0.258396 9.92048 0.258397 9.77112 0.357973C9.77112 0.357973 9.77112 0.357973 9.72133 0.407761L8.67578 1.45331L9.37281 2.15035L10.7171 3.49462L12.0614 2.15035L10.7669 0.806066Z" fill="#41E3E2"/>
<path d="M10.6673 8.72241L9.32301 10.0667L8.62598 10.7637L9.67153 11.8093C9.82089 11.9586 10.1196 11.9586 10.269 11.8093L10.6673 11.411L12.0116 10.0667L10.6673 8.72241Z" fill="#41E3E2"/>
<path d="M13.007 5.78505C13.1564 5.93441 13.1564 6.28293 13.007 6.43229L10.667 8.72254L12.0113 10.0668L15.6956 6.3825C15.845 6.23314 15.845 5.88462 15.6956 5.73526L12.1108 2.15051L10.7666 3.49479L13.007 5.78505Z" fill="#4FBCC1"/>
<path d="M4.24444 5.88461L7.97855 2.15051L6.58448 0.756439L6.23596 0.407922C6.0866 0.258557 5.73808 0.258557 5.58872 0.407922L0.112023 5.88461C-0.0373411 6.03398 -0.0373411 6.33271 0.112023 6.48207L5.43935 11.8094C5.58872 11.9588 5.88744 11.9588 6.03681 11.8094L6.43511 11.4111L7.77939 10.0668L4.19465 6.48207C3.9955 6.33271 3.89592 6.13355 4.04528 5.9344C4.14486 5.88461 4.19465 5.88461 4.24444 5.88461Z" fill="#87EFEF"/>
<path d="M8.42705 5.88462L10.0701 4.24161L8.676 2.89733L7.97896 2.15051L4.29464 5.83483C4.14528 5.9842 4.14528 6.28293 4.29464 6.43229L7.87938 10.017L8.57642 9.32L9.9207 7.97572L8.42705 6.48208C8.2279 6.3825 8.2279 6.08377 8.42705 5.88462Z" fill="#41E3E2"/>
<path d="M8.42671 6.4819L9.97014 8.02534L11.6131 6.38233C11.7625 6.23296 11.7625 5.88445 11.6131 5.73508L10.0697 4.19165L8.42671 5.88445C8.22756 6.0836 8.22756 6.33254 8.42671 6.4819Z" fill="#4FBCC1"/>
</svg>
