<svg width="175" height="70" viewBox="0 0 175 70" fill="none" xmlns="http://www.w3.org/2000/svg">
<rect y="10" width="175" height="50" rx="25" fill="#22D5A7"/>
<path d="M18.13 45V24H21.31V33H31.48V24H34.66V45H31.48V35.61H21.31V45H18.13ZM45.7708 45.36C44.3108 45.36 43.0108 45.04 41.8708 44.4C40.7508 43.74 39.8708 42.83 39.2308 41.67C38.5908 40.51 38.2708 39.16 38.2708 37.62C38.2708 36.06 38.5808 34.69 39.2008 33.51C39.8408 32.33 40.7208 31.41 41.8408 30.75C42.9808 30.09 44.3008 29.76 45.8008 29.76C47.2608 29.76 48.5308 30.09 49.6108 30.75C50.6908 31.39 51.5308 32.25 52.1308 33.33C52.7308 34.41 53.0308 35.6 53.0308 36.9C53.0308 37.1 53.0208 37.32 53.0008 37.56C53.0008 37.78 52.9908 38.03 52.9708 38.31H41.3908C41.4908 39.75 41.9608 40.85 42.8008 41.61C43.6608 42.35 44.6508 42.72 45.7708 42.72C46.6708 42.72 47.4208 42.52 48.0208 42.12C48.6408 41.7 49.1008 41.14 49.4008 40.44H52.5808C52.1808 41.84 51.3808 43.01 50.1808 43.95C49.0008 44.89 47.5308 45.36 45.7708 45.36ZM45.7708 32.37C44.7108 32.37 43.7708 32.69 42.9508 33.33C42.1308 33.95 41.6308 34.89 41.4508 36.15H49.8508C49.7908 34.99 49.3808 34.07 48.6208 33.39C47.8608 32.71 46.9108 32.37 45.7708 32.37ZM56.3303 45V23.4H59.5103V45H56.3303ZM63.5373 51.6V30.12H66.3873L66.7173 32.43C67.1973 31.73 67.8573 31.11 68.6973 30.57C69.5373 30.03 70.6173 29.76 71.9373 29.76C73.3773 29.76 74.6473 30.1 75.7473 30.78C76.8473 31.46 77.7073 32.39 78.3273 33.57C78.9673 34.75 79.2873 36.09 79.2873 37.59C79.2873 39.09 78.9673 40.43 78.3273 41.61C77.7073 42.77 76.8473 43.69 75.7473 44.37C74.6473 45.03 73.3673 45.36 71.9073 45.36C70.7473 45.36 69.7173 45.13 68.8173 44.67C67.9373 44.21 67.2373 43.56 66.7173 42.72V51.6H63.5373ZM71.3673 42.6C72.7273 42.6 73.8473 42.14 74.7273 41.22C75.6073 40.28 76.0473 39.06 76.0473 37.56C76.0473 36.58 75.8473 35.71 75.4473 34.95C75.0473 34.19 74.4973 33.6 73.7973 33.18C73.0973 32.74 72.2873 32.52 71.3673 32.52C70.0073 32.52 68.8873 32.99 68.0073 33.93C67.1473 34.87 66.7173 36.08 66.7173 37.56C66.7173 39.06 67.1473 40.28 68.0073 41.22C68.8873 42.14 70.0073 42.6 71.3673 42.6ZM90.4054 45V24H97.2154C99.6754 24 101.695 24.43 103.275 25.29C104.875 26.15 106.055 27.37 106.815 28.95C107.595 30.51 107.985 32.37 107.985 34.53C107.985 36.67 107.595 38.53 106.815 40.11C106.055 41.67 104.875 42.88 103.275 43.74C101.695 44.58 99.6754 45 97.2154 45H90.4054ZM93.5854 42.3H97.0954C98.9954 42.3 100.495 41.99 101.595 41.37C102.715 40.75 103.515 39.86 103.995 38.7C104.495 37.54 104.745 36.15 104.745 34.53C104.745 32.91 104.495 31.51 103.995 30.33C103.515 29.15 102.715 28.25 101.595 27.63C100.495 26.99 98.9954 26.67 97.0954 26.67H93.5854V42.3ZM118.339 45.36C116.879 45.36 115.579 45.04 114.439 44.4C113.319 43.74 112.439 42.83 111.799 41.67C111.159 40.51 110.839 39.16 110.839 37.62C110.839 36.06 111.149 34.69 111.769 33.51C112.409 32.33 113.289 31.41 114.409 30.75C115.549 30.09 116.869 29.76 118.369 29.76C119.829 29.76 121.099 30.09 122.179 30.75C123.259 31.39 124.099 32.25 124.699 33.33C125.299 34.41 125.599 35.6 125.599 36.9C125.599 37.1 125.589 37.32 125.569 37.56C125.569 37.78 125.559 38.03 125.539 38.31H113.959C114.059 39.75 114.529 40.85 115.369 41.61C116.229 42.35 117.219 42.72 118.339 42.72C119.239 42.72 119.989 42.52 120.589 42.12C121.209 41.7 121.669 41.14 121.969 40.44H125.149C124.749 41.84 123.949 43.01 122.749 43.95C121.569 44.89 120.099 45.36 118.339 45.36ZM118.339 32.37C117.279 32.37 116.339 32.69 115.519 33.33C114.699 33.95 114.199 34.89 114.019 36.15H122.419C122.359 34.99 121.949 34.07 121.189 33.39C120.429 32.71 119.479 32.37 118.339 32.37ZM134.839 45.36C132.959 45.36 131.409 44.9 130.189 43.98C128.969 43.06 128.269 41.84 128.089 40.32H131.299C131.459 41 131.839 41.59 132.439 42.09C133.039 42.57 133.829 42.81 134.809 42.81C135.769 42.81 136.469 42.61 136.909 42.21C137.349 41.81 137.569 41.35 137.569 40.83C137.569 40.07 137.259 39.56 136.639 39.3C136.039 39.02 135.199 38.77 134.119 38.55C133.279 38.37 132.439 38.13 131.599 37.83C130.779 37.53 130.089 37.11 129.529 36.57C128.989 36.01 128.719 35.26 128.719 34.32C128.719 33.02 129.219 31.94 130.219 31.08C131.219 30.2 132.619 29.76 134.419 29.76C136.079 29.76 137.419 30.16 138.439 30.96C139.479 31.76 140.089 32.89 140.269 34.35H137.209C137.109 33.71 136.809 33.21 136.309 32.85C135.829 32.49 135.179 32.31 134.359 32.31C133.559 32.31 132.939 32.48 132.499 32.82C132.059 33.14 131.839 33.56 131.839 34.08C131.839 34.6 132.139 35.01 132.739 35.31C133.359 35.61 134.169 35.88 135.169 36.12C136.169 36.34 137.089 36.6 137.929 36.9C138.789 37.18 139.479 37.6 139.999 38.16C140.519 38.72 140.779 39.54 140.779 40.62C140.799 41.98 140.269 43.11 139.189 44.01C138.129 44.91 136.679 45.36 134.839 45.36ZM144.25 45V23.4H147.43V36.27L153.13 30.12H156.94L150.61 36.87L157.87 45H153.85L147.43 37.38V45H144.25Z" fill="white"/>
</svg>
