<svg width="50" height="50" viewBox="0 0 50 50" fill="none" xmlns="http://www.w3.org/2000/svg">
<circle cx="25" cy="25" r="25" fill="#F7578C" fill-opacity="0.2"/>
<path d="M30.9981 20.16C30.9381 20.15 30.8681 20.15 30.8081 20.16C29.4281 20.11 28.3281 18.98 28.3281 17.58C28.3281 16.15 29.4781 15 30.9081 15C32.3381 15 33.4881 16.16 33.4881 17.58C33.4781 18.98 32.3781 20.11 30.9981 20.16Z" stroke="#F7578C" stroke-width="1.5" stroke-linecap="round" stroke-linejoin="round"/>
<path d="M29.9675 27.4402C31.3375 27.6702 32.8475 27.4302 33.9075 26.7202C35.3175 25.7802 35.3175 24.2402 33.9075 23.3002C32.8375 22.5902 31.3075 22.3502 29.9375 22.5902" stroke="#F7578C" stroke-width="1.5" stroke-linecap="round" stroke-linejoin="round"/>
<path d="M18.9666 20.16C19.0266 20.15 19.0966 20.15 19.1566 20.16C20.5366 20.11 21.6366 18.98 21.6366 17.58C21.6366 16.15 20.4866 15 19.0566 15C17.6266 15 16.4766 16.16 16.4766 17.58C16.4866 18.98 17.5866 20.11 18.9666 20.16Z" stroke="#F7578C" stroke-width="1.5" stroke-linecap="round" stroke-linejoin="round"/>
<path d="M19.9975 27.4402C18.6275 27.6702 17.1175 27.4302 16.0575 26.7202C14.6475 25.7802 14.6475 24.2402 16.0575 23.3002C17.1275 22.5902 18.6575 22.3502 20.0275 22.5902" stroke="#F7578C" stroke-width="1.5" stroke-linecap="round" stroke-linejoin="round"/>
<path d="M24.9981 27.6288C24.9381 27.6188 24.8681 27.6188 24.8081 27.6288C23.4281 27.5788 22.3281 26.4488 22.3281 25.0488C22.3281 23.6188 23.4781 22.4688 24.9081 22.4688C26.3381 22.4688 27.4881 23.6288 27.4881 25.0488C27.4781 26.4488 26.3781 27.5888 24.9981 27.6288Z" stroke="#F7578C" stroke-width="1.5" stroke-linecap="round" stroke-linejoin="round"/>
<path d="M22.0888 30.7794C20.6788 31.7194 20.6788 33.2594 22.0888 34.1994C23.6888 35.2694 26.3087 35.2694 27.9087 34.1994C29.3187 33.2594 29.3187 31.7194 27.9087 30.7794C26.3187 29.7194 23.6888 29.7194 22.0888 30.7794Z" stroke="#F7578C" stroke-width="1.5" stroke-linecap="round" stroke-linejoin="round"/>
</svg>
