<svg width="152" height="70" viewBox="0 0 152 70" fill="none" xmlns="http://www.w3.org/2000/svg">
<rect y="11" width="152" height="50" rx="25" fill="#00CEC9"/>
<path d="M20.13 45V24H23.88L30.99 37.98L38.07 24H41.82V45H38.64V29.49L32.22 42H29.76L23.31 29.52V45H20.13ZM52.927 45.36C51.467 45.36 50.167 45.04 49.027 44.4C47.907 43.74 47.027 42.83 46.387 41.67C45.747 40.51 45.427 39.16 45.427 37.62C45.427 36.06 45.737 34.69 46.357 33.51C46.997 32.33 47.877 31.41 48.997 30.75C50.137 30.09 51.457 29.76 52.957 29.76C54.417 29.76 55.687 30.09 56.767 30.75C57.847 31.39 58.687 32.25 59.287 33.33C59.887 34.41 60.187 35.6 60.187 36.9C60.187 37.1 60.177 37.32 60.157 37.56C60.157 37.78 60.147 38.03 60.127 38.31H48.547C48.647 39.75 49.117 40.85 49.957 41.61C50.817 42.35 51.807 42.72 52.927 42.72C53.827 42.72 54.577 42.52 55.177 42.12C55.797 41.7 56.257 41.14 56.557 40.44H59.737C59.337 41.84 58.537 43.01 57.337 43.95C56.157 44.89 54.687 45.36 52.927 45.36ZM52.927 32.37C51.867 32.37 50.927 32.69 50.107 33.33C49.287 33.95 48.787 34.89 48.607 36.15H57.007C56.947 34.99 56.537 34.07 55.777 33.39C55.017 32.71 54.067 32.37 52.927 32.37ZM70.4466 45.36C68.9866 45.36 67.6866 45.04 66.5466 44.4C65.4266 43.74 64.5466 42.83 63.9066 41.67C63.2666 40.51 62.9466 39.16 62.9466 37.62C62.9466 36.06 63.2566 34.69 63.8766 33.51C64.5166 32.33 65.3966 31.41 66.5166 30.75C67.6566 30.09 68.9766 29.76 70.4766 29.76C71.9366 29.76 73.2066 30.09 74.2866 30.75C75.3666 31.39 76.2066 32.25 76.8066 33.33C77.4066 34.41 77.7066 35.6 77.7066 36.9C77.7066 37.1 77.6966 37.32 77.6766 37.56C77.6766 37.78 77.6666 38.03 77.6466 38.31H66.0666C66.1666 39.75 66.6366 40.85 67.4766 41.61C68.3366 42.35 69.3266 42.72 70.4466 42.72C71.3466 42.72 72.0966 42.52 72.6966 42.12C73.3166 41.7 73.7766 41.14 74.0766 40.44H77.2566C76.8566 41.84 76.0566 43.01 74.8566 43.95C73.6766 44.89 72.2066 45.36 70.4466 45.36ZM70.4466 32.37C69.3866 32.37 68.4466 32.69 67.6266 33.33C66.8066 33.95 66.3066 34.89 66.1266 36.15H74.5266C74.4666 34.99 74.0566 34.07 73.2966 33.39C72.5366 32.71 71.5866 32.37 70.4466 32.37ZM86.8652 45C85.4052 45 84.2452 44.65 83.3852 43.95C82.5252 43.23 82.0952 41.96 82.0952 40.14V32.79H79.5452V30.12H82.0952L82.4852 26.34H85.2752V30.12H89.4752V32.79H85.2752V40.14C85.2752 40.96 85.4452 41.53 85.7852 41.85C86.1452 42.15 86.7552 42.3 87.6152 42.3H89.3252V45H86.8652ZM94.5541 27.3C93.9541 27.3 93.4541 27.12 93.0541 26.76C92.6741 26.38 92.4841 25.91 92.4841 25.35C92.4841 24.79 92.6741 24.33 93.0541 23.97C93.4541 23.59 93.9541 23.4 94.5541 23.4C95.1541 23.4 95.6441 23.59 96.0241 23.97C96.4241 24.33 96.6241 24.79 96.6241 25.35C96.6241 25.91 96.4241 26.38 96.0241 26.76C95.6441 27.12 95.1541 27.3 94.5541 27.3ZM92.9641 45V30.12H96.1441V45H92.9641ZM100.342 45V30.12H103.162L103.402 32.73C103.862 31.81 104.532 31.09 105.412 30.57C106.312 30.03 107.342 29.76 108.502 29.76C110.302 29.76 111.712 30.32 112.732 31.44C113.772 32.56 114.292 34.23 114.292 36.45V45H111.142V36.78C111.142 33.9 109.962 32.46 107.602 32.46C106.422 32.46 105.442 32.88 104.662 33.72C103.902 34.56 103.522 35.76 103.522 37.32V45H100.342ZM124.127 40.44C123.347 40.44 122.627 40.35 121.967 40.17L120.677 41.43C120.897 41.57 121.167 41.69 121.487 41.79C121.807 41.89 122.257 41.98 122.837 42.06C123.417 42.14 124.207 42.22 125.207 42.3C127.187 42.48 128.617 42.96 129.497 43.74C130.377 44.5 130.817 45.52 130.817 46.8C130.817 47.68 130.577 48.51 130.097 49.29C129.637 50.09 128.907 50.73 127.907 51.21C126.927 51.71 125.667 51.96 124.127 51.96C122.047 51.96 120.357 51.56 119.057 50.76C117.777 49.98 117.137 48.79 117.137 47.19C117.137 46.57 117.297 45.95 117.617 45.33C117.957 44.73 118.487 44.16 119.207 43.62C118.787 43.44 118.417 43.25 118.097 43.05C117.797 42.83 117.527 42.61 117.287 42.39V41.67L119.867 39.03C118.707 38.03 118.127 36.72 118.127 35.1C118.127 34.12 118.357 33.23 118.817 32.43C119.297 31.61 119.987 30.96 120.887 30.48C121.787 30 122.867 29.76 124.127 29.76C124.967 29.76 125.747 29.88 126.467 30.12H132.017V32.22L129.377 32.37C129.857 33.19 130.097 34.1 130.097 35.1C130.097 36.1 129.857 37 129.377 37.8C128.917 38.6 128.237 39.24 127.337 39.72C126.457 40.2 125.387 40.44 124.127 40.44ZM124.127 37.95C125.047 37.95 125.787 37.71 126.347 37.23C126.927 36.73 127.217 36.03 127.217 35.13C127.217 34.21 126.927 33.51 126.347 33.03C125.787 32.55 125.047 32.31 124.127 32.31C123.187 32.31 122.427 32.55 121.847 33.03C121.287 33.51 121.007 34.21 121.007 35.13C121.007 36.03 121.287 36.73 121.847 37.23C122.427 37.71 123.187 37.95 124.127 37.95ZM120.137 46.89C120.137 47.75 120.517 48.39 121.277 48.81C122.037 49.25 122.987 49.47 124.127 49.47C125.227 49.47 126.117 49.23 126.797 48.75C127.477 48.29 127.817 47.67 127.817 46.89C127.817 46.31 127.587 45.81 127.127 45.39C126.667 44.99 125.797 44.74 124.517 44.64C123.557 44.58 122.707 44.49 121.967 44.37C121.267 44.75 120.787 45.16 120.527 45.6C120.267 46.04 120.137 46.47 120.137 46.89Z" fill="white"/>
</svg>
