<svg width="84" height="70" viewBox="0 0 84 70" fill="none" xmlns="http://www.w3.org/2000/svg">
<rect y="9" width="84" height="50" rx="25" fill="#FEC458"/>
<path d="M23.06 45.36C21.52 45.36 20.17 45.09 19.01 44.55C17.85 44.01 16.94 43.24 16.28 42.24C15.64 41.24 15.31 40.05 15.29 38.67H18.65C18.67 39.79 19.06 40.74 19.82 41.52C20.58 42.3 21.65 42.69 23.03 42.69C24.25 42.69 25.2 42.4 25.88 41.82C26.58 41.22 26.93 40.46 26.93 39.54C26.93 38.8 26.76 38.2 26.42 37.74C26.1 37.28 25.65 36.9 25.07 36.6C24.51 36.3 23.86 36.03 23.12 35.79C22.38 35.55 21.6 35.29 20.78 35.01C19.16 34.47 17.94 33.77 17.12 32.91C16.32 32.05 15.92 30.92 15.92 29.52C15.9 28.34 16.17 27.31 16.73 26.43C17.31 25.55 18.11 24.87 19.13 24.39C20.17 23.89 21.38 23.64 22.76 23.64C24.12 23.64 25.31 23.89 26.33 24.39C27.37 24.89 28.18 25.59 28.76 26.49C29.34 27.37 29.64 28.4 29.66 29.58H26.3C26.3 29.04 26.16 28.53 25.88 28.05C25.6 27.55 25.19 27.14 24.65 26.82C24.11 26.5 23.45 26.34 22.67 26.34C21.67 26.32 20.84 26.57 20.18 27.09C19.54 27.61 19.22 28.33 19.22 29.25C19.22 30.07 19.46 30.7 19.94 31.14C20.42 31.58 21.08 31.95 21.92 32.25C22.76 32.53 23.72 32.86 24.8 33.24C25.84 33.58 26.77 33.99 27.59 34.47C28.41 34.95 29.06 35.58 29.54 36.36C30.04 37.14 30.29 38.13 30.29 39.33C30.29 40.39 30.02 41.38 29.48 42.3C28.94 43.2 28.13 43.94 27.05 44.52C25.97 45.08 24.64 45.36 23.06 45.36ZM33.7667 45V24H47.1167V26.58H36.9467V33.12H46.2167V35.64H36.9467V42.42H47.1167V45H33.7667ZM60.5954 45.36C58.5154 45.36 56.6954 44.9 55.1354 43.98C53.5754 43.06 52.3554 41.79 51.4754 40.17C50.5954 38.53 50.1554 36.64 50.1554 34.5C50.1554 32.36 50.5954 30.48 51.4754 28.86C52.3554 27.22 53.5754 25.94 55.1354 25.02C56.6954 24.1 58.5154 23.64 60.5954 23.64C62.6754 23.64 64.4954 24.1 66.0554 25.02C67.6154 25.94 68.8254 27.22 69.6854 28.86C70.5654 30.48 71.0054 32.36 71.0054 34.5C71.0054 36.64 70.5654 38.53 69.6854 40.17C68.8254 41.79 67.6154 43.06 66.0554 43.98C64.4954 44.9 62.6754 45.36 60.5954 45.36ZM60.5954 42.51C62.0354 42.51 63.2854 42.19 64.3454 41.55C65.4254 40.91 66.2654 39.99 66.8654 38.79C67.4654 37.59 67.7654 36.16 67.7654 34.5C67.7654 32.84 67.4654 31.41 66.8654 30.21C66.2654 29.01 65.4254 28.09 64.3454 27.45C63.2854 26.81 62.0354 26.49 60.5954 26.49C59.1554 26.49 57.8954 26.81 56.8154 27.45C55.7354 28.09 54.8954 29.01 54.2954 30.21C53.7154 31.41 53.4254 32.84 53.4254 34.5C53.4254 36.16 53.7154 37.59 54.2954 38.79C54.8954 39.99 55.7354 40.91 56.8154 41.55C57.8954 42.19 59.1554 42.51 60.5954 42.51Z" fill="white"/>
</svg>
