<svg width="91" height="22" viewBox="0 0 91 22" fill="none" xmlns="http://www.w3.org/2000/svg">
<path d="M24.0552 7.81006H33.1656V9.51506H29.5767V19.0301H27.589V9.51506H24L24.0552 7.81006ZM32.7791 10.8901H34.4356V12.4851H34.4908C34.546 12.2651 34.6564 12.0451 34.8221 11.8251C34.9877 11.6051 35.1534 11.4401 35.3742 11.2751C35.5951 11.1101 35.816 10.9451 36.092 10.8351C36.3681 10.7251 36.589 10.6701 36.865 10.6701H37.3068C37.362 10.6701 37.4724 10.6701 37.5276 10.6701V12.3751C37.4172 12.3751 37.2515 12.3201 37.1411 12.3201L36.7546 12.2651C36.4785 12.2651 36.1472 12.3201 35.8712 12.4301C35.5951 12.5401 35.3742 12.7051 35.1534 12.9801C34.9325 13.2551 34.7669 13.5301 34.6564 13.8601C34.546 14.2451 34.4908 14.6301 34.4908 15.0701V18.9201H32.7239L32.7791 10.8901ZM45.8098 19.0301H44.0429V17.8751C43.8221 18.3151 43.4908 18.6451 43.0491 18.8651C42.6626 19.0851 42.1656 19.2501 41.7239 19.2501C40.8957 19.3051 40.0123 19.0301 39.4049 18.4801C38.8528 17.8201 38.6319 16.9401 38.6871 16.0601V10.8901H40.5092V15.8401C40.454 16.3901 40.6196 16.9401 40.9509 17.3251C41.227 17.6551 41.6687 17.8201 42.1104 17.7651C42.4417 17.7651 42.7178 17.7101 42.9939 17.6001C43.2147 17.4901 43.4356 17.3251 43.6012 17.1601C43.7669 16.9401 43.8773 16.7201 43.9877 16.5001C44.0429 16.2251 44.0982 15.8951 44.0982 15.6201V10.8901H45.9202L45.8098 19.0301ZM48.8466 16.3901C48.8466 16.8301 49.0675 17.2151 49.454 17.4901C49.8405 17.7101 50.2822 17.8201 50.7239 17.8201C50.8896 17.8201 51.1104 17.8201 51.2761 17.7651C51.4969 17.7651 51.6626 17.7101 51.8834 17.6001C52.0491 17.5451 52.2147 17.4351 52.3252 17.2701C52.4356 17.1051 52.4908 16.9401 52.4908 16.7201C52.4908 16.5001 52.3804 16.3351 52.2147 16.1701C52.0491 16.0051 51.8282 15.8951 51.6074 15.7851C51.3313 15.6751 51.0552 15.6201 50.7791 15.5651L49.8405 15.4001L48.8466 15.1251C48.5706 15.0151 48.2393 14.9051 48.0184 14.6851C47.7423 14.5201 47.5767 14.3001 47.411 13.9701C47.2454 13.6401 47.1902 13.3101 47.1902 12.9251C47.1902 12.5401 47.3006 12.1551 47.5215 11.8251C47.7423 11.5501 48.0184 11.2751 48.3497 11.1101C48.681 10.9451 49.0675 10.7801 49.454 10.7251C49.8405 10.6701 50.227 10.6151 50.6135 10.6151C51 10.6151 51.4417 10.6701 51.8282 10.7251C52.2147 10.7801 52.546 10.9451 52.8773 11.1651C53.2086 11.3851 53.4294 11.6051 53.6503 11.9351C53.8712 12.2651 53.9816 12.7051 54.0368 13.0901H52.1595C52.1043 12.7051 51.8834 12.3751 51.5521 12.2101C51.2209 12.0451 50.8344 11.9901 50.5031 11.9901C50.3926 11.9901 50.227 11.9901 50.0614 11.9901C49.8957 11.9901 49.7301 12.0451 49.5644 12.1001C49.3988 12.1551 49.2883 12.2651 49.1779 12.3751C49.0675 12.4851 49.0123 12.6501 49.0123 12.8151C49.0123 13.0351 49.0675 13.2001 49.2331 13.3651C49.3988 13.5301 49.6196 13.6401 49.8405 13.6951C50.1166 13.8051 50.3926 13.8601 50.6687 13.9151L51.6626 14.1351C51.9939 14.1901 52.3252 14.3001 52.6012 14.4101C52.8773 14.5201 53.2086 14.6301 53.4294 14.8501C53.6503 15.0151 53.8712 15.2351 54.0368 15.5101C54.2025 15.8401 54.2577 16.1701 54.2577 16.5001C54.2577 16.9401 54.2025 17.3251 53.9816 17.7101C53.7607 18.0401 53.4847 18.3151 53.1534 18.5351C52.7669 18.7551 52.3804 18.9201 51.9939 18.9751C51.5521 19.0851 51.1656 19.1401 50.7239 19.1401C50.227 19.1401 49.7853 19.0851 49.2883 18.9751C48.9018 18.8651 48.5153 18.7001 48.1288 18.4251C47.7975 18.2051 47.5767 17.8751 47.3558 17.5451C47.1902 17.1601 47.0798 16.7201 47.0798 16.2801L48.8466 16.3901ZM54.8098 10.8901H56.1902V8.41506H58.0123V10.8351H59.6135V12.1551H58.0123V16.5001V17.0501C58.0123 17.1601 58.0675 17.2701 58.1227 17.3801C58.1779 17.4901 58.2883 17.5451 58.3988 17.6001C58.5644 17.6551 58.7301 17.6551 58.8957 17.6551H59.2822L59.6687 17.6001V18.9751L59.0613 19.0301C58.8405 19.0301 58.6748 19.0301 58.454 19.0301C58.0675 19.0301 57.681 18.9751 57.2945 18.9201C57.0184 18.8651 56.7976 18.7001 56.6319 18.5351C56.4663 18.3701 56.3558 18.1501 56.3006 17.8751C56.2454 17.6001 56.1902 17.2701 56.1902 16.9951V12.2651H54.865V10.8901H54.8098ZM60.8282 10.8901H62.5399V11.9901C62.7607 11.5501 63.1472 11.1651 63.589 10.9451C64.0307 10.7251 64.5276 10.6151 65.0798 10.6151C65.6319 10.6151 66.2393 10.7251 66.7362 10.9451C67.1779 11.1651 67.6196 11.4951 67.9509 11.8801C68.2822 12.2651 68.5031 12.7601 68.6687 13.2551C68.8344 13.8051 68.8896 14.3551 68.8896 14.9051C68.8896 15.4551 68.8344 15.9501 68.6687 16.5001C68.5583 16.9951 68.3374 17.4351 68.0061 17.8751C67.7301 18.2601 67.3436 18.5901 66.9018 18.8101C66.4049 19.0851 65.908 19.1951 65.3558 19.1401C65.0798 19.1401 64.8589 19.1401 64.5828 19.0851C64.3068 19.0301 64.0859 18.9751 63.8098 18.8651C63.589 18.7551 63.3681 18.6451 63.1472 18.4801C62.9264 18.3151 62.7607 18.1501 62.6503 17.9301V22.0001H60.8282V10.8901ZM67.1227 14.9601C67.1227 14.5751 67.0675 14.2451 66.9571 13.9151C66.8466 13.5851 66.7362 13.2551 66.5153 12.9801C66.3497 12.7051 66.0736 12.4851 65.7975 12.3201C65.5215 12.1551 65.135 12.0451 64.8037 12.1001C64.1411 12.0451 63.4785 12.3751 63.092 12.8701C62.7055 13.4751 62.4847 14.2451 62.5399 14.9601C62.5399 15.3451 62.5951 15.7301 62.7055 16.1151C62.816 16.4451 62.9264 16.7201 63.1472 16.9951C63.3681 17.2151 63.589 17.4351 63.865 17.6001C64.5276 17.9301 65.2454 17.8751 65.8528 17.5451C66.1288 17.3801 66.3497 17.1601 66.5706 16.8851C66.7362 16.6101 66.9018 16.2801 66.9571 15.9501C67.1227 15.6751 67.1227 15.2901 67.1227 14.9601ZM70.2699 7.81006H72.092V9.51506H70.2699V7.81006ZM70.2699 10.8901H72.092V18.9751H70.2699V10.8901ZM73.6933 7.81006H75.5153V18.9751H73.6933V7.81006ZM80.9816 19.2501C80.3742 19.2501 79.7669 19.1401 79.2699 18.9201C78.2761 18.5351 77.5031 17.7101 77.227 16.6651C77.0614 16.1151 76.9509 15.5101 76.9509 14.9601C76.9509 14.3551 77.0614 13.8051 77.227 13.2551C77.3926 12.7601 77.6687 12.2651 78 11.8801C78.3313 11.4951 78.773 11.2201 79.2699 11.0001C79.8221 10.7801 80.4295 10.6701 80.9816 10.6701C81.589 10.6701 82.1411 10.7801 82.6933 11.0001C83.1902 11.2201 83.6319 11.4951 83.9632 11.8801C84.2945 12.2651 84.5706 12.7601 84.7362 13.2551C84.9018 13.8051 85.0123 14.3551 85.0123 14.9601C85.0123 15.5651 84.9018 16.1151 84.7362 16.6651C84.5706 17.1601 84.2945 17.6001 83.9632 18.0401C83.5767 18.4251 83.135 18.7001 82.6933 18.9201C82.1411 19.1401 81.5337 19.2501 80.9816 19.2501ZM80.9816 17.8201C81.3681 17.8201 81.6994 17.7101 82.0307 17.5451C82.3068 17.3801 82.5828 17.1601 82.7485 16.8851C82.9141 16.6101 83.0798 16.2801 83.1902 15.9501C83.3006 15.6201 83.3006 15.2351 83.3006 14.9051C83.3006 14.5751 83.2454 14.1901 83.1902 13.8601C83.135 13.5301 82.9693 13.2001 82.7485 12.9251C82.5828 12.6501 82.3068 12.4301 82.0307 12.2651C81.6994 12.1001 81.3681 11.9901 80.9816 11.9901C80.5951 11.9901 80.2638 12.0451 79.9325 12.2651C79.6564 12.4301 79.3804 12.6501 79.2147 12.9251C78.9939 13.2001 78.8834 13.5301 78.773 13.8601C78.6626 14.1901 78.6626 14.5201 78.6626 14.9051C78.6626 15.2351 78.7178 15.6201 78.773 15.9501C78.8282 16.2801 78.9939 16.6101 79.2147 16.8851C79.3804 17.1601 79.6564 17.3801 79.9325 17.4901C80.2638 17.7101 80.5951 17.8201 80.9816 17.8201ZM85.6196 10.8901H87V8.41506H88.7669V10.8351H90.4233V12.1551H88.7669V16.5001C88.7669 16.7201 88.7669 16.8301 88.8221 16.9951C88.8221 17.1051 88.8773 17.2151 88.9325 17.3251C88.9877 17.4351 89.0982 17.4901 89.2086 17.5451C89.3742 17.6001 89.5399 17.6001 89.7055 17.6001H90.092H90.4233V18.9751L89.816 19.0301C89.5951 19.0301 89.4295 19.0301 89.2086 19.0301C88.8221 19.0301 88.4356 18.9751 88.0491 18.9201C87.773 18.8651 87.5522 18.7001 87.3865 18.5351C87.2209 18.3701 87.1104 18.1501 87.0552 17.8751C87 17.6001 86.9448 17.2701 86.9448 16.9951V12.2101H85.5644L85.6196 10.8901Z" fill="#020202"/>
<path d="M21.5337 7.81H13.3067L10.7669 0L8.22699 7.81H0L6.68098 12.595L4.08589 20.405L10.7669 15.565L17.4479 20.405L14.908 12.595L21.5337 7.81Z" fill="#18B57A"/>
<path d="M15.4603 14.3552L14.9082 12.5952L10.8223 15.5652L15.4603 14.3552Z" fill="#0B532A"/>
</svg>
