<svg width="50" height="50" viewBox="0 0 50 50" fill="none" xmlns="http://www.w3.org/2000/svg">
<path opacity="0.4" d="M50 12.5V37.5C50 45 45.8333 50 36.1111 50H13.8889C4.16667 50 0 45 0 37.5V12.5C0 5 4.16667 0 13.8889 0H36.1111C45.8333 0 50 5 50 12.5Z" fill="#433968"/>
<path d="M34.7218 0V18.7909C34.7218 19.8428 33.2773 20.3688 32.3884 19.6755L25.9441 14.5594C25.4163 14.129 24.5828 14.129 24.055 14.5594L17.6108 19.6755C16.7219 20.3927 15.2773 19.8428 15.2773 18.7909V0H34.7218Z" fill="#433968"/>
<path d="M40.2795 30.875H28.474C27.3351 30.875 26.3906 30.025 26.3906 29C26.3906 27.975 27.3351 27.125 28.474 27.125H40.2795C41.4184 27.125 42.3628 27.975 42.3628 29C42.3628 30.025 41.4184 30.875 40.2795 30.875Z" fill="#433968"/>
<path d="M40.2765 40.875H16.6654C15.5265 40.875 14.582 40.025 14.582 39C14.582 37.975 15.5265 37.125 16.6654 37.125H40.2765C41.4154 37.125 42.3598 37.975 42.3598 39C42.3598 40.025 41.4154 40.875 40.2765 40.875Z" fill="#433968"/>
</svg>
