<svg width="50" height="50" viewBox="0 0 50 50" fill="none" xmlns="http://www.w3.org/2000/svg">
<path opacity="0.4" d="M50 25C50 37.6 40.6499 48.025 28.5249 49.75C27.3749 49.925 26.2 50 25 50C18.1 50 11.85 47.2 7.32498 42.675C2.79998 38.15 0 31.9 0 25C0 11.2 11.2 0 25 0C31.9 0 38.15 2.8 42.675 7.325C47.2 11.85 50 18.1 50 25Z" fill="#44C486"/>
<path d="M32.0759 20.5748L25.8758 26.7748L42.2008 43.0998C41.3008 43.9748 40.3258 44.7748 39.3008 45.4998L23.2258 29.4248L17.0508 35.5998L29.8508 48.4248C30.1258 48.6998 30.3009 49.0498 30.3759 49.3998C30.3759 49.3998 30.3759 49.3998 30.3759 49.4248C29.7759 49.5498 29.1508 49.6748 28.5258 49.7498C27.7258 49.8748 26.9258 49.9498 26.1008 49.9748L14.4008 38.2498L8.70078 43.9498C8.22578 43.5498 7.77581 43.1248 7.32581 42.6748C6.87581 42.2248 6.45078 41.7748 6.05078 41.2998L41.3009 6.0498C41.7759 6.4498 42.2258 6.8748 42.6758 7.3248C43.1258 7.7748 43.5509 8.2248 43.9509 8.6998L34.7259 17.9248L48.9509 32.1498C48.5509 33.4748 48.0508 34.7248 47.4508 35.9498L32.0759 20.5748Z" fill="#44C486"/>
</svg>
