<svg width="70" height="70" viewBox="0 0 70 70" fill="none" xmlns="http://www.w3.org/2000/svg">
<path d="M-2.6963e-07 35C-1.20718e-07 15.67 15.67 1.20718e-07 35 2.6963e-07C54.33 4.18543e-07 70 15.67 70 35L70 70L35 70C15.67 70 -4.18543e-07 54.33 -2.6963e-07 35Z" fill="#44C486"/>
<circle cx="34.7168" cy="34.7163" r="25" fill="white"/>
<path d="M31.2857 27C32.3071 27 33.1429 27.8 33.1429 28.7778C33.1429 29.7556 32.3071 30.5556 31.2857 30.5556C29.6329 30.5556 28.1286 31.2489 27.1257 32.3511C30.19 32.1022 32.8829 34.2889 33.1243 37.2222C33.3657 40.1556 31.1 42.7333 28.0171 42.9822C24.9529 43.2311 22.2786 41.0444 22.0186 38.0933C22 37.9511 22 37.8089 22 37.6667V35.8889C22 30.9822 26.16 27 31.2857 27ZM46.1429 27C47.1643 27 48 27.8 48 28.7778C48 29.7556 47.1643 30.5556 46.1429 30.5556C44.49 30.5556 43.0043 31.2489 41.9829 32.3511C45.0471 32.1022 47.74 34.2889 47.9814 37.2222C48.2414 40.1556 45.9571 42.7333 42.8929 42.9644C39.81 43.2311 37.1357 41.0444 36.8757 38.0933C36.8571 37.9511 36.8571 37.8089 36.8571 37.6667V35.8889C36.8571 30.9822 41.0171 27 46.1429 27ZM27.5714 35.8889C26.55 35.8889 25.7143 36.6889 25.7143 37.6667C25.7143 38.6444 26.55 39.4444 27.5714 39.4444C28.5929 39.4444 29.4286 38.6444 29.4286 37.6667C29.4286 36.6889 28.5929 35.8889 27.5714 35.8889ZM42.4286 35.8889C41.4071 35.8889 40.5714 36.6889 40.5714 37.6667C40.5714 38.6444 41.4071 39.4444 42.4286 39.4444C43.45 39.4444 44.2857 38.6444 44.2857 37.6667C44.2857 36.6889 43.45 35.8889 42.4286 35.8889Z" fill="#242549"/>
</svg>
