<svg width="50" height="50" viewBox="0 0 50 50" fill="none" xmlns="http://www.w3.org/2000/svg">
<path d="M38.75 39.5752H34.125C33.1 39.5752 32.25 38.7252 32.25 37.7002C32.25 36.6752 33.1 35.8252 34.125 35.8252H38.75C39.775 35.8252 40.625 36.6752 40.625 37.7002C40.625 38.7252 39.775 39.5752 38.75 39.5752Z" fill="#004D42"/>
<path d="M27.425 39.5752H11.25C10.225 39.5752 9.375 38.7252 9.375 37.7002C9.375 36.6752 10.225 35.8252 11.25 35.8252H27.425C28.45 35.8252 29.3 36.6752 29.3 37.7002C29.3 38.7252 28.475 39.5752 27.425 39.5752Z" fill="#004D42"/>
<path d="M38.7508 30.175H24.9258C23.9008 30.175 23.0508 29.325 23.0508 28.3C23.0508 27.275 23.9008 26.425 24.9258 26.425H38.7508C39.7758 26.425 40.6258 27.275 40.6258 28.3C40.6258 29.325 39.7758 30.175 38.7508 30.175Z" fill="#004D42"/>
<path d="M18.175 30.175H11.25C10.225 30.175 9.375 29.325 9.375 28.3C9.375 27.275 10.225 26.425 11.25 26.425H18.175C19.2 26.425 20.05 27.275 20.05 28.3C20.05 29.325 19.2 30.175 18.175 30.175Z" fill="#004D42"/>
<path opacity="0.4" d="M35.475 0H14.525C5.425 0 0 5.425 0 14.525V35.45C0 44.575 5.425 50 14.525 50H35.45C44.55 50 49.975 44.575 49.975 35.475V14.525C50 5.425 44.575 0 35.475 0Z" fill="#004D42"/>
</svg>
