<svg width="46" height="26" viewBox="0 0 46 26" fill="none" xmlns="http://www.w3.org/2000/svg">
<path d="M33.3125 18.9844C34.3281 18.9844 35.1875 18.2031 35.1875 17.1094C35.1875 16.0937 34.3281 15.2344 33.3125 15.2344C32.2969 15.2344 31.4375 16.0937 31.4375 17.1094C31.4375 18.2031 32.2969 18.9844 33.3125 18.9844ZM12.6094 18.9844C13.625 18.9844 14.4844 18.2031 14.4844 17.1094C14.4844 16.0937 13.625 15.2344 12.6094 15.2344C11.5938 15.2344 10.7344 16.0937 10.7344 17.1094C10.7344 18.2031 11.5938 18.9844 12.6094 18.9844ZM34.0156 7.73438C40.4219 11.25 44.7969 17.7344 45.5 25.3906H0.5C1.125 17.7344 5.5 11.25 11.9062 7.73438L8.15625 1.25001C8.07812 1.09375 8.07812 0.937505 8.07812 0.781245C8.07812 0.390625 8.39062 0 8.85938 0C9.17188 0 9.40625 0.234375 9.5625 0.468745L13.3125 7.03125C16.2812 5.70313 19.5625 5 23 5C26.4375 5 29.6406 5.70313 32.6094 7.03125L36.3594 0.468745C36.5156 0.234375 36.75 0 37.0625 0C37.5312 0 37.8438 0.390625 37.8438 0.781245C37.8438 0.937505 37.8438 1.09375 37.7656 1.25001L34.0156 7.73438Z" fill="#4541FE"/>
</svg>
