<svg width="30" height="36" viewBox="0 0 30 36" fill="none" xmlns="http://www.w3.org/2000/svg">
<path d="M24.5313 18.5156C24.5313 15.625 25.8594 13.5156 28.4375 11.875C26.9531 9.7656 24.7656 8.67188 21.875 8.4375C19.0625 8.20312 16.0156 10 14.9219 10C13.75 10 11.0937 8.51562 8.98438 8.51562C4.60938 8.59375 0 11.9531 0 18.9062C0 20.9375 0.3125 23.0469 1.09375 25.2344C2.10938 28.125 5.70312 35.1562 9.45312 35C11.4063 35 12.8125 33.5938 15.3906 33.5938C17.8906 33.5938 19.1406 35 21.3281 35C25.1563 35 28.4375 28.5938 29.375 25.7031C24.2969 23.2812 24.5313 18.6719 24.5313 18.5156ZM20.1563 5.70312C22.2656 3.20312 22.0313 0.85938 22.0313 0C20.1563 0.15625 17.9687 1.32812 16.7187 2.73438C15.3125 4.29688 14.5313 6.25 14.6875 8.35938C16.7187 8.51562 18.5937 7.5 20.1563 5.70312Z" fill="#4541FE"/>
</svg>
