<svg width="1068" height="440" viewBox="0 0 1068 440" fill="none" xmlns="http://www.w3.org/2000/svg">
<g clip-path="url(#clip0_2990_251)">
<path d="M378.84 0.209717C379.12 0.808995 379.4 1.41826 379.68 2.01754" stroke="white" stroke-opacity="0.2" stroke-miterlimit="10"/>
<path d="M381.314 5.66309C396.748 40.6609 405.321 79.3643 405.321 120.065C405.321 277.006 277.916 404.223 120.743 404.223C79.082 404.223 39.5112 395.284 3.85156 379.223" stroke="white" stroke-opacity="0.2" stroke-miterlimit="10" stroke-dasharray="4 4"/>
<path d="M2.02875 378.394C1.41875 378.114 0.81875 377.835 0.21875 377.555" stroke="white" stroke-opacity="0.2" stroke-miterlimit="10"/>
<path d="M612.047 0.209717C612.207 0.858935 612.357 1.50815 612.517 2.14738" stroke="white" stroke-opacity="0.2" stroke-miterlimit="10"/>
<path d="M613.436 6.07275C621.908 42.6986 626.38 80.8627 626.38 120.065C626.38 239.901 584.568 349.988 514.699 436.564" stroke="white" stroke-opacity="0.2" stroke-miterlimit="10" stroke-dasharray="4.03 4.03"/>
<path d="M513.44 438.132C513.02 438.652 512.6 439.161 512.18 439.68" stroke="white" stroke-opacity="0.2" stroke-miterlimit="10"/>
<path d="M834.535 0.209717C834.645 0.868923 834.755 1.51814 834.865 2.17735" stroke="white" stroke-opacity="0.2" stroke-miterlimit="10"/>
<path d="M835.505 6.1626C841.387 43.2679 844.438 81.3121 844.438 120.065C844.438 233.389 818.31 340.62 771.758 436.075" stroke="white" stroke-opacity="0.2" stroke-miterlimit="10" stroke-dasharray="4.04 4.04"/>
<path d="M770.868 437.893C770.578 438.492 770.278 439.091 769.988 439.68" stroke="white" stroke-opacity="0.2" stroke-miterlimit="10"/>
<path d="M1059.97 0.209717C1060.05 0.868923 1060.14 1.52813 1060.22 2.18733" stroke="white" stroke-opacity="0.2" stroke-miterlimit="10"/>
<path d="M1060.7 6.14258C1065.19 43.4876 1067.5 81.5018 1067.5 120.065C1067.5 230.832 1048.43 337.154 1013.37 435.925" stroke="white" stroke-opacity="0.2" stroke-miterlimit="10" stroke-dasharray="3.99 3.99"/>
<path d="M1012.71 437.803C1012.49 438.432 1012.26 439.051 1012.04 439.68" stroke="white" stroke-opacity="0.2" stroke-miterlimit="10"/>
</g>
<defs>
<clipPath id="clip0_2990_251">
<rect width="1068" height="440" fill="white"/>
</clipPath>
</defs>
</svg>
