<svg width="28" height="26" viewBox="0 0 28 26" fill="none" xmlns="http://www.w3.org/2000/svg">
<path opacity="0.4" d="M13.9984 3.67361V26C13.7605 26 13.5085 25.9582 13.3125 25.8468L13.2565 25.8189C10.5688 24.3565 5.87934 22.8244 2.84168 22.4205L2.43573 22.3648C1.09188 22.1977 0 20.9442 0 19.6071V2.78222C0 1.1248 1.35785 -0.128706 3.02366 0.0105729C5.96334 0.247347 10.4148 1.7237 12.9066 3.2697L13.2565 3.47862C13.4665 3.60397 13.7325 3.67361 13.9984 3.67361Z" fill="#00A76A"/>
<path d="M27.9984 2.79551V19.6065C27.9984 20.9435 26.9066 22.197 25.5627 22.3642L25.1008 22.4199C22.0491 22.8238 17.3456 24.3698 14.6579 25.8462C14.4759 25.9576 14.252 25.9994 14 25.9994V3.67297C14.266 3.67297 14.5319 3.60333 14.7419 3.47797L14.9799 3.32477C17.4716 1.76485 21.9371 0.274562 24.8768 0.0238603H24.9608C26.6266 -0.115418 27.9984 1.12416 27.9984 2.79551Z" fill="#00A76A"/>
<path d="M8.04719 9.16096H4.89754C4.3236 9.16096 3.84766 8.68741 3.84766 8.11637C3.84766 7.54533 4.3236 7.07178 4.89754 7.07178H8.04719C8.62112 7.07178 9.09707 7.54533 9.09707 8.11637C9.09707 8.68741 8.62112 9.16096 8.04719 9.16096Z" fill="#00A76A"/>
<path d="M9.09707 13.3397H4.89754C4.3236 13.3397 3.84766 12.8661 3.84766 12.2951C3.84766 11.724 4.3236 11.2505 4.89754 11.2505H9.09707C9.67101 11.2505 10.147 11.724 10.147 12.2951C10.147 12.8661 9.67101 13.3397 9.09707 13.3397Z" fill="#00A76A"/>
</svg>
