<svg width="54" height="50" viewBox="0 0 54 50" fill="none" xmlns="http://www.w3.org/2000/svg">
<path d="M43.3681 29.5921C37.7304 29.5921 33.1641 34.1584 33.1641 39.7962C33.1641 41.7094 33.6998 43.5207 34.6437 45.0513C36.4039 48.0105 39.6437 50.0003 43.3681 50.0003C47.0926 50.0003 50.3324 48.0105 52.0926 45.0513C53.0365 43.5207 53.5722 41.7094 53.5722 39.7962C53.5722 34.1584 49.0059 29.5921 43.3681 29.5921ZM48.6488 38.6992L43.2151 43.7248C42.8579 44.0564 42.3732 44.235 41.914 44.235C41.4294 44.235 40.9447 44.0564 40.5621 43.6737L38.0364 41.1482C37.2966 40.4084 37.2966 39.1839 38.0364 38.4441C38.7762 37.7044 40.0007 37.7044 40.7405 38.4441L41.9651 39.6686L46.0467 35.8931C46.812 35.1788 48.0365 35.2299 48.7508 35.9952C49.465 36.7605 49.4141 37.9594 48.6488 38.6992Z" fill="white"/>
<path d="M51.0204 10.5612V14.2857H0V10.5612C0 4.71939 4.74496 0 10.5868 0H40.4336C46.2755 0 51.0204 4.71939 51.0204 10.5612Z" fill="white"/>
<path opacity="0.4" d="M0 14.2859V33.3166C0 39.1584 4.71943 43.8778 10.5613 43.8778H26.5307C28.0103 43.8778 29.2857 42.6278 29.1581 41.1482C28.801 37.2451 30.0511 33.0104 33.5204 29.6431C34.949 28.24 36.7092 27.1686 38.6225 26.5564C41.8113 25.536 44.8979 25.6635 47.6275 26.5819C49.2857 27.1431 51.0204 25.9441 51.0204 24.1839V14.2859H0ZM15.3061 35.3319H10.2041C9.15816 35.3319 8.29082 34.4645 8.29082 33.4186C8.29082 32.3727 9.15816 31.5053 10.2041 31.5053H15.3061C16.352 31.5053 17.2194 32.3727 17.2194 33.4186C17.2194 34.4645 16.352 35.3319 15.3061 35.3319Z" fill="white"/>
<path d="M17.2176 33.4186C17.2176 34.4646 16.3503 35.3319 15.3044 35.3319H10.2023C9.15641 35.3319 8.28906 34.4646 8.28906 33.4186C8.28906 32.3727 9.15641 31.5054 10.2023 31.5054H15.3044C16.3503 31.5054 17.2176 32.3727 17.2176 33.4186Z" fill="white"/>
</svg>
