<svg width="1017" height="392" viewBox="0 0 1017 392" fill="none" xmlns="http://www.w3.org/2000/svg">
<path d="M49.2464 301.048C45.9075 314.441 32.3426 322.591 18.948 319.252C5.55903 315.913 -2.59168 302.347 0.748713 288.955C4.08618 275.56 17.6511 267.409 31.0415 270.748C44.4351 274.087 52.5854 287.654 49.2461 301.048L49.2463 301.048H49.2464Z" fill="#50AF95"/>
<path fill-rule="evenodd" clip-rule="evenodd" d="M28.1655 297.834C27.9888 297.847 27.0754 297.902 25.0381 297.902C23.4177 297.902 22.2672 297.853 21.8636 297.834C15.6014 297.559 10.9272 296.469 10.9272 295.163C10.9272 293.858 15.6014 292.77 21.8636 292.49V296.749C22.2731 296.778 23.4457 296.847 25.0661 296.847C27.0106 296.847 27.9843 296.766 28.1596 296.75V292.493C34.4085 292.771 39.0724 293.861 39.0724 295.163C39.0724 296.466 34.41 297.556 28.1596 297.833L28.1655 297.834ZM28.1655 292.052V288.241H36.8863V282.43H13.1428V288.241H21.8621V292.051C14.775 292.376 9.44531 293.78 9.44531 295.462C9.44531 297.145 14.775 298.547 21.8621 298.874V311.086H28.1641V298.87C35.235 298.544 40.5558 297.142 40.5558 295.461C40.5558 293.78 35.2394 292.378 28.1641 292.051L28.1655 292.052Z" fill="white"/>
<path d="M218.945 262.467C214.27 281.217 195.28 292.628 176.527 287.952C157.783 283.278 146.372 264.286 151.048 245.537C155.721 226.785 174.712 215.373 193.458 220.047C212.209 224.722 223.619 243.716 218.944 262.467L218.945 262.467H218.945Z" fill="#4A90E2"/>
<circle cx="167.525" cy="259.82" r="2.93858" fill="white"/>
<path fill-rule="evenodd" clip-rule="evenodd" d="M185.038 251.127H185.283C186.751 251.25 187.915 252.475 187.976 253.943C187.976 255.595 186.69 256.882 185.038 256.882C183.386 256.882 182.099 255.534 182.099 253.943C182.099 251.861 181.427 251.066 179.161 251.066C176.895 251.066 176.222 251.861 176.222 254.004V254.188C176.161 255.657 174.874 256.882 173.345 256.882C171.693 256.882 170.406 255.534 170.406 253.943C170.406 252.414 171.57 251.189 173.038 251.066H173.283C175.854 251.066 176.222 250.516 176.222 248.189C176.222 246.536 177.57 245.25 179.161 245.25C180.813 245.25 182.099 246.598 182.099 248.189C182.099 250.516 182.467 251.127 185.038 251.127ZM199.607 248.189C199.607 246.536 200.955 245.25 202.546 245.25C204.137 245.25 205.423 246.536 205.423 248.066C205.423 249.718 204.075 251.004 202.485 251.004C200.219 251.004 199.546 251.8 199.546 253.943V254.127C199.485 255.657 198.198 256.882 196.669 256.882H196.607C194.403 256.943 193.73 257.738 193.73 259.82V260.066C193.669 261.534 192.383 262.759 190.853 262.759C189.201 262.759 187.914 261.411 187.914 259.82C187.914 258.352 189.078 257.127 190.546 256.943C190.608 256.882 190.73 256.882 190.853 256.882C193.362 256.882 193.792 256.332 193.792 254.066V254.004C193.792 252.475 194.955 251.25 196.423 251.127H196.669C199.239 251.127 199.607 250.516 199.607 248.189Z" fill="white"/>
<circle cx="321" cy="184" r="20" fill="#13B5EC"/>
<path fill-rule="evenodd" clip-rule="evenodd" d="M322.664 180.002L327.164 177.363V182.64L322.664 180.002ZM327.164 191.308L321.164 194.826L315.164 191.308V185.152L321.164 188.67L327.164 185.152V191.308ZM315.164 177.363L319.664 180.002L315.164 182.64V177.363ZM321.914 181.258L326.414 183.896L321.914 186.534V181.258ZM320.414 186.534L315.914 183.896L320.414 181.258V186.534ZM326.414 176.107L321.164 179.122L315.914 176.107L321.164 172.966L326.414 176.107ZM313.664 175.605V192.062L321.164 196.333L328.664 192.062V175.605L321.164 171.333L313.664 175.605Z" fill="white"/>
<path d="M438 28C446.285 28 453 34.7163 453 43C453 51.285 446.285 58 438 58C429.716 58 423 51.2844 423 43C423 34.7163 429.716 28 438 28Z" fill="#F5AC37"/>
<path fill-rule="evenodd" clip-rule="evenodd" d="M430.855 51.2687V51.3247L430.853 51.3268V51.3362H437.359C438.095 51.3463 438.829 51.2876 439.553 51.158C440.315 51.0088 441.057 50.7739 441.765 50.4553C442.073 50.3131 442.367 50.1413 442.664 49.9679C442.739 49.924 442.815 49.88 442.891 49.8363C443.24 49.5873 443.575 49.3173 443.894 49.0304C444.766 48.242 445.441 47.2585 445.863 46.1616C445.891 46.0388 446.011 45.9598 446.135 45.9834H447.907C448.048 45.9834 448.094 45.9362 448.094 45.7769V44.6422C448.104 44.5335 448.104 44.4235 448.094 44.3148C448.094 44.2864 448.102 44.2581 448.109 44.2298C448.123 44.1734 448.138 44.1172 448.094 44.061H446.614C446.435 44.061 446.435 44.0421 446.435 43.8828C446.486 43.3117 446.486 42.7387 446.435 42.1676C446.426 41.9988 446.464 41.9988 446.594 41.9988H447.888C448.039 41.9988 448.095 41.961 448.095 41.8112V40.2735C448.09 40.1717 448.088 40.12 448.061 40.0939C448.033 40.067 447.979 40.067 447.87 40.067H446.192C446.061 40.0893 445.936 40.0008 445.912 39.8699C445.72 39.367 445.475 38.8857 445.18 38.4355C444.883 37.9913 444.548 37.5742 444.177 37.1887C443.683 36.696 443.129 36.268 442.527 35.9137C441.619 35.3865 440.626 35.0172 439.593 34.8262C439.091 34.7337 438.584 34.6777 438.074 34.6575H431.043C430.855 34.6575 430.855 34.6953 430.855 34.8451V39.8982C430.855 40.0764 430.818 40.0764 430.677 40.0764H428.662C428.512 40.0764 428.512 40.1041 428.512 40.2074V41.8571C428.512 42.0069 428.558 42.0069 428.671 42.0069H430.705C430.855 42.0069 430.855 42.0346 430.855 42.1473V43.9098C430.855 44.0691 430.808 44.0691 430.687 44.0691H428.512V45.8504C428.512 46.0003 428.558 46.0003 428.671 46.0003H430.705C430.855 46.0003 430.855 46.0185 430.855 46.1407V48.3439V49.0844V51.2687ZM443.802 39.9158C443.818 39.9576 443.818 40.0042 443.802 40.0467H443.847C443.828 40.1027 443.734 40.1216 443.734 40.1216H432.916C432.738 40.1216 432.738 40.0838 432.738 39.9434V36.6157C432.738 36.4935 432.756 36.4375 432.897 36.4375H437.931C438.467 36.4327 439.002 36.4888 439.525 36.6062C440.562 36.8519 441.526 37.3406 442.337 38.0311C442.499 38.152 442.644 38.2944 442.769 38.453C443.033 38.7156 443.266 39.0079 443.463 39.3251C443.594 39.5108 443.706 39.7085 443.802 39.9158ZM444.252 44.059H438.552H432.965C432.851 44.059 432.794 44.059 432.767 44.0309C432.74 44.0036 432.74 43.9498 432.74 43.8436V42.175C432.74 42.0434 432.778 41.9968 432.918 41.9968H444.262C444.384 41.9968 444.44 42.0434 444.44 42.1561C444.486 42.7366 444.486 43.3198 444.44 43.8997C444.431 44.059 444.374 44.059 444.252 44.059ZM443.803 46.0091C443.644 45.9915 443.483 45.9915 443.324 46.0091H432.927C432.787 46.0091 432.74 46.0091 432.74 46.1967V49.4502C432.74 49.6001 432.74 49.6379 432.927 49.6379H437.727C437.957 49.6554 438.186 49.6392 438.411 49.5913C439.108 49.5414 439.793 49.3902 440.446 49.1411C440.684 49.0587 440.914 48.9514 441.13 48.8225H441.196C442.321 48.2373 443.235 47.3179 443.811 46.1893C443.811 46.1893 443.877 46.0475 443.803 46.0104V46.0091Z" fill="#FEFEFD"/>
<circle cx="576" cy="139" r="40" fill="url(#paint0_linear_2990_274)"/>
<path d="M593.507 154.938L579.981 122.237C579.218 120.546 578.084 119.722 576.589 119.722H575.393C573.898 119.722 572.764 120.546 572.001 122.237L566.115 136.485H561.661C560.331 136.495 559.249 137.567 559.239 138.907V138.938C559.249 140.268 560.331 141.351 561.661 141.361H564.053L558.434 154.938C558.331 155.237 558.27 155.546 558.27 155.866C558.27 156.629 558.507 157.227 558.929 157.691C559.352 158.155 559.96 158.381 560.723 158.381C561.228 158.371 561.713 158.217 562.115 157.918C562.548 157.619 562.847 157.186 563.084 156.691L569.27 141.351H573.558C574.888 141.34 575.971 140.268 575.981 138.928V138.866C575.971 137.536 574.888 136.454 573.558 136.443H571.27L575.991 124.68L588.857 156.68C589.094 157.175 589.393 157.608 589.826 157.907C590.228 158.206 590.723 158.361 591.218 158.371C591.981 158.371 592.579 158.144 593.012 157.68C593.445 157.217 593.672 156.619 593.672 155.856C593.682 155.546 593.63 155.227 593.507 154.938Z" fill="white"/>
<path d="M462.246 240.048C458.907 253.441 445.343 261.591 431.948 258.252C418.559 254.913 410.408 241.347 413.749 227.955C417.086 214.56 430.651 206.409 444.042 209.748C457.435 213.087 465.585 226.654 462.246 240.048L462.246 240.048H462.246Z" fill="#2C7DF7"/>
<path d="M441.73 250.667C439.352 250.667 437.616 250.094 436.522 248.948C435.509 247.978 434.921 246.646 434.887 245.244C434.874 244.818 434.973 244.396 435.173 244.02C435.36 243.695 435.629 243.425 435.954 243.238C436.72 242.856 437.621 242.856 438.387 243.238C438.711 243.424 438.979 243.694 439.163 244.02C439.369 244.394 439.472 244.817 439.46 245.244C439.481 245.754 439.335 246.257 439.043 246.676C438.8 247.018 438.453 247.273 438.054 247.401C438.444 247.898 438.997 248.243 439.616 248.375C440.308 248.576 441.025 248.679 441.746 248.682C442.701 248.69 443.635 248.411 444.429 247.88C445.251 247.299 445.865 246.468 446.178 245.51C446.576 244.371 446.77 243.17 446.751 241.963C446.783 240.705 446.571 239.453 446.126 238.276C445.792 237.334 445.157 236.529 444.319 235.984C443.541 235.492 442.637 235.233 441.715 235.239C440.913 235.308 440.138 235.57 439.46 236.005L437.788 236.844V236.005L445.303 225.923H434.887V236.385C434.857 237.14 435.057 237.887 435.46 238.526C435.856 239.093 436.52 239.411 437.21 239.364C437.836 239.352 438.442 239.138 438.939 238.755C439.501 238.343 439.991 237.839 440.387 237.265C440.422 237.165 440.488 237.078 440.575 237.016C440.645 236.955 440.734 236.922 440.826 236.922C441.007 236.938 441.178 237.011 441.316 237.13C441.49 237.325 441.585 237.577 441.581 237.838C441.561 238.014 441.53 238.188 441.488 238.359C441.117 239.255 440.497 240.025 439.701 240.577C438.961 241.078 438.088 241.343 437.195 241.338C434.94 241.338 433.377 240.894 432.508 240.005C431.605 239.013 431.139 237.699 431.216 236.359V225.923H425.918V223.979H431.241V219.547L430.022 218.327V217.333H433.558L434.887 218.021V223.979L448.647 223.937L450.017 225.312L441.579 233.791C442.089 233.586 442.626 233.456 443.173 233.405C444.256 233.453 445.312 233.754 446.257 234.286C447.351 234.805 448.273 235.628 448.913 236.656C449.487 237.526 449.894 238.496 450.111 239.515C450.29 240.32 450.386 241.14 450.398 241.964C450.403 243.536 450.047 245.088 449.356 246.5C448.701 247.867 447.598 248.97 446.231 249.625C444.831 250.315 443.291 250.671 441.73 250.667Z" fill="white"/>
<circle cx="346" cy="362" r="30" fill="#00EF8B"/>
<rect x="350.68" y="357.32" width="8.46" height="8.46" fill="white"/>
<path d="M342.218 368.96C342.218 370.7 340.778 372.14 339.038 372.14C337.298 372.14 335.858 370.7 335.858 368.96C335.858 367.22 337.298 365.78 339.038 365.78H342.218V357.32H339.038C332.618 357.32 327.398 362.54 327.398 368.96C327.398 375.38 332.618 380.6 339.038 380.6C345.458 380.6 350.678 375.38 350.678 368.96V365.78H342.218V368.96Z" fill="white"/>
<path d="M353.863 353.06H363.403V344.6H353.863C347.443 344.6 342.223 349.82 342.223 356.24V357.32H350.683V356.24C350.683 354.5 352.123 353.06 353.863 353.06Z" fill="white"/>
<path d="M350.683 357.32H342.223V365.78H350.683V357.32Z" fill="#16FF99"/>
<circle cx="735" cy="51" r="25" fill="url(#paint1_linear_2990_274)"/>
<path fill-rule="evenodd" clip-rule="evenodd" d="M722.692 46.7332V58.4999H720.414V44.8332C720.416 44.3304 720.701 43.8717 721.151 43.6469C721.601 43.422 722.139 43.4693 722.542 43.7691L733.364 51.9166C733.697 52.167 733.892 52.5587 733.893 52.9749V58.4999H731.616V53.4491L722.692 46.7332ZM747.37 46.7332V58.4999H749.648V44.8332C749.645 44.331 749.359 43.8735 748.91 43.6494C748.46 43.4254 747.923 43.4729 747.52 43.7724L736.698 51.9166C736.366 52.167 736.17 52.5587 736.169 52.9749V58.4999H738.447V53.4491L747.37 46.7332Z" fill="white"/>
<circle cx="767" cy="179" r="20" fill="#2A5ADA"/>
<path fill-rule="evenodd" clip-rule="evenodd" d="M764.441 167.073L766.888 165.667L769.334 167.073L776.001 170.927L778.447 172.333V185.667L776.001 187.073L769.395 190.927L766.949 192.333L764.502 190.927L757.775 187.073L755.328 185.667V172.333L757.775 170.927L764.441 167.073ZM760.222 175.147V182.853L766.889 186.706L773.555 182.853V175.147L766.889 171.294L760.222 175.147Z" fill="white"/>
<path d="M714.493 327.095C707.815 353.881 680.685 370.183 653.896 363.503C627.118 356.825 610.817 329.694 617.497 302.91C624.172 276.121 651.302 259.818 678.083 266.496C704.87 273.174 721.171 300.309 714.492 327.096L714.493 327.095H714.493Z" fill="#F3BA2F"/>
<path fill-rule="evenodd" clip-rule="evenodd" d="M665.999 296.733L653.052 309.681L653.052 309.68L645.519 302.147L665.999 281.667L686.486 302.153L678.952 309.686L665.999 296.733ZM640.198 307.465L632.664 315L640.197 322.532L647.731 314.998L640.198 307.465ZM653.049 320.32L665.997 333.267L678.95 320.314L686.487 327.844L686.483 327.848L665.997 348.333L645.517 327.853L645.506 327.843L653.049 320.32ZM691.799 307.47L684.266 315.003L691.799 322.536L699.332 315.003L691.799 307.47Z" fill="white"/>
<path d="M673.64 314.996H673.644L666 307.352L660.35 313L659.701 313.649L658.362 314.988L658.352 314.999L658.362 315.01L666 322.648L673.644 315.004L673.648 315L673.641 314.996" fill="white"/>
<circle cx="937" cy="168" r="45" fill="url(#paint2_linear_2990_274)"/>
<path d="M921.625 144.181L916.75 149.056V168.375L921.625 173.25H940.944V183H931.375V178.125H916.75V187.875L921.625 192.75H950.694L955.569 187.875V168.375L950.694 163.5H931.375V153.75H941.125V158.625H955.75V148.875L950.875 144H921.625V144.181Z" fill="white"/>
<path d="M959.5 392C977.511 392 992 377.511 992 359.5C992 341.489 977.511 327 959.5 327C941.489 327 927 341.489 927 359.5C927 377.511 941.489 392 959.5 392Z" fill="#2775CA"/>
<path d="M968.439 364.646C968.439 359.906 965.595 358.281 959.907 357.604C955.845 357.063 955.032 355.979 955.032 354.083C955.032 352.187 956.387 350.969 959.095 350.969C961.532 350.969 962.887 351.781 963.564 353.813C963.699 354.219 964.105 354.49 964.512 354.49H966.678C967.22 354.49 967.626 354.083 967.626 353.542V353.406C967.084 350.427 964.647 348.125 961.532 347.854V344.604C961.532 344.063 961.126 343.656 960.449 343.521H958.418C957.876 343.521 957.47 343.927 957.334 344.604V347.719C953.272 348.261 950.699 350.969 950.699 354.354C950.699 358.823 953.407 360.583 959.095 361.261C962.887 361.938 964.105 362.75 964.105 364.917C964.105 367.084 962.209 368.573 959.637 368.573C956.116 368.573 954.897 367.083 954.491 365.052C954.355 364.511 953.949 364.24 953.543 364.24H951.241C950.699 364.24 950.293 364.646 950.293 365.188V365.323C950.834 368.708 953.001 371.146 957.47 371.823V375.073C957.47 375.615 957.876 376.021 958.553 376.156H960.584C961.126 376.156 961.532 375.75 961.668 375.073V371.823C965.73 371.146 968.439 368.302 968.439 364.646Z" fill="white"/>
<path fill-rule="evenodd" clip-rule="evenodd" d="M940.541 352.864C936.614 363.292 942.031 375.073 952.593 378.864C953 379.136 953.406 379.677 953.406 380.083V381.979C953.406 382.25 953.406 382.386 953.27 382.521C953.135 383.062 952.593 383.333 952.052 383.062C944.468 380.625 938.645 374.802 936.208 367.219C932.145 354.354 939.187 340.677 952.052 336.614C952.187 336.479 952.458 336.479 952.593 336.479C953.135 336.614 953.406 337.021 953.406 337.562V339.458C953.406 340.135 953.135 340.542 952.593 340.812C947.041 342.844 942.573 347.177 940.541 352.864ZM965.728 337.156C965.864 336.614 966.405 336.344 966.947 336.614C974.395 339.052 980.353 344.875 982.791 352.594C986.853 365.458 979.812 379.136 966.947 383.198C966.812 383.333 966.541 383.333 966.405 383.333C965.864 383.198 965.593 382.792 965.593 382.25V380.354C965.593 379.677 965.864 379.271 966.405 379C971.957 376.969 976.426 372.636 978.457 366.948C982.385 356.521 976.968 344.739 966.405 340.948C965.999 340.677 965.593 340.136 965.593 339.594V337.698C965.593 337.427 965.593 337.292 965.728 337.156Z" fill="white"/>
<path d="M825 295C838.805 295 850 306.195 850 320C850 333.805 838.805 345 825 345C811.195 345 800 333.805 800 320C800 306.195 811.195 295 825 295Z" fill="#FFCCD5"/>
<path fill-rule="evenodd" clip-rule="evenodd" d="M829.54 307.565C832.17 307.565 834.35 308.43 836.06 310.16C837.78 311.89 838.645 314.08 838.645 316.73C838.645 319.39 837.78 321.575 836.07 323.305C834.36 325.035 832.18 325.9 829.55 325.9H824.615V332.93H818.75V329.085C821.105 328.34 822.81 326.135 822.81 323.535C822.81 320.935 821.105 318.73 818.75 317.985V314.36V307.565H829.54ZM828.629 321.13C829.819 321.13 830.789 320.715 831.549 319.895C832.309 319.075 832.694 318.025 832.689 316.745C832.689 315.465 832.309 314.415 831.549 313.595C830.784 312.775 829.809 312.36 828.629 312.36H824.604V321.13H828.629Z" fill="black"/>
<path d="M815.719 327.83C818.069 327.83 819.969 325.925 819.969 323.58C819.969 321.23 818.064 319.33 815.719 319.33C813.374 319.33 811.469 321.235 811.469 323.58C811.469 325.93 813.374 327.83 815.719 327.83Z" fill="#FF3465"/>
<circle cx="1002.12" cy="14.875" r="13.375" fill="white"/>
<path fill-rule="evenodd" clip-rule="evenodd" d="M987 15C987 6.71573 993.716 0 1002 0H1002.09C1006.05 0.0115422 1009.85 1.59838 1012.65 4.41143C1015.45 7.22448 1017.01 11.0333 1017 15C1017 23.2843 1010.28 30 1002 30C993.716 30 987 23.2843 987 15ZM1000.69 20.7749L1002.25 15.5085L1004.69 14.8184L1005.19 13.0751L1002.8 13.8015L1005.34 5.15742V5.0194C1005.34 4.90764 1005.29 4.80197 1005.21 4.72567C1005.12 4.64937 1005.02 4.6087 1004.9 4.61262H1001.67C1001.42 4.60486 1001.19 4.76965 1001.13 5.01214L998.112 15.2543L995.714 15.9807L995.17 17.6514L997.567 16.925L995.424 24.2252H1008.21C1008.46 24.2357 1008.69 24.0698 1008.75 23.8257L1009.48 21.3196V21.1816C1009.48 21.0699 1009.43 20.9642 1009.35 20.8879C1009.26 20.8116 1009.16 20.7709 1009.04 20.7749H1000.69Z" fill="#345D9D"/>
<defs>
<linearGradient id="paint0_linear_2990_274" x1="580.783" y1="84.1458" x2="521.263" y2="134.226" gradientUnits="userSpaceOnUse">
<stop stop-color="#B6509E"/>
<stop offset="1" stop-color="#2EBAC6"/>
</linearGradient>
<linearGradient id="paint1_linear_2990_274" x1="710" y1="26" x2="710" y2="76" gradientUnits="userSpaceOnUse">
<stop stop-color="#4FA89B"/>
<stop offset="1" stop-color="#6ACEBB"/>
</linearGradient>
<linearGradient id="paint2_linear_2990_274" x1="879.661" y1="167.028" x2="935.731" y2="230.298" gradientUnits="userSpaceOnUse">
<stop stop-color="#00ADEF"/>
<stop offset="1" stop-color="#0084FF"/>
</linearGradient>
</defs>
</svg>
