<svg width="56" height="55" viewBox="0 0 56 55" fill="none" xmlns="http://www.w3.org/2000/svg">
<path d="M33.5392 15.8299C32.1677 15.1164 30.5684 14.9934 29.1113 15.4831L19.4989 18.0587C17.9818 18.366 16.6583 19.2721 15.8273 20.5758C15.1138 21.9472 14.9908 23.5465 15.4833 25.0139L18.0589 34.6262C18.3661 36.1433 19.2723 37.4668 20.5759 38.2977C21.9474 39.0112 23.5467 39.1342 25.0141 38.6418L34.6265 36.0661C36.1333 35.7617 37.4671 34.8527 38.2981 33.5491C39.0013 32.1804 39.1346 30.5784 38.6421 29.1109L36.0665 19.4987C35.749 17.9843 34.8428 16.6608 33.5392 15.8299Z" fill="url(#paint0_linear_3077_2358)"/>
<g opacity="0.5" filter="url(#filter0_f_3077_2358)">
<path d="M28.6866 18.539L21.4376 20.561C18.8083 21.2944 17.655 23.0752 18.302 25.3948L20.4934 33.2512C21.1511 35.6088 23.0511 36.5051 25.6805 35.7717L32.9294 33.7497C35.6012 33.0045 36.7197 31.2662 36.0621 28.9085L33.8707 21.0521C33.2236 18.7325 31.3584 17.7937 28.6866 18.539Z" fill="#30AD31"/>
</g>
<g filter="url(#filter1_b_3077_2358)">
<path d="M43.2169 22.436C41.9778 21.301 40.3332 20.722 38.6656 20.8262H27.8488C26.1695 20.722 24.525 21.301 23.2858 22.436C22.1509 23.6751 21.5718 25.3196 21.676 26.9989V37.8156C21.5718 39.4948 22.1509 41.1393 23.2858 42.3785C24.525 43.5134 26.1695 44.0925 27.8488 43.9883H38.6656C40.3332 44.0925 41.9893 43.5134 43.2285 42.3785C44.3519 41.1393 44.9425 39.4948 44.8383 37.8156V26.9989C44.931 25.3196 44.3519 23.6751 43.2169 22.436Z" fill="#72DC60" fill-opacity="0.35"/>
</g>
<g filter="url(#filter2_bd_3077_2358)">
<mask id="path-4-inside-1_3077_2358" fill="white">
<path d="M39.8704 30.2072L32.0763 38.0244C31.6709 38.4181 31.1382 38.6382 30.5823 38.6382H27.8607C27.7102 38.6382 27.5712 38.5803 27.467 38.476C27.3627 38.3718 27.3164 38.2328 27.3164 38.0823L27.3859 35.3376C27.3975 34.7933 27.6175 34.2837 27.9997 33.9015L33.5239 28.3774C33.6165 28.2847 33.7787 28.2847 33.8713 28.3774L35.8054 30.2998C35.9328 30.4272 36.1181 30.5083 36.3149 30.5083C36.7434 30.5083 37.0793 30.1609 37.0793 29.7439C37.0793 29.5355 36.9982 29.3502 36.8708 29.2112C36.8361 29.1649 34.9947 27.3351 34.9947 27.3351C34.8789 27.2193 34.8789 27.0224 34.9947 26.9066L35.7706 26.1191C36.4887 25.4011 37.6468 25.4011 38.3648 26.1191L39.8704 27.6246C40.5768 28.3311 40.5768 29.4892 39.8704 30.2072Z"/>
</mask>
<path d="M39.8704 30.2072L32.0763 38.0244C31.6709 38.4181 31.1382 38.6382 30.5823 38.6382H27.8607C27.7102 38.6382 27.5712 38.5803 27.467 38.476C27.3627 38.3718 27.3164 38.2328 27.3164 38.0823L27.3859 35.3376C27.3975 34.7933 27.6175 34.2837 27.9997 33.9015L33.5239 28.3774C33.6165 28.2847 33.7787 28.2847 33.8713 28.3774L35.8054 30.2998C35.9328 30.4272 36.1181 30.5083 36.3149 30.5083C36.7434 30.5083 37.0793 30.1609 37.0793 29.7439C37.0793 29.5355 36.9982 29.3502 36.8708 29.2112C36.8361 29.1649 34.9947 27.3351 34.9947 27.3351C34.8789 27.2193 34.8789 27.0224 34.9947 26.9066L35.7706 26.1191C36.4887 25.4011 37.6468 25.4011 38.3648 26.1191L39.8704 27.6246C40.5768 28.3311 40.5768 29.4892 39.8704 30.2072Z" fill="url(#paint1_linear_3077_2358)"/>
<path d="M32.0763 38.0244L32.2156 38.1679L32.2179 38.1656L32.0763 38.0244ZM27.3164 38.0823L27.1164 38.0772V38.0823H27.3164ZM27.3859 35.3376L27.5858 35.3426L27.5858 35.3418L27.3859 35.3376ZM27.9997 33.9015L28.1411 34.043L27.9997 33.9015ZM33.5239 28.3774L33.3825 28.236L33.5239 28.3774ZM33.8713 28.3774L33.7299 28.5188L33.7303 28.5192L33.8713 28.3774ZM35.8054 30.2998L35.9468 30.1584L35.9464 30.158L35.8054 30.2998ZM36.8708 29.2112L36.7108 29.3312L36.7168 29.3391L36.7234 29.3464L36.8708 29.2112ZM34.9947 27.3351L34.8533 27.4765L34.8537 27.477L34.9947 27.3351ZM34.9947 26.9066L35.1361 27.048L35.1372 27.047L34.9947 26.9066ZM35.7706 26.1191L35.6292 25.9777L35.6282 25.9787L35.7706 26.1191ZM38.3648 26.1191L38.2234 26.2605L38.3648 26.1191ZM39.8704 27.6246L40.0118 27.4832L39.8704 27.6246ZM39.7287 30.066L31.9346 37.8832L32.2179 38.1656L40.012 30.3484L39.7287 30.066ZM31.9369 37.8809C31.5679 38.2394 31.0847 38.4382 30.5823 38.4382V38.8382C31.1916 38.8382 31.774 38.5969 32.2156 38.1678L31.9369 37.8809ZM30.5823 38.4382H27.8607V38.8382H30.5823V38.4382ZM27.8607 38.4382C27.7629 38.4382 27.6749 38.4011 27.6084 38.3346L27.3255 38.6175C27.4675 38.7594 27.6574 38.8382 27.8607 38.8382V38.4382ZM27.6084 38.3346C27.5492 38.2754 27.5164 38.1915 27.5164 38.0823H27.1164C27.1164 38.2742 27.1763 38.4682 27.3255 38.6175L27.6084 38.3346ZM27.5163 38.0874L27.5858 35.3426L27.186 35.3325L27.1165 38.0772L27.5163 38.0874ZM27.5858 35.3418C27.5963 34.8495 27.7951 34.389 28.1411 34.043L27.8583 33.7601C27.4399 34.1784 27.1986 34.737 27.1859 35.3333L27.5858 35.3418ZM28.1411 34.043L33.6653 28.5188L33.3825 28.236L27.8583 33.7601L28.1411 34.043ZM33.6653 28.5188C33.67 28.5141 33.6809 28.5079 33.6976 28.5079C33.7144 28.5079 33.7252 28.5141 33.7299 28.5188L34.0127 28.236C33.842 28.0652 33.5532 28.0652 33.3825 28.236L33.6653 28.5188ZM33.7303 28.5192L35.6644 30.4417L35.9464 30.158L34.0123 28.2355L33.7303 28.5192ZM35.664 30.4413C35.8284 30.6057 36.0644 30.7083 36.3149 30.7083V30.3083C36.1717 30.3083 36.0371 30.2487 35.9468 30.1584L35.664 30.4413ZM36.3149 30.7083C36.8559 30.7083 37.2793 30.2693 37.2793 29.7439H36.8793C36.8793 30.0524 36.631 30.3083 36.3149 30.3083V30.7083ZM37.2793 29.7439C37.2793 29.482 37.1771 29.2493 37.0183 29.0761L36.7234 29.3464C36.8194 29.4511 36.8793 29.589 36.8793 29.7439H37.2793ZM37.0308 29.0912C37.0191 29.0755 36.9975 29.0535 36.9879 29.0436C36.9718 29.0269 36.9497 29.0043 36.9227 28.9769C36.8686 28.922 36.7935 28.8464 36.7047 28.7573C36.5269 28.579 36.2933 28.3458 36.0609 28.1141C35.8285 27.8825 35.5972 27.6522 35.424 27.4799C35.3374 27.3938 35.2653 27.3221 35.2149 27.272C35.1897 27.2469 35.1699 27.2272 35.1564 27.2138C35.1496 27.2071 35.1444 27.2019 35.141 27.1985C35.1392 27.1968 35.1379 27.1954 35.137 27.1946C35.1366 27.1941 35.1362 27.1938 35.136 27.1936C35.1359 27.1934 35.1358 27.1934 35.1358 27.1933C35.1357 27.1933 35.1357 27.1933 35.1357 27.1932C35.1357 27.1932 35.1357 27.1932 34.9947 27.3351C34.8537 27.477 34.8537 27.477 34.8537 27.477C34.8538 27.477 34.8538 27.477 34.8538 27.477C34.8539 27.4771 34.8539 27.4772 34.8541 27.4773C34.8543 27.4775 34.8546 27.4778 34.8551 27.4783C34.8559 27.4792 34.8573 27.4805 34.859 27.4822C34.8625 27.4857 34.8676 27.4908 34.8744 27.4975C34.8879 27.5109 34.9077 27.5306 34.9329 27.5556C34.9833 27.6058 35.0553 27.6774 35.1419 27.7635C35.3151 27.9358 35.5463 28.1659 35.7785 28.3974C36.0108 28.629 36.2441 28.8619 36.4214 29.0397C36.5101 29.1287 36.5845 29.2036 36.6378 29.2577C36.6645 29.2848 36.6855 29.3062 36.7002 29.3214C36.7214 29.3434 36.7183 29.3411 36.7108 29.3312L37.0308 29.0912ZM35.1361 27.1937C35.0984 27.156 35.0984 27.0857 35.1361 27.048L34.8533 26.7652C34.6594 26.9591 34.6594 27.2826 34.8533 27.4765L35.1361 27.1937ZM35.1372 27.047L35.9131 26.2595L35.6282 25.9787L34.8522 26.7662L35.1372 27.047ZM35.9121 26.2605C36.552 25.6206 37.5835 25.6206 38.2234 26.2605L38.5062 25.9777C37.7101 25.1815 36.4253 25.1815 35.6292 25.9777L35.9121 26.2605ZM38.2234 26.2605L39.7289 27.766L40.0118 27.4832L38.5062 25.9777L38.2234 26.2605ZM39.7289 27.766C40.3566 28.3938 40.3583 29.4261 39.7278 30.0669L40.0129 30.3475C40.7953 29.5522 40.797 28.2684 40.0118 27.4832L39.7289 27.766Z" fill="url(#paint2_linear_3077_2358)" fill-opacity="0.5" mask="url(#path-4-inside-1_3077_2358)"/>
</g>
<defs>
<filter id="filter0_f_3077_2358" x="0.125" y="0.28833" width="54.1211" height="53.7329" filterUnits="userSpaceOnUse" color-interpolation-filters="sRGB">
<feFlood flood-opacity="0" result="BackgroundImageFix"/>
<feBlend mode="normal" in="SourceGraphic" in2="BackgroundImageFix" result="shape"/>
<feGaussianBlur stdDeviation="9" result="effect1_foregroundBlur_3077_2358"/>
</filter>
<filter id="filter1_b_3077_2358" x="-2.33594" y="-3.18579" width="71.1875" height="71.186" filterUnits="userSpaceOnUse" color-interpolation-filters="sRGB">
<feFlood flood-opacity="0" result="BackgroundImageFix"/>
<feGaussianBlur in="BackgroundImageFix" stdDeviation="12"/>
<feComposite in2="SourceAlpha" operator="in" result="effect1_backgroundBlur_3077_2358"/>
<feBlend mode="normal" in="SourceGraphic" in2="effect1_backgroundBlur_3077_2358" result="shape"/>
</filter>
<filter id="filter2_bd_3077_2358" x="12.3164" y="10.5806" width="43.082" height="43.0576" filterUnits="userSpaceOnUse" color-interpolation-filters="sRGB">
<feFlood flood-opacity="0" result="BackgroundImageFix"/>
<feGaussianBlur in="BackgroundImageFix" stdDeviation="7.5"/>
<feComposite in2="SourceAlpha" operator="in" result="effect1_backgroundBlur_3077_2358"/>
<feColorMatrix in="SourceAlpha" type="matrix" values="0 0 0 0 0 0 0 0 0 0 0 0 0 0 0 0 0 0 127 0" result="hardAlpha"/>
<feOffset dx="5" dy="5"/>
<feGaussianBlur stdDeviation="5"/>
<feColorMatrix type="matrix" values="0 0 0 0 0.454902 0 0 0 0 0.870588 0 0 0 0 0.376471 0 0 0 0.5 0"/>
<feBlend mode="normal" in2="effect1_backgroundBlur_3077_2358" result="effect2_dropShadow_3077_2358"/>
<feBlend mode="normal" in="SourceGraphic" in2="effect2_dropShadow_3077_2358" result="shape"/>
</filter>
<linearGradient id="paint0_linear_3077_2358" x1="34.6043" y1="13.9998" x2="24.6291" y2="34.8837" gradientUnits="userSpaceOnUse">
<stop stop-color="#9BF763"/>
<stop offset="1" stop-color="#26AB5B"/>
</linearGradient>
<linearGradient id="paint1_linear_3077_2358" x1="39.4726" y1="27.9385" x2="24.8985" y2="28.4146" gradientUnits="userSpaceOnUse">
<stop stop-color="white"/>
<stop offset="1" stop-color="white" stop-opacity="0.2"/>
</linearGradient>
<linearGradient id="paint2_linear_3077_2358" x1="28.7258" y1="29.9608" x2="39.8358" y2="30.0222" gradientUnits="userSpaceOnUse">
<stop stop-color="white"/>
<stop offset="1" stop-color="white" stop-opacity="0"/>
</linearGradient>
</defs>
</svg>
