<svg width="26" height="16" viewBox="0 0 26 16" fill="none" xmlns="http://www.w3.org/2000/svg">
<g clip-path="url(#clip0_117_22392)">
<path d="M24.2903 13.8996C23.9304 13.4996 23.3906 11.5996 23.3906 7.99961C23.3906 4.39961 23.9304 2.39961 24.2003 2.09961C24.5602 2.49961 25.01 4.59961 25.01 7.99961C25.1 11.5996 24.5602 13.4996 24.2903 13.8996Z" stroke="white" stroke-width="2" stroke-miterlimit="10" stroke-linecap="round" stroke-linejoin="round"/>
<path d="M18.4415 14.6004C16.8221 14.6004 15.4727 11.6004 15.4727 8.00039C15.4727 5.50039 16.1024 3.20039 17.092 2.10039C17.5419 1.60039 17.9917 1.40039 18.4415 1.40039C19.1612 1.40039 19.9709 2.10039 20.5107 3.20039C21.1405 4.50039 21.5003 6.20039 21.5003 8.00039C21.5003 11.6004 20.0609 14.6004 18.4415 14.6004Z" stroke="white" stroke-width="2" stroke-miterlimit="10" stroke-linecap="round" stroke-linejoin="round"/>
<path d="M7.10605 15C3.68736 15 0.898438 11.9 0.898438 8C0.898438 6.1 1.5282 4.4 2.69775 3C3.8673 1.7 5.48667 1 7.10605 1C8.81539 1 10.3448 1.7 11.5144 3.1C12.6839 4.4 13.3137 6.2 13.3137 8.1C13.4036 11.9 10.5247 15 7.10605 15Z" stroke="white" stroke-width="2" stroke-miterlimit="10" stroke-linecap="round" stroke-linejoin="round"/>
</g>
<defs>
<clipPath id="clip0_117_22392">
<rect width="26" height="16" fill="white"/>
</clipPath>
</defs>
</svg>
