<svg width="56" height="50" viewBox="0 0 56 50" fill="none" xmlns="http://www.w3.org/2000/svg">
<path opacity="0.4" d="M55.2644 13.1579V28.9474C55.2644 38.1579 50.0012 42.1053 42.1065 42.1053H23.0012C23.4486 40.8684 23.6854 39.5526 23.6854 38.1579C23.6854 31.6316 18.396 26.3158 11.8433 26.3158C8.13281 26.3158 4.79071 28.0526 2.63281 30.7368V13.1579C2.63281 3.94737 7.89597 0 15.7907 0H42.1065C50.0012 0 55.2644 3.94737 55.2644 13.1579Z" fill="#111111"/>
<path d="M28.9461 27.6315C32.5796 27.6315 35.5251 24.686 35.5251 21.0526C35.5251 17.4191 32.5796 14.4736 28.9461 14.4736C25.3127 14.4736 22.3672 17.4191 22.3672 21.0526C22.3672 24.686 25.3127 27.6315 28.9461 27.6315Z" fill="#111111"/>
<path d="M46.0518 28.2896C44.9729 28.2896 44.0781 27.3949 44.0781 26.3159V15.7896C44.0781 14.7107 44.9729 13.8159 46.0518 13.8159C47.1308 13.8159 48.0255 14.7107 48.0255 15.7896V26.3159C48.0255 27.3949 47.1308 28.2896 46.0518 28.2896Z" fill="#111111"/>
<path d="M11.8421 26.3158C8.13158 26.3158 4.78947 28.0526 2.63158 30.7368C0.973684 32.7631 0 35.3421 0 38.1579C0 44.7105 5.31579 50 11.8421 50C17 50 21.3947 46.7105 23 42.1053C23.4473 40.8684 23.6842 39.5526 23.6842 38.1579C23.6842 31.6316 18.3947 26.3158 11.8421 26.3158ZM18.842 43.3159C18.7631 43.4737 18.6578 43.6579 18.5263 43.7895L16.3947 45.8947C16.1315 46.1842 15.7631 46.3157 15.3947 46.3157C14.9999 46.3157 14.6316 46.1842 14.3685 45.8947C13.8948 45.4474 13.8421 44.7368 14.1316 44.2105H8.18417C6.28943 44.2105 4.73681 42.6579 4.73681 40.7368V40.4474C4.73681 39.6316 5.39467 39 6.18415 39C6.97362 39 7.63164 39.6316 7.63164 40.4474V40.7368C7.63164 41.0526 7.86838 41.3158 8.18417 41.3158H14.1316C13.8421 40.7632 13.8948 40.0789 14.3685 39.6052C14.9211 39.0526 15.8421 39.0526 16.3947 39.6052L18.5263 41.7368C18.6578 41.8684 18.7631 42.0263 18.842 42.2105C18.9736 42.5526 18.9736 42.9474 18.842 43.3159ZM18.9474 35.8684C18.9474 36.6842 18.2895 37.3158 17.5001 37.3158C16.7106 37.3158 16.0526 36.6842 16.0526 35.8684V35.579C16.0526 35.2632 15.8158 35 15.5 35H9.55264C9.84212 35.5526 9.78942 36.2369 9.31573 36.7106C9.05257 36.9737 8.68427 37.1315 8.28954 37.1315C7.92112 37.1315 7.55268 36.9737 7.28953 36.7106L5.15795 34.579C5.02637 34.4474 4.92112 34.2895 4.84218 34.1053C4.7106 33.7632 4.7106 33.3684 4.84218 32.9999C4.92112 32.8421 5.02637 32.6579 5.15795 32.5263L7.28953 30.4211C7.84216 29.8421 8.7631 29.8421 9.31573 30.4211C9.78942 30.8684 9.84212 31.579 9.55264 32.1053H15.5C17.3948 32.1053 18.9474 33.658 18.9474 35.579V35.8684Z" fill="#111111"/>
</svg>
