<svg width="28" height="26" viewBox="0 0 28 26" fill="none" xmlns="http://www.w3.org/2000/svg">
<path opacity="0.4" d="M26.9235 10.8628L25.5825 16.5826C24.4331 21.5223 22.1616 23.5201 17.8923 23.1096C17.2081 23.0549 16.4692 22.9317 15.6756 22.7402L13.3767 22.1928C7.67065 20.8382 5.90547 18.0193 7.24646 12.2996L8.58746 6.56614C8.86113 5.40304 9.18953 4.39045 9.60004 3.55575C11.201 0.244312 13.9241 -0.645123 18.4944 0.435882L20.7796 0.969544C26.513 2.31054 28.2645 5.14305 26.9235 10.8628Z" fill="#4541FE"/>
<path d="M17.89 23.1098C17.0416 23.6845 15.9743 24.1634 14.6743 24.5876L12.5123 25.2992C7.07992 27.0507 4.22005 25.5865 2.45486 20.1541L0.703356 14.7491C-1.04815 9.31671 0.402316 6.44315 5.83471 4.69165L7.99672 3.9801C8.55775 3.80221 9.09141 3.65169 9.59771 3.55591C9.1872 4.39061 8.85879 5.4032 8.58512 6.5663L7.24412 12.2997C5.90313 18.0195 7.66832 20.8383 13.3744 22.193L15.6732 22.7403C16.4669 22.9319 17.2058 23.0551 17.89 23.1098Z" fill="#4541FE"/>
<path d="M21.2173 10.9583C21.1352 10.9583 21.0531 10.9446 20.9573 10.9309L14.3207 9.24781C13.7734 9.11097 13.445 8.54994 13.5818 8.0026C13.7186 7.45525 14.2797 7.12685 14.827 7.26368L21.4636 8.94677C22.0109 9.0836 22.3393 9.64463 22.2025 10.192C22.093 10.6435 21.6688 10.9583 21.2173 10.9583Z" fill="#4541FE"/>
<path d="M17.2033 15.5834C17.1212 15.5834 17.0391 15.5697 16.9433 15.556L12.9613 14.5435C12.414 14.4066 12.0856 13.8456 12.2224 13.2983C12.3593 12.7509 12.9203 12.4225 13.4676 12.5593L17.4496 13.5719C17.9969 13.7088 18.3253 14.2698 18.1885 14.8171C18.079 15.2824 17.6685 15.5834 17.2033 15.5834Z" fill="#4541FE"/>
</svg>
