<svg width="50" height="50" viewBox="0 0 50 50" fill="none" xmlns="http://www.w3.org/2000/svg">
<rect width="50" height="50" rx="25" fill="url(#paint0_linear_101_83)"/>
<mask id="mask0_101_83" style="mask-type:luminance" maskUnits="userSpaceOnUse" x="0" y="0" width="50" height="50">
<rect width="50" height="50" rx="25" fill="white"/>
</mask>
<g mask="url(#mask0_101_83)">
<g filter="url(#filter0_f_101_83)">
<rect x="46.7368" y="38.9585" width="27.7778" height="3.19444" rx="1.59722" transform="rotate(-90 46.7368 38.9585)" fill="#C4FDF0"/>
</g>
<g filter="url(#filter1_f_101_83)">
<rect x="46.7368" y="16.5972" width="5.41667" height="3.19444" rx="1.59722" transform="rotate(-90 46.7368 16.5972)" fill="#C4FDF0"/>
</g>
<g filter="url(#filter2_f_101_83)">
<rect x="0.067627" y="38.9585" width="27.7778" height="3.19444" rx="1.59722" transform="rotate(-90 0.067627 38.9585)" fill="#C4FDF0"/>
</g>
<g filter="url(#filter3_f_101_83)">
<rect x="0.067627" y="16.5972" width="5.41667" height="3.19444" rx="1.59722" transform="rotate(-90 0.067627 16.5972)" fill="#C4FDF0"/>
</g>
<g filter="url(#filter4_f_101_83)">
<rect x="7.22119" width="35.5556" height="4.02778" rx="2.01389" fill="#C4FDF0"/>
</g>
</g>
<path fill-rule="evenodd" clip-rule="evenodd" d="M25.0733 9.5835C26.2427 9.5835 27.3669 10.0206 28.2257 10.8021L28.3938 10.963L29.5034 12.0726C29.8915 12.4586 30.4029 12.6923 30.9441 12.7354L31.1255 12.7427H32.7141C35.239 12.7427 37.2976 14.7396 37.3965 17.2403L37.4002 17.4288V19.0166C37.4005 19.564 37.5957 20.0913 37.9456 20.5039L38.0679 20.6371L39.1775 21.7467C40.062 22.6263 40.5594 23.8222 40.5594 25.0696C40.5594 26.239 40.1223 27.3632 39.3408 28.222L39.1799 28.3901L38.0703 29.4997C37.6843 29.8879 37.4506 30.3992 37.4075 30.9405L37.4002 31.1219V32.7104C37.4002 35.2354 35.4032 37.2939 32.9025 37.3928L32.7141 37.3966H31.1262C30.5789 37.3969 30.0516 37.592 29.6389 37.9419L29.5058 38.0643L28.3962 39.1739C27.5166 40.0584 26.3207 40.5557 25.0733 40.5557C23.9038 40.5557 22.7796 40.1186 21.9209 39.3371L21.7527 39.1762L20.6431 38.0666C20.255 37.6807 19.7437 37.447 19.2024 37.4038L19.021 37.3966H17.4325C14.9075 37.3966 12.849 35.3996 12.75 32.8989L12.7463 32.7104L12.7463 31.1226C12.746 30.5752 12.5509 30.0479 12.2009 29.6353L12.0786 29.5021L10.969 28.3925C10.0845 27.5129 9.58716 26.317 9.58716 25.0696C9.58716 23.9002 10.0243 22.776 10.8058 21.9172L10.9667 21.7491L12.0763 20.6395C12.4622 20.2513 12.6959 19.74 12.7391 19.1987L12.7463 19.0173V17.4288L12.75 17.2403C12.8464 14.8037 14.8032 12.8454 17.2392 12.7466L17.4325 12.7427L19.0203 12.7427C19.5677 12.7423 20.0949 12.5472 20.5076 12.1973L20.6408 12.075L21.7504 10.9654C22.6299 10.0808 23.8259 9.5835 25.0733 9.5835Z" fill="url(#paint1_linear_101_83)"/>
<path d="M28.2257 10.8021L28.5714 10.4407L28.5622 10.4323L28.2257 10.8021ZM28.3938 10.963L28.7474 10.6094L28.7395 10.6017L28.3938 10.963ZM29.5034 12.0726L29.1498 12.4261L29.1508 12.4271L29.5034 12.0726ZM30.9441 12.7354L30.9044 13.2338C30.911 13.2343 30.9176 13.2347 30.9241 13.235L30.9441 12.7354ZM31.1255 12.7427L31.1055 13.2423C31.1122 13.2425 31.1189 13.2427 31.1255 13.2427L31.1255 12.7427ZM37.3965 17.2403L37.8965 17.2305L37.8961 17.2206L37.3965 17.2403ZM37.4002 17.4288L37.9003 17.4288L37.9001 17.4189L37.4002 17.4288ZM37.4002 19.0166L36.9002 19.0166L36.9002 19.0169L37.4002 19.0166ZM37.9456 20.5039L37.5643 20.8273C37.5685 20.8323 37.5729 20.8373 37.5774 20.8422L37.9456 20.5039ZM38.0679 20.6371L37.6997 20.9753C37.7045 20.9805 37.7094 20.9857 37.7144 20.9907L38.0679 20.6371ZM39.1775 21.7467L38.824 22.1003L38.825 22.1012L39.1775 21.7467ZM39.3408 28.222L39.7022 28.5678L39.7105 28.5585L39.3408 28.222ZM39.1799 28.3901L39.5335 28.7438L39.5412 28.7358L39.1799 28.3901ZM38.0703 29.4997L37.7167 29.1462L37.7157 29.1472L38.0703 29.4997ZM37.4075 30.9405L36.9091 30.9008C36.9085 30.9073 36.9081 30.9139 36.9079 30.9205L37.4075 30.9405ZM37.4002 31.1219L36.9006 31.1019C36.9003 31.1085 36.9002 31.1152 36.9002 31.1219H37.4002ZM32.9025 37.3928L32.9124 37.8928L32.9223 37.8924L32.9025 37.3928ZM32.7141 37.3966V37.8966L32.7239 37.8965L32.7141 37.3966ZM31.1262 37.3966L31.1262 36.8966L31.1259 36.8966L31.1262 37.3966ZM29.6389 37.9419L29.3156 37.5606C29.3105 37.5649 29.3056 37.5692 29.3007 37.5737L29.6389 37.9419ZM29.5058 38.0643L29.1675 37.696C29.1623 37.7008 29.1572 37.7057 29.1522 37.7107L29.5058 38.0643ZM28.3962 39.1739L28.0426 38.8203L28.0416 38.8213L28.3962 39.1739ZM21.9209 39.3371L21.5751 39.6985L21.5843 39.7069L21.9209 39.3371ZM21.7527 39.1762L21.3991 39.5299L21.4071 39.5375L21.7527 39.1762ZM20.6431 38.0666L20.9967 37.7131L20.9957 37.7121L20.6431 38.0666ZM19.2024 37.4038L19.2421 36.9054C19.2356 36.9049 19.229 36.9045 19.2224 36.9042L19.2024 37.4038ZM19.021 37.3966L19.041 36.897C19.0343 36.8967 19.0277 36.8966 19.021 36.8966V37.3966ZM12.75 32.8989L12.25 32.9088L12.2504 32.9186L12.75 32.8989ZM12.7463 32.7104L12.2462 32.7104L12.2464 32.7203L12.7463 32.7104ZM12.7463 31.1226L13.2463 31.1226L13.2463 31.1223L12.7463 31.1226ZM12.2009 29.6353L12.5823 29.3119C12.578 29.3069 12.5736 29.3019 12.5692 29.297L12.2009 29.6353ZM12.0786 29.5021L12.4469 29.1639C12.4421 29.1587 12.4372 29.1536 12.4322 29.1486L12.0786 29.5021ZM10.969 28.3925L11.3226 28.039L11.3216 28.038L10.969 28.3925ZM10.8058 21.9172L10.4444 21.5715L10.436 21.5807L10.8058 21.9172ZM10.9667 21.7491L10.613 21.3954L10.6054 21.4034L10.9667 21.7491ZM12.0763 20.6395L12.4298 20.993L12.4308 20.992L12.0763 20.6395ZM12.7391 19.1987L13.2375 19.2385C13.238 19.2319 13.2384 19.2253 13.2387 19.2187L12.7391 19.1987ZM12.7463 19.0173L13.2459 19.0373C13.2462 19.0307 13.2463 19.024 13.2463 19.0173H12.7463ZM12.7463 17.4288L12.2463 17.4189V17.4288H12.7463ZM12.75 17.2403L12.2503 17.2206L12.2501 17.2305L12.75 17.2403ZM17.2392 12.7466L17.2291 12.2466L17.2189 12.247L17.2392 12.7466ZM17.4325 12.7427L17.4325 12.2426L17.4223 12.2428L17.4325 12.7427ZM19.0203 12.7427L19.0203 13.2427L19.0206 13.2427L19.0203 12.7427ZM20.5076 12.1973L20.831 12.5786C20.836 12.5743 20.841 12.57 20.8458 12.5655L20.5076 12.1973ZM20.6408 12.075L20.979 12.4432C20.9842 12.4384 20.9893 12.4335 20.9943 12.4285L20.6408 12.075ZM21.7504 10.9654L22.1039 11.3189L22.1049 11.3179L21.7504 10.9654ZM28.5622 10.4323C27.6115 9.56715 26.3673 9.0835 25.0733 9.0835V10.0835C26.1181 10.0835 27.1223 10.4741 27.8891 11.1719L28.5622 10.4323ZM28.7395 10.6017L28.5713 10.4408L27.88 11.1634L28.0482 11.3243L28.7395 10.6017ZM29.857 11.719L28.7474 10.6094L28.0403 11.3165L29.1498 12.4261L29.857 11.719ZM30.9839 12.237C30.5603 12.2032 30.1599 12.0203 29.856 11.718L29.1508 12.4271C29.6232 12.8969 30.2455 13.1813 30.9044 13.2338L30.9839 12.237ZM31.1456 12.2431L30.9642 12.2358L30.9241 13.235L31.1055 13.2423L31.1456 12.2431ZM32.7141 12.2427H31.1255V13.2427H32.7141V12.2427ZM37.8961 17.2206C37.7866 14.4527 35.5086 12.2427 32.7141 12.2427V13.2427C34.9695 13.2427 36.8085 15.0266 36.8969 17.2601L37.8961 17.2206ZM37.9001 17.4189L37.8964 17.2305L36.8966 17.2502L36.9003 17.4387L37.9001 17.4189ZM37.9002 19.0166V17.4288H36.9002V19.0166H37.9002ZM38.3269 20.1805C38.0534 19.858 37.9005 19.4452 37.9002 19.0164L36.9002 19.0169C36.9006 19.6829 37.1379 20.3246 37.5643 20.8273L38.3269 20.1805ZM38.4362 20.2989L38.3138 20.1657L37.5774 20.8422L37.6997 20.9753L38.4362 20.2989ZM39.5311 21.3932L38.4215 20.2835L37.7144 20.9907L38.824 22.1003L39.5311 21.3932ZM41.0594 25.0696C41.0594 23.6891 40.509 22.3656 39.5301 21.3922L38.825 22.1012C39.6151 22.887 40.0594 23.9553 40.0594 25.0696H41.0594ZM39.7105 28.5585C40.5757 27.6078 41.0594 26.3637 41.0594 25.0696H40.0594C40.0594 26.1144 39.6688 27.1187 38.971 27.8855L39.7105 28.5585ZM39.5412 28.7358L39.702 28.5676L38.9795 27.8764L38.8186 28.0445L39.5412 28.7358ZM38.4238 29.8533L39.5334 28.7437L38.8263 28.0366L37.7167 29.1462L38.4238 29.8533ZM37.9059 30.9802C37.9397 30.5566 38.1226 30.1562 38.4248 29.8523L37.7157 29.1472C37.246 29.6195 36.9616 30.2419 36.9091 30.9008L37.9059 30.9802ZM37.8998 31.1419L37.9071 30.9605L36.9079 30.9205L36.9006 31.1019L37.8998 31.1419ZM37.9002 32.7104V31.1219H36.9002V32.7104H37.9002ZM32.9223 37.8924C35.6902 37.783 37.9002 35.5049 37.9002 32.7104H36.9002C36.9002 34.9658 35.1163 36.8049 32.8828 36.8932L32.9223 37.8924ZM32.7239 37.8965L32.9124 37.8927L32.8927 36.8929L32.7042 36.8966L32.7239 37.8965ZM31.1262 37.8966H32.7141V36.8966H31.1262V37.8966ZM29.9623 38.3233C30.2849 38.0498 30.6977 37.8968 31.1265 37.8966L31.1259 36.8966C30.46 36.8969 29.8183 37.1343 29.3156 37.5606L29.9623 38.3233ZM29.844 38.4325L29.9772 38.3102L29.3007 37.5737L29.1675 37.696L29.844 38.4325ZM28.7497 39.5274L29.8593 38.4178L29.1522 37.7107L28.0426 38.8203L28.7497 39.5274ZM25.0733 41.0557C26.4538 41.0557 27.7773 40.5053 28.7507 39.5264L28.0416 38.8213C27.2559 39.6114 26.1876 40.0557 25.0733 40.0557V41.0557ZM21.5843 39.7069C22.535 40.5721 23.7792 41.0557 25.0733 41.0557V40.0557C24.0285 40.0557 23.0242 39.6651 22.2574 38.9673L21.5843 39.7069ZM21.4071 39.5375L21.5752 39.6984L22.2665 38.9758L22.0984 38.8149L21.4071 39.5375ZM20.2896 38.4202L21.3992 39.5298L22.1063 38.8227L20.9967 37.7131L20.2896 38.4202ZM19.1627 37.9022C19.5863 37.936 19.9867 38.119 20.2906 38.4212L20.9957 37.7121C20.5233 37.2424 19.901 36.9579 19.2421 36.9054L19.1627 37.9022ZM19.001 37.8962L19.1824 37.9034L19.2224 36.9042L19.041 36.897L19.001 37.8962ZM17.4325 37.8966H19.021V36.8966H17.4325V37.8966ZM12.2504 32.9186C12.3599 35.6865 14.638 37.8966 17.4325 37.8966V36.8966C15.177 36.8966 13.338 35.1127 13.2497 32.8791L12.2504 32.9186ZM12.2464 32.7203L12.2501 32.9087L13.2499 32.889L13.2462 32.7005L12.2464 32.7203ZM12.2463 31.1226L12.2463 32.7104L13.2463 32.7104L13.2463 31.1226L12.2463 31.1226ZM11.8196 29.9587C12.0931 30.2812 12.2461 30.694 12.2463 31.1229L13.2463 31.1223C13.2459 30.4563 13.0086 29.8146 12.5823 29.3119L11.8196 29.9587ZM11.7104 29.8403L11.8327 29.9735L12.5692 29.297L12.4469 29.1639L11.7104 29.8403ZM10.6155 28.7461L11.7251 29.8557L12.4322 29.1486L11.3226 28.039L10.6155 28.7461ZM9.08716 25.0696C9.08716 26.4501 9.63756 27.7736 10.6165 28.7471L11.3216 28.038C10.5314 27.2522 10.0872 26.1839 10.0872 25.0696H9.08716ZM10.436 21.5807C9.57081 22.5314 9.08716 23.7755 9.08716 25.0696H10.0872C10.0872 24.0248 10.4777 23.0206 11.1756 22.2537L10.436 21.5807ZM10.6054 21.4034L10.4445 21.5716L11.1671 22.2629L11.3279 22.0947L10.6054 21.4034ZM11.7227 20.2859L10.6131 21.3955L11.3202 22.1026L12.4298 20.993L11.7227 20.2859ZM12.2406 19.159C12.2069 19.5826 12.0239 19.983 11.7217 20.2869L12.4308 20.992C12.9005 20.5197 13.185 19.8974 13.2375 19.2385L12.2406 19.159ZM12.2467 18.9973L12.2395 19.1787L13.2387 19.2187L13.2459 19.0373L12.2467 18.9973ZM12.2463 17.4288V19.0173H13.2463V17.4288H12.2463ZM12.2501 17.2305L12.2464 17.4189L13.2462 17.4387L13.2499 17.2502L12.2501 17.2305ZM17.2189 12.247C14.5226 12.3564 12.3571 14.5235 12.2504 17.2206L13.2497 17.2601C13.3357 15.084 15.0839 13.3344 17.2595 13.2462L17.2189 12.247ZM17.4223 12.2428L17.2291 12.2467L17.2493 13.2465L17.4426 13.2426L17.4223 12.2428ZM19.0203 12.2427L17.4325 12.2427L17.4325 13.2427L19.0203 13.2427L19.0203 12.2427ZM20.1842 11.8159C19.8617 12.0895 19.4488 12.2424 19.02 12.2427L19.0206 13.2427C19.6865 13.2423 20.3282 13.005 20.831 12.5786L20.1842 11.8159ZM20.3025 11.7067L20.1694 11.829L20.8458 12.5655L20.979 12.4432L20.3025 11.7067ZM21.3968 10.6118L20.2872 11.7214L20.9943 12.4285L22.1039 11.3189L21.3968 10.6118ZM25.0733 9.0835C23.6928 9.0835 22.3692 9.6339 21.3958 10.6128L22.1049 11.3179C22.8906 10.5278 23.959 10.0835 25.0733 10.0835V9.0835Z" fill="white"/>
<path fill-rule="evenodd" clip-rule="evenodd" d="M21.1341 19.1665C20.0474 19.1665 19.1665 20.0474 19.1665 21.1341C19.1665 22.2208 20.0474 23.1017 21.1341 23.1017C22.2208 23.1017 23.1017 22.2208 23.1017 21.1341C23.1017 20.0474 22.2208 19.1665 21.1341 19.1665ZM28.9567 19.5123C29.4178 19.0512 30.1652 19.0512 30.6263 19.5123C31.0566 19.9426 31.0853 20.6224 30.7123 21.086L30.6263 21.1818L21.1818 30.6263C20.7208 31.0873 19.9733 31.0873 19.5123 30.6263C19.082 30.196 19.0533 29.5162 19.4262 29.0526L19.5123 28.9567L28.9567 19.5123ZM26.8797 28.8471C26.8797 27.7604 27.7606 26.8795 28.8473 26.8795C29.934 26.8795 30.8149 27.7604 30.8149 28.8471C30.8149 29.9337 29.934 30.8147 28.8473 30.8147C27.7606 30.8147 26.8797 29.9337 26.8797 28.8471Z" fill="url(#paint2_linear_101_83)"/>
<defs>
<filter id="filter0_f_101_83" x="8.68087" y="-26.8753" width="79.3062" height="103.89" filterUnits="userSpaceOnUse" color-interpolation-filters="sRGB">
<feFlood flood-opacity="0" result="BackgroundImageFix"/>
<feBlend mode="normal" in="SourceGraphic" in2="BackgroundImageFix" result="shape"/>
<feGaussianBlur stdDeviation="19.028" result="effect1_foregroundBlur_101_83"/>
</filter>
<filter id="filter1_f_101_83" x="8.68087" y="-26.8753" width="79.3062" height="81.5284" filterUnits="userSpaceOnUse" color-interpolation-filters="sRGB">
<feFlood flood-opacity="0" result="BackgroundImageFix"/>
<feBlend mode="normal" in="SourceGraphic" in2="BackgroundImageFix" result="shape"/>
<feGaussianBlur stdDeviation="19.028" result="effect1_foregroundBlur_101_83"/>
</filter>
<filter id="filter2_f_101_83" x="-37.9883" y="-26.8753" width="79.3062" height="103.89" filterUnits="userSpaceOnUse" color-interpolation-filters="sRGB">
<feFlood flood-opacity="0" result="BackgroundImageFix"/>
<feBlend mode="normal" in="SourceGraphic" in2="BackgroundImageFix" result="shape"/>
<feGaussianBlur stdDeviation="19.028" result="effect1_foregroundBlur_101_83"/>
</filter>
<filter id="filter3_f_101_83" x="-37.9883" y="-26.8753" width="79.3062" height="81.5284" filterUnits="userSpaceOnUse" color-interpolation-filters="sRGB">
<feFlood flood-opacity="0" result="BackgroundImageFix"/>
<feBlend mode="normal" in="SourceGraphic" in2="BackgroundImageFix" result="shape"/>
<feGaussianBlur stdDeviation="19.028" result="effect1_foregroundBlur_101_83"/>
</filter>
<filter id="filter4_f_101_83" x="-30.8348" y="-38.0559" width="111.668" height="80.1397" filterUnits="userSpaceOnUse" color-interpolation-filters="sRGB">
<feFlood flood-opacity="0" result="BackgroundImageFix"/>
<feBlend mode="normal" in="SourceGraphic" in2="BackgroundImageFix" result="shape"/>
<feGaussianBlur stdDeviation="19.028" result="effect1_foregroundBlur_101_83"/>
</filter>
<linearGradient id="paint0_linear_101_83" x1="0" y1="0" x2="0" y2="50" gradientUnits="userSpaceOnUse">
<stop stop-color="#7CFDE1"/>
<stop offset="0.999426" stop-color="#4ABFA6"/>
</linearGradient>
<linearGradient id="paint1_linear_101_83" x1="9.58716" y1="9.5835" x2="9.58716" y2="40.5557" gradientUnits="userSpaceOnUse">
<stop stop-color="#F3FFFC"/>
<stop offset="1" stop-color="#A8F9E7"/>
</linearGradient>
<linearGradient id="paint2_linear_101_83" x1="19.1665" y1="19.1665" x2="19.1665" y2="30.9721" gradientUnits="userSpaceOnUse">
<stop stop-color="#6AC1AE"/>
<stop offset="1" stop-color="#6FD0BB"/>
</linearGradient>
</defs>
</svg>
