<svg width="22" height="22" viewBox="0 0 22 22" fill="none" xmlns="http://www.w3.org/2000/svg">
<path d="M7.76471 0H2.58824C1.90242 0.00204823 1.24528 0.275394 0.760339 0.760339C0.275394 1.24528 0.00204823 1.90242 0 2.58824V7.76471C0.00204823 8.45052 0.275394 9.10766 0.760339 9.5926C1.24528 10.0775 1.90242 10.3509 2.58824 10.3529H7.76471C8.45052 10.3509 9.10766 10.0775 9.5926 9.5926C10.0775 9.10766 10.3509 8.45052 10.3529 7.76471V2.58824C10.3509 1.90242 10.0775 1.24528 9.5926 0.760339C9.10766 0.275394 8.45052 0.00204823 7.76471 0ZM7.76471 7.76471H2.58824V2.58824H7.76471V7.76471ZM7.76471 11.6471H2.58824C1.90242 11.6491 1.24528 11.9225 0.760339 12.4074C0.275394 12.8923 0.00204823 13.5495 0 14.2353V19.4118C0.00204823 20.0976 0.275394 20.7547 0.760339 21.2397C1.24528 21.7246 1.90242 21.998 2.58824 22H7.76471C8.45052 21.998 9.10766 21.7246 9.5926 21.2397C10.0775 20.7547 10.3509 20.0976 10.3529 19.4118V14.2353C10.3509 13.5495 10.0775 12.8923 9.5926 12.4074C9.10766 11.9225 8.45052 11.6491 7.76471 11.6471ZM7.76471 19.4118H2.58824V14.2353H7.76471V19.4118ZM19.4118 0H14.2353C13.5495 0.00204823 12.8923 0.275394 12.4074 0.760339C11.9225 1.24528 11.6491 1.90242 11.6471 2.58824V7.76471C11.6491 8.45052 11.9225 9.10766 12.4074 9.5926C12.8923 10.0775 13.5495 10.3509 14.2353 10.3529H19.4118C20.0976 10.3509 20.7547 10.0775 21.2397 9.5926C21.7246 9.10766 21.998 8.45052 22 7.76471V2.58824C21.998 1.90242 21.7246 1.24528 21.2397 0.760339C20.7547 0.275394 20.0976 0.00204823 19.4118 0ZM19.4118 7.76471H14.2353V2.58824H19.4118V7.76471ZM4.52941 6.47059H5.82353C5.99135 6.4591 6.14934 6.38724 6.26829 6.26829C6.38724 6.14934 6.4591 5.99135 6.47059 5.82353V4.52941C6.4591 4.36159 6.38724 4.2036 6.26829 4.08465C6.14934 3.9657 5.99135 3.89384 5.82353 3.88235H4.52941C4.36159 3.89384 4.2036 3.9657 4.08465 4.08465C3.9657 4.2036 3.89384 4.36159 3.88235 4.52941V5.82353C3.89384 5.99135 3.9657 6.14934 4.08465 6.26829C4.2036 6.38724 4.36159 6.4591 4.52941 6.47059ZM4.52941 18.1176H5.82353C5.99135 18.1062 6.14934 18.0343 6.26829 17.9154C6.38724 17.7964 6.4591 17.6384 6.47059 17.4706V16.1765C6.4591 16.0086 6.38724 15.8507 6.26829 15.7317C6.14934 15.6128 5.99135 15.5409 5.82353 15.5294H4.52941C4.36159 15.5409 4.2036 15.6128 4.08465 15.7317C3.9657 15.8507 3.89384 16.0086 3.88235 16.1765V17.4706C3.89384 17.6384 3.9657 17.7964 4.08465 17.9154C4.2036 18.0343 4.36159 18.1062 4.52941 18.1176ZM16.1765 6.47059H17.4706C17.6384 6.4591 17.7964 6.38724 17.9154 6.26829C18.0343 6.14934 18.1062 5.99135 18.1176 5.82353V4.52941C18.1062 4.36159 18.0343 4.2036 17.9154 4.08465C17.7964 3.9657 17.6384 3.89384 17.4706 3.88235H16.1765C16.0086 3.89384 15.8507 3.9657 15.7317 4.08465C15.6128 4.2036 15.5409 4.36159 15.5294 4.52941V5.82353C15.5409 5.99135 15.6128 6.14934 15.7317 6.26829C15.8507 6.38724 16.0086 6.4591 16.1765 6.47059ZM12.2941 16.8235H13.5882C13.7561 16.812 13.9141 16.7402 14.033 16.6212C14.1519 16.5023 14.2238 16.3443 14.2353 16.1765V14.8824C14.2468 14.7145 14.3186 14.5565 14.4376 14.4376C14.5565 14.3186 14.7145 14.2468 14.8824 14.2353H16.1765C16.3443 14.2238 16.5023 14.1519 16.6212 14.033C16.7402 13.9141 16.812 13.7561 16.8235 13.5882V12.2941C16.812 12.1263 16.7402 11.9683 16.6212 11.8494C16.5023 11.7304 16.3443 11.6585 16.1765 11.6471H12.2941C12.1263 11.6585 11.9683 11.7304 11.8494 11.8494C11.7304 11.9683 11.6585 12.1263 11.6471 12.2941V16.1765C11.6585 16.3443 11.7304 16.5023 11.8494 16.6212C11.9683 16.7402 12.1263 16.812 12.2941 16.8235ZM21.3529 11.6471H20.0588C19.891 11.6585 19.733 11.7304 19.6141 11.8494C19.4951 11.9683 19.4233 12.1263 19.4118 12.2941V16.1765C19.4233 16.3443 19.4951 16.5023 19.6141 16.6212C19.733 16.7402 19.891 16.812 20.0588 16.8235H21.3529C21.5208 16.812 21.6788 16.7402 21.7977 16.6212C21.9167 16.5023 21.9885 16.3443 22 16.1765V12.2941C21.9885 12.1263 21.9167 11.9683 21.7977 11.8494C21.6788 11.7304 21.5208 11.6585 21.3529 11.6471ZM13.5882 19.4118H12.2941C12.1263 19.4233 11.9683 19.4951 11.8494 19.6141C11.7304 19.733 11.6585 19.891 11.6471 20.0588V21.3529C11.6585 21.5208 11.7304 21.6788 11.8494 21.7977C11.9683 21.9167 12.1263 21.9885 12.2941 22H13.5882C13.7561 21.9885 13.9141 21.9167 14.033 21.7977C14.1519 21.6788 14.2238 21.5208 14.2353 21.3529V20.0588C14.2238 19.891 14.1519 19.733 14.033 19.6141C13.9141 19.4951 13.7561 19.4233 13.5882 19.4118ZM21.3529 19.4118H20.0588C19.891 19.4003 19.733 19.3284 19.6141 19.2095C19.4951 19.0905 19.4233 18.9325 19.4118 18.7647V17.4706C19.4003 17.3028 19.3284 17.1448 19.2095 17.0258C19.0905 16.9069 18.9325 16.835 18.7647 16.8235H14.8824C14.7145 16.835 14.5565 16.9069 14.4376 17.0258C14.3186 17.1448 14.2468 17.3028 14.2353 17.4706V18.7647C14.2468 18.9325 14.3186 19.0905 14.4376 19.2095C14.5565 19.3284 14.7145 19.4003 14.8824 19.4118H16.1765C16.3443 19.4233 16.5023 19.4951 16.6212 19.6141C16.7402 19.733 16.812 19.891 16.8235 20.0588V21.3529C16.835 21.5208 16.9069 21.6788 17.0258 21.7977C17.1448 21.9167 17.3028 21.9885 17.4706 22H21.3529C21.5208 21.9885 21.6788 21.9167 21.7977 21.7977C21.9167 21.6788 21.9885 21.5208 22 21.3529V20.0588C21.9885 19.891 21.9167 19.733 21.7977 19.6141C21.6788 19.4951 21.5208 19.4233 21.3529 19.4118Z" fill="black"/>
</svg>
