<svg width="600" height="298" viewBox="0 0 600 298" fill="none" xmlns="http://www.w3.org/2000/svg">
<path d="M477.108 122.255C442.1 181.501 409.018 237.458 319.326 260.259C229.635 283.044 173.856 249.666 114.803 214.317C84.5292 196.191 53.7552 177.771 18.232 166.773C8.98368 163.909 0 171.104 0 180.786C0 187.686 4.68879 193.662 11.2652 195.751C42.7943 205.768 70.8054 222.505 99.5877 239.74C161.234 276.644 224.983 314.808 326.616 288.97C428.248 263.133 466.056 199.19 502.605 137.322C526.958 96.1267 550.396 56.5216 592.561 28.5465C597.106 25.5317 600 20.5156 600 15.0624C600 3.53701 587.903 -3.86735 578.221 2.38409C529.28 33.9814 502.874 78.6435 477.108 122.255Z" fill="#9FE870"/>
</svg>
