<svg xmlns="http://www.w3.org/2000/svg" width="36" height="35" fill="none"><g clip-path="url(#a)"><path fill="#9CC8ED" d="M31.601 21.406c.418.477.676 1.113.676 1.788a2.694 2.694 0 0 1-2.226 2.664c.06.159.08.357.08.536a1.824 1.824 0 0 1-1.829 1.829h-.159c.1.278.16.576.16.894a2.706 2.706 0 0 1-2.704 2.703c-.318 0-.616-.06-.894-.159v.159a2.706 2.706 0 0 1-3.975 2.385 1.81 1.81 0 0 1-1.49.775c-.796 0-1.452-.497-1.71-1.212-.259.695-.914 1.212-1.71 1.212a1.78 1.78 0 0 1-1.49-.775 2.706 2.706 0 0 1-3.975-2.385v-.159c-.278.1-.596.159-.894.159a2.706 2.706 0 0 1-2.703-2.703c0-.318.06-.616.159-.894h-.16a1.824 1.824 0 0 1-1.828-1.829c0-.179.02-.358.08-.536a2.67 2.67 0 0 1-2.226-2.644c0-.695.258-1.312.675-1.789C1.511 21.167 0 19.497 0 17.49c0-1.69 1.053-3.14 2.564-3.697a2.6 2.6 0 0 1-.437-1.45A2.706 2.706 0 0 1 4.83 9.638c.119 0 .218 0 .338.02-.2-.318-.338-.675-.338-1.073 0-1.014.815-1.828 1.828-1.828h.16a2.5 2.5 0 0 1-.16-.875A2.706 2.706 0 0 1 9.361 3.18c.318 0 .616.06.894.159V3.18A2.706 2.706 0 0 1 14.232.795 1.84 1.84 0 0 1 15.74 0c.914 0 1.67.676 1.809 1.55.119-.874.874-1.55 1.788-1.55.617 0 1.173.298 1.491.775a2.706 2.706 0 0 1 3.975 2.385v.16c.278-.1.577-.16.895-.16A2.706 2.706 0 0 1 28.4 5.863c0 .318-.06.616-.159.895h.16c1.013 0 1.828.814 1.828 1.828 0 .398-.12.755-.338 1.053.12-.02.219-.02.338-.02a2.706 2.706 0 0 1 2.703 2.704 2.6 2.6 0 0 1-.437 1.45 3.96 3.96 0 0 1 2.564 3.697 3.956 3.956 0 0 1-3.459 3.936"/><path fill="#9CC8ED" d="M24.725 29.197c.06 0 .139.02.198.02.398.099.676.457.656.874l-1.769-.04a.91.91 0 0 1 .597-.815c.099-.02.218-.04.318-.04m-.895-7.97a.88.88 0 0 0 .656-.855h-1.769c0 .378.259.715.597.835a.7.7 0 0 0 .278.06c.08-.02.159-.02.238-.04m-.338-8.507a.88.88 0 0 0 .656-.855H22.38c0 .378.259.716.597.835.099.04.178.06.278.06.1-.02.159-.02.238-.04m3.041-2.186a.88.88 0 0 0 .636-.835H25.4c0 .398.279.735.636.835.08.02.16.04.239.04.1 0 .179-.02.258-.04m2.186 7.075c.12.358.438.636.835.636v-1.769a.85.85 0 0 0-.834.636c-.02.08-.04.16-.04.259 0 .08.02.159.04.238M23.454 3.28a.89.89 0 0 0 .576-.795l-1.769-.06a.88.88 0 0 0 .676.895c.06.02.12.02.179.02.119 0 .238-.02.338-.06M17.55 33.728c0 .02-.02.04-.02.06-.259.695-.914 1.212-1.71 1.212a1.78 1.78 0 0 1-1.49-.775 2.706 2.706 0 0 1-3.975-2.385v-.16c-.278.1-.596.16-.894.16a2.706 2.706 0 0 1-2.703-2.703c0-.318.06-.616.159-.895h-.16a1.824 1.824 0 0 1-1.828-1.828c0-.179.02-.358.08-.537a2.71 2.71 0 0 1-2.226-2.663c0-.695.258-1.312.675-1.789C1.511 21.167 0 19.497 0 17.49c0-1.69 1.053-3.14 2.564-3.697a2.6 2.6 0 0 1-.437-1.45A2.706 2.706 0 0 1 4.83 9.638c.119 0 .218 0 .338.02-.2-.318-.338-.675-.338-1.073 0-1.014.815-1.828 1.828-1.828h.16a2.5 2.5 0 0 1-.16-.875A2.706 2.706 0 0 1 9.361 3.18c.318 0 .616.06.894.159V3.18A2.706 2.706 0 0 1 14.232.795 1.79 1.79 0 0 1 15.74 0c.914 0 1.67.676 1.809 1.55.02.1.02.18.02.279v24.426h-7.175c-.14 0-.259.12-.259.258v2.763a.86.86 0 0 0-.656.875c.02.496.418.874.915.854a.874.874 0 0 0 .854-.914.91.91 0 0 0-.596-.815v-2.524h6.897zm0-10.474h-5.804v-2.047a.885.885 0 0 0 .596-.835.87.87 0 0 0-.874-.875.87.87 0 0 0-.875.875c0 .417.279.755.656.855v2.285c0 .14.12.259.259.259h6.062v-.517zm-6.52-20.77a.89.89 0 0 0 .577.795v4.87c0 .139.12.258.258.258h5.685V7.89h-5.426V3.32a.88.88 0 0 0 .675-.895.886.886 0 0 0-.914-.855.886.886 0 0 0-.854.914m-.119 9.381c0 .418.279.756.656.855v2.286c0 .139.12.258.259.258h5.724v-.517h-5.466V12.7a.885.885 0 0 0 .596-.835.87.87 0 0 0-.874-.874.887.887 0 0 0-.895.874m6.599 5.744h.04v-.497H9.023v-6.578a.87.87 0 0 0-.239-1.71.87.87 0 0 0-.874.875c0 .398.259.735.636.835v6.578H6.36c-.14-.377-.457-.636-.855-.636a.87.87 0 0 0-.874.875.87.87 0 0 0 .874.874.85.85 0 0 0 .835-.636h11.17z"/><path fill="#0E3B65" d="M31.602 21.406c.417.477.676 1.113.676 1.788a2.694 2.694 0 0 1-2.226 2.664c.06.159.08.357.08.536a1.824 1.824 0 0 1-1.83 1.829h-.158c.099.278.159.576.159.894A2.706 2.706 0 0 1 25.6 31.82c-.318 0-.617-.06-.895-.159v.159a2.706 2.706 0 0 1-3.975 2.385 1.81 1.81 0 0 1-1.49.775c-.795 0-1.451-.497-1.71-1.212 0-.02.02-.04.02-.06v-7.016h6.857v2.524a.91.91 0 0 0-.596.815.887.887 0 0 0 .854.915c.477.02.895-.378.915-.855a.88.88 0 0 0-.656-.875v-2.762c0-.14-.12-.259-.259-.259H17.55v-2.444h6.022c.14 0 .259-.12.259-.259v-2.285a.88.88 0 0 0 .656-.855.87.87 0 0 0-.875-.874.88.88 0 0 0-.874.874c0 .378.258.716.596.835v2.047H17.57v-5.625h11.15c.12.358.437.636.835.636a.87.87 0 0 0 .874-.874.88.88 0 0 0-.874-.875.85.85 0 0 0-.835.636h-2.186v-6.599a.87.87 0 0 0-.238-1.71.88.88 0 0 0-.875.876c0 .398.278.735.636.835v6.578H17.55v-1.848h5.684c.14 0 .259-.12.259-.258V12.72a.88.88 0 0 0 .656-.855.87.87 0 0 0-.875-.874.88.88 0 0 0-.874.874c0 .378.258.716.596.835v2.047H17.55v-6.36h5.645c.139 0 .258-.119.258-.258v-4.85a.89.89 0 0 0 .576-.795.874.874 0 0 0-.854-.914.886.886 0 0 0-.915.855.88.88 0 0 0 .676.894V7.89H17.55V1.83c0-.1 0-.18-.02-.279C17.67.676 18.425 0 19.34 0c.616 0 1.173.298 1.49.775a2.706 2.706 0 0 1 3.975 2.385v.16c.279-.1.577-.16.895-.16a2.706 2.706 0 0 1 2.703 2.703c0 .318-.06.616-.16.895h.16c1.014 0 1.828.814 1.828 1.828 0 .398-.119.755-.337 1.053.119-.02.218-.02.337-.02a2.706 2.706 0 0 1 2.704 2.704 2.6 2.6 0 0 1-.438 1.45 3.96 3.96 0 0 1 2.564 3.697 3.956 3.956 0 0 1-3.458 3.936m-21.465 7.83a.86.86 0 0 0-.656.875l1.769-.04a.91.91 0 0 0-.597-.815.8.8 0 0 0-.318-.06c-.06 0-.139.02-.198.04m1.61-8.03a.885.885 0 0 0 .596-.834h-1.769c0 .417.278.755.656.855.08.02.139.04.218.04q.18-.03.299-.06m-.18-8.486c.08.02.14.04.22.04.099 0 .198-.02.278-.06a.885.885 0 0 0 .596-.835h-1.769c.02.418.298.756.676.855m-2.543-2.186a.88.88 0 0 0 .636-.835H7.89c0 .398.26.735.637.835.08.02.159.04.238.04.1 0 .18-.02.259-.04M6.34 17.112c-.12-.377-.438-.636-.835-.636v1.77a.85.85 0 0 0 .835-.637c.02-.08.04-.159.04-.258 0-.08-.02-.16-.04-.239M11.608 3.28c.099.04.218.06.337.06.06 0 .12-.02.18-.02a.88.88 0 0 0 .675-.894l-1.769.06c.02.377.258.675.576.794"/><path fill="#237EC8" d="M17.55 8.407V7.89h5.386V3.32c.06.019.12.019.179.019.12 0 .239-.02.338-.06v4.87c0 .139-.12.258-.258.258zm8.745 9.202h2.425c-.02-.08-.04-.159-.04-.258 0-.08.02-.179.04-.258h-2.186v.258c0 .159-.1.258-.239.258m0 0a.263.263 0 0 1-.258-.258v-.239H17.55v.517h8.745zm-1.888 9.123v2.524c.1-.04.199-.06.318-.06.06 0 .139.02.199.02v-2.762c0-.14-.12-.259-.259-.259H17.55v.517h6.857zm-.835-2.962c.14 0 .259-.119.259-.258v-2.285c-.08.02-.14.04-.22.04-.099 0-.198-.02-.277-.06v2.047H17.57v.516zm2.723-6.16c.14 0 .258-.12.258-.26v-6.816c-.08.02-.159.04-.238.04-.08 0-.16-.02-.239-.04v6.837c-.04.139.08.238.219.238m-1.61 13.355c.477.02.895-.377.914-.854l-1.768-.04c-.02.477.357.874.854.894m-1.093-11.487a.88.88 0 0 0-.874.874h1.768a.887.887 0 0 0-.894-.875m-.358-4.214c.14 0 .259-.12.259-.258V12.72c-.08.02-.14.04-.219.04-.1 0-.199-.02-.278-.06v2.047H17.55v.517zm.04-4.273a.88.88 0 0 0-.875.874h1.77a.913.913 0 0 0-.895-.874m3.021-2.186a.88.88 0 0 0-.875.874h1.77a.913.913 0 0 0-.895-.874m4.154 8.546a.88.88 0 0 0-.875-.875v1.77a.887.887 0 0 0 .875-.895M23.195 1.57a.886.886 0 0 0-.915.854l1.77.08c0-.498-.378-.915-.855-.935M11.607 3.278v4.87c0 .139.12.258.259.258h5.684V7.89h-5.426V3.32c-.06 0-.12.019-.179.019a.9.9 0 0 1-.338-.06m-3.08 14.072v-.239H6.34c.02.08.04.16.04.239 0 .08-.02.179-.04.258h2.425c-.139 0-.238-.1-.238-.258m9.023.258v-.497H9.024v.259c0 .139-.12.258-.259.258h8.785zm-7.155 8.606c-.14 0-.258.12-.258.259v2.762c.06-.02.119-.02.198-.02.12 0 .219.02.318.06v-2.524h6.897v-.517h-7.155zm1.351-2.961v-2.047c-.099.04-.178.06-.278.06a.7.7 0 0 1-.218-.04v2.285c0 .14.119.258.258.258h6.062v-.516h-5.824M9.025 17.35v-6.817c-.08.02-.16.04-.239.04-.08 0-.179-.02-.258-.04v6.837c0 .139.119.258.258.258.14-.02.239-.12.239-.278m1.351 13.614a.874.874 0 0 0 .855-.914l-1.77.04c.02.497.438.894.915.874m1.093-11.487a.87.87 0 0 0-.874.874h1.769a.913.913 0 0 0-.895-.875m.1-6.758v2.286c0 .139.119.258.258.258h5.724v-.517h-5.466V12.7c-.099.02-.198.04-.298.04-.08 0-.139 0-.218-.02m.218-1.73a.87.87 0 0 0-.874.875h1.769c0-.497-.398-.874-.895-.874m-3-2.185a.87.87 0 0 0-.875.874h1.768a.913.913 0 0 0-.894-.874M4.61 17.35a.87.87 0 0 0 .875.874v-1.749a.88.88 0 0 0-.875.875m7.275-15.78a.886.886 0 0 0-.855.913l1.769-.08a.883.883 0 0 0-.914-.834"/></g><defs><clipPath id="a"><path fill="#fff" d="M0 0h35.06v35H0z"/></clipPath></defs></svg>