<svg xmlns="http://www.w3.org/2000/svg" width="38" height="35" fill="none"><g clip-path="url(#a)"><path fill="#0E3B65" d="m33.898 28.301.72 6.699-4.918-3.625a13.34 13.34 0 0 1-5.596 1.23 13.25 13.25 0 0 1-11.109-6 13.3 13.3 0 0 1-5.278-1.23l-4.919 3.626.721-6.7A13.17 13.17 0 0 1 0 13.314C0 5.957 5.957 0 13.313 0c4.643 0 8.734 2.374 11.109 6 7.186.169 12.973 6.062 12.973 13.291 0 3.477-1.335 6.636-3.497 9.01"/><path fill="#143F69" d="M13.312 8.056H6.253a.212.212 0 0 1 0-.424h7.06zm0 3.159H6.253a.212.212 0 0 0 0 .424h6.932c.043-.064.085-.106.127-.17zM6.041 15.03c0 .128.106.212.212.212h5.151c.043-.127.106-.275.149-.424h-5.3a.23.23 0 0 0-.212.212m0 3.604c0 .128.106.212.212.212h4.537c0-.148.02-.297.02-.445H6.254c-.106.021-.212.106-.212.233"/><path fill="#9CC8ED" d="M10.79 19.291c0 2.714.806 5.215 2.184 7.314a13.3 13.3 0 0 1-5.279-1.23l-4.918 3.626.72-6.7A13.25 13.25 0 0 1 0 13.314C0 5.957 5.957 0 13.313 0v7.632h-7.06a.212.212 0 0 0 0 .424h7.06v3.158h-7.06a.212.212 0 0 0 0 .424h6.933a14 14 0 0 0-1.632 3.18h-5.3a.212.212 0 0 0 0 .424h5.151a13.2 13.2 0 0 0-.593 3.18H6.254a.212.212 0 0 0 0 .424h4.536zm2.523-7.801c.064-.085.127-.17.19-.276h-.19zm0-3.434h3.646c.234-.149.467-.297.721-.424h-4.367zM37.396 19.29c0-7.229-5.788-13.122-12.974-13.292h-.34v9.2c3.223 0 5.894 2.27 6.55 5.28.043 0 .107-.022.15-.022.127 0 .233.021.36.064v-7.123c-.382-.064-.7-.382-.7-.784a.805.805 0 1 1 1.611 0 .82.82 0 0 1-.7.805v7.23c.297.19.51.53.51.91 0 .594-.488 1.082-1.082 1.082h-.042a6.7 6.7 0 0 1-3.095 4.94c-.106.063-.064.211.063.211h.17c.085 0 .17.085.17.17v1.102c0 .085-.085.17-.17.17h-3.795v3.413c1.993 0 3.901-.445 5.597-1.23l4.918 3.625-.72-6.699c2.183-2.416 3.518-5.575 3.518-9.052m-6.021-5.893a.803.803 0 0 0 .7-.806l-1.612.022c0 .402.297.741.7.784.042 0 .085.021.127.021.021-.021.043-.021.085-.021m-14.352 0a.803.803 0 0 0 .7-.806H16.11c0 .403.297.742.7.785.042 0 .085.02.127.02zm6.763 1.78h.318v7.866H22.45c0 .911.742 1.653 1.654 1.653v4.516h-3.795a.18.18 0 0 1-.17-.17v-1.102c0-.085.085-.17.17-.17h.17c.105 0 .17-.148.063-.212a6.7 6.7 0 0 1-3.095-4.94h-.042a1.086 1.086 0 0 1-.594-1.992c.064-.064.127-.085.212-.127a1 1 0 0 1 .36-.064c.043 0 .106 0 .149.021.657-2.904 3.2-5.13 6.254-5.278m-3.032 4.177a.905.905 0 0 0-.912.912.91.91 0 0 0 .912.932.905.905 0 0 0 .912-.911.91.91 0 0 0-.912-.933"/><path fill="#0E3B65" d="M13.313 8.056h3.647a12.9 12.9 0 0 0-3.435 3.158h-.212zm0-.424h4.367a13.4 13.4 0 0 1 6.403-1.654h.339A13.28 13.28 0 0 0 13.313 0zm6.996 21.56a.18.18 0 0 1-.17-.17v-1.103c0-.084.085-.17.17-.17h.17c.106 0 .17-.147.063-.211a6.7 6.7 0 0 1-3.095-4.94h-.042a1.086 1.086 0 0 1-.594-1.992v-7.208a.82.82 0 0 1-.7-.806.805.805 0 1 1 1.612 0 .82.82 0 0 1-.7.806v7.123a1 1 0 0 1 .36-.064c.043 0 .107 0 .15.021.635-2.904 3.179-5.13 6.232-5.278h.318V5.978a13 13 0 0 0-6.402 1.654c-.255.127-.488.275-.721.424a12.9 12.9 0 0 0-3.435 3.158c-.084.106-.148.191-.212.276-.042.064-.084.106-.127.17a13.5 13.5 0 0 0-1.632 3.158c-.043.149-.106.297-.149.446a12.8 12.8 0 0 0-.593 3.158c0 .149-.021.297-.021.445s-.021.297-.021.445c0 2.714.805 5.216 2.183 7.314 2.374 3.604 6.466 6 11.109 6v-3.413h-3.753zm3.795-14.013c3.222 0 5.893 2.268 6.55 5.278.043 0 .106-.02.149-.02.127 0 .233.02.36.063.085.02.149.063.233.106.297.19.51.53.51.911 0 .594-.488 1.081-1.082 1.081h-.042a6.7 6.7 0 0 1-3.095 4.94c-.106.064-.064.212.063.212h.17c.084 0 .17.085.17.17v1.102c0 .085-.085.17-.17.17h-3.795v-4.516c.912 0 1.654-.742 1.654-1.654h-1.654V15.18zm2.523 5.088c0 .508.424.932.932.932a.905.905 0 0 0 .912-.911.905.905 0 0 0-.912-.912c-.508 0-.932.382-.932.89"/><path fill="#237EC8" d="M31.375 20.606a.8.8 0 0 0-.233-.106v-7.102c.042 0 .084.021.127.021s.063 0 .106-.021zm-.127-8.82a.805.805 0 0 0-.806.806l1.611-.02c.021-.425-.339-.785-.805-.785m-14.225 1.612h-.106c-.043 0-.085 0-.127-.021v7.229c.085-.043.148-.064.233-.106zm-.106-1.611a.805.805 0 0 0-.806.805l1.611-.02a.8.8 0 0 0-.805-.785m2.904 8.48c0 .508.424.932.933.932a.905.905 0 0 0 .912-.911.905.905 0 0 0-.912-.912.89.89 0 0 0-.933.89m7.738.932a.905.905 0 0 0 .912-.911.905.905 0 0 0-.912-.912.905.905 0 0 0-.912.912c-.02.487.403.911.912.911m-1.802 1.823H22.45c0 .912.742 1.654 1.654 1.654s1.653-.742 1.653-1.653"/></g><defs><clipPath id="a"><path fill="#fff" d="M0 0h37.395v35H0z"/></clipPath></defs></svg>