<svg xmlns="http://www.w3.org/2000/svg" width="448" height="268" fill="none"><g clip-path="url(#a)"><path fill="#00131E" d="M354.039 267.04c51.368 0 93.01-9.286 93.01-20.74s-41.642-20.74-93.01-20.74-93.01 9.286-93.01 20.74 41.642 20.74 93.01 20.74" opacity=".29"/><path fill="#00131E" d="M292.05 249.05h121.77c4.96 0 9.03-4.06 9.03-9.03V25.4c0-4.96-4.06-9.03-9.03-9.03H292.05c-4.96 0-9.03 4.06-9.03 9.03v214.62c0 4.97 4.06 9.03 9.03 9.03"/><path fill="#03283B" d="M289.54 243.59h126.79c3.58 0 6.52-2.93 6.52-6.52V6.52c0-3.58-2.93-6.52-6.52-6.52H289.54c-3.58 0-6.52 2.93-6.52 6.52v230.56c0 3.58 2.93 6.51 6.52 6.51"/><path fill="#E7F2F1" d="M418.059 160.75v47.03c0 1.48-.77 2.81-1.96 3.67-.87.63-1.96 1-3.15 1h-120.04c-2.81 0-5.11-2.1-5.11-4.67V29.11c0-1.16.47-2.23 1.25-3.05.94-.99 2.32-1.62 3.86-1.62h120.04c2.81 0 5.11 2.1 5.11 4.67v131.64"/><path fill="#FAFFFF" d="M284.209 213.026h136.99V49.986h-136.99z"/><path fill="#4267AE" d="M285 50h136V24H285z"/><path fill="#FAFFFF" d="M302.579 40.52h70.66c3 0 5.45-2.45 5.45-5.45s-2.45-5.45-5.45-5.45h-70.66c-3 0-5.45 2.45-5.45 5.45s2.45 5.45 5.45 5.45"/><path fill="#406D83" d="M329.149 233.65h48.15c3.3 0 6.01-2.7 6.01-6.01 0-3.3-2.7-6.01-6.01-6.01h-48.15c-3.3 0-6.01 2.7-6.01 6.01.01 3.31 2.71 6.01 6.01 6.01M330.27 13.28h45.32c1.12 0 2.03-.91 2.03-2.03s-.91-2.03-2.03-2.03h-45.32c-1.12 0-2.03.91-2.03 2.03s.91 2.03 2.03 2.03M411.21 13.28a2.03 2.03 0 1 0 0-4.06 2.03 2.03 0 0 0 0 4.06M403.969 13.28a2.03 2.03 0 1 0 .001-4.059 2.03 2.03 0 0 0-.001 4.059"/><path fill="#7A2B03" d="M322.62 43.32c.06-.08.11-.16.16-.23-.1.14-.19.28-.29.42.04-.07.09-.13.13-.19"/><path fill="#224B5B" d="M273.879 138.86c-.13.14-.261.28-.391.41 0-.06-.009-.13-.009-.19.13-.07.27-.14.4-.22"/><path fill="#03283B" d="M228.689 40.35v32.93c0 2.93 2.37 5.3 5.3 5.3h65.78l16.93 3.42-8.67-13.74V40.35c0-2.93-2.37-5.3-5.3-5.3h-68.74c-2.93 0-5.3 2.37-5.3 5.3" opacity=".28"/><path fill="#FDB661" d="M228.689 36.76v32.93c0 2.93 2.37 5.3 5.3 5.3h65.78l16.93 3.41-8.67-13.74v-27.9c0-2.93-2.37-5.3-5.3-5.3h-68.74c-2.93 0-5.3 2.37-5.3 5.3"/><path fill="#F28248" d="M238.61 42.38h57.29c.85 0 1.54-.69 1.54-1.54v-.66c0-.85-.69-1.54-1.54-1.54h-57.29c-.85 0-1.54.69-1.54 1.54v.66c0 .85.69 1.54 1.54 1.54M238.61 49.51h57.29c.85 0 1.54-.69 1.54-1.54v-.66c0-.85-.69-1.54-1.54-1.54h-57.29c-.85 0-1.54.69-1.54 1.54v.66c0 .85.69 1.54 1.54 1.54M238.61 57.52h57.29c.85 0 1.54-.69 1.54-1.54v-.66c0-.85-.69-1.54-1.54-1.54h-57.29c-.85 0-1.54.69-1.54 1.54v.66c0 .84.69 1.54 1.54 1.54M269.409 65.52h26.49c.85 0 1.54-.69 1.54-1.54v-.66c0-.85-.69-1.54-1.54-1.54h-26.49c-.85 0-1.54.69-1.54 1.54v.66c-.01.84.69 1.54 1.54 1.54"/><path fill="#224B5B" d="M406.85 212.45h-14.14l-11.55-51.82 2.72-2.12 10.49-8.18 1.11 5.5z"/><path fill="#14313B" d="M395.481 155.84c-2.45 5.79-10.56 7.73-10.56 7.73s-.51-2.08-1.04-5.05l10.5-8.18z"/><path fill="#14313B" d="M396.41 212.45h-3.7l-11.55-51.82 2.72-2.12z"/><path fill="#5B899C" d="M382.73 160.74c6.473 0 11.72-5.247 11.72-11.72s-5.247-11.72-11.72-11.72-11.72 5.247-11.72 11.72 5.247 11.72 11.72 11.72M380.37 126.83h-53.2c-3.42 0-6.19-2.77-6.19-6.19V79.32c0-3.42 2.77-6.19 6.19-6.19h53.2c3.42 0 6.19 2.77 6.19 6.19v41.31c0 3.42-2.77 6.2-6.19 6.2"/><path fill="#224B5B" d="M311.73 104.48h-1.22c-1.56 0-2.83-1.27-2.83-2.83v-1.22c0-1.56 1.27-2.83 2.83-2.83h1.22c1.56 0 2.83 1.27 2.83 2.83v1.22c0 1.56-1.27 2.83-2.83 2.83M397.019 104.48h-1.22c-1.56 0-2.83-1.27-2.83-2.83v-1.22c0-1.56 1.27-2.83 2.83-2.83h1.22c1.56 0 2.83 1.27 2.83 2.83v1.22a2.84 2.84 0 0 1-2.83 2.83"/><path fill="#406D83" d="M388.299 113.21h-1.75V88.59h1.75c4.47 0 8.1 3.63 8.1 8.1v8.42c.01 4.47-3.62 8.1-8.1 8.1M320.969 88.59v24.62c-.87 0-1.72-.11-2.53-.33-4.22-1.12-7.32-4.96-7.32-9.52v-4.92a9.85 9.85 0 0 1 7.32-9.53c.81-.21 1.66-.32 2.53-.32"/><path fill="#224B5B" d="M337.14 100.5c-3.25 0-5.89-2.64-5.89-5.89v-3.03c0-3.25 2.64-5.89 5.89-5.89s5.89 2.64 5.89 5.89v3.03c0 3.25-2.64 5.89-5.89 5.89"/><path fill="#406D83" d="M337.139 99.05c-2.45 0-4.44-1.99-4.44-4.44v-3.03c0-2.45 1.99-4.44 4.44-4.44s4.44 1.99 4.44 4.44v3.03c0 2.45-1.99 4.44-4.44 4.44"/><path fill="#00DED1" d="M340.131 91.58v3.03c0 1.65-1.35 2.99-2.99 2.99a3.005 3.005 0 0 1-3-2.99v-3.03c0-1.65 1.35-2.99 2.99-2.99.82 0 1.57.34 2.11.88.15.15.28.31.39.49.32.46.5 1.02.5 1.62"/><path fill="#00C5D2" d="M340.129 91.58v3.03c0 1.65-1.35 2.99-2.99 2.99-1.11 0-2.08-.61-2.6-1.51l5.1-6.15c.31.48.49 1.04.49 1.64"/><path fill="#224B5B" d="M370.609 100.5c-3.25 0-5.89-2.64-5.89-5.89v-3.03c0-3.25 2.64-5.89 5.89-5.89s5.89 2.64 5.89 5.89v3.03c0 3.25-2.64 5.89-5.89 5.89"/><path fill="#406D83" d="M370.608 99.05c-2.45 0-4.44-1.99-4.44-4.44v-3.03c0-2.45 1.99-4.44 4.44-4.44s4.44 1.99 4.44 4.44v3.03c.01 2.45-1.99 4.44-4.44 4.44"/><path fill="#00DED1" d="M373.609 91.58v3.03c0 1.65-1.35 2.99-2.99 2.99a3.005 3.005 0 0 1-3-2.99v-3.03c0-1.65 1.35-2.99 2.99-2.99.82 0 1.57.34 2.11.88.15.15.28.31.39.49.32.46.5 1.02.5 1.62"/><path fill="#00C5D2" d="M373.61 91.58v3.03c0 1.65-1.35 2.99-2.99 2.99-1.11 0-2.08-.61-2.6-1.51l5.1-6.15c.31.48.49 1.04.49 1.64"/><path fill="#406D83" d="M354.95 57.08h-2.37v16.04h2.37z"/><path fill="#224B5B" d="M361.39 132.15H346.1c-1.2 0-2.19-.99-2.19-2.19v-.94c0-1.21.99-2.19 2.19-2.19h15.29c1.21 0 2.19.99 2.19 2.19v.94c0 1.21-.98 2.19-2.19 2.19"/><path fill="#224B5B" d="M361.39 137.4H346.1c-1.2 0-2.19-.99-2.19-2.19v-.94c0-1.21.99-2.19 2.19-2.19h15.29c1.21 0 2.19.99 2.19 2.19v.94c0 1.21-.98 2.19-2.19 2.19"/><path fill="#406D83" d="M326.289 123.09a1.57 1.57 0 1 0 0-3.14 1.57 1.57 0 0 0 0 3.14M326.289 79.7a1.57 1.57 0 1 0 0-3.14 1.57 1.57 0 0 0 0 3.14"/><path fill="#224B5B" d="M320.969 88.59v24.62c-.87 0-1.72-.11-2.53-.33V88.91c.81-.21 1.66-.32 2.53-.32M386.561 88.59v24.62c.87 0 1.72-.11 2.53-.33V88.91c-.81-.21-1.66-.32-2.53-.32"/><path fill="#406D83" d="M353.929 60.23a5.31 5.31 0 1 0 0-10.62 5.31 5.31 0 0 0 0 10.62"/><path fill="#5B899C" d="M357.51 56.399a3.859 3.859 0 1 0-7.121-2.98 3.86 3.86 0 0 0 7.121 2.98M384.92 212.46h-59.93v-70.53c0-2.55 1.66-4.63 4.63-4.63h50.68c2.8 0 4.63 2.07 4.63 4.63v70.53z"/><path fill="#406D83" d="M381.16 123.09a1.57 1.57 0 1 0 0-3.14 1.57 1.57 0 0 0 0 3.14M381.16 79.7a1.57 1.57 0 1 0 0-3.14 1.57 1.57 0 0 0 0 3.14M353.93 120.68c-10.78 0-15.34-5.39-17.09-8.6-.52-.95-.5-2.07.05-3s1.53-1.48 2.61-1.48h28.79a3 3 0 0 1 2.6 1.47c.55.92.58 2.04.07 2.99-1.73 3.21-6.24 8.62-17.03 8.62"/><path fill="#FAFFFF" d="M369.86 110.54c.02.27-.04.56-.19.83-.3.56-.69 1.19-1.19 1.84-2.17 2.82-6.43 6.02-14.56 6.02-8.12 0-12.42-3.21-14.62-6.02-.5-.64-.9-1.26-1.2-1.82-.15-.27-.21-.56-.19-.84.04-.8.69-1.5 1.58-1.5h28.79c.89-.01 1.54.69 1.58 1.49"/><path fill="#E5E5E5" d="M369.86 110.54h-31.95c.04-.8.69-1.5 1.58-1.5h28.79c.89 0 1.54.7 1.58 1.5"/><path fill="#679DB0" d="M368.95 170.56h-28.32c-6.74 0-12.21-5.47-12.21-12.21v-5.27c0-6.74 5.47-12.21 12.21-12.21h28.32c6.74 0 12.21 5.47 12.21 12.21v5.27c0 6.74-5.47 12.21-12.21 12.21"/><path fill="#224B5B" d="M375.049 147.71h-40.51v15.13h40.51z"/><path fill="#00DED1" d="M337.34 160.06a.966.966 0 0 1-.68-1.65l4.85-4.85c.38-.38.99-.38 1.37 0l4.05 4.05 7.07-7.07c.38-.38.99-.38 1.37 0l6.8 6.8 4.58-4.58c.38-.38.99-.38 1.37 0l3.07 3.07c.38.38.38.99 0 1.37s-.99.38-1.37 0l-2.39-2.39-4.58 4.58c-.38.38-.99.38-1.37 0l-6.8-6.8-7.07 7.07c-.38.38-.99.38-1.37 0l-4.05-4.05-4.17 4.17c-.19.19-.44.28-.68.28"/><path fill="#406D83" d="M405.63 191.75c0 5.72-4.64 10.36-10.36 10.36a10.356 10.356 0 0 1-10.35-10.36c0-3.62 1.86-6.81 4.67-8.66 1.63-1.08 3.58-1.7 5.68-1.7 5.72 0 10.36 4.64 10.36 10.36M273.88 138.86c.28-.18.52-.42.72-.7l7.7-11.06a2.69 2.69 0 0 0-.66-3.73 2.684 2.684 0 0 0-3.72.66l-1.9 2.73c-.19-.47-.4-.92-.64-1.35v-10.83c0-.73-.3-1.4-.78-1.89-.49-.49-1.15-.79-1.89-.79-1.47 0-2.67 1.2-2.67 2.67v6.07c-.55-.22-1.13-.39-1.72-.51v-8.43c0-.73-.3-1.4-.78-1.89-.49-.49-1.15-.79-1.89-.79-1.47 0-2.67 1.2-2.67 2.67v8.85c-.6.22-1.18.49-1.72.82v-5.09c0-.74-.3-1.4-.78-1.89-.49-.49-1.15-.78-1.89-.78-1.47 0-2.67 1.2-2.67 2.67v13.48c0 .14.01.29.04.42-.02.3-.04.6-.04.91 0 2.87 1.02 5.49 2.7 7.47-.04.02 6.89 4.32 15.26.31"/><path fill="#224B5B" d="M325.44 139.31v21.13c-.31.27-.64.54-.97.82-.77.64-1.57 1.28-2.4 1.93-6.89 5.38-15.88 10.97-27 15.06-3.84 1.41-7.26 1.97-10.25 1.97-5.36 0-9.37-1.8-12.11-3.71-6.05-4.22-10.14-11.69-12.35-22.6-.3-1.49-.57-3.03-.8-4.65-.26-1.81-.47-3.7-.64-5.67-.01-.04-.01-.08-.01-.11q-.105-1.155-.18-2.34-.09-1.26-.15-2.58s6.93 4.31 15.3.29c-.13.09-.27.16-.41.22.01.06.01.13.02.19.03.64.08 1.27.12 1.88.04.6.1 1.18.15 1.74.38 4.16.96 7.54 1.63 10.28 1.83 7.41 4.39 10.17 5.82 11.17.74.51 3 2.09 8.74-.02 10.26-3.78 18.26-8.92 24.08-13.61a80 80 0 0 0 4.66-4.06c3.62-3.4 5.86-6.16 6.75-7.33"/><path fill="#14313B" d="M325.439 155.72v4.72c-.31.27-.64.54-.97.82-.77.64-1.57 1.28-2.4 1.93-6.89 5.38-15.88 10.97-27 15.06-3.84 1.41-7.26 1.97-10.25 1.97-5.36 0-9.37-1.8-12.11-3.71-6.05-4.22-10.14-11.69-12.35-22.6 0 0 5.08 18.5 20.89 22.25s44.19-20.44 44.19-20.44"/><path fill="#406D83" d="M296.089 172.58c0 .52-.04 1.04-.11 1.54-.75 4.99-5.05 8.82-10.25 8.82a10.356 10.356 0 0 1-10.36-10.36c0-5.72 4.64-10.35 10.36-10.35s10.36 4.63 10.36 10.35"/><path fill="#14313B" d="M325.44 157.05v3.39c-.32.27-.64.55-.97.82-.77.64-1.57 1.29-2.41 1.94-7.22-2.85-7.97-10.56-8.04-12.49 1.75-1.41 3.31-2.78 4.67-4.06l5.71 7.99c0-.01.52 1.03 1.04 2.41"/><path fill="#5B899C" d="M328.819 137.3c-7.85 0-12.12 5.85-12.12 11.72s4.32 10.73 9.95 11.58z"/><path fill="#14313B" d="M273.61 141.14c.04.6.09 1.18.14 1.75-4.52 2.99-14.65.75-14.84.7l-.01-.11-.33-4.91s6.93 4.31 15.3.29c-.13.08-.26.16-.4.22 0 .06.01.13.01.19.04.63.08 1.26.13 1.87M260.359 153.91l.03.12z"/><path fill="#345968" d="M295.979 174.12c-.75 4.99-5.05 8.82-10.25 8.82-5.26 0-9.61-3.92-10.27-9 1.75.95 3.67 1.72 5.79 2.22 4.26 1.01 9.44-.01 14.73-2.04M393.99 202.03c-5.11-.63-9.07-4.99-9.07-10.28 0-3.62 1.86-6.81 4.67-8.66z"/><path fill="#00131E" d="M93.01 267.04c51.368 0 93.01-9.286 93.01-20.74s-41.642-20.74-93.01-20.74S0 234.846 0 246.3s41.642 20.74 93.01 20.74" opacity=".29"/><path fill="#00131E" d="M154.761 249.05H32.991c-4.96 0-9.03-4.06-9.03-9.03V25.4c0-4.96 4.06-9.03 9.03-9.03h121.77c4.96 0 9.03 4.06 9.03 9.03v214.62c0 4.97-4.07 9.03-9.03 9.03"/><path fill="#03283B" d="M157.271 243.59H30.481c-3.58 0-6.52-2.93-6.52-6.52V6.52c0-3.58 2.93-6.52 6.52-6.52h126.79c3.58 0 6.52 2.93 6.52 6.52v230.56c0 3.58-2.94 6.51-6.52 6.51"/><path fill="#E7F2F1" d="M28.75 160.75v47.03c0 1.48.77 2.81 1.96 3.67.87.63 1.96 1 3.15 1H153.9c2.81 0 5.11-2.1 5.11-4.67V29.11c0-1.16-.47-2.23-1.25-3.05-.94-.99-2.32-1.62-3.86-1.62H33.85c-2.81 0-5.11 2.1-5.11 4.67v131.64z"/><path fill="#FAFFFF" d="M162.599 49.98H25.609v163.04H162.6z"/><path fill="#4267AE" d="M162 24H26v26h136z"/><path fill="#FAFFFF" d="M113.11 40.52H42.46c-3 0-5.45-2.45-5.45-5.45s2.45-5.45 5.45-5.45h70.66c3 0 5.45 2.45 5.45 5.45s-2.46 5.45-5.46 5.45"/><path fill="#406D83" d="M117.65 233.65H69.5c-3.3 0-6.01-2.7-6.01-6.01 0-3.3 2.7-6.01 6.01-6.01h48.15c3.3 0 6.01 2.7 6.01 6.01s-2.7 6.01-6.01 6.01M116.54 13.28H71.21c-1.12 0-2.03-.91-2.03-2.03s.91-2.03 2.03-2.03h45.32c1.12 0 2.03.91 2.03 2.03.01 1.12-.9 2.03-2.02 2.03M142.8 11.25c0 1.12-.91 2.03-2.03 2.03s-2.03-.91-2.03-2.03.91-2.03 2.03-2.03 2.03.91 2.03 2.03M148.01 13.28a2.03 2.03 0 1 0 .001-4.059 2.03 2.03 0 0 0-.001 4.059"/><path fill="#7A2B03" d="M124.189 43.32c-.06-.08-.11-.16-.16-.23.1.14.19.28.29.42-.05-.07-.09-.13-.13-.19"/><path fill="#03283B" d="M218.119 40.35v32.93c0 2.93-2.37 5.3-5.3 5.3h-65.78L130.109 82l8.67-13.74V40.35c0-2.93 2.37-5.3 5.3-5.3h68.74c2.92 0 5.3 2.37 5.3 5.3" opacity=".28"/><path fill="#00DED1" d="M218.119 36.76v32.93c0 2.93-2.37 5.3-5.3 5.3h-65.78l-16.93 3.41 8.67-13.74v-27.9c0-2.93 2.37-5.3 5.3-5.3h68.74c2.92 0 5.3 2.37 5.3 5.3"/><path fill="#009C8E" d="M208.199 42.38h-57.29c-.85 0-1.54-.69-1.54-1.54v-.66c0-.85.69-1.54 1.54-1.54h57.29c.85 0 1.54.69 1.54 1.54v.66c0 .85-.69 1.54-1.54 1.54M208.199 49.51h-57.29c-.85 0-1.54-.69-1.54-1.54v-.66c0-.85.69-1.54 1.54-1.54h57.29c.85 0 1.54.69 1.54 1.54v.66c0 .85-.69 1.54-1.54 1.54M208.199 57.52h-57.29c-.85 0-1.54-.69-1.54-1.54v-.66c0-.85.69-1.54 1.54-1.54h57.29c.85 0 1.54.69 1.54 1.54v.66c0 .84-.69 1.54-1.54 1.54M177.399 65.52h-26.49c-.85 0-1.54-.69-1.54-1.54v-.66c0-.85.69-1.54 1.54-1.54h26.49c.85 0 1.54.69 1.54 1.54v.66c0 .84-.69 1.54-1.54 1.54"/><path fill="#FDAC7F" d="M118.579 87.48s2.75-3.81 8.69-1.9c5.95 1.9 2.28 21.18-8.73 22.84z"/><path fill="#D97A61" d="M121.049 92.55s1.41-3.51 4.36-3.37 1.97 8.71-4.36 13.49z"/><path fill="#FDAC7F" d="M68.29 87.48s-2.75-3.81-8.69-1.9c-5.95 1.9-2.28 21.18 8.73 22.84z"/><path fill="#D97A61" d="M65.82 92.55s-1.41-3.51-4.36-3.37-1.97 8.71 4.36 13.49z"/><path fill="#9EC8FF" d="M124.09 212.67H64.16v-70.53c0-2.55 1.66-4.63 4.63-4.63h50.68c2.8 0 4.63 2.07 4.63 4.63v70.53z"/><path fill="#DE8864" d="M102.001 139.69c0 5.65-15.78 5.65-15.78 0v-15.78H102z"/><path fill="#76A9E6" d="M86.22 137.51h-5.49v18.62l12.26-12.26c0 .01-7.67.06-6.77-6.36M102 137.51h5.34v18.62l-12.26-12.26c0 .01 7.47.19 6.92-6.36"/><path fill="#FDAC7F" d="M175.9 138.7s-5.66-6.42-6.09-11.31c-.56-6.36 7.24 3.13 7.24 3.13s-5.83-19.08-1.65-20.94 5.83 13.85 5.83 13.85-2.95-15.82.04-16.27c3.54-.53 4.9 10.84 5.62 15.63 0 0-2.51-13.45.83-13.2s3.02 13.96 3.02 13.96-.37-9.9 1.67-9.48 5.22 8.14-2.59 24.17z"/><path fill="#9EC8FF" d="M65.07 160.98c-10.45 17.96-11.02 43.42-10.92 51.48H39.59c.29-6.33 1.49-24.07 6.05-43.11 7.22-30.09 23.15-31.84 23.15-31.84l.1 17.83a44.7 44.7 0 0 0-3.82 5.64M190 137.95c-.05 1.08-.1 2.15-.17 3.19-.14 1.97-.31 3.86-.52 5.68-.05.44-.11.88-.17 1.31-.04.38-.1.76-.15 1.13-1.93 13.47-6.27 22.45-13.15 27.25-2.73 1.91-6.75 3.72-12.11 3.72-2.99 0-6.4-.57-10.25-1.98-12.42-4.57-22.19-11.01-29.33-16.94a.4.4 0 0 1-.07-.05c-9.39-7.8-14.24-14.69-14.58-15.19l6.11-4.22 7.05-3.15c.12.18 11.74 16.71 35.94 25.61 5.75 2.11 8 .54 8.75.02 2.02-1.42 6.33-6.38 7.59-23.19.08-1.02.14-2.08.2-3.19z"/><path fill="#03283B" d="m85.72 151.14 8.15 6.67 8.481-6.67-7.27-7.26h-2.09z"/><path fill="#03283B" d="m90.89 155.37-6.58 57.66h19.981l-7.31-57.66z"/><path fill="#76A9E6" d="M119.93 165.75h-12.59v3.79h12.59zM65.07 160.98c-10.45 17.96-11.02 43.42-10.92 51.48h-5.12c1.85-39.5 16.04-51.51 16.04-51.51zM189.14 148.13c-.04.38-.1.76-.15 1.13-1.93 13.47-6.27 22.45-13.15 27.25-2.73 1.91-6.75 3.72-12.11 3.72-2.99 0-6.4-.57-10.25-1.98-12.42-4.57-22.19-11.01-29.33-16.94 1.57 1.01 28.75 18.4 40.73 15.65 11.94-2.75 22.2-15.29 24.26-28.83"/><path fill="#FDAC7F" d="M123.141 75.76v24.17c0 7.98-3.27 15.24-8.53 20.51-5.26 5.26-12.52 8.53-20.51 8.53-.55 0-1.09-.02-1.63-.05-15.22-.85-27.41-13.57-27.41-28.99V75.76c0-6.97 2.49-13.38 6.61-18.39 5.34-6.49 13.42-10.64 22.42-10.64 15.99-.01 29.05 13.06 29.05 29.03"/><path fill="#652929" d="M66.75 66.07s-2.85 3.4-1.67 24.41l5.45-8.55.44-10.68s6.88-4.45 6.18-10.02c-.01 0-8.7-1.15-10.4 4.84M121.511 65.11s2.85 3.4 1.67 24.41l-5.45-8.55-.44-10.68s-6.88-4.45-6.18-10.02c0 0 8.69-1.15 10.4 4.84"/><path fill="#03283B" d="M81.18 93c-1.65 0-2.99-1.35-2.99-2.99v-3.03c0-1.65 1.35-2.99 2.99-2.99 1.65 0 2.99 1.35 2.99 2.99v3.03c0 1.64-1.35 2.99-2.99 2.99M107.279 93c-1.65 0-2.99-1.35-2.99-2.99v-3.03c0-1.65 1.35-2.99 2.99-2.99 1.65 0 2.99 1.35 2.99 2.99v3.03c0 1.64-1.34 2.99-2.99 2.99"/><path fill="#652929" d="M74.01 77.47c1.35-1.04 4.45-2.98 8.53-2.79a1.875 1.875 0 0 1 .23 3.72c-1.8.32-4.83.96-7.01 1.95-1.06.49-2.28-.21-2.4-1.37-.07-.57.18-1.15.65-1.51M113.969 77.47c-1.35-1.04-4.45-2.98-8.53-2.79a1.875 1.875 0 0 0-.23 3.72c1.8.32 4.83.96 7.01 1.95a1.697 1.697 0 0 0 1.75-2.88"/><path fill="#fff" d="M80.28 101.68c0 1.06.12 2.09.35 3.08h26.969c.22-.99.35-2.02.35-3.08z"/><path fill="#03283B" d="M104.169 111.17c1.66-1.76 2.87-3.96 3.43-6.41h-26.98c.56 2.47 1.78 4.68 3.46 6.45 2.52-1.16 10.66-4.17 20.09-.04"/><path fill="#FF3451" d="M94.11 115.51c3.97 0 7.54-1.67 10.06-4.34-9.43-4.13-17.57-1.12-20.08.04 2.52 2.65 6.07 4.3 10.02 4.3"/><path fill="#D97A61" d="M89.86 96.41s1.15-2.57 4.42-2.37c3.27.19 4.1 2.37 4.1 2.37z"/><path fill="#883938" d="M113.919 62.63c-19.24 1.09-16.42-.09-23.89.87-6.24.8-10.31 5.92-21.75 3.51 0 0-8.43-11.16 4.54-19.02 12.98-7.87 22.91-19.45 40.04-13.11 4.94 1.83 8.73 4.83 11.14 8.19.01.01.01.02.02.03.1.14.19.28.29.42.21.31.4.62.59.93 4.76 8.01 1.96 17.44-10.98 18.18"/><path fill="#652929" d="M113.919 62.63c-19.24 1.09-16.42-.09-23.89.87-6.24.8-10.31 5.92-21.75 3.51 0 0-8.43-11.16 4.54-19.02 0 0-4.73 6.1 0 10.26s18.26-3.92 33.27-3.05c14.28.83 22.85-3.62 18.8-10.76 4.77 8.02 1.97 17.45-10.97 18.19"/><path fill="#652929" d="M68.33 61.14s-1.85-7.48-5.83-8.24c0 0-.78 7.1 3.66 10.27 0 0-3.31-2.03-7.32.22 0 0 1.75 5.37 8.09 5.35 8.2-.01 1.4-7.6 1.4-7.6"/><path fill="#03283B" d="M125.87 84.89c-1.77-3.26-6.39-3.26-8.55-3.06-.22-.25-.54-.41-.9-.41h-17.8c-.49 0-.91.29-1.1.72-2.26-1.39-4.8-.96-6.64-.16-.21-.34-.59-.56-1.02-.56h-17.8c-.36 0-.69.16-.9.41-2.14-.2-6.81-.22-8.58 3.06-.03.05-.05.11-.07.16 1.03-.03 1.92.12 2.66.36 1.02-.99 2.85-1.25 4.42-1.25.45 0 .89.02 1.27.05l-.03 5.58c-.01 2.19.87 4.32 2.41 5.87a8.16 8.16 0 0 0 5.82 2.41h3.41c2.2 0 4.27-.86 5.82-2.41l.36-.36a8.2 8.2 0 0 0 2.41-5.82v-4.89c1.05-.61 3.8-1.88 5.91.16.12.12.27.21.42.26l-.03 4.78c-.01 2.19.87 4.32 2.41 5.87a8.14 8.14 0 0 0 5.82 2.41H109c2.2 0 4.27-.86 5.82-2.41l.36-.36a8.2 8.2 0 0 0 2.41-5.82v-5.26c1.56-.14 3.93-.08 5.32.92.88-.13 1.89-.12 3.06.11 0-.13-.04-.25-.1-.36m-37.21 4.58c0 1.56-.61 3.02-1.71 4.12l-.36.36a5.79 5.79 0 0 1-4.12 1.71h-3.41c-1.56 0-3.02-.61-4.12-1.71a5.87 5.87 0 0 1-1.71-4.15l.03-5.98h15.4zm26.56 0c0 1.56-.61 3.02-1.71 4.12l-.36.36a5.8 5.8 0 0 1-4.12 1.71h-3.41c-1.56 0-3.02-.61-4.12-1.71a5.83 5.83 0 0 1-1.71-4.15l.03-5.98h15.4z"/><path fill="#FAFFFF" d="M88.66 83.82v5.65c0 1.56-.6 3.02-1.71 4.12l-.36.36a5.75 5.75 0 0 1-4.12 1.71h-3.41c-1.56 0-3.03-.6-4.13-1.71a5.836 5.836 0 0 1-1.7-4.15l.03-5.98zM115.219 83.82v5.65c0 1.56-.61 3.02-1.71 4.12l-.37.36a5.73 5.73 0 0 1-4.12 1.71h-3.41c-1.56 0-3.02-.6-4.12-1.71-.11-.11-.21-.22-.3-.34a5.8 5.8 0 0 1-1.41-3.81l.03-5.98z" opacity=".22"/><path fill="#FAFFFF" d="M88.66 84.98v4.49c0 1.56-.6 3.02-1.71 4.12l-.36.36a5.75 5.75 0 0 1-4.12 1.71h-3.41c-1.56 0-3.03-.6-4.13-1.71-.06-.06-.12-.12-.18-.19l13.91-9.94c-.19.38-.17.75 0 1.16M115.219 83.82v5.65c0 1.56-.61 3.02-1.71 4.12l-.37.36a5.73 5.73 0 0 1-4.12 1.71h-3.41c-1.56 0-3.02-.6-4.12-1.71-.11-.11-.21-.22-.3-.34l13.25-9.79z" opacity=".3"/><path fill="#76A9E6" d="M174.939 141.14h14.88c.07-1.04.13-2.1.17-3.19h-14.86z"/></g><defs><clipPath id="a"><path fill="#fff" d="M0 0h447.05v267.03H0z"/></clipPath></defs></svg>