<svg xmlns="http://www.w3.org/2000/svg" width="299" height="320" fill="none"><path fill="url(#a)" d="M44.08 295.017c57.947 33.459 152.194 33.287 210.511-.378s58.609-88.084.661-121.543-152.195-33.287-210.512.378c-58.316 33.673-58.608 88.084-.66 121.543"/><path fill="#F0F0F0" d="M7.693 254.185c.258.464.507.927.781 1.382v.009a66 66 0 0 0 3.356 5.201 74 74 0 0 0 5.108 6.438c6.858 7.768 15.905 15.038 27.14 21.528 57.949 33.458 152.196 33.295 210.521-.378 58.308-33.665 58.609-88.085.653-121.543-11.245-6.49-23.845-11.717-37.296-15.674a209 209 0 0 0-11.124-2.944 203 203 0 0 0-9.03-1.931l-.009-.009-.008.009a114 114 0 0 0-2.412-.455 245 245 0 0 0-12.429-1.923c-1.176-.155-2.352-.292-3.537-.438-35.888-4.077-73.956-.455-106.264 10.867a100 100 0 0 0-1.743.609c-7.527 2.721-14.729 5.863-21.502 9.434-1.75.91-3.476 1.862-5.167 2.841a138 138 0 0 0-5.03 3.047c-11.193 7.099-19.965 15.013-26.325 23.39q-.428.567-.842 1.133c-13.802 18.91-15.424 40.051-4.84 59.407"/><path fill="url(#b)" d="M28.862 222.924c-2.867 1.656-2.885 4.335-.035 5.991l122.865 71.398c2.85 1.657 7.477 1.657 10.344 0l117.157-67.621c2.866-1.657 2.884-4.335.034-5.991l-122.865-71.398c-2.85-1.657-7.476-1.657-10.343 0z"/><path fill="#282736" d="m132.455 159.586-.017 4.712-2.584 1.502.009-4.712zM120.009 52.789c.438-.258.953-.378 1.528-.343.661.034 1.399.257 2.171.712l123.664 71.39c1.176.678 2.266 1.759 3.133 3.03 1.244 1.811 2.043 3.991 2.034 5.931l-.266 94.007c-.009 1.639-.584 2.79-1.511 3.33l-2.592 1.503c.936-.541 1.511-1.691 1.511-3.331l.266-94.007c.008-1.94-.79-4.12-2.035-5.931-.866-1.262-1.957-2.344-3.133-3.03L121.116 54.652c-.772-.447-1.511-.678-2.172-.713-.575-.026-1.09.095-1.527.344z"/><path fill="#B3B4B8" d="M249.08 231.808c.935-.541 1.511-1.691 1.511-3.331l.266-94.007c.008-1.94-.79-4.12-2.035-5.931-.867-1.262-1.957-2.343-3.133-3.03L122.026 54.111c-.773-.446-1.511-.678-2.172-.712a2.7 2.7 0 0 0-1.399.283l1.554-.901c.438-.258.953-.378 1.528-.344.661.035 1.399.258 2.171.713l123.664 71.398c1.176.678 2.266 1.759 3.133 3.03 1.244 1.811 2.043 3.991 2.034 5.931l-.266 94.007c-.009 1.64-.584 2.79-1.511 3.33l-2.592 1.503c.043-.026.077-.052.112-.069z"/><path fill="#282736" d="m225.689 213.413-.008 4.713-2.592 1.502.008-4.704z"/><path fill="#323142" d="M115.906 57.622c.008-3.297 2.343-4.618 5.21-2.97l123.663 71.398c2.867 1.656 5.185 5.665 5.176 8.961l-.266 92.608-134.041-77.389z"/><path fill="#743AF0" d="m118.294 144.153 37.51 21.664 52.326 30.206 38.935 22.48.257-87.037-128.77-74.342z"/><path fill="#7B40F7" d="m118.293 144.153 37.511 21.664 76.762-42.866-114.015-65.827z"/><path fill="#B3B4B8" d="m244.479 231.98-9.038-5.219.017-4.713-12.36-7.133-.018 4.713-80.874-46.695.017-4.712-12.36-7.133-.017 4.712-9.039-5.218c-2.867-1.657-5.184-5.666-5.176-8.962v-1.39l134.058 77.389v1.391c-.008 3.296-2.343 4.626-5.21 2.97"/><path fill="#79778C" d="m124.714 166.401.009 3.365 5.279-3.047-.009-3.365zM217.349 220.229l.009 3.373 5.279-3.047-.009-3.373z"/><path fill="url(#c)" d="M28.861 205.362c-2.867 1.657-2.884 4.335-.034 5.991l122.865 71.398c2.85 1.657 7.476 1.657 10.343 0l81.81-47.226c2.867-1.657 2.884-4.335.034-5.992l-8.978-5.218-5.279 3.047-12.275-7.133 5.279-3.047-80.35-46.695-5.279 3.047-12.275-7.133 5.279-3.047-8.978-5.219c-2.85-1.656-7.477-1.656-10.343 0z"/><path fill="url(#d)" d="m114.156 172.496-42.162 24.343 104.908 60.96 42.162-24.343z"/><path fill="url(#e)" d="M116.8 171.551c-.481.275-.481.721-.009.996l102.196 59.381c.472.275 1.245.275 1.726 0l3.347-1.931c.481-.275.481-.721.009-.996L121.882 169.62c-.473-.275-1.245-.275-1.726 0z"/><path fill="url(#f)" d="m28.828 211.353 122.865 71.398c2.85 1.657 7.476 1.657 10.343 0l81.81-47.226c1.442-.833 2.163-1.923 2.163-3.013l.009 3.373c0 1.09-.721 2.18-2.163 3.013l-81.81 47.227c-2.867 1.656-7.494 1.656-10.344 0L28.836 214.727c-1.416-.824-2.12-1.897-2.128-2.979l-.009-3.373c.009 1.081.721 2.163 2.129 2.978"/><path fill="url(#g)" d="M111.609 173.92c-.481.275-.481.721-.009.996l4.729 2.747c.473.274 1.245.274 1.726 0l1.279-.738c.48-.275.48-.721.008-.996l-4.729-2.747c-.472-.275-1.245-.275-1.726 0z"/><path fill="url(#h)" d="M104.149 178.229c-.481.275-.481.721-.009.996l5.871 3.416c.472.275 1.245.275 1.726 0l4.755-2.746c.481-.275.481-.721.009-.996l-5.872-3.416c-.472-.275-1.244-.275-1.725 0z"/><path fill="url(#i)" d="M119.017 178.229c-.481.275-.481.721-.009.996l4.73 2.747c.472.274 1.244.274 1.725 0l1.279-.739c.481-.274.481-.721.009-.995l-4.73-2.747c-.472-.275-1.245-.275-1.725 0z"/><path fill="url(#j)" d="M112.706 183.199c-.48.275-.48.721-.008.996l4.729 2.747c.472.274 1.245.274 1.726 0l4.755-2.747c.481-.275.481-.721.009-.996l-4.73-2.747c-.472-.274-1.245-.274-1.725 0z"/><path fill="url(#k)" d="M126.423 182.53c-.481.274-.481.721-.009.995l4.73 2.747c.472.275 1.245.275 1.725 0l1.279-.738c.481-.275.481-.721.009-.996l-4.73-2.747c-.472-.274-1.244-.274-1.725 0z"/><path fill="url(#l)" d="M120.115 187.508c-.481.275-.481.721-.009.996l4.73 2.746c.472.275 1.244.275 1.725 0l4.755-2.746c.481-.275.481-.721.009-.996l-4.73-2.747c-.472-.274-1.244-.274-1.725 0z"/><path fill="url(#m)" d="M133.831 186.838c-.481.275-.481.722-.008.996l4.729 2.747c.472.275 1.245.275 1.725 0l1.279-.738c.481-.275.481-.721.009-.996l-4.73-2.747c-.472-.274-1.244-.274-1.725 0z"/><path fill="url(#n)" d="M127.523 191.808c-.481.275-.481.721-.009.996l4.73 2.747c.472.275 1.244.275 1.725 0l4.755-2.747c.481-.275.481-.721.009-.996l-4.73-2.746c-.472-.275-1.244-.275-1.725 0z"/><path fill="url(#o)" d="M141.237 191.148c-.48.274-.48.721-.008.995l4.729 2.747c.472.275 1.245.275 1.726 0l1.279-.738c.48-.275.48-.721.008-.996l-4.729-2.747c-.472-.274-1.245-.274-1.726 0z"/><path fill="url(#p)" d="M134.931 196.117c-.481.275-.481.721-.009.996l4.73 2.747c.472.274 1.245.274 1.725 0l4.756-2.747c.48-.275.48-.721.008-.996l-4.729-2.746c-.473-.275-1.245-.275-1.726 0z"/><path fill="url(#q)" d="M148.653 195.448c-.48.275-.48.721-.008.996l4.729 2.746c.472.275 1.245.275 1.726 0l1.279-.738c.48-.275.48-.721.008-.996l-4.729-2.746c-.472-.275-1.245-.275-1.726 0z"/><path fill="url(#r)" d="M142.335 200.418c-.48.275-.48.721-.008.996l4.729 2.746c.472.275 1.245.275 1.726 0l4.755-2.746c.481-.275.481-.721.008-.996l-4.729-2.747c-.472-.275-1.245-.275-1.725 0z"/><path fill="url(#s)" d="M156.062 199.757c-.481.275-.481.721-.009.996l4.73 2.746c.472.275 1.244.275 1.725 0l1.279-.738c.481-.274.481-.721.008-.996l-4.729-2.746c-.472-.275-1.245-.275-1.725 0z"/><path fill="url(#t)" d="M149.744 204.727c-.481.274-.481.721-.009.995l4.729 2.747c.473.275 1.245.275 1.726 0l4.755-2.747c.481-.274.481-.721.009-.995l-4.73-2.747c-.472-.275-1.245-.275-1.725 0z"/><path fill="url(#u)" d="M163.47 204.066c-.481.274-.481.721-.009.995l4.73 2.747c.472.275 1.244.275 1.725 0l1.279-.738c.481-.275.481-.721.009-.996l-4.73-2.746c-.472-.275-1.245-.275-1.725 0z"/><path fill="url(#v)" d="M157.161 209.036c-.48.274-.48.721-.008.995l4.729 2.747c.473.275 1.245.275 1.726 0l4.755-2.747c.481-.274.481-.721.009-.995l-4.73-2.747c-.472-.275-1.245-.275-1.725 0z"/><path fill="url(#w)" d="M170.878 208.366c-.481.275-.481.721-.009.996l4.73 2.747c.472.274 1.245.274 1.725 0l1.279-.739c.481-.274.481-.721.009-.995l-4.73-2.747c-.472-.275-1.244-.275-1.725 0z"/><path fill="url(#x)" d="M164.568 213.336c-.481.275-.481.721-.009.996l4.73 2.746c.472.275 1.244.275 1.725 0l4.755-2.746c.481-.275.481-.721.009-.996l-4.73-2.747c-.472-.274-1.244-.274-1.725 0z"/><path fill="url(#y)" d="M178.286 212.675c-.48.275-.48.721-.008.996l4.729 2.747c.472.274 1.245.274 1.726 0l1.278-.739c.481-.274.481-.721.009-.995l-4.73-2.747c-.472-.275-1.244-.275-1.725 0z"/><path fill="url(#z)" d="M171.976 217.645c-.481.275-.481.721-.009.996l4.73 2.746c.472.275 1.245.275 1.725 0l4.755-2.746c.481-.275.481-.721.009-.996l-4.729-2.747c-.473-.275-1.245-.275-1.726 0z"/><path fill="url(#A)" d="M185.693 216.975c-.481.275-.481.721-.009.996l4.729 2.747c.473.275 1.245.275 1.726 0l1.279-.738c.48-.275.48-.721.008-.996l-4.729-2.747c-.472-.274-1.245-.274-1.726 0z"/><path fill="url(#B)" d="M179.384 221.945c-.481.275-.481.721-.008.996l4.729 2.747c.472.274 1.245.274 1.725 0l4.756-2.747c.48-.275.48-.721.008-.996l-4.729-2.747c-.472-.274-1.245-.274-1.726 0z"/><path fill="url(#C)" d="M193.109 221.284c-.481.275-.481.721-.009.996l4.729 2.747c.473.274 1.245.274 1.726 0l1.279-.738c.48-.275.48-.721.008-.996l-4.729-2.747c-.472-.275-1.245-.275-1.726 0z"/><path fill="url(#D)" d="M186.792 226.254c-.48.275-.48.721-.008.996l4.729 2.747c.472.274 1.245.274 1.726 0l4.755-2.747c.481-.275.481-.721.008-.996l-4.729-2.746c-.472-.275-1.245-.275-1.725 0z"/><path fill="url(#E)" d="M200.517 225.593c-.481.275-.481.721-.009.996l4.73 2.747c.472.274 1.244.274 1.725 0l1.279-.738c.481-.275.481-.721.009-.996l-4.73-2.747c-.472-.274-1.245-.274-1.725 0z"/><path fill="url(#F)" d="M194.199 230.563c-.481.275-.481.721-.009.996l4.73 2.747c.472.274 1.244.274 1.725 0l4.755-2.747c.481-.275.481-.721.009-.996l-4.73-2.747c-.472-.274-1.244-.274-1.725 0z"/><path fill="url(#G)" d="M207.924 229.894c-.481.274-.481.721-.009.995l5.872 3.417c.472.274 1.244.274 1.725 0l1.279-.739c.48-.274.48-.721.008-.995l-5.871-3.417c-.472-.274-1.244-.274-1.725 0z"/><path fill="url(#H)" d="M201.605 234.864c-.481.274-.481.721-.009.995l4.73 2.747c.472.275 1.244.275 1.725 0l4.755-2.747c.481-.274.481-.721.009-.995l-4.73-2.747c-.472-.275-1.244-.275-1.725 0z"/><path fill="url(#I)" d="M96.639 182.564c-.48.275-.48.721-.009.996l9.09 5.287c.472.275 1.245.275 1.726 0l4.755-2.747c.481-.274.481-.721.008-.995l-9.089-5.288c-.473-.275-1.245-.275-1.726 0z"/><path fill="url(#J)" d="M108.466 189.379c-.481.275-.481.721-.008.996l4.729 2.747c.472.274 1.245.274 1.725 0l4.756-2.747c.48-.275.48-.721.008-.996l-4.729-2.746c-.472-.275-1.245-.275-1.726 0z"/><path fill="url(#K)" d="M115.874 193.68c-.48.274-.48.721-.008.995l4.729 2.747c.472.275 1.245.275 1.726 0l4.755-2.747c.481-.274.481-.721.008-.995l-4.729-2.747c-.472-.275-1.245-.275-1.725 0z"/><path fill="url(#L)" d="M123.29 197.989c-.48.274-.48.721-.008.995l4.729 2.747c.472.275 1.245.275 1.726 0l4.755-2.747c.481-.274.481-.721.009-.995l-4.73-2.747c-.472-.275-1.245-.275-1.725 0z"/><path fill="url(#M)" d="M130.697 202.297c-.481.275-.481.721-.009.996l4.73 2.747c.472.275 1.244.275 1.725 0l4.755-2.747c.481-.275.481-.721.009-.996l-4.73-2.746c-.472-.275-1.244-.275-1.725 0z"/><path fill="url(#N)" d="M138.105 206.598c-.481.275-.481.721-.009.996l4.73 2.746c.472.275 1.244.275 1.725 0l4.755-2.746c.481-.275.481-.721.009-.996l-4.73-2.747c-.472-.274-1.244-.274-1.725 0z"/><path fill="url(#O)" d="M145.513 210.907c-.481.275-.481.721-.009.996l4.73 2.746c.472.275 1.245.275 1.725 0l4.756-2.746c.48-.275.48-.721.008-.996l-4.729-2.747c-.472-.275-1.245-.275-1.726 0z"/><path fill="url(#P)" d="M152.921 215.207c-.48.275-.48.721-.008.996l4.729 2.747c.472.274 1.245.274 1.725 0l4.756-2.747c.48-.275.48-.721.008-.996l-4.729-2.747c-.472-.274-1.245-.274-1.725 0z"/><path fill="url(#Q)" d="M160.329 219.516c-.48.275-.48.721-.008.996l4.729 2.747c.472.274 1.245.274 1.726 0l4.755-2.747c.481-.275.481-.721.009-.996l-4.73-2.747c-.472-.274-1.245-.274-1.725 0z"/><path fill="url(#R)" d="M167.736 223.825c-.481.275-.481.721-.009.996l4.73 2.746c.472.275 1.244.275 1.725 0l4.755-2.746c.481-.275.481-.721.009-.996l-4.73-2.747c-.472-.274-1.244-.274-1.725 0z"/><path fill="url(#S)" d="M175.152 228.125c-.481.275-.481.721-.009.996l4.73 2.747c.472.274 1.244.274 1.725 0l4.755-2.747c.481-.275.481-.721.009-.996l-4.73-2.746c-.472-.275-1.244-.275-1.725 0z"/><path fill="url(#T)" d="M89.136 186.899c-.48.274-.48.721-.009.995l12.798 7.442c.473.275 1.245.275 1.726 0l4.755-2.747c.481-.274.481-.721.009-.995l-12.799-7.442c-.472-.275-1.244-.275-1.725 0z"/><path fill="url(#U)" d="M104.613 195.894c-.481.275-.481.721-.009.996l4.73 2.747c.472.274 1.244.274 1.725 0l4.755-2.747c.481-.275.481-.721.009-.996l-4.73-2.747c-.472-.274-1.244-.274-1.725 0z"/><path fill="url(#V)" d="M112.021 200.195c-.481.274-.481.721-.009.995l4.73 2.747c.472.275 1.244.275 1.725 0l4.755-2.747c.481-.274.481-.721.009-.995l-4.73-2.747c-.472-.275-1.244-.275-1.725 0z"/><path fill="url(#W)" d="M119.435 204.504c-.481.274-.481.721-.009.995l4.73 2.747c.472.275 1.244.275 1.725 0l4.755-2.747c.481-.274.481-.721.009-.995l-4.729-2.747c-.473-.275-1.245-.275-1.726 0z"/><path fill="url(#X)" d="M126.843 208.812c-.481.275-.481.721-.008.996l4.729 2.747c.472.274 1.245.274 1.725 0l4.756-2.747c.48-.275.48-.721.008-.996l-4.729-2.746c-.472-.275-1.245-.275-1.726 0z"/><path fill="url(#Y)" d="M81.583 191.259c-.481.275-.481.721-.009.996l5.39 3.133c.473.274 1.245.274 1.726 0l4.755-2.747c.48-.275.48-.721.009-.996l-5.39-3.133c-.473-.275-1.245-.275-1.726 0z"/><path fill="url(#Z)" d="M89.652 195.946c-.481.274-.481.721-.009.995l4.73 2.747c.472.275 1.244.275 1.725 0l4.755-2.747c.481-.274.481-.721.009-.995l-4.73-2.747c-.472-.275-1.244-.275-1.725 0z"/><path fill="url(#aa)" d="M97.06 200.255c-.48.274-.48.721-.009.995l4.73 2.747c.472.275 1.244.275 1.725 0l4.755-2.747c.481-.274.481-.721.009-.995l-4.73-2.747c-.472-.275-1.244-.275-1.725 0z"/><path fill="url(#ab)" d="M104.466 204.564c-.481.274-.481.721-.008.995l4.729 2.747c.472.275 1.245.275 1.725 0l4.756-2.747c.48-.274.48-.721.008-.995l-4.729-2.747c-.472-.275-1.245-.275-1.726 0z"/><path fill="url(#ac)" d="M111.874 208.864c-.48.275-.48.721-.008.996l4.729 2.746c.472.275 1.245.275 1.726 0l4.755-2.746c.481-.275.481-.721.008-.996l-4.729-2.747c-.472-.275-1.245-.275-1.725 0z"/><path fill="url(#ad)" d="M119.29 213.173c-.48.275-.48.721-.008.996l4.729 2.746c.472.275 1.245.275 1.726 0l4.755-2.746c.481-.275.481-.721.009-.996l-4.73-2.747c-.472-.274-1.245-.274-1.725 0z"/><path fill="url(#ae)" d="M134.251 213.113c-.48.275-.48.721-.008.996l4.729 2.746c.472.275 1.245.275 1.726 0l4.755-2.746c.481-.275.481-.721.008-.996l-4.729-2.747c-.472-.275-1.245-.275-1.725 0z"/><path fill="url(#af)" d="M141.66 217.422c-.481.274-.481.721-.009.995l4.729 2.747c.473.275 1.245.275 1.726 0l4.755-2.747c.481-.274.481-.721.009-.995l-4.73-2.747c-.472-.275-1.245-.275-1.725 0z"/><path fill="url(#ag)" d="M126.699 217.482c-.481.274-.481.721-.009.995l4.73 2.747c.472.275 1.244.275 1.725 0l4.755-2.747c.481-.274.481-.721.009-.995l-4.73-2.747c-.472-.275-1.244-.275-1.725 0z"/><path fill="url(#ah)" d="M134.105 221.782c-.481.275-.481.721-.009.996l4.73 2.747c.472.274 1.244.274 1.725 0l4.755-2.747c.481-.275.481-.721.009-.996l-4.73-2.747c-.472-.274-1.244-.274-1.725 0z"/><path fill="url(#ai)" d="M149.066 221.731c-.481.275-.481.721-.009.996l4.73 2.746c.472.275 1.244.275 1.725 0l4.755-2.746c.481-.275.481-.721.009-.996l-4.73-2.747c-.472-.275-1.244-.275-1.725 0z"/><path fill="url(#aj)" d="M156.474 226.031c-.481.275-.481.721-.009.996l4.73 2.747c.472.274 1.245.274 1.725 0l4.756-2.747c.48-.275.48-.721.008-.996l-4.729-2.747c-.473-.274-1.245-.274-1.726 0z"/><path fill="url(#ak)" d="M141.513 226.091c-.481.275-.481.721-.009.996l4.73 2.747c.472.274 1.245.274 1.725 0l4.756-2.747c.48-.275.48-.721.008-.996l-4.729-2.747c-.472-.274-1.245-.274-1.726 0z"/><path fill="url(#al)" d="M148.921 230.391c-.48.275-.48.721-.008.996l4.729 2.747c.472.275 1.245.275 1.725 0l4.756-2.747c.48-.275.48-.721.008-.996l-4.729-2.746c-.472-.275-1.245-.275-1.725 0z"/><path fill="url(#am)" d="M74.124 195.568c-.48.275-.48.721-.008.996l4.73 2.746c.471.275 1.244.275 1.725 0l4.755-2.746c.48-.275.48-.721.009-.996l-4.73-2.747c-.472-.274-1.245-.274-1.725 0z"/><path fill="url(#an)" d="M85.189 197.972c-.481.274-.481.721-.009.995l4.73 2.747c.472.275 1.244.275 1.725 0l1.279-.738c.48-.275.48-.721.008-.996l-4.73-2.747c-.471-.274-1.244-.274-1.724 0z"/><path fill="url(#ao)" d="M81.71 199.971c-.48.275-.48.721-.008.996l4.729 2.747c.472.274 1.245.274 1.725 0l1.28-.738c.48-.275.48-.721.008-.996l-4.73-2.747c-.472-.275-1.244-.275-1.725 0z"/><path fill="url(#ap)" d="M89.12 204.28c-.48.275-.48.721-.008.996l4.73 2.747c.472.275 1.244.275 1.725 0l4.755-2.747c.481-.275.481-.721.009-.996l-4.73-2.746c-.472-.275-1.245-.275-1.725 0z"/><path fill="url(#aq)" d="M96.525 208.589c-.48.275-.48.721-.009.996l4.73 2.747c.472.274 1.244.274 1.725 0l4.755-2.747c.481-.275.481-.721.009-.996l-4.73-2.747c-.472-.274-1.244-.274-1.725 0z"/><path fill="url(#ar)" d="M103.935 212.89c-.481.274-.481.721-.009.995l42.738 24.832c.472.275 1.244.275 1.725 0l4.755-2.746c.481-.275.481-.721.009-.996l-42.738-24.832c-.472-.275-1.244-.275-1.725 0z"/><path fill="url(#as)" d="M163.89 230.34c-.481.275-.481.721-.009.996l4.73 2.746c.472.275 1.245.275 1.725 0l4.756-2.746c.48-.275.48-.721.008-.996l-4.729-2.747c-.473-.274-1.245-.274-1.726 0z"/><path fill="url(#at)" d="M156.329 234.701c-.48.274-.48.721-.008.995l4.729 2.747c.472.275 1.245.275 1.726 0l4.755-2.747c.481-.274.481-.721.009-.995l-4.73-2.747c-.472-.275-1.245-.275-1.725 0z"/><path fill="url(#au)" d="M149.359 239.284c-.481.275-.481.721-.009.996l4.73 2.746c.472.275 1.244.275 1.725 0l4.755-2.746c.481-.275.481-.721.009-.996l-4.73-2.747c-.472-.274-1.244-.274-1.725 0z"/><path fill="url(#av)" d="M182.56 232.434c-.481.275-.481.721-.009.996l4.73 2.747c.472.275 1.244.275 1.725 0l4.755-2.747c.481-.275.481-.721.009-.996l-4.73-2.746c-.472-.275-1.244-.275-1.725 0z"/><path fill="url(#aw)" d="M171.298 234.64c-.48.275-.48.721-.008.996l4.729 2.747c.472.275 1.245.275 1.725 0l4.756-2.747c.48-.275.48-.721.008-.996l-4.729-2.746c-.472-.275-1.245-.275-1.726 0z"/><path fill="url(#ax)" d="M163.736 239.009c-.481.275-.481.721-.009.996l4.73 2.747c.472.274 1.244.274 1.725 0l4.755-2.747c.481-.275.481-.721.009-.996l-4.73-2.746c-.472-.275-1.244-.275-1.725 0z"/><path fill="url(#ay)" d="M156.765 243.593c-.481.275-.481.721-.009.996l4.73 2.747c.472.274 1.245.274 1.725 0l4.756-2.747c.48-.275.48-.721.008-.996l-4.729-2.747c-.473-.274-1.245-.274-1.726 0z"/><path fill="url(#az)" d="M189.916 236.769c-.481.275-.481.721-.009.996l8.919 5.184c.472.275 1.244.275 1.725 0l4.755-2.746c.481-.275.481-.721.009-.996l-8.918-5.185c-.472-.274-1.245-.274-1.726 0z"/><path fill="url(#aA)" d="M178.705 238.949c-.481.275-.481.721-.009.996l12.618 7.33c.472.275 1.245.275 1.725 0l4.756-2.746c.48-.275.48-.721.008-.996l-12.618-7.33c-.472-.275-1.244-.275-1.725 0z"/><path fill="url(#aB)" d="M171.152 243.31c-.481.275-.481.721-.008.996l12.617 7.33c.472.275 1.245.275 1.726 0l4.755-2.747c.481-.274.481-.721.009-.995l-12.618-7.331c-.472-.274-1.245-.274-1.726 0z"/><path fill="url(#aC)" d="M164.173 247.893c-.48.275-.48.721-.008.996l4.729 2.747c.472.275 1.245.275 1.725 0l4.756-2.747c.48-.275.48-.721.008-.996l-4.729-2.746c-.472-.275-1.245-.275-1.726 0z"/><path fill="url(#aD)" d="M171.581 252.203c-.48.274-.48.721-.008.995l4.729 2.747c.472.275 1.245.275 1.726 0l4.755-2.747c.481-.274.481-.721.009-.995l-4.73-2.747c-.472-.275-1.245-.275-1.725 0z"/><path fill="#323142" d="m119.333 177.551-1.279.738c-.481.275-1.245.275-1.725 0l-4.73-2.746c-.232-.138-.352-.318-.352-.498v-.627c0 .18.12.361.352.498l4.73 2.747c.472.274 1.244.274 1.725 0l1.279-.738c.24-.138.36-.318.36-.507v.627c0 .189-.12.369-.36.506M116.499 179.894c.24-.137.36-.317.36-.506v.627c0 .18-.12.36-.36.506l-4.755 2.747c-.481.274-1.245.274-1.726 0l-5.871-3.417c-.232-.137-.352-.317-.352-.497v-.627c0 .18.12.361.352.498l5.871 3.416c.472.275 1.245.275 1.726 0zM126.741 181.86l-1.279.738c-.481.275-1.253.275-1.725 0l-4.73-2.747c-.231-.137-.352-.317-.352-.497v-.627c0 .18.121.361.352.498l4.73 2.747c.472.274 1.244.274 1.725 0l1.279-.739c.24-.137.361-.317.361-.506v.627c0 .18-.121.36-.361.506M112.345 184.324v-.627c0 .18.12.361.352.498l4.729 2.747c.473.274 1.245.274 1.726 0l4.755-2.747c.24-.137.361-.318.361-.507v.627c0 .18-.121.361-.361.507l-4.755 2.746c-.481.275-1.245.275-1.726 0l-4.729-2.746c-.232-.138-.352-.318-.352-.498M134.155 186.161l-1.279.738c-.481.274-1.253.274-1.725 0l-4.73-2.747c-.231-.137-.352-.318-.352-.498v-.626c0 .18.121.36.352.497l4.73 2.747c.472.275 1.244.275 1.725 0l1.279-.738c.24-.137.361-.318.361-.506v.626c-.009.189-.121.369-.361.507M126.56 191.25l4.755-2.746c.241-.138.361-.318.361-.507v.627c0 .18-.12.36-.361.506l-4.755 2.747c-.481.275-1.245.275-1.725 0l-4.73-2.747c-.232-.137-.352-.317-.352-.498v-.626c0 .18.12.36.352.498l4.73 2.746c.472.275 1.244.275 1.725 0M141.563 190.469l-1.279.739c-.48.274-1.244.274-1.725 0l-4.729-2.747c-.232-.137-.352-.318-.352-.498v-.627c0 .181.12.361.352.498l4.729 2.747c.472.275 1.245.275 1.725 0l1.279-.738c.241-.138.361-.318.361-.507v.627c0 .18-.12.369-.361.506M133.968 195.56l4.755-2.747c.241-.138.361-.318.361-.507v.627c0 .18-.12.361-.361.506l-4.755 2.747c-.481.275-1.244.275-1.725 0l-4.73-2.747c-.231-.137-.352-.317-.352-.497v-.627c0 .18.121.36.352.498l4.73 2.747c.472.274 1.244.274 1.725 0M148.972 194.77l-1.279.738c-.481.275-1.245.275-1.726 0l-4.729-2.747c-.232-.137-.352-.317-.352-.497v-.627c0 .18.12.36.352.498l4.729 2.747c.472.274 1.245.274 1.726 0l1.279-.739c.24-.137.36-.317.36-.506v.627c0 .188-.12.369-.36.506M141.376 199.86l4.756-2.747c.24-.137.36-.317.36-.506v.626c0 .181-.12.361-.36.507l-4.756 2.746c-.48.275-1.253.275-1.725 0l-4.729-2.746c-.232-.138-.352-.318-.352-.498v-.627c0 .181.12.361.352.498l4.729 2.747c.472.275 1.245.275 1.725 0M156.378 199.079l-1.279.738c-.481.275-1.245.275-1.725 0l-4.73-2.747c-.232-.137-.352-.317-.352-.498v-.626c0 .18.12.36.352.498l4.73 2.746c.472.275 1.244.275 1.725 0l1.279-.738c.24-.137.36-.317.36-.498v.627c0 .18-.12.36-.36.498M148.781 204.169l4.755-2.747c.24-.137.36-.317.36-.506v.626c0 .181-.12.361-.36.507l-4.755 2.747c-.481.274-1.254.274-1.726 0l-4.729-2.747c-.232-.138-.352-.318-.352-.498v-.627c0 .181.12.361.352.498l4.729 2.747c.481.275 1.245.275 1.726 0M163.786 203.388l-1.279.738c-.481.275-1.253.275-1.725 0l-4.73-2.747c-.232-.137-.352-.317-.352-.498v-.626c0 .18.12.36.352.498l4.73 2.746c.472.275 1.244.275 1.725 0l1.279-.738c.24-.137.36-.317.36-.506v.626c0 .181-.12.37-.36.507M156.189 208.469l4.755-2.747c.241-.137.361-.317.361-.506v.627c0 .18-.12.36-.361.506l-4.755 2.747c-.481.275-1.245.275-1.725 0l-4.73-2.747c-.232-.137-.352-.317-.352-.498v-.626c0 .18.12.36.352.497l4.73 2.747c.48.275 1.253.275 1.725 0M171.194 207.688l-1.279.738c-.48.275-1.244.275-1.725 0l-4.73-2.746c-.231-.138-.352-.318-.352-.498v-.627c0 .18.121.361.352.498l4.73 2.747c.472.274 1.245.274 1.725 0l1.279-.738c.241-.138.361-.318.361-.507v.627c0 .189-.12.369-.361.506M163.597 212.778l4.755-2.747c.241-.137.361-.317.361-.506v.626c0 .181-.12.361-.361.507l-4.755 2.747c-.481.274-1.245.274-1.725 0l-4.73-2.747c-.232-.137-.352-.318-.352-.498v-.627c0 .181.12.361.352.498l4.73 2.747c.48.275 1.253.275 1.725 0M178.602 211.997l-1.279.738c-.48.275-1.244.275-1.725 0l-4.729-2.747c-.232-.137-.352-.317-.352-.497v-.627c0 .18.12.361.352.498l4.729 2.747c.472.274 1.245.274 1.725 0l1.279-.739c.241-.137.361-.317.361-.506v.627c0 .188-.12.369-.361.506M171.005 217.087l4.756-2.747c.24-.137.36-.317.36-.506v.627c0 .18-.12.36-.36.506l-4.756 2.747c-.48.274-1.244.274-1.725 0l-4.73-2.747c-.231-.137-.351-.318-.351-.498v-.626c0 .18.12.36.351.497l4.73 2.747c.481.275 1.253.275 1.725 0M186.016 216.297l-1.279.739c-.48.274-1.244.274-1.725 0l-4.729-2.747c-.232-.138-.352-.318-.352-.498v-.627c0 .181.12.361.352.498l4.729 2.747c.472.275 1.245.275 1.725 0l1.279-.738c.241-.138.361-.318.361-.507v.627c-.009.189-.129.369-.361.506M178.421 221.387l4.756-2.746c.24-.138.36-.318.36-.507v.627c0 .18-.12.36-.36.506l-4.756 2.747c-.48.275-1.253.275-1.725 0l-4.73-2.747c-.231-.137-.351-.317-.351-.498v-.626c0 .18.12.36.351.498l4.73 2.746c.472.275 1.245.275 1.725 0M193.425 220.606l-1.279.739c-.481.274-1.245.274-1.726 0l-4.729-2.747c-.232-.138-.352-.318-.352-.498v-.627c0 .181.12.361.352.498l4.729 2.747c.472.275 1.245.275 1.726 0l1.279-.738c.24-.138.36-.318.36-.507v.627c0 .189-.12.369-.36.506M185.83 225.697l4.755-2.747c.24-.138.36-.318.36-.507v.627c0 .18-.12.36-.36.506l-4.755 2.747c-.481.275-1.245.275-1.726 0l-4.729-2.747c-.232-.137-.352-.317-.352-.497v-.627c0 .18.12.36.352.498l4.729 2.747c.472.274 1.245.274 1.726 0M200.833 224.915l-1.279.738c-.481.275-1.253.275-1.725 0l-4.73-2.746c-.232-.138-.352-.318-.352-.498v-.627c0 .18.12.361.352.498l4.73 2.747c.472.274 1.244.274 1.725 0l1.279-.738c.24-.138.36-.318.36-.507v.627c0 .18-.12.369-.36.506M193.238 229.997l4.755-2.747c.24-.137.361-.318.361-.506v.626c0 .181-.121.361-.361.507l-4.755 2.746c-.481.275-1.245.275-1.726 0l-4.729-2.746c-.232-.138-.352-.318-.352-.498v-.627c0 .18.12.361.352.498l4.729 2.747c.473.275 1.245.275 1.726 0M208.241 229.216l-1.279.738c-.481.275-1.253.275-1.725 0l-4.73-2.747c-.231-.137-.352-.317-.352-.498v-.626c0 .18.121.36.352.498l4.73 2.746c.472.275 1.244.275 1.725 0l1.279-.738c.24-.137.361-.317.361-.506v.626c0 .189-.121.369-.361.507M200.644 234.306l4.755-2.747c.241-.137.361-.318.361-.507v.627c0 .18-.12.361-.361.507l-4.755 2.746c-.481.275-1.245.275-1.725 0l-4.73-2.746c-.232-.138-.352-.318-.352-.498v-.627c0 .18.12.361.352.498l4.73 2.747c.48.274 1.244.274 1.725 0M207.563 231.018v-.626c0 .18.12.36.351.497l5.872 3.417c.472.274 1.244.274 1.725 0l1.279-.738c.24-.138.36-.318.36-.507v.627c0 .18-.12.36-.36.506l-1.279.738c-.481.275-1.253.275-1.725 0l-5.872-3.416c-.231-.137-.351-.318-.351-.498M201.253 235.997v-.627c0 .18.12.361.352.498l4.73 2.747c.472.274 1.244.274 1.725 0l4.755-2.747c.241-.137.361-.318.361-.506v.626c0 .18-.12.361-.361.507l-4.755 2.746c-.481.275-1.253.275-1.725 0l-4.73-2.746c-.232-.146-.352-.327-.352-.498M107.453 188.847l4.755-2.746c.24-.138.36-.318.36-.507v.627c0 .18-.12.36-.36.506l-4.755 2.747c-.481.275-1.245.275-1.726 0l-9.09-5.288c-.231-.137-.352-.317-.352-.497v-.627c0 .18.12.361.352.498l9.09 5.287c.481.275 1.245.275 1.726 0M108.113 190.504v-.627c0 .18.12.361.352.498l4.729 2.747c.472.275 1.245.275 1.725 0l4.756-2.747c.24-.137.36-.318.36-.506v.626c0 .181-.12.361-.36.498l-4.756 2.747c-.48.275-1.244.275-1.725 0l-4.729-2.747c-.241-.129-.352-.309-.352-.489M122.32 198.049c-.481.274-1.245.274-1.726 0l-4.729-2.747c-.232-.137-.352-.318-.352-.498v-.626c0 .18.12.36.352.497l4.729 2.747c.473.275 1.245.275 1.726 0l4.755-2.747c.24-.137.361-.317.361-.506v.627c0 .18-.121.36-.361.506zM129.728 201.731l4.755-2.747c.241-.137.361-.317.361-.506v.627c0 .18-.12.36-.361.506l-4.755 2.747c-.481.274-1.245.274-1.725 0l-4.73-2.747c-.232-.137-.352-.318-.352-.498v-.626c0 .18.12.36.352.497l4.73 2.747c.48.275 1.253.275 1.725 0M137.134 206.04l4.755-2.747c.241-.137.361-.317.361-.506v.626c0 .181-.12.361-.361.507l-4.755 2.747c-.48.274-1.244.274-1.725 0l-4.73-2.747c-.24-.137-.352-.318-.352-.498v-.627c0 .181.121.361.352.498l4.73 2.747c.481.275 1.253.275 1.725 0M144.55 210.341l4.756-2.747c.24-.137.36-.318.36-.507v.627c0 .18-.12.361-.36.506l-4.756 2.747c-.48.275-1.244.275-1.725 0l-4.73-2.747c-.231-.137-.352-.317-.352-.497v-.627c0 .18.121.361.352.498l4.73 2.747c.472.283 1.245.283 1.725 0M151.958 214.649l4.756-2.746c.24-.138.36-.318.36-.507v.627c0 .18-.12.36-.36.506l-4.756 2.747c-.48.275-1.244.275-1.725 0l-4.729-2.747c-.241-.137-.352-.317-.352-.498v-.626c0 .18.12.36.352.498l4.729 2.746c.472.275 1.245.275 1.725 0M159.367 218.958l4.755-2.746c.24-.138.36-.318.36-.507v.627c0 .18-.12.36-.36.506l-4.755 2.747c-.481.275-1.245.275-1.726 0l-4.729-2.747c-.241-.137-.352-.317-.352-.498v-.626c0 .18.12.36.352.498l4.729 2.746c.472.275 1.245.275 1.726 0M166.775 223.259l4.755-2.747c.24-.137.361-.318.361-.506v.626c0 .18-.121.361-.361.507l-4.755 2.746c-.481.275-1.245.275-1.725 0l-4.73-2.746c-.232-.138-.352-.318-.352-.498v-.627c0 .18.12.361.352.498l4.73 2.747c.48.274 1.244.274 1.725 0M174.181 227.568l4.755-2.747c.241-.137.361-.318.361-.507v.627c0 .18-.12.361-.361.506l-4.755 2.747c-.481.275-1.245.275-1.725 0l-4.73-2.747c-.232-.137-.352-.317-.352-.497v-.627c0 .18.12.361.352.498l4.73 2.747c.48.274 1.253.274 1.725 0M181.589 231.877l4.756-2.747c.24-.137.36-.318.36-.506v.626c0 .18-.12.361-.36.507l-4.756 2.746c-.48.275-1.244.275-1.725 0l-4.73-2.746c-.231-.138-.351-.318-.351-.498v-.627c0 .18.12.361.351.498l4.73 2.747c.481.274 1.253.274 1.725 0M103.65 195.337l4.755-2.747c.24-.138.361-.318.361-.507v.627c0 .18-.121.36-.361.506l-4.755 2.747c-.481.275-1.245.275-1.725 0l-12.799-7.442c-.231-.137-.352-.317-.352-.498v-.626c0 .18.12.36.352.498l12.799 7.433c.48.283 1.244.283 1.725.009M109.341 200.263l-4.73-2.746c-.24-.138-.352-.318-.352-.498v-.627c0 .18.12.361.352.498l4.73 2.747c.472.274 1.244.274 1.725 0l4.755-2.747c.24-.137.361-.318.361-.506v.626c0 .18-.121.361-.361.507l-4.755 2.746c-.481.275-1.253.275-1.725 0M116.747 204.564l-4.73-2.747c-.232-.137-.352-.318-.352-.498v-.627c0 .181.12.361.352.498l4.73 2.747c.472.275 1.244.275 1.725 0l4.755-2.747c.241-.137.361-.317.361-.506v.626c0 .181-.12.361-.361.507l-4.755 2.747c-.481.283-1.253.283-1.725 0M124.155 208.873l-4.73-2.747c-.231-.137-.351-.318-.351-.498v-.627c0 .181.12.361.351.498l4.73 2.747c.472.275 1.245.275 1.725 0l4.756-2.747c.24-.137.36-.317.36-.506v.627c0 .18-.12.36-.36.506l-4.756 2.747c-.48.274-1.253.274-1.725 0M131.563 213.182l-4.729-2.747c-.232-.138-.352-.318-.352-.498v-.627c0 .181.12.361.352.498l4.729 2.747c.472.275 1.245.275 1.725 0l4.756-2.747c.24-.137.36-.317.36-.506v.626c0 .181-.12.361-.36.498l-4.756 2.747c-.48.283-1.253.283-1.725.009M93.805 192.143v.627c0 .18-.12.36-.36.506l-4.756 2.747c-.48.275-1.245.275-1.725 0l-5.39-3.133c-.233-.137-.353-.318-.353-.498v-.626c0 .18.12.36.352.497l5.39 3.133c.473.275 1.245.275 1.726 0l4.755-2.746c.24-.146.36-.326.36-.507M94.372 200.315l-4.73-2.747c-.24-.137-.352-.318-.352-.498v-.626c0 .18.12.36.352.497l4.73 2.747c.472.275 1.244.275 1.725 0l4.755-2.747c.241-.137.361-.317.361-.506v.627c0 .18-.12.36-.361.506l-4.755 2.747c-.48.283-1.253.283-1.725 0M101.78 204.624l-4.73-2.747c-.24-.137-.352-.318-.352-.498v-.627c0 .181.12.361.353.498l4.729 2.747c.472.275 1.245.275 1.725 0l4.756-2.747c.24-.137.36-.317.36-.506v.627c0 .18-.12.36-.36.506l-4.756 2.747c-.48.274-1.244.274-1.725 0M109.186 208.933l-4.729-2.747c-.241-.137-.352-.318-.352-.498v-.626c0 .18.12.36.352.497l4.729 2.747c.472.275 1.245.275 1.726 0l4.755-2.747c.24-.137.36-.317.36-.506v.627c0 .18-.12.36-.36.506l-4.755 2.747c-.481.274-1.245.274-1.726 0M116.602 213.233l-4.729-2.747c-.232-.137-.352-.317-.352-.498v-.626c0 .18.12.36.352.498l4.729 2.746c.472.275 1.245.275 1.726 0l4.755-2.746c.24-.138.36-.318.36-.507v.627c0 .18-.12.36-.36.506l-4.755 2.747c-.481.283-1.254.275-1.726 0M124.01 217.542l-4.729-2.747c-.232-.137-.352-.317-.352-.498v-.626c0 .18.12.36.352.498l4.729 2.746c.473.275 1.245.275 1.726 0l4.755-2.746c.24-.138.361-.318.361-.507v.627c0 .18-.121.36-.361.506l-4.755 2.747c-.481.275-1.253.275-1.726 0M138.971 217.482l-4.729-2.747c-.232-.137-.352-.318-.352-.498v-.626c0 .18.12.36.352.497l4.729 2.747c.472.275 1.245.275 1.726 0l4.755-2.747c.24-.137.36-.317.36-.506v.627c0 .18-.12.36-.36.506l-4.755 2.747c-.481.274-1.245.274-1.726 0M146.38 221.791l-4.73-2.747c-.232-.137-.352-.317-.352-.498v-.626c0 .18.12.36.352.498l4.73 2.746c.472.275 1.244.275 1.725 0l4.755-2.746c.241-.138.361-.318.361-.507v.627c0 .18-.12.36-.361.506l-4.755 2.747c-.472.275-1.245.275-1.725 0M131.419 221.851l-4.73-2.747c-.232-.137-.352-.317-.352-.498v-.626c0 .18.12.36.352.498l4.73 2.746c.472.275 1.244.275 1.725 0l4.755-2.746c.241-.138.361-.318.361-.507v.627c0 .18-.12.36-.361.506l-4.755 2.747c-.481.275-1.253.275-1.725 0M138.825 226.151l-4.73-2.747c-.231-.137-.352-.317-.352-.497v-.627c0 .18.121.361.352.498l4.73 2.747c.472.274 1.245.274 1.725 0l4.756-2.747c.24-.137.36-.318.36-.507v.627c0 .18-.12.361-.36.506l-4.756 2.747c-.48.275-1.253.275-1.725 0M153.796 226.1l-4.73-2.747c-.232-.137-.352-.318-.352-.498v-.626c0 .18.12.36.352.497l4.73 2.747c.472.275 1.244.275 1.725 0l4.755-2.747c.241-.137.361-.317.361-.506v.627c0 .18-.12.36-.361.506l-4.755 2.747c-.481.274-1.253.274-1.725 0M161.202 230.4l-4.73-2.747c-.231-.137-.352-.317-.352-.498v-.626c0 .18.121.36.352.498l4.73 2.746c.472.275 1.244.275 1.725 0l4.755-2.746c.241-.138.361-.318.361-.507v.627c0 .18-.12.36-.361.506l-4.755 2.747c-.481.275-1.253.275-1.725 0M146.233 230.46l-4.729-2.746c-.232-.138-.352-.318-.352-.498v-.627c0 .18.12.361.352.498l4.729 2.747c.472.274 1.245.274 1.725 0l4.756-2.747c.24-.137.36-.318.36-.506v.626c0 .18-.12.361-.36.507l-4.756 2.746c-.48.275-1.244.275-1.725 0M153.641 234.761l-4.729-2.747c-.232-.137-.352-.318-.352-.498v-.627c0 .181.12.361.352.498l4.729 2.747c.472.275 1.245.275 1.726 0l4.755-2.747c.24-.137.36-.317.36-.506v.626c0 .181-.12.361-.36.507l-4.755 2.747c-.481.283-1.245.283-1.726 0M74.115 196.564l4.73 2.747c.472.274 1.244.274 1.725 0l4.755-2.747c.24-.138.36-.318.36-.507v.627c0 .18-.12.36-.36.506l-4.755 2.747c-.48.275-1.253.275-1.725 0l-4.73-2.747c-.232-.137-.352-.317-.352-.497v-.627c0 .18.12.36.352.498M92.913 201.594l-1.279.738c-.48.275-1.245.275-1.725 0l-4.73-2.747c-.232-.137-.352-.317-.352-.498v-.626c0 .18.12.36.352.498l4.73 2.746c.472.275 1.244.275 1.725 0l1.279-.738c.24-.137.36-.318.36-.506v.626c0 .189-.12.369-.36.507M81.7 200.976l4.73 2.747c.472.274 1.245.274 1.725 0l1.28-.739c.24-.137.36-.317.36-.506v.627c0 .18-.12.36-.36.506l-1.28.738c-.48.275-1.253.275-1.725 0l-4.73-2.747c-.231-.137-.351-.317-.351-.497v-.627c0 .18.12.361.352.498M89.109 205.276l4.73 2.747c.472.275 1.244.275 1.725 0l4.755-2.747c.241-.137.361-.317.361-.506v.626c0 .181-.12.361-.361.507l-4.755 2.747c-.48.274-1.253.274-1.725 0l-4.73-2.747c-.232-.138-.352-.318-.352-.498v-.627c0 .189.12.361.352.498M96.525 209.585l4.73 2.747c.472.274 1.244.274 1.725 0l4.755-2.747c.241-.137.361-.318.361-.506v.626c0 .18-.12.361-.361.507l-4.755 2.746c-.481.275-1.245.275-1.725 0l-4.73-2.746c-.232-.138-.352-.318-.352-.498v-.627c-.008.18.112.361.352.498M103.933 213.894l42.738 24.832c.472.275 1.244.275 1.725 0l4.755-2.746c.241-.138.361-.318.361-.507v.627c0 .18-.12.36-.361.506l-4.755 2.747c-.481.275-1.245.275-1.725 0l-42.738-24.832c-.232-.138-.352-.318-.352-.498v-.627c0 .18.112.361.352.498M175.091 231.962l-4.756 2.747c-.48.275-1.244.275-1.725 0l-4.729-2.747c-.232-.137-.352-.317-.352-.497v-.627c0 .18.12.36.352.498l4.729 2.746c.472.275 1.245.275 1.725 0l4.756-2.746c.24-.138.36-.318.36-.507v.627c0 .18-.12.369-.36.506M161.055 239.07l-4.729-2.747c-.232-.137-.352-.318-.352-.498v-.626c0 .18.12.36.352.497l4.729 2.747c.472.275 1.245.275 1.726 0l4.755-2.747c.24-.137.36-.317.36-.506v.627c0 .18-.12.36-.36.506l-4.755 2.747c-.481.274-1.254.274-1.726 0M149.349 240.28l4.73 2.747c.472.274 1.244.274 1.725 0l4.755-2.747c.241-.137.361-.318.361-.507v.627c0 .18-.12.361-.361.506l-4.755 2.747c-.481.275-1.244.275-1.725 0l-4.73-2.747c-.231-.137-.352-.317-.352-.497v-.627c0 .189.121.369.352.498M193.761 234.057l-4.756 2.747c-.48.274-1.244.274-1.725 0l-4.73-2.747c-.231-.137-.351-.318-.351-.498v-.627c0 .181.12.361.351.498l4.73 2.747c.472.275 1.245.275 1.725 0l4.756-2.747c.24-.137.36-.317.36-.506v.626c0 .181-.12.37-.36.507M182.499 236.263l-4.755 2.746c-.481.275-1.254.275-1.726 0l-4.729-2.746c-.232-.138-.352-.318-.352-.498v-.627c0 .18.12.361.352.498l4.729 2.747c.472.274 1.245.274 1.726 0l4.755-2.747c.24-.137.36-.318.36-.506v.626c0 .189-.12.369-.36.507M174.944 240.632l-4.755 2.747c-.481.274-1.253.274-1.725 0l-4.73-2.747c-.232-.138-.352-.318-.352-.498v-.627c0 .181.12.361.352.498l4.73 2.747c.472.275 1.244.275 1.725 0l4.755-2.747c.241-.137.361-.317.361-.506v.626c0 .181-.12.361-.361.507M156.756 244.589l4.729 2.746c.472.275 1.245.275 1.725 0l4.756-2.746c.24-.138.36-.318.36-.507v.627c0 .18-.12.36-.36.506l-4.756 2.747c-.48.275-1.244.275-1.725 0l-4.729-2.747c-.232-.137-.352-.317-.352-.498v-.626c0 .18.12.36.352.498M189.555 237.894v-.627c0 .18.12.361.352.498l8.918 5.184c.472.275 1.245.275 1.725 0l4.756-2.746c.24-.138.36-.318.36-.507v.627c0 .18-.12.36-.36.506l-4.756 2.747c-.48.275-1.244.275-1.725 0l-8.918-5.184c-.232-.138-.352-.318-.352-.498M178.343 240.074v-.627c0 .181.121.361.352.498l12.618 7.33c.472.275 1.245.275 1.725 0l4.756-2.746c.24-.138.36-.318.36-.507v.627c0 .18-.12.36-.36.506l-4.756 2.747c-.48.275-1.253.275-1.725 0l-12.618-7.33c-.231-.138-.352-.318-.352-.498M170.791 244.434v-.626c0 .18.12.36.352.497l12.617 7.331c.473.274 1.245.274 1.726 0l4.755-2.747c.24-.137.361-.318.361-.506v.626c0 .181-.121.361-.361.507l-4.755 2.746c-.481.275-1.245.275-1.726 0l-12.617-7.33c-.232-.137-.352-.318-.352-.498M164.164 248.898l4.729 2.747c.472.274 1.245.274 1.726 0l4.755-2.747c.24-.138.36-.318.36-.507v.627c0 .18-.12.36-.36.506l-4.755 2.747c-.481.275-1.254.275-1.726 0l-4.729-2.747c-.232-.137-.352-.317-.352-.497v-.627c0 .18.12.36.352.498M171.572 253.198l4.729 2.747c.473.275 1.245.275 1.726 0l4.755-2.747c.24-.137.361-.317.361-.506v.626c0 .181-.121.361-.361.507l-4.755 2.747c-.481.274-1.245.274-1.726 0l-4.729-2.747c-.232-.137-.352-.318-.352-.498v-.627c0 .181.12.361.352.498"/><path fill="url(#aE)" d="M69.607 229.533c-1.493.859-1.502 2.258-.017 3.125l45.467 26.42c1.485.858 3.897.858 5.39 0l25.648-14.807c1.494-.858 1.502-2.257.017-3.124l-45.467-26.42c-1.485-.859-3.897-.859-5.39 0z"/><path fill="#79778C" d="m146.111 242.117-45.467-26.421c-1.485-.858-3.897-.858-5.39 0l-25.648 14.807c-.532.309-.876.687-1.03 1.082-.275-.713.069-1.494 1.03-2.052l25.648-14.806c1.493-.859 3.905-.859 5.39 0l45.467 26.42c.953.558 1.288 1.33 1.013 2.043-.146-.395-.489-.764-1.013-1.073"/><path fill="#CBCDD4" d="m125.521 166.865 11.476 6.669 2.18-1.262 3.048-4.043-12.361-7.141zM218.567 220.941l11.055 6.421 3.253-1.88 2.584-3.425-12.36-7.133z"/><path fill="#323142" d="m142.224 168.229.051 2.258-3.098 1.785z"/><path fill="#656375" d="m235.459 222.057-.009 2.575-.549-.318-2.026 1.168z"/><path fill="url(#aF)" d="M177.883 170.984a10 10 0 0 1-.103 1.46c-.06.3-.103.686-.163 1.133a96 96 0 0 0-.344 4.609l-4.163-2.395-4.935-2.841-.489-.283-4.103-2.378-7.777-4.489-6.112-3.537c.078-2.094.224-4.206.49-6.274.06-.592.163-1.176.24-1.743v-.017c.06-.386.12-.755.206-1.116.146-.755.283-1.485.464-2.214 0-.017 0-.017.017-.043 1.236-5.116 3.433-9.605 7.124-12.429 0 0 .652-.464 1.648-1.073 1.039-.652 2.455-1.485 3.837-2.069.017-.017.017-.017.043-.017 1.742-.755 3.45-1.159 4.309-.429.403.343 1.013 1.579 1.742 3.433v.018c.12.326.266.652.387 1.012 0 0 0-.017.017 0 .532 1.46 1.133 3.185 1.742 5.099.344 1.099.713 2.257 1.056 3.451v.017c.103.266.18.549.24.832.146.447.284.936.404 1.399l.017.018c.043.163.103.343.146.506v.017l.06.206v.017c0 .043 0 .061.017.103.06.181.12.404.163.593q.156.515.301 1.055v.043c.077.241.145.507.206.773.042.06.06.146.06.223.017.043.043.077.043.12.06.223.12.464.18.687v.017c0 .017 0 .017.017.043 0 .017 0 .017.017.043.06.283.146.566.206.833.06.266.146.532.206.789.103.387.18.756.283 1.116v.017c.284 1.159.55 2.292.773 3.408.146.592.266 1.159.369 1.725.343 1.623.609 3.15.79 4.532v.018c.06.386.103.746.146 1.115.043.206.06.387.06.593.06.403.077.789.103 1.158.043.404.06.773.06 1.116"/><path fill="#9894A3" d="M177.883 170.984a10 10 0 0 1-.103 1.46c-.06.3-.103.686-.163 1.133a96 96 0 0 0-.344 4.609l-4.163-2.395-4.935-2.841-.489-.283-4.103-2.378c-.369-2.197-.67-6.541-.43-11.064 0-.24.018-.489.043-.73l.06-.85c.018-.266.043-.506.061-.772.017-.043.017-.06 0-.06.017-.146.017-.266.06-.404v-.017c-.018-.017 0-.06 0-.103a8 8 0 0 1 .12-.995c.146-1.176.326-2.318.566-3.408.06-.223.103-.446.163-.67.146-.592.301-1.158.507-1.682.06-.206.12-.386.206-.592a12.5 12.5 0 0 1 .978-2.069c.936-1.562 3.185-2.438 6.052-2.455.343 1.099.712 2.258 1.056 3.451v.017c.103.266.18.549.24.833.146.446.283.935.403 1.399l.017.017c.043.163.103.343.146.506v.017l.06.206v.018c.061.206.121.386.181.592.103.386.206.772.3 1.159v.043c.077.24.146.506.223.755.017.077.043.163.06.24a.23.23 0 0 0 .043.12c.043.241.103.464.163.687v.017c0 .017 0 .017.018.043 0 .017 0 .017.017.043.06.283.146.567.206.833 0 .017.017.017.017.017q.09.4.18.772c.103.387.18.756.283 1.116v.017c.284 1.159.55 2.292.773 3.408.146.592.266 1.159.369 1.725a60 60 0 0 1 .79 4.533v.017c.06.386.103.747.146 1.116.043.206.06.386.06.592.06.403.077.79.103 1.159.043.386.06.755.06 1.098"/><path fill="#817C94" d="m168.176 172.958-.489-.283a164 164 0 0 0-.078-3.09 66 66 0 0 0-.283-4.446l.464-.043c.12 1.202.223 2.824.283 4.712.043.996.086 2.052.103 3.15"/><path fill="url(#aG)" d="M166.707 146.865s-2.961 11.072-1.983 19.664c.387 3.417 8.919 5.082 8.919 5.082s7.321-7.339 7.339-12.197c.017-4.859-.215-6-.215-6z"/><path fill="#817C94" d="M174.063 149.749s-2.962 11.072-1.983 19.664c.386 3.417 8.918 5.082 8.918 5.082s7.322-7.339 7.339-12.197c.017-4.85-.215-6-.215-6z"/><path fill="url(#aH)" d="M205.496 170.135c0 1.176-.017 2.454-.043 3.836-.06 3.897-.755 11.288-1.665 19.537l-4.549-2.618-2.421-1.399-.446-.241-19.107-11.047-4.163-2.395c-.06-1.201-.12-2.678-.146-4.326v-.386c-.06-3.837.017-8.592.549-13.081.163-1.425.369-2.799.627-4.121a.6.6 0 0 1 .043-.206c0-.042 0-.103.017-.145.017-.146.043-.284.077-.43.017-.163.06-.3.103-.446v-.043c.163-.669.326-1.322.507-1.948.042-.163.077-.327.145-.49.061-.24.146-.489.241-.729.06-.241.163-.489.24-.73.06-.18.163-.386.266-.609.103-.206.223-.404.344-.653.06-.103.145-.223.206-.343.042-.077.103-.163.163-.24.103-.163.206-.344.343-.524 1.013-1.502 2.575-3.33 4.592-4.755 2.378-1.665 5.365-2.824 8.893-2.378.24.043.489.077.755.12.206.043.404.078.61.146.24.043.489.12.729.206.344.103.687.223 1.056.369.712.241 1.425.593 2.154 1.013.327.163.653.369.979.567h.017c.146.103.301.18.446.3.37.241.773.507 1.159.816.206.146.404.3.61.463.266.206.506.404.755.627.283.223.567.489.85.772.3.266.609.55.91.85l.12.12c.815.816 1.459 2.215 1.948 3.923 1.932 6.352 2.009 16.935 2.009 16.935.06 1.125.077 2.344.077 3.683"/><path fill="#9894A3" d="M205.496 170.135c0 1.176-.017 2.454-.043 3.836-.06 3.897-.755 11.288-1.665 19.537l-4.549-2.618c.446-6.035.712-11.288.609-14.558-.12-4.206-.266-8.815-.609-13.176a101 101 0 0 0-.266-2.944c-.327-3.227-.79-6.257-1.46-8.833-.403-1.502-.849-2.841-1.399-3.982-.017-.043-.043-.078-.06-.12a18 18 0 0 0-.506-.936c-.61-1.013-1.322-1.803-2.112-2.318a2 2 0 0 1-.609-.669c-.507-.816-.627-2.112-.404-3.657.344.103.687.223 1.056.369.687.266 1.425.61 2.155 1.013.326.163.652.369.978.567h.017c.146.103.301.18.447.3.369.24.772.507 1.158.816.206.146.404.3.61.463.266.206.506.404.755.627.283.223.567.489.85.772.3.266.609.55.91.85l.12.12c.815.816 1.459 2.215 1.948 3.923 1.932 6.352 2.009 16.935 2.009 16.935a97 97 0 0 1 .06 3.683"/><path fill="#817C94" d="M197.477 177.062c-.043 2.764-.283 7.15-.652 12.429l-.447-.241c.326-5.176.567-9.485.627-12.206.146-8.463-.549-18.617-2.052-24.892a24 24 0 0 0-.815-2.781c-.18-.463-.369-.893-.549-1.262a8 8 0 0 0-.369-.652l.403-.24c.146.223.283.463.403.755.163.326.327.669.464 1.056.326.849.627 1.845.893 2.987 1.545 6.257 2.231 16.334 2.094 25.047"/><path fill="#323142" d="m181.206 124.393 17.056 6.498v11.261c0 2.987-1.897 5.305-4.18 7.236l-6.799 3.923c-1.982 1.15-4.231 1.94-6.429 1.622-15.811-2.257-18.815-9.356-19.347-10.008a7.1 7.1 0 0 1-1.622-4.515v-22z"/><path fill="url(#aI)" d="M133.437 117.535c-2.181 1.879-11.631-11.202-9.108-16.344 2.524-5.141 15.193-30.84 20.695-39.587 5.503-8.746 12.893-8.79 16.953-7.39s-8.738 29.913-13.983 40.995c-5.236 11.081-14.557 22.326-14.557 22.326"/><path fill="#817C94" d="m147.115 77.167.43.196-14.049 30.8-.43-.196z"/><path fill="#A8A4B5" d="M129.052 114.694c2.464-.859 8.867-12.069 19.236-38.017 0 0 1.743 2.678 4.816 7.347a470 470 0 0 1-5.099 11.185c-5.245 11.081-14.566 22.326-14.566 22.326-.799.686-2.575-.635-4.387-2.841"/><path fill="#817C94" d="M150.382 93.698c-5.176-4.798-5.417-17.905-3.932-25.836 1.537-8.206 8.455-13.28 15.202-13.253 7.485.025-11.27 39.089-11.27 39.089M124.184 101.724c.747-.481 7.03 1.39 9.374 6.42 1.588 3.408 1.476 7.494-.035 9.296-1.098 1.296-4.077 2.198-5.914.395s-5.914-10.935-3.425-16.111"/><path fill="url(#aJ)" d="M98.58 93.252c.42-.258 1.708-.163 1.708-.163s3.716 1.124 6.395 2.18c3.931 1.545 14.42 5.339 17.905 6.455 1.33.429 4.189 1.656 5.734 2.995 2.6 2.258 4.772 6.902 3.648 10.618-1.211 4.035-2.85 3.743-5.047 3.7-6.464-.112-33.63-14.275-33.63-14.275-.07-2.618.72-7.708 3.287-11.51"/><path fill="#9F9BAB" d="M133.567 109.569c.704 1.889.953 3.94.403 5.768-1.21 4.035-2.85 3.743-5.047 3.7-6.463-.112-33.63-14.275-33.63-14.275-.035-1.373.18-3.425.746-5.613 7.219 3.27 18.798 8.523 22.61 10.283 5.459 2.523 11.819 5.03 14.918.137"/><path fill="#817C94" d="M98.81 93.235c1.537-1.142 3.563.892 1.709 5.416-1.897 4.643-5.477 8.317-5.931 4.746-.455-3.562 4.223-10.163 4.223-10.163"/><path fill="#B9B4C4" d="M98.873 100.462c1.047-1.46 1.57-5.073 1.373-6.49s-2.189-6.36-2.275-6.875-2.24-4.807-2.24-4.807-2.215-4.223-3.347-3.716c-1.142.506-.936 3.09-.773 3.983.163.892 2.017 5.725 2.017 5.725l-2.214-1.571s-7.769-8.094-8.747-8.18c-.979-.086-2.404 1.15-1.168 2.644 1.237 1.493 6.24 7.261 6.24 7.261s-1.896-.429-2.403-.146c-.506.284-.549 3.322-.549 3.322s-.687 1.777-.635 2.944l.06 1.16s-4.223-.018-3.794.909c1.039 2.24 5.167 4.944 5.167 4.944s3.854 1.734 5.837 2.395c1.777.592 3.168.841 4.558-.069 1.554-.995 2.893-3.433 2.893-3.433"/><path fill="#323142" d="M92.52 85.063c1.236 1.245 5.047.918 4.043-1.099 1.897 3.4 3.159 8.103 3.236 8.344-1.485-2.902-5.013-.996-6.146-3.846-.944-2.369-1.133-3.399-1.133-3.399M83.122 83.063c.55.034 2.755-1.064 2.515-2.137 2.455 2.395 6.292 6.446 7.52 7.107-2.687.343-2.447 3.554-4.155 2.206-1.7-1.365-5.88-7.176-5.88-7.176"/><path fill="#D7CFDE" d="M89.954 99.612s1.142.404 2.146.06c1.004-.343.567-2.309.567-2.309s.73-.91.695-1.588c-.034-.678-.49-1.141-.49-1.141s.953-.438 1.1-1.27c.154-.833-.464-1.632-.464-1.632l-6.086-3.682s-2.146-1.837-3.7-.935c-1.553.9-4.214 5.107-3.845 7.708.37 2.618 3.837 2.686 10.077 4.79"/><path fill="#323142" d="M83.722 87.132c1.554-.902 3.7.935 3.7.935l5.09 3.09c-1.769-1.073-2.172-.403-2.335 0-.163.404-.558 1.674-.49 1.777l.524.395s-1.15 1.837-.72 2.884c-.885-.232-1.082 2.275-.653 2.678.42.404 1.099.73 1.107.73-1.716-.223-5.588-1.108-5.588-1.108-2.995-.609-4.12-1.073-4.489-3.673-.36-2.61 2.3-6.807 3.854-7.708"/><path fill="url(#aK)" d="M184.973 62.771c17.012 8.507 20.626 12.541 23.845 15.477 3.099 2.824 4.197 8.514 2.764 17.261s-10.197 36.772-18.12 42.849-20.944 2.129-24.892.232-7.168-4.086-13.09-16.927c-5.923-12.849-8.095-36.128-9.082-43.827-.978-7.7-.661-13.502 3.631-17.408 4.292-3.905 9.751-5.837 17.485-3.52 7.734 2.31 17.459 5.863 17.459 5.863"/><path fill="#9894A3" d="M170.107 67.853s-.781-4.661 3.116-9.142c6.103 2.009 13.038 3.09 13.038 3.09 17.013 8.507 20.618 12.541 23.845 15.477 1.056.961 1.872 2.266 2.447 3.897-.223-.13-1.751.704-2 .515-6.944-5.116-11.94-11.4-16.446-10.223-4.507 1.175-6.944 9.175-18.412 6.935-11.485-2.249-11.287-6.214-5.588-10.55"/><path fill="#9894A3" d="M163.634 135.191c9.587 6.292 19.647 5.699 23.905-1.597 6.008-10.274 4.326-20.574 7.631-41.415 0 0 5.347-7.477 13.793-13.785 2.987 2.866 4.035 8.506 2.618 17.115-1.433 8.747-10.197 36.772-18.12 42.849-7.922 6.077-20.943 2.129-24.892.232-1.691-.807-3.244-1.674-4.935-3.399"/><path fill="#817C94" d="M210.965 80.325c-3.167-3.013-2.987-3.056-2.987-3.056s-4.567-2.137-8.987 3.897c-5.811 7.931-5.683 29.45.214 28.746 5.897-.695 11.76-29.587 11.76-29.587"/><path fill="#323142" d="M167.684 59.647c.035-.403-.798 10.815-.18 13.081s8.257 5.047 10.97 4.473c2.712-.576 10.24-5.709 11.433-7.365s.927-3.889.927-3.889c-.506-.609-3.073-14.403-3.039-15.459.035-1.055-10.437.43-10.437.43z"/><path fill="#DBD3E2" d="M201.438 24.79s-3.425-3.46-18.275-10.825c-1.751-.867-4.532-.317-7.768 1.185l18.274 10.824c3.236-1.51 6.086-2.18 7.769-1.185"/><path fill="url(#aL)" d="M157.164 49.982c.833-10.111 3.185-25.313 10.867-30.523a78 78 0 0 1 3.33-2.129c-.97.558-1.922 1.125-2.901 1.683a63 63 0 0 0-3.682 2.326c-4.344 2.635-6.266 13.381-7.185 22.17v.027c-.18 2.266-.334 4.429-.429 6.446"/><path fill="#C1BBCB" d="M174.923 70.205q.036.195.111.352c.198.48.644.764 1.271.867.077.017.154.034.197.042.017 0 .034.01.034.01h.035a.8.8 0 0 1 .317.016h.009c1.184 0 5.356-1.313 5.356-1.313l.137-.112c.327-.163.558-.626.884-.815 1.194-.695 2.378-1.39 3.571-2.086-.489.275-.987.54-1.468.773-1.304.575-2.111.73-2.566.927-.163.068-.3.128-.455.189.378-6.507 1.459-28.644 7.966-32.592 2.266-1.537 4.6-2.944 6.678-3.914 3.416-1.563 5.459-1.7 5.776-.696.078.138.112.36.12.661-.017-1.58-.025-3.15-.025-4.73-.009-.66-.078-1.192-.232-1.57-1.133-2.781-4.721-2.232-8.961-.249-2.361 1.099-4.927 2.644-7.374 4.309-10.935 7.416-11.072 35.115-11.381 39.484a1.5 1.5 0 0 0 0 .447"/><path fill="#CFC8D7" d="M186.297 30.283c2.446-1.666 5.013-3.21 7.373-4.31 4.24-1.973 7.828-2.523 8.961.25.026.051.043.12.06.18-1.613-.034-3.665.61-5.896 1.648-2.361 1.099-4.927 2.644-7.374 4.309-10.583 7.176-11.055 33.338-11.356 38.987a6.6 6.6 0 0 1-1.167.128h-.009a.8.8 0 0 0-.317-.017h-.026s-.026-.008-.043-.008c-.043-.01-.12-.018-.197-.044-.627-.094-1.073-.377-1.271-.866a1.1 1.1 0 0 1-.111-.352 1.8 1.8 0 0 1-.009-.438c.309-4.352.446-32.042 11.382-39.467M186.846 67.166c-.395.223-.79.455-1.176.687 0-.026 0-.043.008-.069.387-.197.781-.395 1.168-.618"/><path fill="#ACA7B8" d="M196.999 32.557c-2.086.97-4.412 2.37-6.678 3.915-6.961 4.223-7.742 29.235-8.06 33.707 0 0 1.906-.91 4-2.326 2.412-1.64 4.541-3.287 5.785-5.236 3.932-5.948 11.914-28.669 10.73-30.755-.318-1.004-2.361-.867-5.777.695"/><path fill="#DBD3E2" d="M163.824 23.991c.386-.438 2.283-2.077 7.373.103 5.811 2.498 10.421 5.433 11.065 6.652.463.867.549 1.975.36 2.85 0 .034-.008.06-.017.094 0 .018-.009.043-.009.06-.043.172-.094.335-.137.516 1.107-1.623 2.378-2.988 3.845-3.983 2.447-1.657 5.013-3.21 7.374-4.31L175.403 15.15a46 46 0 0 0-4.034 2.172 62 62 0 0 0-3.322 2.137c-1.648 1.107-3.047 2.67-4.223 4.532"/><path fill="url(#aM)" d="M157.087 53.973c0 .515.017 1.013.043 1.502.197 4.086.996 7.194 2.644 9.4.523.54 1.021 1.038 1.588 1.493 3.09 2.249 8.274 4.232 11.957 4.841.008.009.034.009.034.009 1.245.146 2.463.249 3.202.249-.009 0-.026-.009-.052-.009-.06-.008-.12-.034-.197-.043-.369-.086-.987-.3-1.271-.867.395-.575.91-2.635 1.503-5.57q.102-.503.206-1.03c1.605-8.215 3.725-21.94 5.708-29.682.043-.18.094-.344.137-.515 0-.018.009-.043.009-.06.008-.035.025-.07.025-.095.189-.884.103-1.983-.36-2.858-.635-1.21-5.511-4.799-11.322-7.288-5.09-2.188-6.721.095-7.116.541l-.017.017-.051.078c0 .008-.009.008 0 .017-5.511 6.102-5.94 17.965-6.593 25.88v.042a57 57 0 0 0-.077 3.948"/><path fill="#323142" d="M188.295 53.93c-.231 2.919 1.417 4.472 3.674 3.468 2.258-1.004 4.283-4.189 4.515-7.116.232-2.918-1.416-4.472-3.674-3.467-2.266 1.012-4.283 4.197-4.515 7.115"/><path fill="#323142" d="M189.103 53.973c-.206 2.653 1.279 4.06 3.33 3.142 2.052-.91 3.88-3.803 4.095-6.446.206-2.653-1.279-4.06-3.331-3.142-2.051.919-3.888 3.794-4.094 6.446"/><path fill="#64CFFF" d="M190.881 53.578c-.138 1.683.815 2.567 2.111 1.992s2.464-2.412 2.592-4.086c.138-1.682-.815-2.567-2.111-1.991-1.296.575-2.455 2.403-2.592 4.085"/><path fill="#ACA7B8" d="M191.455 53.32c-.103 1.271.618 1.95 1.597 1.511.987-.437 1.863-1.828 1.966-3.098s-.618-1.949-1.597-1.51c-.987.446-1.871 1.828-1.966 3.098"/><path fill="#323142" d="M200.896 157.294c-1.15.18-2.042 1.974-2 4.008.052 2.034 1.022 3.537 2.181 3.356 1.15-.18 2.043-1.974 2-4.008-.052-2.026-1.03-3.528-2.181-3.356"/><path fill="#A8A4B5" d="M200.562 158.727c-.703.112-1.253 1.21-1.227 2.464.034 1.253.627 2.171 1.339 2.06.704-.112 1.253-1.211 1.227-2.464-.034-1.244-.635-2.171-1.339-2.06"/><path fill="url(#aN)" d="M201.308 80.153c6.489-5.365 11.407-.764 13.459 5.863 2.043 6.626 6.764 52.737 3.759 56.823-3.004 4.086-14.798 2.36-16.077-7.064-1.278-9.416-4.566-19.536-5.836-31.347-.369-3.417-.593-9.09-.232-12.172.893-7.553 3.725-11.116 4.927-12.103"/><path fill="#A8A4B5" d="M196.371 92.265c.146-1.236.352-2.36.584-3.39.944 13.656 10.025 47.38 10.025 47.38l5.94 1.048c4.198-.352 4.198.36 3.674-6.773-.524-7.124-1.837-25.648-3.322-35.699-1.262-8.523-1.717-13.57-4.463-16.67 2.738 1.03 4.798 4.121 5.948 7.846 2.043 6.627 6.764 52.738 3.76 56.823s-14.798 2.361-16.077-7.064c-1.279-9.416-4.567-19.536-5.837-31.347-.361-3.399-.592-9.081-.232-12.154"/><path fill="#817C94" d="M202.037 133.037c-.008-.987 4.112-3.408 9.159-2.129s6.824 3.957 7.399 6.618.395 4.094-.077 5.322c-.103.266-1.648 2.334-5.227 2.077-3.563-.258-11.468-.953-11.254-11.888"/><path fill="url(#aO)" d="M203.419 132.307c3.322-1.76 7.699-1.15 10.635.3 2.257 1.116 3.888 3.228 4.197 5.726.129 1.055.112 2.128.095 3.296-.052 2.686-4.352 4.171-9.408 6.051s-27.759 8.721-30.678 9.125c-2.918.403-5.304-4.756-4-8.361l1.966-1.768z"/><path fill="#9F9BAB" d="M174.406 153.483c1.099-.267 1.794-.412 1.794-.412s26.541-9.168 31.039-10.876c4.223-1.596 9.21-2.738 9.759-7.073a7.1 7.1 0 0 1 1.253 3.211c.129 1.055.112 2.12.095 3.296-.052 2.686-4.352 4.171-9.408 6.051s-27.759 8.721-30.678 9.124c-1.639.224-3.107-1.304-3.854-3.321"/><path fill="#817C94" d="M174.132 149.105c.747-1.948 1.442-1.837 1.991-1.639s2.335 1.399 2.035 5.09c-.309 3.691-.867 4.025-1.271 4.017-.412 0-2.42-1.356-2.661-2.644-.249-1.287-.094-4.824-.094-4.824"/><path fill="#DBD3E2" d="M159.739 152.135c2.927-2.155 6.635-3.399 9.786-3.665 3.141-.266 7.373.575 7.502 3.665s-.481 5.313-2.618 5.708-9.125 1.785-11.253 1.399c-2.129-.395-4.73-6.137-3.417-7.107"/><path fill="url(#aP)" d="M151.119 150.873c.035.009 8.069.953 8.807 1.125.73.171 1.803 2.386 1.536 3.218-.266.833 1.176 1.992-3.313 1.357-4.489-.636-9.536-3.03-9.897-3.502-.36-.473-1.545-2.91 2.867-2.198"/><path fill="#323142" d="M150.94 150.847c1.236.352 1.846.902 1.94 1.906.086 1.004-.111 2.257-.111 2.257h8.729s-.06-1.579-.558-2.326c-.506-.746-.687-.652-1.433-.755-.747-.103-8.567-1.082-8.567-1.082"/><path fill="url(#aQ)" d="M150.484 153.071c2.858.849 8.601 1.339 9.622 1.502 1.022.163 1.022-1.605 2.283.154.378.532 2.112 3.331-.206 3.494s-6.643-.198-10.308-1.605c-3.674-1.408-4.653-1.219-4.035-2.756.61-1.519 2.644-.789 2.644-.789"/><path fill="#323142" d="m153.111 153.654 7.382.91 1.493-.455s1.288.833 1.657 3.494c.163 1.159-1.202 1.09-2.515 1.159s-7.614-.91-9.768-2.335c2.652-.095 1.751-2.773 1.751-2.773"/><path fill="#323142" d="M168.991 149.629c2.738-2.318 5.828-1.889 6.841-1.485s1.554 1.287 1.562 3.176c.009 1.888-1.115 2.171-2.695 2.463s-8.781 2.086-10.18 1.914-3.365-2.317-1.099-3.493c2.275-1.176 5.571-2.575 5.571-2.575"/><path fill="url(#aR)" d="M163.788 151.199c2.206-.197 4.137 1.812 3.768 3.812s-5.837 1.167-6.36 1.038-3.734-4.283 2.592-4.85"/><path fill="url(#aS)" d="M123.575 101.578c2 .815 5.914 2.798 7.948 6.669-15.596-5.665-30.076-11.39-30.076-11.39s.437-1.966-.327-3.159z"/><path fill="#64CFFF" d="m170.613 51.158 4.987 2.875c.12-.24.214-.54.266-.85.309-1.75-.61-3.845-2.043-4.669-1.442-.832-2.867-.094-3.176 1.657-.051.326-.06.652-.034.987M159.566 44.78l4.987 2.876c.12-.24.215-.54.266-.85.309-1.751-.609-3.845-2.043-4.67-1.442-.832-2.867-.094-3.176 1.657a3.8 3.8 0 0 0-.034.987M157.086 53.973c0 .515.017 1.013.043 1.502.927.799 2.008 1.417 3.201 2.103l.679.395c.523.3.858.859.866 1.46l.026 1.27a2.52 2.52 0 0 0 1.245 2.103l.429.249a1.57 1.57 0 0 0 1.554 0c.489-.283.781-.79.781-1.348v-3.605c0-.266.171-.395.249-.438a.51.51 0 0 1 .506 0l.695.404c.524.3.842.832.867 1.433l.026.781a2.46 2.46 0 0 0 1.373 2.138c1.949.961 4.713 2.06 6.91 2.558q.104-.503.206-1.03c-2.103-.481-4.832-1.571-6.652-2.464a1.42 1.42 0 0 1-.79-1.245l-.026-.772a2.75 2.75 0 0 0-1.39-2.31l-.695-.402a1.53 1.53 0 0 0-1.554 0 1.53 1.53 0 0 0-.772 1.347v3.605a.49.49 0 0 1-.258.438.5.5 0 0 1-.506 0l-.43-.249a1.48 1.48 0 0 1-.721-1.219l-.025-1.262a2.8 2.8 0 0 0-1.382-2.352l-.687-.394c-1.545-.893-2.815-1.614-3.768-2.696"/><path fill="#4C4A5B" d="m163.745 24.094.009.008c-.009-.008 0-.008 0-.025z"/><path fill="#323142" d="M164.811 83.003c10.996 4.395 17.09 9.485 15.33 20.669s-7.175 17.528-10.738 16.747-9.725-10.352-12.575-21.914-.575-18.927 7.983-15.502"/><path fill="#323142" d="M165.214 84.806c9.88 3.957 15.356 8.523 13.777 18.574s-6.455 15.76-9.648 15.056c-3.202-.704-8.747-9.305-11.305-19.7s-.523-17.003 7.176-13.93"/><path fill="#817C94" d="m215.575 133.809.472-.034c-.017-.232-1.803-23.562-2.97-32.154a164 164 0 0 1-.498-4.155c-.79-6.961-1.536-13.536-6.635-19.785l-.369.3c5.013 6.138 5.751 12.653 6.532 19.537.155 1.356.309 2.747.506 4.163 1.159 8.575 2.945 31.888 2.962 32.128M177.952 153.302c.103-.025 10.103-2.995 19.381-6.214a282 282 0 0 1 4.773-1.588c2.077-.678 4.034-1.313 6.137-2.095 2.069-.763 2.721-2.017 3.073-3.665.095-.437.129-.849.155-1.244.128-1.657.24-2.97 5.175-4.284l-.12-.454c-5.261 1.399-5.382 2.927-5.528 4.703-.034.387-.06.781-.145 1.185-.327 1.536-.91 2.626-2.781 3.322-2.095.781-4.052 1.407-6.121 2.086-1.502.489-3.064.995-4.781 1.587-9.27 3.211-19.261 6.181-19.364 6.206zM128.066 111.852q1.289 0 2.206-.566a3.38 3.38 0 0 0 1.476-2.06l1.348-1.399-.344-.327-1.442 1.503-.008.068c0 .009-.206 1.15-1.279 1.811-.996.618-2.421.661-4.215.112-5.124-1.554-25.888-11.373-26.094-11.468l-.206.43c.206.103 21.004 9.931 26.163 11.493.867.266 1.674.403 2.395.403"/><path fill="url(#aT)" d="M205.926 131.697c4.635-.935 7.725.996 9.047 1.769-5.932 2.489-36.583 16.446-36.583 16.446s-.215-1.004-.79-1.811c-.567-.807-1.468-1.03-1.468-1.03z"/><path fill="#403F54" d="M165.214 84.806c2.343.935 4.438 1.914 6.249 2.987-4.627 6.454-6.009 15.493-4.472 29.115-3.107-3.004-6.944-10.034-8.953-18.171-2.558-10.386-.523-17.004 7.176-13.931"/><path fill="#4C4A5B" d="M182.597 33.69a.3.3 0 0 1 .034-.103l-.009.009c0 .034-.017.06-.025.094"/><path fill="#F7413B" d="m85.376 110.848-1.76 1.022c.558-.327 1.339-.284 2.189.206l1.76-1.022c-.85-.489-1.623-.532-2.19-.206"/><path fill="#FFE36D" d="m85.805 112.084 1.76-1.021c-.85-.49-1.631-.533-2.19-.206l-1.759 1.021c.567-.335 1.339-.292 2.189.206"/><path fill="#F7413B" d="m135.056 160.822 1.76-1.022c.557-.326.901-1.004.901-1.974l-1.76 1.021c-.008.97-.352 1.657-.901 1.975"/><path fill="#EDD25D" d="m135.056 160.822 1.76-1.022c.557-.326.901-1.004.901-1.974l-1.76 1.021c-.008.97-.352 1.657-.901 1.975"/><path fill="#EDD25D" d="m135.96 158.856 1.76-1.021.034-14.258-1.76 1.022z"/><path fill="#FFE36D" d="m132.931 139.286 1.751-1.022-47.115-27.201-1.76 1.021z"/><path fill="#F7413B" d="m135.994 144.599 1.76-1.022c.008-1.948-1.382-4.343-3.073-5.313l-1.76 1.021c1.7.979 3.082 3.374 3.073 5.314"/><path fill="url(#aU)" d="m135.994 144.599 1.76-1.022c.008-1.948-1.382-4.343-3.073-5.313l-1.76 1.021c1.7.979 3.082 3.374 3.073 5.314"/><path fill="#FFE161" d="M85.806 112.084c-1.691-.978-3.081-.189-3.09 1.76l-.043 14.257c-.009 1.949 1.373 4.343 3.073 5.322l47.115 27.193c1.691.978 3.09.18 3.09-1.76l.043-14.257c.009-1.949-1.382-4.344-3.073-5.314z" opacity=".7"/><path fill="url(#aV)" d="M82.715 113.844c0-1.494.824-2.301 1.965-2.163a3 3 0 0 0-.206 1.141l-.042 14.258c-.009 1.948 1.373 4.343 3.072 5.321l47.116 27.202c.395.231.772.36 1.124.403-.446 1.073-1.571 1.373-2.884.618l-47.115-27.201c-1.691-.979-3.073-3.374-3.073-5.322z"/><path fill="#FFE36D" d="m119.624 141.131 1.073-.618 4.155 1.957-1.065.618z"/><path fill="#EDD25D" d="m128.096 149.191 1.622-.944.352 5.536-1.073.618z"/><path fill="#FCE06A" d="m125.444 139.638 1.073-.618 1.639 5.356-1.073.618z"/><path fill="#FFE36D" d="m127.083 144.994 1.073-.618 4.155 2.841-1.073.626z"/><path fill="#fff" d="m125.442 139.637 1.64 5.357 4.154 2.849-3.141 1.348.901 5.21-3.579-4.515-3.597.369.927-4.146-3.124-4.978 4.163 1.957z"/><path fill="#FFE36D" d="m102.995 131.535 1.065-.627 4.163 1.957-1.073.627z"/><path fill="#EDD25D" d="m111.468 139.594 1.622-.944.344 5.528-1.065.627z"/><path fill="#FCE06A" d="m108.814 130.032 1.064-.618 1.64 5.356-1.065.627z"/><path fill="#FFE36D" d="m110.453 135.397 1.064-.626 4.155 2.849-1.064.618z"/><path fill="#fff" d="m108.815 130.032 1.64 5.365 4.154 2.841-3.141 1.356.901 5.211-3.579-4.524-3.597.378.927-4.155-3.124-4.97 4.154 1.957z"/><path fill="#FFE36D" d="m86.363 121.93 1.072-.618 4.155 1.957-1.065.618z"/><path fill="#EDD25D" d="m94.834 129.99 1.631-.945.344 5.537-1.073.618z"/><path fill="#FCE06A" d="m92.182 120.436 1.073-.618 1.64 5.356-1.073.618z"/><path fill="#FFE36D" d="m93.821 125.792 1.073-.618 4.155 2.841-1.073.618z"/><path fill="#fff" d="m92.18 120.436 1.64 5.356 4.155 2.841-3.142 1.357.901 5.21-3.579-4.524-3.597.378.936-4.146-3.133-4.978 4.163 1.957z"/><path fill="#64FF96" d="M71.065.739c-2.97-1.717-5.408-.327-5.416 3.09l-.086 31.175c-.009 3.408 2.412 7.605 5.382 9.322l32.772 18.918 9.759 16.901.035-11.244 6.858 3.957c2.97 1.716 5.408.326 5.416-3.09l.086-31.176c.009-3.416-2.412-7.605-5.382-9.322z" opacity=".7"/><path fill="url(#aW)" d="M63.246 36.343c-.009 3.408 2.412 7.605 5.382 9.322l2.317-1.348c-2.97-1.717-5.39-5.914-5.382-9.322z"/><path fill="#5FED8C" d="m63.33 5.167-.085 31.176 2.318-1.348.085-31.175z"/><path fill="#7AFFA6" d="m101.399 64.583 9.76 16.9 2.318-1.347-9.76-16.9z"/><path fill="#5FED8C" d="M64.913 1.708c-.97.567-1.57 1.76-1.58 3.45l2.318-1.347c.009-1.69.61-2.892 1.58-3.45-.696.412-1.623.944-2.318 1.347"/><path fill="#70FF9D" d="m118.173 30.618 2.317-1.348L71.066.738l-2.317 1.34z"/><path fill="#51ED83" d="m111.159 81.484 2.317-1.348.026-11.244-2.309 1.339z"/><path fill="#66FF97" d="m111.192 70.23 6.858 3.966 2.309-1.347-6.858-3.957z"/><path fill="#66FF97" d="M124.195 73.218c-.987.575-2.343.498-3.837-.37l-2.317 1.349c1.493.858 2.85.935 3.837.369.704-.404 1.631-.945 2.317-1.348"/><path fill="#5FED8C" d="m121.888 74.566 2.318-1.348c.97-.567 1.571-1.76 1.579-3.45l-2.317 1.347c-.009 1.682-.61 2.884-1.58 3.45"/><path fill="#66FF97" d="M68.627 45.656 101.4 64.583l2.318-1.348-32.772-18.918z"/><path fill="#70FF9D" d="M67.228.37 64.91 1.716c.987-.575 2.343-.498 3.837.369L71.064.738c-1.493-.867-2.858-.944-3.836-.369"/><path fill="#5FED8C" d="m123.468 71.106 2.309-1.347.094-31.167-2.317 1.339z"/><path fill="url(#aX)" d="m123.554 39.93 2.317-1.347c.009-3.416-2.412-7.605-5.382-9.321l-2.317 1.347c2.97 1.717 5.39 5.914 5.382 9.322"/><path fill="#70FF9D" d="m95.68 45.93-1.819 1.057c.3-.172.721-.146 1.185.12l1.82-1.056c-.464-.266-.885-.292-1.185-.12M114.446 64l1.819-1.056c.301-.172.481-.541.481-1.065l-1.82 1.056c.009.523-.18.893-.48 1.064"/><path fill="#70FF9D" d="m114.933 62.935 1.82-1.056.009-2.438-1.829 1.065zM113.287 57.647l1.828-1.055L96.858 46.05l-1.82 1.056z"/><path fill="#70FF9D" d="m114.934 60.506 1.82-1.056c0-1.047-.738-2.326-1.648-2.858l-1.82 1.056c.919.532 1.657 1.81 1.648 2.858"/><path fill="#fff" d="M95.036 47.107c-.919-.532-1.657-.103-1.665.944l-.01 2.43c0 1.046.74 2.325 1.649 2.857l18.249 10.541c.909.524 1.656.103 1.656-.944l.009-2.43c0-1.047-.738-2.325-1.648-2.858z" opacity=".98"/><path fill="#70FF9D" d="m72.284 18.833-1.82 1.055c.3-.171.722-.154 1.185.12l1.82-1.055c-.464-.266-.884-.292-1.185-.12M114.455 50.411l1.82-1.055c.301-.172.481-.541.481-1.065l-1.82 1.056c0 .524-.18.893-.481 1.064"/><path fill="#70FF9D" d="m114.937 49.347 1.828-1.064.008-2.43-1.828 1.065zM113.295 44.06l1.828-1.056-41.656-24.051-1.828 1.055z"/><path fill="#70FF9D" d="m114.944 46.918 1.82-1.056c0-1.047-.739-2.326-1.648-2.858l-1.82 1.056c.918.532 1.657 1.81 1.648 2.858"/><path fill="#fff" d="M71.64 20.008c-.918-.532-1.657-.103-1.665.945l-.009 2.429c0 1.055.738 2.334 1.648 2.858l41.656 24.051c.91.524 1.657.103 1.657-.953l.009-2.429c0-1.047-.739-2.326-1.648-2.858z" opacity=".98"/><path fill="#66D1FF" d="m230.315 188.993 7.537 4.352 2.541-1.477-7.537-4.351z"/><path fill="#51BDED" d="m237.852 193.345-.034 11.948 2.54-1.476.035-11.948zM237.819 205.293l10.781-5.742 2.541-1.476-10.781 5.742z"/><path fill="#5FC2ED" d="m224.486 149.758-.077 28.995 2.54-1.476.086-28.996z"/><path fill="url(#aY)" d="m224.409 178.753 2.541-1.476c-.009 3.751 2.652 8.351 5.905 10.24l-2.54 1.476c-3.253-1.88-5.914-6.489-5.906-10.24"/><path fill="#5FC2ED" d="M226.221 145.964c-1.064.618-1.725 1.931-1.734 3.794l2.541-1.477c.008-1.862.669-3.176 1.734-3.794-.756.447-1.777 1.039-2.541 1.477"/><path fill="#5FC2ED" d="m226.221 145.964 2.541-1.477c-1.065.618-1.726 1.932-1.734 3.794l-2.541 1.477c.009-1.863.67-3.168 1.734-3.794"/><path fill="#64CFFF" d="M232.977 144.891c-3.262-1.88-5.94-.352-5.949 3.39l-.085 28.995c-.009 3.752 2.652 8.352 5.905 10.241l7.536 4.352-.034 11.948 10.781-5.743 27.055 15.623c3.262 1.879 5.94.36 5.949-3.391l.086-28.995c.008-3.743-2.653-8.352-5.914-10.232z" opacity=".7"/><path fill="#70D4FF" d="m228.772 144.487-2.541 1.477c1.082-.627 2.575-.541 4.215.403l2.54-1.476c-1.648-.944-3.141-1.03-4.214-.404"/><path fill="#70D4FF" d="m230.436 146.367 2.541-1.476c-1.64-.944-3.133-1.03-4.215-.404l-2.541 1.477c1.082-.627 2.575-.541 4.215.403"/><path fill="#66D1FF" d="m248.599 199.551 27.056 15.614 2.54-1.477-27.055-15.613z"/><path fill="#66D1FF" d="m275.655 215.164 2.541-1.476c1.639.944 3.133 1.03 4.214.403l-2.541 1.477c-1.081.626-2.575.549-4.214-.404"/><path fill="#5FC2ED" d="m279.866 215.568 2.541-1.476c1.064-.618 1.725-1.932 1.734-3.794l-2.541 1.476c0 1.863-.67 3.176-1.734 3.794"/><path fill="#5FC2ED" d="m281.602 211.774 2.541-1.476.086-28.996-2.541 1.477z"/><path fill="#70D4FF" d="m275.774 172.547 2.54-1.476-45.338-26.18-2.541 1.476z"/><path fill="url(#aZ)" d="m281.688 182.779 2.54-1.477c.009-3.742-2.652-8.352-5.914-10.231l-2.54 1.476c3.261 1.88 5.922 6.489 5.914 10.232"/><path fill="url(#ba)" d="m281.688 182.779 2.54-1.477c.009-3.742-2.652-8.352-5.914-10.231l-2.54 1.476c3.261 1.88 5.922 6.489 5.914 10.232"/><path fill="#70D4FF" d="m254.136 185.276-1.657.962c.275-.163.653-.138 1.073.103l1.657-.962c-.421-.24-.798-.266-1.073-.103M271.183 201.68l1.657-.962c.266-.154.437-.489.437-.961l-1.656.961c0 .472-.172.798-.438.962M271.621 200.71l1.656-.962v-2.206l-1.648.962zM270.129 195.911l1.656-.961-16.575-9.571-1.656.962z"/><path fill="#70D4FF" d="m271.63 198.504 1.657-.962c0-.953-.669-2.111-1.493-2.592l-1.657.961c.824.481 1.493 1.64 1.493 2.593"/><path fill="#fff" d="M253.554 186.341c-.833-.481-1.511-.095-1.511.858l-.008 2.206c0 .953.669 2.111 1.502 2.592l16.575 9.579c.832.481 1.502.095 1.51-.858l.009-2.206c0-.953-.67-2.111-1.494-2.592z"/><path fill="#70D4FF" d="m232.915 161.8-1.656.962c.274-.164.652-.138 1.073.103l1.656-.962c-.42-.24-.798-.266-1.073-.103M271.206 190.478l1.657-.961c.266-.155.438-.49.438-.97l-1.657.961c0 .472-.163.807-.438.97"/><path fill="#70D4FF" d="m271.652 189.508 1.648-.961.009-2.206-1.657.961zM270.16 184.71l1.656-.962-37.827-21.845-1.657.962z"/><path fill="#70D4FF" d="m271.652 187.302 1.657-.961c0-.953-.67-2.112-1.494-2.593l-1.657.962c.824.48 1.503 1.639 1.494 2.592"/><path fill="#fff" d="M232.332 162.865c-.832-.481-1.51-.095-1.51.858l-.009 2.206c0 .953.669 2.12 1.502 2.601l37.828 21.836c.832.481 1.502.095 1.511-.858l.008-2.206c0-.953-.669-2.112-1.493-2.592z"/><path fill="#FF61EE" d="M238.994 95.492c-2.215-1.279-4.034-.24-4.034 2.3l-.078 26.61c-.008 2.541 1.803 5.674 4.009 6.944l5.116 2.953-.026 8.386 7.322-4.172 18.369 10.601c2.214 1.279 4.025.24 4.034-2.3l.077-26.609c.009-2.541-1.794-5.666-4.008-6.945z" opacity=".7"/><path fill="url(#bb)" d="M233.157 125.406c-.009 2.541 1.802 5.674 4.008 6.944l1.726-1.004c-2.215-1.279-4.017-4.404-4.009-6.944z"/><path fill="#FF63EF" d="m237.165 132.35 5.116 2.953 1.725-1.005-5.116-2.952z"/><path fill="#ED5DDE" d="m242.281 135.303-.018 8.386 1.726-1.005.017-8.386zM233.234 98.788l-.078 26.618 1.726-1.004.077-26.61zM234.409 96.213c-.721.42-1.175 1.314-1.175 2.575l1.725-1.004c0-1.262.455-2.154 1.176-2.575-.515.309-1.211.704-1.726 1.004"/><path fill="#FF63EF" d="M272.529 149.388c-.729.43-1.742.37-2.858-.274l-1.725 1.004c1.116.644 2.128.704 2.858.275.524-.301 1.21-.704 1.725-1.005"/><path fill="#FF6DF0" d="m268.048 114.264 1.725-1.004-30.78-17.768-1.726.996z"/><path fill="#ED5DDE" d="m270.806 150.393 1.725-1.005c.721-.42 1.176-1.313 1.176-2.575l-1.725 1.005c0 1.261-.447 2.154-1.176 2.575"/><path fill="#FF64B5" d="m242.264 143.689 7.313-4.172 1.726-1.004-7.313 4.172z"/><path fill="#FF63EF" d="m249.576 139.517 18.369 10.601 1.725-1.004-18.369-10.601z"/><path fill="#FF6DF0" d="m236.134 95.218-1.725 1.004c.729-.43 1.751-.37 2.858.274l1.725-1.004c-1.116-.644-2.129-.704-2.858-.275"/><path fill="#ED5DDE" d="m271.981 147.817 1.725-1.004.077-26.609-1.725 1.004z"/><path fill="url(#bc)" d="m272.058 121.209 1.725-1.005c.009-2.54-1.794-5.665-4.008-6.944l-1.726 1.005c2.215 1.27 4.017 4.403 4.009 6.944"/><path fill="#FF6DF0" d="m262.308 130.646.784.456c-.318-.186-.774-.138-1.314.175l-.784-.456c.54-.307.996-.36 1.314-.175"/><path fill="#FF6DF0" d="m260.518 135.515-.784-.456c-.312-.18-.498-.593-.498-1.197-.005-1.192.731-2.442 1.77-3.041l.784.456c-1.039.598-1.77 1.849-1.77 3.041-.005.609.18 1.017.498 1.197"/><path fill="#fff" d="M261.784 131.277c1.054-.61 1.795-.212 1.801.98.005 1.213-.731 2.484-1.785 3.093-1.039.599-1.775.18-1.78-1.038-.011-1.187.725-2.431 1.764-3.035"/><path fill="#FF6DF0" d="m261.561 122.806.784.456c.159.09.244.318.244.683.005 1.886-2.183 3.412-2.172 6.706l-.784-.455c-.011-3.295 2.177-4.821 2.172-6.706 0-.366-.08-.588-.244-.684"/><path fill="#FF6DF0" d="m264.459 118.658.784.456c-.721-.419-1.875-.201-3.364.657-2.829 1.637-4.487 4.545-4.497 7.872l-.784-.456c.01-3.327 1.663-6.24 4.497-7.872 1.489-.853 2.643-1.075 3.364-.657"/><path fill="#fff" d="M261.535 123.431c-.811.466-1.224 1.293-1.224 2.532l-2.924 1.69c.01-3.326 1.663-6.24 4.497-7.872 2.622-1.515 4.211-1.043 4.222 1.431.011 3.21-2.839 5.377-2.834 7.803l-2.85 1.642c-.011-3.295 2.177-4.821 2.172-6.707 0-.784-.381-.911-1.059-.519"/><path fill="#ED8600" d="M274.891 51.132v32.455l-1.159.67-41.399-56.352 1.168-.678z"/><path fill="#FF8400" d="m233.523 31.373 16.412 27.39 4.412 2.55 18.188-7.417 1.194-2.094v32.454L232.33 60.36V27.905z"/><path fill="#F90" d="m254.347 61.312-4.412-2.55-17.605 1.597 41.399 23.897z"/><path fill="#FF7200" d="m232.332 27.905 41.398 23.897-1.193 2.094-18.188 7.416-4.412-2.55-16.412-27.39z"/><path fill="#FFB30F" d="m253.731 62.342-4.412-2.549-15.794-28.42-1.193-3.468 41.398 23.897-1.193 2.094z"/><path fill="#743AF0" d="m234.071 65.906-1.323-.769c-.201-.12-.353-.328-.447-.643l1.323.769c.094.309.246.523.447.643M233.625 65.257l-1.324-.769-.037-.189 1.323.769zM230.373 65.616l-2.369-1.38c.246.139.554.132.92-.082l2.369 1.38c-.366.214-.674.227-.92.082M227.308 70.278l-2.369-1.38c1.034.605 2.483.486 4.121-.46 1.04-.598 2.369-1.764 3.383-3.257l2.369 1.38c-1.014 1.487-2.343 2.652-3.383 3.257-1.638.945-3.081 1.065-4.121.46M235.588 63.738l-2.369-1.38c.107.064.252.026.422-.069.693-.397 1.38-2.136 1.373-4.064-.006-2.054-.592-3.54-1.682-4.17l2.369 1.38c1.09.636 1.676 2.116 1.682 4.17.007 1.922-.68 3.66-1.373 4.064-.164.1-.315.132-.422.07"/><path fill="#743AF0" d="m229.938 59.284 2.369 1.38c.366.214.561.756.561 1.493.006 1.342-.561 2.797-1.575 3.383l-2.369-1.38c1.021-.585 1.581-2.047 1.575-3.383-.006-.737-.202-1.279-.561-1.493M233.019 57.514l-2.369-1.38 2.35-1.355 2.369 1.38z"/><path fill="#743AF0" d="m233.026 58.477-2.376-1.38v-.964l2.369 1.38z"/><path fill="#743AF0" d="m228.378 68.344-2.369-1.38c-.725-.422-1.21-1.354-1.21-2.816-.006-2.64 1.386-5.69 3.597-6.962 1.065-.618 1.821-.378 2.117-.202l2.369 1.38c-.302-.176-1.058-.416-2.117.202-2.205 1.272-3.603 4.322-3.597 6.962.006 1.461.485 2.394 1.21 2.816M234.693 51.988l2.369 1.38c-1.367-.794-3.283-.637-5.463.623l-2.369-1.38c2.18-1.26 4.096-1.417 5.463-.623"/><path fill="#743AF0" d="m225.924 72.465-2.369-1.38c-1.336-.775-2.142-2.457-2.149-4.915-.012-5.065 3.453-11.032 7.826-13.558l2.369 1.38c-4.373 2.526-7.838 8.493-7.826 13.558.007 2.451.813 4.14 2.149 4.915"/><path fill="#BC9EFF" d="M231.603 53.992c4.353-2.514 7.648-.637 7.661 4.473.006 3.1-1.462 5.96-3.484 7.126-1.096.63-1.878.605-2.155-.328l-.038-.189c-.674 1.519-1.613 2.508-2.545 3.043-1.966 1.134-3.869.322-3.875-2.583-.006-2.64 1.386-5.69 3.598-6.962 1.367-.788 2.224-.17 2.262-.088v-.964l2.35-1.355.019 6.912c0 .737.258.813.623.605.693-.397 1.38-2.136 1.374-4.064-.013-3.894-2.111-5.74-5.778-3.63-3.295 1.904-5.966 6.61-5.954 10.485.013 3.83 2.514 5.236 5.778 3.358 1.039-.599 2.369-1.764 3.383-3.257l.895 1.222c-1.052 1.569-2.854 3.22-4.278 4.045-4.335 2.501-7.643.7-7.662-4.284-.012-5.079 3.453-11.045 7.826-13.565m-.309 11.548c1.021-.586 1.581-2.047 1.575-3.383-.006-1.28-.586-1.972-1.626-1.367-.913.529-1.493 1.909-1.486 3.144 0 1.317.567 2.16 1.537 1.606"/><defs><linearGradient id="a" x1="298.522" x2=".812" y1="234.058" y2="234.058" gradientUnits="userSpaceOnUse"><stop offset=".07" stop-color="#C9C9C9"/><stop offset=".515" stop-color="#DFDFDF"/><stop offset=".938" stop-color="#C9C9C9"/></linearGradient><linearGradient id="b" x1="122.049" x2="186.006" y1="283.197" y2="172.419" gradientUnits="userSpaceOnUse"><stop offset=".083" stop-color="#EEE"/><stop offset=".988" stop-color="#F5F5F5"/></linearGradient><linearGradient id="c" x1="113.208" x2="159.503" y1="260.538" y2="180.353" gradientUnits="userSpaceOnUse"><stop offset=".126" stop-color="#E5E6EB"/><stop offset=".762" stop-color="#DDDEE3"/><stop offset="1" stop-color="#D9DADE"/></linearGradient><linearGradient id="d" x1="115.556" x2="167.976" y1="261.301" y2="180.587" gradientUnits="userSpaceOnUse"><stop offset=".21" stop-color="#CBCDD4"/><stop offset=".803" stop-color="#C1C3C9"/></linearGradient><linearGradient id="e" x1="126.501" x2="178.921" y1="268.408" y2="187.695" gradientUnits="userSpaceOnUse"><stop offset=".21" stop-color="#CBCDD4"/><stop offset=".803" stop-color="#C1C3C9"/></linearGradient><linearGradient id="f" x1="246.016" x2="26.706" y1="247.875" y2="247.875" gradientUnits="userSpaceOnUse"><stop offset=".368" stop-color="#97999C"/><stop offset=".393" stop-color="#B3B4B8"/><stop offset=".413" stop-color="#C8C9CE"/><stop offset=".427" stop-color="#C0C1C5"/><stop offset=".43" stop-color="#BDBFC2"/></linearGradient><linearGradient id="g" x1="114.713" x2="116.227" y1="176.735" y2="174.114" gradientUnits="userSpaceOnUse"><stop offset=".136" stop-color="#4D4C66"/><stop offset=".898" stop-color="#323142"/></linearGradient><linearGradient id="h" x1="108.696" x2="111.949" y1="181.877" y2="176.243" gradientUnits="userSpaceOnUse"><stop offset=".136" stop-color="#4D4C66"/><stop offset=".898" stop-color="#323142"/></linearGradient><linearGradient id="i" x1="122.123" x2="123.637" y1="181.041" y2="178.42" gradientUnits="userSpaceOnUse"><stop offset=".136" stop-color="#4D4C66"/><stop offset=".898" stop-color="#323142"/></linearGradient><linearGradient id="j" x1="116.679" x2="119.93" y1="186.514" y2="180.883" gradientUnits="userSpaceOnUse"><stop offset=".136" stop-color="#4D4C66"/><stop offset=".898" stop-color="#323142"/></linearGradient><linearGradient id="k" x1="129.531" x2="131.044" y1="185.347" y2="182.725" gradientUnits="userSpaceOnUse"><stop offset=".136" stop-color="#4D4C66"/><stop offset=".898" stop-color="#323142"/></linearGradient><linearGradient id="l" x1="124.088" x2="127.339" y1="190.819" y2="185.188" gradientUnits="userSpaceOnUse"><stop offset=".136" stop-color="#4D4C66"/><stop offset=".898" stop-color="#323142"/></linearGradient><linearGradient id="m" x1="136.94" x2="138.453" y1="189.652" y2="187.031" gradientUnits="userSpaceOnUse"><stop offset=".136" stop-color="#4D4C66"/><stop offset=".898" stop-color="#323142"/></linearGradient><linearGradient id="n" x1="131.498" x2="134.749" y1="195.125" y2="189.494" gradientUnits="userSpaceOnUse"><stop offset=".136" stop-color="#4D4C66"/><stop offset=".898" stop-color="#323142"/></linearGradient><linearGradient id="o" x1="144.348" x2="145.861" y1="193.958" y2="191.337" gradientUnits="userSpaceOnUse"><stop offset=".136" stop-color="#4D4C66"/><stop offset=".898" stop-color="#323142"/></linearGradient><linearGradient id="p" x1="138.907" x2="142.158" y1="199.43" y2="193.799" gradientUnits="userSpaceOnUse"><stop offset=".136" stop-color="#4D4C66"/><stop offset=".898" stop-color="#323142"/></linearGradient><linearGradient id="q" x1="151.757" x2="153.27" y1="198.263" y2="195.642" gradientUnits="userSpaceOnUse"><stop offset=".136" stop-color="#4D4C66"/><stop offset=".898" stop-color="#323142"/></linearGradient><linearGradient id="r" x1="146.313" x2="149.564" y1="203.736" y2="198.105" gradientUnits="userSpaceOnUse"><stop offset=".136" stop-color="#4D4C66"/><stop offset=".898" stop-color="#323142"/></linearGradient><linearGradient id="s" x1="159.166" x2="160.679" y1="202.569" y2="199.948" gradientUnits="userSpaceOnUse"><stop offset=".136" stop-color="#4D4C66"/><stop offset=".898" stop-color="#323142"/></linearGradient><linearGradient id="t" x1="153.722" x2="156.973" y1="208.042" y2="202.411" gradientUnits="userSpaceOnUse"><stop offset=".136" stop-color="#4D4C66"/><stop offset=".898" stop-color="#323142"/></linearGradient><linearGradient id="u" x1="166.576" x2="168.089" y1="206.874" y2="204.253" gradientUnits="userSpaceOnUse"><stop offset=".136" stop-color="#4D4C66"/><stop offset=".898" stop-color="#323142"/></linearGradient><linearGradient id="v" x1="161.133" x2="164.384" y1="212.347" y2="206.716" gradientUnits="userSpaceOnUse"><stop offset=".136" stop-color="#4D4C66"/><stop offset=".898" stop-color="#323142"/></linearGradient><linearGradient id="w" x1="173.985" x2="175.498" y1="211.18" y2="208.559" gradientUnits="userSpaceOnUse"><stop offset=".136" stop-color="#4D4C66"/><stop offset=".898" stop-color="#323142"/></linearGradient><linearGradient id="x" x1="168.541" x2="171.792" y1="216.653" y2="211.022" gradientUnits="userSpaceOnUse"><stop offset=".136" stop-color="#4D4C66"/><stop offset=".898" stop-color="#323142"/></linearGradient><linearGradient id="y" x1="181.394" x2="182.908" y1="215.485" y2="212.864" gradientUnits="userSpaceOnUse"><stop offset=".136" stop-color="#4D4C66"/><stop offset=".898" stop-color="#323142"/></linearGradient><linearGradient id="z" x1="175.95" x2="179.201" y1="220.958" y2="215.327" gradientUnits="userSpaceOnUse"><stop offset=".136" stop-color="#4D4C66"/><stop offset=".898" stop-color="#323142"/></linearGradient><linearGradient id="A" x1="188.802" x2="190.315" y1="219.791" y2="217.17" gradientUnits="userSpaceOnUse"><stop offset=".136" stop-color="#4D4C66"/><stop offset=".898" stop-color="#323142"/></linearGradient><linearGradient id="B" x1="183.36" x2="186.611" y1="225.264" y2="219.633" gradientUnits="userSpaceOnUse"><stop offset=".136" stop-color="#4D4C66"/><stop offset=".898" stop-color="#323142"/></linearGradient><linearGradient id="C" x1="196.211" x2="197.724" y1="224.097" y2="221.476" gradientUnits="userSpaceOnUse"><stop offset=".136" stop-color="#4D4C66"/><stop offset=".898" stop-color="#323142"/></linearGradient><linearGradient id="D" x1="190.769" x2="194.02" y1="229.569" y2="223.939" gradientUnits="userSpaceOnUse"><stop offset=".136" stop-color="#4D4C66"/><stop offset=".898" stop-color="#323142"/></linearGradient><linearGradient id="E" x1="203.62" x2="205.134" y1="228.402" y2="225.781" gradientUnits="userSpaceOnUse"><stop offset=".136" stop-color="#4D4C66"/><stop offset=".898" stop-color="#323142"/></linearGradient><linearGradient id="F" x1="198.177" x2="201.428" y1="233.875" y2="228.244" gradientUnits="userSpaceOnUse"><stop offset=".136" stop-color="#4D4C66"/><stop offset=".898" stop-color="#323142"/></linearGradient><linearGradient id="G" x1="211.601" x2="213.116" y1="233.042" y2="230.418" gradientUnits="userSpaceOnUse"><stop offset=".136" stop-color="#4D4C66"/><stop offset=".898" stop-color="#323142"/></linearGradient><linearGradient id="H" x1="205.584" x2="208.835" y1="238.181" y2="232.55" gradientUnits="userSpaceOnUse"><stop offset=".136" stop-color="#4D4C66"/><stop offset=".898" stop-color="#323142"/></linearGradient><linearGradient id="I" x1="102.798" x2="106.057" y1="187.152" y2="181.508" gradientUnits="userSpaceOnUse"><stop offset=".136" stop-color="#4D4C66"/><stop offset=".898" stop-color="#323142"/></linearGradient><linearGradient id="J" x1="112.444" x2="115.695" y1="192.692" y2="187.061" gradientUnits="userSpaceOnUse"><stop offset=".136" stop-color="#4D4C66"/><stop offset=".898" stop-color="#323142"/></linearGradient><linearGradient id="K" x1="119.854" x2="123.105" y1="196.997" y2="191.366" gradientUnits="userSpaceOnUse"><stop offset=".136" stop-color="#4D4C66"/><stop offset=".898" stop-color="#323142"/></linearGradient><linearGradient id="L" x1="127.262" x2="130.513" y1="201.303" y2="195.672" gradientUnits="userSpaceOnUse"><stop offset=".136" stop-color="#4D4C66"/><stop offset=".898" stop-color="#323142"/></linearGradient><linearGradient id="M" x1="134.669" x2="137.92" y1="205.608" y2="199.977" gradientUnits="userSpaceOnUse"><stop offset=".136" stop-color="#4D4C66"/><stop offset=".898" stop-color="#323142"/></linearGradient><linearGradient id="N" x1="142.079" x2="145.33" y1="209.914" y2="204.283" gradientUnits="userSpaceOnUse"><stop offset=".136" stop-color="#4D4C66"/><stop offset=".898" stop-color="#323142"/></linearGradient><linearGradient id="O" x1="149.488" x2="152.739" y1="214.219" y2="208.588" gradientUnits="userSpaceOnUse"><stop offset=".136" stop-color="#4D4C66"/><stop offset=".898" stop-color="#323142"/></linearGradient><linearGradient id="P" x1="156.897" x2="160.149" y1="218.525" y2="212.894" gradientUnits="userSpaceOnUse"><stop offset=".136" stop-color="#4D4C66"/><stop offset=".898" stop-color="#323142"/></linearGradient><linearGradient id="Q" x1="164.307" x2="167.558" y1="222.831" y2="217.2" gradientUnits="userSpaceOnUse"><stop offset=".136" stop-color="#4D4C66"/><stop offset=".898" stop-color="#323142"/></linearGradient><linearGradient id="R" x1="171.715" x2="174.966" y1="227.136" y2="221.505" gradientUnits="userSpaceOnUse"><stop offset=".136" stop-color="#4D4C66"/><stop offset=".898" stop-color="#323142"/></linearGradient><linearGradient id="S" x1="179.123" x2="182.374" y1="231.442" y2="225.811" gradientUnits="userSpaceOnUse"><stop offset=".136" stop-color="#4D4C66"/><stop offset=".898" stop-color="#323142"/></linearGradient><linearGradient id="T" x1="97.139" x2="100.404" y1="192.568" y2="186.914" gradientUnits="userSpaceOnUse"><stop offset=".136" stop-color="#4D4C66"/><stop offset=".898" stop-color="#323142"/></linearGradient><linearGradient id="U" x1="108.591" x2="111.842" y1="199.207" y2="193.576" gradientUnits="userSpaceOnUse"><stop offset=".136" stop-color="#4D4C66"/><stop offset=".898" stop-color="#323142"/></linearGradient><linearGradient id="V" x1="116.001" x2="119.252" y1="203.513" y2="197.882" gradientUnits="userSpaceOnUse"><stop offset=".136" stop-color="#4D4C66"/><stop offset=".898" stop-color="#323142"/></linearGradient><linearGradient id="W" x1="123.408" x2="126.659" y1="207.819" y2="202.188" gradientUnits="userSpaceOnUse"><stop offset=".136" stop-color="#4D4C66"/><stop offset=".898" stop-color="#323142"/></linearGradient><linearGradient id="X" x1="130.818" x2="134.069" y1="212.125" y2="206.494" gradientUnits="userSpaceOnUse"><stop offset=".136" stop-color="#4D4C66"/><stop offset=".898" stop-color="#323142"/></linearGradient><linearGradient id="Y" x1="85.885" x2="89.137" y1="194.767" y2="189.134" gradientUnits="userSpaceOnUse"><stop offset=".136" stop-color="#4D4C66"/><stop offset=".898" stop-color="#323142"/></linearGradient><linearGradient id="Z" x1="93.626" x2="96.877" y1="199.264" y2="193.633" gradientUnits="userSpaceOnUse"><stop offset=".136" stop-color="#4D4C66"/><stop offset=".898" stop-color="#323142"/></linearGradient><linearGradient id="aa" x1="101.036" x2="104.287" y1="203.57" y2="197.939" gradientUnits="userSpaceOnUse"><stop offset=".136" stop-color="#4D4C66"/><stop offset=".898" stop-color="#323142"/></linearGradient><linearGradient id="ab" x1="108.443" x2="111.694" y1="207.875" y2="202.244" gradientUnits="userSpaceOnUse"><stop offset=".136" stop-color="#4D4C66"/><stop offset=".898" stop-color="#323142"/></linearGradient><linearGradient id="ac" x1="115.854" x2="119.105" y1="212.181" y2="206.55" gradientUnits="userSpaceOnUse"><stop offset=".136" stop-color="#4D4C66"/><stop offset=".898" stop-color="#323142"/></linearGradient><linearGradient id="ad" x1="123.262" x2="126.513" y1="216.487" y2="210.856" gradientUnits="userSpaceOnUse"><stop offset=".136" stop-color="#4D4C66"/><stop offset=".898" stop-color="#323142"/></linearGradient><linearGradient id="ae" x1="138.227" x2="141.478" y1="216.43" y2="210.799" gradientUnits="userSpaceOnUse"><stop offset=".136" stop-color="#4D4C66"/><stop offset=".898" stop-color="#323142"/></linearGradient><linearGradient id="af" x1="145.637" x2="148.888" y1="220.736" y2="215.105" gradientUnits="userSpaceOnUse"><stop offset=".136" stop-color="#4D4C66"/><stop offset=".898" stop-color="#323142"/></linearGradient><linearGradient id="ag" x1="130.672" x2="133.923" y1="220.793" y2="215.162" gradientUnits="userSpaceOnUse"><stop offset=".136" stop-color="#4D4C66"/><stop offset=".898" stop-color="#323142"/></linearGradient><linearGradient id="ah" x1="138.079" x2="141.33" y1="225.098" y2="219.467" gradientUnits="userSpaceOnUse"><stop offset=".136" stop-color="#4D4C66"/><stop offset=".898" stop-color="#323142"/></linearGradient><linearGradient id="ai" x1="153.044" x2="156.295" y1="225.041" y2="219.411" gradientUnits="userSpaceOnUse"><stop offset=".136" stop-color="#4D4C66"/><stop offset=".898" stop-color="#323142"/></linearGradient><linearGradient id="aj" x1="160.454" x2="163.705" y1="229.347" y2="223.716" gradientUnits="userSpaceOnUse"><stop offset=".136" stop-color="#4D4C66"/><stop offset=".898" stop-color="#323142"/></linearGradient><linearGradient id="ak" x1="145.489" x2="148.74" y1="229.404" y2="223.773" gradientUnits="userSpaceOnUse"><stop offset=".136" stop-color="#4D4C66"/><stop offset=".898" stop-color="#323142"/></linearGradient><linearGradient id="al" x1="152.898" x2="156.149" y1="233.709" y2="228.078" gradientUnits="userSpaceOnUse"><stop offset=".136" stop-color="#4D4C66"/><stop offset=".898" stop-color="#323142"/></linearGradient><linearGradient id="am" x1="78.098" x2="81.349" y1="198.879" y2="193.248" gradientUnits="userSpaceOnUse"><stop offset=".136" stop-color="#4D4C66"/><stop offset=".898" stop-color="#323142"/></linearGradient><linearGradient id="an" x1="88.293" x2="89.807" y1="200.782" y2="198.16" gradientUnits="userSpaceOnUse"><stop offset=".136" stop-color="#4D4C66"/><stop offset=".898" stop-color="#323142"/></linearGradient><linearGradient id="ao" x1="84.816" x2="86.33" y1="202.788" y2="200.167" gradientUnits="userSpaceOnUse"><stop offset=".136" stop-color="#4D4C66"/><stop offset=".898" stop-color="#323142"/></linearGradient><linearGradient id="ap" x1="93.097" x2="96.348" y1="207.595" y2="201.964" gradientUnits="userSpaceOnUse"><stop offset=".136" stop-color="#4D4C66"/><stop offset=".898" stop-color="#323142"/></linearGradient><linearGradient id="aq" x1="100.502" x2="103.753" y1="211.901" y2="206.27" gradientUnits="userSpaceOnUse"><stop offset=".136" stop-color="#4D4C66"/><stop offset=".898" stop-color="#323142"/></linearGradient><linearGradient id="ar" x1="126.887" x2="130.2" y1="227.304" y2="221.566" gradientUnits="userSpaceOnUse"><stop offset=".136" stop-color="#4D4C66"/><stop offset=".898" stop-color="#323142"/></linearGradient><linearGradient id="as" x1="167.863" x2="171.114" y1="233.652" y2="228.021" gradientUnits="userSpaceOnUse"><stop offset=".136" stop-color="#4D4C66"/><stop offset=".898" stop-color="#323142"/></linearGradient><linearGradient id="at" x1="160.308" x2="163.559" y1="238.015" y2="232.384" gradientUnits="userSpaceOnUse"><stop offset=".136" stop-color="#4D4C66"/><stop offset=".898" stop-color="#323142"/></linearGradient><linearGradient id="au" x1="153.331" x2="156.582" y1="242.6" y2="236.969" gradientUnits="userSpaceOnUse"><stop offset=".136" stop-color="#4D4C66"/><stop offset=".898" stop-color="#323142"/></linearGradient><linearGradient id="av" x1="186.533" x2="189.784" y1="235.748" y2="230.117" gradientUnits="userSpaceOnUse"><stop offset=".136" stop-color="#4D4C66"/><stop offset=".898" stop-color="#323142"/></linearGradient><linearGradient id="aw" x1="175.272" x2="178.523" y1="237.958" y2="232.327" gradientUnits="userSpaceOnUse"><stop offset=".136" stop-color="#4D4C66"/><stop offset=".898" stop-color="#323142"/></linearGradient><linearGradient id="ax" x1="167.715" x2="170.966" y1="242.32" y2="236.69" gradientUnits="userSpaceOnUse"><stop offset=".136" stop-color="#4D4C66"/><stop offset=".898" stop-color="#323142"/></linearGradient><linearGradient id="ay" x1="160.739" x2="163.99" y1="246.906" y2="241.275" gradientUnits="userSpaceOnUse"><stop offset=".136" stop-color="#4D4C66"/><stop offset=".898" stop-color="#323142"/></linearGradient><linearGradient id="az" x1="195.982" x2="199.24" y1="241.304" y2="235.661" gradientUnits="userSpaceOnUse"><stop offset=".136" stop-color="#4D4C66"/><stop offset=".898" stop-color="#323142"/></linearGradient><linearGradient id="aA" x1="186.618" x2="189.882" y1="244.567" y2="238.914" gradientUnits="userSpaceOnUse"><stop offset=".136" stop-color="#4D4C66"/><stop offset=".898" stop-color="#323142"/></linearGradient><linearGradient id="aB" x1="179.063" x2="182.327" y1="248.93" y2="243.277" gradientUnits="userSpaceOnUse"><stop offset=".136" stop-color="#4D4C66"/><stop offset=".898" stop-color="#323142"/></linearGradient><linearGradient id="aC" x1="168.148" x2="171.399" y1="251.212" y2="245.581" gradientUnits="userSpaceOnUse"><stop offset=".136" stop-color="#4D4C66"/><stop offset=".898" stop-color="#323142"/></linearGradient><linearGradient id="aD" x1="175.558" x2="178.809" y1="255.517" y2="249.886" gradientUnits="userSpaceOnUse"><stop offset=".136" stop-color="#4D4C66"/><stop offset=".898" stop-color="#323142"/></linearGradient><linearGradient id="aE" x1="100.048" x2="115.652" y1="250.416" y2="223.388" gradientUnits="userSpaceOnUse"><stop offset=".017" stop-color="#D5D7DE"/><stop offset=".97" stop-color="#CBCDD4"/></linearGradient><linearGradient id="aF" x1="176.943" x2="147.873" y1="156.118" y2="157.347" gradientUnits="userSpaceOnUse"><stop offset=".263" stop-color="#A8A4B5"/><stop offset=".851" stop-color="#DBD3E2"/></linearGradient><linearGradient id="aG" x1="170.458" x2="173.67" y1="173.192" y2="153.531" gradientUnits="userSpaceOnUse"><stop offset=".263" stop-color="#A8A4B5"/><stop offset=".851" stop-color="#DBD3E2"/></linearGradient><linearGradient id="aH" x1="205.399" x2="174.898" y1="165.576" y2="168.004" gradientUnits="userSpaceOnUse"><stop offset=".263" stop-color="#A8A4B5"/><stop offset=".851" stop-color="#DBD3E2"/></linearGradient><linearGradient id="aI" x1="152.33" x2="135.865" y1="89.186" y2="78.78" gradientUnits="userSpaceOnUse"><stop offset=".054" stop-color="#A8A4B5"/><stop offset=".175" stop-color="#B6B1C1"/><stop offset=".404" stop-color="#CBC4D3"/><stop offset=".631" stop-color="#D7CFDE"/><stop offset=".851" stop-color="#DBD3E2"/></linearGradient><linearGradient id="aJ" x1="113.205" x2="118.507" y1="111.636" y2="98.15" gradientUnits="userSpaceOnUse"><stop offset=".263" stop-color="#A8A4B5"/><stop offset=".851" stop-color="#DBD3E2"/></linearGradient><linearGradient id="aK" x1="182.237" x2="166.869" y1="72.837" y2="118.893" gradientUnits="userSpaceOnUse"><stop offset=".149" stop-color="#DBD3E2"/><stop offset=".737" stop-color="#C2BCCC"/></linearGradient><linearGradient id="aL" x1="156.905" x2="174.037" y1="40.921" y2="17.005" gradientUnits="userSpaceOnUse"><stop offset=".263" stop-color="#A8A4B5"/><stop offset=".851" stop-color="#DBD3E2"/></linearGradient><linearGradient id="aM" x1="159.721" x2="180.914" y1="65.538" y2="28.831" gradientUnits="userSpaceOnUse"><stop offset=".349" stop-color="#323142"/><stop offset=".737" stop-color="#4D4B5C"/></linearGradient><linearGradient id="aN" x1="218.342" x2="197.688" y1="110.303" y2="112.977" gradientUnits="userSpaceOnUse"><stop offset=".054" stop-color="#A8A4B5"/><stop offset=".175" stop-color="#B6B1C1"/><stop offset=".404" stop-color="#CBC4D3"/><stop offset=".631" stop-color="#D7CFDE"/><stop offset=".851" stop-color="#DBD3E2"/></linearGradient><linearGradient id="aO" x1="200.908" x2="191.826" y1="153.394" y2="137.664" gradientUnits="userSpaceOnUse"><stop offset=".263" stop-color="#A8A4B5"/><stop offset=".851" stop-color="#DBD3E2"/></linearGradient><linearGradient id="aP" x1="154.711" x2="154.521" y1="152.526" y2="157.758" gradientUnits="userSpaceOnUse"><stop offset=".044" stop-color="#DBD3E2"/><stop offset=".149" stop-color="#DBD3E2"/><stop offset=".87" stop-color="#CAC3D3"/></linearGradient><linearGradient id="aQ" x1="155.561" x2="155.395" y1="154.527" y2="159.125" gradientUnits="userSpaceOnUse"><stop offset=".044" stop-color="#DBD3E2"/><stop offset=".149" stop-color="#DBD3E2"/><stop offset=".87" stop-color="#CAC3D3"/></linearGradient><linearGradient id="aR" x1="164.041" x2="163.405" y1="156.589" y2="150.919" gradientUnits="userSpaceOnUse"><stop offset=".149" stop-color="#DBD3E2"/><stop offset=".87" stop-color="#CAC3D3"/></linearGradient><linearGradient id="aS" x1="122.303" x2="114.438" y1="119.046" y2="96.764" gradientUnits="userSpaceOnUse"><stop offset=".263" stop-color="#CBC4D4"/><stop offset=".851" stop-color="#DBD3E2"/></linearGradient><linearGradient id="aT" x1="209.911" x2="194.968" y1="153.141" y2="140.208" gradientUnits="userSpaceOnUse"><stop offset=".263" stop-color="#CBC4D4"/><stop offset=".851" stop-color="#DBD3E2"/></linearGradient><linearGradient id="aU" x1="137.195" x2="134.121" y1="143.91" y2="138.587" gradientUnits="userSpaceOnUse"><stop offset=".172" stop-color="#EDD25D"/><stop offset="1" stop-color="#FFE36D"/></linearGradient><linearGradient id="aV" x1="97.35" x2="95.909" y1="124.233" y2="121.737" gradientUnits="userSpaceOnUse"><stop stop-color="#FFE163"/><stop offset=".828" stop-color="#EDD25D"/></linearGradient><linearGradient id="aW" x1="69.23" x2="63.846" y1="45.311" y2="35.986" gradientUnits="userSpaceOnUse"><stop stop-color="#66FF97"/><stop offset=".828" stop-color="#5FED8C"/></linearGradient><linearGradient id="aX" x1="125.27" x2="119.886" y1="38.943" y2="29.617" gradientUnits="userSpaceOnUse"><stop offset=".172" stop-color="#5FED8C"/><stop offset="1" stop-color="#70FF9D"/></linearGradient><linearGradient id="aY" x1="230.979" x2="225.065" y1="188.608" y2="178.366" gradientUnits="userSpaceOnUse"><stop stop-color="#66D1FF"/><stop offset=".828" stop-color="#5FC2ED"/></linearGradient><linearGradient id="aZ" x1="284.227" x2="275.775" y1="176.925" y2="176.925" gradientUnits="userSpaceOnUse"><stop offset=".172" stop-color="#5FC2ED"/><stop offset="1" stop-color="#70D4FF"/></linearGradient><linearGradient id="ba" x1="283.569" x2="277.656" y1="181.693" y2="171.451" gradientUnits="userSpaceOnUse"><stop offset=".172" stop-color="#5FC2ED"/><stop offset="1" stop-color="#70D4FF"/></linearGradient><linearGradient id="bb" x1="237.618" x2="233.603" y1="132.09" y2="125.138" gradientUnits="userSpaceOnUse"><stop stop-color="#FF63EF"/><stop offset=".828" stop-color="#ED5DDE"/></linearGradient><linearGradient id="bc" x1="273.339" x2="269.325" y1="120.47" y2="113.518" gradientUnits="userSpaceOnUse"><stop offset=".172" stop-color="#ED5DDE"/><stop offset="1" stop-color="#FF6DF0"/></linearGradient></defs></svg>