<svg xmlns="http://www.w3.org/2000/svg" width="760" height="760" fill="none"><path fill="url(#a)" fill-opacity=".05" d="m0 0 183.966 136.937 111.066-51.71 189.118 27.815 66.333-62.593L668.846 0h42.56L571.535 61.089l-81.016 92.036-169.51-29.762-144.643 72.839L0 83.448zm130.766 0 97.599 59.569 62.517-30.4 169.298 25.84L519.536 0h-60.785l-41.997 20.049L285.806 0l-52.471 29.792L182.446 0zM0 264.982l177.886 101.414L380 299.242l149.462 39.657 165.224-214.061L760 98.101V65.649L682.526 98.1 515.523 278.57l-132.149-21.964-199.408 49.993L0 186.778zm0 191.535 168.766 124.427 294.5-155.283 173.66 38.441L760 231.587v-35.203L627.806 409.853l-169.465-33.379-291.095 145.342L0 386.414zm0 162.412L177.384 730.39l337.212-162.123 117.77 105.382L760 484.029v-46.968L632.366 580.929l-126.89-56.255-324.049 139.855L0 558.129zm0 115.93L42.606 760h95.258L0 691.889zM389.15 760l117.268-80.986L643.522 760 760 691.889v-48.975l-115.474 75.62-132.256-75.62L315.187 760z"/><defs><linearGradient id="a" x1="0" x2="760" y1="380" y2="380" gradientUnits="userSpaceOnUse"><stop stop-color="#fff"/><stop offset="1" stop-color="#fff" stop-opacity="0"/></linearGradient></defs></svg>