<svg xmlns="http://www.w3.org/2000/svg" width="357" height="350" fill="none"><g clip-path="url(#a)"><path fill="#9FCBFF" d="M36.714 90.823c5.2 8.957 15.89 18.49 24.269 22.824 6.637 3.433 12.97 8.859 15.318 10.966v68.371l-22.54-23.002c-.29-5.777-4.335-10.26-4.335-10.26-11.556-9.971-12.712-18.919-12.712-18.919-6.066-25.424 0-49.98 0-49.98"/><path fill="#407AE6" d="M37.384 160.449c18.744 2.054 35.435 21.679 38.915 26.02v32.344c-3.476-8.566-11.35-12.51-15.706-14.066-5.393-1.926-26.195-12.135-32.357-22.92-6.164-10.785-28.12-14.734-28.12-14.734 7.8-5.488 16.179-8.955 37.268-6.644"/><path fill="#173D7A" d="M40.443 106.058c.026.104 2.756 10.455 9.888 24.396 5.164 10.094 13.536 23.742 25.968 36.753v1.392a149 149 0 0 1-12.287-14.397c-5.44-7.249-10.333-15.101-14.546-23.336-7.176-14.028-9.924-24.462-9.95-24.566z"/><path fill="#fff" d="M13.47 165.846c11.243.395 21.874 2.887 31.596 7.405 7.776 3.614 14.993 8.526 21.446 14.599a87 87 0 0 1 9.787 10.919v1.603a86 86 0 0 0-10.443-11.825c-10.023-9.431-27.254-20.86-52.419-21.744z"/><path fill="#52A4EC" d="M238.097 94.576V39.85C252.161 10.897 281.434 0 281.434 0c-4.493 9.27-3.851 25.031-1.689 36.156s4.327 27.502-7.725 38.009A87 87 0 0 0 267.901 78s-17.5 16.675-29.806 30.626v-14.05z"/><path fill="#fff" d="M243.557 74.912c3.287-9.99 7.46-20.447 12.4-31.08 8.413-18.103 16.246-30.61 16.324-30.735l.811.51c-.078.124-7.885 12.59-16.271 30.643-6.587 14.176-14.687 34.366-18.723 55.031v-4.704c1.406-6.315 3.23-12.888 5.459-19.665"/><path fill="#52A4EC" d="m81.215 104.927 144.706-84.339c3.812-2.222 12.354.334 12.354 6.496l-3.755 135.692-150.888 92.212c-2.822 1.725-6.64.188-7.225-3.067a8 8 0 0 1-.121-1.372V113.505a9.93 9.93 0 0 1 4.93-8.578"/><path fill="#184EAE" d="m85.079 107.214 144.637-84.297c3.811-2.223 8.596.527 8.596 4.94v135.657c0 .985-.523 1.897-1.374 2.392L84.243 254.902c-1.846 1.077-4.164-.255-4.164-2.392V115.915c0-3.584 1.903-6.897 5-8.701"/><path fill="url(#b)" d="m230.805 160.763-80.655 47.014-7.524 4.389-55.037 32.088v-129.17l143.216-83.501z"/><path fill="#95C2EC" d="M336.829 233.692c1.57.906 1.577 2.374.02 3.279l-152.313 88.515c-1.56.907-4.094.907-5.663 0l-97.329-56.193c-1.567-.906-1.577-2.374-.019-3.28l152.314-88.517c1.557-.905 4.092-.903 5.661.002z"/><path fill="#184EAE" d="M80.758 257.614c-.002.597.392 1.196 1.183 1.651l97.328 56.194c1.571.907 4.103.907 5.663 0l152.315-88.515c.774-.45 1.162-1.038 1.163-1.627l-.015 5.39c-.001.588-.389 1.177-1.162 1.626L184.92 320.849c-1.56.907-4.092.907-5.662 0l-97.33-56.194c-.788-.456-1.183-1.054-1.182-1.652z"/><path fill="#fff" d="M337.227 223.664c1.57.907 1.578 2.374.021 3.28l-152.314 88.515c-1.56.907-4.093.907-5.662 0l-97.33-56.194c-1.567-.905-1.577-2.374-.018-3.279l152.313-88.515c1.557-.906 4.092-.904 5.661.001z"/><path fill="#9FCBFF" d="m242.727 180.804-8.473 4.924-8.519-4.92 8.471-4.922zM232.09 186.986l-8.472 4.922-8.518-4.92 8.471-4.922zM221.455 193.165l-8.471 4.923-8.521-4.92 8.472-4.922zM210.812 199.35l-8.464 4.919-8.52-4.919 8.464-4.919zM200.178 205.53l-8.464 4.919-8.519-4.919 8.464-4.918zM189.543 211.711l-8.472 4.923-8.52-4.918 8.473-4.924zM178.908 217.891l-8.471 4.924-8.521-4.919 8.472-4.924zM168.273 224.071l-8.471 4.924-8.52-4.919 8.471-4.924zM157.639 230.251l-8.473 4.924-8.519-4.919 8.471-4.922zM146.994 236.437l-8.464 4.92-8.52-4.92 8.464-4.919zM136.359 242.617l-8.464 4.92-8.52-4.92 8.464-4.919zM125.723 248.797l-8.463 4.92-8.52-4.92 8.464-4.917zM115.088 254.979l-8.472 4.922-8.52-4.918 8.472-4.923zM252.896 187.227l-17.236 10.016-8.519-4.919 17.235-10.016zM233.738 198.36l-8.471 4.923-8.52-4.92 8.471-4.922zM223.594 204.256l-8.472 4.924-8.52-4.92 8.472-4.923zM213.449 210.151l-8.471 4.924-8.52-4.919 8.471-4.924zM203.295 216.053l-8.464 4.917-8.519-4.917 8.464-4.92zM193.15 221.948l-8.465 4.919-8.519-4.919 8.464-4.919zM183.004 227.843l-8.464 4.92-8.519-4.92 8.464-4.919zM172.859 233.739l-8.471 4.923-8.52-4.919 8.471-4.923zM162.713 239.636l-8.472 4.922-8.52-4.918 8.472-4.924zM152.568 245.531l-8.471 4.924-8.52-4.919 8.471-4.924zM142.424 251.428l-8.473 4.922-8.519-4.918 8.472-4.923zM132.176 257.382l-14.956 8.692-8.518-4.92 14.954-8.691zM263.549 193.378l-21.467 12.475-8.528-4.922 21.469-12.477zM240.158 206.971l-8.471 4.922-8.526-4.922 8.47-4.924zM230.152 212.785l-8.464 4.919-8.526-4.924 8.464-4.917zM220.154 218.596l-8.464 4.92-8.526-4.924 8.463-4.919zM210.154 224.408l-8.464 4.919-8.526-4.924 8.464-4.919zM200.154 230.219l-8.464 4.918-8.526-4.924 8.464-4.918zM190.156 236.029l-8.464 4.919-8.527-4.924 8.465-4.917zM180.156 241.84l-8.464 4.918-8.527-4.922 8.464-4.919zM170.158 247.65l-8.471 4.924-8.526-4.924 8.471-4.922zM160.158 253.461l-8.47 4.924-8.529-4.924 8.472-4.922zM149.457 259.68l-21.585 12.544-8.526-4.922 21.585-12.544zM284.84 205.67l-10.737 6.24-10.807-6.24-4.86 2.825-8.366-4.829 15.597-9.066zM256.652 209.718l-8.464 4.919-8.526-4.922 8.464-4.919z"/><path fill="#9FCBFF" d="m271.977 213.146-8.472 4.924-8.526-4.924 8.471-4.922zM295.863 212.033l-21.468 12.476-8.528-4.923 21.469-12.477zM246.559 215.585l-8.465 4.918-8.527-4.922 8.464-4.92zM236.463 221.451l-8.47 4.922-8.528-4.922 8.472-4.922zM226.371 227.317l-8.471 4.922-8.527-4.922 8.471-4.922zM216.275 233.183l-8.471 4.922-8.526-4.922 8.471-4.924zM206.182 239.049l-8.472 4.924-8.526-4.924 8.47-4.922zM196.08 244.919l-8.464 4.919-8.526-4.923 8.464-4.918zM185.986 250.785l-8.464 4.919-8.526-4.922 8.464-4.919zM175.893 256.651l-8.473 4.924-8.526-4.922 8.471-4.924zM165.797 262.518l-8.472 4.923-8.527-4.923 8.473-4.923zM155.25 268.647l-16.731 9.723-8.526-4.922 16.731-9.723zM261.883 219.012l-8.472 4.924-8.527-4.922 8.471-4.924zM251.781 224.882l-8.464 4.92-8.526-4.924 8.464-4.919zM241.688 230.75l-8.465 4.918-8.526-4.923 8.464-4.919zM231.594 236.614l-8.472 4.924-8.527-4.922 8.471-4.924zM221.498 242.482l-8.471 4.922-8.528-4.922 8.471-4.924zM211.404 248.348l-8.471 4.922-8.528-4.922 8.472-4.924zM201.309 254.214l-8.472 4.922-8.526-4.922 8.47-4.924zM191.209 260.084l-8.466 4.919-8.526-4.924 8.464-4.917zM181.113 265.95l-8.464 4.919-8.527-4.922 8.465-4.919zM170.748 271.973l-21.584 12.545-8.527-4.924 21.585-12.544zM272.465 225.63l-8.472 4.924-8.526-4.924 8.472-4.924zM262.445 231.453l-8.473 4.924-8.526-4.922 8.472-4.924zM252.424 237.278l-8.466 4.919-8.526-4.924 8.464-4.919zM242.41 243.097l-8.471 4.923-8.528-4.923 8.472-4.923zM232.426 248.899l-38.434 22.334-8.526-4.922 38.432-22.334zM191.988 272.398l-8.471 4.922-8.526-4.922 8.471-4.924zM181.77 278.336l-21.586 12.543-8.526-4.922 21.585-12.544z"/><path fill="#184EAE" d="M272.733 259.115c-.211.326-.547.631-.999.894l-35.225 20.33c-1.744 1.008-4.572 1.008-6.317 0l-16.43-9.482c-.451-.262-.787-.567-.998-.882-.631-.926-.295-2.018.998-2.764l35.225-20.341c1.746-.998 4.575-.998 6.307 0l16.44 9.492c1.283.746 1.62 1.827.999 2.753"/><path fill="#9FCBFF" d="M272.732 259.115c-.21.326-.547.631-.998.894l-35.225 20.33c-1.744 1.008-4.573 1.008-6.317 0l-16.43-9.482c-.451-.262-.787-.567-.998-.882.209-.325.547-.631.998-.893l35.225-20.341c1.746-1.008 4.574-1.008 6.307 0l16.44 9.492c.453.252.789.556.998.882"/><path fill="#52A4EC" fill-rule="evenodd" d="M218.047 55.038 189.63 72.424v-1.602l28.417-17.387zM218.047 59.003l-5.755 3.52V60.92l5.755-3.52zM218.047 62.958l-12.301 7.526V68.88l12.301-7.526zM214.959 68.813l-10.055 6.154v-1.605l10.055-6.153zM214.959 72.768l-10.055 6.153v-1.604l10.055-6.153zM207.98 81.004l-9.78 5.983v-1.602l9.78-5.984zM208.697 64.726 190.47 75.874v-1.605l18.227-11.148zM187.875 77.463l-8.702 5.325v-1.603l8.702-5.325zM175.867 84.81 164.119 92v-1.605l11.748-7.19zM202.865 72.248l-10.254 6.272v-1.604l10.254-6.271zM201.834 76.845l-5.869 3.592V78.83l5.869-3.592zM201.834 80.8l-10.054 6.154v-1.608l10.054-6.149zM193.17 82.147l-11.175 6.836v-1.605l11.175-6.836zM179.762 90.348l-5.863 3.588v-1.603l5.863-3.59zM171.383 95.48l-7.263 4.44v-1.603l7.263-4.445zM189.543 88.32l-12.701 7.77v-1.603l12.701-7.77zM174.945 97.252l-3.791 2.321v-1.607l3.791-2.317zM195.406 88.697l-7.271 4.451v-1.604l7.271-4.45zM214.959 84.653l-10.055 6.154v-1.603l10.055-6.154zM214.959 88.618l-10.055 6.154v-1.603l10.055-6.153zM201.834 92.685l-5.869 3.593v-1.605l5.869-3.59zM201.834 96.652l-9.055 5.541v-1.604l9.055-5.541zM193.17 97.987l-8.591 5.256v-1.604l8.591-5.257zM182.863 104.293l-4.516 2.767v-1.605l4.516-2.766zM176.41 108.241l-5.587 3.419v-1.604l5.587-3.418zM183.965 107.586l-10.066 6.159v-1.605l10.066-6.158zM214.959 92.578l-10.055 6.15v-1.604l10.055-6.15zM214.959 96.543l-10.055 6.153v-1.607l10.055-6.153zM201.834 100.607l-5.869 3.59v-1.602l5.869-3.593zM201.834 104.572l-18.435 11.281v-1.605l18.435-11.28zM193.17 105.907l-11.175 6.84v-1.604l11.175-6.839zM179.762 114.113l-5.863 3.584v-1.603l5.863-3.584zM171.383 119.24l-7.263 4.444v-1.603l7.263-4.444zM181.162 117.223l-10.34 6.326v-1.605l10.34-6.329zM190.764 103.426l-4.283 2.621v-1.605l4.283-2.619zM218.047 102.574l-5.755 3.52v-1.605l5.755-3.519zM218.047 106.529l-12.301 7.526v-1.604l12.301-7.527zM214.959 112.383l-10.055 6.153v-1.603l10.055-6.153zM214.959 116.348l-10.055 6.155v-1.615l10.055-6.153zM207.98 124.575l-9.78 5.984v-1.605l9.78-5.984zM208.697 108.295l-10.112 6.188v-1.606l10.112-6.184zM195.996 116.067l-5.106 3.123v-1.605l5.106-3.123zM187.584 121.214l-16.243 9.936v-1.604l16.243-9.939zM202.865 115.819l-10.254 6.273v-1.605l10.254-6.273zM201.834 120.412l-11.456 7.013v-1.603l11.456-7.013zM201.834 124.382l-7.821 4.783v-1.614l7.821-4.784zM187.584 129.134l-8.516 5.21v-1.604l8.516-5.209zM191.779 130.531l-14.937 9.141v-1.615l14.937-9.137zM174.945 140.834l-3.791 2.321v-1.615l3.791-2.324zM195.406 132.268l-7.271 4.45v-1.603l7.271-4.452zM186.523 137.705l-13.535 8.279v-1.6l13.535-8.284zM170.975 147.219l-4.047 2.475v-1.602l4.047-2.478zM214.959 128.224l-10.055 6.154v-1.604l10.055-6.154zM214.959 132.19l-10.055 6.156v-1.607l10.055-6.154zM201.834 136.257l-16.555 10.129v-1.603l16.555-10.129zM201.834 140.222l-9.055 5.541v-1.603l9.055-5.541zM182.863 147.863l-4.516 2.766v-1.603l4.516-2.766zM176.41 151.815l-5.587 3.415v-1.603l5.587-3.418zM183.965 151.156l-10.066 6.158v-1.605l10.066-6.156zM190.764 146.997l-4.283 2.616v-1.603l4.283-2.617zM218.047 136.798l-5.755 3.523v-1.605l5.755-3.523zM218.047 140.755l-12.301 7.527v-1.605l12.301-7.529zM214.959 146.61l-10.055 6.15v-1.604l10.055-6.154zM214.959 150.565l-10.055 6.15v-1.604l10.055-6.149zM207.98 158.802l-9.78 5.984v-1.605l9.78-5.984zM208.697 142.519l-10.112 6.188v-1.605l10.112-6.187zM195.996 150.29l-5.106 3.126v-1.604l5.106-3.126zM187.584 155.438l-23.465 14.358v-1.603l23.465-14.359zM202.865 150.042l-10.254 6.275v-1.603l10.254-6.276zM201.834 154.639l-11.456 7.01v-1.604l11.456-7.009zM201.834 158.594l-7.821 4.788v-1.603l7.821-4.788zM187.584 163.358l-8.516 5.208v-1.603l8.516-5.209zM176.836 169.936l-5.177 3.168v-1.605l5.177-3.167zM169.139 174.646l-5.02 3.072v-1.605l5.02-3.071zM191.779 164.747l-14.937 9.141v-1.604l14.937-9.14zM174.945 175.047l-3.791 2.32v-1.603l3.791-2.321zM195.406 166.494l-7.271 4.448v-1.604l7.271-4.448zM152.041 96.177l-28.415 17.387v-1.603l28.415-17.387zM152.041 100.142l-5.754 3.52v-1.603l5.754-3.52zM152.041 104.097l-12.3 7.527v-1.603l12.3-7.527zM148.955 109.953l-10.057 6.153v-1.604l10.057-6.153zM148.955 113.908l-10.057 6.153v-1.604l10.057-6.154zM141.975 122.143l-9.781 5.984v-1.603l9.781-5.984zM142.691 105.865l-18.226 11.148v-1.604l18.226-11.148zM121.871 118.603l-8.703 5.325v-1.603l8.703-5.325zM109.861 125.949l-11.748 7.19v-1.604l11.748-7.19zM136.861 113.387l-10.254 6.273v-1.604l10.254-6.272zM135.828 117.985l-5.867 3.592v-1.607l5.867-3.592zM135.828 121.94l-10.054 6.153v-1.607l10.054-6.149zM127.166 123.286l-11.174 6.836v-1.604l11.174-6.836zM113.758 131.488l-5.863 3.587v-1.602l5.863-3.59zM105.377 136.619l-7.264 4.44v-1.603l7.264-4.444zM123.539 129.46l-12.701 7.77v-1.603l12.701-7.771zM108.941 138.392l-3.792 2.321v-1.607l3.792-2.317zM129.402 129.836l-7.271 4.452v-1.604l7.271-4.451zM148.955 125.793l-10.057 6.153v-1.602l10.057-6.154zM148.955 129.758l-10.057 6.153v-1.602l10.057-6.154zM135.828 133.825l-5.867 3.592v-1.604l5.867-3.591zM135.828 137.792l-9.054 5.541v-1.604l9.054-5.542zM127.166 139.126l-8.592 5.257v-1.604l8.592-5.257zM116.859 145.433l-4.518 2.766v-1.604l4.518-2.766zM110.406 149.38l-5.587 3.42v-1.604l5.587-3.418zM117.959 148.726l-10.064 6.159v-1.606l10.064-6.158zM148.955 133.717l-10.057 6.151v-1.604l10.057-6.151zM148.955 137.683l-10.057 6.153v-1.607l10.057-6.154zM135.828 141.746l-5.867 3.591v-1.603l5.867-3.592zM135.828 145.712l-18.434 11.28v-1.604l18.434-11.281zM127.166 147.046l-11.174 6.841v-1.604l11.174-6.84zM113.758 155.252l-5.863 3.585v-1.603l5.863-3.585zM105.377 160.379l-7.264 4.445v-1.603l7.264-4.445zM115.156 158.362l-10.338 6.326v-1.604l10.338-6.329zM124.758 144.566l-4.281 2.62v-1.604l4.281-2.619zM152.041 143.714l-5.754 3.519v-1.604l5.754-3.52zM152.041 147.668l-12.3 7.527v-1.605l12.3-7.526zM148.955 153.523l-10.057 6.153v-1.603l10.057-6.153zM148.955 157.488l-10.057 6.153v-1.613l10.057-6.153zM141.975 165.714l-9.781 5.984v-1.604l9.781-5.984zM142.691 149.435l-10.111 6.187v-1.607l10.111-6.183zM129.992 157.206l-5.108 3.123v-1.604l5.108-3.123zM121.58 162.354l-16.243 9.936v-1.605l16.243-9.938zM136.861 156.958l-10.254 6.273v-1.604l10.254-6.273zM135.828 161.552l-11.455 7.013v-1.603l11.455-7.013zM135.828 165.521l-7.82 4.784v-1.615l7.82-4.783zM121.58 170.274l-8.516 5.21v-1.605l8.516-5.208zM125.773 171.67l-14.936 9.141v-1.614l14.936-9.137zM108.941 181.973l-3.792 2.321v-1.614l3.792-2.324zM129.402 173.407l-7.271 4.451v-1.603l7.271-4.452zM120.518 178.844l-13.536 8.28v-1.6l13.536-8.284zM104.969 188.358l-4.045 2.476v-1.603l4.045-2.477zM148.955 169.364l-10.057 6.154v-1.605l10.057-6.153zM148.955 173.329l-10.057 6.157v-1.608l10.057-6.153zM135.828 177.396l-16.554 10.129v-1.603l16.554-10.129zM135.828 181.361l-9.054 5.542V185.3l9.054-5.541zM116.859 189.003l-4.518 2.766v-1.603l4.518-2.766zM110.406 192.955l-5.587 3.415v-1.603l5.587-3.418zM117.959 192.296l-10.064 6.157v-1.604l10.064-6.156zM124.758 188.137l-4.281 2.616v-1.603l4.281-2.617zM152.041 177.937l-5.754 3.523v-1.604l5.754-3.523zM152.041 181.895l-12.3 7.526v-1.604l12.3-7.529zM148.955 187.749l-10.057 6.151v-1.605l10.057-6.153zM148.955 191.704l-10.057 6.151v-1.605l10.057-6.149zM141.975 199.941l-9.781 5.984v-1.604l9.781-5.984zM142.691 183.659l-10.111 6.187v-1.604l10.111-6.188zM129.992 191.43l-5.108 3.126v-1.604l5.108-3.126zM121.58 196.578l-23.467 14.358v-1.603l23.467-14.36zM136.861 191.182l-10.254 6.275v-1.603l10.254-6.276zM135.828 195.778l-11.455 7.011v-1.605l11.455-7.008zM135.828 199.733l-7.82 4.788v-1.603l7.82-4.788zM121.58 204.498l-8.516 5.208v-1.603l8.516-5.21zM110.83 211.076l-5.179 3.167v-1.604l5.179-3.167zM103.135 215.786l-5.021 3.071v-1.604l5.021-3.072zM125.773 205.887l-14.936 9.141v-1.605l14.936-9.139zM108.941 216.187l-3.792 2.319v-1.603l3.792-2.321zM129.402 207.634l-7.271 4.448v-1.605l7.271-4.447z" clip-rule="evenodd"/><path fill="#184EAE" d="M199.697 250.116c-17.717-.112-32.029-8.494-31.964-18.723.064-10.229 14.48-18.43 32.198-18.319 17.717.112 32.029 8.494 31.964 18.723-.064 10.229-14.48 18.43-32.198 18.319" opacity=".39"/><path fill="url(#c)" d="M233.41 130.411c.32 19.356 5.123 50.352 10.519 53.466 5.395 3.116 9.34-22.83 9.02-42.185s-4.785-27.392-10.181-30.506c-5.395-3.116-9.678-.13-9.358 19.225"/><path fill="url(#d)" d="M196.84 163.231c27.283 0 49.479-12.56 50.29-28.228.023.583.038 1.18.038 1.811 0 27.796-22.532 92.606-50.329 92.606-27.795 0-50.328-64.81-50.328-92.606 0-.631.016-1.228.038-1.811.813 15.668 23.008 28.228 50.291 28.228"/><path fill="url(#e)" d="M196.841 163.231c-27.282 0-49.479-12.56-50.29-28.228-.015-.295-.038-.588-.038-.885 0-16.078 22.533-29.112 50.328-29.112s50.329 13.034 50.329 29.112c0 .297-.024.59-.038.885-.813 15.668-23.008 28.228-50.291 28.228"/><path fill="url(#f)" d="M138.844 169.046c.32 19.355 5.123 50.351 10.518 53.465s9.34-22.829 9.02-42.185c-.32-19.355-4.785-27.392-10.18-30.506-5.397-3.116-9.68-.131-9.358 19.226"/><path fill="url(#g)" d="M151.103 136.419q.063.07.126.14-.063-.07-.126-.14"/><path fill="url(#h)" d="M149.578 134.615q.118.152.24.303z"/><path fill="url(#i)" d="M146.364 129.123c.044.107.094.213.14.321-.046-.106-.097-.214-.14-.321"/><path fill="url(#j)" d="m152.918 138.243-.037-.037q.012.01.025.024z"/><path fill="url(#k)" d="M147.171 130.867q.097.195.202.386-.102-.191-.202-.386"/><path fill="url(#l)" d="M201.601 66.46c20.795 3.711 40.82 18.851 44.363 40.968.292 1.817.527 3.553.714 5.226l.022.04c.088.87.262 2.677.277 3.635l.002-.001c.087 5.88-.789 14.324-5.455 21.076-1.348 1.679-3.887 4.43-7.473 6.641-20.388 11.549-53.245 11.417-73.632-.354-2.921-1.686-5.421-3.524-7.513-5.464q-.014-.011-.025-.024a32 32 0 0 1-1.652-1.647c-.043-.046-.082-.094-.125-.14a29 29 0 0 1-1.525-1.802 24 24 0 0 1-2.204-3.362q-.104-.193-.202-.386a21 21 0 0 1-.668-1.422c-.046-.108-.096-.214-.141-.321-.141-.35-.266-.702-.386-1.055-1.533-3.753-2.109-8.71-2.319-12.001-3.171-34.031 37.466-53.26 57.942-49.607"/><path fill="url(#m)" d="M231.788 132.578c-13.296 7.676-32.029 10.285-49.145 7.89l.03-.034c-8.522-.802-11.223-7.843-11.795-9.722-.351-2.188-.587-4.418-.826-6.492-.87-9.305 9.29-9.764 12.622-9.666 17.107 2.386 35.83-.245 49.116-7.916 2.567-1.482 4.797-3.083 6.709-4.772l-.013-.031s.229-.177.6-.5a30 30 0 0 0 2.833-2.972q.01.01.016.022c.332-.404.667-.845.994-1.307a45 45 0 0 1 1.259 3.299l.005-.03c.511 1.5.948 3.038 1.296 4.616.18.812.343 1.632.478 2.464.292 1.817.526 3.552.713 5.226l.023.04c.026.255.058.594.094.964-.908 6.91-5.888 13.655-15.009 18.921"/><path fill="#48D4FF" d="M227.956 124.289c-1.445-.846-1.429-3.562.037-6.065 1.467-2.503 3.827-3.846 5.272-3s1.429 3.563-.037 6.066-3.826 3.846-5.272 2.999"/><path fill="url(#n)" d="m152.916 138.243-.037-.037q.012.01.025.024z"/><path fill="#606060" d="m152.904 138.23-.025-.024a.1.1 0 0 1 .025.024"/><path fill="#262626" d="M246.678 112.656c.048.081.091.162.138.243.011.131.019.28.03.417-.014.115-.037.23-.052.345l-.094-.964z"/><path fill="url(#o)" d="m152.916 138.243-.037-.037q.012.01.025.024z"/><path fill="#606060" d="m152.904 138.23-.025-.024a.1.1 0 0 1 .025.024"/><path fill="#48D4FF" d="M204.333 131.391c-1.445-.846-1.429-3.562.037-6.065 1.467-2.503 3.827-3.846 5.272-2.999 1.446.846 1.429 3.562-.037 6.065s-3.826 3.846-5.272 2.999"/><path fill="url(#p)" d="M208.314 186.596c0 6.527 4.615 9.153 10.309 5.866s10.309-11.244 10.309-17.77c0-6.527-4.616-9.153-10.309-5.866-5.694 3.287-10.309 11.244-10.309 17.77"/><path fill="#48D4FF" d="M217.977 178.355c-.786-.46-.777-1.938.021-3.301s2.083-2.094 2.869-1.633c.787.46.777 1.938-.021 3.301-.798 1.362-2.083 2.094-2.869 1.633M217.272 187.832c-.786-.46-.777-1.938.021-3.301.798-1.362 2.083-2.094 2.869-1.633s.777 1.938-.021 3.301-2.083 2.094-2.869 1.633"/><path fill="#52A4EC" d="M318.932 115.862c0-20.142-14.271-44.86-31.714-54.932-8.109-4.682-15.531-5.401-21.153-2.812l-.002-.004-.032.019a15 15 0 0 0-2.271 1.296l-5.161 2.946.764 1.643c-2.459 3.776-3.859 8.915-3.859 15.224 0 9.748 3.35 20.567 8.779 30.28v14.736a2.02 2.02 0 0 0 2.02 2.02h10.677c3.217 3.135 6.659 5.826 10.239 7.894 3.706 2.139 7.265 3.444 10.577 3.993l.117 1.004 4.238-.723a17 17 0 0 0 4.295-.731l.027-.004v-.005c7.559-2.343 12.459-10.048 12.459-21.844"/><path fill="#184EAE" d="M282.364 63.247c-17.079-9.86-31.053-1.793-31.053 17.928 0 9.546 3.281 20.138 8.595 29.649v14.428c0 1.092.886 1.977 1.977 1.977h10.454c3.15 3.07 6.521 5.705 10.027 7.73 17.079 9.861 31.052 1.793 31.052-17.928 0-19.72-13.973-43.924-31.052-53.784"/><path fill="url(#q)" d="M281.424 71.367c-13.026-7.82-23.684-1.421-23.684 14.218 0 15.64 10.658 34.833 23.684 42.653s23.685 1.421 23.685-14.218c-.001-15.64-10.659-34.833-23.685-42.653"/><path fill="#184EAE" d="M267.523 91.221c-1.572-.907-2.858-.165-2.858 1.65 0 1.816 1.286 4.044 2.858 4.95 1.572.909 2.858.166 2.858-1.65.001-1.815-1.286-4.043-2.858-4.95M280.793 98.597c-1.572-.907-2.858-.165-2.858 1.65s1.286 4.043 2.858 4.95 2.857.165 2.857-1.65-1.285-4.043-2.857-4.95M294.412 105.973c-1.572-.908-2.858-.165-2.858 1.65s1.286 4.043 2.858 4.95 2.858.165 2.858-1.65-1.286-4.043-2.858-4.95"/><path fill="#95C2EC" d="m355.204 202.618-4.778 2.757-17.144 9.884c-1.498.864-3.934.86-5.442-.012l-36.538-21.095-4.757-2.747c-.712-.412-1.085-.942-1.128-1.479-.047-.6.319-1.208 1.109-1.664l21.921-12.643c1.499-.864 3.935-.859 5.443.012l41.293 23.844c.998.577 1.336 1.388 1.018 2.121-.161.374-.492.728-.997 1.022"/><path fill="#BBD2F9" d="m334.434 163.89.068.011c-.038.452-.063.907-.065 1.361z"/><path fill="#184EAE" d="m290.608 166.086 4.266 2.463 32.766 18.917c1.352.782 3.537.786 4.881.01l15.374-8.863 4.283-2.473c.455-.263.751-.581.896-.916h.106l-.011 24.139q.014.129 0 .255v.018h-.001c-.059.456-.388.901-.99 1.249l-19.657 11.338c-1.344.776-3.529.771-4.881-.01l-37.032-21.38c-.601-.347-.935-.789-1.004-1.241h-.015V164.76h.008c.038.481.373.957 1.011 1.326"/><path fill="url(#r)" d="m352.179 176.138-4.283 2.473-15.375 8.864c-1.343.776-3.528.771-4.88-.01l-32.766-18.918-4.266-2.462c-.638-.369-.973-.845-1.011-1.326-.043-.538.286-1.082.993-1.492l19.658-11.338c1.344-.776 3.529-.772 4.881.01l37.032 21.381c.895.518 1.197 1.245.912 1.903-.144.334-.441.653-.895.915"/><path fill="url(#s)" d="m292.855 170.976 34.209 19.745v17.441l-35.207-20.321v-17.442z"/><path fill="#48D4FF" d="M317.1 195.18v1.895l1.129 2.048v-3.641l-.424-.768zm-3.468-7.852 1.128 2.048 2.125 1.227 1.128-.747zm0 9.406 4.38 2.529-1.128-2.048-2.125-1.227zm.987-4.834-.564.373.564 1.025 2.406 1.389.564-.373-.564-1.025zm-.065-.491v-1.895l-1.128-2.029v3.622l.423.781zM312.158 190.386v-3.645l-1.128.747v1.897l.705 1.294zm-3.61-1.989-.563.373.563 1.025 2.407 1.389.563-.373-.563-1.025zm-.064-.481v-1.895l-1.129-2.048v3.642l.424.782zm-1.127 1.284v3.646l1.128-.748v-1.896l-.705-1.282zM305.959 185.866v-1.398l-1.128-.65v1.398zm0 6.437v-1.398l-1.128-.65v1.397zM298.846 178.791l1.128 2.048 2.125 1.227 1.128-.746zm.921 4.089v-1.902l-1.128-2.029v3.635l.423.78zm-1.126 1.287v3.646l1.128-.748v-1.896l-.705-1.282zM323.196 193.104l1.933 1.116v-2.217l-1.933-1.116z"/><path fill="url(#t)" d="m292.855 170.976 34.209 19.745v17.441l-35.207-20.321v-17.442z"/><path fill="#184EAE" d="m315.702 169.317.74.427 5.681 3.28a.93.93 0 0 0 .846.001l5.631-3.251.744-.429a.35.35 0 0 0 .154-.159h.02l-.002 1.238a.2.2 0 0 1 0 .045v.002c-.01.08-.068.157-.171.217l-6.373 3.679a.93.93 0 0 1-.847-.001l-6.42-3.707c-.105-.061-.162-.137-.174-.216h-.003v-1.359h.002c.004.087.062.169.172.233"/><path fill="#52A4EC" d="m329.342 169.345-.743.429-5.632 3.251a.93.93 0 0 1-.846-.001l-5.68-3.28-.74-.427c-.111-.064-.169-.146-.176-.23-.007-.093.05-.187.173-.258l6.373-3.679a.93.93 0 0 1 .846.001l6.421 3.707c.154.09.208.216.157.331a.33.33 0 0 1-.153.156"/><path fill="#184EAE" d="m324.625 174.524.74.427 9.101 5.293a.94.94 0 0 0 .847.001l5.631-3.251.743-.43a.35.35 0 0 0 .155-.159h.019l-.001 1.239v.047c-.01.08-.068.156-.171.217l-6.373 3.679a.94.94 0 0 1-.847-.002l-9.841-5.719c-.105-.061-.162-.138-.174-.216h-.003v-1.359h.001c.003.085.062.168.173.233"/><path fill="#52A4EC" d="m341.686 176.564-.743.43-5.632 3.251a.94.94 0 0 1-.846-.001l-9.101-5.293-.741-.427c-.11-.064-.168-.146-.175-.23-.008-.093.05-.188.172-.258l6.374-3.68a.93.93 0 0 1 .846.002l9.841 5.72c.155.09.208.215.158.33a.34.34 0 0 1-.153.156"/><path fill="#95C2EC" d="m341.758 278.466-2.699 1.559-20.462 11.814c-.847.488-2.223.485-3.075-.006l-20.643-11.919-2.688-1.551c-.403-.233-.613-.532-.637-.836-.027-.339.18-.683.627-.939l23.16-13.374c.846-.488 2.222-.485 3.074.006l23.331 13.471c.565.326.755.784.575 1.199-.091.21-.277.411-.563.576"/><path fill="#184EAE" d="m292.191 270.933 2.688 1.551 20.643 11.919c.852.492 2.23.495 3.075.006l20.463-11.815 2.698-1.558c.286-.165.472-.366.565-.577h.068l-.006 4.504a.7.7 0 0 1 0 .16v.012h-.002c-.038.288-.245.568-.623.788l-23.163 13.373c-.847.488-2.223.485-3.075-.006l-23.331-13.471c-.379-.218-.588-.497-.632-.781h-.009v-4.94h.004c.024.302.235.603.637.835"/><path fill="url(#u)" d="m341.759 271.037-2.699 1.559-20.463 11.814c-.846.488-2.222.485-3.074-.006l-20.643-11.919-2.688-1.551c-.403-.233-.613-.532-.637-.836-.027-.339.18-.683.627-.939l23.163-13.374c.846-.488 2.222-.485 3.074.006l23.331 13.471c.565.326.755.784.575 1.199-.093.21-.28.411-.566.576"/><path fill="#fff" d="M308.458 268.014c-1.483 1.149-1.964 2.417-1.381 3.805.399.955 1.26 1.762 2.605 2.355 2.69 1.187 5.595 1.33 8.613.407 1.5-.459 2.587-1.171 3.274-2.069.248-.325.411-.668.619-1.012.44.171.979.133 1.506.131q2.716-.004 5.432-.011c.652-.002 1.178-.143 1.51-.48.326-.33.291-.659-.038-.98l-.064-.068-.297-.173c-.43-.166-.91-.187-1.413-.184q-2.772.013-5.543.012c-.392 0-.768.024-1.115.153-.091-.194-.168-.383-.27-.569q-.738-1.341-2.681-2.184c-1.8-.778-3.825-1.045-6.042-.814-1.367.143-2.579.488-3.632 1.018-.039.019-.084.032-.127.048l-.574.332c-.128.098-.258.189-.382.283m10.157 5.039c-2.244 1.301-5.9 1.309-8.142.016s-2.231-3.394.026-4.699c2.253-1.302 5.901-1.311 8.143-.022 2.232 1.287 2.221 3.401-.027 4.705"/><path fill="#95C2EC" d="m304.339 300.858-2.699 1.559-20.462 11.814c-.847.488-2.223.485-3.075-.006l-20.643-11.919-2.688-1.551c-.403-.233-.613-.533-.637-.836-.027-.34.18-.683.627-.94l23.163-13.373c.846-.488 2.222-.485 3.074.006l23.331 13.47c.565.326.755.783.575 1.199-.093.211-.28.412-.566.577"/><path fill="#184EAE" d="m254.656 293.04 2.688 1.551 20.643 11.919c.852.492 2.23.495 3.074.006l20.463-11.815 2.699-1.558c.286-.165.472-.366.565-.577h.067l-.005 4.504a1 1 0 0 1 0 .16v.012h-.002c-.038.288-.245.568-.624.788l-23.163 13.373c-.846.488-2.222.485-3.074-.006l-23.331-13.471c-.379-.218-.588-.497-.633-.781h-.008v-4.94h.004c.024.302.234.602.637.835"/><path fill="#9FCBFF" d="m304.224 293.143-2.699 1.558-20.463 11.815c-.846.488-2.222.485-3.074-.006l-20.643-11.919-2.688-1.551c-.403-.233-.614-.533-.637-.837-.027-.339.18-.682.626-.939l23.163-13.373c.847-.488 2.223-.485 3.075.006l23.331 13.47c.565.326.755.785.575 1.199-.093.211-.28.412-.566.577"/><path fill="#fff" d="M271.306 295.644a1 1 0 0 0 .086-.005l16.485-1.984a.706.706 0 0 0 .425-1.189l-4.711-4.91a.705.705 0 1 0-1.018.976l3.734 3.891-15.084 1.815a.705.705 0 0 0 .083 1.406"/><path fill="#95C2EC" d="m266.485 323.308-2.698 1.559-20.463 11.814c-.846.489-2.222.486-3.074-.005l-20.643-11.92-2.688-1.551c-.403-.233-.614-.532-.637-.836-.027-.339.179-.683.626-.939l23.163-13.373c.846-.488 2.222-.485 3.075.006l23.331 13.47c.564.326.755.785.575 1.199-.093.211-.281.411-.567.576"/><path fill="#184EAE" d="m216.636 314.866 2.689 1.552 20.642 11.919c.853.492 2.23.495 3.075.006l20.463-11.815 2.698-1.558c.286-.165.472-.366.565-.577h.068l-.006 4.504a.7.7 0 0 1 0 .16v.012h-.001c-.039.288-.245.568-.624.787l-23.163 13.374c-.846.488-2.222.485-3.075-.006l-23.331-13.471c-.379-.218-.588-.497-.632-.781h-.009v-4.94h.004c.024.302.235.603.637.834"/><path fill="url(#v)" d="m266.204 314.971-2.698 1.559-20.463 11.814c-.847.488-2.222.485-3.075-.006l-20.643-11.919-2.688-1.551c-.402-.233-.613-.532-.637-.836-.026-.339.18-.683.627-.939l23.163-13.374c.846-.488 2.222-.485 3.074.006l23.331 13.471c.565.326.755.783.575 1.199-.094.21-.28.411-.566.576"/><path fill="#184EAE" d="M245.625 319.936a.517.517 0 0 0 .517-.531l-.094-3.316 4.851-1.976a.517.517 0 0 0-.103-.988l-5.841-1.059-1.793-3.295a.515.515 0 0 0-.78-.152l-3.511 2.874-6.177-.059a.516.516 0 0 0-.32.926l3.465 2.676-1.794 3.083a.517.517 0 0 0 .544.767l5.863-1.137 4.968 2.146a.5.5 0 0 0 .205.041m3.238-6.109-3.538 1.441a.52.52 0 0 0-.321.494l.081 2.863-4.369-1.887a.5.5 0 0 0-.304-.033l-4.902.951 1.45-2.492a.52.52 0 0 0-.131-.669l-2.607-2.013 4.824.046a.54.54 0 0 0 .332-.117l3.173-2.596 1.614 2.963a.52.52 0 0 0 .361.261z"/><path fill="#95C2EC" d="M103.186 331.891c.001-.691.975-1.251 2.177-1.249l4.642.001q.295 0 .561-.053c.519-.1.938-.338 1.139-.646q.244-.374.532-.737c.32-.403.205-.875-.339-1.187l-3.283-1.891c-.42-.242-.632-.559-.635-.877-.003-.323.208-.646.637-.892l5.351-3.076c.85-.488 2.227-.488 3.075.001l3.307 1.904c.521.299 1.304.385 1.981.218.471-.116.982-.233 1.42-.332.688-.154 1.137-.535 1.137-.961v-2.699c0-.691.973-1.25 2.175-1.25h7.564c1.202 0 2.175.56 2.175 1.25v2.672c0 .441.496.82 1.215.977q.682.147 1.345.323c.699.185 1.519.119 2.065-.192l3.294-1.885c.851-.486 2.228-.485 3.074.005l5.334 3.086c.454.263.661.614.625.957-.031.296-.24.587-.635.813l-3.318 1.899c-.522.299-.673.749-.385 1.138.2.272.404.565.574.819.203.302.635.523 1.156.612q.245.042.511.042l4.691.008c1.2.001 2.172.563 2.168 1.255l-.017 3.857-.001.496c-.003.691-.979 1.25-2.18 1.247l-4.643-.007c-.768-.002-1.429.284-1.702.697a10 10 0 0 1-.535.738c-.32.402-.206.874.336 1.187l3.278 1.893c.847.489.845 1.281-.006 1.769l-5.36 3.072c-.851.488-2.226.487-3.074-.003l-3.302-1.908c-.52-.301-1.302-.386-1.98-.22-.472.115-.981.233-1.42.331-.689.153-1.139.535-1.14.96l-.008 2.698c-.001.692-.976 1.25-2.178 1.249l-7.564-.007c-1.2-.002-2.172-.562-2.171-1.254l.008-2.672c.001-.442-.496-.823-1.214-.979a29 29 0 0 1-1.281-.307c-.699-.184-1.519-.118-2.063.195l-3.289 1.888c-.851.488-2.226.488-3.074-.002l-5.343-3.082c-.848-.489-.846-1.281.005-1.769l3.312-1.901c.52-.299.669-.749.38-1.14a25 25 0 0 1-1.003-1.472l-5.93-.003c-1.164 0-2.109-.526-2.167-1.187q-.003-.032-.005-.064zm17.113 3.3c.227.694.64 1.336 1.2 1.909 2.539 2.607 8.11 3.862 13.214 2.731 2.374-.526 4.28-1.53 5.475-2.762 1.185-1.224 1.668-2.672 1.2-4.101a4.8 4.8 0 0 0-.896-1.573c-2.373-2.833-8.201-4.245-13.518-3.067-2.551.565-4.562 1.682-5.729 3.041-.998 1.162-1.378 2.5-.946 3.822"/><path fill="#184EAE" d="m105.589 328.309 5.931.003c.025.045.52.821 1.003 1.471.289.39.14.841-.381 1.14l-3.312 1.901c-.849.488-.851 1.28-.004 1.77l5.342 3.081c.848.49 2.224.49 3.075.002l3.288-1.888c.544-.312 1.364-.379 2.063-.194q.63.167 1.281.306c.719.157 1.216.537 1.214.98l-.007 2.672c-.003.691.968 1.251 2.17 1.253l7.565.007c1.202.002 2.176-.557 2.178-1.249l.007-2.698c.002-.425.451-.807 1.14-.96.44-.097.95-.215 1.42-.33.678-.167 1.46-.08 1.981.219l3.301 1.908c.848.49 2.224.491 3.075.003l5.36-3.071c.851-.488.854-1.28.006-1.77l-3.278-1.893c-.543-.314-.657-.785-.337-1.187q.288-.363.536-.737c.273-.413.933-.699 1.701-.698l4.644.007c1.202.002 2.176-.557 2.179-1.247l.002-.495a.7.7 0 0 1 .016.148l-.018 6.356c-.003.692-.979 1.25-2.179 1.247l-2.724-.004.067 5.25q.026.135.003.271c-.049.277-.248.548-.618.761l-5.36 3.071c-.521.3-1.233.391-1.907.323l-.037.019v-.023c-.413-.046-.812-.139-1.131-.323l-3.301-1.908c-.521-.301-1.303-.387-1.981-.22-.472.115-.98.233-1.421.33-.689.154-1.139.536-1.14.96l-.008 2.699c-.001.691-.976 1.25-2.178 1.249l-7.564-.008c-1.201-.001-2.172-.561-2.171-1.253l.008-2.672c.001-.442-.496-.823-1.214-.979a29 29 0 0 1-1.281-.307c-.699-.184-1.519-.118-2.063.195l-3.289 1.887c-.318.183-.716.275-1.128.32v.037l-.057-.029c-.67.063-1.375-.031-1.891-.328l-5.342-3.082c-.353-.203-.549-.458-.608-.722l-.023-.012.001-.124q0-.028.002-.056l.066-5.369-2.675-.001c-1.2 0-2.173-.561-2.172-1.252l.006-5.946c.06.662 1.007 1.187 2.169 1.189M108.852 316.943l3.282 1.889c.545.312.66.784.34 1.187a10 10 0 0 0-.533.737c-.202.308-.621.545-1.138.646l-1.95-1.122c-.389-.225-.591-.512-.623-.806h-.036l.022-3.41c.005.318.216.635.636.879"/><path fill="#184EAE" d="M121.482 322.183a7.5 7.5 0 0 1 1.645-1.403l.039-.026q.14-.088.285-.175l.075-.043a13 13 0 0 1 .366-.202q.125-.066.255-.131l.119-.058q.124-.059.251-.116.067-.03.134-.06l.25-.107.147-.06q.124-.05.252-.096.078-.03.158-.057.127-.045.258-.089.081-.028.164-.054.133-.044.271-.083l.162-.049q.15-.043.302-.082.072-.021.143-.039.227-.056.456-.109.226-.051.454-.093l.076-.014q.216-.042.436-.077l.084-.013q.222-.036.444-.065l.046-.006q.215-.029.432-.05l.056-.006q.221-.022.444-.039l.084-.005q.22-.017.441-.027l.066-.003q.225-.01.448-.015h.015q.228-.004.454-.003h.072l.438.009.071.003a22 22 0 0 1 .463.024q.226.013.45.034l.046.004q.22.02.437.046l.064.007q.22.027.436.058l.034.004q.227.033.45.071a13 13 0 0 1 .485.091q.214.044.423.092l.036.009a16 16 0 0 1 1.311.365q.624.206 1.197.459l.016.007a11 11 0 0 1 1.434.764l.004.003q.494.317.914.674.003 0 .003.003.419.358.754.756c.407.486.712 1.012.896 1.574.468 1.429-.014 2.877-1.2 4.101-2.539-2.607-8.11-3.862-13.214-2.731-2.374.526-4.281 1.53-5.475 2.762-.56-.576-.973-1.215-1.2-1.91-.435-1.324-.053-2.663.943-3.824M150.225 320.838c-.17-.253-.373-.547-.574-.818-.287-.391-.139-.84.385-1.138l3.318-1.9c.394-.225.604-.516.635-.812v3.229c.017.334-.191.67-.635.922l-1.973 1.129c-.522-.088-.954-.309-1.156-.612"/><path fill="url(#w)" d="M103.422 322.704c.002-.69.975-1.251 2.177-1.249l4.642.001q.295 0 .562-.053c.519-.1.938-.337 1.138-.646a11 11 0 0 1 .532-.737c.32-.402.205-.874-.339-1.187l-3.282-1.889c-.42-.242-.633-.559-.636-.877-.003-.323.208-.646.637-.892l5.352-3.076c.849-.488 2.226-.488 3.074.001l3.308 1.904c.52.299 1.303.385 1.98.218.472-.116.982-.233 1.42-.332.689-.155 1.137-.535 1.137-.961v-2.699c0-.691.973-1.25 2.175-1.25h7.565c1.201 0 2.175.56 2.175 1.25v2.672c0 .441.495.82 1.215.976q.681.149 1.344.323c.699.186 1.519.12 2.065-.191l3.294-1.885c.851-.486 2.228-.485 3.075.005l5.333 3.086c.454.262.661.613.625.957-.03.296-.24.587-.635.812l-3.318 1.9c-.522.299-.672.749-.385 1.138.201.271.404.565.574.818.203.303.635.524 1.156.612q.246.043.512.043l4.69.008c1.201.001 2.172.563 2.168 1.254l-.016 3.858-.002.495c-.003.692-.979 1.251-2.179 1.248l-4.644-.007c-.768-.002-1.429.284-1.701.697a10 10 0 0 1-.536.737c-.32.403-.206.875.337 1.187l3.278 1.894c.846.489.845 1.281-.006 1.769l-5.36 3.072c-.851.488-2.227.486-3.075-.003l-3.302-1.908c-.52-.301-1.302-.387-1.98-.22-.472.115-.981.233-1.42.33-.689.154-1.138.536-1.14.96l-.007 2.699c-.002.691-.976 1.25-2.178 1.249l-7.565-.008c-1.2-.001-2.172-.561-2.17-1.253l.007-2.672c.001-.442-.496-.823-1.214-.979a30 30 0 0 1-1.281-.307c-.699-.184-1.519-.118-2.063.195l-3.288 1.887c-.851.488-2.227.487-3.075-.001l-5.342-3.082c-.848-.49-.847-1.281.004-1.77l3.312-1.9c.521-.3.669-.749.38-1.14a24 24 0 0 1-1.002-1.472l-5.931-.003c-1.164 0-2.109-.526-2.166-1.187q-.004-.032-.006-.065zm17.114 3.3c.228.695.64 1.336 1.201 1.91 2.539 2.607 8.11 3.862 13.214 2.731 2.374-.527 4.28-1.53 5.475-2.762 1.185-1.224 1.667-2.672 1.2-4.101a4.8 4.8 0 0 0-.897-1.574c-2.372-2.832-8.2-4.245-13.517-3.067-2.551.565-4.562 1.683-5.729 3.041-.998 1.162-1.38 2.501-.947 3.822"/><path fill="#95C2EC" d="M72.123 301.952c.001-.436.615-.789 1.373-.789l2.928.002q.186 0 .354-.034c.327-.064.591-.213.718-.409q.155-.236.336-.466c.202-.253.13-.551-.213-.749l-2.07-1.193c-.266-.153-.4-.352-.402-.553-.001-.203.131-.408.401-.563l3.377-1.941c.535-.308 1.405-.308 1.94 0l2.087 1.202c.329.189.823.243 1.25.137.297-.073.618-.147.896-.209.435-.097.716-.338.716-.606v-1.702c0-.436.614-.789 1.372-.789h4.773c.758 0 1.371.354 1.371.789v1.686c0 .278.313.517.767.616q.431.093.848.204c.44.116.959.075 1.302-.121l2.078-1.189c.537-.307 1.405-.305 1.939.003l3.365 1.948c.286.167.417.386.395.603-.019.187-.152.37-.401.513l-2.094 1.198c-.329.188-.423.471-.242.718.127.171.255.357.363.516.128.19.401.33.728.386q.156.027.323.028l2.96.005c.758.001 1.37.355 1.368.791l-.01 2.434-.001.312c-.002.437-.618.789-1.376.788l-2.93-.005c-.485 0-.903.18-1.074.441a6 6 0 0 1-.337.465c-.203.253-.132.551.212.749l2.067 1.194c.534.308.533.808-.004 1.116l-3.383 1.938c-.537.308-1.405.307-1.94-.001l-2.084-1.204c-.327-.189-.821-.243-1.249-.138-.298.072-.62.147-.897.208-.435.097-.718.337-.72.606l-.004 1.703c-.001.436-.616.789-1.374.787l-4.773-.004c-.758 0-1.372-.356-1.37-.791l.004-1.685c.002-.279-.312-.519-.765-.618a19 19 0 0 1-.808-.193c-.44-.117-.959-.075-1.302.122l-2.075 1.19c-.537.308-1.405.308-1.94-.001l-3.371-1.945c-.536-.308-.534-.808.003-1.116l2.09-1.201c.328-.189.422-.473.24-.718a15 15 0 0 1-.633-.929l-3.743-.001c-.734 0-1.33-.332-1.367-.749l-.002-.042zm10.797 2.082c.143.438.404.842.756 1.205 1.602 1.644 5.117 2.436 8.337 1.722 1.499-.332 2.702-.966 3.456-1.743.747-.771 1.052-1.685.758-2.588a3 3 0 0 0-.565-.992c-1.497-1.787-5.175-2.679-8.53-1.935-1.608.357-2.878 1.062-3.614 1.919-.63.736-.871 1.579-.598 2.412"/><path fill="#184EAE" d="m73.639 299.693 3.742.001c.015.03.329.518.633.929.183.247.088.53-.24.719l-2.09 1.2c-.537.308-.537.808-.003 1.116l3.37 1.945c.536.308 1.405.31 1.941.002l2.075-1.19c.344-.198.861-.239 1.302-.123q.399.105.808.193c.453.099.767.34.766.618l-.005 1.686c-.001.436.612.79 1.37.79l4.773.004c.758.002 1.373-.352 1.375-.787l.004-1.702c0-.268.285-.508.72-.606.277-.062.598-.135.896-.208.428-.104.922-.05 1.25.139l2.083 1.203c.535.308 1.402.31 1.94.002l3.383-1.938c.537-.308.538-.808.004-1.116l-2.067-1.195c-.342-.197-.414-.495-.212-.749q.182-.23.337-.464c.173-.261.589-.441 1.074-.441l2.93.004c.758.002 1.373-.351 1.376-.787l.001-.313a.5.5 0 0 1 .011.095l-.012 4.011c-.002.436-.618.789-1.376.787l-1.718-.003.041 3.312a.5.5 0 0 1 .002.171c-.031.176-.156.347-.391.481l-3.383 1.937c-.328.189-.778.247-1.203.204l-.023.012v-.015c-.261-.03-.514-.087-.714-.204l-2.084-1.203c-.327-.189-.821-.243-1.249-.138-.298.072-.62.147-.896.208-.435.097-.719.337-.719.606l-.004 1.701c-.001.437-.616.789-1.374.788l-4.773-.005c-.758 0-1.372-.355-1.37-.79l.004-1.686c.001-.278-.312-.519-.765-.617a18 18 0 0 1-.808-.194c-.441-.116-.959-.075-1.302.123l-2.075 1.19c-.2.115-.453.172-.71.202v.023l-.036-.019c-.422.04-.867-.019-1.193-.206l-3.371-1.945c-.223-.129-.347-.289-.383-.456l-.015-.007.001-.078v-.036l.043-3.387-1.688-.001c-.758 0-1.372-.354-1.37-.791l.003-3.751c.033.417.63.747 1.364.749M75.698 292.52l2.07 1.193c.344.198.416.496.214.75a7 7 0 0 0-.336.465c-.127.195-.392.346-.718.409l-1.23-.708c-.246-.141-.373-.323-.394-.509h-.022l.015-2.151c.003.199.135.398.4.551"/><path fill="#184EAE" d="M83.665 295.828a4.8 4.8 0 0 1 1.062-.902q.088-.057.18-.111l.047-.028q.082-.048.166-.094l.064-.034.16-.083.076-.037q.078-.038.158-.073.042-.02.085-.039l.158-.066.093-.039q.077-.03.159-.06l.099-.037a7 7 0 0 1 .436-.143l.102-.031.19-.051.09-.024a8 8 0 0 1 .574-.127l.047-.009q.137-.026.274-.048l.053-.009q.14-.022.28-.042l.03-.002q.136-.018.273-.033l.035-.004q.14-.014.28-.025l.053-.005q.14-.01.28-.016l.04-.002q.143-.006.284-.008h.008q.145-.002.286-.002h.046l.278.006.044.002q.142.003.283.013h.009q.14.009.283.022.014 0 .028.003l.276.028.04.004q.138.016.275.036.011 0 .02.003a8 8 0 0 1 .561.096l.03.005a8 8 0 0 1 .289.064 11 11 0 0 1 .551.144q.13.038.258.08l.018.006q.394.13.755.289l.01.004.236.109q.355.172.668.372l.003.001q.313.2.577.427l.003.001q.263.226.474.478c.257.307.45.638.565.992.295.901-.009 1.816-.758 2.588-1.601-1.644-5.117-2.436-8.337-1.722-1.498.332-2.702.966-3.455 1.743a3.1 3.1 0 0 1-.757-1.205c-.264-.829-.023-1.672.605-2.405M101.801 294.98a15 15 0 0 0-.363-.516c-.181-.246-.087-.529.242-.718l2.094-1.197c.249-.142.382-.326.401-.514v2.038c.011.21-.121.422-.401.583l-1.244.712c-.328-.058-.601-.198-.729-.388"/><path fill="#9FCBFF" d="M72.271 296.155c.002-.436.615-.789 1.373-.789l2.929.002q.185 0 .354-.034c.327-.063.59-.212.718-.408q.155-.237.336-.466c.202-.254.13-.552-.214-.749l-2.07-1.193c-.266-.154-.4-.353-.401-.553-.002-.204.13-.409.4-.564l3.377-1.94c.536-.308 1.406-.308 1.941 0l2.087 1.202c.329.188.822.243 1.249.137.297-.074.619-.148.896-.21.435-.097.717-.337.717-.606v-1.701c0-.437.613-.789 1.371-.789h4.773c.758 0 1.372.354 1.372.789v1.685c0 .279.312.518.767.616q.43.093.848.204c.44.116.958.075 1.302-.121l2.077-1.189c.537-.306 1.406-.305 1.939.003l3.365 1.948c.286.167.418.387.396.603-.02.188-.152.371-.402.514l-2.093 1.197c-.329.189-.424.472-.242.718.126.171.255.357.362.516.129.19.402.331.729.387q.155.027.323.028l2.959.004c.758.001 1.37.355 1.369.792l-.011 2.433-.001.313c-.002.436-.618.788-1.376.787l-2.93-.004c-.485 0-.902.179-1.073.44a6 6 0 0 1-.338.465c-.202.254-.131.551.212.749l2.068 1.194c.533.309.532.809-.005 1.117l-3.382 1.937c-.537.309-1.406.307-1.941-.001l-2.084-1.203c-.327-.189-.821-.244-1.249-.139-.297.072-.619.147-.896.208-.435.097-.718.338-.72.606l-.004 1.702c-.002.436-.617.789-1.374.787l-4.774-.004c-.758 0-1.371-.356-1.37-.791l.005-1.685c.001-.279-.313-.519-.766-.618a19 19 0 0 1-.808-.193c-.44-.117-.958-.075-1.302.122l-2.074 1.19c-.537.308-1.406.308-1.941-.001l-3.37-1.945c-.536-.309-.535-.808.002-1.117l2.09-1.2c.328-.189.423-.473.24-.718-.304-.411-.618-.9-.633-.929l-3.742-.001c-.735 0-1.33-.332-1.367-.75l-.003-.041zm10.799 2.083c.143.437.404.842.756 1.204 1.602 1.644 5.117 2.436 8.338 1.723 1.498-.332 2.7-.966 3.454-1.743.748-.772 1.053-1.686.758-2.588a3 3 0 0 0-.564-.993c-1.497-1.787-5.175-2.679-8.53-1.934-1.608.356-2.878 1.061-3.614 1.918-.63.736-.871 1.579-.598 2.413"/></g><defs><radialGradient id="c" cx="0" cy="0" r="1" gradientTransform="rotate(-150 141.74 30.23)scale(60.1485 42.6822)" gradientUnits="userSpaceOnUse"><stop stop-color="#E3E6FA"/><stop offset="1" stop-color="#FCFCFC"/></radialGradient><radialGradient id="d" cx="0" cy="0" r="1" gradientTransform="rotate(180 100.062 84.273)scale(51.4308)" gradientUnits="userSpaceOnUse"><stop stop-color="#FCFCFC"/><stop offset=".398" stop-color="#F8F8FC"/><stop offset=".808" stop-color="#ECEDFB"/><stop offset="1" stop-color="#E3E6FA"/></radialGradient><radialGradient id="f" cx="0" cy="0" r="1" gradientTransform="rotate(180 74.051 111.493)scale(63.5405)" gradientUnits="userSpaceOnUse"><stop stop-color="#E3E6FA"/><stop offset="1" stop-color="#FCFCFC"/></radialGradient><radialGradient id="g" cx="0" cy="0" r="1" gradientTransform="matrix(-50.8138 0 0 -50.8159 196.493 90.513)" gradientUnits="userSpaceOnUse"><stop stop-color="#FCFCFC"/><stop offset=".398" stop-color="#F8F8FC"/><stop offset=".808" stop-color="#ECEDFB"/><stop offset="1" stop-color="#E3E6FA"/></radialGradient><radialGradient id="h" cx="0" cy="0" r="1" gradientTransform="matrix(-50.8154 0 0 -50.815 196.496 90.514)" gradientUnits="userSpaceOnUse"><stop stop-color="#FCFCFC"/><stop offset=".398" stop-color="#F8F8FC"/><stop offset=".808" stop-color="#ECEDFB"/><stop offset="1" stop-color="#E3E6FA"/></radialGradient><radialGradient id="i" cx="0" cy="0" r="1" gradientTransform="matrix(-50.8192 0 0 -50.8151 196.5 90.514)" gradientUnits="userSpaceOnUse"><stop stop-color="#FCFCFC"/><stop offset=".398" stop-color="#F8F8FC"/><stop offset=".808" stop-color="#ECEDFB"/><stop offset="1" stop-color="#E3E6FA"/></radialGradient><radialGradient id="j" cx="0" cy="0" r="1" gradientTransform="rotate(180 98.248 45.257)scale(50.8153)" gradientUnits="userSpaceOnUse"><stop stop-color="#FCFCFC"/><stop offset=".398" stop-color="#F8F8FC"/><stop offset=".808" stop-color="#ECEDFB"/><stop offset="1" stop-color="#E3E6FA"/></radialGradient><radialGradient id="k" cx="0" cy="0" r="1" gradientTransform="matrix(-50.8151 0 0 -50.8152 196.495 90.514)" gradientUnits="userSpaceOnUse"><stop stop-color="#FCFCFC"/><stop offset=".398" stop-color="#F8F8FC"/><stop offset=".808" stop-color="#ECEDFB"/><stop offset="1" stop-color="#E3E6FA"/></radialGradient><radialGradient id="l" cx="0" cy="0" r="1" gradientTransform="rotate(180 98.248 45.257)scale(50.8153)" gradientUnits="userSpaceOnUse"><stop stop-color="#FCFCFC"/><stop offset=".398" stop-color="#F8F8FC"/><stop offset=".808" stop-color="#ECEDFB"/><stop offset="1" stop-color="#E3E6FA"/></radialGradient><radialGradient id="n" cx="0" cy="0" r="1" gradientTransform="matrix(-.01873 0 0 -.01873 152.898 138.225)" gradientUnits="userSpaceOnUse"><stop stop-color="#fff"/><stop offset=".173" stop-color="#FBFBFB"/><stop offset=".352" stop-color="#EEE"/><stop offset=".533" stop-color="#DADADA"/><stop offset=".715" stop-color="#BDBDBD"/><stop offset=".898" stop-color="#989898"/><stop offset="1" stop-color="gray"/></radialGradient><radialGradient id="o" cx="0" cy="0" r="1" gradientTransform="matrix(-.01873 0 0 -.01873 152.898 138.225)" gradientUnits="userSpaceOnUse"><stop stop-color="#fff"/><stop offset=".173" stop-color="#FBFBFB"/><stop offset=".352" stop-color="#EEE"/><stop offset=".533" stop-color="#DADADA"/><stop offset=".715" stop-color="#BDBDBD"/><stop offset=".898" stop-color="#989898"/><stop offset="1" stop-color="gray"/></radialGradient><linearGradient id="b" x1="230.804" x2="87.59" y1="137.918" y2="137.918" gradientUnits="userSpaceOnUse"><stop stop-color="#407AE6"/><stop offset=".263" stop-color="#3D77E2"/><stop offset=".535" stop-color="#346DD5"/><stop offset=".809" stop-color="#265DC1"/><stop offset="1" stop-color="#184EAE"/></linearGradient><linearGradient id="e" x1="192.977" x2="205.68" y1="123.241" y2="158.93" gradientUnits="userSpaceOnUse"><stop stop-color="#FCFCFC"/><stop offset=".398" stop-color="#F8F8FC"/><stop offset=".808" stop-color="#ECEDFB"/><stop offset="1" stop-color="#E3E6FA"/></linearGradient><linearGradient id="m" x1="208.062" x2="208.667" y1="90.376" y2="141.188" gradientUnits="userSpaceOnUse"><stop stop-color="#407AE6"/><stop offset=".263" stop-color="#3D77E2"/><stop offset=".535" stop-color="#346DD5"/><stop offset=".809" stop-color="#265DC1"/><stop offset="1" stop-color="#184EAE"/></linearGradient><linearGradient id="p" x1="224.392" x2="215.319" y1="169.747" y2="186.886" gradientUnits="userSpaceOnUse"><stop stop-color="#407AE6"/><stop offset=".263" stop-color="#3D77E2"/><stop offset=".535" stop-color="#346DD5"/><stop offset=".809" stop-color="#265DC1"/><stop offset="1" stop-color="#184EAE"/></linearGradient><linearGradient id="q" x1="294.914" x2="268.973" y1="128.131" y2="73.655" gradientUnits="userSpaceOnUse"><stop stop-color="#FCFCFC"/><stop offset=".398" stop-color="#F8F8FC"/><stop offset=".808" stop-color="#ECEDFB"/><stop offset="1" stop-color="#E3E6FA"/></linearGradient><linearGradient id="r" x1="353.178" x2="289.594" y1="169.703" y2="169.703" gradientUnits="userSpaceOnUse"><stop stop-color="#407AE6"/><stop offset=".263" stop-color="#3D77E2"/><stop offset=".535" stop-color="#346DD5"/><stop offset=".809" stop-color="#265DC1"/><stop offset="1" stop-color="#184EAE"/></linearGradient><linearGradient id="s" x1="326.235" x2="291.193" y1="199.157" y2="178.525" gradientUnits="userSpaceOnUse"><stop stop-color="#407AE6"/><stop offset=".263" stop-color="#3D77E2"/><stop offset=".535" stop-color="#346DD5"/><stop offset=".809" stop-color="#265DC1"/><stop offset="1" stop-color="#184EAE"/></linearGradient><linearGradient id="t" x1="326.353" x2="292.052" y1="188.811" y2="189.764" gradientUnits="userSpaceOnUse"><stop stop-color="#407AE6" stop-opacity="0"/><stop offset=".207" stop-color="#407EE7" stop-opacity=".207"/><stop offset=".419" stop-color="#418BEB" stop-opacity=".419"/><stop offset=".635" stop-color="#439FF0" stop-opacity=".635"/><stop offset=".852" stop-color="#46BCF8" stop-opacity=".852"/><stop offset="1" stop-color="#48D4FF"/></linearGradient><linearGradient id="u" x1="342.388" x2="291.55" y1="270.097" y2="270.097" gradientUnits="userSpaceOnUse"><stop stop-color="#407AE6"/><stop offset=".263" stop-color="#3D77E2"/><stop offset=".535" stop-color="#346DD5"/><stop offset=".809" stop-color="#265DC1"/><stop offset="1" stop-color="#184EAE"/></linearGradient><linearGradient id="v" x1="266.833" x2="215.995" y1="314.031" y2="314.031" gradientUnits="userSpaceOnUse"><stop stop-color="#FCFCFC"/><stop offset=".398" stop-color="#F8F8FC"/><stop offset=".808" stop-color="#ECEDFB"/><stop offset="1" stop-color="#E3E6FA"/></linearGradient><linearGradient id="w" x1="158.75" x2="103.416" y1="324.895" y2="324.895" gradientUnits="userSpaceOnUse"><stop stop-color="#407AE6"/><stop offset=".263" stop-color="#3D77E2"/><stop offset=".535" stop-color="#346DD5"/><stop offset=".809" stop-color="#265DC1"/><stop offset="1" stop-color="#184EAE"/></linearGradient><clipPath id="a"><path fill="#fff" d="M356.316 0H.114v350h356.202z"/></clipPath></defs></svg>