<svg xmlns="http://www.w3.org/2000/svg" width="1920" height="850" fill="none"><path fill="#152843" d="M0 0h981v850H0z"/><path fill="url(#a)" fill-opacity=".05" d="m0 0 183.966 153.153 111.066-57.834 189.118 31.11 66.333-70.006L668.846 0h42.56L571.535 68.323l-81.016 102.935-169.51-33.286-144.643 81.464L0 93.33zm130.766 0 97.599 66.623 62.517-34 169.298 28.9L519.536 0h-60.785l-41.997 22.423L285.806 0l-52.471 33.32L182.446 0zM0 296.361l177.886 113.424L380 334.679l149.462 44.353 165.224-239.411L760 109.718V73.423l-77.474 36.295-167.003 201.841-132.149-24.565-199.408 55.913L0 208.896zm0 214.217L168.766 649.74l294.5-173.672 173.66 42.993L760 259.012V219.64L627.806 458.388l-169.465-37.332L167.246 583.61 0 432.174zm0 181.645 177.384 124.661 337.212-181.322 117.77 117.861L760 541.348v-52.53L632.366 649.723l-126.89-62.917-324.049 156.417L0 624.223zm0 129.659L42.606 850h95.258L0 773.823zM389.15 850l117.268-90.576L643.522 850 760 773.823v-54.774l-115.474 84.575-132.256-84.575L315.187 850z"/><path fill="#152843" d="M939 0h981v850H939z"/><defs><linearGradient id="a" x1="0" x2="760" y1="425" y2="425" gradientUnits="userSpaceOnUse"><stop stop-color="#fff"/><stop offset="1" stop-color="#fff" stop-opacity="0"/></linearGradient></defs></svg>