<svg xmlns="http://www.w3.org/2000/svg" width="49" height="48" fill="none"><g clip-path="url(#a)"><path fill="#16497D" d="M48.032 24.001c0-13.255-10.715-24-23.932-24S.168 10.746.168 24.001s10.715 24 23.932 24 23.932-10.745 23.932-24"/><path fill="#fff" d="M17.882 28.616h.6c.35 0 .569.21.569.537 0 .334-.208.537-.562.537h-.607zm0 1.584h.565l.627 1.232h.798l-.709-1.337c.387-.151.611-.524.611-.956 0-.665-.443-1.073-1.218-1.073h-1.378v3.366h.704zm4.587.649h-1.526v-.85h1.44v-.54h-1.44v-.812h1.526v-.581h-2.23v3.366h2.23zm2.713.583h.749l-1.172-3.366h-.828l-1.169 3.366h.724l.256-.816h1.183zm-.856-2.722h.016l.431 1.378h-.88zm1.95-.644v3.366h1.285c1.01 0 1.605-.627 1.605-1.696s-.595-1.67-1.605-1.67zm.704.58h.497c.62 0 .97.388.97 1.092 0 .728-.34 1.11-.97 1.11h-.497zm4.101 2.786v-1.257l1.174-2.11h-.756l-.756 1.438h-.016l-.754-1.437h-.767l1.17 2.109v1.257zM18.426 22.707v-.684H15.76v.875h1.546l-.005.107c-.017.898-.688 1.51-1.657 1.51-1.155 0-1.875-.901-1.875-2.376 0-1.444.688-2.302 1.844-2.302.786 0 1.382.435 1.6 1.173h1.164c-.21-1.284-1.311-2.146-2.769-2.146-1.853 0-3.012 1.253-3.012 3.288 0 2.066 1.164 3.337 3.035 3.337 1.755 0 2.795-1.044 2.795-2.782m.937-3.736v6.411h2.342c1.92 0 3.048-1.19 3.048-3.221 0-2.03-1.133-3.19-3.048-3.19zm1.146.968h1.076c1.28 0 2 .791 2 2.226 0 1.462-.712 2.249-2 2.249h-1.076zm5.155-.968v6.411h1.146v-2.12h1.298c1.297 0 2.208-.866 2.208-2.145 0-1.28-.884-2.146-2.16-2.146zm1.146.937h1.045c.822 0 1.297.44 1.297 1.209 0 .777-.48 1.222-1.302 1.222h-1.04zm5.493-.009h1.27c.725 0 1.173.418 1.173 1.093 0 .693-.422 1.098-1.15 1.098h-1.293zm0 3.07h1.24l1.261 2.413h1.307l-1.4-2.586c.764-.275 1.209-.982 1.209-1.83 0-1.227-.831-1.995-2.218-1.995h-2.546v6.411h1.147z"/><path fill="#FFE143" d="m6.484 12.157-.625 1.27a.07.07 0 0 1-.052.037l-1.397.204a.07.07 0 0 0-.039.118l1.012.988a.07.07 0 0 1 .02.061l-.239 1.396a.07.07 0 0 0 .1.073l1.25-.659a.07.07 0 0 1 .064 0l1.25.659a.07.07 0 0 0 .096-.035.1.1 0 0 0 .004-.038l-.238-1.395a.07.07 0 0 1 .02-.062l1.01-.988a.07.07 0 0 0 .017-.07.07.07 0 0 0-.055-.048l-1.397-.204a.07.07 0 0 1-.052-.037l-.625-1.27a.07.07 0 0 0-.062-.038.07.07 0 0 0-.062.037M13.687 4.234l-.625 1.27a.07.07 0 0 1-.052.037l-1.397.204a.07.07 0 0 0-.055.047.07.07 0 0 0 .017.07l1.01.99a.07.07 0 0 1 .02.06l-.238 1.396a.07.07 0 0 0 .028.067.07.07 0 0 0 .072.006l1.25-.659a.07.07 0 0 1 .064 0l1.25.66a.07.07 0 0 0 .1-.074l-.238-1.395a.07.07 0 0 1 .02-.062l1.01-.988a.07.07 0 0 0-.038-.118l-1.397-.204a.07.07 0 0 1-.052-.037l-.625-1.27a.07.07 0 0 0-.062-.038.07.07 0 0 0-.062.038M23.91 1.904l-.625 1.27a.07.07 0 0 1-.052.037l-1.397.204a.07.07 0 0 0-.039.118l1.011.988a.07.07 0 0 1 .02.061l-.238 1.396a.07.07 0 0 0 .028.067.07.07 0 0 0 .072.006l1.25-.659a.07.07 0 0 1 .064 0l1.25.66a.07.07 0 0 0 .095-.036.1.1 0 0 0 .005-.038l-.239-1.395a.07.07 0 0 1 .02-.062l1.011-.988a.07.07 0 0 0 .017-.07.07.07 0 0 0-.055-.048l-1.398-.204a.07.07 0 0 1-.052-.037l-.624-1.27a.07.07 0 0 0-.098-.028.1.1 0 0 0-.026.028M34.132 4.234l-.625 1.27a.07.07 0 0 1-.052.037l-1.397.204a.07.07 0 0 0-.055.047.07.07 0 0 0 .017.07l1.011.99a.07.07 0 0 1 .02.061l-.239 1.395a.07.07 0 0 0 .028.067.07.07 0 0 0 .073.006l1.25-.659a.07.07 0 0 1 .064 0l1.25.66a.07.07 0 0 0 .1-.074l-.239-1.395a.07.07 0 0 1 .02-.062l1.01-.988a.07.07 0 0 0-.038-.118l-1.397-.204a.07.07 0 0 1-.052-.037l-.625-1.27a.07.07 0 0 0-.062-.038.07.07 0 0 0-.062.038M41.336 12.157l-.625 1.27a.07.07 0 0 1-.053.037l-1.397.204a.07.07 0 0 0-.038.118l1.011.988a.07.07 0 0 1 .02.061l-.238 1.396a.07.07 0 0 0 .063.08.1.1 0 0 0 .037-.007l1.25-.659a.07.07 0 0 1 .064 0l1.25.659a.07.07 0 0 0 .095-.035.1.1 0 0 0 .005-.038l-.239-1.395a.07.07 0 0 1 .02-.061l1.01-.99a.07.07 0 0 0-.037-.117l-1.398-.204a.07.07 0 0 1-.052-.037l-.625-1.27a.07.07 0 0 0-.098-.028.1.1 0 0 0-.025.027M44.125 22.176l-.626 1.27a.07.07 0 0 1-.052.037l-1.397.204a.07.07 0 0 0-.054.047.07.07 0 0 0 .016.07l1.011.99a.07.07 0 0 1 .02.06l-.238 1.396a.07.07 0 0 0 .028.067q.015.012.035.013a.1.1 0 0 0 .037-.007l1.25-.659a.07.07 0 0 1 .064 0l1.25.66a.07.07 0 0 0 .072-.007.07.07 0 0 0 .028-.067l-.239-1.395a.07.07 0 0 1 .02-.062l1.01-.988a.07.07 0 0 0-.037-.118l-1.398-.204a.07.07 0 0 1-.052-.038l-.625-1.27a.07.07 0 0 0-.061-.037.07.07 0 0 0-.062.037M41.336 31.962l-.625 1.27a.07.07 0 0 1-.053.038l-1.397.203a.07.07 0 0 0-.054.048.07.07 0 0 0 .016.07l1.011.989a.07.07 0 0 1 .02.061l-.238 1.396a.07.07 0 0 0 .028.067.07.07 0 0 0 .072.006l1.25-.66a.07.07 0 0 1 .064 0l1.25.66a.07.07 0 0 0 .072-.006.07.07 0 0 0 .028-.067l-.239-1.396a.07.07 0 0 1 .02-.061l1.01-.988a.07.07 0 0 0 .017-.071.07.07 0 0 0-.054-.047l-1.398-.204a.07.07 0 0 1-.052-.038l-.625-1.27a.07.07 0 0 0-.123 0M34.132 38.952l-.625 1.27a.07.07 0 0 1-.052.038l-1.397.204a.07.07 0 0 0-.056.084q.005.02.018.034l1.011.988a.07.07 0 0 1 .02.061l-.239 1.396a.07.07 0 0 0 .064.08.1.1 0 0 0 .037-.007l1.25-.659a.07.07 0 0 1 .064 0l1.25.659a.07.07 0 0 0 .1-.073l-.239-1.395a.07.07 0 0 1 .02-.062l1.01-.988a.07.07 0 0 0-.038-.118l-1.397-.204a.069.069 0 0 1-.052-.038l-.625-1.27a.07.07 0 0 0-.124 0M23.91 42.215l-.625 1.27a.07.07 0 0 1-.052.037l-1.397.204a.07.07 0 0 0-.055.047.07.07 0 0 0 .016.07l1.011.99a.07.07 0 0 1 .02.06l-.238 1.396a.07.07 0 0 0 .028.067.07.07 0 0 0 .072.006l1.25-.659a.07.07 0 0 1 .064 0l1.25.66a.07.07 0 0 0 .072-.007.07.07 0 0 0 .028-.067l-.239-1.395a.07.07 0 0 1 .02-.062l1.011-.988a.07.07 0 0 0 .017-.07.07.07 0 0 0-.055-.048l-1.398-.204a.07.07 0 0 1-.052-.037l-.624-1.27a.07.07 0 0 0-.062-.038.07.07 0 0 0-.062.038M13.687 38.952l-.625 1.27a.07.07 0 0 1-.052.038l-1.397.204a.07.07 0 0 0-.056.084.1.1 0 0 0 .018.034l1.01.988a.07.07 0 0 1 .02.061l-.238 1.396a.07.07 0 0 0 .063.08.1.1 0 0 0 .037-.007l1.25-.659a.07.07 0 0 1 .064 0l1.25.659a.07.07 0 0 0 .1-.073l-.238-1.395a.07.07 0 0 1 .02-.062l1.01-.988a.07.07 0 0 0-.038-.118l-1.397-.204a.07.07 0 0 1-.052-.038l-.625-1.27a.07.07 0 0 0-.124 0M6.484 31.962l-.625 1.27a.07.07 0 0 1-.052.038l-1.397.203a.07.07 0 0 0-.055.048.07.07 0 0 0 .016.07l1.012.989a.07.07 0 0 1 .02.061l-.239 1.396a.07.07 0 0 0 .1.073l1.25-.66a.07.07 0 0 1 .064 0l1.25.66a.07.07 0 0 0 .072-.006.07.07 0 0 0 .028-.067L7.69 34.64a.07.07 0 0 1 .02-.061l1.01-.988a.07.07 0 0 0 .017-.071.07.07 0 0 0-.055-.047l-1.397-.204a.07.07 0 0 1-.052-.038l-.625-1.27a.07.07 0 0 0-.098-.027.1.1 0 0 0-.026.027M3.927 22.176l-.625 1.27a.07.07 0 0 1-.052.037l-1.397.204a.07.07 0 0 0-.055.047.07.07 0 0 0 .017.07l1.011.99a.07.07 0 0 1 .02.06l-.239 1.396a.07.07 0 0 0 .028.067q.016.012.036.013a.1.1 0 0 0 .037-.007l1.25-.659a.07.07 0 0 1 .064 0l1.25.66a.07.07 0 0 0 .072-.007.07.07 0 0 0 .028-.067l-.239-1.395a.07.07 0 0 1 .02-.062l1.01-.988a.07.07 0 0 0-.004-.102.1.1 0 0 0-.034-.016l-1.397-.204a.07.07 0 0 1-.052-.037l-.625-1.27a.07.07 0 0 0-.098-.028.1.1 0 0 0-.026.027"/></g><defs><clipPath id="a"><path fill="#fff" d="M0 0h49v48H0z"/></clipPath></defs></svg>