<svg xmlns="http://www.w3.org/2000/svg" width="34" height="36" fill="none"><path fill="#FFC847" d="M5.486 6.279a34.7 34.7 0 0 0-3.07 8.185c-.831 3.414 4.387 4.872 5.205 1.461.581-2.422 1.385-4.702 2.557-6.894 1.62-3.089-3.06-5.845-4.692-2.752M22.588 13.886c-.681-1.158-2.532-1.896-3.69-.983-1.694 1.326-3.103 2.978-4.798 4.303-1.16.901-1.77 2.326-.945 3.727.68 1.159 2.531 1.896 3.688.983 1.695-1.326 3.104-2.977 4.799-4.303 1.157-.914 1.77-2.325.945-3.727M29.387 24.308c-2.257.806-4.624 1.252-6.934 1.858-3.36.887-1.949 6.155 1.414 5.28 2.311-.606 4.678-1.052 6.935-1.858 1.389-.493 2.305-1.811 1.896-3.338-.362-1.351-1.922-2.435-3.31-1.942"/></svg>