<svg xmlns="http://www.w3.org/2000/svg" width="1922" height="731" fill="none"><path stroke="#fff" stroke-dasharray="4 4" stroke-miterlimit="10" stroke-opacity=".1" stroke-width="2" d="M1920.31 550.98C1669.76 314.77 1332.11 170 960.65 170S251.55 314.77 1 550.98"/><path stroke="#fff" stroke-dasharray="4 4" stroke-miterlimit="10" stroke-opacity=".06" stroke-width="2" d="M104.734 729.26C322.394 507.53 625.474 370 960.654 370c335.186 0 638.266 137.53 855.926 359.26"/><path stroke="#fff" stroke-dasharray="4 4" stroke-miterlimit="10" stroke-opacity=".03" stroke-width="2" d="M419.211 729.26C575.241 628.49 761.121 570 960.651 570c199.539 0 385.419 58.49 541.449 159.26"/><circle cx="181.312" cy="404" r="50" fill="#19353E"/><g clip-path="url(#a)"><path fill="#95BF46" d="M194.118 391.788c-.028-.205-.204-.31-.352-.324-.147-.014-3.222-.239-3.222-.239s-2.138-2.118-2.37-2.357c-.233-.232-.69-.162-.873-.113l-1.196.366c-.71-2.054-1.969-3.939-4.185-3.939q-.096-.002-.19.007c-.633-.83-1.407-1.196-2.083-1.196-5.149.007-7.611 6.458-8.385 9.736-2.005.619-3.426 1.062-3.609 1.119-1.119.351-1.154.387-1.301 1.442-.113.795-3.04 23.433-3.04 23.433L186.126 424l12.361-2.673s-4.341-29.335-4.369-29.539m-9.265-2.273-1.927.598v-.415c0-1.273-.176-2.3-.465-3.116 1.147.14 1.907 1.442 2.392 2.933m-3.806-2.68c.317.795.521 1.935.521 3.475v.225c-1.252.387-2.617.809-3.989 1.231.774-2.961 2.216-4.389 3.468-4.931m-1.533-1.449c.225 0 .45.077.661.225-1.653.781-3.426 2.736-4.172 6.648-1.09.338-2.159.668-3.151.978.879-2.99 2.961-7.851 6.662-7.851"/><path fill="#5E8E3E" d="M193.772 391.464c-.148-.014-3.222-.239-3.222-.239s-2.139-2.118-2.371-2.357a.6.6 0 0 0-.33-.155l-1.724 35.28 12.36-2.666s-4.34-29.336-4.368-29.54a.385.385 0 0 0-.345-.323"/><path fill="#fff" d="m181.929 398.295-1.527 4.53s-1.337-.71-2.976-.71c-2.399 0-2.518 1.505-2.518 1.885 0 2.068 5.396 2.863 5.396 7.717 0 3.813-2.42 6.275-5.685 6.275-3.918 0-5.916-2.434-5.916-2.434l1.048-3.461s2.062 1.766 3.799 1.766c1.133 0 1.597-.894 1.597-1.548 0-2.701-4.425-2.821-4.425-7.26 0-3.735 2.68-7.351 8.09-7.351 2.09-.007 3.117.591 3.117.591"/></g><circle cx="441.312" cy="270" r="50" fill="#19353E"/><path fill="#36C5F0" d="M435.812 248c-2.5 0-4.5 2-4.5 4.5s2 4.5 4.5 4.5h4.5v-4.5c0-2.5-2-4.5-4.5-4.5m0 12h-12c-2.5 0-4.5 2-4.5 4.5s2 4.5 4.5 4.5h12c2.5 0 4.5-2 4.5-4.5s-2-4.5-4.5-4.5"/><path fill="#2EB67D" d="M464.312 264.5c0-2.5-2-4.5-4.5-4.5s-4.5 2-4.5 4.5v4.5h4.5c2.5 0 4.5-2 4.5-4.5m-12 0v-12c0-2.5-2-4.5-4.5-4.5s-4.5 2-4.5 4.5v12c0 2.5 2 4.5 4.5 4.5s4.5-2 4.5-4.5"/><path fill="#ECB22E" d="M447.812 293c2.5 0 4.5-2 4.5-4.5s-2-4.5-4.5-4.5h-4.5v4.5c0 2.45 2 4.5 4.5 4.5m0-12h12c2.5 0 4.5-2 4.5-4.5s-2-4.5-4.5-4.5h-12c-2.5 0-4.5 2-4.5 4.5s2 4.5 4.5 4.5"/><path fill="#E01E5A" d="M419.312 276.5c0 2.5 2 4.5 4.5 4.5s4.5-2 4.5-4.5V272h-4.5c-2.5 0-4.5 2-4.5 4.5m12 0v12c0 2.5 2 4.5 4.5 4.5s4.5-2 4.5-4.5v-12c0-2.5-2-4.5-4.5-4.5s-4.5 2-4.5 4.5"/><circle cx="701.312" cy="193" r="50" fill="#19353E"/><path fill="#FF4A00" d="M707.462 193.5c0 1.6-.3 3.25-.85 4.75-1.5.55-3.15.85-4.75.85-1.65 0-3.25-.3-4.75-.85-.55-1.5-.849-3.15-.849-4.75s.299-3.25.849-4.75c1.5-.55 3.15-.85 4.75-.85s3.25.3 4.75.85c.55 1.5.85 3.1.85 4.75m16.551-3.75h-13.151l9.3-9.3c-.75-1-1.549-2-2.449-2.85-.9-.9-1.851-1.7-2.851-2.45l-9.3 9.3V171.3q-1.875-.3-3.75-.3t-3.75.3v13.15l-9.3-9.3c-1 .75-2 1.55-2.85 2.45-.9.9-1.699 1.85-2.449 2.85l9.299 9.3h-13.149s-.301 2.45-.301 3.75q0 1.875.301 3.75h13.149l-9.299 9.3a22.2 22.2 0 0 0 5.299 5.3l9.3-9.3v13.15q1.875.3 3.75.3t3.75-.3v-13.15l9.3 9.3c1-.75 2.001-1.55 2.851-2.45.9-.9 1.699-1.85 2.449-2.85l-9.3-9.3h13.151q.3-1.8.299-3.75 0-1.95-.299-3.75"/><circle cx="961.312" cy="170" r="50" fill="#19353E"/><path fill="#13B5EA" d="M961.812 193c12.4 0 22.5-10.05 22.5-22.5s-10.1-22.5-22.5-22.5c-12.449 0-22.5 10.05-22.5 22.5 0 12.4 10.051 22.5 22.5 22.5"/><path fill="#fff" d="m950.065 170.45 3.85-3.85c.25-.25.2-.7-.05-.95s-.65-.25-.95 0l-3.85 3.85-3.85-3.85a.695.695 0 0 0-.95 0c-.25.25-.25.7 0 .95l3.85 3.85-3.85 3.85c-.2.15-.25.45-.2.65s.25.45.5.5.5 0 .65-.2l3.85-3.85 3.85 3.85c.2.2.5.25.75.15s.45-.35.45-.65c0-.2-.05-.35-.2-.5zm22.85 0c0 .7.55 1.25 1.25 1.25s1.25-.55 1.25-1.25-.55-1.25-1.25-1.25-1.25.55-1.25 1.25m-2.4 0c0-2 1.6-3.6 3.6-3.6s3.6 1.65 3.6 3.6-1.65 3.6-3.6 3.6-3.6-1.6-3.6-3.6m-1.4 0c0 2.8 2.25 5.05 5.05 5.05s5.05-2.25 5.05-5.05-2.25-5.05-5.05-5.05-5.05 2.25-5.05 5.05m-.35-4.95h-.2c-.65 0-1.25.2-1.75.6-.05-.3-.35-.55-.7-.55-.2 0-.35.05-.5.2s-.2.3-.2.5v8.5c0 .35.3.65.7.65.35 0 .65-.3.7-.65v-5.25c0-1.75.15-2.45 1.65-2.65h.3c.4 0 .7-.3.7-.7-.05-.35-.35-.65-.7-.65m-13.2 4.1v-.05c.4-1.6 1.9-2.75 3.55-2.75 1.7 0 3.15 1.15 3.5 2.8zm8.45-.1c-.3-1.4-1.05-2.55-2.25-3.3-1.75-1.1-3.95-1.05-5.6.15-1.7 1.2-2.45 3.35-2 5.35.5 2 2.2 3.5 4.3 3.75.6.05 1.2.05 1.8-.1.55-.15 1.05-.35 1.5-.65.5-.3.9-.75 1.3-1.2v-.05c.25-.35.2-.85-.1-1.05-.25-.2-.7-.25-1 .15-.05.1-.15.2-.25.3-.25.3-.6.6-1 .8-.5.25-1.1.4-1.7.45-2 0-3.05-1.4-3.45-2.4l-.15-.6v-.1h7.2c1.05-.05 1.55-.75 1.4-1.5"/><circle cx="1480.31" cy="270" r="50" fill="#19353E"/><path fill="#FF7A59" d="M1491.32 262.818v-5.356a4.21 4.21 0 0 0 2.4-3.704v-.1c-.05-2.303-1.9-4.155-4.15-4.155h-.1c-2.3 0-4.15 1.852-4.15 4.105v.1a4.07 4.07 0 0 0 2.4 3.704v5.356c-2.05.3-3.96 1.151-5.56 2.452l-14.71-11.412c.1-.4.15-.751.15-1.151 0-1.902-1.15-3.604-2.86-4.305-1.75-.7-3.75-.35-5.05 1.001-1.35 1.352-1.75 3.354-1 5.056.7 1.752 2.4 2.853 4.3 2.903.8 0 1.6-.2 2.3-.601l14.47 11.262c-2.65 4.005-2.6 9.26.2 13.214l-4.4 4.405c-.36-.1-.76-.15-1.11-.2a3.8 3.8 0 0 0-3.8 3.804 3.8 3.8 0 0 0 3.8 3.804c2.11 0 3.81-1.702 3.81-3.804 0-.35-.05-.751-.2-1.101l4.35-4.355a11.775 11.775 0 0 0 13.42.651c4.15-2.603 6.25-7.508 5.25-12.363-1-4.756-4.9-8.459-9.76-9.21m-1.8 17.669a6.11 6.11 0 0 1-5.36-2.954c-1.1-1.902-1.1-4.254 0-6.106 1.11-1.902 3.16-3.003 5.36-2.953 3.25.05 5.81 2.703 5.81 5.956s-2.56 5.906-5.81 6.057"/><circle cx="1221.31" cy="193" r="50" fill="#19353E"/><g clip-path="url(#b)"><path fill="url(#c)" d="M1221.51 171c-12.26 0-22.2 9.4-22.2 20.993 0 6.503 3.13 12.315 8.04 16.166V216l7.56-3.958c2.08.615 4.3.945 6.6.945 12.26 0 22.2-9.4 22.2-20.994S1233.77 171 1221.51 171"/><path fill="#fff" d="m1206.74 199.125 11.25-6.027 5.83 6.228 12.05-13.259-11.25 6.027-5.82-5.826z"/></g><circle cx="1740.31" cy="404" r="50" fill="#19353E"/><circle cx="1740.81" cy="404.5" r="22.5" fill="url(#d)"/><path fill="#fff" d="m1751.76 394.94-4.02 20.258s-.57 1.408-2.11.733l-9.28-7.106-3.37-1.627-5.67-1.914s-.87-.312-.95-.986c-.09-.675.98-1.037.98-1.037l22.57-8.852c-.01 0 1.85-.818 1.85.531"/><path fill="#D3E6F2" d="M1735.65 414.978s-.27-.025-.61-1.095-2.05-6.686-2.05-6.686l13.63-8.657s.79-.481.76 0c0 0 .15.084-.28.48-.42.396-10.7 9.636-10.7 9.636"/><path fill="#B6D0E5" d="m1739.92 411.548-3.67 3.346s-.28.22-.59.085l.7-6.213"/><defs><linearGradient id="c" x1="1221.51" x2="1221.51" y1="170.799" y2="217.623" gradientUnits="userSpaceOnUse"><stop stop-color="#03C6FF"/><stop offset="1" stop-color="#0370FF"/></linearGradient><linearGradient id="d" x1="1740.81" x2="1740.81" y1="382" y2="427" gradientUnits="userSpaceOnUse"><stop stop-color="#42BDE9"/><stop offset="1" stop-color="#23A8DD"/></linearGradient><clipPath id="a"><path fill="#fff" d="M163.312 384h35.174v40h-35.174z"/></clipPath><clipPath id="b"><path fill="#fff" d="M1199.31 171h44.397v45h-44.397z"/></clipPath></defs></svg>