<svg xmlns="http://www.w3.org/2000/svg" width="49" height="48" fill="none"><g clip-path="url(#a)"><path fill="#105BAB" d="M24.055 48.002c13.256 0 24.001-10.745 24.001-24S37.311 0 24.056 0 .054 10.747.054 24.001c0 13.256 10.745 24.001 24 24.001"/><path fill="#fff" d="M19.049 40.26h-3.397c.041-.338.163-.663.356-.945q.292-.44 1.11-1.045.353-.24.635-.562a.64.64 0 0 0 .146-.364.42.42 0 0 0-.137-.319.525.525 0 0 0-.7 0 .83.83 0 0 0-.184.481l-1.135-.092c.026-.263.11-.518.245-.745.124-.184.298-.327.502-.413a2.3 2.3 0 0 1 .896-.146c.316-.013.63.033.929.136.212.083.395.229.523.418.126.187.192.407.19.632-.002.253-.077.5-.218.712a3 3 0 0 1-.794.744q-.342.236-.457.33a4 4 0 0 0-.27.248h1.767zM19.295 36.188h3.298v.764q-.416.372-.72.842c-.239.381-.425.794-.552 1.226q-.177.608-.216 1.24h-1.129a6.6 6.6 0 0 1 .424-1.672c.235-.52.54-1.007.907-1.444h-2.012zM22.813 38.208q0-1.162.418-1.625.42-.465 1.275-.464c.23-.007.458.027.675.1.16.058.306.148.43.264q.158.151.264.342.1.2.146.418.115.468.114.95 0 1.11-.375 1.624-.374.513-1.292.514a1.8 1.8 0 0 1-.83-.164 1.36 1.36 0 0 1-.52-.48 1.8 1.8 0 0 1-.23-.616 4.3 4.3 0 0 1-.075-.863m1.123 0c0 .518.047.878.137 1.063a.44.44 0 0 0 .4.284c.109 0 .214-.043.292-.12a.75.75 0 0 0 .187-.383q.071-.403.06-.813 0-.811-.146-1.09a.44.44 0 0 0-.413-.28.42.42 0 0 0-.405.284q-.11.288-.112 1.058zM26.354 38.208q0-1.162.42-1.625.417-.465 1.273-.464c.23-.007.458.027.675.1.16.058.306.148.43.264q.157.151.263.342.104.2.154.418.115.468.114.95 0 1.11-.375 1.624-.375.513-1.292.514a1.8 1.8 0 0 1-.83-.164 1.35 1.35 0 0 1-.52-.48 1.8 1.8 0 0 1-.229-.616 4 4 0 0 1-.083-.863m1.123 0c0 .518.046.878.137 1.063a.44.44 0 0 0 .4.284c.109 0 .214-.043.291-.12a.74.74 0 0 0 .188-.383q.07-.403.06-.813 0-.812-.138-1.09a.44.44 0 0 0-.412-.281.42.42 0 0 0-.405.283q-.12.29-.121 1.06zM32.46 36.12v4.141h-1.145v-2.715a3.4 3.4 0 0 1-.534.345q-.316.154-.652.25v-.928c.324-.092.629-.244.898-.448.213-.173.384-.393.5-.643zM12.72 28.388a2 2 0 0 0-.554 0 13.6 13.6 0 0 0 5.212 4.696l.016-.018.02.053a14.2 14.2 0 0 0 4.362 1.358c5.315.706 10.39-1.582 13.332-6.09a3 3 0 0 0-.555 0 13.3 13.3 0 0 1-2.646 2.856l-.173-.016c-.439-.275-.904-.501-1.316-.775a14.5 14.5 0 0 0 1.509-2.082h-.538c-.439.636-.877 1.306-1.455 1.875a19 19 0 0 0-2.234-.791l-.086-.069c.121-.345.345-.671.415-1.015h-.465l-.469.929a22 22 0 0 0-3.187-.413c-.05-.154.022-.378-.05-.516h-.45c-.035.205.05.361-.051.532q-1.574.07-3.119.38l-.466-.912c-.174 0-.364-.035-.486.016l.439 1.015-.051.053q-1.166.337-2.285.808l-.07-.035q-.736-.797-1.334-1.703c-.085-.293-.439-.12-.623-.146.415.756.97 1.428 1.525 2.115q-.69.44-1.421.809a12.5 12.5 0 0 1-2.746-2.914m17.298 2.485c.47.196.918.444 1.333.74-.968.773-2.094 1.291-3.238 1.72l-.813.258a2 2 0 0 1-.38-.275l.032-.052a15.4 15.4 0 0 0 3.066-2.39m-2.683-.946.05-.035c.732.164 1.442.412 2.115.74a11 11 0 0 1-1.924 1.652c-.398.241-.797.499-1.212.705l-.746-.326.053-.12a21 21 0 0 0 1.664-2.61zm-3.41-.516c.973.01 1.943.126 2.89.345l.015.053a17.6 17.6 0 0 1-1.751 2.673c-.293.033-.57-.087-.867-.104l-.293-.034c-.029-1.017-.048-1.91.006-2.933m2.647 4.302-.122.103a13.05 13.05 0 0 1-5.712-.035l.137-.155c1.612-1.045 4.122-1.045 5.697.091zm-5.995-3.992a15 15 0 0 1 2.81-.31l.016 2.908c-.362.087-.761.087-1.108.173a15.3 15.3 0 0 1-1.801-2.702zm-2.788.93a11.4 11.4 0 0 1 2.111-.757l.072.017a27 27 0 0 0 1.754 2.734c-.244.146-.536.225-.78.363a11.7 11.7 0 0 1-3.151-2.306zm-1.819.964a9 9 0 0 1 1.283-.723c.946.921 1.992 1.734 3.117 2.426l-.347.275a12.2 12.2 0 0 1-4.053-1.927zm8.346-15.553c.086-.208.017-.5.054-.705a41 41 0 0 1 2.509-.02c.017 1.43.068 2.668.036 4.08-.832.032-1.715.016-2.485.016-.71-1.119-1.955-1.53-3.167-1.703-.572-.016-1.335-.189-1.664.378a.49.49 0 0 0 .192.464l.317.166L24.3 19.96c1.402.363 2.786 1.688 2.976 3.15a3.55 3.55 0 0 1-1.8 3.614c-1.782.927-4.103.756-5.905 0-.292-.157-.584-.328-.877-.467l-.035.828-2.598.016c-.051-1.377-.034-2.977 0-4.37l2.34-.018c.146.173.226.379.363.552 1.177 1.238 2.943 1.581 4.57 1.134.122-.069.281-.155.281-.308.033-.192-.175-.346-.333-.414-1.556-.534-3.167-.93-4.71-1.481-1.123-.429-2.3-1.341-2.527-2.58-.293-1.308.053-2.787 1.178-3.613 1.731-1.255 4.398-1.17 6.303-.36zm5.89-.122c-1.266.654-2.098 1.946-2.355 3.27-.47 2.192-.348 4.783 1.316 6.418 1.941 1.719 4.763 2.098 7.273 1.393q.396-.083.758-.26l.074-.032a5.13 5.13 0 0 0 2.076-1.584c1.284-1.892 1.37-4.732.585-6.872-.308-.825-.95-1.565-1.728-2.099-2.247-1.433-5.679-1.53-7.994-.23zm5.493 2.72c.265.394.247.912.301 1.375-.019.981.068 2.15-.108 3.148a1.35 1.35 0 0 1-.807 1 2.78 2.78 0 0 1-2.306-.139c-.546-.378-.614-1.013-.685-1.617-.054-1.189-.146-2.443.193-3.53.264-.669.986-.841 1.637-.892.69.003 1.358.108 1.78.659zM24.734 7.716l-.018.035-.032-.035a8 8 0 0 0-1.542-.017 4 4 0 0 0-.64.017 13.55 13.55 0 0 0-10.372 6.14c.174-.017.38.05.554-.017q.642-.901 1.402-1.705a9.3 9.3 0 0 1 1.35-1.152c.453.293.954.534 1.385.809-.536.671-1.089 1.342-1.488 2.066.17.042.348.042.519 0 .432-.656.921-1.273 1.462-1.842.746.274 1.472.567 2.234.773l.069.069-.439 1q.252.037.503 0c.156-.293.276-.622.449-.913 1.03.225 2.08.353 3.135.385.138.118.036.379.087.534h.467c.052-.174-.015-.363.052-.518a16.3 16.3 0 0 0 3.03-.395l.086.016.466.897c.158 0 .366.033.487-.037l-.439-.996.035-.036a18 18 0 0 0 2.303-.825q.818.894 1.492 1.9c.172.017.347.005.516-.036a6.8 6.8 0 0 0-.743-1.083q-.345-.495-.763-.928v-.087l1.212-.704.175-.07a12.7 12.7 0 0 1 2.733 2.872c.207 0 .383.07.555-.016a13.68 13.68 0 0 0-10.28-6.096zm-7.512 3.668a5.7 5.7 0 0 1-1.316-.722v-.033a12.4 12.4 0 0 1 3.585-1.825l.155-.1v.031c.137.035.243-.12.364-.016l.31.24a17.7 17.7 0 0 0-3.098 2.425m2.65.948-.07.017a14 14 0 0 1-2.061-.706l.035-.104a13.7 13.7 0 0 1 3.07-2.253c.26.103.52.19.78.31l-.052.138c-.665.824-1.182 1.72-1.703 2.598m3.452.463c-.485.069-.916-.016-1.402-.05-.469-.07-1.057-.12-1.523-.276a15.3 15.3 0 0 1 1.8-2.702l1.11.157c.043.893.015 1.925.015 2.871M20.935 8.72l-.277-.225c1.836-.43 4-.463 5.817 0v.035c-1.513 1.102-3.955 1.205-5.547.19zm2.925 4.094c-.036-.91-.018-1.926 0-2.872.348-.052.73-.103 1.071-.155.679.86 1.335 1.739 1.787 2.685-.938.226-1.9.34-2.864.34zm5.525-1.202a11 11 0 0 1-2.116.722 28 28 0 0 0-1.782-2.7c.244-.139.538-.243.797-.379a12.2 12.2 0 0 1 3.133 2.306zm1.817-.947-1.193.672h-.09a14.9 14.9 0 0 0-3.086-2.376l.332-.292a12.3 12.3 0 0 1 4.068 1.927zM9.435 23.98v-5.848c-.572-.051-1.126-.032-1.715-.051a80 80 0 0 1 0-2.907l1.073-.019 6.53.02c.05.894.035 1.943.016 2.924l-1.714.016-.035.052-.017 6.038c.554.07 1.194.017 1.766.052v2.839h-7.64a38 38 0 0 1 0-2.84l1.713-.034z"/></g><defs><clipPath id="a"><path fill="#fff" d="M0 0h49v48H0z"/></clipPath></defs></svg>