<svg xmlns="http://www.w3.org/2000/svg" width="47" height="60" fill="none"><path fill="#032368" d="M37.54 25.59a.315.315 0 0 1-.32-.31l.03-9.62c0-.11.06-.22.16-.27.05-.03.1-.04.16-.04.05 0 .11.01.16.04l8.29 4.78c.1.06.16.16.16.27s-.06.22-.16.27l-8.31 4.83c-.06.03-.12.05-.17.05m.32-.87 7.37-4.28-7.34-4.24zM23.04 10.34c-.06 0-.11-.01-.16-.04l-8.32-4.8a.32.32 0 0 1-.16-.27c0-.11.06-.22.16-.27L23 .04c.04-.02.1-.04.15-.04.06 0 .11.01.16.04l8.32 4.8c.1.06.16.16.16.27s-.06.22-.16.27l-8.43 4.9c-.05.04-.1.06-.16.06m-7.69-5.12 7.69 4.44 7.81-4.54L23.16.68zM31.45 14.71a.315.315 0 0 1-.32-.31l.02-7.09c0-.11.06-.22.16-.27.05-.03.1-.04.16-.04s.11.01.16.04l6.11 3.53c.1.06.16.16.16.27s-.06.22-.16.27l-6.13 3.56c-.05.03-.1.04-.16.04m.32-.86 5.19-3.01-5.17-2.98zM14.69 14.82c-.06 0-.11-.01-.16-.04l-6.06-3.5a.32.32 0 0 1-.16-.27c0-.11.06-.22.16-.27l6.08-3.53c.05-.03.1-.04.16-.04s.11.01.16.04c.1.06.16.16.16.27l-.02 7.03c0 .11-.06.22-.16.27-.04.02-.1.04-.16.04M9.26 11l5.12 2.95.02-5.94zM8.59 25.76c-.06 0-.11-.01-.16-.04l-8.2-4.74a.32.32 0 0 1-.16-.27c0-.11.06-.22.16-.27l8.23-4.78c.05-.03.1-.04.16-.04s.11.01.16.04c.1.06.16.16.16.28l-.03 9.52c0 .11-.06.22-.16.27-.04.01-.1.03-.16.03m-7.57-5.05 7.26 4.19.03-8.43zM7.4 43.73l8.36-6.24v-.73l-9.13 6.67z"/><path fill="#032368" d="M22.89 60a.5.5 0 0 1-.16-.04.32.32 0 0 1-.15-.27l.12-40.38v-.05l.03-9.23c0-.11.06-.22.16-.27l8.43-4.9c.05-.03.1-.04.16-.04s.11.01.16.04c.1.06.16.16.16.28l-.03 8.73 5.66-3.29c.05-.03.1-.04.16-.04.05 0 .11.01.15.04.1.06.16.16.16.27l-.04 13.89 7.84-4.56c.05-.03.1-.04.16-.04a.315.315 0 0 1 .32.31l-.08 25.94c0 .11-.06.22-.15.27l-22.89 13.3c-.06.03-.11.04-.17.04m.47-49.8-.03 9.1v.08l-.04 14.36v.04l-.07 25.35L45.46 46.2l.07-25.21-7.84 4.56c-.05.03-.1.04-.16.04s-.11-.01-.16-.04a.32.32 0 0 1-.16-.27l.04-13.89-5.66 3.29c-.05.03-.1.04-.16.04s-.11-.01-.16-.04a.32.32 0 0 1-.16-.27l.03-8.73z"/><path fill="#032368" d="M22.89 60a.5.5 0 0 1-.16-.04L.16 46.92a.3.3 0 0 1-.16-.27l.07-25.94c0-.11.06-.22.16-.27.05-.03.1-.04.16-.04s.11.01.16.04l7.73 4.47L8.32 11c0-.11.06-.22.16-.27.05-.03.1-.04.16-.04s.11.01.16.04l5.59 3.23.03-8.74c0-.11.06-.22.16-.27.05-.03.1-.04.16-.04s.11.01.16.04l8.32 4.8c.1.06.16.16.16.27l-.03 9.56v.06l-.05 16.18v.04l-.07 23.82c0 .11-.06.22-.16.27-.07.04-.12.05-.18.05M.63 46.47l21.95 12.67.07-23.32v-.04l.05-16.2v-.06l.03-9.32-7.69-4.44-.03 8.74c0 .11-.06.22-.16.27-.05.03-.1.04-.16.04s-.11-.01-.16-.04l-5.59-3.23-.04 13.9c0 .11-.06.22-.16.27a.26.26 0 0 1-.15.04c-.06 0-.11-.01-.16-.04L.7 21.25z"/><path fill="#032368" d="M15.76 48.97a.5.5 0 0 1-.16-.04l-8.93-5.31a.32.32 0 0 1-.16-.27l.05-11.34c0-.11.06-.22.16-.27.05-.03.1-.04.16-.04s.11.01.16.04l8.91 4.75c.1.06.16.16.16.27l-.02 11.9c0 .11-.06.22-.16.27-.05.03-.11.04-.17.04m-8.61-5.8 8.31 4.94.02-11.17-8.28-4.39zM23.23 57.33l22.24-22.24v1.22L23.23 58.55zm22.24-18.15v1.22L31.64 54.21l-2.9 1.69zM23.24 53.25 45.49 31v1.22L23.24 54.47zm.02-4.09L45.5 26.92v1.22L23.25 50.38zm22.19-5.9v1.22l-4.08 4.08-2.9 1.69zm-22.18 1.82 22.25-22.24v1.22L23.26 46.29zm.01-4.09L40.1 24.17l2.9-1.69-19.72 19.73zm.01-4.09 13.92-13.92v1.22L23.29 38.12zm.02-4.08L37.22 18.9v1.22L23.3 34.04zm.01-4.09 13.92-13.92v1.22L23.31 29.95zm.01-4.09L35.6 12.37l1.65-.96v.53L23.32 25.86zm.01-4.08 7.78-7.78V14l-7.78 7.78zm.02-4.09 7.77-7.78v1.22l-7.78 7.77zm.01-4.09 5.16-5.16 2.61-1.52v.12l-7.78 7.77z"/><path fill="#032368" d="m12.37 46.65 3.24-3.24.01-1.23-4 4zm2.51 1.56.68-.68.01-1.23-1.45 1.45zM9.1 44.62l.75.47 5.79-5.79.01-1.23zm-1.76-1.09.69-.69-.83.61z"/></svg>