<svg xmlns="http://www.w3.org/2000/svg" width="53" height="60" fill="none"><path fill="#032368" d="M25.965 60a.391.391 0 0 1-.387-.39l.084-29.389a.39.39 0 0 1 .194-.336L51.782 14.82a.39.39 0 0 1 .389-.002c.123.069.197.199.197.338l-.084 29.387a.39.39 0 0 1-.194.336L26.16 59.947a.4.4 0 0 1-.195.053m.47-29.554-.08 28.49 25.149-14.613.08-28.49z"/><path fill="#032368" d="M26.049 30.61a.4.4 0 0 1-.192-.05L.279 15.793a.39.39 0 0 1-.195-.336c0-.137.074-.266.192-.336L26.202.053a.39.39 0 0 1 .389-.002L52.169 14.82a.388.388 0 0 1 .002.67L26.244 30.557a.4.4 0 0 1-.195.053M1.245 15.455l24.802 14.32L51.2 15.157 26.4.838zM18.974 33.97h-.591L7.775 40.134v.711h.52l-.1-.058 10.779-6.263z"/><path fill="#032368" d="M25.965 60a.4.4 0 0 1-.192-.051L.195 45.18A.39.39 0 0 1 0 44.844l.083-29.39a.39.39 0 0 1 .582-.338l25.578 14.767c.12.07.195.2.192.336l-.083 29.392a.39.39 0 0 1-.195.336.36.36 0 0 1-.192.053M.776 44.622l24.802 14.32.081-28.496L.857 16.126z"/><path fill="#032368" d="M19.173 48.028a.2.2 0 0 1-.09-.023l-11.95-6.898a.18.18 0 0 1-.09-.158l.04-13.728c0-.065.034-.125.09-.158a.2.2 0 0 1 .09-.023q.05.002.09.023l11.95 6.898c.055.032.09.093.09.158l-.04 13.73a.18.18 0 0 1-.09.158.2.2 0 0 1-.09.02m-11.32-7.44 10.692 6.172.035-12.282-10.691-6.173zM52.356 15.107l-1.636.95L26.106 40.63l-.003 1.267 26.26-26.217.002-.522zM26.055 58.9l26.259-26.222.004-1.267L26.06 57.632zm18.874-10.394 7.362-7.333.004-1.265-10.382 10.352zm-10.12 5.878 17.493-17.456.005-1.268-20.515 20.479zm-2.913-28.008-5.762 5.753-.008 1.27 8.8-8.784zm-5.818 24.023 26.259-26.222.005-1.267-26.26 26.222zm.011-4.25 26.26-26.221.004-1.268-26.259 26.22zm15.972-25.682L26.117 36.379l-.002 1.27 18.979-18.942zM26.066 54.65l26.26-26.222.004-1.27-26.26 26.225z"/><path fill="#032368" d="m12.158 43.484.795.47 5.971-5.964.017-1.281zm3.464 2.046 3.249-3.244.016-1.281-4.06 4.055zm2.665 1.576.526-.524.016-1.281-1.337 1.334zm-3.348-10.638-5.447 5.438.797.47 7.454-7.442zm-7.317 4.335.73-.727-1.02.558z"/></svg>