<svg xmlns="http://www.w3.org/2000/svg" width="60" height="60" fill="none"><path fill="#fff" d="M.27 18.26c-.11 0-.21-.07-.25-.17-.05-.13 0-.27.11-.34L22.52 4.74c.02-.01.04-.02.07-.03L40.9.01c.02-.01.04-.01.07-.01a.272.272 0 0 1 .13.51l-22.38 13c-.02.01-.05.02-.07.03L.34 18.25c-.02 0-.04.01-.07.01M22.76 5.23 4.38 15.91l.27.67 13.83-3.55L36.86 2.34l-.27-.67zM29.76 60c-.06 0-.13-.02-.17-.06a.26.26 0 0 1-.08-.3l7.05-20.65c.02-.06.06-.12.12-.15l22.38-13c.04-.02.09-.04.14-.04.06 0 .12.02.17.06.09.07.12.19.08.3L52.4 46.81a.3.3 0 0 1-.12.15l-22.38 13a.23.23 0 0 1-.14.04m7.27-20.74-6.78 19.87 21.66-12.59 6.78-19.87z"/><path fill="#fff" d="M36.81 39.35c-.09 0-.17-.04-.22-.11l-18.22-25.8c-.04-.06-.06-.14-.04-.21s.06-.14.13-.18l22.38-13c.03-.04.08-.05.13-.05.09 0 .17.04.22.12l18.22 25.8c.05.06.06.14.04.22s-.06.14-.13.18L36.95 39.31a.25.25 0 0 1-.14.04M18.98 13.36l17.91 25.35L58.8 25.98 40.89.63zM12.87 41.54h.67l-.12-.17 11.62-6.75c-.12-.14-.21-.3-.28-.47l-11.86 6.7c-.07.04-.13.3-.15.38-.02.07 0 .15.04.21z"/><path fill="#fff" d="M35.98 37.28 53.96 19.3l.45.64-17.98 17.97zm19.63-15.65.45.63-12.42 12.43-2.59 1.51zM34.33 34.94l17.98-17.98.45.64-17.98 17.98zm-1.65-2.33 17.98-17.98.45.64-17.98 17.97zm-1.65-2.34 17.98-17.98.45.64-17.98 17.98zm26.23-6.3.45.64-4.56 4.56-2.59 1.5zm-27.88 3.97L47.36 9.96l.45.64-17.98 17.97zm-1.65-2.34L45.71 7.62l.45.64-17.98 17.98zm-1.65-2.34L44.06 5.29l.45.64L26.53 23.9zm-1.64-2.33L42.41 2.95l.45.64-17.97 17.98zm-1.65-2.33L40.31 1.07l.56-.32.35.5-17.98 17.98zm-1.65-2.34L30.8 6.6l2.59-1.51-11.8 11.8zm-1.65-2.34 1.79-1.79 2.6-1.51-3.94 3.94zM29.76 60c-.05 0-.09-.01-.13-.04L7.04 46.93a.32.32 0 0 1-.13-.17L.01 18.05c-.03-.15.05-.29.2-.33l18.31-4.71c.02-.01.04-.01.07-.01.09 0 .17.04.22.11l18.22 25.8c.05.07.06.16.03.24L30.01 59.8c-.03.08-.09.14-.16.17-.02.02-.06.03-.09.03M.6 18.18l6.82 28.33 22.19 12.81 6.9-20.21-18.04-25.52z"/><path fill="#fff" d="m27.64 37.57-8.82-12.48a.29.29 0 0 0-.33-.12l-8.86 2.28c-.17.04-.27.21-.23.38l3.34 13.89c.02.08.07.16.15.2l10.93 6.31c.05.03.1.04.16.04.04 0 .07-.01.11-.02a.3.3 0 0 0 .19-.19l3.41-9.99a.42.42 0 0 0-.05-.3m-14.32 3.66-3.24-13.46 8.35-2.15 8.6 12.18-3.24 9.48z"/><path fill="#fff" d="m20.439 36.71-5.77 5.77.71.37 7.54-7.54zm5.3-1.32-8.47 8.47.71.37 8.18-8.18zm-12.78 5.9.87-.87-.72.4zm10.26 5.68 1.65-1.65.51-1.59-2.87 2.87zm-3.33-1.75.71.37 6.13-6.13.51-1.59z"/></svg>