<svg xmlns="http://www.w3.org/2000/svg" width="320" height="86" fill="none"><g filter="url(#a)"><rect width="100" height="86" fill="#fff" fill-opacity=".15" rx="30"/></g><g fill-rule="evenodd" clip-path="url(#b)" clip-rule="evenodd"><path fill="url(#c)" d="M37.249 42.771c-2.565 5.106-5.128 10.213-6.451 12.854-1.325 2.64-1.41 2.816-1.469 3.001a2.538 2.538 0 0 0 .012 1.459c.1.32.28.683.52 1.014.243.33.548.628.893.89.345.264.725.495 1.078.66.35.166.672.264.999.315s.661.05.956-.014c.295-.063.55-.19.761-.328q.318-.208.514-.43c.132-.15.228-.3.55-.922.323-.621.875-1.715 2.452-4.898s4.179-8.452 5.584-11.321 1.612-3.336 1.8-3.787c.188-.45.358-.884.537-1.385.18-.502.367-1.068.554-1.638.19-.239.359-.476.516-.71.39-.579.694-1.121.917-1.777s.37-1.425.45-2.168c.08-.745.094-1.467.07-2.17-.024-.706-.085-1.393-.28-2.037-.196-.643-.527-1.241-.924-1.803a8.97 8.97 0 0 0-3.38-2.882c-.787-.389-1.725-.723-2.813-.992a25 25 0 0 0-3.516-.584 25 25 0 0 0-3.24-.104c-.927.034-1.648.122-2.35.241-.703.118-1.386.263-2.01.473s-1.19.482-1.728.809a13 13 0 0 0-1.32.932c-.274.226-.32.3-.342.395s-.022.215-.022.333c-.038-.231-.068-.28-.442-.311a9.2 9.2 0 0 0-1.913.05c-.722.103-1.372.329-1.951.697-.58.367-1.09.877-1.443 1.489-.353.614-.552 1.329-.666 2.234-.111.906-.14 2-.15 2.981s0 1.847.162 2.603c.16.753.47 1.395.895 1.909.424.514.962.9 1.494 1.142.533.24 1.06.334 1.565.4s.984.104 1.301.114.466-.01.562-.086c.066-.054.106-.135.152-.472 0 .137-.002.273.006.39.008.118.024.218.047.291.024.074.054.124.21.313.157.19.438.52.873.883.434.363 1.018.76 1.76 1.088.739.329 1.635.594 2.672.773s2.216.273 3.54.235a21 21 0 0 0 2.008-.149"/><path fill="url(#d)" d="M37.249 42.771c-2.565 5.106-5.128 10.213-6.451 12.854-1.325 2.64-1.41 2.816-1.469 3.001a2.538 2.538 0 0 0 .012 1.459c.1.32.28.683.52 1.014.243.33.548.628.893.89.345.264.725.495 1.078.66.35.166.672.264.999.315s.661.05.956-.014c.295-.063.55-.19.761-.328q.318-.208.514-.43c.132-.15.228-.3.55-.922.323-.621.875-1.715 2.452-4.898s4.179-8.452 5.584-11.321 1.612-3.336 1.8-3.787c.188-.45.358-.884.537-1.385.18-.502.367-1.068.554-1.638.19-.239.359-.476.516-.71.39-.579.694-1.121.917-1.777s.37-1.425.45-2.168c.08-.745.094-1.467.07-2.17-.024-.706-.085-1.393-.28-2.037-.196-.643-.527-1.241-.924-1.803a8.97 8.97 0 0 0-3.38-2.882c-.787-.389-1.725-.723-2.813-.992a25 25 0 0 0-3.516-.584 25 25 0 0 0-3.24-.104c-.927.034-1.648.122-2.35.241-.703.118-1.386.263-2.01.473s-1.19.482-1.728.809a13 13 0 0 0-1.32.932c-.274.226-.32.3-.342.395s-.022.215-.022.333c-.038-.231-.068-.28-.442-.311a9.2 9.2 0 0 0-1.913.05c-.722.103-1.372.329-1.951.697-.58.367-1.09.877-1.443 1.489-.353.614-.552 1.329-.666 2.234-.111.906-.14 2-.15 2.981s0 1.847.162 2.603c.16.753.47 1.395.895 1.909.424.514.962.9 1.494 1.142.533.24 1.06.334 1.565.4s.984.104 1.301.114.466-.01.562-.086c.066-.054.106-.135.152-.472 0 .137-.002.273.006.39.008.118.024.218.047.291.024.074.054.124.21.313.157.19.438.52.873.883.434.363 1.018.76 1.76 1.088.739.329 1.635.594 2.672.773s2.216.273 3.54.235a21 21 0 0 0 2.008-.149"/><path fill="url(#e)" d="M26.198 38.385c.086-.825.218-2.344.321-4.271s.18-4.267.18-5.684-.078-1.91-.12-2.184l-.008-.048c-.038-.23-.068-.279-.442-.31a9.2 9.2 0 0 0-1.914.05c-.72.103-1.37.328-1.95.697-.58.366-1.09.877-1.443 1.488-.353.614-.552 1.33-.666 2.234-.115.903-.143 1.997-.153 2.978-.01.98 0 1.847.161 2.602.16.754.47 1.395.895 1.91.424.514.962.9 1.494 1.141.533.241 1.06.335 1.565.4.504.067.984.105 1.301.114s.466-.01.562-.085c.066-.054.106-.136.152-.473.02-.137.04-.318.065-.56"/><path fill="url(#f)" d="M38.064 56.373c1.576-3.183 4.179-8.452 5.584-11.321s1.612-3.336 1.8-3.787c.188-.45.358-.885.537-1.385.18-.502.367-1.068.554-1.638-.285.36-.611.73-.998 1.09-.642.602-1.443 1.186-2.475 1.718a16.4 16.4 0 0 1-3.663 1.34c-.703.167-1.433.292-2.156.382-2.565 5.105-5.128 10.213-6.451 12.854-1.325 2.64-1.409 2.816-1.469 3a2.536 2.536 0 0 0 .012 1.459c.1.321.28.684.52 1.015.243.33.548.628.893.89.345.264.726.495 1.078.66.351.166.672.263.999.315.327.05.661.05.956-.014.295-.063.55-.191.761-.329a2.6 2.6 0 0 0 .515-.43c.131-.15.227-.299.55-.92.324-.622.877-1.716 2.453-4.9"/><path fill="url(#g)" d="M26.198 38.385c.086-.825.218-2.344.321-4.271s.18-4.267.18-5.684-.078-1.91-.12-2.184l-.008-.048c-.038-.23-.068-.279-.442-.31a9.2 9.2 0 0 0-1.914.05c-.72.103-1.37.328-1.95.697-.58.366-1.09.877-1.443 1.488-.353.614-.552 1.33-.666 2.234-.115.903-.143 1.997-.153 2.978-.01.98 0 1.847.161 2.602.16.754.47 1.395.895 1.91.424.514.962.9 1.494 1.141.533.241 1.06.335 1.565.4.504.067.984.105 1.301.114s.466-.01.562-.085c.066-.054.106-.136.152-.473.02-.137.04-.318.065-.56"/><path fill="url(#h)" d="M38.064 56.373c1.576-3.183 4.179-8.452 5.584-11.321s1.612-3.336 1.8-3.787c.188-.45.358-.885.537-1.385.18-.502.367-1.068.554-1.638-.285.36-.611.73-.998 1.09-.642.602-1.443 1.186-2.475 1.718a16.4 16.4 0 0 1-3.663 1.34c-.703.167-1.433.292-2.156.382-2.565 5.105-5.128 10.213-6.451 12.854-1.325 2.64-1.409 2.816-1.469 3a2.536 2.536 0 0 0 .012 1.459c.1.321.28.684.52 1.015.243.33.548.628.893.89.345.264.726.495 1.078.66.351.166.672.263.999.315.327.05.661.05.956-.014.295-.063.55-.191.761-.329a2.6 2.6 0 0 0 .515-.43c.131-.15.227-.299.55-.92.324-.622.877-1.716 2.453-4.9"/><path fill="url(#i)" d="M34.34 61.898a9.6 9.6 0 0 1-1.334-.57 14 14 0 0 1-1.493-.89c-.476-.326-.9-.67-1.25-.996-.348-.324-.62-.63-.892-.934a2.245 2.245 0 0 0-.143.743c-.006.237.011.516.111.837s.28.684.52 1.014c.243.331.548.628.893.891s.726.494 1.078.66c.351.165.672.263.999.315.326.05.661.05.956-.014s.55-.191.761-.329q.318-.208.515-.43l.065-.08a9 9 0 0 1-.787-.217"/><path fill="#3A3A3A" d="M39.002 34.285q-1.14.06-2.049.074c-.606.01-1.134.004-1.504.016s-.582.04-.79.13c-.207.09-.41.24-.573.432a1.7 1.7 0 0 0-.353.681 1.9 1.9 0 0 0-.028.825c.054.28.177.547.355.766.177.219.406.388.69.478.282.09.617.1 1.298.08a65 65 0 0 0 2.782-.144 77 77 0 0 0 3.008-.279c.817-.091 1.337-.167 1.75-.279.412-.11.719-.257.956-.448s.408-.427.526-.682c.117-.255.183-.528.191-.803a1.6 1.6 0 0 0-.161-.773 1.25 1.25 0 0 0-.486-.49 1.24 1.24 0 0 0-.638-.174c-.245-.002-.532.054-.965.138-.432.082-1.006.191-1.712.273-.705.084-1.54.14-2.297.18"/><path fill="#000" d="M38.311 34.32c-.143.005-.289.019-.446.06a2.2 2.2 0 0 0-.612.282 1.6 1.6 0 0 0-.54.524c-.138.23-.211.52-.231.811-.02.289.02.578.097.815q.119.356.347.568.226.214.55.275c.217.04.466.026.715.012q.317-.02.642-.044a77 77 0 0 0 3.007-.279c.817-.091 1.337-.167 1.75-.279.413-.11.72-.257.957-.448s.408-.427.526-.682c.117-.255.183-.528.191-.803a1.6 1.6 0 0 0-.161-.773 1.25 1.25 0 0 0-.487-.49 1.24 1.24 0 0 0-.637-.174c-.245-.002-.532.054-.965.138-.432.082-1.006.191-1.712.273-.705.082-1.54.14-2.297.18q-.359.019-.694.033"/><path fill="url(#j)" d="M63.31 42.771c2.566 5.106 5.128 10.213 6.453 12.854s1.41 2.816 1.47 3.001c.059.187.09.385.099.622.006.237-.012.516-.112.837s-.279.683-.52 1.014c-.243.33-.548.628-.893.89a6 6 0 0 1-1.078.66 3.6 3.6 0 0 1-1 .315c-.327.05-.662.05-.957-.014a2.3 2.3 0 0 1-.76-.328 2.6 2.6 0 0 1-.515-.43c-.132-.15-.227-.3-.55-.922-.323-.621-.875-1.715-2.451-4.898a3488 3488 0 0 1-5.584-11.321c-1.405-2.868-1.612-3.336-1.802-3.787-.187-.45-.358-.884-.536-1.385-.18-.502-.366-1.068-.556-1.638-.19-.239-.358-.476-.516-.71-.39-.579-.693-1.121-.917-1.777-.223-.655-.37-1.425-.45-2.168a15 15 0 0 1-.07-2.17c.024-.706.086-1.393.281-2.037s.526-1.241.92-1.803a8.965 8.965 0 0 1 3.38-2.882c.788-.389 1.727-.723 2.815-.992a25 25 0 0 1 3.515-.584 25 25 0 0 1 3.242-.104 17 17 0 0 1 2.35.241c.701.118 1.385.265 2.01.475a8.5 8.5 0 0 1 1.728.809c.537.326 1.043.705 1.32.932.275.226.32.3.342.395s.022.215.022.333c.038-.232.068-.28.443-.311a9.2 9.2 0 0 1 1.913.05c.721.103 1.37.329 1.95.697s1.09.877 1.444 1.489c.352.612.552 1.329.663 2.234.114.904.142 1.998.152 2.979.01.98 0 1.847-.16 2.603-.161.753-.47 1.395-.894 1.909s-.963.9-1.495 1.142c-.532.24-1.06.334-1.564.4-.505.066-.985.104-1.302.114s-.466-.01-.562-.086c-.066-.054-.105-.135-.151-.472 0 .137.002.273-.006.39a1.3 1.3 0 0 1-.048.291c-.024.074-.054.124-.211.313-.156.19-.439.52-.873.883a7.5 7.5 0 0 1-1.758 1.088c-.74.329-1.636.594-2.672.773-1.038.18-2.216.273-3.541.235a21 21 0 0 1-2.007-.149"/><path fill="url(#k)" d="M63.31 42.771c2.566 5.106 5.128 10.213 6.453 12.854s1.41 2.816 1.47 3.001c.059.187.09.385.099.622.006.237-.012.516-.112.837s-.279.683-.52 1.014c-.243.33-.548.628-.893.89a6 6 0 0 1-1.078.66 3.6 3.6 0 0 1-1 .315c-.327.05-.662.05-.957-.014a2.3 2.3 0 0 1-.76-.328 2.6 2.6 0 0 1-.515-.43c-.132-.15-.227-.3-.55-.922-.323-.621-.875-1.715-2.451-4.898a3488 3488 0 0 1-5.584-11.321c-1.405-2.868-1.612-3.336-1.802-3.787-.187-.45-.358-.884-.536-1.385-.18-.502-.366-1.068-.556-1.638-.19-.239-.358-.476-.516-.71-.39-.579-.693-1.121-.917-1.777-.223-.655-.37-1.425-.45-2.168a15 15 0 0 1-.07-2.17c.024-.706.086-1.393.281-2.037s.526-1.241.92-1.803a8.965 8.965 0 0 1 3.38-2.882c.788-.389 1.727-.723 2.815-.992a25 25 0 0 1 3.515-.584 25 25 0 0 1 3.242-.104 17 17 0 0 1 2.35.241c.701.118 1.385.265 2.01.475a8.5 8.5 0 0 1 1.728.809c.537.326 1.043.705 1.32.932.275.226.32.3.342.395s.022.215.022.333c.038-.232.068-.28.443-.311a9.2 9.2 0 0 1 1.913.05c.721.103 1.37.329 1.95.697s1.09.877 1.444 1.489c.352.612.552 1.329.663 2.234.114.904.142 1.998.152 2.979.01.98 0 1.847-.16 2.603-.161.753-.47 1.395-.894 1.909s-.963.9-1.495 1.142c-.532.24-1.06.334-1.564.4-.505.066-.985.104-1.302.114s-.466-.01-.562-.086c-.066-.054-.105-.135-.151-.472 0 .137.002.273-.006.39a1.3 1.3 0 0 1-.048.291c-.024.074-.054.124-.211.313-.156.19-.439.52-.873.883a7.5 7.5 0 0 1-1.758 1.088c-.74.329-1.636.594-2.672.773-1.038.18-2.216.273-3.541.235a21 21 0 0 1-2.007-.149"/><path fill="url(#l)" d="M74.358 38.385a91 91 0 0 1-.321-4.271c-.104-1.927-.18-4.267-.178-5.684 0-1.417.078-1.91.12-2.184l.008-.048c.038-.23.068-.279.442-.31a9.2 9.2 0 0 1 1.913.05c.722.103 1.371.328 1.951.697.58.366 1.09.877 1.443 1.488.353.612.552 1.33.664 2.234.113.905.141 2 .151 2.98s0 1.847-.16 2.602-.47 1.395-.894 1.91-.962.9-1.495 1.141c-.532.241-1.06.335-1.564.4-.504.067-.984.105-1.301.114s-.466-.01-.562-.085c-.066-.054-.106-.136-.152-.472-.02-.14-.04-.321-.065-.562"/><path fill="url(#m)" d="M62.493 56.373a3468 3468 0 0 1-5.584-11.321c-1.405-2.868-1.612-3.336-1.801-3.787-.188-.45-.359-.885-.536-1.385-.18-.502-.367-1.068-.556-1.638.285.36.611.73.998 1.09.642.602 1.443 1.186 2.475 1.718a16.4 16.4 0 0 0 3.663 1.34c.703.167 1.433.292 2.156.382 2.565 5.105 5.128 10.213 6.453 12.854s1.409 2.816 1.469 3a2.538 2.538 0 0 1-.012 1.459c-.1.321-.28.684-.52 1.015-.244.33-.548.628-.893.89a6 6 0 0 1-1.078.66c-.351.166-.672.263-1 .315-.328.05-.662.05-.957-.014a2.3 2.3 0 0 1-.762-.329 2.6 2.6 0 0 1-.514-.43c-.131-.15-.227-.299-.55-.92-.323-.622-.875-1.716-2.45-4.9"/><path fill="url(#n)" d="M74.358 38.385a91 91 0 0 1-.321-4.271c-.104-1.927-.18-4.267-.178-5.684 0-1.417.078-1.91.12-2.184l.008-.048c.038-.23.068-.279.442-.31a9.2 9.2 0 0 1 1.913.05c.722.103 1.371.328 1.951.697.58.366 1.09.877 1.443 1.488.353.612.552 1.33.664 2.234.113.905.141 2 .151 2.98s0 1.847-.16 2.602-.47 1.395-.894 1.91-.962.9-1.495 1.141c-.532.241-1.06.335-1.564.4-.504.067-.984.105-1.301.114s-.466-.01-.562-.085c-.066-.054-.106-.136-.152-.472-.02-.14-.04-.321-.065-.562"/><path fill="url(#o)" d="M62.493 56.373a3468 3468 0 0 1-5.584-11.321c-1.405-2.868-1.612-3.336-1.801-3.787-.188-.45-.359-.885-.536-1.385-.18-.502-.367-1.068-.556-1.638.285.36.611.73.998 1.09.642.602 1.443 1.186 2.475 1.718a16.4 16.4 0 0 0 3.663 1.34c.703.167 1.433.292 2.156.382 2.565 5.105 5.128 10.213 6.453 12.854s1.409 2.816 1.469 3a2.538 2.538 0 0 1-.012 1.459c-.1.321-.28.684-.52 1.015-.244.33-.548.628-.893.89a6 6 0 0 1-1.078.66c-.351.166-.672.263-1 .315-.328.05-.662.05-.957-.014a2.3 2.3 0 0 1-.762-.329 2.6 2.6 0 0 1-.514-.43c-.131-.15-.227-.299-.55-.92-.323-.622-.875-1.716-2.45-4.9"/><path fill="url(#p)" d="M66.219 61.898a9.5 9.5 0 0 0 1.333-.57c.488-.25 1.016-.562 1.493-.89.476-.326.9-.67 1.25-.996.348-.324.62-.63.892-.934a2.24 2.24 0 0 1 .143.743c.006.237-.011.516-.111.837s-.28.684-.52 1.014c-.243.331-.548.628-.893.891a6 6 0 0 1-1.078.66 3.6 3.6 0 0 1-1 .315c-.327.05-.662.05-.957-.014a2.3 2.3 0 0 1-.761-.329 2.6 2.6 0 0 1-.514-.43l-.066-.08c.25-.06.508-.124.789-.217"/><path fill="#3A3A3A" d="M61.557 34.285q1.14.06 2.049.074c.606.01 1.134.004 1.504.016s.582.04.79.13c.207.09.41.24.573.432.164.191.285.422.353.681s.082.546.028.825a1.75 1.75 0 0 1-.355.766 1.44 1.44 0 0 1-.69.478c-.282.09-.617.1-1.299.08a65 65 0 0 1-2.782-.144 77 77 0 0 1-3.007-.279c-.817-.091-1.337-.167-1.75-.279-.412-.11-.719-.257-.956-.448a1.9 1.9 0 0 1-.526-.682 2.1 2.1 0 0 1-.191-.803 1.6 1.6 0 0 1 .16-.773 1.25 1.25 0 0 1 .485-.49c.192-.112.393-.172.638-.174s.532.054.965.138c.432.082 1.006.191 1.711.273.706.084 1.54.14 2.3.18"/><path fill="#000" d="M62.249 34.32c.143.005.289.019.444.06.195.053.407.15.612.282s.402.295.54.524c.137.23.211.52.231.811.02.289-.018.578-.096.815a1.3 1.3 0 0 1-.346.568 1.07 1.07 0 0 1-.55.275c-.218.04-.467.026-.716.012q-.315-.02-.64-.044a77 77 0 0 1-3.007-.279c-.817-.091-1.337-.167-1.75-.279-.412-.11-.719-.257-.956-.448a1.9 1.9 0 0 1-.526-.682 2.1 2.1 0 0 1-.191-.803 1.6 1.6 0 0 1 .16-.773 1.25 1.25 0 0 1 .485-.49c.192-.112.393-.172.638-.174s.532.054.965.138c.432.082 1.006.191 1.711.273s1.539.14 2.298.18q.359.019.694.033"/></g><g filter="url(#q)"><rect width="100" height="86" x="110" fill="#fff" fill-opacity=".15" rx="30"/></g><g clip-path="url(#r)"><path fill="url(#s)" fill-rule="evenodd" d="M158.368 62.998h1.055v-9.94c.099 0 .188 0 .243-.036s.073-.107.082-.235c.01-.129.01-.315.01-.626v-2.476q.072-.004.134-.013c.218-.028.315-.082.383-.131.068-.047.109-.089.113-.17.003-.082-.03-.203-.045-1.052-.016-.848-.016-2.423-.049-4.97-.032-2.455-.094-5.812-.156-9.202q.166.08.319.147c.365.16.683.26 1.037.315a5 5 0 0 0 1.187.027 8.2 8.2 0 0 0 3.144-.904 10 10 0 0 0 1.604-1.036c.449-.36.768-.702.946-.913.179-.209.218-.287.237-.605.02-.318.02-.878.02-1.619v-2.254c0-.59 0-.846-.058-1.084a1.43 1.43 0 0 0-.358-.647c-.182-.195-.43-.365-.9-.66a19 19 0 0 0-1.852-1.044 9.3 9.3 0 0 0-2.029-.71 7 7 0 0 0-1.821-.152 6.2 6.2 0 0 0-1.564.267 4.1 4.1 0 0 0-1.324.687c-.442.338-.916.81-1.219 1.288s-.435.96-.524 1.518c-.09.56-.136 1.196-.159 2.096s-.023 2.065-.012 3.66c.012 1.597.035 3.623.078 5.76.042 2.14.104 4.39.162 6.238s.113 3.292.148 4.076.049.908.104.982.147.097.338.108c.106.006.241.01.39.01v2.463c0 .31 0 .496.01.625s.029.2.082.235c.055.035.145.035.244.035z" clip-rule="evenodd"/><path fill="url(#t)" fill-rule="evenodd" d="M158.368 62.998h1.055v-9.94c.099 0 .188 0 .243-.036s.073-.107.082-.235c.01-.129.01-.315.01-.626v-2.476q.072-.004.134-.013c.218-.028.315-.082.383-.131.068-.047.109-.089.113-.17.003-.082-.03-.203-.045-1.052-.016-.848-.016-2.423-.049-4.97-.032-2.455-.094-5.812-.156-9.202q.166.08.319.147c.365.16.683.26 1.037.315a5 5 0 0 0 1.187.027 8.2 8.2 0 0 0 3.144-.904 10 10 0 0 0 1.604-1.036c.449-.36.768-.702.946-.913.179-.209.218-.287.237-.605.02-.318.02-.878.02-1.619v-2.254c0-.59 0-.846-.058-1.084a1.43 1.43 0 0 0-.358-.647c-.182-.195-.43-.365-.9-.66a19 19 0 0 0-1.852-1.044 9.3 9.3 0 0 0-2.029-.71 7 7 0 0 0-1.821-.152 6.2 6.2 0 0 0-1.564.267 4.1 4.1 0 0 0-1.324.687c-.442.338-.916.81-1.219 1.288s-.435.96-.524 1.518c-.09.56-.136 1.196-.159 2.096s-.023 2.065-.012 3.66c.012 1.597.035 3.623.078 5.76.042 2.14.104 4.39.162 6.238s.113 3.292.148 4.076.049.908.104.982.147.097.338.108c.106.006.241.01.39.01v2.463c0 .31 0 .496.01.625s.029.2.082.235c.055.035.145.035.244.035z" clip-rule="evenodd"/><path fill="url(#u)" fill-rule="evenodd" d="M167.43 32.696c.45-.36.768-.702.947-.913.178-.209.217-.287.237-.605s.019-.878.019-1.619v-2.254c0-.59 0-.846-.058-1.084a1.43 1.43 0 0 0-.358-.647c-.182-.195-.43-.365-.9-.66a19 19 0 0 0-1.851-1.044 9.3 9.3 0 0 0-2.03-.71 7 7 0 0 0-1.821-.152 6.2 6.2 0 0 0-1.564.267c-.47.147-.881.35-1.324.687-.442.338-.916.81-1.219 1.288-.302.478-.435.96-.524 1.518-.062.387-.103.811-.13 1.334-.009.254-.019.508.004.904s.079.933.169 1.409c.09.475.214.886.447 1.309.234.423.575.858.892 1.189.318.33.612.559.906.787.295.156.591.313.869.446q.164.079.318.147c.365.16.683.26 1.037.315a5 5 0 0 0 1.188.027 8.2 8.2 0 0 0 3.144-.904 10 10 0 0 0 1.602-1.035" clip-rule="evenodd"/><path fill="url(#v)" fill-rule="evenodd" d="M159.757 52.163v-2.475c-.211.014-.49.014-.768.014h-.582l-.376-.001v2.462c0 .31 0 .496.01.625s.029.2.083.235.144.035.243.035h1.053c.1 0 .189 0 .244-.035s.073-.107.082-.235c.011-.127.011-.315.011-.625" clip-rule="evenodd"/><path fill="url(#w)" fill-rule="evenodd" d="M159.421 62.996v-9.941h-1.054v9.94z" clip-rule="evenodd"/><path fill="url(#x)" fill-rule="evenodd" d="M159.757 52.163v-2.475c-.211.014-.49.014-.768.014h-.582l-.376-.001v2.462c0 .31 0 .496.01.625s.029.2.083.235.144.035.243.035h1.053c.1 0 .189 0 .244-.035s.073-.107.082-.235c.011-.127.011-.315.011-.625" clip-rule="evenodd"/><path fill="url(#y)" fill-rule="evenodd" d="M159.421 62.996v-9.941h-1.054v9.94z" clip-rule="evenodd"/><path fill="url(#z)" fill-rule="evenodd" d="M167.43 32.696c.45-.36.768-.702.947-.913.178-.209.217-.287.237-.605s.019-.878.019-1.619v-2.254c0-.59 0-.846-.058-1.084a1.43 1.43 0 0 0-.358-.647c-.182-.195-.43-.365-.9-.66a19 19 0 0 0-1.851-1.044 9.3 9.3 0 0 0-2.03-.71 7 7 0 0 0-1.821-.152 6.2 6.2 0 0 0-1.564.267c-.47.147-.881.35-1.324.687-.442.338-.916.81-1.219 1.288-.302.478-.435.96-.524 1.518-.062.387-.103.811-.13 1.334-.009.254-.019.508.004.904s.079.933.169 1.409c.09.475.214.886.447 1.309.234.423.575.858.892 1.189.318.33.612.559.906.787.295.156.591.313.869.446q.164.079.318.147c.365.16.683.26 1.037.315a5 5 0 0 0 1.188.027 8.2 8.2 0 0 0 3.144-.904 10 10 0 0 0 1.602-1.035" clip-rule="evenodd"/><path fill="#1A1A1A" fill-rule="evenodd" d="M160.48 27.773h1.642c.384 0 .699.315.699.7a.7.7 0 0 1-.699.698h-1.642a.7.7 0 0 1-.699-.699.7.7 0 0 1 .699-.699" clip-rule="evenodd"/><path fill="url(#A)" fill-rule="evenodd" d="M150.263 63h-1.055v-9.942c-.1 0-.188 0-.243-.035s-.073-.107-.083-.235c-.009-.128-.009-.314-.009-.625v-2.476a2 2 0 0 1-.134-.014c-.219-.028-.315-.082-.383-.13s-.109-.09-.113-.171.029-.203.045-1.051c.016-.849.016-2.424.049-4.97.031-2.456.093-5.813.155-9.202a10 10 0 0 1-.319.147c-.365.159-.683.26-1.037.314a5 5 0 0 1-1.188.027 8.2 8.2 0 0 1-3.144-.904 10 10 0 0 1-1.603-1.036 7.3 7.3 0 0 1-.945-.914c-.178-.209-.217-.287-.237-.605S140 30.3 140 29.56v-2.254c0-.59 0-.846.058-1.084.059-.236.175-.454.358-.647.182-.195.43-.365.9-.66a19 19 0 0 1 1.851-1.044 9.3 9.3 0 0 1 2.03-.71 7 7 0 0 1 1.821-.152c.566.027 1.095.12 1.564.267s.881.35 1.324.687c.442.338.916.81 1.219 1.288s.435.96.524 1.518c.088.56.136 1.196.159 2.096s.023 2.065.011 3.66a465 465 0 0 1-.241 11.998 372 372 0 0 1-.147 4.076c-.035.784-.051.908-.104.982-.055.074-.147.097-.338.108-.106.006-.241.01-.39.01v2.463c0 .31 0 .496-.01.625s-.028.2-.083.235c-.054.035-.143.035-.243.035z" clip-rule="evenodd"/><path fill="url(#B)" fill-rule="evenodd" d="M150.263 63h-1.055v-9.942c-.1 0-.188 0-.243-.035s-.073-.107-.083-.235c-.009-.128-.009-.314-.009-.625v-2.476a2 2 0 0 1-.134-.014c-.219-.028-.315-.082-.383-.13s-.109-.09-.113-.171.029-.203.045-1.051c.016-.849.016-2.424.049-4.97.031-2.456.093-5.813.155-9.202a10 10 0 0 1-.319.147c-.365.159-.683.26-1.037.314a5 5 0 0 1-1.188.027 8.2 8.2 0 0 1-3.144-.904 10 10 0 0 1-1.603-1.036 7.3 7.3 0 0 1-.945-.914c-.178-.209-.217-.287-.237-.605S140 30.3 140 29.56v-2.254c0-.59 0-.846.058-1.084.059-.236.175-.454.358-.647.182-.195.43-.365.9-.66a19 19 0 0 1 1.851-1.044 9.3 9.3 0 0 1 2.03-.71 7 7 0 0 1 1.821-.152c.566.027 1.095.12 1.564.267s.881.35 1.324.687c.442.338.916.81 1.219 1.288s.435.96.524 1.518c.088.56.136 1.196.159 2.096s.023 2.065.011 3.66a465 465 0 0 1-.241 11.998 372 372 0 0 1-.147 4.076c-.035.784-.051.908-.104.982-.055.074-.147.097-.338.108-.106.006-.241.01-.39.01v2.463c0 .31 0 .496-.01.625s-.028.2-.083.235c-.054.035-.143.035-.243.035z" clip-rule="evenodd"/><path fill="url(#C)" fill-rule="evenodd" d="M141.203 32.696a7 7 0 0 1-.947-.913c-.178-.209-.217-.287-.237-.605S140 30.3 140 29.56v-2.254c0-.59 0-.846.058-1.084.059-.236.175-.454.358-.647.182-.195.43-.365.9-.66a19 19 0 0 1 1.851-1.044 9.3 9.3 0 0 1 2.03-.71 7 7 0 0 1 1.821-.152c.566.027 1.095.12 1.564.267s.881.35 1.324.687c.442.338.916.81 1.219 1.288s.435.96.524 1.518c.062.387.103.811.13 1.334.01.254.019.508-.004.904s-.079.933-.169 1.409c-.09.475-.214.886-.447 1.309a6 6 0 0 1-.892 1.189c-.317.33-.612.559-.906.787-.295.156-.59.313-.869.446a10 10 0 0 1-.319.147 4 4 0 0 1-1.037.315 5 5 0 0 1-1.188.027 8.2 8.2 0 0 1-3.144-.904 10 10 0 0 1-1.601-1.035" clip-rule="evenodd"/><path fill="url(#D)" fill-rule="evenodd" d="M148.875 52.163v-2.475c.211.014.49.014.768.014h.582l.376-.001v2.462c0 .31 0 .496-.01.625s-.028.2-.082.235-.144.035-.244.035h-1.056c-.099 0-.188 0-.243-.035s-.073-.107-.082-.235c-.009-.127-.009-.315-.009-.625" clip-rule="evenodd"/><path fill="url(#E)" fill-rule="evenodd" d="M149.211 62.996v-9.941h1.056v9.94z" clip-rule="evenodd"/><path fill="url(#F)" fill-rule="evenodd" d="M148.875 52.163v-2.475c.211.014.49.014.768.014h.582l.376-.001v2.462c0 .31 0 .496-.01.625s-.028.2-.082.235-.144.035-.244.035h-1.056c-.099 0-.188 0-.243-.035s-.073-.107-.082-.235c-.009-.127-.009-.315-.009-.625" clip-rule="evenodd"/><path fill="url(#G)" fill-rule="evenodd" d="M149.211 62.996v-9.941h1.056v9.94z" clip-rule="evenodd"/><path fill="url(#H)" fill-rule="evenodd" d="M141.203 32.696a7 7 0 0 1-.947-.913c-.178-.209-.217-.287-.237-.605S140 30.3 140 29.56v-2.254c0-.59 0-.846.058-1.084.059-.236.175-.454.358-.647.182-.195.43-.365.9-.66a19 19 0 0 1 1.851-1.044 9.3 9.3 0 0 1 2.03-.71 7 7 0 0 1 1.821-.152c.566.027 1.095.12 1.564.267s.881.35 1.324.687c.442.338.916.81 1.219 1.288s.435.96.524 1.518c.062.387.103.811.13 1.334.01.254.019.508-.004.904s-.079.933-.169 1.409c-.09.475-.214.886-.447 1.309a6 6 0 0 1-.892 1.189c-.317.33-.612.559-.906.787-.295.156-.59.313-.869.446a10 10 0 0 1-.319.147 4 4 0 0 1-1.037.315 5 5 0 0 1-1.188.027 8.2 8.2 0 0 1-3.144-.904 10 10 0 0 1-1.601-1.035" clip-rule="evenodd"/><path fill="#1A1A1A" fill-rule="evenodd" d="M148.146 27.773h-1.642a.7.7 0 0 0-.699.7.7.7 0 0 0 .699.698h1.642a.7.7 0 0 0 0-1.398" clip-rule="evenodd"/><path fill="url(#I)" fill-rule="evenodd" d="M178.815 48.417v-3.332c-.286.022-.66.022-1.034.022h-.784q-.262 0-.505-.002v3.314c0 .418 0 .668.014.842.012.173.037.269.111.316.073.047.194.047.327.047h1.419c.133 0 .254 0 .327-.047s.098-.143.112-.316c.013-.175.013-.425.013-.844" clip-rule="evenodd"/><path fill="url(#J)" fill-rule="evenodd" d="M178.364 63.003V49.625h-1.419v13.378z" clip-rule="evenodd"/><path fill="url(#K)" fill-rule="evenodd" d="M178.815 48.417v-3.332c-.286.022-.66.022-1.034.022h-.784q-.262 0-.505-.002v3.314c0 .418 0 .668.014.842.012.173.037.269.111.316.073.047.194.047.327.047h1.419c.133 0 .254 0 .327-.047s.098-.143.112-.316c.013-.175.013-.425.013-.844" clip-rule="evenodd"/><path fill="url(#L)" fill-rule="evenodd" d="M178.364 63.003V49.625h-1.419v13.378z" clip-rule="evenodd"/><path fill="url(#M)" d="M179.33 33.055h-3.353v12.031h3.353z"/><path fill="#4D4D4D" fill-rule="evenodd" d="M178.85 32.783v-1.725h-.07v-.487h.07v-1.597h-.07v-.488h.07v-1.595h-.07v-.488h.07v-.586l-.282-.314.31-1.769-.862-.734h-.737l-.861.734.31 1.769-.282.314v.586h.07v.488h-.07v1.597h.07v.487h-.07v1.597h.07v.488h-.07v1.724h-.344v.273h3.093v-.273z" clip-rule="evenodd"/><path fill="#151515" fill-rule="evenodd" d="M176.848 23.735h2.034q-.431-.365-.862-.734h-.143c.101.096.203.191.296.288.094.098.179.196.22.255.042.06.04.08.031.095-.011.015-.031.023-.081.028-.049.004-.13.004-.264.004h-.905c-.102 0-.165 0-.198-.009-.034-.008-.038-.025-.031-.047a.4.4 0 0 1 .079-.123c.055-.072.149-.186.224-.274.076-.09.133-.154.189-.218h-.153l-.862.734h.426z" clip-rule="evenodd"/><path fill="#898787" fill-rule="evenodd" d="M177.189 23.61c-.011-.016-.018-.046-.011-.096a.5.5 0 0 1 .082-.204c.055-.089.147-.2.238-.31h-.066a12 12 0 0 0-.413.492.4.4 0 0 0-.079.123c-.006.023-.003.039.032.047.034.009.096.009.198.009h.904c.136 0 .215 0 .265-.004.05-.003.069-.013.08-.028.011-.014.012-.035-.03-.095a3 3 0 0 0-.22-.255 8 8 0 0 0-.297-.288h-.044c.116.16.231.32.304.424.073.105.104.156.096.18-.007.026-.051.026-.147.026h-.396l-.387-.001c-.085-.002-.099-.003-.109-.02" clip-rule="evenodd"/><path fill="#C4C4C4" fill-rule="evenodd" d="M178.232 23.604c.007-.026-.023-.075-.096-.18a23 23 0 0 0-.304-.424h-.33c-.092.11-.183.221-.239.31a.5.5 0 0 0-.081.204c-.006.049.001.08.011.096.011.016.024.018.107.02h.783c.098 0 .142 0 .149-.026" clip-rule="evenodd"/><path fill="#1A1A1A" fill-rule="evenodd" d="m176.975 25.503-.268-1.769h-.285l.31 1.769z" clip-rule="evenodd"/><path fill="#424242" fill-rule="evenodd" d="m177.121 25.503-.238-1.769h-.203q.132.885.267 1.769z" clip-rule="evenodd"/><path fill="#6A6A6A" fill-rule="evenodd" d="m177.183 25.503-.216-1.769h-.123l.238 1.769z" clip-rule="evenodd"/><path fill="#A4A4A4" fill-rule="evenodd" d="m177.598 25.503-.025-1.769h-.604l.216 1.769h.413" clip-rule="evenodd"/><path fill="#494949" fill-rule="evenodd" d="m177.774 25.503.016-1.769h-.243q.017.885.031 1.769z" clip-rule="evenodd"/><path fill="#5C5C5C" fill-rule="evenodd" d="m177.915 25.02.095-1.286h-.248l-.012 1.769h.66l.315-1.769h-.097l-.268 1.419a3 3 0 0 1-.057.29c-.002.003-.007.004-.044.002a1 1 0 0 1-.159-.016c-.051-.01-.085-.025-.113-.033l-.017-.005q-.03-.006-.047-.013c-.015-.008-.021-.017-.024-.038-.004-.02-.003-.051.016-.32" clip-rule="evenodd"/><path fill="#BCBCBC" fill-rule="evenodd" d="m177.969 25.391.153-1.657h-.11l-.095 1.285c-.019.27-.021.3-.017.32q.002.028.023.037.015.007.046.015" clip-rule="evenodd"/><path fill="#fff" fill-rule="evenodd" d="m178.36 25.153.268-1.419h-.506l-.153 1.657.017.005c.028.008.062.023.113.033s.123.013.159.016c.038 0 .041 0 .044-.002s.005-.006.058-.29" clip-rule="evenodd"/><path fill="#242424" fill-rule="evenodd" d="m178.572 25.503.31-1.769h-.153l-.315 1.769z" clip-rule="evenodd"/><path fill="#3A3A3A" fill-rule="evenodd" d="m178.851 25.815-.282-.315h-.363c.058.077.114.153.16.2.046.046.081.059.076.066s-.05.008-.226.008h-.708c-.224 0-.365 0-.446.003-.083.004-.107.01-.104.004.003-.008.033-.027.088-.076.054-.048.132-.126.211-.204h-.53l-.282.315h2.406z" clip-rule="evenodd"/><path fill="#A4A4A4" fill-rule="evenodd" d="M178.445 25.766c.005-.007-.03-.022-.076-.067a2 2 0 0 1-.159-.199h-.135c.056.079.113.158.153.197s.064.04.022.04h-1.052c-.02 0 .008 0 .034-.012a.3.3 0 0 0 .082-.066 1 1 0 0 0 .063-.092c.015-.028.022-.046.03-.066h-.147c-.079.078-.157.156-.211.204-.055.049-.085.07-.088.076s.022 0 .104-.004.222-.004.446-.004h.708c.178 0 .223 0 .226-.007" clip-rule="evenodd"/><path fill="#fff" fill-rule="evenodd" d="M178.224 25.697a2 2 0 0 1-.153-.197h-.667a.4.4 0 0 1-.03.066 1 1 0 0 1-.064.092.2.2 0 0 1-.081.066c-.028.012-.055.012-.034.012h1.051c.043 0 .018 0-.022-.04" clip-rule="evenodd"/><path fill="#1D1D1D" fill-rule="evenodd" d="M176.786 26.208c-.003-.055-.009-.12-.009-.163-.001-.044.004-.068.003-.095a.13.13 0 0 0-.027-.076.3.3 0 0 0-.085-.054h-.223v.586h.439a.4.4 0 0 1-.07-.023c-.017-.008-.024-.018-.027-.046q0-.046-.001-.129" clip-rule="evenodd"/><path fill="#616161" fill-rule="evenodd" d="M176.963 26.172q.006-.069.005-.161v-.196h-.304a.3.3 0 0 1 .085.053c.02.022.026.052.027.077.001.027-.004.051-.003.095.002.044.008.108.009.163.002.054 0 .1.002.127.003.028.01.038.027.047a.4.4 0 0 0 .071.023h1.802q.017-.024.026-.056c.005-.022.005-.048.005-.11v-.228q0-.107.003-.147c.004-.028.011-.037.02-.047h-.931v.39c0 .084 0 .104.002.114s.007.01-.081.012l-.42.001h-.325c-.07 0-.097 0-.097-.008s.028-.025.048-.05a.2.2 0 0 0 .029-.099m1.123.09c.018-.007.027-.016.031-.068.003-.052.003-.147.003-.21 0-.062 0-.093.007-.11.008-.019.021-.027.056-.031.034-.004.09-.004.141-.004s.098 0 .132.003a.2.2 0 0 1 .069.012c.013.006.016.013.018.04q.004.042.003.131v.173c0 .042 0 .055.01.064q.018.015.056.018c.023.004.049.005-.024.005h-.604c-.027 0 .001 0 .029-.003a.4.4 0 0 0 .073-.02" clip-rule="evenodd"/><path fill="#A4A4A4" fill-rule="evenodd" d="M177.577 26.166v-.346h-.603v.196q.001.094-.004.162a.2.2 0 0 1-.032.102c-.018.024-.046.041-.047.048 0 .009.026.009.096.009h.325l.42-.001c.09-.002.084-.003.081-.012-.002-.01-.002-.03-.002-.115v-.389h-.031v.303c0 .074 0 .107-.002.134q-.003.04-.018.057-.013.016-.054.018a.3.3 0 0 1-.089-.005c-.023-.007-.032-.023-.036-.041-.004-.02-.004-.043-.004-.12" clip-rule="evenodd"/><path fill="#2D2D2D" fill-rule="evenodd" d="M177.782 26.123v-.303h-.204v.346c0 .078 0 .1.005.12s.013.034.036.041a.3.3 0 0 0 .089.005q.039-.001.054-.018.015-.019.018-.057c.002-.027.002-.061.002-.134" clip-rule="evenodd"/><path fill="#fff" fill-rule="evenodd" d="M178.551 26.03q0-.09-.003-.132c-.001-.026-.005-.034-.018-.04a.2.2 0 0 0-.069-.012c-.034-.002-.081-.002-.132-.002s-.107 0-.141.003c-.034.004-.048.013-.055.03-.008.02-.008.05-.008.111 0 .064 0 .158-.003.21-.005.053-.013.06-.031.069a.3.3 0 0 1-.074.02c-.028.003-.057.003-.029.003h.604c.072 0 .047-.001.024-.005a.14.14 0 0 1-.056-.018c-.011-.01-.011-.023-.011-.065.002-.042.002-.114.002-.172" clip-rule="evenodd"/><path fill="#242424" fill-rule="evenodd" d="M178.852 26.406v-.586h-.111c-.007.009-.015.017-.019.046q-.005.042-.004.148v.228c0 .06 0 .088-.005.11a.2.2 0 0 1-.025.055h.164" clip-rule="evenodd"/><path fill="#fff" fill-rule="evenodd" d="M178.551 28.16v-.876c0-.235 0-.28-.003-.307-.001-.027-.005-.035-.018-.04a.2.2 0 0 0-.069-.013c-.034-.002-.081-.002-.132-.002s-.107 0-.141.003c-.034.004-.048.013-.055.03-.008.02-.008.05-.008.288s0 .685-.003.913c-.005.227-.013.235-.031.243a.3.3 0 0 1-.074.02c-.028.003-.057.003-.029.003h.604c.072 0 .047-.003.024-.005a.14.14 0 0 1-.056-.018c-.009-.009-.009-.022-.009-.24M178.551 30.246v-.876c0-.235 0-.28-.003-.308-.001-.026-.005-.034-.018-.04a.2.2 0 0 0-.069-.012c-.034-.002-.081-.002-.132-.002s-.107 0-.141.004c-.034.003-.048.012-.055.03-.008.02-.008.048-.008.287 0 .238 0 .685-.003.912-.005.229-.013.236-.031.245a.3.3 0 0 1-.074.02c-.028.003-.057.003-.029.003h.604c.072 0 .047-.001.024-.005a.1.1 0 0 1-.056-.02c-.009-.007-.009-.02-.009-.238M178.551 31.484c0-.253 0-.303-.003-.332-.001-.03-.005-.036-.018-.042a.2.2 0 0 0-.069-.014c-.034-.002-.081-.002-.132-.002s-.107 0-.141.005-.048.013-.055.032c-.008.021-.008.053-.008.31 0 .258 0 .74-.003.987-.005.246-.013.254-.031.264a.3.3 0 0 1-.074.02c-.028.004-.057.004-.029.004h.604c.072 0 .047-.002.024-.006-.023-.003-.045-.01-.056-.02s-.011-.025-.011-.26c.002-.236.002-.693.002-.946" clip-rule="evenodd"/><path fill="#616161" fill-rule="evenodd" d="M178.122 32.426c.004-.246.004-.73.004-.987 0-.258 0-.29.007-.31s.02-.03.056-.033c.034-.005.09-.005.141-.005q.078 0 .131.003a.2.2 0 0 1 .069.013c.014.006.016.015.019.043.002.029.002.079.002.331v.946c0 .236 0 .25.011.26q.017.015.056.02c.023.004.048.005-.025.007h-.604c-.026 0 .002 0 .03-.004a.3.3 0 0 0 .074-.02c.017-.01.024-.018.029-.264m.598-.006v-.975c0-.259 0-.31.004-.34.003-.03.01-.04.019-.05h-.931v1.33c0 .274 0 .295.002.306.003.01.008.012-.081.013h-.745c-.069 0-.096 0-.096-.008s.028-.027.047-.054.027-.062.032-.292.005-.654.005-.902v-.393h-.304a.3.3 0 0 1 .085.057.15.15 0 0 1 .027.084c.001.029-.004.054-.003.284s.008.662.009.904c.002.241 0 .29.002.32.003.03.01.041.027.05s.044.017.07.024h1.803c.01-.018.021-.038.025-.06.003-.023.003-.052.003-.298M178.093 30.49c.018-.007.026-.016.03-.244s.004-.675.004-.913 0-.269.007-.287c.007-.02.021-.027.056-.03.034-.004.09-.004.141-.004q.078 0 .131.002a.2.2 0 0 1 .069.012c.014.006.016.014.019.04s.002.073.002.308v.876c0 .218 0 .231.011.241q.018.014.056.02c.023.003.049.004-.024.004h-.604c-.027 0 .001 0 .029-.003a1 1 0 0 0 .073-.022m.596.082q.017-.024.026-.055c.005-.022.005-.048.005-.278v-.902c0-.24 0-.286.004-.314.003-.028.01-.037.019-.046h-.931v1.23c0 .255 0 .274.002.284.003.01.008.012-.081.012h-.745c-.069 0-.096 0-.096-.008s.028-.025.047-.049.027-.057.032-.27c.005-.212.005-.605.005-.835v-.364h-.304a.3.3 0 0 1 .085.053.13.13 0 0 1 .027.077c.001.026-.004.05-.003.263s.008.614.009.838c.002.223 0 .268.002.296.003.028.01.038.027.047.017.008.044.015.07.023h1.8zM178.092 28.404c.018-.007.026-.016.03-.243.004-.228.004-.675.004-.913s0-.269.007-.287c.007-.02.02-.027.056-.03.034-.004.09-.004.141-.004q.078 0 .131.003a.2.2 0 0 1 .069.012c.014.006.016.013.019.04s.002.073.002.307v.875c0 .218 0 .231.011.241q.017.014.056.018c.023.004.048.005-.025.005h-.604c-.026 0 .002 0 .03-.004a.4.4 0 0 0 .073-.02m-1.205.084h1.802q.017-.024.026-.056c.005-.022.005-.048.005-.277v-.903c0-.241 0-.287.004-.315.003-.028.01-.037.019-.046h-.931v1.23c0 .255 0 .273.002.284.003.01.008.012-.081.012l-.419.001h-.326c-.069 0-.096 0-.096-.008s.028-.024.047-.049c.019-.024.027-.057.032-.27.005-.212.005-.605.005-.835v-.364h-.304c.033.016.066.03.085.053a.13.13 0 0 1 .027.077c.001.027-.004.05-.003.264.001.212.008.613.009.837.002.224 0 .269.002.297.003.028.01.037.027.046a1 1 0 0 0 .068.022" clip-rule="evenodd"/><path fill="#242424" fill-rule="evenodd" d="M178.853 28.488V26.89h-.11199999999999999c-.007.008-.015.017-.019.046s-.004.075-.004.315v.903c0 .23 0 .255-.005.277a.2.2 0 0 1-.025.056h.16499999999999998M178.853 30.574v-1.597h-.11199999999999999c-.007.008-.015.017-.019.046s-.004.075-.004.314v.902c0 .23 0 .256-.005.277a.2.2 0 0 1-.025.056h.16499999999999998zM178.853 32.78v-1.725h-.11199999999999999c-.007.01-.015.02-.019.05s-.004.081-.004.34v.975c0 .248 0 .276-.005.299a.2.2 0 0 1-.025.06z" clip-rule="evenodd"/><path fill="#A4A4A4" fill-rule="evenodd" d="M177.577 32.337v-1.282h-.603v.393c0 .25 0 .673-.004.902-.005.23-.014.265-.032.292s-.046.044-.047.053c0 .009.026.009.096.009h.745c.09-.001.084-.002.081-.013-.002-.011-.002-.032-.002-.305v-1.331h-.031v1.237c0 .262 0 .298-.002.327q-.003.044-.018.062-.013.017-.054.02a.2.2 0 0 1-.089-.007c-.023-.008-.032-.024-.036-.045s-.004-.046-.004-.312M177.577 30.164v-1.187h-.603v.364c0 .23 0 .622-.004.835-.005.213-.014.246-.032.27s-.046.041-.047.049c0 .008.026.008.096.008h.745c.09-.001.084-.002.081-.012-.002-.01-.002-.03-.002-.283v-1.231h-.031v1.145c0 .243 0 .275-.002.302q-.003.04-.018.057-.013.016-.054.018a.3.3 0 0 1-.089-.004c-.023-.008-.032-.024-.036-.042-.004-.02-.004-.042-.004-.289M177.577 28.08v-1.188h-.603v.364c0 .23 0 .623-.004.835-.005.213-.014.246-.032.27s-.046.042-.047.049c0 .008.026.008.096.008h.745c.09 0 .084-.003.081-.013-.002-.01-.002-.03-.002-.283V26.89h-.031v1.145c0 .243 0 .275-.002.302q-.003.04-.018.057-.013.016-.054.019a.3.3 0 0 1-.089-.005c-.023-.008-.032-.023-.036-.042-.004-.018-.004-.04-.004-.288" clip-rule="evenodd"/><path fill="#2D2D2D" fill-rule="evenodd" d="M177.78 28.338c.002-.027.002-.06.002-.302V26.89h-.204v1.187c0 .247 0 .27.005.29s.013.033.036.04a.3.3 0 0 0 .089.006q.039-.003.054-.019a.1.1 0 0 0 .018-.057M177.782 30.122v-1.145h-.204v1.187c0 .247 0 .27.005.29s.013.033.036.04a.3.3 0 0 0 .089.006q.039-.003.054-.019.015-.018.018-.057c.002-.027.002-.06.002-.302M177.782 32.292v-1.237h-.204v1.282c0 .266 0 .292.005.311s.013.037.036.045a.2.2 0 0 0 .089.006q.039-.002.054-.02.015-.02.018-.061c.002-.028.002-.065.002-.326" clip-rule="evenodd"/><path fill="#1D1D1D" fill-rule="evenodd" d="M176.777 31.48c-.001-.23.004-.256.003-.284a.15.15 0 0 0-.027-.084c-.02-.024-.052-.04-.085-.057h-.223v1.724h.43900000000000006a.4.4 0 0 1-.07-.024c-.017-.01-.024-.02-.027-.05s-.001-.079-.003-.32c-.001-.242-.007-.675-.007-.905M176.786 30.208c-.003-.224-.009-.625-.009-.838-.001-.212.004-.237.003-.263a.13.13 0 0 0-.027-.077.3.3 0 0 0-.085-.053h-.223v1.597h.439a.4.4 0 0 1-.07-.023c-.017-.009-.024-.019-.027-.047-.001-.028.001-.073-.001-.296M176.788 28.418c-.002-.027-.001-.072-.002-.296-.003-.224-.009-.624-.009-.838-.001-.212.004-.237.003-.263a.13.13 0 0 0-.027-.077.3.3 0 0 0-.085-.053h-.223v1.597h.439a.4.4 0 0 1-.07-.023c-.016-.008-.024-.019-.026-.047" clip-rule="evenodd"/><path fill="#000" fill-rule="evenodd" d="M178.781 28.97v-.486h-2.2649999999999997v.486h2.2649999999999997M177.809 26.894h.9720000000000001v-.488h-2.2649999999999997v.488h1.2929999999999997M178.686 30.57h-2.17v.488h2.2649999999999997v-.488z" clip-rule="evenodd"/><path fill="#585858" fill-rule="evenodd" d="M176.724 32.836h-.622v.216h.606l.015-.056a.2.2 0 0 0 .011-.067.07.07 0 0 0-.03-.052c-.019-.016-.048-.033.02-.041" clip-rule="evenodd"/><path fill="#A1A1A1" fill-rule="evenodd" d="M177.547 32.946a.2.2 0 0 1 .032-.081c.015-.022.035-.03.026-.034-.007-.004-.041-.003-.126-.002-.085.002-.22.002-.371.002s-.316 0-.385.008c-.068.009-.04.024-.021.041q.029.023.029.053c.002.02-.006.046-.011.066l-.014.056h1.237c-.132-.013-.265-.026-.333-.043-.065-.02-.068-.04-.063-.066" clip-rule="evenodd"/><path fill="#FBFBFB" fill-rule="evenodd" d="M178.866 33.054q-.001-.059.004-.108c.004-.033.011-.06.001-.073q-.004-.007-.017-.01-.022-.005-.075-.004h-.238c-.101 0-.222 0-.28.008-.058.007-.053.022-.056.042-.001.02-.008.046-.009.07a.1.1 0 0 0 .009.052q.008.017.017.024h.644z" clip-rule="evenodd"/><path fill="#303030" fill-rule="evenodd" d="M179.195 33.054v-.273h-3.093v.056h.622c.068-.008.234-.008.385-.008s.286 0 .371-.002c.084 0 .119-.002.126.002.008.003-.012.013-.026.034a.2.2 0 0 0-.032.081c-.005.027-.002.047.066.063.068.017.2.03.333.044l.274-.001q-.01-.008-.017-.024a.1.1 0 0 1-.009-.053c.001-.022.008-.048.009-.069.001-.02-.002-.035.056-.043s.178-.007.28-.007h.238q.054-.001.075.004.012.003.017.01c.01.013.003.04-.001.072q-.005.05-.004.109h.33z" clip-rule="evenodd"/><path fill="#333" fill-rule="evenodd" d="M178.551 26.468c.002.036.002.098.002.149v.116l-.001.042q0 .01-.007.015-.008.004-.017 0-.006-.003-.008-.011l-.001-.028v-.256l-.001-.034a.02.02 0 0 0-.009-.014q-.005-.005-.012 0a.04.04 0 0 0-.009.017c-.003.008-.003.017-.003.04v.21600000000000003q0 .047-.003.062-.006.015-.027.014h-.203c-.045 0-.086 0-.111-.005-.024-.006-.033-.02-.037-.045-.004-.026-.004-.064-.004-.103v-.112q.001-.047-.006-.068c-.006-.015-.02-.021-.032-.025q-.02-.004-.028-.01c-.005-.003-.003-.01.003-.012.005-.002.014-.002.058-.002h.374c.04 0 .054 0 .064.005.009.002.015.012.018.049M178.551 28.556c.002.036.002.098.002.15v.115l-.001.042q0 .012-.007.014-.008.003-.017.001-.006-.004-.008-.012l-.001-.027v-.256l-.001-.036a.02.02 0 0 0-.009-.014q-.005-.004-.012 0-.006.006-.009.017c-.003.008-.003.018-.003.04v.21600000000000003q0 .047-.003.062-.006.015-.027.014h-.203c-.045 0-.086 0-.111-.005-.024-.006-.033-.02-.037-.045-.004-.026-.004-.065-.004-.104v-.11q.001-.047-.006-.068c-.006-.015-.02-.02-.032-.026q-.02-.004-.028-.01c-.005-.003-.003-.01.003-.012.005-.002.014-.002.058-.002h.374c.04 0 .054 0 .064.005.009.006.015.014.018.05M178.551 30.634c.002.037.002.099.002.15v.115l-.001.043q0 .011-.007.013-.008.004-.017.001-.006-.004-.008-.012l-.001-.028v-.255l-.001-.036a.02.02 0 0 0-.009-.014q-.005-.005-.012 0-.006.006-.009.017c-.003.009-.003.018-.003.04v.21600000000000003q0 .048-.003.062-.006.015-.027.014l-.073.001h-.13c-.045 0-.086 0-.111-.006-.024-.006-.033-.02-.037-.045-.004-.026-.004-.064-.004-.103v-.111q.001-.047-.006-.07c-.006-.014-.02-.02-.032-.024q-.02-.004-.028-.01-.007-.006.003-.011c.005-.003.014-.003.058-.003h.374c.04 0 .054 0 .064.005.009.005.015.015.018.051" clip-rule="evenodd"/></g><g filter="url(#N)"><rect width="100" height="86" x="220" fill="#fff" fill-opacity=".15" rx="30"/></g><g fill-rule="evenodd" clip-path="url(#O)" clip-rule="evenodd"><path fill="url(#P)" d="M265.163 63h8.932c1.515 0 3.318-.001 4.634-.012 1.505-.011 2.375-.034 3.226-.101s1.68-.178 2.493-.35c.813-.173 1.61-.407 2.377-.751a11.5 11.5 0 0 0 2.138-1.268 9.2 9.2 0 0 0 1.652-1.56c.489-.594.936-1.29 1.369-2.158.432-.869.852-1.91 1.062-3.094.199-1.13.209-2.388.209-4.34V39.298h-6.613c.437-.191.871-.387 1.292-.6a12 12 0 0 0 1.69-1.022c.512-.373.959-.779 1.371-1.278.412-.5.79-1.094 1.102-1.673.311-.578.555-1.14.743-1.746a9 9 0 0 0 .374-1.865 7.2 7.2 0 0 0-.065-1.711 6.75 6.75 0 0 0-1.204-2.967 7.6 7.6 0 0 0-1.111-1.24 7.7 7.7 0 0 0-1.436-1.022c-.558-.311-1.211-.597-2.202-.788-.991-.19-2.318-.288-3.987-.336-1.673-.049-3.682-.049-5.493-.049h-16.18c-1.811 0-3.82 0-5.488.049-1.668.048-2.995.144-3.987.336-.991.191-1.645.477-2.203.788a7.8 7.8 0 0 0-2.547 2.262c-.319.45-.587.933-.787 1.428a6.8 6.8 0 0 0-.417 1.539 7 7 0 0 0-.064 1.711c.051.609.184 1.258.373 1.864.188.607.432 1.169.744 1.747a10.5 10.5 0 0 0 1.101 1.673c.412.5.859.905 1.371 1.278.511.373 1.088.715 1.69 1.021.421.214.855.41 1.292.602H246v10.065c0 1.952.01 3.21.209 4.339.21 1.184.628 2.225 1.062 3.094.433.87.88 1.565 1.369 2.159a9.2 9.2 0 0 0 1.652 1.56c.633.472 1.371.923 2.138 1.267s1.564.579 2.377.751a19 19 0 0 0 2.493.35c.851.067 1.721.09 3.226.101 1.318.015 3.12.016 4.637.016"/><path fill="url(#Q)" d="M246 39.299v10.122c.001 1.92.012 3.164.209 4.282.21 1.184.628 2.226 1.062 3.095.433.869.88 1.564 1.369 2.158a9.1 9.1 0 0 0 1.652 1.56c.633.473 1.371.923 2.138 1.267s1.564.579 2.377.752a19 19 0 0 0 2.493.35c.851.066 1.721.09 3.226.1 1.301.01 3.076.011 4.581.013h9.041c1.505 0 3.281-.002 4.581-.013 1.505-.01 2.375-.034 3.226-.1.851-.067 1.68-.178 2.493-.35.813-.173 1.61-.408 2.377-.752a11.5 11.5 0 0 0 2.138-1.267 9.2 9.2 0 0 0 1.652-1.56c.489-.594.936-1.29 1.369-2.158.432-.87.852-1.91 1.062-3.095.198-1.118.209-2.363.209-4.282V39.297h-6.613c.437-.191.871-.387 1.292-.6a12 12 0 0 0 1.69-1.022c.512-.373.959-.779 1.371-1.278.412-.5.79-1.094 1.102-1.673.311-.578.555-1.14.743-1.746a9 9 0 0 0 .374-1.865 7.2 7.2 0 0 0-.065-1.711 6.75 6.75 0 0 0-1.204-2.967 7.6 7.6 0 0 0-1.111-1.24 7.7 7.7 0 0 0-1.436-1.022c-.558-.311-1.211-.597-2.202-.788-.991-.19-2.318-.288-3.987-.336-1.675-.049-3.684-.049-5.495-.049h-16.18c-1.811 0-3.82 0-5.487.049-1.668.048-2.995.144-3.987.336-.992.191-1.646.477-2.203.788a7.8 7.8 0 0 0-2.547 2.262 6.747 6.747 0 0 0-1.204 2.967 7.2 7.2 0 0 0-.065 1.711c.051.609.185 1.258.373 1.864.189.607.433 1.169.744 1.747a10.5 10.5 0 0 0 1.101 1.673c.413.5.86.905 1.372 1.278.511.373 1.087.715 1.69 1.021.421.214.855.41 1.292.602z"/><path fill="url(#R)" d="M252.613 39.299h34.02c.438-.192.872-.388 1.292-.602.604-.306 1.18-.648 1.691-1.02.512-.374.959-.78 1.371-1.28.412-.499.79-1.093 1.101-1.672a10 10 0 0 0 .744-1.746 9 9 0 0 0 .373-1.865 7.2 7.2 0 0 0-.064-1.711 7 7 0 0 0-.417-1.539 7 7 0 0 0-.788-1.428 7.7 7.7 0 0 0-1.111-1.24 7.7 7.7 0 0 0-1.435-1.022c-.558-.311-1.212-.597-2.203-.787s-2.317-.288-3.985-.337c-1.669-.05-3.678-.05-5.489-.05h-16.18c-1.811 0-3.82 0-5.489.049-1.667.048-2.995.144-3.985.335-.992.192-1.646.478-2.204.789a7.8 7.8 0 0 0-2.546 2.262c-.321.45-.587.933-.788 1.428a7 7 0 0 0-.417 1.539 7.2 7.2 0 0 0-.064 1.711c.051.609.185 1.258.373 1.864.189.607.433 1.169.744 1.747a10.5 10.5 0 0 0 1.101 1.673c.412.5.859.905 1.371 1.278s1.088.715 1.691 1.021c.422.215.854.411 1.293.603"/><path fill="gray" d="M286.431 38.238q-.298.134-.597.272l-.447.21-.534.254c-.221.106-.464.223-.691.326h-.44c.311-.128.71-.318 1.056-.484l.534-.255.448-.21.614-.281h.004q.24-.108.491-.224.25-.116.502-.244c.263-.134.526-.277.78-.429q.384-.228.743-.489.323-.234.607-.498.285-.262.539-.57.262-.318.492-.672a10.4 10.4 0 0 0 .837-1.551 7.8 7.8 0 0 0 .499-1.593q.079-.391.113-.787a6 6 0 0 0 .016-.712 6.3 6.3 0 0 0-.205-1.353 5.4 5.4 0 0 0-.494-1.223 6 6 0 0 0-.362-.576 6.5 6.5 0 0 0-1.515-1.506 7 7 0 0 0-.631-.397 5.6 5.6 0 0 0-.889-.402 7 7 0 0 0-.947-.252 16 16 0 0 0-1.883-.23 48 48 0 0 0-1.906-.085c-1.678-.048-3.36-.048-5.04-.047-5.669.001-11.339.007-17.008 0-1.678 0-3.36 0-5.039.047a48 48 0 0 0-1.906.084c-.642.045-1.282.114-1.882.231a6.5 6.5 0 0 0-.947.252 5.7 5.7 0 0 0-.89.402 6.7 6.7 0 0 0-1.212.863q-.265.24-.501.5a6.3 6.3 0 0 0-.794 1.116 5.5 5.5 0 0 0-.495 1.223 6.2 6.2 0 0 0-.189 2.065q.034.395.113.787c.055.274.127.548.21.813q.123.398.289.78.164.383.363.75c.146.271.304.542.474.8.153.234.317.462.493.673q.254.308.538.57.286.263.608.498.358.26.742.49a13 13 0 0 0 1.171.62l.395.184c.058.031.127.06.188.09.223.105.454.215.665.318.246.12.491.243.746.37l.281.142c.181.09.371.184.542.267q.152.074.288.136h-.412l-.498-.245-.281-.142c-.242-.122-.474-.239-.744-.37-.217-.106-.445-.214-.663-.317l-.186-.089q-.201-.091-.399-.185a12.633 12.633 0 0 1-1.186-.628 10 10 0 0 1-.756-.497q-.33-.24-.624-.51a6 6 0 0 1-.555-.588 8 8 0 0 1-.503-.686 11 11 0 0 1-.854-1.58 8.5 8.5 0 0 1-.508-1.628 7 7 0 0 1-.116-.807 6 6 0 0 1-.016-.734 6.7 6.7 0 0 1 .209-1.392 5.6 5.6 0 0 1 .883-1.854 6.6 6.6 0 0 1 1.555-1.547q.31-.22.647-.407c.306-.171.607-.306.916-.415.31-.11.63-.192.972-.26a16 16 0 0 1 1.905-.233 48 48 0 0 1 1.912-.084c1.678-.048 3.363-.048 5.045-.047 5.669.001 11.339-.004 17.008 0 1.681 0 3.365 0 5.044.047.617.019 1.269.04 1.912.084.649.046 1.297.117 1.904.234.344.067.663.15.973.259.31.108.61.244.916.415q.337.19.647.407a6.7 6.7 0 0 1 1.554 1.547q.205.285.375.593.166.3.295.618t.214.643a6.4 6.4 0 0 1 .194 2.126 7 7 0 0 1-.116.807c-.058.283-.13.563-.213.831a8.6 8.6 0 0 1-.666 1.562q-.22.411-.483.815-.235.362-.503.686a6 6 0 0 1-.555.587q-.294.27-.624.51a10 10 0 0 1-.756.498q-.391.233-.791.435-.248.127-.507.247a17 17 0 0 1-.502.23"/><path fill="url(#S)" d="M257.774 40.576h23.701a1.24 1.24 0 0 0 1.237-1.237v-.042h-26.173v.042a1.24 1.24 0 0 0 1.235 1.236"/><path fill="#6FE862" d="M269.623 43.484a.335.335 0 1 1 0 .67.335.335 0 0 1 0-.67"/><path fill="url(#T)" d="M265.528 27.103c2.449.87 3.011 1.691 3.023 4.215.02 3.809-2.215 3.955-5.663 4.882-2.898.78-6.967 1.101-9.899.316-2.834-.76-4.853-3.072-4.272-6.504.39-2.304 4.004-3.43 6.049-3.817 3.828-.73 7.058-.409 10.762.908m8.192 0c-2.449.87-3.009 1.691-3.023 4.215-.021 3.809 2.215 3.955 5.664 4.882 2.898.78 6.967 1.101 9.899.316 2.834-.76 4.853-3.072 4.272-6.504-.39-2.304-4.004-3.43-6.049-3.817-3.829-.73-7.06-.409-10.763.908"/></g><defs><linearGradient id="c" x1="34.252" x2="34.252" y1="23" y2="42.92" gradientUnits="userSpaceOnUse"><stop stop-color="#D7D7D8"/><stop offset=".31" stop-color="#F7F6F7"/><stop offset="1" stop-color="#D1D0D0"/></linearGradient><linearGradient id="d" x1="27.238" x2="48.492" y1="43" y2="42.999" gradientUnits="userSpaceOnUse"><stop stop-color="#D7D7D8"/><stop offset=".31" stop-color="#F7F6F7"/><stop offset="1" stop-color="#D1D0D0"/></linearGradient><linearGradient id="e" x1="23.55" x2="23.059" y1="25.918" y2="39.093" gradientUnits="userSpaceOnUse"><stop stop-color="#DBDCDC"/><stop offset=".31" stop-color="#EAEAEA"/><stop offset=".69" stop-color="#9D9D9D"/><stop offset="1" stop-color="#CACBCC"/></linearGradient><linearGradient id="f" x1="36.664" x2="38.245" y1="49.178" y2="49.976" gradientUnits="userSpaceOnUse"><stop stop-color="#D1CACE"/><stop offset=".31" stop-color="#EEEFEF"/><stop offset=".69" stop-color="#B3B4B4"/><stop offset="1" stop-color="#D1D0D0"/></linearGradient><linearGradient id="g" x1="20.26" x2="26.249" y1="32.477" y2="32.707" gradientUnits="userSpaceOnUse"><stop stop-color="#DBDCDC"/><stop offset=".67" stop-color="#C4C5C5"/><stop offset="1" stop-color="#969494"/></linearGradient><linearGradient id="h" x1="36.558" x2="42.555" y1="51.922" y2="37.603" gradientUnits="userSpaceOnUse"><stop stop-color="#D4D4D4"/><stop offset="1" stop-color="#9D9D9D"/></linearGradient><linearGradient id="i" x1="28.843" x2="34.18" y1="59.514" y2="62.815" gradientUnits="userSpaceOnUse"><stop stop-color="#040007"/><stop offset=".16" stop-color="#0F0F0F"/><stop offset=".34" stop-color="#020005"/><stop offset=".59" stop-color="#343434"/><stop offset=".8" stop-color="#1C1C1C"/><stop offset="1" stop-color="#040007"/></linearGradient><linearGradient id="j" x1="66.308" x2="66.307" y1="23" y2="42.92" gradientUnits="userSpaceOnUse"><stop stop-color="#D7D7D8"/><stop offset=".31" stop-color="#F7F6F7"/><stop offset="1" stop-color="#D1D0D0"/></linearGradient><linearGradient id="k" x1="73.321" x2="52.067" y1="43" y2="42.999" gradientUnits="userSpaceOnUse"><stop stop-color="#D7D7D8"/><stop offset=".31" stop-color="#F7F6F7"/><stop offset="1" stop-color="#D1D0D0"/></linearGradient><linearGradient id="l" x1="77.006" x2="77.496" y1="25.918" y2="39.091" gradientUnits="userSpaceOnUse"><stop stop-color="#DBDCDC"/><stop offset=".31" stop-color="#EAEAEA"/><stop offset=".69" stop-color="#9D9D9D"/><stop offset="1" stop-color="#CACBCC"/></linearGradient><linearGradient id="m" x1="63.893" x2="62.311" y1="49.178" y2="49.976" gradientUnits="userSpaceOnUse"><stop stop-color="#D1CACE"/><stop offset=".31" stop-color="#EEEFEF"/><stop offset=".69" stop-color="#B3B4B4"/><stop offset="1" stop-color="#D1D0D0"/></linearGradient><linearGradient id="n" x1="80.297" x2="74.307" y1="32.477" y2="32.707" gradientUnits="userSpaceOnUse"><stop stop-color="#DBDCDC"/><stop offset=".67" stop-color="#C4C5C5"/><stop offset="1" stop-color="#969494"/></linearGradient><linearGradient id="o" x1="63.999" x2="58.001" y1="51.922" y2="37.603" gradientUnits="userSpaceOnUse"><stop stop-color="#D4D4D4"/><stop offset="1" stop-color="#9D9D9D"/></linearGradient><linearGradient id="p" x1="71.715" x2="66.378" y1="59.514" y2="62.815" gradientUnits="userSpaceOnUse"><stop stop-color="#040007"/><stop offset=".16" stop-color="#0F0F0F"/><stop offset=".34" stop-color="#020005"/><stop offset=".59" stop-color="#343434"/><stop offset=".8" stop-color="#1C1C1C"/><stop offset="1" stop-color="#040007"/></linearGradient><linearGradient id="s" x1="160.253" x2="156.945" y1="42.998" y2="42.998" gradientUnits="userSpaceOnUse"><stop stop-color="#D1CACE"/><stop offset=".31" stop-color="#EFE7E5"/><stop offset=".69" stop-color="#9E999F"/><stop offset="1" stop-color="#C5C4BC"/></linearGradient><linearGradient id="t" x1="162.717" x2="162.717" y1="43.386" y2="31.554" gradientUnits="userSpaceOnUse"><stop stop-color="#F4F4F9"/><stop offset="1" stop-color="#A09FA0"/></linearGradient><linearGradient id="u" x1="162.619" x2="162.92" y1="23.128" y2="34.818" gradientUnits="userSpaceOnUse"><stop stop-color="#D7D7D8"/><stop offset=".35" stop-color="#E3E4E9"/><stop offset="1" stop-color="#A6A5A6"/></linearGradient><linearGradient id="v" x1="158.032" x2="159.758" y1="51.373" y2="51.373" gradientUnits="userSpaceOnUse"><stop stop-color="#D1CACE"/><stop offset=".31" stop-color="#EFE7E5"/><stop offset=".69" stop-color="#9E999F"/><stop offset="1" stop-color="#C5C4BC"/></linearGradient><linearGradient id="w" x1="158.367" x2="159.422" y1="58.025" y2="58.025" gradientUnits="userSpaceOnUse"><stop stop-color="#D1CACE"/><stop offset=".31" stop-color="#EFE7E5"/><stop offset=".69" stop-color="#9E999F"/><stop offset="1" stop-color="#C5C4BC"/></linearGradient><linearGradient id="x" x1="158.895" x2="158.895" y1="51.062" y2="49.687" gradientUnits="userSpaceOnUse"><stop stop-color="#D7D0D3"/><stop offset="1" stop-color="#807E7E"/></linearGradient><linearGradient id="y" x1="158.894" x2="158.895" y1="56.275" y2="53.055" gradientUnits="userSpaceOnUse"><stop stop-color="#D9D1D5"/><stop offset="1" stop-color="#8B8A8A"/></linearGradient><linearGradient id="z" x1="156.817" x2="168.633" y1="28.829" y2="28.829" gradientUnits="userSpaceOnUse"><stop stop-color="#D7D7D8"/><stop offset=".35" stop-color="#E3E4E9"/><stop offset="1" stop-color="#A6A5A6"/></linearGradient><linearGradient id="A" x1="148.377" x2="151.685" y1="42.999" y2="42.999" gradientUnits="userSpaceOnUse"><stop stop-color="#D1CACE"/><stop offset=".31" stop-color="#EFE7E5"/><stop offset=".69" stop-color="#9E999F"/><stop offset="1" stop-color="#C5C4BC"/></linearGradient><linearGradient id="B" x1="145.914" x2="145.914" y1="43.388" y2="31.555" gradientUnits="userSpaceOnUse"><stop stop-color="#F4F4F9"/><stop offset="1" stop-color="#A09FA0"/></linearGradient><linearGradient id="C" x1="146.014" x2="145.713" y1="23.128" y2="34.818" gradientUnits="userSpaceOnUse"><stop stop-color="#D7D7D8"/><stop offset=".35" stop-color="#E3E4E9"/><stop offset="1" stop-color="#A6A5A6"/></linearGradient><linearGradient id="D" x1="150.6" x2="148.874" y1="51.373" y2="51.373" gradientUnits="userSpaceOnUse"><stop stop-color="#D1CACE"/><stop offset=".31" stop-color="#EFE7E5"/><stop offset=".69" stop-color="#9E999F"/><stop offset="1" stop-color="#C5C4BC"/></linearGradient><linearGradient id="E" x1="150.265" x2="149.21" y1="58.025" y2="58.025" gradientUnits="userSpaceOnUse"><stop stop-color="#D1CACE"/><stop offset=".31" stop-color="#EFE7E5"/><stop offset=".69" stop-color="#9E999F"/><stop offset="1" stop-color="#C5C4BC"/></linearGradient><linearGradient id="F" x1="149.737" x2="149.737" y1="51.062" y2="49.687" gradientUnits="userSpaceOnUse"><stop stop-color="#D7D0D3"/><stop offset="1" stop-color="#807E7E"/></linearGradient><linearGradient id="G" x1="149.738" x2="149.737" y1="56.275" y2="53.055" gradientUnits="userSpaceOnUse"><stop stop-color="#D9D1D5"/><stop offset="1" stop-color="#8B8A8A"/></linearGradient><linearGradient id="H" x1="151.817" x2="140" y1="28.829" y2="28.829" gradientUnits="userSpaceOnUse"><stop stop-color="#D7D7D8"/><stop offset=".35" stop-color="#E3E4E9"/><stop offset="1" stop-color="#A6A5A6"/></linearGradient><linearGradient id="I" x1="176.493" x2="178.815" y1="47.355" y2="47.355" gradientUnits="userSpaceOnUse"><stop stop-color="#D1CACE"/><stop offset=".31" stop-color="#EFE7E5"/><stop offset=".69" stop-color="#9E999F"/><stop offset="1" stop-color="#C5C4BC"/></linearGradient><linearGradient id="J" x1="176.944" x2="178.363" y1="56.315" y2="56.315" gradientUnits="userSpaceOnUse"><stop stop-color="#D1CACE"/><stop offset=".31" stop-color="#EFE7E5"/><stop offset=".69" stop-color="#9E999F"/><stop offset="1" stop-color="#C5C4BC"/></linearGradient><linearGradient id="K" x1="177.654" x2="177.654" y1="46.936" y2="45.085" gradientUnits="userSpaceOnUse"><stop stop-color="#D7D0D3"/><stop offset="1" stop-color="#807E7E"/></linearGradient><linearGradient id="L" x1="177.654" x2="177.654" y1="53.959" y2="49.625" gradientUnits="userSpaceOnUse"><stop stop-color="#D9D1D5"/><stop offset="1" stop-color="#8B8A8A"/></linearGradient><linearGradient id="M" x1="175.976" x2="179.329" y1="39.071" y2="39.071" gradientUnits="userSpaceOnUse"><stop stop-color="#D1CACE"/><stop offset=".31" stop-color="#EFE7E5"/><stop offset=".69" stop-color="#9E999F"/><stop offset="1" stop-color="#C5C4BC"/></linearGradient><linearGradient id="P" x1="246.001" x2="293.25" y1="43" y2="43" gradientUnits="userSpaceOnUse"><stop stop-color="#EEEFEF"/><stop offset=".13" stop-color="#fff"/><stop offset=".23" stop-color="#E3E3E4"/><stop offset=".78" stop-color="#E6E6E6"/><stop offset=".88" stop-color="#fff"/><stop offset="1" stop-color="#EEEFEF"/></linearGradient><linearGradient id="Q" x1="269.623" x2="269.624" y1="62.997" y2="54.096" gradientUnits="userSpaceOnUse"><stop stop-color="#B9B8B9"/><stop offset="1" stop-color="#E3E3E4"/></linearGradient><linearGradient id="R" x1="269.557" x2="269.705" y1="23.118" y2="39.704" gradientUnits="userSpaceOnUse"><stop stop-color="#EAEAEA"/><stop offset="1" stop-color="#B9B8B9"/></linearGradient><linearGradient id="S" x1="269.626" x2="269.624" y1="40.59" y2="39.312" gradientUnits="userSpaceOnUse"><stop stop-color="#fff"/><stop offset="1" stop-color="#9D9C9C"/></linearGradient><linearGradient id="T" x1="269.624" x2="269.624" y1="36.968" y2="25.813" gradientUnits="userSpaceOnUse"><stop stop-color="#262727"/><stop offset="1" stop-color="#919090"/></linearGradient><clipPath id="b"><path fill="#fff" d="M20 23h60.56v40H20z"/></clipPath><clipPath id="r"><path fill="#fff" d="M140 23h39.329v40H140z"/></clipPath><clipPath id="O"><path fill="#fff" d="M246 23h47.249v40H246z"/></clipPath><filter id="a" width="120" height="106" x="-10" y="-10" color-interpolation-filters="sRGB" filterUnits="userSpaceOnUse"><feFlood flood-opacity="0" result="BackgroundImageFix"/><feGaussianBlur in="BackgroundImageFix" stdDeviation="5"/><feComposite in2="SourceAlpha" operator="in" result="effect1_backgroundBlur_512_10934"/><feBlend in="SourceGraphic" in2="effect1_backgroundBlur_512_10934" result="shape"/></filter><filter id="q" width="120" height="106" x="100" y="-10" color-interpolation-filters="sRGB" filterUnits="userSpaceOnUse"><feFlood flood-opacity="0" result="BackgroundImageFix"/><feGaussianBlur in="BackgroundImageFix" stdDeviation="5"/><feComposite in2="SourceAlpha" operator="in" result="effect1_backgroundBlur_512_10934"/><feBlend in="SourceGraphic" in2="effect1_backgroundBlur_512_10934" result="shape"/></filter><filter id="N" width="120" height="106" x="210" y="-10" color-interpolation-filters="sRGB" filterUnits="userSpaceOnUse"><feFlood flood-opacity="0" result="BackgroundImageFix"/><feGaussianBlur in="BackgroundImageFix" stdDeviation="5"/><feComposite in2="SourceAlpha" operator="in" result="effect1_backgroundBlur_512_10934"/><feBlend in="SourceGraphic" in2="effect1_backgroundBlur_512_10934" result="shape"/></filter></defs></svg>