<svg xmlns="http://www.w3.org/2000/svg" width="40" height="30" fill="none"><g fill="#111" clip-path="url(#a)"><path d="m13.246 0 1.973 3.026C7.895 6.974 8.026 13.333 8.026 14.693c.658-.088 1.36-.088 2.062-.044 3.947.351 7.061 3.597 7.061 7.632a7.656 7.656 0 0 1-7.675 7.675c-2.369 0-4.606-1.052-6.01-2.588C1.229 25 0 22.325 0 17.938 0 10.264 5.395 3.422 13.246 0M35.175 0l1.974 3.026c-7.325 3.948-7.193 10.307-7.193 11.667.658-.088 1.36-.088 2.061-.044 3.948.351 7.062 3.597 7.062 7.632a7.656 7.656 0 0 1-7.676 7.675c-2.368 0-4.605-1.052-6.008-2.588-2.237-2.368-3.465-5.043-3.465-9.43 0-7.675 5.394-14.517 13.245-17.938"/></g><defs><clipPath id="a"><path fill="#fff" d="M0 0h39.123v30H0z"/></clipPath></defs></svg>