<svg xmlns="http://www.w3.org/2000/svg" width="48" height="35" fill="none"><g clip-path="url(#a)"><path fill="#9CC8ED" d="M16.51 22.936v11.847h-2.9v-6.317a9.5 9.5 0 0 1-2.332-1.03L6.805 31.91l-4.013-4.012 4.555-4.582a10.5 10.5 0 0 1-.895-2.277H0v-5.666h6.588c.244-.76.542-1.491.922-2.142L2.874 8.567l4.012-4.012 4.69 4.69a9.9 9.9 0 0 1 2.142-.868V1.762h2.765V13.61a4.663 4.663 0 0 0-4.663 4.663c0 2.575 2.115 4.663 4.69 4.663M31.612 7.998l-1.816 1.626 1.437 1.6L33.02 9.65c.271.19.542.326.867.434l-.135 2.386 1.084.054.271-4.473a1.76 1.76 0 0 1-1.653-1.87 1.76 1.76 0 0 1 1.87-1.655l.271-4.473L34.512 0l-.163 2.494c-.298.054-.569.163-.84.271L31.828.895l-1.6 1.437 1.654 1.87a4.3 4.3 0 0 0-.406.786l-2.495-.162-.135 2.141 2.44.136q.163.488.325.895m6.642 20.631c-1.274-.488-1.925-1.898-1.437-3.172s1.898-1.925 3.172-1.437l2.196-5.883-1.382-.515-1.22 3.253a6 6 0 0 0-1.22.027l-1.464-3.199-2.738 1.247 1.436 3.172c-.325.271-.596.57-.867.895l-3.28-1.22-1.058 2.82 3.2 1.192c-.055.434-.028.868.026 1.302L30.5 28.52l1.247 2.738 3.036-1.383c.271.352.596.678.976.949l-1.166 3.145 2.82 1.057-1.383-.515z"/><path fill="#0E3B65" d="m25.7 23.56 4.42 4.418-4.013 4.013-4.42-4.42c-.758.434-1.572.76-2.412.977v6.208H16.51v-11.82a4.663 4.663 0 1 0 0-9.326V1.762h2.9V8.35a9.8 9.8 0 0 1 2.197.895l4.608-4.61 4.013 4.013-4.555 4.555c.407.705.732 1.491.976 2.277h6.344v5.666h-6.29c-.244.868-.569 1.681-1.003 2.413m9.598-19.033a1.763 1.763 0 0 1 1.653 1.871 1.76 1.76 0 0 1-1.87 1.654l-.272 4.473 1.058.054.135-2.358c.326-.055.651-.163.95-.326l1.572 1.763 1.6-1.437-1.573-1.762c.163-.272.325-.57.434-.868l2.385.136.136-2.142-2.413-.136a6 6 0 0 0-.325-.894l1.816-1.627-1.41-1.572-1.843 1.626a2.8 2.8 0 0 0-.814-.38l.136-2.494L35.57.054zm8.35 25.105 3.117 1.166 1.058-2.82-3.145-1.193a7.3 7.3 0 0 0-.054-1.328l3.117-1.41-1.247-2.738-3.145 1.464a4.5 4.5 0 0 0-.921-.84l1.22-3.254-1.437-.542-2.196 5.883c1.274.488 1.925 1.898 1.437 3.172s-1.898 1.925-3.172 1.437l-2.196 5.883 1.382.515 1.166-3.09c.461.054.922.027 1.383-.028l1.383 3.01 2.738-1.247-1.356-3.01c.271-.298.596-.65.868-1.03"/><path fill="#237EC8" d="M16.51 13.61a4.663 4.663 0 1 1 .001 9.325 4.663 4.663 0 0 1 0-9.325m20.442-7.212a1.76 1.76 0 0 0-1.654-1.87 1.76 1.76 0 0 0-1.87 1.653 1.763 1.763 0 0 0 1.654 1.87 1.76 1.76 0 0 0 1.87-1.653m-.135 19.032c-.488 1.274.162 2.711 1.437 3.172 1.274.488 2.71-.163 3.172-1.437.487-1.274-.163-2.711-1.437-3.172-1.275-.488-2.684.163-3.172 1.437"/></g><defs><clipPath id="a"><path fill="#fff" d="M0 0h47.823v35H0z"/></clipPath></defs></svg>