<svg xmlns="http://www.w3.org/2000/svg" width="49" height="48" fill="none"><path fill="#050038" d="M24.054 47.77c13.128 0 23.77-10.641 23.77-23.769S37.182.231 24.054.231.285 10.875.285 24.002c0 13.128 10.642 23.77 23.77 23.77"/><path fill="#0077C0" d="M46.724 30.628A23.71 23.71 0 0 0 13.43 2.778 23.71 23.71 0 0 0 1.139 30.498l22.81-6.472z"/><path fill="#fff" stroke="#fff" stroke-width=".195" d="M23.95 41.881c9.861 0 17.855-7.994 17.855-17.854 0-9.861-7.994-17.855-17.855-17.855-9.86 0-17.854 7.994-17.854 17.854 0 9.861 7.993 17.855 17.854 17.855Z"/><path fill="#0077C0" d="M12.313 20.85q1.46-2.925 2.926-5.848c.961 1.95 1.93 3.895 2.884 5.848q-.41.002-.82.006c-.32-.58-.6-1.18-.907-1.767-.779-.01-1.559-.007-2.338-.002-.303.588-.595 1.182-.902 1.768zm2.92-4.085a70 70 0 0 0-.816 1.605q.816.004 1.631.002c-.274-.535-.528-1.079-.816-1.606m17.424-1.752q1.454 2.912 2.883 5.839h-.826c-.306-.584-.6-1.174-.896-1.762-.782-.01-1.564-.006-2.344-.002-.296.591-.588 1.183-.896 1.767l-.844-.003c.959-1.956 1.952-3.892 2.923-5.839m-.007 1.754c-.288.528-.534 1.074-.819 1.603q.819.006 1.639 0c-.277-.534-.534-1.075-.82-1.603m-11.772-.496c1.232-1.507 3.902-1.447 5.037.146q-.3.215-.592.442c-.779-1.076-2.45-1.273-3.482-.453a2.14 2.14 0 0 0-.728 2.308 2.2 2.2 0 0 0 1.724 1.504 2.56 2.56 0 0 0 2.488-.863q.295.224.594.444a3.13 3.13 0 0 1-1.777 1.082c-1.04.202-2.23.04-3.017-.725-1.058-.974-1.2-2.792-.247-3.885m-2.317-.984q.382 0 .766-.003.004 2.784 0 5.57-.381 0-.762.002c-.01-1.856-.003-3.713-.004-5.569m8.34-.002c.781.017 1.566-.04 2.344.052.379.029.735.19 1.006.457.677.64.495 1.943-.374 2.327-.699.295-1.48.216-2.22.246v2.487h-.76c.003-1.856-.003-3.712.004-5.567zm.756.72q0 .82.002 1.639a10.4 10.4 0 0 0 1.53-.048.778.778 0 0 0-.007-1.546 11 11 0 0 0-1.525-.046z"/><path fill="#050038" d="M32.882 25.807a3.38 3.38 0 0 1 2.568-.623 1.93 1.93 0 0 1 1.44 1.046 2.54 2.54 0 0 1-.26 2.362c-.559.846-1.328 1.523-2.09 2.181.894.007 1.787.003 2.68.004q.006.525.004 1.048-2.236.003-4.471 0v-.755c.858-.83 1.804-1.583 2.536-2.534a2.3 2.3 0 0 0 .538-1.228 1.05 1.05 0 0 0-.67-1.074c-.676-.232-1.373.086-1.921.473-.116-.302-.248-.596-.354-.902zm-21.203.687c.224-.68.9-1.104 1.578-1.229.845-.152 1.823-.04 2.462.588-.264.29-.535.57-.801.857-.502-.551-1.518-.71-2.03-.1a.69.69 0 0 0 .18.959c.668.417 1.533.438 2.142.964.604.48.657 1.383.4 2.06-.264.718-1.018 1.113-1.741 1.205-.889.116-1.905-.117-2.488-.841.279-.27.548-.549.84-.805.306.346.719.656 1.206.63a1.09 1.09 0 0 0 1.082-.556.75.75 0 0 0-.307-.929c-.7-.412-1.606-.435-2.199-1.032a1.78 1.78 0 0 1-.323-1.772m7.316-1.208c.958-.174 2.023-.099 2.845.468 1.558 1.045 1.768 3.47.623 4.895-1.131 1.349-3.328 1.557-4.733.523a3.05 3.05 0 0 1-1.183-2.001 3.68 3.68 0 0 1 .507-2.606 3.05 3.05 0 0 1 1.94-1.28m-.177 1.18c-1.217.612-1.465 2.352-.728 3.424.365.6 1.073.89 1.752.927a2.33 2.33 0 0 0 1.495-.62 2.52 2.52 0 0 0 .09-3.285 2.205 2.205 0 0 0-2.61-.446m5.435.293c.789-1.436 2.75-1.924 4.203-1.284.345.183.653.427.909.721-.286.221-.577.439-.88.636-.342-.294-.733-.597-1.207-.6a2.07 2.07 0 0 0-2.027 1.156c-.508 1.03-.231 2.479.78 3.1.351.2.745.313 1.148.331a2.03 2.03 0 0 0 1.39-.789q.48.308.915.678c-.505.744-1.426 1.113-2.303 1.12a3.48 3.48 0 0 1-2.373-.859c-1.131-1.052-1.277-2.89-.554-4.21z"/></svg>