<svg width="181" height="152" viewBox="0 0 181 152" fill="none" xmlns="http://www.w3.org/2000/svg">
<path d="M98.856 60.8759L108.46 58.3288L129.019 52.8594L94.3316 104.829L32.8154 78.4491L62.6805 70.5116" stroke="black" stroke-width="2.5" stroke-linecap="round" stroke-linejoin="round"/>
<path d="M32.8154 78.4491L49.3454 143.352L145.846 117.762L129.039 52.8594" stroke="black" stroke-width="2.5" stroke-linecap="round" stroke-linejoin="round"/>
<path d="M136.501 78.2714C136.501 78.2714 139.18 50.253 147.832 54.6562C151.781 56.6504 148.903 73.5326 148.903 73.5326C148.903 73.5326 156.901 49.8976 163.905 52.8593C172.557 56.5319 156.603 79.8313 156.603 79.8313C156.603 79.8313 168.39 61.1523 173.45 66.7402C178.511 72.3281 158.845 88.223 158.845 88.223C158.845 88.223 177.538 71.7555 178.828 83.9778C179.86 93.7319 159.818 104.848 140.529 98.7077" stroke="black" stroke-width="2.5" stroke-linecap="round" stroke-linejoin="round"/>
<path d="M45.0198 126.391C32.3197 139.106 10.1937 139.264 5.70897 131.11C0.450336 121.513 19.4608 122.797 23.7273 123.192C23.8463 123.212 23.9455 123.212 24.0249 123.212C24.2035 123.231 24.3424 123.251 24.4416 123.251" stroke="black" stroke-width="2.5" stroke-linecap="round" stroke-linejoin="round"/>
<path d="M24.5607 123.29C24.5607 123.29 24.521 123.29 24.4218 123.271C24.3027 123.271 24.1836 123.251 24.005 123.231C23.9455 123.231 23.8265 123.231 23.7074 123.211C19.56 122.718 1.60127 120.25 2.43471 113.675C3.26815 107.218 17.0994 113.082 20.7506 114.741C20.7506 114.761 20.7506 114.761 20.7705 114.741C20.9094 114.82 21.0086 114.879 21.1277 114.918C21.1674 114.938 21.1872 114.958 21.2269 114.958C21.2864 114.997 21.3658 115.017 21.4055 115.037C21.465 115.076 21.5444 115.096 21.5642 115.116C21.6039 115.136 21.6238 115.136 21.6238 115.136C21.6238 115.136 21.6039 115.136 21.5642 115.116C21.5444 115.096 21.465 115.076 21.4055 115.037C21.3658 115.017 21.2864 114.997 21.2269 114.958C21.2071 114.958 21.1872 114.938 21.1277 114.918C21.0086 114.879 20.9094 114.8 20.7705 114.741C20.7506 114.761 20.7506 114.761 20.7506 114.741C16.6033 112.687 -0.899068 103.565 2.41487 97.7402C6.06615 91.3427 27.6365 106.408 28.7279 107.198" stroke="black" stroke-width="2.5" stroke-linecap="round" stroke-linejoin="round"/>
<path d="M28.7873 107.198C28.7873 107.198 28.7675 107.198 28.7476 107.178C27.815 106.349 11.7216 91.7968 14.083 88.7758C18.9646 82.5561 38.0941 102.775 38.0941 102.775" stroke="black" stroke-width="2.5" stroke-linecap="round" stroke-linejoin="round"/>
<path d="M38.0342 38.2874C38.9867 37.7346 45.7932 31.5938 47.2021 25.0187C48.6308 18.3448 43.1539 15.8569 41.0108 16.0938C39.5423 16.2518 38.1532 18.6607 38.3517 21.3263C38.7882 27.546 46.6068 34.1804 54.1871 32.8772C61.8866 31.5543 64.7044 22.8467 65.0417 21.7804C65.4188 20.5957 67.423 14.297 63.8313 9.77537C62.0255 7.48493 58.2353 7.44544 56.6875 9.08429C54.8221 11.0588 56.0326 15.8569 58.5528 18.6212C62.7795 23.2416 70.4393 23.3403 75.7376 21.4645C80.2422 19.8652 87.128 15.6397 87.6638 9.4397C88.0408 5.19449 86.1358 1.73908 82.7425 2.01551C80.262 2.21296 77.2259 4.74035 77.087 9.02505C76.8886 15.0276 81.8099 21.4448 88.5369 22.9652C96.3554 24.7422 102.408 18.8976 102.864 18.4633" stroke="#F9518C" stroke-width="2.5" stroke-linecap="round" stroke-linejoin="round"/>
<path d="M79.0324 79.0019C90.0247 79.0019 98.9358 70.1352 98.9358 59.1975C98.9358 48.2598 90.0247 39.3931 79.0324 39.3931C68.04 39.3931 59.1289 48.2598 59.1289 59.1975C59.1289 70.1352 68.04 79.0019 79.0324 79.0019Z" stroke="black" stroke-width="2.5" stroke-linecap="round" stroke-linejoin="round"/>
<path d="M156.444 114.82C156.444 126.075 147.272 135.21 135.945 135.21C124.618 135.21 115.446 126.075 115.446 114.82C115.446 103.564 124.618 94.429 135.945 94.429C147.272 94.429 156.444 103.564 156.444 114.82Z" fill="#00CEC9" stroke="black" stroke-width="2.5"/>
<path d="M130 118.078L135.881 121L142 107" stroke="white" stroke-width="2.5" stroke-linecap="round" stroke-linejoin="round"/>
<path d="M115.724 136.48C119.772 136.48 123.066 139.758 123.066 143.786C123.066 147.814 119.772 151.092 115.724 151.092C111.676 151.092 108.382 147.814 108.382 143.786C108.382 139.758 111.676 136.48 115.724 136.48Z" fill="#FEC458"/>
<path d="M133.96 143.352C136.361 143.352 138.306 145.287 138.306 147.676C138.306 150.065 136.361 152 133.96 152C131.559 152 129.614 150.065 129.614 147.676C129.614 145.287 131.559 143.352 133.96 143.352Z" fill="#F9518C"/>
</svg>
